G75*
%MOIN*%
%OFA0B0*%
%FSLAX25Y25*%
%IPPOS*%
%LPD*%
%AMOC8*
5,1,8,0,0,1.08239X$1,22.5*
%
%ADD10C,0.00600*%
%ADD11R,0.04700X0.07900*%
%ADD12C,0.02953*%
%ADD13C,0.01600*%
%ADD14C,0.02362*%
%ADD15C,0.00700*%
D10*
X0087781Y0063124D02*
X0092051Y0063124D01*
X0087781Y0067394D01*
X0087781Y0068462D01*
X0088848Y0069529D01*
X0090984Y0069529D01*
X0092051Y0068462D01*
D11*
X0204536Y0086763D03*
X0214536Y0086763D03*
X0224536Y0086763D03*
X0219536Y0110363D03*
X0209536Y0110363D03*
X0199536Y0110363D03*
X0233001Y0145818D03*
X0243001Y0145818D03*
X0253001Y0145818D03*
X0263001Y0145818D03*
X0258001Y0169418D03*
X0248001Y0169418D03*
X0238001Y0169418D03*
X0228001Y0169418D03*
D12*
X0243032Y0168603D03*
X0269123Y0145107D03*
X0322272Y0168103D03*
X0391170Y0166761D03*
X0462036Y0166761D03*
X0232115Y0086446D03*
X0186446Y0086052D03*
X0164792Y0168603D03*
X0088020Y0168603D03*
D13*
X0084957Y0168603D01*
X0084957Y0168301D01*
X0085074Y0167709D01*
X0085305Y0167152D01*
X0085641Y0166650D01*
X0086067Y0166223D01*
X0086569Y0165888D01*
X0087127Y0165657D01*
X0087719Y0165539D01*
X0088020Y0165539D01*
X0088020Y0168603D01*
X0088020Y0168603D01*
X0084957Y0168603D01*
X0084957Y0168905D01*
X0085074Y0169497D01*
X0085305Y0170054D01*
X0085641Y0170556D01*
X0086067Y0170983D01*
X0086569Y0171318D01*
X0087127Y0171549D01*
X0087719Y0171667D01*
X0088020Y0171667D01*
X0088020Y0168603D01*
X0088021Y0168603D01*
X0088021Y0168603D01*
X0091084Y0168603D01*
X0091084Y0168301D01*
X0090966Y0167709D01*
X0090736Y0167152D01*
X0090400Y0166650D01*
X0089974Y0166223D01*
X0089472Y0165888D01*
X0088914Y0165657D01*
X0088322Y0165539D01*
X0088021Y0165539D01*
X0088021Y0168603D01*
X0091084Y0168603D01*
X0091084Y0168905D01*
X0090966Y0169497D01*
X0090736Y0170054D01*
X0090400Y0170556D01*
X0089974Y0170983D01*
X0089472Y0171318D01*
X0088914Y0171549D01*
X0088322Y0171667D01*
X0088021Y0171667D01*
X0088021Y0168603D01*
X0088020Y0168603D01*
X0088020Y0167955D02*
X0088021Y0167955D01*
X0088020Y0166357D02*
X0088021Y0166357D01*
X0090107Y0166357D02*
X0162706Y0166357D01*
X0162839Y0166223D02*
X0163341Y0165888D01*
X0163898Y0165657D01*
X0164490Y0165539D01*
X0164792Y0165539D01*
X0164792Y0168603D01*
X0164792Y0168603D01*
X0161728Y0168603D01*
X0161728Y0168301D01*
X0161846Y0167709D01*
X0162077Y0167152D01*
X0162412Y0166650D01*
X0162839Y0166223D01*
X0164792Y0166357D02*
X0164792Y0166357D01*
X0164792Y0165539D02*
X0165094Y0165539D01*
X0165686Y0165657D01*
X0166243Y0165888D01*
X0166745Y0166223D01*
X0167172Y0166650D01*
X0167507Y0167152D01*
X0167738Y0167709D01*
X0167856Y0168301D01*
X0167856Y0168603D01*
X0164792Y0168603D01*
X0164792Y0168603D01*
X0164792Y0165539D01*
X0166879Y0166357D02*
X0215248Y0166357D01*
X0215167Y0166159D02*
X0215167Y0164077D01*
X0215963Y0162153D01*
X0217436Y0160681D01*
X0219360Y0159884D01*
X0221442Y0159884D01*
X0223366Y0160681D01*
X0224838Y0162153D01*
X0225554Y0163881D01*
X0227626Y0163881D01*
X0227626Y0169043D01*
X0228376Y0169043D01*
X0228376Y0169793D01*
X0231938Y0169793D01*
X0231938Y0173060D01*
X0234260Y0173060D01*
X0234260Y0164892D01*
X0234763Y0164390D01*
X0227063Y0156690D01*
X0204090Y0156690D01*
X0203650Y0157130D01*
X0202705Y0157521D01*
X0201682Y0157521D01*
X0200737Y0157130D01*
X0200014Y0156406D01*
X0199622Y0155461D01*
X0199622Y0154438D01*
X0200014Y0153493D01*
X0200737Y0152769D01*
X0201682Y0152378D01*
X0202705Y0152378D01*
X0203650Y0152769D01*
X0204090Y0153209D01*
X0228505Y0153209D01*
X0238722Y0163426D01*
X0239374Y0164078D01*
X0240927Y0164078D01*
X0241741Y0164892D01*
X0241741Y0165822D01*
X0242139Y0165657D01*
X0242731Y0165539D01*
X0243032Y0165539D01*
X0243032Y0168603D01*
X0243032Y0168603D01*
X0243032Y0165539D01*
X0243334Y0165539D01*
X0243926Y0165657D01*
X0244260Y0165796D01*
X0244260Y0164892D01*
X0245075Y0164078D01*
X0246044Y0164078D01*
X0246044Y0157851D01*
X0247063Y0156831D01*
X0247697Y0156197D01*
X0248717Y0155178D01*
X0275718Y0155178D01*
X0283592Y0163052D01*
X0292817Y0163052D01*
X0293257Y0162612D01*
X0294202Y0162220D01*
X0295225Y0162220D01*
X0296170Y0162612D01*
X0296894Y0163335D01*
X0297285Y0164281D01*
X0297285Y0165304D01*
X0296894Y0166249D01*
X0296170Y0166972D01*
X0295225Y0167364D01*
X0294202Y0167364D01*
X0293257Y0166972D01*
X0292817Y0166533D01*
X0282150Y0166533D01*
X0281130Y0165513D01*
X0274276Y0158659D01*
X0250159Y0158659D01*
X0249525Y0159293D01*
X0249525Y0164078D01*
X0250927Y0164078D01*
X0251741Y0164892D01*
X0251741Y0173060D01*
X0254260Y0173060D01*
X0254260Y0164892D01*
X0255075Y0164078D01*
X0260927Y0164078D01*
X0261741Y0164892D01*
X0261741Y0168957D01*
X0267037Y0168957D01*
X0266163Y0168083D01*
X0265367Y0166159D01*
X0265367Y0164077D01*
X0266163Y0162153D01*
X0267636Y0160681D01*
X0269560Y0159884D01*
X0271642Y0159884D01*
X0273566Y0160681D01*
X0275038Y0162153D01*
X0275835Y0164077D01*
X0275835Y0166159D01*
X0275038Y0168083D01*
X0274164Y0168957D01*
X0319319Y0168957D01*
X0319209Y0168405D01*
X0319209Y0168103D01*
X0319209Y0167801D01*
X0319326Y0167209D01*
X0319557Y0166652D01*
X0319893Y0166150D01*
X0320319Y0165723D01*
X0320821Y0165388D01*
X0321379Y0165157D01*
X0321971Y0165039D01*
X0322272Y0165039D01*
X0322272Y0168103D01*
X0319209Y0168103D01*
X0322272Y0168103D01*
X0322272Y0168103D01*
X0322272Y0168103D01*
X0322272Y0165039D01*
X0322574Y0165039D01*
X0323166Y0165157D01*
X0323724Y0165388D01*
X0324225Y0165723D01*
X0324652Y0166150D01*
X0324988Y0166652D01*
X0325218Y0167209D01*
X0325336Y0167801D01*
X0325336Y0168103D01*
X0322273Y0168103D01*
X0322273Y0168103D01*
X0325336Y0168103D01*
X0325336Y0168405D01*
X0325226Y0168957D01*
X0389034Y0168957D01*
X0388790Y0168714D01*
X0388455Y0168212D01*
X0388224Y0167654D01*
X0388106Y0167062D01*
X0388106Y0166761D01*
X0391170Y0166761D01*
X0391170Y0166761D01*
X0394234Y0166761D01*
X0394234Y0167062D01*
X0394116Y0167654D01*
X0393885Y0168212D01*
X0393550Y0168714D01*
X0393306Y0168957D01*
X0437693Y0168957D01*
X0437811Y0168839D01*
X0437811Y0168218D01*
X0438203Y0167272D01*
X0438926Y0166549D01*
X0439871Y0166157D01*
X0440894Y0166157D01*
X0441839Y0166549D01*
X0442563Y0167272D01*
X0442954Y0168218D01*
X0442954Y0169241D01*
X0442563Y0170186D01*
X0441839Y0170909D01*
X0440894Y0171301D01*
X0440273Y0171301D01*
X0440155Y0171419D01*
X0439135Y0172438D01*
X0261741Y0172438D01*
X0261741Y0173060D01*
X0536797Y0173060D01*
X0538418Y0171882D01*
X0540261Y0169344D01*
X0541231Y0166361D01*
X0541354Y0164792D01*
X0541354Y0156174D01*
X0541754Y0155209D01*
X0541453Y0154908D01*
X0541453Y0153377D01*
X0540878Y0154571D01*
X0537471Y0158242D01*
X0533135Y0160746D01*
X0533135Y0160746D01*
X0528252Y0161860D01*
X0523259Y0161486D01*
X0523258Y0161486D01*
X0518597Y0159656D01*
X0518597Y0159656D01*
X0514682Y0156534D01*
X0511861Y0152396D01*
X0510384Y0147611D01*
X0510384Y0142603D01*
X0511861Y0137818D01*
X0514682Y0133680D01*
X0518597Y0130558D01*
X0523258Y0128728D01*
X0528252Y0128354D01*
X0528252Y0128354D01*
X0533135Y0129468D01*
X0537471Y0131972D01*
X0537471Y0131972D01*
X0540878Y0135643D01*
X0540878Y0135643D01*
X0541354Y0136633D01*
X0541354Y0135292D01*
X0541207Y0133759D01*
X0540208Y0130850D01*
X0538358Y0128393D01*
X0535839Y0126627D01*
X0532898Y0125726D01*
X0531362Y0125631D01*
X0531342Y0125631D01*
X0530619Y0125644D01*
X0530606Y0125631D01*
X0417985Y0125631D01*
X0417020Y0125232D01*
X0416719Y0125533D01*
X0407944Y0125533D01*
X0407585Y0125174D01*
X0406481Y0125631D01*
X0352446Y0125631D01*
X0352386Y0125681D01*
X0358458Y0125681D01*
X0379249Y0146472D01*
X0379871Y0146472D01*
X0380816Y0146864D01*
X0381539Y0147587D01*
X0381931Y0148533D01*
X0381931Y0149556D01*
X0381539Y0150501D01*
X0380816Y0151224D01*
X0379871Y0151616D01*
X0378848Y0151616D01*
X0377902Y0151224D01*
X0377179Y0150501D01*
X0376787Y0149556D01*
X0376787Y0148934D01*
X0357016Y0129163D01*
X0295574Y0129163D01*
X0296914Y0129468D01*
X0301251Y0131972D01*
X0304657Y0135643D01*
X0304657Y0135643D01*
X0306830Y0140155D01*
X0306830Y0140155D01*
X0307576Y0145107D01*
X0306830Y0150059D01*
X0304657Y0154571D01*
X0301251Y0158242D01*
X0296914Y0160746D01*
X0292032Y0161860D01*
X0292032Y0161860D01*
X0287038Y0161486D01*
X0282376Y0159656D01*
X0278461Y0156534D01*
X0275640Y0152396D01*
X0274164Y0147611D01*
X0274164Y0142603D01*
X0275640Y0137818D01*
X0275640Y0137818D01*
X0278461Y0133680D01*
X0282376Y0130558D01*
X0282376Y0130558D01*
X0285931Y0129163D01*
X0261970Y0129163D01*
X0254741Y0136391D01*
X0254741Y0140478D01*
X0255927Y0140478D01*
X0256741Y0141292D01*
X0256741Y0150344D01*
X0255927Y0151159D01*
X0250075Y0151159D01*
X0249260Y0150344D01*
X0249260Y0141292D01*
X0250075Y0140478D01*
X0251260Y0140478D01*
X0251260Y0134949D01*
X0260528Y0125681D01*
X0352269Y0125681D01*
X0351719Y0125631D01*
X0351061Y0125631D01*
X0350995Y0125566D01*
X0350582Y0125528D01*
X0349345Y0124655D01*
X0348414Y0125041D01*
X0347312Y0125041D01*
X0346295Y0124619D01*
X0345894Y0124219D01*
X0345494Y0124619D01*
X0344477Y0125041D01*
X0343375Y0125041D01*
X0342358Y0124619D01*
X0341957Y0124219D01*
X0341557Y0124619D01*
X0340540Y0125041D01*
X0339438Y0125041D01*
X0338421Y0124619D01*
X0338314Y0124512D01*
X0337058Y0125238D01*
X0236621Y0125238D01*
X0235365Y0124512D01*
X0235258Y0124619D01*
X0234240Y0125041D01*
X0233139Y0125041D01*
X0232122Y0124619D01*
X0231721Y0124219D01*
X0231321Y0124619D01*
X0230303Y0125041D01*
X0229202Y0125041D01*
X0228185Y0124619D01*
X0227784Y0124219D01*
X0227384Y0124619D01*
X0226366Y0125041D01*
X0225265Y0125041D01*
X0224248Y0124619D01*
X0224141Y0124512D01*
X0222884Y0125238D01*
X0083078Y0125238D01*
X0081822Y0124512D01*
X0081715Y0124619D01*
X0080697Y0125041D01*
X0079596Y0125041D01*
X0078578Y0124619D01*
X0078178Y0124219D01*
X0077778Y0124619D01*
X0076760Y0125041D01*
X0075659Y0125041D01*
X0074641Y0124619D01*
X0074241Y0124219D01*
X0073841Y0124619D01*
X0072823Y0125041D01*
X0071722Y0125041D01*
X0070704Y0124619D01*
X0070597Y0124512D01*
X0069341Y0125238D01*
X0051013Y0125238D01*
X0049444Y0125361D01*
X0046461Y0126331D01*
X0043923Y0128175D01*
X0042079Y0130712D01*
X0041109Y0133696D01*
X0040986Y0135265D01*
X0040986Y0136676D01*
X0043028Y0133680D01*
X0046943Y0130558D01*
X0046943Y0130558D01*
X0051605Y0128728D01*
X0056599Y0128354D01*
X0061481Y0129468D01*
X0065818Y0131972D01*
X0065818Y0131972D01*
X0065818Y0131972D01*
X0069224Y0135643D01*
X0069224Y0135643D01*
X0071397Y0140155D01*
X0071397Y0140155D01*
X0072143Y0145107D01*
X0071397Y0150059D01*
X0069224Y0154571D01*
X0065818Y0158242D01*
X0061481Y0160746D01*
X0056599Y0161860D01*
X0056599Y0161860D01*
X0051605Y0161486D01*
X0046943Y0159656D01*
X0043028Y0156534D01*
X0043028Y0156534D01*
X0043028Y0156534D01*
X0040703Y0153124D01*
X0040586Y0153241D01*
X0040986Y0154205D01*
X0040986Y0164792D01*
X0041109Y0166361D01*
X0042079Y0169344D01*
X0043923Y0171882D01*
X0045544Y0173060D01*
X0224063Y0173060D01*
X0224063Y0169793D01*
X0227626Y0169793D01*
X0227626Y0169043D01*
X0224063Y0169043D01*
X0224063Y0168858D01*
X0223366Y0169555D01*
X0221442Y0170352D01*
X0219360Y0170352D01*
X0217436Y0169555D01*
X0215963Y0168083D01*
X0215167Y0166159D01*
X0215167Y0164758D02*
X0040986Y0164758D01*
X0040986Y0163160D02*
X0215546Y0163160D01*
X0216555Y0161561D02*
X0057908Y0161561D01*
X0061481Y0160746D02*
X0061481Y0160746D01*
X0062837Y0159963D02*
X0219169Y0159963D01*
X0221633Y0159963D02*
X0230336Y0159963D01*
X0231934Y0161561D02*
X0224246Y0161561D01*
X0225255Y0163160D02*
X0233533Y0163160D01*
X0234394Y0164758D02*
X0231774Y0164758D01*
X0231830Y0164855D02*
X0231938Y0165259D01*
X0231938Y0169043D01*
X0228376Y0169043D01*
X0228376Y0163881D01*
X0230560Y0163881D01*
X0230963Y0163989D01*
X0231325Y0164198D01*
X0231621Y0164493D01*
X0231830Y0164855D01*
X0231938Y0166357D02*
X0234260Y0166357D01*
X0234260Y0167955D02*
X0231938Y0167955D01*
X0234260Y0169554D02*
X0228376Y0169554D01*
X0227626Y0169554D02*
X0223367Y0169554D01*
X0224063Y0171152D02*
X0166492Y0171152D01*
X0166243Y0171318D02*
X0165686Y0171549D01*
X0165094Y0171667D01*
X0164792Y0171667D01*
X0164490Y0171667D01*
X0163898Y0171549D01*
X0163341Y0171318D01*
X0162839Y0170983D01*
X0162412Y0170556D01*
X0162077Y0170054D01*
X0161846Y0169497D01*
X0161728Y0168905D01*
X0161728Y0168603D01*
X0164792Y0168603D01*
X0164792Y0168603D01*
X0164792Y0171667D01*
X0164792Y0168603D01*
X0164792Y0168603D01*
X0167856Y0168603D01*
X0167856Y0168905D01*
X0167738Y0169497D01*
X0167507Y0170054D01*
X0167172Y0170556D01*
X0166745Y0170983D01*
X0166243Y0171318D01*
X0164792Y0171152D02*
X0164792Y0171152D01*
X0164792Y0169554D02*
X0164792Y0169554D01*
X0164792Y0167955D02*
X0164792Y0167955D01*
X0161797Y0167955D02*
X0091015Y0167955D01*
X0090943Y0169554D02*
X0161870Y0169554D01*
X0163093Y0171152D02*
X0089720Y0171152D01*
X0088021Y0171152D02*
X0088020Y0171152D01*
X0088020Y0169554D02*
X0088021Y0169554D01*
X0086321Y0171152D02*
X0043392Y0171152D01*
X0042231Y0169554D02*
X0085098Y0169554D01*
X0085026Y0167955D02*
X0041627Y0167955D01*
X0041109Y0166357D02*
X0085934Y0166357D01*
X0067188Y0156766D02*
X0200373Y0156766D01*
X0199622Y0155167D02*
X0068671Y0155167D01*
X0069224Y0154571D02*
X0069224Y0154571D01*
X0069707Y0153569D02*
X0138653Y0153569D01*
X0138690Y0153584D02*
X0137745Y0153193D01*
X0137021Y0152469D01*
X0136630Y0151524D01*
X0136630Y0150501D01*
X0137021Y0149556D01*
X0137745Y0148832D01*
X0138690Y0148441D01*
X0139312Y0148441D01*
X0139430Y0148323D01*
X0140449Y0147304D01*
X0229054Y0147304D01*
X0229260Y0147097D01*
X0229260Y0141292D01*
X0230075Y0140478D01*
X0235927Y0140478D01*
X0236741Y0141292D01*
X0236741Y0150344D01*
X0235927Y0151159D01*
X0230075Y0151159D01*
X0229701Y0150785D01*
X0141891Y0150785D01*
X0141773Y0150902D01*
X0141773Y0151524D01*
X0141382Y0152469D01*
X0140658Y0153193D01*
X0139713Y0153584D01*
X0138690Y0153584D01*
X0139750Y0153569D02*
X0199982Y0153569D01*
X0204014Y0156766D02*
X0227139Y0156766D01*
X0228737Y0158364D02*
X0065606Y0158364D01*
X0065818Y0158242D02*
X0065818Y0158242D01*
X0052612Y0161561D02*
X0040986Y0161561D01*
X0040986Y0159963D02*
X0047724Y0159963D01*
X0046943Y0159656D02*
X0046943Y0159656D01*
X0045323Y0158364D02*
X0040986Y0158364D01*
X0040986Y0156766D02*
X0043319Y0156766D01*
X0042096Y0155167D02*
X0040986Y0155167D01*
X0041006Y0153569D02*
X0040722Y0153569D01*
X0051605Y0161486D02*
X0051605Y0161486D01*
X0045118Y0172751D02*
X0224063Y0172751D01*
X0217434Y0169554D02*
X0167715Y0169554D01*
X0167787Y0167955D02*
X0215911Y0167955D01*
X0227626Y0167955D02*
X0228376Y0167955D01*
X0228376Y0166357D02*
X0227626Y0166357D01*
X0227626Y0164758D02*
X0228376Y0164758D01*
X0236857Y0161561D02*
X0246044Y0161561D01*
X0246044Y0159963D02*
X0235259Y0159963D01*
X0233660Y0158364D02*
X0246044Y0158364D01*
X0246012Y0156537D02*
X0244989Y0156537D01*
X0244044Y0156145D01*
X0243321Y0155422D01*
X0242929Y0154477D01*
X0242929Y0153855D01*
X0241260Y0152186D01*
X0241260Y0151159D01*
X0240075Y0151159D01*
X0239260Y0150344D01*
X0239260Y0141292D01*
X0240075Y0140478D01*
X0245927Y0140478D01*
X0246741Y0141292D01*
X0246741Y0150344D01*
X0245927Y0151159D01*
X0245156Y0151159D01*
X0245391Y0151394D01*
X0246012Y0151394D01*
X0246958Y0151785D01*
X0247681Y0152509D01*
X0248072Y0153454D01*
X0248072Y0154477D01*
X0247681Y0155422D01*
X0246958Y0156145D01*
X0246012Y0156537D01*
X0247129Y0156766D02*
X0232062Y0156766D01*
X0230463Y0155167D02*
X0243215Y0155167D01*
X0242643Y0153569D02*
X0228865Y0153569D01*
X0236714Y0150372D02*
X0239288Y0150372D01*
X0239260Y0148773D02*
X0236741Y0148773D01*
X0236741Y0147175D02*
X0239260Y0147175D01*
X0239260Y0145576D02*
X0236741Y0145576D01*
X0236741Y0143978D02*
X0239260Y0143978D01*
X0239260Y0142379D02*
X0236741Y0142379D01*
X0236230Y0140781D02*
X0239772Y0140781D01*
X0246230Y0140781D02*
X0249772Y0140781D01*
X0249260Y0142379D02*
X0246741Y0142379D01*
X0246741Y0143978D02*
X0249260Y0143978D01*
X0249260Y0145576D02*
X0246741Y0145576D01*
X0246741Y0147175D02*
X0249260Y0147175D01*
X0249260Y0148773D02*
X0246741Y0148773D01*
X0246714Y0150372D02*
X0249288Y0150372D01*
X0247143Y0151970D02*
X0275509Y0151970D01*
X0275640Y0152396D02*
X0275640Y0152396D01*
X0276439Y0153569D02*
X0248072Y0153569D01*
X0247786Y0155167D02*
X0277529Y0155167D01*
X0277306Y0156766D02*
X0278752Y0156766D01*
X0278461Y0156534D02*
X0278461Y0156534D01*
X0278461Y0156534D01*
X0278905Y0158364D02*
X0280756Y0158364D01*
X0280503Y0159963D02*
X0283157Y0159963D01*
X0282376Y0159656D02*
X0282376Y0159656D01*
X0282102Y0161561D02*
X0288045Y0161561D01*
X0287038Y0161486D02*
X0287038Y0161486D01*
X0278777Y0163160D02*
X0275455Y0163160D01*
X0275835Y0164758D02*
X0280376Y0164758D01*
X0281974Y0166357D02*
X0275753Y0166357D01*
X0275091Y0167955D02*
X0319209Y0167955D01*
X0319754Y0166357D02*
X0296785Y0166357D01*
X0297285Y0164758D02*
X0388840Y0164758D01*
X0388790Y0164808D02*
X0389217Y0164381D01*
X0389719Y0164046D01*
X0390276Y0163815D01*
X0390868Y0163697D01*
X0391170Y0163697D01*
X0391170Y0166760D01*
X0391170Y0166760D01*
X0391170Y0163697D01*
X0391472Y0163697D01*
X0392064Y0163815D01*
X0392621Y0164046D01*
X0393123Y0164381D01*
X0393550Y0164808D01*
X0393885Y0165309D01*
X0394116Y0165867D01*
X0394234Y0166459D01*
X0394234Y0166761D01*
X0391170Y0166761D01*
X0391170Y0166761D01*
X0388106Y0166761D01*
X0388106Y0166459D01*
X0388224Y0165867D01*
X0388455Y0165309D01*
X0388790Y0164808D01*
X0388127Y0166357D02*
X0324790Y0166357D01*
X0325336Y0167955D02*
X0388349Y0167955D01*
X0391170Y0166357D02*
X0391170Y0166357D01*
X0391170Y0164758D02*
X0391170Y0164758D01*
X0393501Y0164758D02*
X0459706Y0164758D01*
X0459656Y0164808D02*
X0460083Y0164381D01*
X0460585Y0164046D01*
X0461143Y0163815D01*
X0461734Y0163697D01*
X0462036Y0163697D01*
X0462036Y0166760D01*
X0462036Y0166760D01*
X0462036Y0163697D01*
X0462338Y0163697D01*
X0462930Y0163815D01*
X0463487Y0164046D01*
X0463989Y0164381D01*
X0464416Y0164808D01*
X0464751Y0165309D01*
X0464982Y0165867D01*
X0465100Y0166459D01*
X0465100Y0166761D01*
X0465100Y0167062D01*
X0464982Y0167654D01*
X0464751Y0168212D01*
X0464416Y0168714D01*
X0463989Y0169140D01*
X0463487Y0169476D01*
X0462930Y0169707D01*
X0462338Y0169824D01*
X0462036Y0169824D01*
X0461734Y0169824D01*
X0461143Y0169707D01*
X0460585Y0169476D01*
X0460083Y0169140D01*
X0459656Y0168714D01*
X0459321Y0168212D01*
X0459090Y0167654D01*
X0458972Y0167062D01*
X0458972Y0166761D01*
X0462036Y0166761D01*
X0462036Y0169824D01*
X0462036Y0166761D01*
X0462036Y0166761D01*
X0462036Y0166761D01*
X0458972Y0166761D01*
X0458972Y0166459D01*
X0459090Y0165867D01*
X0459321Y0165309D01*
X0459656Y0164808D01*
X0458993Y0166357D02*
X0441376Y0166357D01*
X0439390Y0166357D02*
X0394214Y0166357D01*
X0393991Y0167955D02*
X0437920Y0167955D01*
X0442846Y0167955D02*
X0459215Y0167955D01*
X0460774Y0169554D02*
X0442825Y0169554D01*
X0441252Y0171152D02*
X0538948Y0171152D01*
X0540109Y0169554D02*
X0463299Y0169554D01*
X0462036Y0169554D02*
X0462036Y0169554D01*
X0462036Y0167955D02*
X0462036Y0167955D01*
X0462036Y0166761D02*
X0465100Y0166761D01*
X0462036Y0166761D01*
X0462036Y0166761D01*
X0462036Y0166357D02*
X0462036Y0166357D01*
X0462036Y0164758D02*
X0462036Y0164758D01*
X0464367Y0164758D02*
X0541354Y0164758D01*
X0541354Y0163160D02*
X0296718Y0163160D01*
X0296914Y0160746D02*
X0296914Y0160746D01*
X0298270Y0159963D02*
X0519378Y0159963D01*
X0516977Y0158364D02*
X0301039Y0158364D01*
X0301251Y0158242D02*
X0301251Y0158242D01*
X0302621Y0156766D02*
X0514972Y0156766D01*
X0514682Y0156534D02*
X0514682Y0156534D01*
X0513750Y0155167D02*
X0304104Y0155167D01*
X0304657Y0154571D02*
X0304657Y0154571D01*
X0305140Y0153569D02*
X0512660Y0153569D01*
X0511861Y0152396D02*
X0511861Y0152396D01*
X0511729Y0151970D02*
X0305910Y0151970D01*
X0306679Y0150372D02*
X0377125Y0150372D01*
X0376627Y0148773D02*
X0307024Y0148773D01*
X0307265Y0147175D02*
X0375028Y0147175D01*
X0373430Y0145576D02*
X0307506Y0145576D01*
X0307576Y0145107D02*
X0307576Y0145107D01*
X0307406Y0143978D02*
X0371831Y0143978D01*
X0370233Y0142379D02*
X0307165Y0142379D01*
X0306924Y0140781D02*
X0368634Y0140781D01*
X0367036Y0139182D02*
X0306361Y0139182D01*
X0305592Y0137584D02*
X0365437Y0137584D01*
X0363839Y0135985D02*
X0304822Y0135985D01*
X0303491Y0134387D02*
X0362240Y0134387D01*
X0360642Y0132788D02*
X0302008Y0132788D01*
X0301251Y0131972D02*
X0301251Y0131972D01*
X0299895Y0131190D02*
X0359043Y0131190D01*
X0357445Y0129591D02*
X0297127Y0129591D01*
X0296914Y0129468D02*
X0296914Y0129468D01*
X0284840Y0129591D02*
X0261541Y0129591D01*
X0259943Y0131190D02*
X0281584Y0131190D01*
X0279580Y0132788D02*
X0258344Y0132788D01*
X0256746Y0134387D02*
X0277979Y0134387D01*
X0278461Y0133680D02*
X0278461Y0133680D01*
X0278461Y0133680D01*
X0276890Y0135985D02*
X0255147Y0135985D01*
X0254741Y0137584D02*
X0275800Y0137584D01*
X0275219Y0139182D02*
X0254741Y0139182D01*
X0256230Y0140781D02*
X0259772Y0140781D01*
X0260075Y0140478D02*
X0265927Y0140478D01*
X0266741Y0141292D01*
X0266741Y0142917D01*
X0267259Y0142917D01*
X0267499Y0142677D01*
X0268553Y0142240D01*
X0269693Y0142240D01*
X0270747Y0142677D01*
X0271553Y0143483D01*
X0271990Y0144537D01*
X0271990Y0145677D01*
X0271553Y0146731D01*
X0270747Y0147538D01*
X0269693Y0147974D01*
X0268553Y0147974D01*
X0267499Y0147538D01*
X0267259Y0147298D01*
X0266741Y0147298D01*
X0266741Y0150344D01*
X0265927Y0151159D01*
X0260075Y0151159D01*
X0259260Y0150344D01*
X0259260Y0141292D01*
X0260075Y0140478D01*
X0259260Y0142379D02*
X0256741Y0142379D01*
X0256741Y0143978D02*
X0259260Y0143978D01*
X0259260Y0145576D02*
X0256741Y0145576D01*
X0256741Y0147175D02*
X0259260Y0147175D01*
X0259260Y0148773D02*
X0256741Y0148773D01*
X0256714Y0150372D02*
X0259288Y0150372D01*
X0266714Y0150372D02*
X0275016Y0150372D01*
X0274523Y0148773D02*
X0266741Y0148773D01*
X0271110Y0147175D02*
X0274164Y0147175D01*
X0274164Y0145576D02*
X0271990Y0145576D01*
X0271758Y0143978D02*
X0274164Y0143978D01*
X0274233Y0142379D02*
X0270029Y0142379D01*
X0268217Y0142379D02*
X0266741Y0142379D01*
X0266230Y0140781D02*
X0274726Y0140781D01*
X0269123Y0145107D02*
X0263712Y0145107D01*
X0263001Y0145818D01*
X0251260Y0139182D02*
X0070928Y0139182D01*
X0071491Y0140781D02*
X0229772Y0140781D01*
X0229260Y0142379D02*
X0071732Y0142379D01*
X0071973Y0143978D02*
X0229260Y0143978D01*
X0229260Y0145576D02*
X0072073Y0145576D01*
X0071832Y0147175D02*
X0229183Y0147175D01*
X0241260Y0151970D02*
X0141588Y0151970D01*
X0136815Y0151970D02*
X0070477Y0151970D01*
X0071246Y0150372D02*
X0136683Y0150372D01*
X0137888Y0148773D02*
X0071591Y0148773D01*
X0071397Y0150059D02*
X0071397Y0150059D01*
X0070159Y0137584D02*
X0251260Y0137584D01*
X0251260Y0135985D02*
X0069389Y0135985D01*
X0068058Y0134387D02*
X0251823Y0134387D01*
X0253421Y0132788D02*
X0066575Y0132788D01*
X0064462Y0131190D02*
X0255020Y0131190D01*
X0256618Y0129591D02*
X0061694Y0129591D01*
X0061481Y0129468D02*
X0061481Y0129468D01*
X0056599Y0128354D02*
X0056599Y0128354D01*
X0051605Y0128728D02*
X0051605Y0128728D01*
X0049407Y0129591D02*
X0042893Y0129591D01*
X0041924Y0131190D02*
X0046151Y0131190D01*
X0044147Y0132788D02*
X0041404Y0132788D01*
X0041055Y0134387D02*
X0042546Y0134387D01*
X0043028Y0133680D02*
X0043028Y0133680D01*
X0043028Y0133680D01*
X0041457Y0135985D02*
X0040986Y0135985D01*
X0044173Y0127993D02*
X0258217Y0127993D01*
X0259815Y0126394D02*
X0046373Y0126394D01*
X0070107Y0124796D02*
X0071129Y0124796D01*
X0073415Y0124796D02*
X0075066Y0124796D01*
X0077352Y0124796D02*
X0079003Y0124796D01*
X0081290Y0124796D02*
X0082312Y0124796D01*
X0078178Y0114814D02*
X0078578Y0114414D01*
X0079596Y0113992D01*
X0080697Y0113992D01*
X0081715Y0114414D01*
X0081822Y0114521D01*
X0083078Y0113795D01*
X0195599Y0113795D01*
X0195599Y0110738D01*
X0199161Y0110738D01*
X0199161Y0109988D01*
X0195599Y0109988D01*
X0195599Y0109803D01*
X0194901Y0110500D01*
X0192977Y0111297D01*
X0190895Y0111297D01*
X0188971Y0110500D01*
X0187499Y0109028D01*
X0186702Y0107104D01*
X0186702Y0105022D01*
X0187499Y0103098D01*
X0188971Y0101626D01*
X0190895Y0100829D01*
X0192977Y0100829D01*
X0194901Y0101626D01*
X0196374Y0103098D01*
X0197089Y0104826D01*
X0199161Y0104826D01*
X0199161Y0109988D01*
X0199911Y0109988D01*
X0199911Y0104826D01*
X0202095Y0104826D01*
X0202499Y0104934D01*
X0202861Y0105143D01*
X0203156Y0105438D01*
X0203365Y0105800D01*
X0203474Y0106204D01*
X0203474Y0109988D01*
X0199911Y0109988D01*
X0199911Y0110738D01*
X0203474Y0110738D01*
X0203474Y0113795D01*
X0205796Y0113795D01*
X0205796Y0105837D01*
X0206610Y0105022D01*
X0207796Y0105022D01*
X0207796Y0101989D01*
X0205803Y0099997D01*
X0160001Y0099997D01*
X0159096Y0100902D01*
X0159096Y0101524D01*
X0158705Y0102469D01*
X0157981Y0103193D01*
X0157036Y0103584D01*
X0156013Y0103584D01*
X0155068Y0103193D01*
X0154344Y0102469D01*
X0153953Y0101524D01*
X0153953Y0100501D01*
X0154344Y0099556D01*
X0155068Y0098832D01*
X0156013Y0098441D01*
X0156635Y0098441D01*
X0158559Y0096516D01*
X0207245Y0096516D01*
X0208265Y0097536D01*
X0211277Y0100548D01*
X0211277Y0105022D01*
X0212462Y0105022D01*
X0213277Y0105837D01*
X0213277Y0113795D01*
X0215796Y0113795D01*
X0215796Y0105837D01*
X0216610Y0105022D01*
X0217796Y0105022D01*
X0217796Y0101059D01*
X0220532Y0098323D01*
X0221551Y0097304D01*
X0309214Y0097304D01*
X0309564Y0097654D01*
X0310186Y0097654D01*
X0311131Y0098045D01*
X0311854Y0098768D01*
X0312246Y0099714D01*
X0312246Y0100737D01*
X0311854Y0101682D01*
X0311131Y0102405D01*
X0310186Y0102797D01*
X0309162Y0102797D01*
X0308217Y0102405D01*
X0307494Y0101682D01*
X0307122Y0100785D01*
X0222993Y0100785D01*
X0221277Y0102501D01*
X0221277Y0105022D01*
X0222462Y0105022D01*
X0223277Y0105837D01*
X0223277Y0114022D01*
X0224141Y0114521D01*
X0224248Y0114414D01*
X0225265Y0113992D01*
X0226366Y0113992D01*
X0227384Y0114414D01*
X0227784Y0114814D01*
X0228185Y0114414D01*
X0229202Y0113992D01*
X0230303Y0113992D01*
X0231321Y0114414D01*
X0231721Y0114814D01*
X0232122Y0114414D01*
X0233139Y0113992D01*
X0234240Y0113992D01*
X0235258Y0114414D01*
X0235365Y0114521D01*
X0236621Y0113795D01*
X0337058Y0113795D01*
X0337058Y0113795D01*
X0338314Y0114521D01*
X0338421Y0114414D01*
X0339438Y0113992D01*
X0340540Y0113992D01*
X0341557Y0114414D01*
X0341957Y0114814D01*
X0342358Y0114414D01*
X0343375Y0113992D01*
X0344477Y0113992D01*
X0345494Y0114414D01*
X0345894Y0114814D01*
X0346295Y0114414D01*
X0347312Y0113992D01*
X0348414Y0113992D01*
X0349431Y0114414D01*
X0349538Y0114521D01*
X0350794Y0113795D01*
X0352830Y0113795D01*
X0349305Y0112412D01*
X0345390Y0109290D01*
X0342569Y0105152D01*
X0341093Y0100367D01*
X0341093Y0095359D01*
X0342569Y0090574D01*
X0342569Y0090574D01*
X0345390Y0086436D01*
X0345390Y0086436D01*
X0345390Y0086436D01*
X0349305Y0083314D01*
X0349306Y0083314D01*
X0351826Y0082324D01*
X0315623Y0082324D01*
X0314658Y0081925D01*
X0314357Y0082226D01*
X0305581Y0082226D01*
X0305223Y0081867D01*
X0304119Y0082324D01*
X0228277Y0082324D01*
X0228277Y0084255D01*
X0230251Y0084255D01*
X0230491Y0084015D01*
X0231545Y0083579D01*
X0232685Y0083579D01*
X0233739Y0084015D01*
X0234545Y0084822D01*
X0234982Y0085875D01*
X0234982Y0087016D01*
X0234545Y0088070D01*
X0233739Y0088876D01*
X0232685Y0089313D01*
X0231545Y0089313D01*
X0230491Y0088876D01*
X0230251Y0088636D01*
X0228277Y0088636D01*
X0228277Y0091289D01*
X0227462Y0092104D01*
X0221610Y0092104D01*
X0220796Y0091289D01*
X0220796Y0082324D01*
X0218277Y0082324D01*
X0218277Y0091289D01*
X0218021Y0091544D01*
X0219056Y0092579D01*
X0231793Y0092579D01*
X0232233Y0092140D01*
X0233178Y0091748D01*
X0234201Y0091748D01*
X0235146Y0092140D01*
X0235870Y0092863D01*
X0236261Y0093808D01*
X0236261Y0094831D01*
X0235870Y0095776D01*
X0235146Y0096500D01*
X0234201Y0096891D01*
X0233178Y0096891D01*
X0232233Y0096500D01*
X0231793Y0096060D01*
X0217614Y0096060D01*
X0216595Y0095041D01*
X0213658Y0092104D01*
X0211610Y0092104D01*
X0210796Y0091289D01*
X0210796Y0082324D01*
X0208277Y0082324D01*
X0208277Y0091289D01*
X0207462Y0092104D01*
X0206296Y0092104D01*
X0206296Y0093072D01*
X0205277Y0094092D01*
X0205277Y0094092D01*
X0204765Y0094604D01*
X0121300Y0094604D01*
X0110277Y0105627D01*
X0110277Y0106249D01*
X0109886Y0107194D01*
X0109162Y0107917D01*
X0108217Y0108309D01*
X0107194Y0108309D01*
X0106249Y0107917D01*
X0105525Y0107194D01*
X0105134Y0106249D01*
X0105134Y0105225D01*
X0105525Y0104280D01*
X0106249Y0103557D01*
X0107194Y0103165D01*
X0107816Y0103165D01*
X0119859Y0091122D01*
X0200796Y0091122D01*
X0200796Y0082324D01*
X0075071Y0082324D01*
X0074107Y0081925D01*
X0073806Y0082226D01*
X0065030Y0082226D01*
X0064672Y0081867D01*
X0063568Y0082324D01*
X0061654Y0082324D01*
X0065818Y0084728D01*
X0065818Y0084728D01*
X0065818Y0084728D01*
X0069224Y0088399D01*
X0069224Y0088399D01*
X0071397Y0092911D01*
X0072143Y0097863D01*
X0072143Y0097863D01*
X0071397Y0102815D01*
X0069224Y0107327D01*
X0065818Y0110998D01*
X0065818Y0110998D01*
X0061481Y0113502D01*
X0060195Y0113795D01*
X0069341Y0113795D01*
X0070597Y0114521D01*
X0070704Y0114414D01*
X0071722Y0113992D01*
X0072823Y0113992D01*
X0073841Y0114414D01*
X0074241Y0114814D01*
X0074641Y0114414D01*
X0075659Y0113992D01*
X0076760Y0113992D01*
X0077778Y0114414D01*
X0078178Y0114814D01*
X0064069Y0112007D02*
X0195599Y0112007D01*
X0195599Y0113606D02*
X0061024Y0113606D01*
X0061481Y0113502D02*
X0061481Y0113502D01*
X0066364Y0110409D02*
X0188880Y0110409D01*
X0187409Y0108810D02*
X0067847Y0108810D01*
X0069224Y0107327D02*
X0069224Y0107327D01*
X0069279Y0107212D02*
X0105544Y0107212D01*
X0105134Y0105613D02*
X0070049Y0105613D01*
X0070819Y0104015D02*
X0105791Y0104015D01*
X0108565Y0102416D02*
X0071457Y0102416D01*
X0071397Y0102815D02*
X0071397Y0102815D01*
X0071698Y0100818D02*
X0110163Y0100818D01*
X0111762Y0099219D02*
X0071939Y0099219D01*
X0072107Y0097621D02*
X0113360Y0097621D01*
X0114959Y0096022D02*
X0071866Y0096022D01*
X0071625Y0094424D02*
X0116557Y0094424D01*
X0118156Y0092825D02*
X0071356Y0092825D01*
X0070586Y0091227D02*
X0119754Y0091227D01*
X0119882Y0096022D02*
X0217577Y0096022D01*
X0215978Y0094424D02*
X0204945Y0094424D01*
X0206296Y0092825D02*
X0214380Y0092825D01*
X0210796Y0091227D02*
X0208277Y0091227D01*
X0208277Y0089628D02*
X0210796Y0089628D01*
X0210796Y0088030D02*
X0208277Y0088030D01*
X0208277Y0086431D02*
X0210796Y0086431D01*
X0210796Y0084833D02*
X0208277Y0084833D01*
X0208277Y0083234D02*
X0210796Y0083234D01*
X0218277Y0083234D02*
X0220796Y0083234D01*
X0220796Y0084833D02*
X0218277Y0084833D01*
X0218277Y0086431D02*
X0220796Y0086431D01*
X0220796Y0088030D02*
X0218277Y0088030D01*
X0218277Y0089628D02*
X0220796Y0089628D01*
X0220796Y0091227D02*
X0218277Y0091227D01*
X0224536Y0086763D02*
X0224854Y0086446D01*
X0232115Y0086446D01*
X0234982Y0086431D02*
X0345396Y0086431D01*
X0344304Y0088030D02*
X0234562Y0088030D01*
X0228277Y0089628D02*
X0343214Y0089628D01*
X0342368Y0091227D02*
X0228277Y0091227D01*
X0235832Y0092825D02*
X0341875Y0092825D01*
X0341382Y0094424D02*
X0236261Y0094424D01*
X0235624Y0096022D02*
X0341093Y0096022D01*
X0341093Y0097621D02*
X0309531Y0097621D01*
X0312041Y0099219D02*
X0341093Y0099219D01*
X0341232Y0100818D02*
X0312212Y0100818D01*
X0311104Y0102416D02*
X0341725Y0102416D01*
X0342218Y0104015D02*
X0236953Y0104015D01*
X0236574Y0103098D02*
X0235101Y0101626D01*
X0233177Y0100829D01*
X0231095Y0100829D01*
X0229171Y0101626D01*
X0227699Y0103098D01*
X0226902Y0105022D01*
X0226902Y0107104D01*
X0227699Y0109028D01*
X0229171Y0110500D01*
X0231095Y0111297D01*
X0233177Y0111297D01*
X0235101Y0110500D01*
X0236574Y0109028D01*
X0237370Y0107104D01*
X0237370Y0105022D01*
X0236574Y0103098D01*
X0235892Y0102416D02*
X0308244Y0102416D01*
X0307136Y0100818D02*
X0222960Y0100818D01*
X0221362Y0102416D02*
X0228380Y0102416D01*
X0227319Y0104015D02*
X0221277Y0104015D01*
X0223053Y0105613D02*
X0226902Y0105613D01*
X0226947Y0107212D02*
X0223277Y0107212D01*
X0223277Y0108810D02*
X0227609Y0108810D01*
X0229080Y0110409D02*
X0223277Y0110409D01*
X0223277Y0112007D02*
X0348798Y0112007D01*
X0349305Y0112412D02*
X0349305Y0112412D01*
X0346794Y0110409D02*
X0235193Y0110409D01*
X0236664Y0108810D02*
X0345063Y0108810D01*
X0345390Y0109290D02*
X0345390Y0109290D01*
X0343974Y0107212D02*
X0237326Y0107212D01*
X0237370Y0105613D02*
X0342884Y0105613D01*
X0342569Y0105152D02*
X0342569Y0105152D01*
X0352347Y0113606D02*
X0223277Y0113606D01*
X0215796Y0113606D02*
X0213277Y0113606D01*
X0213277Y0112007D02*
X0215796Y0112007D01*
X0215796Y0110409D02*
X0213277Y0110409D01*
X0213277Y0108810D02*
X0215796Y0108810D01*
X0215796Y0107212D02*
X0213277Y0107212D01*
X0213053Y0105613D02*
X0216019Y0105613D01*
X0217796Y0104015D02*
X0211277Y0104015D01*
X0211277Y0102416D02*
X0217796Y0102416D01*
X0218037Y0100818D02*
X0211277Y0100818D01*
X0209949Y0099219D02*
X0219636Y0099219D01*
X0221234Y0097621D02*
X0208350Y0097621D01*
X0206624Y0100818D02*
X0159181Y0100818D01*
X0158726Y0102416D02*
X0188180Y0102416D01*
X0187119Y0104015D02*
X0111889Y0104015D01*
X0110291Y0105613D02*
X0186702Y0105613D01*
X0186747Y0107212D02*
X0109867Y0107212D01*
X0113488Y0102416D02*
X0154322Y0102416D01*
X0153953Y0100818D02*
X0115086Y0100818D01*
X0116685Y0099219D02*
X0154681Y0099219D01*
X0157455Y0097621D02*
X0118283Y0097621D01*
X0069816Y0089628D02*
X0200796Y0089628D01*
X0200796Y0088030D02*
X0188522Y0088030D01*
X0188876Y0087676D02*
X0188070Y0088482D01*
X0187016Y0088919D01*
X0185875Y0088919D01*
X0184822Y0088482D01*
X0184582Y0088243D01*
X0177096Y0088243D01*
X0175813Y0086959D01*
X0175813Y0085145D01*
X0177096Y0083861D01*
X0184582Y0083861D01*
X0184822Y0083622D01*
X0185875Y0083185D01*
X0187016Y0083185D01*
X0188070Y0083622D01*
X0188876Y0084428D01*
X0189313Y0085482D01*
X0189313Y0086622D01*
X0188876Y0087676D01*
X0189313Y0086431D02*
X0200796Y0086431D01*
X0200796Y0084833D02*
X0189044Y0084833D01*
X0187135Y0083234D02*
X0200796Y0083234D01*
X0186446Y0086052D02*
X0178003Y0086052D01*
X0175813Y0086431D02*
X0067398Y0086431D01*
X0065915Y0084833D02*
X0176124Y0084833D01*
X0185757Y0083234D02*
X0063230Y0083234D01*
X0068881Y0088030D02*
X0176883Y0088030D01*
X0195692Y0102416D02*
X0207796Y0102416D01*
X0207796Y0104015D02*
X0196753Y0104015D01*
X0199161Y0105613D02*
X0199911Y0105613D01*
X0199911Y0107212D02*
X0199161Y0107212D01*
X0199161Y0108810D02*
X0199911Y0108810D01*
X0199911Y0110409D02*
X0205796Y0110409D01*
X0205796Y0112007D02*
X0203474Y0112007D01*
X0203474Y0113606D02*
X0205796Y0113606D01*
X0205796Y0108810D02*
X0203474Y0108810D01*
X0203474Y0107212D02*
X0205796Y0107212D01*
X0206019Y0105613D02*
X0203258Y0105613D01*
X0199161Y0110409D02*
X0194993Y0110409D01*
X0223650Y0124796D02*
X0224673Y0124796D01*
X0226959Y0124796D02*
X0228610Y0124796D01*
X0230896Y0124796D02*
X0232547Y0124796D01*
X0234833Y0124796D02*
X0235855Y0124796D01*
X0249525Y0159963D02*
X0269369Y0159963D01*
X0271833Y0159963D02*
X0275580Y0159963D01*
X0274446Y0161561D02*
X0277179Y0161561D01*
X0266755Y0161561D02*
X0249525Y0161561D01*
X0249525Y0163160D02*
X0265746Y0163160D01*
X0265367Y0164758D02*
X0261608Y0164758D01*
X0261741Y0166357D02*
X0265448Y0166357D01*
X0266111Y0167955D02*
X0261741Y0167955D01*
X0254260Y0167955D02*
X0251741Y0167955D01*
X0251741Y0166357D02*
X0254260Y0166357D01*
X0254394Y0164758D02*
X0251608Y0164758D01*
X0246044Y0163160D02*
X0238456Y0163160D01*
X0241608Y0164758D02*
X0244394Y0164758D01*
X0243032Y0166357D02*
X0243032Y0166357D01*
X0243032Y0167955D02*
X0243032Y0167955D01*
X0243032Y0168603D02*
X0243032Y0171667D01*
X0242731Y0171667D01*
X0242139Y0171549D01*
X0241741Y0171385D01*
X0241741Y0173060D01*
X0244260Y0173060D01*
X0244260Y0171411D01*
X0243926Y0171549D01*
X0243334Y0171667D01*
X0243032Y0171667D01*
X0243032Y0168603D01*
X0243032Y0168603D01*
X0243032Y0169554D02*
X0243032Y0169554D01*
X0243032Y0171152D02*
X0243032Y0171152D01*
X0244260Y0172751D02*
X0241741Y0172751D01*
X0234260Y0172751D02*
X0231938Y0172751D01*
X0231938Y0171152D02*
X0234260Y0171152D01*
X0251741Y0171152D02*
X0254260Y0171152D01*
X0254260Y0169554D02*
X0251741Y0169554D01*
X0251741Y0172751D02*
X0254260Y0172751D01*
X0261741Y0172751D02*
X0537222Y0172751D01*
X0540713Y0167955D02*
X0464858Y0167955D01*
X0465080Y0166357D02*
X0541231Y0166357D01*
X0541354Y0161561D02*
X0529561Y0161561D01*
X0528252Y0161860D02*
X0528252Y0161860D01*
X0524266Y0161561D02*
X0293341Y0161561D01*
X0322272Y0166357D02*
X0322272Y0166357D01*
X0322272Y0167955D02*
X0322272Y0167955D01*
X0381593Y0150372D02*
X0511236Y0150372D01*
X0510743Y0148773D02*
X0381931Y0148773D01*
X0381127Y0147175D02*
X0510384Y0147175D01*
X0510384Y0145576D02*
X0378353Y0145576D01*
X0376754Y0143978D02*
X0510384Y0143978D01*
X0510454Y0142379D02*
X0375156Y0142379D01*
X0373557Y0140781D02*
X0510947Y0140781D01*
X0511440Y0139182D02*
X0371959Y0139182D01*
X0370360Y0137584D02*
X0512020Y0137584D01*
X0513110Y0135985D02*
X0368762Y0135985D01*
X0367163Y0134387D02*
X0514200Y0134387D01*
X0514682Y0133680D02*
X0514682Y0133680D01*
X0515800Y0132788D02*
X0365565Y0132788D01*
X0363966Y0131190D02*
X0517805Y0131190D01*
X0521060Y0129591D02*
X0362368Y0129591D01*
X0360769Y0127993D02*
X0537787Y0127993D01*
X0539260Y0129591D02*
X0533347Y0129591D01*
X0533135Y0129468D02*
X0533135Y0129468D01*
X0536116Y0131190D02*
X0540324Y0131190D01*
X0540874Y0132788D02*
X0538228Y0132788D01*
X0539712Y0134387D02*
X0541268Y0134387D01*
X0541354Y0135985D02*
X0541042Y0135985D01*
X0523258Y0128728D02*
X0523258Y0128728D01*
X0535078Y0126394D02*
X0359171Y0126394D01*
X0350582Y0125528D02*
X0350582Y0125528D01*
X0349543Y0124796D02*
X0349006Y0124796D01*
X0346720Y0124796D02*
X0345069Y0124796D01*
X0342783Y0124796D02*
X0341132Y0124796D01*
X0338846Y0124796D02*
X0337823Y0124796D01*
X0347401Y0084833D02*
X0234550Y0084833D01*
X0228277Y0083234D02*
X0349508Y0083234D01*
X0315623Y0082324D02*
X0315623Y0082324D01*
X0534491Y0159963D02*
X0541354Y0159963D01*
X0541354Y0158364D02*
X0537259Y0158364D01*
X0537471Y0158242D02*
X0537471Y0158242D01*
X0538841Y0156766D02*
X0541354Y0156766D01*
X0541712Y0155167D02*
X0540324Y0155167D01*
X0540878Y0154571D02*
X0540878Y0154571D01*
X0541360Y0153569D02*
X0541453Y0153569D01*
D14*
X0440383Y0168729D03*
X0379359Y0149044D03*
X0294713Y0164792D03*
X0245501Y0153965D03*
X0202194Y0154950D03*
X0139202Y0151013D03*
X0107706Y0105737D03*
X0156524Y0101013D03*
X0233690Y0094320D03*
X0309674Y0100225D03*
D15*
X0308493Y0099044D01*
X0222272Y0099044D01*
X0219536Y0101780D01*
X0219536Y0110363D01*
X0209536Y0110363D02*
X0209536Y0101269D01*
X0206524Y0098257D01*
X0159280Y0098257D01*
X0156524Y0101013D01*
X0120580Y0092863D02*
X0204044Y0092863D01*
X0204556Y0092351D01*
X0204556Y0086783D01*
X0204536Y0086763D01*
X0214536Y0086763D02*
X0214536Y0090520D01*
X0218335Y0094320D01*
X0233690Y0094320D01*
X0261249Y0127422D02*
X0253001Y0135670D01*
X0253001Y0145818D01*
X0243001Y0145818D02*
X0243001Y0151465D01*
X0245501Y0153965D01*
X0249438Y0156918D02*
X0274997Y0156918D01*
X0282871Y0164792D01*
X0294713Y0164792D01*
X0259280Y0170698D02*
X0258001Y0169418D01*
X0259280Y0170698D02*
X0438414Y0170698D01*
X0440383Y0168729D01*
X0379359Y0149044D02*
X0357737Y0127422D01*
X0261249Y0127422D01*
X0233001Y0145818D02*
X0229775Y0149044D01*
X0141170Y0149044D01*
X0139202Y0151013D01*
X0202194Y0154950D02*
X0227784Y0154950D01*
X0238001Y0165166D01*
X0238001Y0169418D01*
X0247784Y0169202D02*
X0248001Y0169418D01*
X0247784Y0169202D02*
X0247784Y0158572D01*
X0249438Y0156918D01*
X0120580Y0092863D02*
X0107706Y0105737D01*
M02*
