G75*
%MOIN*%
%OFA0B0*%
%FSLAX25Y25*%
%IPPOS*%
%LPD*%
%AMOC8*
5,1,8,0,0,1.08239X$1,22.5*
%
%ADD10C,0.01969*%
%ADD11C,0.00984*%
%ADD12R,0.04700X0.07900*%
%ADD13C,0.06900*%
%ADD14C,0.11811*%
%ADD15C,0.02953*%
D10*
X0072272Y0116761D03*
X0076209Y0116761D03*
X0080146Y0116761D03*
X0080146Y0122272D03*
X0076209Y0122272D03*
X0072272Y0122272D03*
X0225816Y0122272D03*
X0229753Y0122272D03*
X0233690Y0122272D03*
X0233690Y0116761D03*
X0229753Y0116761D03*
X0225816Y0116761D03*
X0339989Y0116761D03*
X0343926Y0116761D03*
X0347863Y0116761D03*
X0347863Y0122272D03*
X0343926Y0122272D03*
X0339989Y0122272D03*
D11*
X0065973Y0073257D03*
X0067351Y0073257D03*
X0068729Y0073257D03*
X0070107Y0073257D03*
X0071485Y0073257D03*
X0072863Y0073257D03*
X0072863Y0079950D03*
X0071485Y0079950D03*
X0070107Y0079950D03*
X0068729Y0079950D03*
X0067351Y0079950D03*
X0065973Y0079950D03*
X0038611Y0093926D03*
X0038611Y0095304D03*
X0038611Y0096682D03*
X0038611Y0098060D03*
X0038611Y0099438D03*
X0038611Y0100816D03*
X0031918Y0100816D03*
X0031918Y0099438D03*
X0031918Y0098060D03*
X0031918Y0096682D03*
X0031918Y0095304D03*
X0031918Y0093926D03*
X0031918Y0145107D03*
X0031918Y0146485D03*
X0031918Y0147863D03*
X0031918Y0149241D03*
X0031918Y0150619D03*
X0031918Y0151997D03*
X0038611Y0151997D03*
X0038611Y0150619D03*
X0038611Y0149241D03*
X0038611Y0147863D03*
X0038611Y0146485D03*
X0038611Y0145107D03*
X0064005Y0177194D03*
X0065383Y0177194D03*
X0066761Y0177194D03*
X0068139Y0177194D03*
X0069517Y0177194D03*
X0070894Y0177194D03*
X0070894Y0183887D03*
X0069517Y0183887D03*
X0068139Y0183887D03*
X0066761Y0183887D03*
X0065383Y0183887D03*
X0064005Y0183887D03*
X0285265Y0183887D03*
X0286643Y0183887D03*
X0288020Y0183887D03*
X0289398Y0183887D03*
X0290776Y0183887D03*
X0292154Y0183887D03*
X0292154Y0177194D03*
X0290776Y0177194D03*
X0289398Y0177194D03*
X0288020Y0177194D03*
X0286643Y0177194D03*
X0285265Y0177194D03*
X0408887Y0123257D03*
X0410265Y0123257D03*
X0411643Y0123257D03*
X0413020Y0123257D03*
X0414398Y0123257D03*
X0415776Y0123257D03*
X0415776Y0116564D03*
X0414398Y0116564D03*
X0413020Y0116564D03*
X0411643Y0116564D03*
X0410265Y0116564D03*
X0408887Y0116564D03*
X0381131Y0100816D03*
X0381131Y0099438D03*
X0381131Y0098060D03*
X0381131Y0096682D03*
X0381131Y0095304D03*
X0381131Y0093926D03*
X0374438Y0093926D03*
X0374438Y0095304D03*
X0374438Y0096682D03*
X0374438Y0098060D03*
X0374438Y0099438D03*
X0374438Y0100816D03*
X0313414Y0079950D03*
X0312036Y0079950D03*
X0310658Y0079950D03*
X0309280Y0079950D03*
X0307902Y0079950D03*
X0306524Y0079950D03*
X0306524Y0073257D03*
X0307902Y0073257D03*
X0309280Y0073257D03*
X0310658Y0073257D03*
X0312036Y0073257D03*
X0313414Y0073257D03*
X0543729Y0147076D03*
X0543729Y0148454D03*
X0543729Y0149831D03*
X0543729Y0151209D03*
X0543729Y0152587D03*
X0543729Y0153965D03*
X0550422Y0153965D03*
X0550422Y0152587D03*
X0550422Y0151209D03*
X0550422Y0149831D03*
X0550422Y0148454D03*
X0550422Y0147076D03*
X0509871Y0177194D03*
X0508493Y0177194D03*
X0507115Y0177194D03*
X0505737Y0177194D03*
X0504359Y0177194D03*
X0502981Y0177194D03*
X0502981Y0183887D03*
X0504359Y0183887D03*
X0505737Y0183887D03*
X0507115Y0183887D03*
X0508493Y0183887D03*
X0509871Y0183887D03*
D12*
X0263001Y0145818D03*
X0253001Y0145818D03*
X0243001Y0145818D03*
X0233001Y0145818D03*
X0238001Y0169418D03*
X0248001Y0169418D03*
X0258001Y0169418D03*
X0228001Y0169418D03*
X0219536Y0110363D03*
X0209536Y0110363D03*
X0199536Y0110363D03*
X0204536Y0086763D03*
X0214536Y0086763D03*
X0224536Y0086763D03*
D13*
X0232136Y0106063D03*
X0191936Y0106063D03*
X0220401Y0165118D03*
X0270601Y0165118D03*
D14*
X0290776Y0145107D03*
X0357706Y0097863D03*
X0526997Y0145107D03*
X0055343Y0145107D03*
X0055343Y0097863D03*
D15*
X0186446Y0086052D03*
X0232115Y0086446D03*
X0269123Y0145107D03*
X0243032Y0168603D03*
X0164792Y0168603D03*
X0088020Y0168603D03*
X0322272Y0168103D03*
X0391170Y0166761D03*
X0462036Y0166761D03*
M02*
