%
M48
M72
T01C0.00984
T02C0.01378
T03C0.01969
T04C0.06900
T05C0.11811
%
T01
X65973Y73257
X67351Y73257
X68729Y73257
X70107Y73257
X71485Y73257
X72863Y73257
X72863Y79950
X71485Y79950
X70107Y79950
X68729Y79950
X67351Y79950
X65973Y79950
X38611Y93926
X38611Y95304
X38611Y96682
X38611Y98060
X38611Y99438
X38611Y100816
X31918Y100816
X31918Y99438
X31918Y98060
X31918Y96682
X31918Y95304
X31918Y93926
X31918Y145107
X31918Y146485
X31918Y147863
X31918Y149241
X31918Y150619
X31918Y151997
X38611Y151997
X38611Y150619
X38611Y149241
X38611Y147863
X38611Y146485
X38611Y145107
X64005Y177194
X65383Y177194
X66761Y177194
X68139Y177194
X69517Y177194
X70894Y177194
X70894Y183887
X69517Y183887
X68139Y183887
X66761Y183887
X65383Y183887
X64005Y183887
X285265Y183887
X286643Y183887
X288020Y183887
X289398Y183887
X290776Y183887
X292154Y183887
X292154Y177194
X290776Y177194
X289398Y177194
X288020Y177194
X286643Y177194
X285265Y177194
X408887Y123257
X410265Y123257
X411643Y123257
X413020Y123257
X414398Y123257
X415776Y123257
X415776Y116564
X414398Y116564
X413020Y116564
X411643Y116564
X410265Y116564
X408887Y116564
X381131Y100816
X381131Y99438
X381131Y98060
X381131Y96682
X381131Y95304
X381131Y93926
X374438Y93926
X374438Y95304
X374438Y96682
X374438Y98060
X374438Y99438
X374438Y100816
X313414Y79950
X312036Y79950
X310658Y79950
X309280Y79950
X307902Y79950
X306524Y79950
X306524Y73257
X307902Y73257
X309280Y73257
X310658Y73257
X312036Y73257
X313414Y73257
X543729Y147076
X543729Y148454
X543729Y149831
X543729Y151209
X543729Y152587
X543729Y153965
X550422Y153965
X550422Y152587
X550422Y151209
X550422Y149831
X550422Y148454
X550422Y147076
X509871Y177194
X508493Y177194
X507115Y177194
X505737Y177194
X504359Y177194
X502981Y177194
X502981Y183887
X504359Y183887
X505737Y183887
X507115Y183887
X508493Y183887
X509871Y183887
T02
X440383Y168729
X379359Y149044
X294713Y164792
X245501Y153965
X202194Y154950
X139202Y151013
X107706Y105737
X156524Y101013
X233690Y94320
X309674Y100225
T03
X339989Y116761
X343926Y116761
X347863Y116761
X347863Y122272
X343926Y122272
X339989Y122272
X269123Y145107
X243032Y168603
X164792Y168603
X88020Y168603
X80146Y122272
X76209Y122272
X72272Y122272
X72272Y116761
X76209Y116761
X80146Y116761
X186446Y86052
X232115Y86446
X233690Y116761
X229753Y116761
X225816Y116761
X225816Y122272
X229753Y122272
X233690Y122272
X322272Y168103
X391170Y166761
X462036Y166761
T04
X270601Y165118
X220401Y165118
X232136Y106063
X191936Y106063
T05
X290776Y145107
X357706Y97863
X526997Y145107
X55343Y145107
X55343Y97863
M30
