G75*
%MOIN*%
%OFA0B0*%
%FSLAX25Y25*%
%IPPOS*%
%LPD*%
%AMOC8*
5,1,8,0,0,1.08239X$1,22.5*
%
%ADD10C,0.00000*%
%ADD11C,0.05315*%
%ADD12C,0.09449*%
%ADD13C,0.12992*%
%ADD14R,0.07874X0.04724*%
%ADD15R,0.04331X0.03937*%
%ADD16R,0.04724X0.07874*%
%ADD17R,0.03937X0.04331*%
%ADD18C,0.05906*%
%ADD19C,0.18898*%
%ADD20C,0.06000*%
%ADD21C,0.07480*%
%ADD22C,0.06900*%
%ADD23R,0.04016X0.02520*%
%ADD24C,0.08250*%
%ADD25R,0.09449X0.09449*%
%ADD26C,0.19685*%
%ADD27C,0.02756*%
D10*
X0064792Y0035315D02*
X0552981Y0035315D01*
X0553266Y0035318D01*
X0553552Y0035329D01*
X0553837Y0035346D01*
X0554121Y0035370D01*
X0554405Y0035401D01*
X0554688Y0035439D01*
X0554969Y0035484D01*
X0555250Y0035535D01*
X0555530Y0035593D01*
X0555808Y0035658D01*
X0556084Y0035730D01*
X0556358Y0035808D01*
X0556631Y0035893D01*
X0556901Y0035985D01*
X0557169Y0036083D01*
X0557435Y0036187D01*
X0557698Y0036298D01*
X0557958Y0036415D01*
X0558216Y0036538D01*
X0558470Y0036668D01*
X0558721Y0036804D01*
X0558969Y0036945D01*
X0559213Y0037093D01*
X0559454Y0037246D01*
X0559690Y0037406D01*
X0559923Y0037571D01*
X0560152Y0037741D01*
X0560377Y0037917D01*
X0560597Y0038099D01*
X0560813Y0038285D01*
X0561024Y0038477D01*
X0561231Y0038674D01*
X0561433Y0038876D01*
X0561630Y0039083D01*
X0561822Y0039294D01*
X0562008Y0039510D01*
X0562190Y0039730D01*
X0562366Y0039955D01*
X0562536Y0040184D01*
X0562701Y0040417D01*
X0562861Y0040653D01*
X0563014Y0040894D01*
X0563162Y0041138D01*
X0563303Y0041386D01*
X0563439Y0041637D01*
X0563569Y0041891D01*
X0563692Y0042149D01*
X0563809Y0042409D01*
X0563920Y0042672D01*
X0564024Y0042938D01*
X0564122Y0043206D01*
X0564214Y0043476D01*
X0564299Y0043749D01*
X0564377Y0044023D01*
X0564449Y0044299D01*
X0564514Y0044577D01*
X0564572Y0044857D01*
X0564623Y0045138D01*
X0564668Y0045419D01*
X0564706Y0045702D01*
X0564737Y0045986D01*
X0564761Y0046270D01*
X0564778Y0046555D01*
X0564789Y0046841D01*
X0564792Y0047126D01*
X0564792Y0299094D01*
X0564789Y0299379D01*
X0564778Y0299665D01*
X0564761Y0299950D01*
X0564737Y0300234D01*
X0564706Y0300518D01*
X0564668Y0300801D01*
X0564623Y0301082D01*
X0564572Y0301363D01*
X0564514Y0301643D01*
X0564449Y0301921D01*
X0564377Y0302197D01*
X0564299Y0302471D01*
X0564214Y0302744D01*
X0564122Y0303014D01*
X0564024Y0303282D01*
X0563920Y0303548D01*
X0563809Y0303811D01*
X0563692Y0304071D01*
X0563569Y0304329D01*
X0563439Y0304583D01*
X0563303Y0304834D01*
X0563162Y0305082D01*
X0563014Y0305326D01*
X0562861Y0305567D01*
X0562701Y0305803D01*
X0562536Y0306036D01*
X0562366Y0306265D01*
X0562190Y0306490D01*
X0562008Y0306710D01*
X0561822Y0306926D01*
X0561630Y0307137D01*
X0561433Y0307344D01*
X0561231Y0307546D01*
X0561024Y0307743D01*
X0560813Y0307935D01*
X0560597Y0308121D01*
X0560377Y0308303D01*
X0560152Y0308479D01*
X0559923Y0308649D01*
X0559690Y0308814D01*
X0559454Y0308974D01*
X0559213Y0309127D01*
X0558969Y0309275D01*
X0558721Y0309416D01*
X0558470Y0309552D01*
X0558216Y0309682D01*
X0557958Y0309805D01*
X0557698Y0309922D01*
X0557435Y0310033D01*
X0557169Y0310137D01*
X0556901Y0310235D01*
X0556631Y0310327D01*
X0556358Y0310412D01*
X0556084Y0310490D01*
X0555808Y0310562D01*
X0555530Y0310627D01*
X0555250Y0310685D01*
X0554969Y0310736D01*
X0554688Y0310781D01*
X0554405Y0310819D01*
X0554121Y0310850D01*
X0553837Y0310874D01*
X0553552Y0310891D01*
X0553266Y0310902D01*
X0552981Y0310905D01*
X0552981Y0310906D02*
X0064792Y0310906D01*
X0064792Y0310905D02*
X0064507Y0310902D01*
X0064221Y0310891D01*
X0063936Y0310874D01*
X0063652Y0310850D01*
X0063368Y0310819D01*
X0063085Y0310781D01*
X0062804Y0310736D01*
X0062523Y0310685D01*
X0062243Y0310627D01*
X0061965Y0310562D01*
X0061689Y0310490D01*
X0061415Y0310412D01*
X0061142Y0310327D01*
X0060872Y0310235D01*
X0060604Y0310137D01*
X0060338Y0310033D01*
X0060075Y0309922D01*
X0059815Y0309805D01*
X0059557Y0309682D01*
X0059303Y0309552D01*
X0059052Y0309416D01*
X0058804Y0309275D01*
X0058560Y0309127D01*
X0058319Y0308974D01*
X0058083Y0308814D01*
X0057850Y0308649D01*
X0057621Y0308479D01*
X0057396Y0308303D01*
X0057176Y0308121D01*
X0056960Y0307935D01*
X0056749Y0307743D01*
X0056542Y0307546D01*
X0056340Y0307344D01*
X0056143Y0307137D01*
X0055951Y0306926D01*
X0055765Y0306710D01*
X0055583Y0306490D01*
X0055407Y0306265D01*
X0055237Y0306036D01*
X0055072Y0305803D01*
X0054912Y0305567D01*
X0054759Y0305326D01*
X0054611Y0305082D01*
X0054470Y0304834D01*
X0054334Y0304583D01*
X0054204Y0304329D01*
X0054081Y0304071D01*
X0053964Y0303811D01*
X0053853Y0303548D01*
X0053749Y0303282D01*
X0053651Y0303014D01*
X0053559Y0302744D01*
X0053474Y0302471D01*
X0053396Y0302197D01*
X0053324Y0301921D01*
X0053259Y0301643D01*
X0053201Y0301363D01*
X0053150Y0301082D01*
X0053105Y0300801D01*
X0053067Y0300518D01*
X0053036Y0300234D01*
X0053012Y0299950D01*
X0052995Y0299665D01*
X0052984Y0299379D01*
X0052981Y0299094D01*
X0052981Y0047126D01*
X0052984Y0046841D01*
X0052995Y0046555D01*
X0053012Y0046270D01*
X0053036Y0045986D01*
X0053067Y0045702D01*
X0053105Y0045419D01*
X0053150Y0045138D01*
X0053201Y0044857D01*
X0053259Y0044577D01*
X0053324Y0044299D01*
X0053396Y0044023D01*
X0053474Y0043749D01*
X0053559Y0043476D01*
X0053651Y0043206D01*
X0053749Y0042938D01*
X0053853Y0042672D01*
X0053964Y0042409D01*
X0054081Y0042149D01*
X0054204Y0041891D01*
X0054334Y0041637D01*
X0054470Y0041386D01*
X0054611Y0041138D01*
X0054759Y0040894D01*
X0054912Y0040653D01*
X0055072Y0040417D01*
X0055237Y0040184D01*
X0055407Y0039955D01*
X0055583Y0039730D01*
X0055765Y0039510D01*
X0055951Y0039294D01*
X0056143Y0039083D01*
X0056340Y0038876D01*
X0056542Y0038674D01*
X0056749Y0038477D01*
X0056960Y0038285D01*
X0057176Y0038099D01*
X0057396Y0037917D01*
X0057621Y0037741D01*
X0057850Y0037571D01*
X0058083Y0037406D01*
X0058319Y0037246D01*
X0058560Y0037093D01*
X0058804Y0036945D01*
X0059052Y0036804D01*
X0059303Y0036668D01*
X0059557Y0036538D01*
X0059815Y0036415D01*
X0060075Y0036298D01*
X0060338Y0036187D01*
X0060604Y0036083D01*
X0060872Y0035985D01*
X0061142Y0035893D01*
X0061415Y0035808D01*
X0061689Y0035730D01*
X0061965Y0035658D01*
X0062243Y0035593D01*
X0062523Y0035535D01*
X0062804Y0035484D01*
X0063085Y0035439D01*
X0063368Y0035401D01*
X0063652Y0035370D01*
X0063936Y0035346D01*
X0064221Y0035329D01*
X0064507Y0035318D01*
X0064792Y0035315D01*
X0051997Y0171535D02*
X0051013Y0171535D01*
X0051013Y0179409D01*
X0051997Y0179409D01*
X0052059Y0179407D01*
X0052120Y0179401D01*
X0052181Y0179392D01*
X0052242Y0179378D01*
X0052301Y0179361D01*
X0052359Y0179340D01*
X0052416Y0179315D01*
X0052471Y0179287D01*
X0052524Y0179256D01*
X0052575Y0179221D01*
X0052624Y0179183D01*
X0052671Y0179142D01*
X0052714Y0179099D01*
X0052755Y0179052D01*
X0052793Y0179003D01*
X0052828Y0178952D01*
X0052859Y0178899D01*
X0052887Y0178844D01*
X0052912Y0178787D01*
X0052933Y0178729D01*
X0052950Y0178670D01*
X0052964Y0178609D01*
X0052973Y0178548D01*
X0052979Y0178487D01*
X0052981Y0178425D01*
X0063808Y0178425D01*
X0063870Y0178423D01*
X0063931Y0178417D01*
X0063992Y0178408D01*
X0064053Y0178394D01*
X0064112Y0178377D01*
X0064170Y0178356D01*
X0064227Y0178331D01*
X0064282Y0178303D01*
X0064335Y0178272D01*
X0064386Y0178237D01*
X0064435Y0178199D01*
X0064482Y0178158D01*
X0064525Y0178115D01*
X0064566Y0178068D01*
X0064604Y0178019D01*
X0064639Y0177968D01*
X0064670Y0177915D01*
X0064698Y0177860D01*
X0064723Y0177803D01*
X0064744Y0177745D01*
X0064761Y0177686D01*
X0064775Y0177625D01*
X0064784Y0177564D01*
X0064790Y0177503D01*
X0064792Y0177441D01*
X0064792Y0173504D01*
X0064790Y0173442D01*
X0064784Y0173381D01*
X0064775Y0173320D01*
X0064761Y0173259D01*
X0064744Y0173200D01*
X0064723Y0173142D01*
X0064698Y0173085D01*
X0064670Y0173030D01*
X0064639Y0172977D01*
X0064604Y0172926D01*
X0064566Y0172877D01*
X0064525Y0172830D01*
X0064482Y0172787D01*
X0064435Y0172746D01*
X0064386Y0172708D01*
X0064335Y0172673D01*
X0064282Y0172642D01*
X0064227Y0172614D01*
X0064170Y0172589D01*
X0064112Y0172568D01*
X0064053Y0172551D01*
X0063992Y0172537D01*
X0063931Y0172528D01*
X0063870Y0172522D01*
X0063808Y0172520D01*
X0052981Y0172520D01*
X0052979Y0172458D01*
X0052973Y0172397D01*
X0052964Y0172336D01*
X0052950Y0172275D01*
X0052933Y0172216D01*
X0052912Y0172158D01*
X0052887Y0172101D01*
X0052859Y0172046D01*
X0052828Y0171993D01*
X0052793Y0171942D01*
X0052755Y0171893D01*
X0052714Y0171846D01*
X0052671Y0171803D01*
X0052624Y0171762D01*
X0052575Y0171724D01*
X0052524Y0171689D01*
X0052471Y0171658D01*
X0052416Y0171630D01*
X0052359Y0171605D01*
X0052301Y0171584D01*
X0052242Y0171567D01*
X0052181Y0171553D01*
X0052120Y0171544D01*
X0052059Y0171538D01*
X0051997Y0171536D01*
X0067351Y0179409D02*
X0067353Y0179483D01*
X0067359Y0179557D01*
X0067369Y0179630D01*
X0067383Y0179703D01*
X0067400Y0179775D01*
X0067422Y0179845D01*
X0067447Y0179915D01*
X0067476Y0179983D01*
X0067509Y0180049D01*
X0067545Y0180114D01*
X0067585Y0180176D01*
X0067627Y0180237D01*
X0067673Y0180295D01*
X0067722Y0180350D01*
X0067774Y0180403D01*
X0067829Y0180453D01*
X0067886Y0180499D01*
X0067946Y0180543D01*
X0068008Y0180583D01*
X0068072Y0180620D01*
X0068138Y0180654D01*
X0068206Y0180684D01*
X0068275Y0180710D01*
X0068346Y0180733D01*
X0068417Y0180751D01*
X0068490Y0180766D01*
X0068563Y0180777D01*
X0068637Y0180784D01*
X0068711Y0180787D01*
X0068784Y0180786D01*
X0068858Y0180781D01*
X0068932Y0180772D01*
X0069005Y0180759D01*
X0069077Y0180742D01*
X0069148Y0180722D01*
X0069218Y0180697D01*
X0069286Y0180669D01*
X0069353Y0180638D01*
X0069418Y0180602D01*
X0069481Y0180564D01*
X0069542Y0180522D01*
X0069601Y0180476D01*
X0069657Y0180428D01*
X0069710Y0180377D01*
X0069760Y0180323D01*
X0069808Y0180266D01*
X0069852Y0180207D01*
X0069894Y0180145D01*
X0069932Y0180082D01*
X0069966Y0180016D01*
X0069997Y0179949D01*
X0070024Y0179880D01*
X0070047Y0179810D01*
X0070067Y0179739D01*
X0070083Y0179666D01*
X0070095Y0179593D01*
X0070103Y0179520D01*
X0070107Y0179446D01*
X0070107Y0179372D01*
X0070103Y0179298D01*
X0070095Y0179225D01*
X0070083Y0179152D01*
X0070067Y0179079D01*
X0070047Y0179008D01*
X0070024Y0178938D01*
X0069997Y0178869D01*
X0069966Y0178802D01*
X0069932Y0178736D01*
X0069894Y0178673D01*
X0069852Y0178611D01*
X0069808Y0178552D01*
X0069760Y0178495D01*
X0069710Y0178441D01*
X0069657Y0178390D01*
X0069601Y0178342D01*
X0069542Y0178296D01*
X0069481Y0178254D01*
X0069418Y0178216D01*
X0069353Y0178180D01*
X0069286Y0178149D01*
X0069218Y0178121D01*
X0069148Y0178096D01*
X0069077Y0178076D01*
X0069005Y0178059D01*
X0068932Y0178046D01*
X0068858Y0178037D01*
X0068784Y0178032D01*
X0068711Y0178031D01*
X0068637Y0178034D01*
X0068563Y0178041D01*
X0068490Y0178052D01*
X0068417Y0178067D01*
X0068346Y0178085D01*
X0068275Y0178108D01*
X0068206Y0178134D01*
X0068138Y0178164D01*
X0068072Y0178198D01*
X0068008Y0178235D01*
X0067946Y0178275D01*
X0067886Y0178319D01*
X0067829Y0178365D01*
X0067774Y0178415D01*
X0067722Y0178468D01*
X0067673Y0178523D01*
X0067627Y0178581D01*
X0067585Y0178642D01*
X0067545Y0178704D01*
X0067509Y0178769D01*
X0067476Y0178835D01*
X0067447Y0178903D01*
X0067422Y0178973D01*
X0067400Y0179043D01*
X0067383Y0179115D01*
X0067369Y0179188D01*
X0067359Y0179261D01*
X0067353Y0179335D01*
X0067351Y0179409D01*
X0067351Y0195157D02*
X0067353Y0195231D01*
X0067359Y0195305D01*
X0067369Y0195378D01*
X0067383Y0195451D01*
X0067400Y0195523D01*
X0067422Y0195593D01*
X0067447Y0195663D01*
X0067476Y0195731D01*
X0067509Y0195797D01*
X0067545Y0195862D01*
X0067585Y0195924D01*
X0067627Y0195985D01*
X0067673Y0196043D01*
X0067722Y0196098D01*
X0067774Y0196151D01*
X0067829Y0196201D01*
X0067886Y0196247D01*
X0067946Y0196291D01*
X0068008Y0196331D01*
X0068072Y0196368D01*
X0068138Y0196402D01*
X0068206Y0196432D01*
X0068275Y0196458D01*
X0068346Y0196481D01*
X0068417Y0196499D01*
X0068490Y0196514D01*
X0068563Y0196525D01*
X0068637Y0196532D01*
X0068711Y0196535D01*
X0068784Y0196534D01*
X0068858Y0196529D01*
X0068932Y0196520D01*
X0069005Y0196507D01*
X0069077Y0196490D01*
X0069148Y0196470D01*
X0069218Y0196445D01*
X0069286Y0196417D01*
X0069353Y0196386D01*
X0069418Y0196350D01*
X0069481Y0196312D01*
X0069542Y0196270D01*
X0069601Y0196224D01*
X0069657Y0196176D01*
X0069710Y0196125D01*
X0069760Y0196071D01*
X0069808Y0196014D01*
X0069852Y0195955D01*
X0069894Y0195893D01*
X0069932Y0195830D01*
X0069966Y0195764D01*
X0069997Y0195697D01*
X0070024Y0195628D01*
X0070047Y0195558D01*
X0070067Y0195487D01*
X0070083Y0195414D01*
X0070095Y0195341D01*
X0070103Y0195268D01*
X0070107Y0195194D01*
X0070107Y0195120D01*
X0070103Y0195046D01*
X0070095Y0194973D01*
X0070083Y0194900D01*
X0070067Y0194827D01*
X0070047Y0194756D01*
X0070024Y0194686D01*
X0069997Y0194617D01*
X0069966Y0194550D01*
X0069932Y0194484D01*
X0069894Y0194421D01*
X0069852Y0194359D01*
X0069808Y0194300D01*
X0069760Y0194243D01*
X0069710Y0194189D01*
X0069657Y0194138D01*
X0069601Y0194090D01*
X0069542Y0194044D01*
X0069481Y0194002D01*
X0069418Y0193964D01*
X0069353Y0193928D01*
X0069286Y0193897D01*
X0069218Y0193869D01*
X0069148Y0193844D01*
X0069077Y0193824D01*
X0069005Y0193807D01*
X0068932Y0193794D01*
X0068858Y0193785D01*
X0068784Y0193780D01*
X0068711Y0193779D01*
X0068637Y0193782D01*
X0068563Y0193789D01*
X0068490Y0193800D01*
X0068417Y0193815D01*
X0068346Y0193833D01*
X0068275Y0193856D01*
X0068206Y0193882D01*
X0068138Y0193912D01*
X0068072Y0193946D01*
X0068008Y0193983D01*
X0067946Y0194023D01*
X0067886Y0194067D01*
X0067829Y0194113D01*
X0067774Y0194163D01*
X0067722Y0194216D01*
X0067673Y0194271D01*
X0067627Y0194329D01*
X0067585Y0194390D01*
X0067545Y0194452D01*
X0067509Y0194517D01*
X0067476Y0194583D01*
X0067447Y0194651D01*
X0067422Y0194721D01*
X0067400Y0194791D01*
X0067383Y0194863D01*
X0067369Y0194936D01*
X0067359Y0195009D01*
X0067353Y0195083D01*
X0067351Y0195157D01*
X0110602Y0267603D02*
X0110604Y0267764D01*
X0110610Y0267924D01*
X0110620Y0268085D01*
X0110634Y0268245D01*
X0110652Y0268404D01*
X0110673Y0268564D01*
X0110699Y0268722D01*
X0110729Y0268880D01*
X0110762Y0269037D01*
X0110800Y0269194D01*
X0110841Y0269349D01*
X0110886Y0269503D01*
X0110935Y0269656D01*
X0110988Y0269808D01*
X0111044Y0269958D01*
X0111104Y0270107D01*
X0111168Y0270255D01*
X0111235Y0270401D01*
X0111306Y0270545D01*
X0111381Y0270687D01*
X0111459Y0270828D01*
X0111540Y0270966D01*
X0111625Y0271103D01*
X0111714Y0271237D01*
X0111805Y0271369D01*
X0111900Y0271499D01*
X0111998Y0271626D01*
X0112099Y0271751D01*
X0112203Y0271874D01*
X0112310Y0271993D01*
X0112420Y0272110D01*
X0112533Y0272225D01*
X0112649Y0272336D01*
X0112767Y0272445D01*
X0112888Y0272550D01*
X0113012Y0272653D01*
X0113138Y0272753D01*
X0113267Y0272849D01*
X0113398Y0272942D01*
X0113531Y0273032D01*
X0113666Y0273119D01*
X0113804Y0273202D01*
X0113943Y0273281D01*
X0114085Y0273358D01*
X0114228Y0273431D01*
X0114373Y0273500D01*
X0114520Y0273565D01*
X0114668Y0273627D01*
X0114818Y0273686D01*
X0114969Y0273740D01*
X0115121Y0273791D01*
X0115275Y0273838D01*
X0115430Y0273881D01*
X0115585Y0273920D01*
X0115742Y0273956D01*
X0115900Y0273988D01*
X0116058Y0274015D01*
X0116217Y0274039D01*
X0116376Y0274059D01*
X0116536Y0274075D01*
X0116697Y0274087D01*
X0116857Y0274095D01*
X0117018Y0274099D01*
X0117178Y0274099D01*
X0117339Y0274095D01*
X0117499Y0274087D01*
X0117660Y0274075D01*
X0117820Y0274059D01*
X0117979Y0274039D01*
X0118138Y0274015D01*
X0118296Y0273988D01*
X0118454Y0273956D01*
X0118611Y0273920D01*
X0118766Y0273881D01*
X0118921Y0273838D01*
X0119075Y0273791D01*
X0119227Y0273740D01*
X0119378Y0273686D01*
X0119528Y0273627D01*
X0119676Y0273565D01*
X0119823Y0273500D01*
X0119968Y0273431D01*
X0120111Y0273358D01*
X0120253Y0273281D01*
X0120392Y0273202D01*
X0120530Y0273119D01*
X0120665Y0273032D01*
X0120798Y0272942D01*
X0120929Y0272849D01*
X0121058Y0272753D01*
X0121184Y0272653D01*
X0121308Y0272550D01*
X0121429Y0272445D01*
X0121547Y0272336D01*
X0121663Y0272225D01*
X0121776Y0272110D01*
X0121886Y0271993D01*
X0121993Y0271874D01*
X0122097Y0271751D01*
X0122198Y0271626D01*
X0122296Y0271499D01*
X0122391Y0271369D01*
X0122482Y0271237D01*
X0122571Y0271103D01*
X0122656Y0270966D01*
X0122737Y0270828D01*
X0122815Y0270687D01*
X0122890Y0270545D01*
X0122961Y0270401D01*
X0123028Y0270255D01*
X0123092Y0270107D01*
X0123152Y0269958D01*
X0123208Y0269808D01*
X0123261Y0269656D01*
X0123310Y0269503D01*
X0123355Y0269349D01*
X0123396Y0269194D01*
X0123434Y0269037D01*
X0123467Y0268880D01*
X0123497Y0268722D01*
X0123523Y0268564D01*
X0123544Y0268404D01*
X0123562Y0268245D01*
X0123576Y0268085D01*
X0123586Y0267924D01*
X0123592Y0267764D01*
X0123594Y0267603D01*
X0123592Y0267442D01*
X0123586Y0267282D01*
X0123576Y0267121D01*
X0123562Y0266961D01*
X0123544Y0266802D01*
X0123523Y0266642D01*
X0123497Y0266484D01*
X0123467Y0266326D01*
X0123434Y0266169D01*
X0123396Y0266012D01*
X0123355Y0265857D01*
X0123310Y0265703D01*
X0123261Y0265550D01*
X0123208Y0265398D01*
X0123152Y0265248D01*
X0123092Y0265099D01*
X0123028Y0264951D01*
X0122961Y0264805D01*
X0122890Y0264661D01*
X0122815Y0264519D01*
X0122737Y0264378D01*
X0122656Y0264240D01*
X0122571Y0264103D01*
X0122482Y0263969D01*
X0122391Y0263837D01*
X0122296Y0263707D01*
X0122198Y0263580D01*
X0122097Y0263455D01*
X0121993Y0263332D01*
X0121886Y0263213D01*
X0121776Y0263096D01*
X0121663Y0262981D01*
X0121547Y0262870D01*
X0121429Y0262761D01*
X0121308Y0262656D01*
X0121184Y0262553D01*
X0121058Y0262453D01*
X0120929Y0262357D01*
X0120798Y0262264D01*
X0120665Y0262174D01*
X0120530Y0262087D01*
X0120392Y0262004D01*
X0120253Y0261925D01*
X0120111Y0261848D01*
X0119968Y0261775D01*
X0119823Y0261706D01*
X0119676Y0261641D01*
X0119528Y0261579D01*
X0119378Y0261520D01*
X0119227Y0261466D01*
X0119075Y0261415D01*
X0118921Y0261368D01*
X0118766Y0261325D01*
X0118611Y0261286D01*
X0118454Y0261250D01*
X0118296Y0261218D01*
X0118138Y0261191D01*
X0117979Y0261167D01*
X0117820Y0261147D01*
X0117660Y0261131D01*
X0117499Y0261119D01*
X0117339Y0261111D01*
X0117178Y0261107D01*
X0117018Y0261107D01*
X0116857Y0261111D01*
X0116697Y0261119D01*
X0116536Y0261131D01*
X0116376Y0261147D01*
X0116217Y0261167D01*
X0116058Y0261191D01*
X0115900Y0261218D01*
X0115742Y0261250D01*
X0115585Y0261286D01*
X0115430Y0261325D01*
X0115275Y0261368D01*
X0115121Y0261415D01*
X0114969Y0261466D01*
X0114818Y0261520D01*
X0114668Y0261579D01*
X0114520Y0261641D01*
X0114373Y0261706D01*
X0114228Y0261775D01*
X0114085Y0261848D01*
X0113943Y0261925D01*
X0113804Y0262004D01*
X0113666Y0262087D01*
X0113531Y0262174D01*
X0113398Y0262264D01*
X0113267Y0262357D01*
X0113138Y0262453D01*
X0113012Y0262553D01*
X0112888Y0262656D01*
X0112767Y0262761D01*
X0112649Y0262870D01*
X0112533Y0262981D01*
X0112420Y0263096D01*
X0112310Y0263213D01*
X0112203Y0263332D01*
X0112099Y0263455D01*
X0111998Y0263580D01*
X0111900Y0263707D01*
X0111805Y0263837D01*
X0111714Y0263969D01*
X0111625Y0264103D01*
X0111540Y0264240D01*
X0111459Y0264378D01*
X0111381Y0264519D01*
X0111306Y0264661D01*
X0111235Y0264805D01*
X0111168Y0264951D01*
X0111104Y0265099D01*
X0111044Y0265248D01*
X0110988Y0265398D01*
X0110935Y0265550D01*
X0110886Y0265703D01*
X0110841Y0265857D01*
X0110800Y0266012D01*
X0110762Y0266169D01*
X0110729Y0266326D01*
X0110699Y0266484D01*
X0110673Y0266642D01*
X0110652Y0266802D01*
X0110634Y0266961D01*
X0110620Y0267121D01*
X0110610Y0267282D01*
X0110604Y0267442D01*
X0110602Y0267603D01*
X0155602Y0267603D02*
X0155604Y0267764D01*
X0155610Y0267924D01*
X0155620Y0268085D01*
X0155634Y0268245D01*
X0155652Y0268404D01*
X0155673Y0268564D01*
X0155699Y0268722D01*
X0155729Y0268880D01*
X0155762Y0269037D01*
X0155800Y0269194D01*
X0155841Y0269349D01*
X0155886Y0269503D01*
X0155935Y0269656D01*
X0155988Y0269808D01*
X0156044Y0269958D01*
X0156104Y0270107D01*
X0156168Y0270255D01*
X0156235Y0270401D01*
X0156306Y0270545D01*
X0156381Y0270687D01*
X0156459Y0270828D01*
X0156540Y0270966D01*
X0156625Y0271103D01*
X0156714Y0271237D01*
X0156805Y0271369D01*
X0156900Y0271499D01*
X0156998Y0271626D01*
X0157099Y0271751D01*
X0157203Y0271874D01*
X0157310Y0271993D01*
X0157420Y0272110D01*
X0157533Y0272225D01*
X0157649Y0272336D01*
X0157767Y0272445D01*
X0157888Y0272550D01*
X0158012Y0272653D01*
X0158138Y0272753D01*
X0158267Y0272849D01*
X0158398Y0272942D01*
X0158531Y0273032D01*
X0158666Y0273119D01*
X0158804Y0273202D01*
X0158943Y0273281D01*
X0159085Y0273358D01*
X0159228Y0273431D01*
X0159373Y0273500D01*
X0159520Y0273565D01*
X0159668Y0273627D01*
X0159818Y0273686D01*
X0159969Y0273740D01*
X0160121Y0273791D01*
X0160275Y0273838D01*
X0160430Y0273881D01*
X0160585Y0273920D01*
X0160742Y0273956D01*
X0160900Y0273988D01*
X0161058Y0274015D01*
X0161217Y0274039D01*
X0161376Y0274059D01*
X0161536Y0274075D01*
X0161697Y0274087D01*
X0161857Y0274095D01*
X0162018Y0274099D01*
X0162178Y0274099D01*
X0162339Y0274095D01*
X0162499Y0274087D01*
X0162660Y0274075D01*
X0162820Y0274059D01*
X0162979Y0274039D01*
X0163138Y0274015D01*
X0163296Y0273988D01*
X0163454Y0273956D01*
X0163611Y0273920D01*
X0163766Y0273881D01*
X0163921Y0273838D01*
X0164075Y0273791D01*
X0164227Y0273740D01*
X0164378Y0273686D01*
X0164528Y0273627D01*
X0164676Y0273565D01*
X0164823Y0273500D01*
X0164968Y0273431D01*
X0165111Y0273358D01*
X0165253Y0273281D01*
X0165392Y0273202D01*
X0165530Y0273119D01*
X0165665Y0273032D01*
X0165798Y0272942D01*
X0165929Y0272849D01*
X0166058Y0272753D01*
X0166184Y0272653D01*
X0166308Y0272550D01*
X0166429Y0272445D01*
X0166547Y0272336D01*
X0166663Y0272225D01*
X0166776Y0272110D01*
X0166886Y0271993D01*
X0166993Y0271874D01*
X0167097Y0271751D01*
X0167198Y0271626D01*
X0167296Y0271499D01*
X0167391Y0271369D01*
X0167482Y0271237D01*
X0167571Y0271103D01*
X0167656Y0270966D01*
X0167737Y0270828D01*
X0167815Y0270687D01*
X0167890Y0270545D01*
X0167961Y0270401D01*
X0168028Y0270255D01*
X0168092Y0270107D01*
X0168152Y0269958D01*
X0168208Y0269808D01*
X0168261Y0269656D01*
X0168310Y0269503D01*
X0168355Y0269349D01*
X0168396Y0269194D01*
X0168434Y0269037D01*
X0168467Y0268880D01*
X0168497Y0268722D01*
X0168523Y0268564D01*
X0168544Y0268404D01*
X0168562Y0268245D01*
X0168576Y0268085D01*
X0168586Y0267924D01*
X0168592Y0267764D01*
X0168594Y0267603D01*
X0168592Y0267442D01*
X0168586Y0267282D01*
X0168576Y0267121D01*
X0168562Y0266961D01*
X0168544Y0266802D01*
X0168523Y0266642D01*
X0168497Y0266484D01*
X0168467Y0266326D01*
X0168434Y0266169D01*
X0168396Y0266012D01*
X0168355Y0265857D01*
X0168310Y0265703D01*
X0168261Y0265550D01*
X0168208Y0265398D01*
X0168152Y0265248D01*
X0168092Y0265099D01*
X0168028Y0264951D01*
X0167961Y0264805D01*
X0167890Y0264661D01*
X0167815Y0264519D01*
X0167737Y0264378D01*
X0167656Y0264240D01*
X0167571Y0264103D01*
X0167482Y0263969D01*
X0167391Y0263837D01*
X0167296Y0263707D01*
X0167198Y0263580D01*
X0167097Y0263455D01*
X0166993Y0263332D01*
X0166886Y0263213D01*
X0166776Y0263096D01*
X0166663Y0262981D01*
X0166547Y0262870D01*
X0166429Y0262761D01*
X0166308Y0262656D01*
X0166184Y0262553D01*
X0166058Y0262453D01*
X0165929Y0262357D01*
X0165798Y0262264D01*
X0165665Y0262174D01*
X0165530Y0262087D01*
X0165392Y0262004D01*
X0165253Y0261925D01*
X0165111Y0261848D01*
X0164968Y0261775D01*
X0164823Y0261706D01*
X0164676Y0261641D01*
X0164528Y0261579D01*
X0164378Y0261520D01*
X0164227Y0261466D01*
X0164075Y0261415D01*
X0163921Y0261368D01*
X0163766Y0261325D01*
X0163611Y0261286D01*
X0163454Y0261250D01*
X0163296Y0261218D01*
X0163138Y0261191D01*
X0162979Y0261167D01*
X0162820Y0261147D01*
X0162660Y0261131D01*
X0162499Y0261119D01*
X0162339Y0261111D01*
X0162178Y0261107D01*
X0162018Y0261107D01*
X0161857Y0261111D01*
X0161697Y0261119D01*
X0161536Y0261131D01*
X0161376Y0261147D01*
X0161217Y0261167D01*
X0161058Y0261191D01*
X0160900Y0261218D01*
X0160742Y0261250D01*
X0160585Y0261286D01*
X0160430Y0261325D01*
X0160275Y0261368D01*
X0160121Y0261415D01*
X0159969Y0261466D01*
X0159818Y0261520D01*
X0159668Y0261579D01*
X0159520Y0261641D01*
X0159373Y0261706D01*
X0159228Y0261775D01*
X0159085Y0261848D01*
X0158943Y0261925D01*
X0158804Y0262004D01*
X0158666Y0262087D01*
X0158531Y0262174D01*
X0158398Y0262264D01*
X0158267Y0262357D01*
X0158138Y0262453D01*
X0158012Y0262553D01*
X0157888Y0262656D01*
X0157767Y0262761D01*
X0157649Y0262870D01*
X0157533Y0262981D01*
X0157420Y0263096D01*
X0157310Y0263213D01*
X0157203Y0263332D01*
X0157099Y0263455D01*
X0156998Y0263580D01*
X0156900Y0263707D01*
X0156805Y0263837D01*
X0156714Y0263969D01*
X0156625Y0264103D01*
X0156540Y0264240D01*
X0156459Y0264378D01*
X0156381Y0264519D01*
X0156306Y0264661D01*
X0156235Y0264805D01*
X0156168Y0264951D01*
X0156104Y0265099D01*
X0156044Y0265248D01*
X0155988Y0265398D01*
X0155935Y0265550D01*
X0155886Y0265703D01*
X0155841Y0265857D01*
X0155800Y0266012D01*
X0155762Y0266169D01*
X0155729Y0266326D01*
X0155699Y0266484D01*
X0155673Y0266642D01*
X0155652Y0266802D01*
X0155634Y0266961D01*
X0155620Y0267121D01*
X0155610Y0267282D01*
X0155604Y0267442D01*
X0155602Y0267603D01*
X0219313Y0277902D02*
X0219315Y0278019D01*
X0219321Y0278136D01*
X0219331Y0278253D01*
X0219345Y0278369D01*
X0219363Y0278485D01*
X0219384Y0278600D01*
X0219410Y0278715D01*
X0219440Y0278828D01*
X0219473Y0278940D01*
X0219510Y0279051D01*
X0219551Y0279161D01*
X0219596Y0279269D01*
X0219644Y0279376D01*
X0219696Y0279481D01*
X0219751Y0279585D01*
X0219810Y0279686D01*
X0219872Y0279785D01*
X0219938Y0279882D01*
X0220007Y0279977D01*
X0220079Y0280069D01*
X0220154Y0280159D01*
X0220232Y0280247D01*
X0220313Y0280331D01*
X0220397Y0280413D01*
X0220484Y0280492D01*
X0220573Y0280568D01*
X0220665Y0280641D01*
X0220759Y0280710D01*
X0220855Y0280777D01*
X0220954Y0280840D01*
X0221055Y0280900D01*
X0221158Y0280956D01*
X0221262Y0281009D01*
X0221369Y0281058D01*
X0221477Y0281103D01*
X0221586Y0281145D01*
X0221697Y0281183D01*
X0221809Y0281217D01*
X0221922Y0281248D01*
X0222036Y0281275D01*
X0222151Y0281297D01*
X0222267Y0281316D01*
X0222383Y0281331D01*
X0222500Y0281342D01*
X0222617Y0281349D01*
X0222734Y0281352D01*
X0222851Y0281351D01*
X0222968Y0281346D01*
X0223085Y0281337D01*
X0223201Y0281324D01*
X0223317Y0281307D01*
X0223432Y0281286D01*
X0223547Y0281262D01*
X0223661Y0281233D01*
X0223773Y0281201D01*
X0223885Y0281165D01*
X0223995Y0281125D01*
X0224104Y0281081D01*
X0224211Y0281034D01*
X0224316Y0280983D01*
X0224420Y0280928D01*
X0224522Y0280870D01*
X0224621Y0280809D01*
X0224719Y0280744D01*
X0224814Y0280676D01*
X0224907Y0280605D01*
X0224998Y0280530D01*
X0225086Y0280453D01*
X0225171Y0280372D01*
X0225254Y0280289D01*
X0225333Y0280203D01*
X0225410Y0280115D01*
X0225484Y0280023D01*
X0225554Y0279930D01*
X0225621Y0279834D01*
X0225685Y0279736D01*
X0225746Y0279635D01*
X0225803Y0279533D01*
X0225857Y0279429D01*
X0225907Y0279323D01*
X0225953Y0279215D01*
X0225996Y0279106D01*
X0226035Y0278996D01*
X0226070Y0278884D01*
X0226102Y0278771D01*
X0226129Y0278657D01*
X0226153Y0278543D01*
X0226173Y0278427D01*
X0226189Y0278311D01*
X0226201Y0278195D01*
X0226209Y0278078D01*
X0226213Y0277961D01*
X0226213Y0277843D01*
X0226209Y0277726D01*
X0226201Y0277609D01*
X0226189Y0277493D01*
X0226173Y0277377D01*
X0226153Y0277261D01*
X0226129Y0277147D01*
X0226102Y0277033D01*
X0226070Y0276920D01*
X0226035Y0276808D01*
X0225996Y0276698D01*
X0225953Y0276589D01*
X0225907Y0276481D01*
X0225857Y0276375D01*
X0225803Y0276271D01*
X0225746Y0276169D01*
X0225685Y0276068D01*
X0225621Y0275970D01*
X0225554Y0275874D01*
X0225484Y0275781D01*
X0225410Y0275689D01*
X0225333Y0275601D01*
X0225254Y0275515D01*
X0225171Y0275432D01*
X0225086Y0275351D01*
X0224998Y0275274D01*
X0224907Y0275199D01*
X0224814Y0275128D01*
X0224719Y0275060D01*
X0224621Y0274995D01*
X0224522Y0274934D01*
X0224420Y0274876D01*
X0224316Y0274821D01*
X0224211Y0274770D01*
X0224104Y0274723D01*
X0223995Y0274679D01*
X0223885Y0274639D01*
X0223773Y0274603D01*
X0223661Y0274571D01*
X0223547Y0274542D01*
X0223432Y0274518D01*
X0223317Y0274497D01*
X0223201Y0274480D01*
X0223085Y0274467D01*
X0222968Y0274458D01*
X0222851Y0274453D01*
X0222734Y0274452D01*
X0222617Y0274455D01*
X0222500Y0274462D01*
X0222383Y0274473D01*
X0222267Y0274488D01*
X0222151Y0274507D01*
X0222036Y0274529D01*
X0221922Y0274556D01*
X0221809Y0274587D01*
X0221697Y0274621D01*
X0221586Y0274659D01*
X0221477Y0274701D01*
X0221369Y0274746D01*
X0221262Y0274795D01*
X0221158Y0274848D01*
X0221055Y0274904D01*
X0220954Y0274964D01*
X0220855Y0275027D01*
X0220759Y0275094D01*
X0220665Y0275163D01*
X0220573Y0275236D01*
X0220484Y0275312D01*
X0220397Y0275391D01*
X0220313Y0275473D01*
X0220232Y0275557D01*
X0220154Y0275645D01*
X0220079Y0275735D01*
X0220007Y0275827D01*
X0219938Y0275922D01*
X0219872Y0276019D01*
X0219810Y0276118D01*
X0219751Y0276219D01*
X0219696Y0276323D01*
X0219644Y0276428D01*
X0219596Y0276535D01*
X0219551Y0276643D01*
X0219510Y0276753D01*
X0219473Y0276864D01*
X0219440Y0276976D01*
X0219410Y0277089D01*
X0219384Y0277204D01*
X0219363Y0277319D01*
X0219345Y0277435D01*
X0219331Y0277551D01*
X0219321Y0277668D01*
X0219315Y0277785D01*
X0219313Y0277902D01*
X0269513Y0277902D02*
X0269515Y0278019D01*
X0269521Y0278136D01*
X0269531Y0278253D01*
X0269545Y0278369D01*
X0269563Y0278485D01*
X0269584Y0278600D01*
X0269610Y0278715D01*
X0269640Y0278828D01*
X0269673Y0278940D01*
X0269710Y0279051D01*
X0269751Y0279161D01*
X0269796Y0279269D01*
X0269844Y0279376D01*
X0269896Y0279481D01*
X0269951Y0279585D01*
X0270010Y0279686D01*
X0270072Y0279785D01*
X0270138Y0279882D01*
X0270207Y0279977D01*
X0270279Y0280069D01*
X0270354Y0280159D01*
X0270432Y0280247D01*
X0270513Y0280331D01*
X0270597Y0280413D01*
X0270684Y0280492D01*
X0270773Y0280568D01*
X0270865Y0280641D01*
X0270959Y0280710D01*
X0271055Y0280777D01*
X0271154Y0280840D01*
X0271255Y0280900D01*
X0271358Y0280956D01*
X0271462Y0281009D01*
X0271569Y0281058D01*
X0271677Y0281103D01*
X0271786Y0281145D01*
X0271897Y0281183D01*
X0272009Y0281217D01*
X0272122Y0281248D01*
X0272236Y0281275D01*
X0272351Y0281297D01*
X0272467Y0281316D01*
X0272583Y0281331D01*
X0272700Y0281342D01*
X0272817Y0281349D01*
X0272934Y0281352D01*
X0273051Y0281351D01*
X0273168Y0281346D01*
X0273285Y0281337D01*
X0273401Y0281324D01*
X0273517Y0281307D01*
X0273632Y0281286D01*
X0273747Y0281262D01*
X0273861Y0281233D01*
X0273973Y0281201D01*
X0274085Y0281165D01*
X0274195Y0281125D01*
X0274304Y0281081D01*
X0274411Y0281034D01*
X0274516Y0280983D01*
X0274620Y0280928D01*
X0274722Y0280870D01*
X0274821Y0280809D01*
X0274919Y0280744D01*
X0275014Y0280676D01*
X0275107Y0280605D01*
X0275198Y0280530D01*
X0275286Y0280453D01*
X0275371Y0280372D01*
X0275454Y0280289D01*
X0275533Y0280203D01*
X0275610Y0280115D01*
X0275684Y0280023D01*
X0275754Y0279930D01*
X0275821Y0279834D01*
X0275885Y0279736D01*
X0275946Y0279635D01*
X0276003Y0279533D01*
X0276057Y0279429D01*
X0276107Y0279323D01*
X0276153Y0279215D01*
X0276196Y0279106D01*
X0276235Y0278996D01*
X0276270Y0278884D01*
X0276302Y0278771D01*
X0276329Y0278657D01*
X0276353Y0278543D01*
X0276373Y0278427D01*
X0276389Y0278311D01*
X0276401Y0278195D01*
X0276409Y0278078D01*
X0276413Y0277961D01*
X0276413Y0277843D01*
X0276409Y0277726D01*
X0276401Y0277609D01*
X0276389Y0277493D01*
X0276373Y0277377D01*
X0276353Y0277261D01*
X0276329Y0277147D01*
X0276302Y0277033D01*
X0276270Y0276920D01*
X0276235Y0276808D01*
X0276196Y0276698D01*
X0276153Y0276589D01*
X0276107Y0276481D01*
X0276057Y0276375D01*
X0276003Y0276271D01*
X0275946Y0276169D01*
X0275885Y0276068D01*
X0275821Y0275970D01*
X0275754Y0275874D01*
X0275684Y0275781D01*
X0275610Y0275689D01*
X0275533Y0275601D01*
X0275454Y0275515D01*
X0275371Y0275432D01*
X0275286Y0275351D01*
X0275198Y0275274D01*
X0275107Y0275199D01*
X0275014Y0275128D01*
X0274919Y0275060D01*
X0274821Y0274995D01*
X0274722Y0274934D01*
X0274620Y0274876D01*
X0274516Y0274821D01*
X0274411Y0274770D01*
X0274304Y0274723D01*
X0274195Y0274679D01*
X0274085Y0274639D01*
X0273973Y0274603D01*
X0273861Y0274571D01*
X0273747Y0274542D01*
X0273632Y0274518D01*
X0273517Y0274497D01*
X0273401Y0274480D01*
X0273285Y0274467D01*
X0273168Y0274458D01*
X0273051Y0274453D01*
X0272934Y0274452D01*
X0272817Y0274455D01*
X0272700Y0274462D01*
X0272583Y0274473D01*
X0272467Y0274488D01*
X0272351Y0274507D01*
X0272236Y0274529D01*
X0272122Y0274556D01*
X0272009Y0274587D01*
X0271897Y0274621D01*
X0271786Y0274659D01*
X0271677Y0274701D01*
X0271569Y0274746D01*
X0271462Y0274795D01*
X0271358Y0274848D01*
X0271255Y0274904D01*
X0271154Y0274964D01*
X0271055Y0275027D01*
X0270959Y0275094D01*
X0270865Y0275163D01*
X0270773Y0275236D01*
X0270684Y0275312D01*
X0270597Y0275391D01*
X0270513Y0275473D01*
X0270432Y0275557D01*
X0270354Y0275645D01*
X0270279Y0275735D01*
X0270207Y0275827D01*
X0270138Y0275922D01*
X0270072Y0276019D01*
X0270010Y0276118D01*
X0269951Y0276219D01*
X0269896Y0276323D01*
X0269844Y0276428D01*
X0269796Y0276535D01*
X0269751Y0276643D01*
X0269710Y0276753D01*
X0269673Y0276864D01*
X0269640Y0276976D01*
X0269610Y0277089D01*
X0269584Y0277204D01*
X0269563Y0277319D01*
X0269545Y0277435D01*
X0269531Y0277551D01*
X0269521Y0277668D01*
X0269515Y0277785D01*
X0269513Y0277902D01*
X0284156Y0277902D02*
X0284158Y0278019D01*
X0284164Y0278136D01*
X0284174Y0278253D01*
X0284188Y0278369D01*
X0284206Y0278485D01*
X0284227Y0278600D01*
X0284253Y0278715D01*
X0284283Y0278828D01*
X0284316Y0278940D01*
X0284353Y0279051D01*
X0284394Y0279161D01*
X0284439Y0279269D01*
X0284487Y0279376D01*
X0284539Y0279481D01*
X0284594Y0279585D01*
X0284653Y0279686D01*
X0284715Y0279785D01*
X0284781Y0279882D01*
X0284850Y0279977D01*
X0284922Y0280069D01*
X0284997Y0280159D01*
X0285075Y0280247D01*
X0285156Y0280331D01*
X0285240Y0280413D01*
X0285327Y0280492D01*
X0285416Y0280568D01*
X0285508Y0280641D01*
X0285602Y0280710D01*
X0285698Y0280777D01*
X0285797Y0280840D01*
X0285898Y0280900D01*
X0286001Y0280956D01*
X0286105Y0281009D01*
X0286212Y0281058D01*
X0286320Y0281103D01*
X0286429Y0281145D01*
X0286540Y0281183D01*
X0286652Y0281217D01*
X0286765Y0281248D01*
X0286879Y0281275D01*
X0286994Y0281297D01*
X0287110Y0281316D01*
X0287226Y0281331D01*
X0287343Y0281342D01*
X0287460Y0281349D01*
X0287577Y0281352D01*
X0287694Y0281351D01*
X0287811Y0281346D01*
X0287928Y0281337D01*
X0288044Y0281324D01*
X0288160Y0281307D01*
X0288275Y0281286D01*
X0288390Y0281262D01*
X0288504Y0281233D01*
X0288616Y0281201D01*
X0288728Y0281165D01*
X0288838Y0281125D01*
X0288947Y0281081D01*
X0289054Y0281034D01*
X0289159Y0280983D01*
X0289263Y0280928D01*
X0289365Y0280870D01*
X0289464Y0280809D01*
X0289562Y0280744D01*
X0289657Y0280676D01*
X0289750Y0280605D01*
X0289841Y0280530D01*
X0289929Y0280453D01*
X0290014Y0280372D01*
X0290097Y0280289D01*
X0290176Y0280203D01*
X0290253Y0280115D01*
X0290327Y0280023D01*
X0290397Y0279930D01*
X0290464Y0279834D01*
X0290528Y0279736D01*
X0290589Y0279635D01*
X0290646Y0279533D01*
X0290700Y0279429D01*
X0290750Y0279323D01*
X0290796Y0279215D01*
X0290839Y0279106D01*
X0290878Y0278996D01*
X0290913Y0278884D01*
X0290945Y0278771D01*
X0290972Y0278657D01*
X0290996Y0278543D01*
X0291016Y0278427D01*
X0291032Y0278311D01*
X0291044Y0278195D01*
X0291052Y0278078D01*
X0291056Y0277961D01*
X0291056Y0277843D01*
X0291052Y0277726D01*
X0291044Y0277609D01*
X0291032Y0277493D01*
X0291016Y0277377D01*
X0290996Y0277261D01*
X0290972Y0277147D01*
X0290945Y0277033D01*
X0290913Y0276920D01*
X0290878Y0276808D01*
X0290839Y0276698D01*
X0290796Y0276589D01*
X0290750Y0276481D01*
X0290700Y0276375D01*
X0290646Y0276271D01*
X0290589Y0276169D01*
X0290528Y0276068D01*
X0290464Y0275970D01*
X0290397Y0275874D01*
X0290327Y0275781D01*
X0290253Y0275689D01*
X0290176Y0275601D01*
X0290097Y0275515D01*
X0290014Y0275432D01*
X0289929Y0275351D01*
X0289841Y0275274D01*
X0289750Y0275199D01*
X0289657Y0275128D01*
X0289562Y0275060D01*
X0289464Y0274995D01*
X0289365Y0274934D01*
X0289263Y0274876D01*
X0289159Y0274821D01*
X0289054Y0274770D01*
X0288947Y0274723D01*
X0288838Y0274679D01*
X0288728Y0274639D01*
X0288616Y0274603D01*
X0288504Y0274571D01*
X0288390Y0274542D01*
X0288275Y0274518D01*
X0288160Y0274497D01*
X0288044Y0274480D01*
X0287928Y0274467D01*
X0287811Y0274458D01*
X0287694Y0274453D01*
X0287577Y0274452D01*
X0287460Y0274455D01*
X0287343Y0274462D01*
X0287226Y0274473D01*
X0287110Y0274488D01*
X0286994Y0274507D01*
X0286879Y0274529D01*
X0286765Y0274556D01*
X0286652Y0274587D01*
X0286540Y0274621D01*
X0286429Y0274659D01*
X0286320Y0274701D01*
X0286212Y0274746D01*
X0286105Y0274795D01*
X0286001Y0274848D01*
X0285898Y0274904D01*
X0285797Y0274964D01*
X0285698Y0275027D01*
X0285602Y0275094D01*
X0285508Y0275163D01*
X0285416Y0275236D01*
X0285327Y0275312D01*
X0285240Y0275391D01*
X0285156Y0275473D01*
X0285075Y0275557D01*
X0284997Y0275645D01*
X0284922Y0275735D01*
X0284850Y0275827D01*
X0284781Y0275922D01*
X0284715Y0276019D01*
X0284653Y0276118D01*
X0284594Y0276219D01*
X0284539Y0276323D01*
X0284487Y0276428D01*
X0284439Y0276535D01*
X0284394Y0276643D01*
X0284353Y0276753D01*
X0284316Y0276864D01*
X0284283Y0276976D01*
X0284253Y0277089D01*
X0284227Y0277204D01*
X0284206Y0277319D01*
X0284188Y0277435D01*
X0284174Y0277551D01*
X0284164Y0277668D01*
X0284158Y0277785D01*
X0284156Y0277902D01*
X0324356Y0277902D02*
X0324358Y0278019D01*
X0324364Y0278136D01*
X0324374Y0278253D01*
X0324388Y0278369D01*
X0324406Y0278485D01*
X0324427Y0278600D01*
X0324453Y0278715D01*
X0324483Y0278828D01*
X0324516Y0278940D01*
X0324553Y0279051D01*
X0324594Y0279161D01*
X0324639Y0279269D01*
X0324687Y0279376D01*
X0324739Y0279481D01*
X0324794Y0279585D01*
X0324853Y0279686D01*
X0324915Y0279785D01*
X0324981Y0279882D01*
X0325050Y0279977D01*
X0325122Y0280069D01*
X0325197Y0280159D01*
X0325275Y0280247D01*
X0325356Y0280331D01*
X0325440Y0280413D01*
X0325527Y0280492D01*
X0325616Y0280568D01*
X0325708Y0280641D01*
X0325802Y0280710D01*
X0325898Y0280777D01*
X0325997Y0280840D01*
X0326098Y0280900D01*
X0326201Y0280956D01*
X0326305Y0281009D01*
X0326412Y0281058D01*
X0326520Y0281103D01*
X0326629Y0281145D01*
X0326740Y0281183D01*
X0326852Y0281217D01*
X0326965Y0281248D01*
X0327079Y0281275D01*
X0327194Y0281297D01*
X0327310Y0281316D01*
X0327426Y0281331D01*
X0327543Y0281342D01*
X0327660Y0281349D01*
X0327777Y0281352D01*
X0327894Y0281351D01*
X0328011Y0281346D01*
X0328128Y0281337D01*
X0328244Y0281324D01*
X0328360Y0281307D01*
X0328475Y0281286D01*
X0328590Y0281262D01*
X0328704Y0281233D01*
X0328816Y0281201D01*
X0328928Y0281165D01*
X0329038Y0281125D01*
X0329147Y0281081D01*
X0329254Y0281034D01*
X0329359Y0280983D01*
X0329463Y0280928D01*
X0329565Y0280870D01*
X0329664Y0280809D01*
X0329762Y0280744D01*
X0329857Y0280676D01*
X0329950Y0280605D01*
X0330041Y0280530D01*
X0330129Y0280453D01*
X0330214Y0280372D01*
X0330297Y0280289D01*
X0330376Y0280203D01*
X0330453Y0280115D01*
X0330527Y0280023D01*
X0330597Y0279930D01*
X0330664Y0279834D01*
X0330728Y0279736D01*
X0330789Y0279635D01*
X0330846Y0279533D01*
X0330900Y0279429D01*
X0330950Y0279323D01*
X0330996Y0279215D01*
X0331039Y0279106D01*
X0331078Y0278996D01*
X0331113Y0278884D01*
X0331145Y0278771D01*
X0331172Y0278657D01*
X0331196Y0278543D01*
X0331216Y0278427D01*
X0331232Y0278311D01*
X0331244Y0278195D01*
X0331252Y0278078D01*
X0331256Y0277961D01*
X0331256Y0277843D01*
X0331252Y0277726D01*
X0331244Y0277609D01*
X0331232Y0277493D01*
X0331216Y0277377D01*
X0331196Y0277261D01*
X0331172Y0277147D01*
X0331145Y0277033D01*
X0331113Y0276920D01*
X0331078Y0276808D01*
X0331039Y0276698D01*
X0330996Y0276589D01*
X0330950Y0276481D01*
X0330900Y0276375D01*
X0330846Y0276271D01*
X0330789Y0276169D01*
X0330728Y0276068D01*
X0330664Y0275970D01*
X0330597Y0275874D01*
X0330527Y0275781D01*
X0330453Y0275689D01*
X0330376Y0275601D01*
X0330297Y0275515D01*
X0330214Y0275432D01*
X0330129Y0275351D01*
X0330041Y0275274D01*
X0329950Y0275199D01*
X0329857Y0275128D01*
X0329762Y0275060D01*
X0329664Y0274995D01*
X0329565Y0274934D01*
X0329463Y0274876D01*
X0329359Y0274821D01*
X0329254Y0274770D01*
X0329147Y0274723D01*
X0329038Y0274679D01*
X0328928Y0274639D01*
X0328816Y0274603D01*
X0328704Y0274571D01*
X0328590Y0274542D01*
X0328475Y0274518D01*
X0328360Y0274497D01*
X0328244Y0274480D01*
X0328128Y0274467D01*
X0328011Y0274458D01*
X0327894Y0274453D01*
X0327777Y0274452D01*
X0327660Y0274455D01*
X0327543Y0274462D01*
X0327426Y0274473D01*
X0327310Y0274488D01*
X0327194Y0274507D01*
X0327079Y0274529D01*
X0326965Y0274556D01*
X0326852Y0274587D01*
X0326740Y0274621D01*
X0326629Y0274659D01*
X0326520Y0274701D01*
X0326412Y0274746D01*
X0326305Y0274795D01*
X0326201Y0274848D01*
X0326098Y0274904D01*
X0325997Y0274964D01*
X0325898Y0275027D01*
X0325802Y0275094D01*
X0325708Y0275163D01*
X0325616Y0275236D01*
X0325527Y0275312D01*
X0325440Y0275391D01*
X0325356Y0275473D01*
X0325275Y0275557D01*
X0325197Y0275645D01*
X0325122Y0275735D01*
X0325050Y0275827D01*
X0324981Y0275922D01*
X0324915Y0276019D01*
X0324853Y0276118D01*
X0324794Y0276219D01*
X0324739Y0276323D01*
X0324687Y0276428D01*
X0324639Y0276535D01*
X0324594Y0276643D01*
X0324553Y0276753D01*
X0324516Y0276864D01*
X0324483Y0276976D01*
X0324453Y0277089D01*
X0324427Y0277204D01*
X0324406Y0277319D01*
X0324388Y0277435D01*
X0324374Y0277551D01*
X0324364Y0277668D01*
X0324358Y0277785D01*
X0324356Y0277902D01*
X0338998Y0277902D02*
X0339000Y0278019D01*
X0339006Y0278136D01*
X0339016Y0278253D01*
X0339030Y0278369D01*
X0339048Y0278485D01*
X0339069Y0278600D01*
X0339095Y0278715D01*
X0339125Y0278828D01*
X0339158Y0278940D01*
X0339195Y0279051D01*
X0339236Y0279161D01*
X0339281Y0279269D01*
X0339329Y0279376D01*
X0339381Y0279481D01*
X0339436Y0279585D01*
X0339495Y0279686D01*
X0339557Y0279785D01*
X0339623Y0279882D01*
X0339692Y0279977D01*
X0339764Y0280069D01*
X0339839Y0280159D01*
X0339917Y0280247D01*
X0339998Y0280331D01*
X0340082Y0280413D01*
X0340169Y0280492D01*
X0340258Y0280568D01*
X0340350Y0280641D01*
X0340444Y0280710D01*
X0340540Y0280777D01*
X0340639Y0280840D01*
X0340740Y0280900D01*
X0340843Y0280956D01*
X0340947Y0281009D01*
X0341054Y0281058D01*
X0341162Y0281103D01*
X0341271Y0281145D01*
X0341382Y0281183D01*
X0341494Y0281217D01*
X0341607Y0281248D01*
X0341721Y0281275D01*
X0341836Y0281297D01*
X0341952Y0281316D01*
X0342068Y0281331D01*
X0342185Y0281342D01*
X0342302Y0281349D01*
X0342419Y0281352D01*
X0342536Y0281351D01*
X0342653Y0281346D01*
X0342770Y0281337D01*
X0342886Y0281324D01*
X0343002Y0281307D01*
X0343117Y0281286D01*
X0343232Y0281262D01*
X0343346Y0281233D01*
X0343458Y0281201D01*
X0343570Y0281165D01*
X0343680Y0281125D01*
X0343789Y0281081D01*
X0343896Y0281034D01*
X0344001Y0280983D01*
X0344105Y0280928D01*
X0344207Y0280870D01*
X0344306Y0280809D01*
X0344404Y0280744D01*
X0344499Y0280676D01*
X0344592Y0280605D01*
X0344683Y0280530D01*
X0344771Y0280453D01*
X0344856Y0280372D01*
X0344939Y0280289D01*
X0345018Y0280203D01*
X0345095Y0280115D01*
X0345169Y0280023D01*
X0345239Y0279930D01*
X0345306Y0279834D01*
X0345370Y0279736D01*
X0345431Y0279635D01*
X0345488Y0279533D01*
X0345542Y0279429D01*
X0345592Y0279323D01*
X0345638Y0279215D01*
X0345681Y0279106D01*
X0345720Y0278996D01*
X0345755Y0278884D01*
X0345787Y0278771D01*
X0345814Y0278657D01*
X0345838Y0278543D01*
X0345858Y0278427D01*
X0345874Y0278311D01*
X0345886Y0278195D01*
X0345894Y0278078D01*
X0345898Y0277961D01*
X0345898Y0277843D01*
X0345894Y0277726D01*
X0345886Y0277609D01*
X0345874Y0277493D01*
X0345858Y0277377D01*
X0345838Y0277261D01*
X0345814Y0277147D01*
X0345787Y0277033D01*
X0345755Y0276920D01*
X0345720Y0276808D01*
X0345681Y0276698D01*
X0345638Y0276589D01*
X0345592Y0276481D01*
X0345542Y0276375D01*
X0345488Y0276271D01*
X0345431Y0276169D01*
X0345370Y0276068D01*
X0345306Y0275970D01*
X0345239Y0275874D01*
X0345169Y0275781D01*
X0345095Y0275689D01*
X0345018Y0275601D01*
X0344939Y0275515D01*
X0344856Y0275432D01*
X0344771Y0275351D01*
X0344683Y0275274D01*
X0344592Y0275199D01*
X0344499Y0275128D01*
X0344404Y0275060D01*
X0344306Y0274995D01*
X0344207Y0274934D01*
X0344105Y0274876D01*
X0344001Y0274821D01*
X0343896Y0274770D01*
X0343789Y0274723D01*
X0343680Y0274679D01*
X0343570Y0274639D01*
X0343458Y0274603D01*
X0343346Y0274571D01*
X0343232Y0274542D01*
X0343117Y0274518D01*
X0343002Y0274497D01*
X0342886Y0274480D01*
X0342770Y0274467D01*
X0342653Y0274458D01*
X0342536Y0274453D01*
X0342419Y0274452D01*
X0342302Y0274455D01*
X0342185Y0274462D01*
X0342068Y0274473D01*
X0341952Y0274488D01*
X0341836Y0274507D01*
X0341721Y0274529D01*
X0341607Y0274556D01*
X0341494Y0274587D01*
X0341382Y0274621D01*
X0341271Y0274659D01*
X0341162Y0274701D01*
X0341054Y0274746D01*
X0340947Y0274795D01*
X0340843Y0274848D01*
X0340740Y0274904D01*
X0340639Y0274964D01*
X0340540Y0275027D01*
X0340444Y0275094D01*
X0340350Y0275163D01*
X0340258Y0275236D01*
X0340169Y0275312D01*
X0340082Y0275391D01*
X0339998Y0275473D01*
X0339917Y0275557D01*
X0339839Y0275645D01*
X0339764Y0275735D01*
X0339692Y0275827D01*
X0339623Y0275922D01*
X0339557Y0276019D01*
X0339495Y0276118D01*
X0339436Y0276219D01*
X0339381Y0276323D01*
X0339329Y0276428D01*
X0339281Y0276535D01*
X0339236Y0276643D01*
X0339195Y0276753D01*
X0339158Y0276864D01*
X0339125Y0276976D01*
X0339095Y0277089D01*
X0339069Y0277204D01*
X0339048Y0277319D01*
X0339030Y0277435D01*
X0339016Y0277551D01*
X0339006Y0277668D01*
X0339000Y0277785D01*
X0338998Y0277902D01*
X0389198Y0277902D02*
X0389200Y0278019D01*
X0389206Y0278136D01*
X0389216Y0278253D01*
X0389230Y0278369D01*
X0389248Y0278485D01*
X0389269Y0278600D01*
X0389295Y0278715D01*
X0389325Y0278828D01*
X0389358Y0278940D01*
X0389395Y0279051D01*
X0389436Y0279161D01*
X0389481Y0279269D01*
X0389529Y0279376D01*
X0389581Y0279481D01*
X0389636Y0279585D01*
X0389695Y0279686D01*
X0389757Y0279785D01*
X0389823Y0279882D01*
X0389892Y0279977D01*
X0389964Y0280069D01*
X0390039Y0280159D01*
X0390117Y0280247D01*
X0390198Y0280331D01*
X0390282Y0280413D01*
X0390369Y0280492D01*
X0390458Y0280568D01*
X0390550Y0280641D01*
X0390644Y0280710D01*
X0390740Y0280777D01*
X0390839Y0280840D01*
X0390940Y0280900D01*
X0391043Y0280956D01*
X0391147Y0281009D01*
X0391254Y0281058D01*
X0391362Y0281103D01*
X0391471Y0281145D01*
X0391582Y0281183D01*
X0391694Y0281217D01*
X0391807Y0281248D01*
X0391921Y0281275D01*
X0392036Y0281297D01*
X0392152Y0281316D01*
X0392268Y0281331D01*
X0392385Y0281342D01*
X0392502Y0281349D01*
X0392619Y0281352D01*
X0392736Y0281351D01*
X0392853Y0281346D01*
X0392970Y0281337D01*
X0393086Y0281324D01*
X0393202Y0281307D01*
X0393317Y0281286D01*
X0393432Y0281262D01*
X0393546Y0281233D01*
X0393658Y0281201D01*
X0393770Y0281165D01*
X0393880Y0281125D01*
X0393989Y0281081D01*
X0394096Y0281034D01*
X0394201Y0280983D01*
X0394305Y0280928D01*
X0394407Y0280870D01*
X0394506Y0280809D01*
X0394604Y0280744D01*
X0394699Y0280676D01*
X0394792Y0280605D01*
X0394883Y0280530D01*
X0394971Y0280453D01*
X0395056Y0280372D01*
X0395139Y0280289D01*
X0395218Y0280203D01*
X0395295Y0280115D01*
X0395369Y0280023D01*
X0395439Y0279930D01*
X0395506Y0279834D01*
X0395570Y0279736D01*
X0395631Y0279635D01*
X0395688Y0279533D01*
X0395742Y0279429D01*
X0395792Y0279323D01*
X0395838Y0279215D01*
X0395881Y0279106D01*
X0395920Y0278996D01*
X0395955Y0278884D01*
X0395987Y0278771D01*
X0396014Y0278657D01*
X0396038Y0278543D01*
X0396058Y0278427D01*
X0396074Y0278311D01*
X0396086Y0278195D01*
X0396094Y0278078D01*
X0396098Y0277961D01*
X0396098Y0277843D01*
X0396094Y0277726D01*
X0396086Y0277609D01*
X0396074Y0277493D01*
X0396058Y0277377D01*
X0396038Y0277261D01*
X0396014Y0277147D01*
X0395987Y0277033D01*
X0395955Y0276920D01*
X0395920Y0276808D01*
X0395881Y0276698D01*
X0395838Y0276589D01*
X0395792Y0276481D01*
X0395742Y0276375D01*
X0395688Y0276271D01*
X0395631Y0276169D01*
X0395570Y0276068D01*
X0395506Y0275970D01*
X0395439Y0275874D01*
X0395369Y0275781D01*
X0395295Y0275689D01*
X0395218Y0275601D01*
X0395139Y0275515D01*
X0395056Y0275432D01*
X0394971Y0275351D01*
X0394883Y0275274D01*
X0394792Y0275199D01*
X0394699Y0275128D01*
X0394604Y0275060D01*
X0394506Y0274995D01*
X0394407Y0274934D01*
X0394305Y0274876D01*
X0394201Y0274821D01*
X0394096Y0274770D01*
X0393989Y0274723D01*
X0393880Y0274679D01*
X0393770Y0274639D01*
X0393658Y0274603D01*
X0393546Y0274571D01*
X0393432Y0274542D01*
X0393317Y0274518D01*
X0393202Y0274497D01*
X0393086Y0274480D01*
X0392970Y0274467D01*
X0392853Y0274458D01*
X0392736Y0274453D01*
X0392619Y0274452D01*
X0392502Y0274455D01*
X0392385Y0274462D01*
X0392268Y0274473D01*
X0392152Y0274488D01*
X0392036Y0274507D01*
X0391921Y0274529D01*
X0391807Y0274556D01*
X0391694Y0274587D01*
X0391582Y0274621D01*
X0391471Y0274659D01*
X0391362Y0274701D01*
X0391254Y0274746D01*
X0391147Y0274795D01*
X0391043Y0274848D01*
X0390940Y0274904D01*
X0390839Y0274964D01*
X0390740Y0275027D01*
X0390644Y0275094D01*
X0390550Y0275163D01*
X0390458Y0275236D01*
X0390369Y0275312D01*
X0390282Y0275391D01*
X0390198Y0275473D01*
X0390117Y0275557D01*
X0390039Y0275645D01*
X0389964Y0275735D01*
X0389892Y0275827D01*
X0389823Y0275922D01*
X0389757Y0276019D01*
X0389695Y0276118D01*
X0389636Y0276219D01*
X0389581Y0276323D01*
X0389529Y0276428D01*
X0389481Y0276535D01*
X0389436Y0276643D01*
X0389395Y0276753D01*
X0389358Y0276864D01*
X0389325Y0276976D01*
X0389295Y0277089D01*
X0389269Y0277204D01*
X0389248Y0277319D01*
X0389230Y0277435D01*
X0389216Y0277551D01*
X0389206Y0277668D01*
X0389200Y0277785D01*
X0389198Y0277902D01*
D11*
X0164495Y0286888D03*
X0154502Y0280902D03*
X0124699Y0286886D03*
X0114692Y0280904D03*
X0127098Y0242603D03*
X0137098Y0242603D03*
X0147098Y0242603D03*
X0157098Y0242603D03*
X0152098Y0232603D03*
X0142098Y0232603D03*
X0132098Y0232603D03*
X0122098Y0232603D03*
D12*
X0108594Y0255595D03*
X0170602Y0255595D03*
X0514765Y0225086D03*
X0514765Y0211686D03*
X0555765Y0211686D03*
X0555765Y0225086D03*
D13*
X0162098Y0267603D03*
X0117098Y0267603D03*
D14*
X0134083Y0271535D03*
X0145107Y0271535D03*
X0190580Y0176850D03*
X0201603Y0176850D03*
X0313217Y0177047D03*
X0324241Y0177047D03*
D15*
X0344910Y0188858D03*
X0351603Y0188858D03*
X0292548Y0188858D03*
X0285855Y0188858D03*
X0285855Y0163268D03*
X0292548Y0163268D03*
X0216564Y0192008D03*
X0209871Y0192008D03*
X0197272Y0186890D03*
X0190580Y0186890D03*
X0150816Y0173110D03*
X0144123Y0173110D03*
X0101603Y0116024D03*
X0094910Y0116024D03*
X0106131Y0072126D03*
X0115973Y0072126D03*
X0115973Y0065433D03*
X0106131Y0065433D03*
X0125816Y0065433D03*
X0125816Y0072126D03*
X0323257Y0110118D03*
X0329950Y0110118D03*
X0395501Y0072126D03*
X0395501Y0065433D03*
X0436839Y0065433D03*
X0436839Y0072126D03*
X0478178Y0072126D03*
X0478178Y0065433D03*
X0519517Y0065433D03*
X0519517Y0072126D03*
X0280343Y0231772D03*
X0273650Y0231772D03*
X0370501Y0247913D03*
X0377194Y0247913D03*
D16*
X0224241Y0218780D03*
X0224241Y0207756D03*
D17*
X0214005Y0204803D03*
X0205540Y0204803D03*
X0205540Y0211496D03*
X0214005Y0211496D03*
X0187036Y0211102D03*
X0187036Y0204409D03*
X0178572Y0194961D03*
X0178572Y0188268D03*
X0244320Y0226063D03*
X0244320Y0232756D03*
X0243729Y0238661D03*
X0233296Y0238661D03*
X0233296Y0245354D03*
X0243729Y0245354D03*
X0252587Y0245354D03*
X0261052Y0245354D03*
X0261052Y0238661D03*
X0252587Y0238661D03*
X0272666Y0238661D03*
X0272666Y0245354D03*
X0224831Y0245354D03*
X0224831Y0238661D03*
X0308099Y0213858D03*
X0308099Y0207165D03*
X0332509Y0204016D03*
X0332509Y0210709D03*
X0400028Y0216417D03*
X0406721Y0216417D03*
X0406721Y0224685D03*
X0400028Y0224685D03*
X0407509Y0208150D03*
X0414202Y0208150D03*
X0451997Y0167205D03*
X0458690Y0167205D03*
X0408887Y0138661D03*
X0408887Y0131969D03*
X0391564Y0129213D03*
X0391564Y0122520D03*
X0428965Y0122520D03*
X0428965Y0129213D03*
X0472272Y0129213D03*
X0472272Y0122520D03*
X0493926Y0131181D03*
X0493926Y0137874D03*
X0513611Y0129213D03*
X0513611Y0122520D03*
X0348257Y0154016D03*
X0348257Y0160709D03*
X0331328Y0152047D03*
X0322666Y0152047D03*
X0314398Y0152047D03*
X0314398Y0145354D03*
X0322666Y0145354D03*
X0331328Y0145354D03*
X0134083Y0095157D03*
X0134083Y0088465D03*
X0125816Y0087480D03*
X0125816Y0080787D03*
X0115973Y0080787D03*
X0106131Y0081181D03*
X0106131Y0087874D03*
X0115973Y0087480D03*
X0081524Y0114449D03*
X0074831Y0114449D03*
D18*
X0283139Y0078307D03*
X0294044Y0078307D03*
X0304950Y0078307D03*
X0315855Y0078307D03*
X0326761Y0078307D03*
X0321308Y0067126D03*
X0310402Y0067126D03*
X0299497Y0067126D03*
X0288591Y0067126D03*
D19*
X0255757Y0072717D03*
X0354143Y0072717D03*
D20*
X0385501Y0058000D02*
X0385501Y0052000D01*
X0395501Y0052000D02*
X0395501Y0058000D01*
X0405501Y0058000D02*
X0405501Y0052000D01*
X0426839Y0052000D02*
X0426839Y0058000D01*
X0436839Y0058000D02*
X0436839Y0052000D01*
X0446839Y0052000D02*
X0446839Y0058000D01*
X0473178Y0058000D02*
X0473178Y0052000D01*
X0483178Y0052000D02*
X0483178Y0058000D01*
X0514517Y0058000D02*
X0514517Y0052000D01*
X0524517Y0052000D02*
X0524517Y0058000D01*
X0229398Y0058000D02*
X0229398Y0052000D01*
X0219398Y0052000D02*
X0219398Y0058000D01*
X0209398Y0058000D02*
X0209398Y0052000D01*
X0199398Y0052000D02*
X0199398Y0058000D01*
X0180186Y0058000D02*
X0180186Y0052000D01*
X0170186Y0052000D02*
X0170186Y0058000D01*
X0160186Y0058000D02*
X0160186Y0052000D01*
X0150186Y0052000D02*
X0150186Y0058000D01*
X0130068Y0058000D02*
X0130068Y0052000D01*
X0120068Y0052000D02*
X0120068Y0058000D01*
X0110068Y0058000D02*
X0110068Y0052000D01*
X0100068Y0052000D02*
X0100068Y0058000D01*
X0090068Y0058000D02*
X0090068Y0052000D01*
X0075666Y0075433D02*
X0069666Y0075433D01*
X0069666Y0085433D02*
X0075666Y0085433D01*
X0075666Y0095433D02*
X0069666Y0095433D01*
X0069666Y0105433D02*
X0075666Y0105433D01*
X0075666Y0122835D02*
X0069666Y0122835D01*
X0069666Y0132835D02*
X0075666Y0132835D01*
X0075666Y0150394D02*
X0069666Y0150394D01*
X0069666Y0160394D02*
X0075666Y0160394D01*
X0195650Y0244567D02*
X0201650Y0244567D01*
X0201650Y0254567D02*
X0195650Y0254567D01*
X0195650Y0264567D02*
X0201650Y0264567D01*
X0201650Y0274567D02*
X0195650Y0274567D01*
X0195650Y0284567D02*
X0201650Y0284567D01*
X0201650Y0294567D02*
X0195650Y0294567D01*
X0097351Y0294220D02*
X0097351Y0288220D01*
X0087351Y0288220D02*
X0087351Y0294220D01*
D21*
X0557509Y0147224D03*
X0557509Y0119075D03*
D22*
X0392648Y0277902D03*
X0342448Y0277902D03*
X0327806Y0277902D03*
X0287606Y0277902D03*
X0272963Y0277902D03*
X0222763Y0277902D03*
D23*
X0314792Y0136260D03*
X0314792Y0131220D03*
D24*
X0520982Y0247756D02*
X0529232Y0247756D01*
X0529232Y0267756D02*
X0520982Y0267756D01*
D25*
X0526603Y0218386D03*
X0543926Y0218386D03*
D26*
X0552981Y0299094D03*
X0552981Y0047126D03*
X0064792Y0047126D03*
X0064792Y0299094D03*
D27*
X0068729Y0195157D03*
X0068729Y0179409D03*
M02*
