G75*
%MOIN*%
%OFA0B0*%
%FSLAX25Y25*%
%IPPOS*%
%LPD*%
%AMOC8*
5,1,8,0,0,1.08239X$1,22.5*
%
%ADD10C,0.00000*%
%ADD11C,0.06000*%
%ADD12R,0.03937X0.10827*%
%ADD13C,0.23622*%
%ADD14C,0.03937*%
%ADD15C,0.03150*%
%ADD16C,0.01600*%
%ADD17C,0.02400*%
D10*
X0045507Y0040429D02*
X0202987Y0040429D01*
X0203463Y0040435D01*
X0203938Y0040452D01*
X0204413Y0040481D01*
X0204887Y0040521D01*
X0205360Y0040573D01*
X0205831Y0040636D01*
X0206301Y0040710D01*
X0206769Y0040796D01*
X0207235Y0040893D01*
X0207698Y0041001D01*
X0208158Y0041120D01*
X0208616Y0041251D01*
X0209070Y0041392D01*
X0209521Y0041545D01*
X0209967Y0041708D01*
X0210410Y0041882D01*
X0210848Y0042067D01*
X0211282Y0042262D01*
X0211711Y0042468D01*
X0212135Y0042684D01*
X0212554Y0042910D01*
X0212967Y0043146D01*
X0213374Y0043392D01*
X0213775Y0043648D01*
X0214169Y0043914D01*
X0214558Y0044189D01*
X0214939Y0044473D01*
X0215313Y0044766D01*
X0215681Y0045068D01*
X0216041Y0045380D01*
X0216393Y0045699D01*
X0216737Y0046027D01*
X0217074Y0046364D01*
X0217402Y0046708D01*
X0217721Y0047060D01*
X0218033Y0047420D01*
X0218335Y0047788D01*
X0218628Y0048162D01*
X0218912Y0048543D01*
X0219187Y0048932D01*
X0219453Y0049326D01*
X0219709Y0049727D01*
X0219955Y0050134D01*
X0220191Y0050547D01*
X0220417Y0050966D01*
X0220633Y0051390D01*
X0220839Y0051819D01*
X0221034Y0052253D01*
X0221219Y0052691D01*
X0221393Y0053134D01*
X0221556Y0053580D01*
X0221709Y0054031D01*
X0221850Y0054485D01*
X0221981Y0054943D01*
X0222100Y0055403D01*
X0222208Y0055866D01*
X0222305Y0056332D01*
X0222391Y0056800D01*
X0222465Y0057270D01*
X0222528Y0057741D01*
X0222580Y0058214D01*
X0222620Y0058688D01*
X0222649Y0059163D01*
X0222666Y0059638D01*
X0222672Y0060114D01*
X0222672Y0115232D01*
X0222666Y0115708D01*
X0222649Y0116183D01*
X0222620Y0116658D01*
X0222580Y0117132D01*
X0222528Y0117605D01*
X0222465Y0118076D01*
X0222391Y0118546D01*
X0222305Y0119014D01*
X0222208Y0119480D01*
X0222100Y0119943D01*
X0221981Y0120403D01*
X0221850Y0120861D01*
X0221709Y0121315D01*
X0221556Y0121766D01*
X0221393Y0122212D01*
X0221219Y0122655D01*
X0221034Y0123093D01*
X0220839Y0123527D01*
X0220633Y0123956D01*
X0220417Y0124380D01*
X0220191Y0124799D01*
X0219955Y0125212D01*
X0219709Y0125619D01*
X0219453Y0126020D01*
X0219187Y0126414D01*
X0218912Y0126803D01*
X0218628Y0127184D01*
X0218335Y0127558D01*
X0218033Y0127926D01*
X0217721Y0128286D01*
X0217402Y0128638D01*
X0217074Y0128982D01*
X0216737Y0129319D01*
X0216393Y0129647D01*
X0216041Y0129966D01*
X0215681Y0130278D01*
X0215313Y0130580D01*
X0214939Y0130873D01*
X0214558Y0131157D01*
X0214169Y0131432D01*
X0213775Y0131698D01*
X0213374Y0131954D01*
X0212967Y0132200D01*
X0212554Y0132436D01*
X0212135Y0132662D01*
X0211711Y0132878D01*
X0211282Y0133084D01*
X0210848Y0133279D01*
X0210410Y0133464D01*
X0209967Y0133638D01*
X0209521Y0133801D01*
X0209070Y0133954D01*
X0208616Y0134095D01*
X0208158Y0134226D01*
X0207698Y0134345D01*
X0207235Y0134453D01*
X0206769Y0134550D01*
X0206301Y0134636D01*
X0205831Y0134710D01*
X0205360Y0134773D01*
X0204887Y0134825D01*
X0204413Y0134865D01*
X0203938Y0134894D01*
X0203463Y0134911D01*
X0202987Y0134917D01*
X0045507Y0134917D01*
X0045031Y0134911D01*
X0044556Y0134894D01*
X0044081Y0134865D01*
X0043607Y0134825D01*
X0043134Y0134773D01*
X0042663Y0134710D01*
X0042193Y0134636D01*
X0041725Y0134550D01*
X0041259Y0134453D01*
X0040796Y0134345D01*
X0040336Y0134226D01*
X0039878Y0134095D01*
X0039424Y0133954D01*
X0038973Y0133801D01*
X0038527Y0133638D01*
X0038084Y0133464D01*
X0037646Y0133279D01*
X0037212Y0133084D01*
X0036783Y0132878D01*
X0036359Y0132662D01*
X0035940Y0132436D01*
X0035527Y0132200D01*
X0035120Y0131954D01*
X0034719Y0131698D01*
X0034325Y0131432D01*
X0033936Y0131157D01*
X0033555Y0130873D01*
X0033181Y0130580D01*
X0032813Y0130278D01*
X0032453Y0129966D01*
X0032101Y0129647D01*
X0031757Y0129319D01*
X0031420Y0128982D01*
X0031092Y0128638D01*
X0030773Y0128286D01*
X0030461Y0127926D01*
X0030159Y0127558D01*
X0029866Y0127184D01*
X0029582Y0126803D01*
X0029307Y0126414D01*
X0029041Y0126020D01*
X0028785Y0125619D01*
X0028539Y0125212D01*
X0028303Y0124799D01*
X0028077Y0124380D01*
X0027861Y0123956D01*
X0027655Y0123527D01*
X0027460Y0123093D01*
X0027275Y0122655D01*
X0027101Y0122212D01*
X0026938Y0121766D01*
X0026785Y0121315D01*
X0026644Y0120861D01*
X0026513Y0120403D01*
X0026394Y0119943D01*
X0026286Y0119480D01*
X0026189Y0119014D01*
X0026103Y0118546D01*
X0026029Y0118076D01*
X0025966Y0117605D01*
X0025914Y0117132D01*
X0025874Y0116658D01*
X0025845Y0116183D01*
X0025828Y0115708D01*
X0025822Y0115232D01*
X0025822Y0060114D01*
X0025828Y0059638D01*
X0025845Y0059163D01*
X0025874Y0058688D01*
X0025914Y0058214D01*
X0025966Y0057741D01*
X0026029Y0057270D01*
X0026103Y0056800D01*
X0026189Y0056332D01*
X0026286Y0055866D01*
X0026394Y0055403D01*
X0026513Y0054943D01*
X0026644Y0054485D01*
X0026785Y0054031D01*
X0026938Y0053580D01*
X0027101Y0053134D01*
X0027275Y0052691D01*
X0027460Y0052253D01*
X0027655Y0051819D01*
X0027861Y0051390D01*
X0028077Y0050966D01*
X0028303Y0050547D01*
X0028539Y0050134D01*
X0028785Y0049727D01*
X0029041Y0049326D01*
X0029307Y0048932D01*
X0029582Y0048543D01*
X0029866Y0048162D01*
X0030159Y0047788D01*
X0030461Y0047420D01*
X0030773Y0047060D01*
X0031092Y0046708D01*
X0031420Y0046364D01*
X0031757Y0046027D01*
X0032101Y0045699D01*
X0032453Y0045380D01*
X0032813Y0045068D01*
X0033181Y0044766D01*
X0033555Y0044473D01*
X0033936Y0044189D01*
X0034325Y0043914D01*
X0034719Y0043648D01*
X0035120Y0043392D01*
X0035527Y0043146D01*
X0035940Y0042910D01*
X0036359Y0042684D01*
X0036783Y0042468D01*
X0037212Y0042262D01*
X0037646Y0042067D01*
X0038084Y0041882D01*
X0038527Y0041708D01*
X0038973Y0041545D01*
X0039424Y0041392D01*
X0039878Y0041251D01*
X0040336Y0041120D01*
X0040796Y0041001D01*
X0041259Y0040893D01*
X0041725Y0040796D01*
X0042193Y0040710D01*
X0042663Y0040636D01*
X0043134Y0040573D01*
X0043607Y0040521D01*
X0044081Y0040481D01*
X0044556Y0040452D01*
X0045031Y0040435D01*
X0045507Y0040429D01*
X0078971Y0064051D02*
X0078973Y0064139D01*
X0078979Y0064227D01*
X0078989Y0064315D01*
X0079003Y0064403D01*
X0079020Y0064489D01*
X0079042Y0064575D01*
X0079067Y0064659D01*
X0079097Y0064743D01*
X0079129Y0064825D01*
X0079166Y0064905D01*
X0079206Y0064984D01*
X0079250Y0065061D01*
X0079297Y0065136D01*
X0079347Y0065208D01*
X0079401Y0065279D01*
X0079457Y0065346D01*
X0079517Y0065412D01*
X0079579Y0065474D01*
X0079645Y0065534D01*
X0079712Y0065590D01*
X0079783Y0065644D01*
X0079855Y0065694D01*
X0079930Y0065741D01*
X0080007Y0065785D01*
X0080086Y0065825D01*
X0080166Y0065862D01*
X0080248Y0065894D01*
X0080332Y0065924D01*
X0080416Y0065949D01*
X0080502Y0065971D01*
X0080588Y0065988D01*
X0080676Y0066002D01*
X0080764Y0066012D01*
X0080852Y0066018D01*
X0080940Y0066020D01*
X0081028Y0066018D01*
X0081116Y0066012D01*
X0081204Y0066002D01*
X0081292Y0065988D01*
X0081378Y0065971D01*
X0081464Y0065949D01*
X0081548Y0065924D01*
X0081632Y0065894D01*
X0081714Y0065862D01*
X0081794Y0065825D01*
X0081873Y0065785D01*
X0081950Y0065741D01*
X0082025Y0065694D01*
X0082097Y0065644D01*
X0082168Y0065590D01*
X0082235Y0065534D01*
X0082301Y0065474D01*
X0082363Y0065412D01*
X0082423Y0065346D01*
X0082479Y0065279D01*
X0082533Y0065208D01*
X0082583Y0065136D01*
X0082630Y0065061D01*
X0082674Y0064984D01*
X0082714Y0064905D01*
X0082751Y0064825D01*
X0082783Y0064743D01*
X0082813Y0064659D01*
X0082838Y0064575D01*
X0082860Y0064489D01*
X0082877Y0064403D01*
X0082891Y0064315D01*
X0082901Y0064227D01*
X0082907Y0064139D01*
X0082909Y0064051D01*
X0082907Y0063963D01*
X0082901Y0063875D01*
X0082891Y0063787D01*
X0082877Y0063699D01*
X0082860Y0063613D01*
X0082838Y0063527D01*
X0082813Y0063443D01*
X0082783Y0063359D01*
X0082751Y0063277D01*
X0082714Y0063197D01*
X0082674Y0063118D01*
X0082630Y0063041D01*
X0082583Y0062966D01*
X0082533Y0062894D01*
X0082479Y0062823D01*
X0082423Y0062756D01*
X0082363Y0062690D01*
X0082301Y0062628D01*
X0082235Y0062568D01*
X0082168Y0062512D01*
X0082097Y0062458D01*
X0082025Y0062408D01*
X0081950Y0062361D01*
X0081873Y0062317D01*
X0081794Y0062277D01*
X0081714Y0062240D01*
X0081632Y0062208D01*
X0081548Y0062178D01*
X0081464Y0062153D01*
X0081378Y0062131D01*
X0081292Y0062114D01*
X0081204Y0062100D01*
X0081116Y0062090D01*
X0081028Y0062084D01*
X0080940Y0062082D01*
X0080852Y0062084D01*
X0080764Y0062090D01*
X0080676Y0062100D01*
X0080588Y0062114D01*
X0080502Y0062131D01*
X0080416Y0062153D01*
X0080332Y0062178D01*
X0080248Y0062208D01*
X0080166Y0062240D01*
X0080086Y0062277D01*
X0080007Y0062317D01*
X0079930Y0062361D01*
X0079855Y0062408D01*
X0079783Y0062458D01*
X0079712Y0062512D01*
X0079645Y0062568D01*
X0079579Y0062628D01*
X0079517Y0062690D01*
X0079457Y0062756D01*
X0079401Y0062823D01*
X0079347Y0062894D01*
X0079297Y0062966D01*
X0079250Y0063041D01*
X0079206Y0063118D01*
X0079166Y0063197D01*
X0079129Y0063277D01*
X0079097Y0063359D01*
X0079067Y0063443D01*
X0079042Y0063527D01*
X0079020Y0063613D01*
X0079003Y0063699D01*
X0078989Y0063787D01*
X0078979Y0063875D01*
X0078973Y0063963D01*
X0078971Y0064051D01*
X0165585Y0064051D02*
X0165587Y0064139D01*
X0165593Y0064227D01*
X0165603Y0064315D01*
X0165617Y0064403D01*
X0165634Y0064489D01*
X0165656Y0064575D01*
X0165681Y0064659D01*
X0165711Y0064743D01*
X0165743Y0064825D01*
X0165780Y0064905D01*
X0165820Y0064984D01*
X0165864Y0065061D01*
X0165911Y0065136D01*
X0165961Y0065208D01*
X0166015Y0065279D01*
X0166071Y0065346D01*
X0166131Y0065412D01*
X0166193Y0065474D01*
X0166259Y0065534D01*
X0166326Y0065590D01*
X0166397Y0065644D01*
X0166469Y0065694D01*
X0166544Y0065741D01*
X0166621Y0065785D01*
X0166700Y0065825D01*
X0166780Y0065862D01*
X0166862Y0065894D01*
X0166946Y0065924D01*
X0167030Y0065949D01*
X0167116Y0065971D01*
X0167202Y0065988D01*
X0167290Y0066002D01*
X0167378Y0066012D01*
X0167466Y0066018D01*
X0167554Y0066020D01*
X0167642Y0066018D01*
X0167730Y0066012D01*
X0167818Y0066002D01*
X0167906Y0065988D01*
X0167992Y0065971D01*
X0168078Y0065949D01*
X0168162Y0065924D01*
X0168246Y0065894D01*
X0168328Y0065862D01*
X0168408Y0065825D01*
X0168487Y0065785D01*
X0168564Y0065741D01*
X0168639Y0065694D01*
X0168711Y0065644D01*
X0168782Y0065590D01*
X0168849Y0065534D01*
X0168915Y0065474D01*
X0168977Y0065412D01*
X0169037Y0065346D01*
X0169093Y0065279D01*
X0169147Y0065208D01*
X0169197Y0065136D01*
X0169244Y0065061D01*
X0169288Y0064984D01*
X0169328Y0064905D01*
X0169365Y0064825D01*
X0169397Y0064743D01*
X0169427Y0064659D01*
X0169452Y0064575D01*
X0169474Y0064489D01*
X0169491Y0064403D01*
X0169505Y0064315D01*
X0169515Y0064227D01*
X0169521Y0064139D01*
X0169523Y0064051D01*
X0169521Y0063963D01*
X0169515Y0063875D01*
X0169505Y0063787D01*
X0169491Y0063699D01*
X0169474Y0063613D01*
X0169452Y0063527D01*
X0169427Y0063443D01*
X0169397Y0063359D01*
X0169365Y0063277D01*
X0169328Y0063197D01*
X0169288Y0063118D01*
X0169244Y0063041D01*
X0169197Y0062966D01*
X0169147Y0062894D01*
X0169093Y0062823D01*
X0169037Y0062756D01*
X0168977Y0062690D01*
X0168915Y0062628D01*
X0168849Y0062568D01*
X0168782Y0062512D01*
X0168711Y0062458D01*
X0168639Y0062408D01*
X0168564Y0062361D01*
X0168487Y0062317D01*
X0168408Y0062277D01*
X0168328Y0062240D01*
X0168246Y0062208D01*
X0168162Y0062178D01*
X0168078Y0062153D01*
X0167992Y0062131D01*
X0167906Y0062114D01*
X0167818Y0062100D01*
X0167730Y0062090D01*
X0167642Y0062084D01*
X0167554Y0062082D01*
X0167466Y0062084D01*
X0167378Y0062090D01*
X0167290Y0062100D01*
X0167202Y0062114D01*
X0167116Y0062131D01*
X0167030Y0062153D01*
X0166946Y0062178D01*
X0166862Y0062208D01*
X0166780Y0062240D01*
X0166700Y0062277D01*
X0166621Y0062317D01*
X0166544Y0062361D01*
X0166469Y0062408D01*
X0166397Y0062458D01*
X0166326Y0062512D01*
X0166259Y0062568D01*
X0166193Y0062628D01*
X0166131Y0062690D01*
X0166071Y0062756D01*
X0166015Y0062823D01*
X0165961Y0062894D01*
X0165911Y0062966D01*
X0165864Y0063041D01*
X0165820Y0063118D01*
X0165780Y0063197D01*
X0165743Y0063277D01*
X0165711Y0063359D01*
X0165681Y0063443D01*
X0165656Y0063527D01*
X0165634Y0063613D01*
X0165617Y0063699D01*
X0165603Y0063787D01*
X0165593Y0063875D01*
X0165587Y0063963D01*
X0165585Y0064051D01*
D11*
X0155822Y0112429D02*
X0155822Y0118429D01*
X0145822Y0118429D02*
X0145822Y0112429D01*
X0135822Y0112429D02*
X0135822Y0118429D01*
X0115822Y0118429D02*
X0115822Y0112429D01*
X0105822Y0112429D02*
X0105822Y0118429D01*
X0095822Y0118429D02*
X0095822Y0112429D01*
X0070822Y0112429D02*
X0070822Y0118429D01*
X0060822Y0118429D02*
X0060822Y0112429D01*
X0180822Y0112429D02*
X0180822Y0118429D01*
X0190822Y0118429D02*
X0190822Y0112429D01*
D12*
X0171491Y0072516D03*
X0163617Y0072516D03*
X0155743Y0072516D03*
X0147869Y0072516D03*
X0139995Y0072516D03*
X0132121Y0072516D03*
X0124247Y0072516D03*
X0116373Y0072516D03*
X0108499Y0072516D03*
X0100625Y0072516D03*
X0092751Y0072516D03*
X0084877Y0072516D03*
X0077003Y0072516D03*
X0077003Y0055587D03*
X0084877Y0055587D03*
X0092751Y0055587D03*
X0100625Y0055587D03*
X0108499Y0055587D03*
X0116373Y0055587D03*
X0124247Y0055587D03*
X0132121Y0055587D03*
X0139995Y0055587D03*
X0147869Y0055587D03*
X0155743Y0055587D03*
X0163617Y0055587D03*
X0171491Y0055587D03*
D13*
X0208893Y0087673D03*
X0039602Y0087673D03*
D14*
X0037633Y0119169D03*
X0037633Y0052240D03*
X0210861Y0052240D03*
X0210861Y0123106D03*
D15*
X0163617Y0082752D03*
X0163617Y0046335D03*
X0069129Y0056177D03*
X0069129Y0071925D03*
D16*
X0076413Y0071925D01*
X0077003Y0072516D01*
X0084877Y0072516D02*
X0084877Y0095547D01*
X0080940Y0099484D01*
X0065192Y0099484D01*
X0060822Y0103854D01*
X0060822Y0115429D01*
X0096688Y0095547D02*
X0102594Y0101453D01*
X0110468Y0101453D01*
X0115822Y0106807D01*
X0115822Y0115429D01*
X0112436Y0095547D02*
X0147869Y0095547D01*
X0155743Y0103421D01*
X0155743Y0115350D01*
X0155822Y0115429D01*
X0180822Y0115429D02*
X0180822Y0098972D01*
X0171491Y0089642D01*
X0121294Y0089642D01*
X0116373Y0084720D01*
X0116373Y0072516D01*
X0100625Y0072516D02*
X0100625Y0083736D01*
X0112436Y0095547D01*
X0096688Y0095547D02*
X0096688Y0064051D01*
X0100625Y0060114D01*
X0100625Y0055587D01*
X0077003Y0055587D02*
X0076413Y0056177D01*
X0069129Y0056177D01*
X0163617Y0055587D02*
X0163617Y0046335D01*
X0171491Y0055587D02*
X0171491Y0072516D01*
X0163617Y0072516D02*
X0163617Y0082752D01*
D17*
X0162101Y0086001D02*
X0121623Y0086001D01*
X0122457Y0086835D02*
X0172050Y0086835D01*
X0173081Y0087262D01*
X0182412Y0096593D01*
X0183202Y0097382D01*
X0183629Y0098414D01*
X0183629Y0108172D01*
X0183658Y0108184D01*
X0185067Y0109593D01*
X0185822Y0111416D01*
X0186577Y0109593D01*
X0187986Y0108184D01*
X0189826Y0107422D01*
X0191818Y0107422D01*
X0193658Y0108184D01*
X0195067Y0109593D01*
X0195829Y0111433D01*
X0195829Y0119425D01*
X0195067Y0121265D01*
X0193658Y0122674D01*
X0191818Y0123436D01*
X0189826Y0123436D01*
X0187986Y0122674D01*
X0186577Y0121265D01*
X0185822Y0119442D01*
X0185067Y0121265D01*
X0183658Y0122674D01*
X0181818Y0123436D01*
X0179826Y0123436D01*
X0177986Y0122674D01*
X0176577Y0121265D01*
X0175815Y0119425D01*
X0175815Y0111433D01*
X0176577Y0109593D01*
X0177986Y0108184D01*
X0178015Y0108172D01*
X0178015Y0100135D01*
X0170329Y0092449D01*
X0120736Y0092449D01*
X0119704Y0092021D01*
X0118915Y0091232D01*
X0113993Y0086311D01*
X0113566Y0085279D01*
X0113566Y0079929D01*
X0112436Y0078799D01*
X0111299Y0079936D01*
X0105699Y0079936D01*
X0104562Y0078799D01*
X0103432Y0079929D01*
X0103432Y0082573D01*
X0113599Y0092740D01*
X0148428Y0092740D01*
X0149459Y0093168D01*
X0157333Y0101042D01*
X0158123Y0101831D01*
X0158550Y0102863D01*
X0158550Y0108140D01*
X0158658Y0108184D01*
X0160067Y0109593D01*
X0160829Y0111433D01*
X0160829Y0119425D01*
X0160067Y0121265D01*
X0158658Y0122674D01*
X0156818Y0123436D01*
X0154826Y0123436D01*
X0152986Y0122674D01*
X0151577Y0121265D01*
X0150822Y0119442D01*
X0150067Y0121265D01*
X0148658Y0122674D01*
X0146818Y0123436D01*
X0144826Y0123436D01*
X0142986Y0122674D01*
X0141577Y0121265D01*
X0140815Y0119425D01*
X0140815Y0111433D01*
X0141577Y0109593D01*
X0142986Y0108184D01*
X0144826Y0107422D01*
X0146818Y0107422D01*
X0148658Y0108184D01*
X0150067Y0109593D01*
X0150822Y0111416D01*
X0151577Y0109593D01*
X0152936Y0108234D01*
X0152936Y0104584D01*
X0146707Y0098354D01*
X0111878Y0098354D01*
X0110846Y0097927D01*
X0110056Y0097137D01*
X0099495Y0086576D01*
X0099495Y0094384D01*
X0103756Y0098646D01*
X0111026Y0098646D01*
X0112058Y0099073D01*
X0112847Y0099863D01*
X0118202Y0105217D01*
X0118629Y0106249D01*
X0118629Y0108172D01*
X0118658Y0108184D01*
X0120067Y0109593D01*
X0120829Y0111433D01*
X0120829Y0119425D01*
X0120067Y0121265D01*
X0118658Y0122674D01*
X0116818Y0123436D01*
X0114826Y0123436D01*
X0112986Y0122674D01*
X0111577Y0121265D01*
X0110822Y0119442D01*
X0110067Y0121265D01*
X0108658Y0122674D01*
X0106818Y0123436D01*
X0104826Y0123436D01*
X0102986Y0122674D01*
X0101577Y0121265D01*
X0100815Y0119425D01*
X0100815Y0111433D01*
X0101577Y0109593D01*
X0102986Y0108184D01*
X0104826Y0107422D01*
X0106818Y0107422D01*
X0108658Y0108184D01*
X0110067Y0109593D01*
X0110822Y0111416D01*
X0111577Y0109593D01*
X0112986Y0108184D01*
X0113015Y0108172D01*
X0113015Y0107970D01*
X0109305Y0104260D01*
X0102035Y0104260D01*
X0101004Y0103832D01*
X0094308Y0097137D01*
X0093881Y0096106D01*
X0093881Y0079917D01*
X0092751Y0079917D01*
X0090521Y0079917D01*
X0090016Y0079781D01*
X0089562Y0079519D01*
X0089192Y0079149D01*
X0088931Y0078696D01*
X0088853Y0078405D01*
X0088853Y0078760D01*
X0087684Y0079929D01*
X0087684Y0096106D01*
X0087257Y0097137D01*
X0086467Y0097927D01*
X0082530Y0101864D01*
X0081499Y0102291D01*
X0066355Y0102291D01*
X0063629Y0105017D01*
X0063629Y0108172D01*
X0063658Y0108184D01*
X0065067Y0109593D01*
X0065822Y0111416D01*
X0066577Y0109593D01*
X0067986Y0108184D01*
X0069826Y0107422D01*
X0071818Y0107422D01*
X0073658Y0108184D01*
X0075067Y0109593D01*
X0075829Y0111433D01*
X0075829Y0119425D01*
X0075067Y0121265D01*
X0073658Y0122674D01*
X0071818Y0123436D01*
X0069826Y0123436D01*
X0067986Y0122674D01*
X0066577Y0121265D01*
X0065822Y0119442D01*
X0065067Y0121265D01*
X0063658Y0122674D01*
X0061818Y0123436D01*
X0059826Y0123436D01*
X0057986Y0122674D01*
X0056577Y0121265D01*
X0055815Y0119425D01*
X0055815Y0111433D01*
X0056577Y0109593D01*
X0057986Y0108184D01*
X0058015Y0108172D01*
X0058015Y0103296D01*
X0058442Y0102264D01*
X0059232Y0101475D01*
X0063602Y0097105D01*
X0064634Y0096677D01*
X0079777Y0096677D01*
X0082070Y0094384D01*
X0082070Y0079929D01*
X0080940Y0078799D01*
X0079803Y0079936D01*
X0074203Y0079936D01*
X0073028Y0078760D01*
X0073028Y0074732D01*
X0071388Y0074732D01*
X0071158Y0074962D01*
X0069842Y0075507D01*
X0068417Y0075507D01*
X0067100Y0074962D01*
X0066093Y0073954D01*
X0065547Y0072638D01*
X0065547Y0071213D01*
X0066093Y0069896D01*
X0067100Y0068889D01*
X0068417Y0068343D01*
X0069842Y0068343D01*
X0071158Y0068889D01*
X0071388Y0069118D01*
X0073028Y0069118D01*
X0073028Y0066271D01*
X0074203Y0065095D01*
X0076878Y0065095D01*
X0076787Y0064877D01*
X0076787Y0063225D01*
X0076878Y0063007D01*
X0074203Y0063007D01*
X0073028Y0061831D01*
X0073028Y0058984D01*
X0071388Y0058984D01*
X0071158Y0059214D01*
X0069842Y0059759D01*
X0068417Y0059759D01*
X0067100Y0059214D01*
X0066093Y0058206D01*
X0065547Y0056890D01*
X0065547Y0055465D01*
X0066093Y0054148D01*
X0067100Y0053141D01*
X0068417Y0052595D01*
X0069842Y0052595D01*
X0071158Y0053141D01*
X0071388Y0053370D01*
X0073028Y0053370D01*
X0073028Y0049342D01*
X0074203Y0048166D01*
X0079803Y0048166D01*
X0080940Y0049303D01*
X0082077Y0048166D01*
X0087677Y0048166D01*
X0088853Y0049342D01*
X0088853Y0049697D01*
X0088931Y0049406D01*
X0089192Y0048953D01*
X0089562Y0048583D01*
X0090016Y0048321D01*
X0090521Y0048186D01*
X0092751Y0048186D01*
X0092751Y0055586D01*
X0092751Y0055586D01*
X0092751Y0048186D01*
X0094981Y0048186D01*
X0095487Y0048321D01*
X0095940Y0048583D01*
X0096310Y0048953D01*
X0096572Y0049406D01*
X0096650Y0049697D01*
X0096650Y0049342D01*
X0097825Y0048166D01*
X0103425Y0048166D01*
X0104562Y0049303D01*
X0105699Y0048166D01*
X0111299Y0048166D01*
X0112436Y0049303D01*
X0113573Y0048166D01*
X0119173Y0048166D01*
X0120310Y0049303D01*
X0121447Y0048166D01*
X0127047Y0048166D01*
X0128184Y0049303D01*
X0129321Y0048166D01*
X0134921Y0048166D01*
X0136058Y0049303D01*
X0137195Y0048166D01*
X0142795Y0048166D01*
X0143932Y0049303D01*
X0145069Y0048166D01*
X0150669Y0048166D01*
X0151806Y0049303D01*
X0152943Y0048166D01*
X0158543Y0048166D01*
X0159680Y0049303D01*
X0160600Y0048383D01*
X0160581Y0048364D01*
X0160035Y0047047D01*
X0160035Y0045622D01*
X0160581Y0044306D01*
X0161588Y0043298D01*
X0162905Y0042753D01*
X0164330Y0042753D01*
X0165646Y0043298D01*
X0166654Y0044306D01*
X0167199Y0045622D01*
X0167199Y0047047D01*
X0166654Y0048364D01*
X0166634Y0048383D01*
X0167554Y0049303D01*
X0168691Y0048166D01*
X0174291Y0048166D01*
X0175467Y0049342D01*
X0175467Y0061831D01*
X0174298Y0063000D01*
X0174298Y0065102D01*
X0175467Y0066271D01*
X0175467Y0078760D01*
X0174291Y0079936D01*
X0168691Y0079936D01*
X0167554Y0078799D01*
X0166424Y0079929D01*
X0166424Y0080493D01*
X0166654Y0080723D01*
X0167199Y0082039D01*
X0167199Y0083464D01*
X0166654Y0084781D01*
X0165646Y0085789D01*
X0164330Y0086334D01*
X0162905Y0086334D01*
X0161588Y0085789D01*
X0160581Y0084781D01*
X0160035Y0083464D01*
X0160035Y0082039D01*
X0160581Y0080723D01*
X0160810Y0080493D01*
X0160810Y0079929D01*
X0159680Y0078799D01*
X0158543Y0079936D01*
X0152943Y0079936D01*
X0151806Y0078799D01*
X0150669Y0079936D01*
X0145069Y0079936D01*
X0143932Y0078799D01*
X0142795Y0079936D01*
X0137195Y0079936D01*
X0136058Y0078799D01*
X0134921Y0079936D01*
X0129321Y0079936D01*
X0128184Y0078799D01*
X0127047Y0079936D01*
X0121447Y0079936D01*
X0120310Y0078799D01*
X0119180Y0079929D01*
X0119180Y0083558D01*
X0122457Y0086835D01*
X0119225Y0083602D02*
X0160093Y0083602D01*
X0160382Y0081204D02*
X0119180Y0081204D01*
X0120304Y0078805D02*
X0120316Y0078805D01*
X0113566Y0081204D02*
X0103432Y0081204D01*
X0104461Y0083602D02*
X0113566Y0083602D01*
X0113865Y0086001D02*
X0106860Y0086001D01*
X0109258Y0088399D02*
X0116082Y0088399D01*
X0118481Y0090798D02*
X0111657Y0090798D01*
X0108514Y0095595D02*
X0100706Y0095595D01*
X0099495Y0093196D02*
X0106116Y0093196D01*
X0103717Y0090798D02*
X0099495Y0090798D01*
X0099495Y0088399D02*
X0101319Y0088399D01*
X0093881Y0088399D02*
X0087684Y0088399D01*
X0087684Y0086001D02*
X0093881Y0086001D01*
X0093881Y0083602D02*
X0087684Y0083602D01*
X0087684Y0081204D02*
X0093881Y0081204D01*
X0092751Y0079917D02*
X0092751Y0072516D01*
X0092751Y0079917D01*
X0092751Y0078805D02*
X0092751Y0078805D01*
X0092751Y0076407D02*
X0092751Y0076407D01*
X0092751Y0074008D02*
X0092751Y0074008D01*
X0092751Y0072516D02*
X0092751Y0072516D01*
X0092751Y0072516D01*
X0092751Y0065115D01*
X0090521Y0065115D01*
X0090016Y0065250D01*
X0089562Y0065512D01*
X0089192Y0065882D01*
X0088931Y0066335D01*
X0088853Y0066626D01*
X0088853Y0066271D01*
X0087677Y0065095D01*
X0085003Y0065095D01*
X0085093Y0064877D01*
X0085093Y0063225D01*
X0085003Y0063007D01*
X0087677Y0063007D01*
X0088853Y0061831D01*
X0088853Y0061476D01*
X0088931Y0061767D01*
X0089192Y0062220D01*
X0089562Y0062590D01*
X0090016Y0062852D01*
X0090521Y0062987D01*
X0092751Y0062987D01*
X0092751Y0055587D01*
X0092751Y0055587D01*
X0092751Y0062987D01*
X0094090Y0062987D01*
X0093881Y0063493D01*
X0093881Y0065115D01*
X0092751Y0065115D01*
X0092751Y0072516D01*
X0092751Y0071610D02*
X0092751Y0071610D01*
X0092751Y0069211D02*
X0092751Y0069211D01*
X0092751Y0066813D02*
X0092751Y0066813D01*
X0093881Y0064414D02*
X0085093Y0064414D01*
X0088668Y0062016D02*
X0089074Y0062016D01*
X0092751Y0062016D02*
X0092751Y0062016D01*
X0092751Y0059617D02*
X0092751Y0059617D01*
X0092751Y0057219D02*
X0092751Y0057219D01*
X0092751Y0054820D02*
X0092751Y0054820D01*
X0092751Y0052422D02*
X0092751Y0052422D01*
X0092751Y0050023D02*
X0092751Y0050023D01*
X0073028Y0050023D02*
X0041018Y0050023D01*
X0041003Y0049988D02*
X0041609Y0051449D01*
X0041609Y0053031D01*
X0041003Y0054492D01*
X0039885Y0055610D01*
X0038424Y0056216D01*
X0036842Y0056216D01*
X0035381Y0055610D01*
X0034263Y0054492D01*
X0033657Y0053031D01*
X0033657Y0051449D01*
X0034263Y0049988D01*
X0035381Y0048870D01*
X0036842Y0048265D01*
X0038424Y0048265D01*
X0039885Y0048870D01*
X0041003Y0049988D01*
X0041609Y0052422D02*
X0073028Y0052422D01*
X0073028Y0059617D02*
X0070184Y0059617D01*
X0068074Y0059617D02*
X0028034Y0059617D01*
X0028006Y0060114D02*
X0028006Y0080121D01*
X0028544Y0079189D01*
X0031117Y0076616D01*
X0034268Y0074797D01*
X0037782Y0073855D01*
X0041421Y0073855D01*
X0044935Y0074797D01*
X0048086Y0076616D01*
X0050659Y0079189D01*
X0052478Y0082340D01*
X0053420Y0085854D01*
X0053420Y0089492D01*
X0052478Y0093007D01*
X0050659Y0096158D01*
X0048086Y0098730D01*
X0044935Y0100550D01*
X0041421Y0101491D01*
X0037782Y0101491D01*
X0034268Y0100550D01*
X0031117Y0098730D01*
X0028544Y0096158D01*
X0028006Y0095226D01*
X0028006Y0115232D01*
X0028116Y0117192D01*
X0028988Y0121012D01*
X0030689Y0124543D01*
X0033132Y0127607D01*
X0036196Y0130051D01*
X0039727Y0131751D01*
X0043548Y0132623D01*
X0045507Y0132733D01*
X0202987Y0132733D01*
X0204947Y0132623D01*
X0208768Y0131751D01*
X0212298Y0130051D01*
X0215362Y0127607D01*
X0217806Y0124543D01*
X0219506Y0121012D01*
X0220378Y0117192D01*
X0220488Y0115232D01*
X0220488Y0095226D01*
X0219950Y0096158D01*
X0217377Y0098730D01*
X0214227Y0100550D01*
X0210712Y0101491D01*
X0207074Y0101491D01*
X0203559Y0100550D01*
X0200408Y0098730D01*
X0197836Y0096158D01*
X0196016Y0093007D01*
X0195075Y0089492D01*
X0195075Y0085854D01*
X0196016Y0082340D01*
X0197836Y0079189D01*
X0200408Y0076616D01*
X0203559Y0074797D01*
X0207074Y0073855D01*
X0210712Y0073855D01*
X0214227Y0074797D01*
X0217377Y0076616D01*
X0219950Y0079189D01*
X0220488Y0080121D01*
X0220488Y0060114D01*
X0220378Y0058155D01*
X0219506Y0054334D01*
X0217806Y0050803D01*
X0215362Y0047739D01*
X0212298Y0045296D01*
X0208768Y0043595D01*
X0204947Y0042723D01*
X0202987Y0042613D01*
X0045507Y0042613D01*
X0043548Y0042723D01*
X0039727Y0043595D01*
X0036196Y0045296D01*
X0033132Y0047739D01*
X0030689Y0050803D01*
X0030689Y0050803D01*
X0028988Y0054334D01*
X0028116Y0058155D01*
X0028006Y0060114D01*
X0028006Y0062016D02*
X0073212Y0062016D01*
X0076787Y0064414D02*
X0028006Y0064414D01*
X0028006Y0066813D02*
X0073028Y0066813D01*
X0066777Y0069211D02*
X0028006Y0069211D01*
X0028006Y0071610D02*
X0065547Y0071610D01*
X0066147Y0074008D02*
X0041992Y0074008D01*
X0037211Y0074008D02*
X0028006Y0074008D01*
X0028006Y0076407D02*
X0031479Y0076407D01*
X0028928Y0078805D02*
X0028006Y0078805D01*
X0047724Y0076407D02*
X0073028Y0076407D01*
X0073072Y0078805D02*
X0050275Y0078805D01*
X0051822Y0081204D02*
X0082070Y0081204D01*
X0082070Y0083602D02*
X0052816Y0083602D01*
X0053420Y0086001D02*
X0082070Y0086001D01*
X0082070Y0088399D02*
X0053420Y0088399D01*
X0053070Y0090798D02*
X0082070Y0090798D01*
X0082070Y0093196D02*
X0052369Y0093196D01*
X0050984Y0095595D02*
X0080860Y0095595D01*
X0084002Y0100392D02*
X0097563Y0100392D01*
X0099962Y0102790D02*
X0065856Y0102790D01*
X0063629Y0105189D02*
X0110234Y0105189D01*
X0112633Y0107587D02*
X0107217Y0107587D01*
X0104427Y0107587D02*
X0097060Y0107587D01*
X0096990Y0107565D02*
X0097737Y0107807D01*
X0098436Y0108164D01*
X0099071Y0108625D01*
X0099626Y0109180D01*
X0100088Y0109815D01*
X0100444Y0110515D01*
X0100687Y0111261D01*
X0100809Y0112037D01*
X0100809Y0115429D01*
X0095822Y0115429D01*
X0095822Y0115429D01*
X0095822Y0107442D01*
X0095430Y0107442D01*
X0094654Y0107565D01*
X0093908Y0107807D01*
X0093208Y0108164D01*
X0092573Y0108625D01*
X0092018Y0109180D01*
X0091556Y0109815D01*
X0091200Y0110515D01*
X0090957Y0111261D01*
X0090835Y0112037D01*
X0090835Y0115429D01*
X0095822Y0115429D01*
X0095822Y0115429D01*
X0095822Y0107442D01*
X0096215Y0107442D01*
X0096990Y0107565D01*
X0095822Y0107587D02*
X0095822Y0107587D01*
X0094584Y0107587D02*
X0072217Y0107587D01*
X0069427Y0107587D02*
X0063629Y0107587D01*
X0065230Y0109986D02*
X0066414Y0109986D01*
X0058015Y0107587D02*
X0028006Y0107587D01*
X0028006Y0105189D02*
X0058015Y0105189D01*
X0058224Y0102790D02*
X0028006Y0102790D01*
X0028006Y0100392D02*
X0033995Y0100392D01*
X0030380Y0097993D02*
X0028006Y0097993D01*
X0028006Y0095595D02*
X0028219Y0095595D01*
X0045208Y0100392D02*
X0060315Y0100392D01*
X0062713Y0097993D02*
X0048823Y0097993D01*
X0056414Y0109986D02*
X0028006Y0109986D01*
X0028006Y0112384D02*
X0055815Y0112384D01*
X0055815Y0114783D02*
X0028006Y0114783D01*
X0028116Y0117181D02*
X0034153Y0117181D01*
X0034263Y0116917D02*
X0035381Y0115799D01*
X0036842Y0115194D01*
X0038424Y0115194D01*
X0039885Y0115799D01*
X0041003Y0116917D01*
X0041609Y0118378D01*
X0041609Y0119960D01*
X0041003Y0121421D01*
X0039885Y0122540D01*
X0038424Y0123145D01*
X0036842Y0123145D01*
X0035381Y0122540D01*
X0034263Y0121421D01*
X0033657Y0119960D01*
X0033657Y0118378D01*
X0034263Y0116917D01*
X0033657Y0119580D02*
X0028661Y0119580D01*
X0029454Y0121979D02*
X0034820Y0121979D01*
X0030609Y0124377D02*
X0207085Y0124377D01*
X0206886Y0123897D02*
X0206886Y0122315D01*
X0207491Y0120854D01*
X0208609Y0119736D01*
X0210071Y0119131D01*
X0211652Y0119131D01*
X0213113Y0119736D01*
X0214232Y0120854D01*
X0214837Y0122315D01*
X0214837Y0123897D01*
X0214232Y0125358D01*
X0213113Y0126477D01*
X0211652Y0127082D01*
X0210071Y0127082D01*
X0208609Y0126477D01*
X0207491Y0125358D01*
X0206886Y0123897D01*
X0207025Y0121979D02*
X0194354Y0121979D01*
X0195765Y0119580D02*
X0208986Y0119580D01*
X0212737Y0119580D02*
X0219833Y0119580D01*
X0220379Y0117181D02*
X0195829Y0117181D01*
X0195829Y0114783D02*
X0220488Y0114783D01*
X0220488Y0112384D02*
X0195829Y0112384D01*
X0195230Y0109986D02*
X0220488Y0109986D01*
X0220488Y0107587D02*
X0192217Y0107587D01*
X0189427Y0107587D02*
X0183629Y0107587D01*
X0183629Y0105189D02*
X0220488Y0105189D01*
X0220488Y0102790D02*
X0183629Y0102790D01*
X0183629Y0100392D02*
X0203286Y0100392D01*
X0199671Y0097993D02*
X0183455Y0097993D01*
X0181414Y0095595D02*
X0197511Y0095595D01*
X0196126Y0093196D02*
X0179016Y0093196D01*
X0176617Y0090798D02*
X0195425Y0090798D01*
X0195075Y0088399D02*
X0174219Y0088399D01*
X0171076Y0093196D02*
X0149488Y0093196D01*
X0151887Y0095595D02*
X0173475Y0095595D01*
X0175873Y0097993D02*
X0154285Y0097993D01*
X0156684Y0100392D02*
X0178015Y0100392D01*
X0178015Y0102790D02*
X0158520Y0102790D01*
X0158550Y0105189D02*
X0178015Y0105189D01*
X0178015Y0107587D02*
X0158550Y0107587D01*
X0160230Y0109986D02*
X0176414Y0109986D01*
X0175815Y0112384D02*
X0160829Y0112384D01*
X0160829Y0114783D02*
X0175815Y0114783D01*
X0175815Y0117181D02*
X0160829Y0117181D01*
X0160765Y0119580D02*
X0175879Y0119580D01*
X0177290Y0121979D02*
X0159354Y0121979D01*
X0152290Y0121979D02*
X0149354Y0121979D01*
X0150765Y0119580D02*
X0150879Y0119580D01*
X0142290Y0121979D02*
X0139326Y0121979D01*
X0139071Y0122233D02*
X0138436Y0122695D01*
X0137737Y0123051D01*
X0136990Y0123294D01*
X0136215Y0123417D01*
X0135822Y0123417D01*
X0135430Y0123417D01*
X0134654Y0123294D01*
X0133908Y0123051D01*
X0133208Y0122695D01*
X0132573Y0122233D01*
X0132018Y0121678D01*
X0131556Y0121043D01*
X0131200Y0120344D01*
X0130957Y0119597D01*
X0130835Y0118822D01*
X0130835Y0115429D01*
X0130835Y0112037D01*
X0130957Y0111261D01*
X0131200Y0110515D01*
X0131556Y0109815D01*
X0132018Y0109180D01*
X0132573Y0108625D01*
X0133208Y0108164D01*
X0133908Y0107807D01*
X0134654Y0107565D01*
X0135430Y0107442D01*
X0135822Y0107442D01*
X0135822Y0115429D01*
X0135822Y0115429D01*
X0130835Y0115429D01*
X0135822Y0115429D01*
X0135822Y0115429D01*
X0135822Y0107442D01*
X0136215Y0107442D01*
X0136990Y0107565D01*
X0137737Y0107807D01*
X0138436Y0108164D01*
X0139071Y0108625D01*
X0139626Y0109180D01*
X0140088Y0109815D01*
X0140444Y0110515D01*
X0140687Y0111261D01*
X0140809Y0112037D01*
X0140809Y0115429D01*
X0135822Y0115429D01*
X0135822Y0115429D01*
X0140809Y0115429D01*
X0140809Y0118822D01*
X0140687Y0119597D01*
X0140444Y0120344D01*
X0140088Y0121043D01*
X0139626Y0121678D01*
X0139071Y0122233D01*
X0140689Y0119580D02*
X0140879Y0119580D01*
X0140815Y0117181D02*
X0140809Y0117181D01*
X0140809Y0114783D02*
X0140815Y0114783D01*
X0140809Y0112384D02*
X0140815Y0112384D01*
X0141414Y0109986D02*
X0140175Y0109986D01*
X0137060Y0107587D02*
X0144427Y0107587D01*
X0147217Y0107587D02*
X0152936Y0107587D01*
X0152936Y0105189D02*
X0118174Y0105189D01*
X0118629Y0107587D02*
X0134584Y0107587D01*
X0135822Y0107587D02*
X0135822Y0107587D01*
X0135822Y0109986D02*
X0135822Y0109986D01*
X0135822Y0112384D02*
X0135822Y0112384D01*
X0135822Y0114783D02*
X0135822Y0114783D01*
X0135822Y0115429D02*
X0135822Y0123417D01*
X0135822Y0115429D01*
X0135822Y0115429D01*
X0135822Y0117181D02*
X0135822Y0117181D01*
X0135822Y0119580D02*
X0135822Y0119580D01*
X0135822Y0121979D02*
X0135822Y0121979D01*
X0132318Y0121979D02*
X0119354Y0121979D01*
X0120765Y0119580D02*
X0130955Y0119580D01*
X0130835Y0117181D02*
X0120829Y0117181D01*
X0120829Y0114783D02*
X0130835Y0114783D01*
X0130835Y0112384D02*
X0120829Y0112384D01*
X0120230Y0109986D02*
X0131469Y0109986D01*
X0115775Y0102790D02*
X0151143Y0102790D01*
X0148744Y0100392D02*
X0113377Y0100392D01*
X0111007Y0097993D02*
X0103104Y0097993D01*
X0095165Y0097993D02*
X0086401Y0097993D01*
X0087684Y0095595D02*
X0093881Y0095595D01*
X0093881Y0093196D02*
X0087684Y0093196D01*
X0087684Y0090798D02*
X0093881Y0090798D01*
X0088994Y0078805D02*
X0088808Y0078805D01*
X0080946Y0078805D02*
X0080934Y0078805D01*
X0104556Y0078805D02*
X0104568Y0078805D01*
X0112430Y0078805D02*
X0112442Y0078805D01*
X0128178Y0078805D02*
X0128191Y0078805D01*
X0136052Y0078805D02*
X0136065Y0078805D01*
X0143926Y0078805D02*
X0143939Y0078805D01*
X0151800Y0078805D02*
X0151813Y0078805D01*
X0159674Y0078805D02*
X0159687Y0078805D01*
X0166853Y0081204D02*
X0196672Y0081204D01*
X0195678Y0083602D02*
X0167142Y0083602D01*
X0165134Y0086001D02*
X0195075Y0086001D01*
X0198219Y0078805D02*
X0175422Y0078805D01*
X0175467Y0076407D02*
X0200771Y0076407D01*
X0206502Y0074008D02*
X0175467Y0074008D01*
X0175467Y0071610D02*
X0220488Y0071610D01*
X0220488Y0074008D02*
X0211284Y0074008D01*
X0217015Y0076407D02*
X0220488Y0076407D01*
X0220488Y0078805D02*
X0219567Y0078805D01*
X0220488Y0069211D02*
X0175467Y0069211D01*
X0175467Y0066813D02*
X0220488Y0066813D01*
X0220488Y0064414D02*
X0174298Y0064414D01*
X0175283Y0062016D02*
X0220488Y0062016D01*
X0220460Y0059617D02*
X0175467Y0059617D01*
X0175467Y0057219D02*
X0220165Y0057219D01*
X0219617Y0054820D02*
X0213904Y0054820D01*
X0214232Y0054492D02*
X0213113Y0055610D01*
X0211652Y0056216D01*
X0210071Y0056216D01*
X0208609Y0055610D01*
X0207491Y0054492D01*
X0206886Y0053031D01*
X0206886Y0051449D01*
X0207491Y0049988D01*
X0208609Y0048870D01*
X0210071Y0048265D01*
X0211652Y0048265D01*
X0213113Y0048870D01*
X0214232Y0049988D01*
X0214837Y0051449D01*
X0214837Y0053031D01*
X0214232Y0054492D01*
X0214837Y0052422D02*
X0218585Y0052422D01*
X0217184Y0050023D02*
X0214246Y0050023D01*
X0215219Y0047625D02*
X0166960Y0047625D01*
X0167035Y0045226D02*
X0212154Y0045226D01*
X0207477Y0050023D02*
X0175467Y0050023D01*
X0175467Y0052422D02*
X0206886Y0052422D01*
X0207819Y0054820D02*
X0175467Y0054820D01*
X0164511Y0042828D02*
X0205404Y0042828D01*
X0162724Y0042828D02*
X0043091Y0042828D01*
X0036341Y0045226D02*
X0160199Y0045226D01*
X0160275Y0047625D02*
X0033276Y0047625D01*
X0034248Y0050023D02*
X0031311Y0050023D01*
X0029909Y0052422D02*
X0033657Y0052422D01*
X0034591Y0054820D02*
X0028877Y0054820D01*
X0028330Y0057219D02*
X0065684Y0057219D01*
X0065814Y0054820D02*
X0040675Y0054820D01*
X0075230Y0109986D02*
X0091469Y0109986D01*
X0090835Y0112384D02*
X0075829Y0112384D01*
X0075829Y0114783D02*
X0090835Y0114783D01*
X0090835Y0115429D02*
X0095822Y0115429D01*
X0095822Y0115429D01*
X0100809Y0115429D01*
X0100809Y0118822D01*
X0100687Y0119597D01*
X0100444Y0120344D01*
X0100088Y0121043D01*
X0099626Y0121678D01*
X0099071Y0122233D01*
X0098436Y0122695D01*
X0097737Y0123051D01*
X0096990Y0123294D01*
X0096215Y0123417D01*
X0095822Y0123417D01*
X0095430Y0123417D01*
X0094654Y0123294D01*
X0093908Y0123051D01*
X0093208Y0122695D01*
X0092573Y0122233D01*
X0092018Y0121678D01*
X0091556Y0121043D01*
X0091200Y0120344D01*
X0090957Y0119597D01*
X0090835Y0118822D01*
X0090835Y0115429D01*
X0090835Y0117181D02*
X0075829Y0117181D01*
X0075765Y0119580D02*
X0090955Y0119580D01*
X0092318Y0121979D02*
X0074354Y0121979D01*
X0067290Y0121979D02*
X0064354Y0121979D01*
X0065765Y0119580D02*
X0065879Y0119580D01*
X0057290Y0121979D02*
X0040446Y0121979D01*
X0041609Y0119580D02*
X0055879Y0119580D01*
X0055815Y0117181D02*
X0041113Y0117181D01*
X0032469Y0126776D02*
X0209331Y0126776D01*
X0212392Y0126776D02*
X0216026Y0126776D01*
X0214638Y0124377D02*
X0217886Y0124377D01*
X0219041Y0121979D02*
X0214697Y0121979D01*
X0213398Y0129174D02*
X0035097Y0129174D01*
X0039356Y0131573D02*
X0209138Y0131573D01*
X0187290Y0121979D02*
X0184354Y0121979D01*
X0185765Y0119580D02*
X0185879Y0119580D01*
X0186414Y0109986D02*
X0185230Y0109986D01*
X0214500Y0100392D02*
X0220488Y0100392D01*
X0220488Y0097993D02*
X0218114Y0097993D01*
X0220275Y0095595D02*
X0220488Y0095595D01*
X0167561Y0078805D02*
X0167548Y0078805D01*
X0151414Y0109986D02*
X0150230Y0109986D01*
X0111414Y0109986D02*
X0110230Y0109986D01*
X0101414Y0109986D02*
X0100175Y0109986D01*
X0100809Y0112384D02*
X0100815Y0112384D01*
X0100809Y0114783D02*
X0100815Y0114783D01*
X0100809Y0117181D02*
X0100815Y0117181D01*
X0100879Y0119580D02*
X0100689Y0119580D01*
X0099326Y0121979D02*
X0102290Y0121979D01*
X0095822Y0121979D02*
X0095822Y0121979D01*
X0095822Y0123417D02*
X0095822Y0115429D01*
X0095822Y0115429D01*
X0095822Y0123417D01*
X0095822Y0119580D02*
X0095822Y0119580D01*
X0095822Y0117181D02*
X0095822Y0117181D01*
X0095822Y0114783D02*
X0095822Y0114783D01*
X0095822Y0112384D02*
X0095822Y0112384D01*
X0095822Y0109986D02*
X0095822Y0109986D01*
X0110765Y0119580D02*
X0110879Y0119580D01*
X0112290Y0121979D02*
X0109354Y0121979D01*
M02*
