G75*
%MOIN*%
%OFA0B0*%
%FSLAX25Y25*%
%IPPOS*%
%LPD*%
%AMOC8*
5,1,8,0,0,1.08239X$1,22.5*
%
%ADD10C,0.00000*%
%ADD11C,0.00500*%
%ADD12C,0.06000*%
%ADD13C,0.09449*%
%ADD14C,0.07087*%
%ADD15C,0.03200*%
D10*
X0039646Y0035315D02*
X0350669Y0035315D01*
X0351145Y0035321D01*
X0351620Y0035338D01*
X0352095Y0035367D01*
X0352569Y0035407D01*
X0353042Y0035459D01*
X0353513Y0035522D01*
X0353983Y0035596D01*
X0354451Y0035682D01*
X0354917Y0035779D01*
X0355380Y0035887D01*
X0355840Y0036006D01*
X0356298Y0036137D01*
X0356752Y0036278D01*
X0357203Y0036431D01*
X0357649Y0036594D01*
X0358092Y0036768D01*
X0358530Y0036953D01*
X0358964Y0037148D01*
X0359393Y0037354D01*
X0359817Y0037570D01*
X0360236Y0037796D01*
X0360649Y0038032D01*
X0361056Y0038278D01*
X0361457Y0038534D01*
X0361851Y0038800D01*
X0362240Y0039075D01*
X0362621Y0039359D01*
X0362995Y0039652D01*
X0363363Y0039954D01*
X0363723Y0040266D01*
X0364075Y0040585D01*
X0364419Y0040913D01*
X0364756Y0041250D01*
X0365084Y0041594D01*
X0365403Y0041946D01*
X0365715Y0042306D01*
X0366017Y0042674D01*
X0366310Y0043048D01*
X0366594Y0043429D01*
X0366869Y0043818D01*
X0367135Y0044212D01*
X0367391Y0044613D01*
X0367637Y0045020D01*
X0367873Y0045433D01*
X0368099Y0045852D01*
X0368315Y0046276D01*
X0368521Y0046705D01*
X0368716Y0047139D01*
X0368901Y0047577D01*
X0369075Y0048020D01*
X0369238Y0048466D01*
X0369391Y0048917D01*
X0369532Y0049371D01*
X0369663Y0049829D01*
X0369782Y0050289D01*
X0369890Y0050752D01*
X0369987Y0051218D01*
X0370073Y0051686D01*
X0370147Y0052156D01*
X0370210Y0052627D01*
X0370262Y0053100D01*
X0370302Y0053574D01*
X0370331Y0054049D01*
X0370348Y0054524D01*
X0370354Y0055000D01*
X0370354Y0094370D01*
X0370348Y0094846D01*
X0370331Y0095321D01*
X0370302Y0095796D01*
X0370262Y0096270D01*
X0370210Y0096743D01*
X0370147Y0097214D01*
X0370073Y0097684D01*
X0369987Y0098152D01*
X0369890Y0098618D01*
X0369782Y0099081D01*
X0369663Y0099541D01*
X0369532Y0099999D01*
X0369391Y0100453D01*
X0369238Y0100904D01*
X0369075Y0101350D01*
X0368901Y0101793D01*
X0368716Y0102231D01*
X0368521Y0102665D01*
X0368315Y0103094D01*
X0368099Y0103518D01*
X0367873Y0103937D01*
X0367637Y0104350D01*
X0367391Y0104757D01*
X0367135Y0105158D01*
X0366869Y0105552D01*
X0366594Y0105941D01*
X0366310Y0106322D01*
X0366017Y0106696D01*
X0365715Y0107064D01*
X0365403Y0107424D01*
X0365084Y0107776D01*
X0364756Y0108120D01*
X0364419Y0108457D01*
X0364075Y0108785D01*
X0363723Y0109104D01*
X0363363Y0109416D01*
X0362995Y0109718D01*
X0362621Y0110011D01*
X0362240Y0110295D01*
X0361851Y0110570D01*
X0361457Y0110836D01*
X0361056Y0111092D01*
X0360649Y0111338D01*
X0360236Y0111574D01*
X0359817Y0111800D01*
X0359393Y0112016D01*
X0358964Y0112222D01*
X0358530Y0112417D01*
X0358092Y0112602D01*
X0357649Y0112776D01*
X0357203Y0112939D01*
X0356752Y0113092D01*
X0356298Y0113233D01*
X0355840Y0113364D01*
X0355380Y0113483D01*
X0354917Y0113591D01*
X0354451Y0113688D01*
X0353983Y0113774D01*
X0353513Y0113848D01*
X0353042Y0113911D01*
X0352569Y0113963D01*
X0352095Y0114003D01*
X0351620Y0114032D01*
X0351145Y0114049D01*
X0350669Y0114055D01*
X0039646Y0114055D01*
X0039170Y0114049D01*
X0038695Y0114032D01*
X0038220Y0114003D01*
X0037746Y0113963D01*
X0037273Y0113911D01*
X0036802Y0113848D01*
X0036332Y0113774D01*
X0035864Y0113688D01*
X0035398Y0113591D01*
X0034935Y0113483D01*
X0034475Y0113364D01*
X0034017Y0113233D01*
X0033563Y0113092D01*
X0033112Y0112939D01*
X0032666Y0112776D01*
X0032223Y0112602D01*
X0031785Y0112417D01*
X0031351Y0112222D01*
X0030922Y0112016D01*
X0030498Y0111800D01*
X0030079Y0111574D01*
X0029666Y0111338D01*
X0029259Y0111092D01*
X0028858Y0110836D01*
X0028464Y0110570D01*
X0028075Y0110295D01*
X0027694Y0110011D01*
X0027320Y0109718D01*
X0026952Y0109416D01*
X0026592Y0109104D01*
X0026240Y0108785D01*
X0025896Y0108457D01*
X0025559Y0108120D01*
X0025231Y0107776D01*
X0024912Y0107424D01*
X0024600Y0107064D01*
X0024298Y0106696D01*
X0024005Y0106322D01*
X0023721Y0105941D01*
X0023446Y0105552D01*
X0023180Y0105158D01*
X0022924Y0104757D01*
X0022678Y0104350D01*
X0022442Y0103937D01*
X0022216Y0103518D01*
X0022000Y0103094D01*
X0021794Y0102665D01*
X0021599Y0102231D01*
X0021414Y0101793D01*
X0021240Y0101350D01*
X0021077Y0100904D01*
X0020924Y0100453D01*
X0020783Y0099999D01*
X0020652Y0099541D01*
X0020533Y0099081D01*
X0020425Y0098618D01*
X0020328Y0098152D01*
X0020242Y0097684D01*
X0020168Y0097214D01*
X0020105Y0096743D01*
X0020053Y0096270D01*
X0020013Y0095796D01*
X0019984Y0095321D01*
X0019967Y0094846D01*
X0019961Y0094370D01*
X0019961Y0055000D01*
X0019967Y0054524D01*
X0019984Y0054049D01*
X0020013Y0053574D01*
X0020053Y0053100D01*
X0020105Y0052627D01*
X0020168Y0052156D01*
X0020242Y0051686D01*
X0020328Y0051218D01*
X0020425Y0050752D01*
X0020533Y0050289D01*
X0020652Y0049829D01*
X0020783Y0049371D01*
X0020924Y0048917D01*
X0021077Y0048466D01*
X0021240Y0048020D01*
X0021414Y0047577D01*
X0021599Y0047139D01*
X0021794Y0046705D01*
X0022000Y0046276D01*
X0022216Y0045852D01*
X0022442Y0045433D01*
X0022678Y0045020D01*
X0022924Y0044613D01*
X0023180Y0044212D01*
X0023446Y0043818D01*
X0023721Y0043429D01*
X0024005Y0043048D01*
X0024298Y0042674D01*
X0024600Y0042306D01*
X0024912Y0041946D01*
X0025231Y0041594D01*
X0025559Y0041250D01*
X0025896Y0040913D01*
X0026240Y0040585D01*
X0026592Y0040266D01*
X0026952Y0039954D01*
X0027320Y0039652D01*
X0027694Y0039359D01*
X0028075Y0039075D01*
X0028464Y0038800D01*
X0028858Y0038534D01*
X0029259Y0038278D01*
X0029666Y0038032D01*
X0030079Y0037796D01*
X0030498Y0037570D01*
X0030922Y0037354D01*
X0031351Y0037148D01*
X0031785Y0036953D01*
X0032223Y0036768D01*
X0032666Y0036594D01*
X0033112Y0036431D01*
X0033563Y0036278D01*
X0034017Y0036137D01*
X0034475Y0036006D01*
X0034935Y0035887D01*
X0035398Y0035779D01*
X0035864Y0035682D01*
X0036332Y0035596D01*
X0036802Y0035522D01*
X0037273Y0035459D01*
X0037746Y0035407D01*
X0038220Y0035367D01*
X0038695Y0035338D01*
X0039170Y0035321D01*
X0039646Y0035315D01*
D11*
X0038662Y0103931D02*
X0038662Y0108435D01*
X0040914Y0108435D01*
X0041665Y0107684D01*
X0041665Y0106183D01*
X0040914Y0105432D01*
X0038662Y0105432D01*
X0040164Y0105432D02*
X0041665Y0103931D01*
X0043266Y0104682D02*
X0044017Y0103931D01*
X0045518Y0103931D01*
X0046269Y0104682D01*
X0046269Y0107684D01*
X0045518Y0108435D01*
X0044017Y0108435D01*
X0043266Y0107684D01*
X0043266Y0104682D01*
X0047870Y0104682D02*
X0048621Y0103931D01*
X0050122Y0103931D01*
X0050873Y0104682D01*
X0050873Y0108435D01*
X0052474Y0107684D02*
X0053225Y0108435D01*
X0054726Y0108435D01*
X0055477Y0107684D01*
X0055477Y0106183D02*
X0053975Y0106183D01*
X0055477Y0106183D02*
X0055477Y0104682D01*
X0054726Y0103931D01*
X0053225Y0103931D01*
X0052474Y0104682D01*
X0052474Y0107684D01*
X0047870Y0108435D02*
X0047870Y0104682D01*
X0057078Y0103931D02*
X0057078Y0108435D01*
X0060081Y0108435D02*
X0060081Y0103931D01*
X0060081Y0106183D02*
X0057078Y0106183D01*
X0061682Y0106183D02*
X0064685Y0106183D01*
X0066286Y0103931D02*
X0067787Y0103931D01*
X0067037Y0103931D02*
X0067037Y0108435D01*
X0067787Y0108435D02*
X0066286Y0108435D01*
X0069355Y0108435D02*
X0072358Y0103931D01*
X0072358Y0108435D01*
X0069355Y0108435D02*
X0069355Y0103931D01*
X0037061Y0103931D02*
X0037061Y0108435D01*
X0034058Y0108435D02*
X0034058Y0103931D01*
X0034058Y0106183D02*
X0037061Y0106183D01*
X0032457Y0108435D02*
X0029454Y0108435D01*
X0030956Y0108435D02*
X0030956Y0103931D01*
X0160243Y0108435D02*
X0163246Y0108435D01*
X0161745Y0108435D02*
X0161745Y0103931D01*
X0164847Y0103931D02*
X0164847Y0108435D01*
X0167850Y0108435D02*
X0167850Y0103931D01*
X0169451Y0103931D02*
X0169451Y0108435D01*
X0171703Y0108435D01*
X0172454Y0107684D01*
X0172454Y0106183D01*
X0171703Y0105432D01*
X0169451Y0105432D01*
X0170953Y0105432D02*
X0172454Y0103931D01*
X0174055Y0104682D02*
X0174806Y0103931D01*
X0176307Y0103931D01*
X0177058Y0104682D01*
X0177058Y0107684D01*
X0176307Y0108435D01*
X0174806Y0108435D01*
X0174055Y0107684D01*
X0174055Y0104682D01*
X0178659Y0104682D02*
X0179410Y0103931D01*
X0180911Y0103931D01*
X0181662Y0104682D01*
X0181662Y0108435D01*
X0183263Y0107684D02*
X0183263Y0104682D01*
X0184014Y0103931D01*
X0185515Y0103931D01*
X0186266Y0104682D01*
X0186266Y0106183D01*
X0184764Y0106183D01*
X0183263Y0107684D02*
X0184014Y0108435D01*
X0185515Y0108435D01*
X0186266Y0107684D01*
X0187867Y0108435D02*
X0187867Y0103931D01*
X0187867Y0106183D02*
X0190870Y0106183D01*
X0192471Y0106183D02*
X0195473Y0106183D01*
X0197075Y0104682D02*
X0197825Y0103931D01*
X0199327Y0103931D01*
X0200077Y0104682D01*
X0200077Y0107684D01*
X0199327Y0108435D01*
X0197825Y0108435D01*
X0197075Y0107684D01*
X0197075Y0104682D01*
X0201679Y0104682D02*
X0202429Y0103931D01*
X0203931Y0103931D01*
X0204681Y0104682D01*
X0204681Y0108435D01*
X0206283Y0108435D02*
X0209285Y0108435D01*
X0207784Y0108435D02*
X0207784Y0103931D01*
X0201679Y0104682D02*
X0201679Y0108435D01*
X0190870Y0108435D02*
X0190870Y0103931D01*
X0178659Y0104682D02*
X0178659Y0108435D01*
X0167850Y0106183D02*
X0164847Y0106183D01*
X0332203Y0106183D02*
X0333704Y0106183D01*
X0332203Y0103931D02*
X0335205Y0103931D01*
X0336806Y0103931D02*
X0336806Y0108435D01*
X0339809Y0103931D01*
X0339809Y0108435D01*
X0341410Y0108435D02*
X0343662Y0108435D01*
X0344413Y0107684D01*
X0344413Y0104682D01*
X0343662Y0103931D01*
X0341410Y0103931D01*
X0341410Y0108435D01*
X0335205Y0108435D02*
X0332203Y0108435D01*
X0332203Y0103931D01*
D12*
X0277992Y0058000D02*
X0277992Y0052000D01*
X0267992Y0052000D02*
X0267992Y0058000D01*
X0257992Y0058000D02*
X0257992Y0052000D01*
X0125354Y0052000D02*
X0125354Y0058000D01*
X0115354Y0058000D02*
X0115354Y0052000D01*
D13*
X0051457Y0069528D03*
X0066457Y0084528D03*
X0036457Y0084528D03*
X0170315Y0084528D03*
X0200315Y0084528D03*
X0323858Y0084528D03*
X0353858Y0084528D03*
X0338858Y0069528D03*
D14*
X0338858Y0052028D03*
X0217795Y0044528D03*
X0185315Y0067008D03*
X0051457Y0052028D03*
D15*
X0057800Y0051308D02*
X0109554Y0051308D01*
X0109554Y0050846D02*
X0110437Y0048715D01*
X0112069Y0047083D01*
X0114201Y0046200D01*
X0116508Y0046200D01*
X0118640Y0047083D01*
X0120271Y0048715D01*
X0120590Y0049484D01*
X0120747Y0049176D01*
X0121245Y0048490D01*
X0121845Y0047891D01*
X0122531Y0047392D01*
X0123286Y0047007D01*
X0124093Y0046745D01*
X0124930Y0046613D01*
X0125354Y0046613D01*
X0125354Y0055000D01*
X0125355Y0055000D01*
X0130742Y0055000D01*
X0130742Y0058424D01*
X0130609Y0059262D01*
X0130347Y0060068D01*
X0129962Y0060824D01*
X0129464Y0061510D01*
X0128864Y0062109D01*
X0128178Y0062608D01*
X0127423Y0062993D01*
X0126616Y0063255D01*
X0125778Y0063387D01*
X0125355Y0063387D01*
X0125355Y0055000D01*
X0125355Y0055000D01*
X0130742Y0055000D01*
X0130742Y0051576D01*
X0130609Y0050738D01*
X0130347Y0049932D01*
X0129962Y0049176D01*
X0129464Y0048490D01*
X0128864Y0047891D01*
X0128178Y0047392D01*
X0127423Y0047007D01*
X0126616Y0046745D01*
X0125778Y0046613D01*
X0125355Y0046613D01*
X0125355Y0055000D01*
X0125354Y0055000D01*
X0125354Y0063387D01*
X0124930Y0063387D01*
X0124093Y0063255D01*
X0123286Y0062993D01*
X0122531Y0062608D01*
X0121845Y0062109D01*
X0121245Y0061510D01*
X0120747Y0060824D01*
X0120590Y0060516D01*
X0120271Y0061285D01*
X0118640Y0062917D01*
X0116508Y0063800D01*
X0114201Y0063800D01*
X0112069Y0062917D01*
X0110437Y0061285D01*
X0109554Y0059154D01*
X0109554Y0050846D01*
X0111043Y0048109D02*
X0056509Y0048109D01*
X0056834Y0048434D02*
X0057800Y0050766D01*
X0057800Y0053289D01*
X0056834Y0055621D01*
X0055050Y0057405D01*
X0052719Y0058371D01*
X0050195Y0058371D01*
X0047864Y0057405D01*
X0046079Y0055621D01*
X0045114Y0053289D01*
X0045114Y0050766D01*
X0046079Y0048434D01*
X0047864Y0046650D01*
X0050195Y0045684D01*
X0052719Y0045684D01*
X0055050Y0046650D01*
X0056834Y0048434D01*
X0046405Y0048109D02*
X0024341Y0048109D01*
X0023708Y0049423D02*
X0022867Y0053109D01*
X0022761Y0055000D01*
X0022761Y0094370D01*
X0022867Y0096261D01*
X0023708Y0099947D01*
X0025349Y0103353D01*
X0027511Y0106065D01*
X0027727Y0105849D01*
X0027906Y0105775D01*
X0027906Y0103324D01*
X0028370Y0102203D01*
X0029228Y0101345D01*
X0030349Y0100881D01*
X0031562Y0100881D01*
X0032507Y0101272D01*
X0033452Y0100881D01*
X0034665Y0100881D01*
X0035560Y0101252D01*
X0036454Y0100881D01*
X0037668Y0100881D01*
X0037862Y0100961D01*
X0038056Y0100881D01*
X0039269Y0100881D01*
X0040164Y0101252D01*
X0041058Y0100881D01*
X0042272Y0100881D01*
X0042841Y0101117D01*
X0043410Y0100881D01*
X0046125Y0100881D01*
X0047069Y0101272D01*
X0048014Y0100881D01*
X0050729Y0100881D01*
X0051673Y0101272D01*
X0052618Y0100881D01*
X0055333Y0100881D01*
X0055902Y0101117D01*
X0056471Y0100881D01*
X0057685Y0100881D01*
X0058579Y0101252D01*
X0059474Y0100881D01*
X0060687Y0100881D01*
X0061808Y0101345D01*
X0062666Y0102203D01*
X0063051Y0103133D01*
X0063315Y0103133D01*
X0063700Y0102203D01*
X0064558Y0101345D01*
X0065679Y0100881D01*
X0068394Y0100881D01*
X0068571Y0100955D01*
X0068748Y0100881D01*
X0069962Y0100881D01*
X0070856Y0101252D01*
X0070912Y0101229D01*
X0071165Y0101059D01*
X0071467Y0100999D01*
X0071751Y0100881D01*
X0072056Y0100881D01*
X0072354Y0100821D01*
X0072657Y0100881D01*
X0072964Y0100881D01*
X0073246Y0100998D01*
X0073545Y0101057D01*
X0073801Y0101228D01*
X0074085Y0101345D01*
X0074301Y0101561D01*
X0074554Y0101730D01*
X0074726Y0101986D01*
X0074943Y0102203D01*
X0075060Y0102485D01*
X0075229Y0102738D01*
X0075290Y0103040D01*
X0075408Y0103324D01*
X0075408Y0103629D01*
X0075467Y0103928D01*
X0075408Y0104230D01*
X0075408Y0109042D01*
X0074943Y0110163D01*
X0074085Y0111021D01*
X0073519Y0111255D01*
X0159082Y0111255D01*
X0158516Y0111021D01*
X0157658Y0110163D01*
X0157193Y0109042D01*
X0157193Y0107828D01*
X0157658Y0106707D01*
X0158516Y0105849D01*
X0158695Y0105775D01*
X0158695Y0103324D01*
X0159159Y0102203D01*
X0160017Y0101345D01*
X0161138Y0100881D01*
X0162351Y0100881D01*
X0163296Y0101272D01*
X0164241Y0100881D01*
X0165454Y0100881D01*
X0166349Y0101252D01*
X0167243Y0100881D01*
X0168457Y0100881D01*
X0168651Y0100961D01*
X0168845Y0100881D01*
X0170058Y0100881D01*
X0170953Y0101252D01*
X0171847Y0100881D01*
X0173061Y0100881D01*
X0173630Y0101117D01*
X0174199Y0100881D01*
X0176914Y0100881D01*
X0177858Y0101272D01*
X0178803Y0100881D01*
X0181518Y0100881D01*
X0182462Y0101272D01*
X0183407Y0100881D01*
X0186122Y0100881D01*
X0186691Y0101117D01*
X0187260Y0100881D01*
X0188474Y0100881D01*
X0189368Y0101252D01*
X0190263Y0100881D01*
X0191476Y0100881D01*
X0192597Y0101345D01*
X0193455Y0102203D01*
X0193840Y0103133D01*
X0194415Y0103133D01*
X0194489Y0102954D01*
X0195240Y0102203D01*
X0196098Y0101345D01*
X0197219Y0100881D01*
X0199933Y0100881D01*
X0200878Y0101272D01*
X0201823Y0100881D01*
X0204537Y0100881D01*
X0205658Y0101345D01*
X0205857Y0101544D01*
X0206056Y0101345D01*
X0207177Y0100881D01*
X0208391Y0100881D01*
X0209512Y0101345D01*
X0210370Y0102203D01*
X0210834Y0103324D01*
X0210834Y0105775D01*
X0211013Y0105849D01*
X0211871Y0106707D01*
X0212335Y0107828D01*
X0212335Y0109042D01*
X0211871Y0110163D01*
X0211013Y0111021D01*
X0210447Y0111255D01*
X0331041Y0111255D01*
X0330475Y0111021D01*
X0329617Y0110163D01*
X0329153Y0109042D01*
X0329153Y0103324D01*
X0329617Y0102203D01*
X0330475Y0101345D01*
X0331596Y0100881D01*
X0335812Y0100881D01*
X0336006Y0100961D01*
X0336200Y0100881D01*
X0337413Y0100881D01*
X0338308Y0101252D01*
X0338363Y0101229D01*
X0338616Y0101059D01*
X0338918Y0100999D01*
X0339202Y0100881D01*
X0339507Y0100881D01*
X0339806Y0100821D01*
X0340108Y0100881D01*
X0340416Y0100881D01*
X0340610Y0100961D01*
X0340804Y0100881D01*
X0344269Y0100881D01*
X0345390Y0101345D01*
X0346141Y0102096D01*
X0346999Y0102954D01*
X0347463Y0104075D01*
X0347463Y0108291D01*
X0346999Y0109412D01*
X0346248Y0110163D01*
X0345390Y0111021D01*
X0344824Y0111255D01*
X0350669Y0111255D01*
X0352560Y0111149D01*
X0356246Y0110308D01*
X0359653Y0108667D01*
X0362609Y0106310D01*
X0364966Y0103353D01*
X0366607Y0099947D01*
X0367448Y0096261D01*
X0367554Y0094370D01*
X0367554Y0093813D01*
X0367554Y0055000D01*
X0367448Y0053109D01*
X0366607Y0049423D01*
X0364966Y0046017D01*
X0362609Y0043060D01*
X0359653Y0040703D01*
X0356246Y0039062D01*
X0352560Y0038221D01*
X0350669Y0038115D01*
X0039646Y0038115D01*
X0037755Y0038221D01*
X0034069Y0039062D01*
X0030662Y0040703D01*
X0027706Y0043060D01*
X0025349Y0046017D01*
X0023708Y0049423D01*
X0023278Y0051308D02*
X0045114Y0051308D01*
X0045618Y0054506D02*
X0022788Y0054506D01*
X0022761Y0057705D02*
X0048586Y0057705D01*
X0054327Y0057705D02*
X0109554Y0057705D01*
X0109554Y0054506D02*
X0057296Y0054506D01*
X0052954Y0062003D02*
X0049960Y0062003D01*
X0047195Y0063149D01*
X0045078Y0065265D01*
X0043932Y0068031D01*
X0043932Y0071024D01*
X0045078Y0073790D01*
X0047195Y0075906D01*
X0049960Y0077052D01*
X0052954Y0077052D01*
X0055719Y0075906D01*
X0057698Y0073928D01*
X0183474Y0073928D01*
X0184865Y0073351D01*
X0186577Y0073351D01*
X0188908Y0072385D01*
X0190693Y0070601D01*
X0191658Y0068270D01*
X0191658Y0065746D01*
X0190693Y0063415D01*
X0188908Y0061630D01*
X0186577Y0060665D01*
X0184053Y0060665D01*
X0181722Y0061630D01*
X0179937Y0063415D01*
X0179228Y0065128D01*
X0057698Y0065128D01*
X0055719Y0063149D01*
X0052954Y0062003D01*
X0056672Y0064102D02*
X0179653Y0064102D01*
X0183478Y0060903D02*
X0129904Y0060903D01*
X0125355Y0060903D02*
X0125354Y0060903D01*
X0120804Y0060903D02*
X0120430Y0060903D01*
X0125354Y0057705D02*
X0125355Y0057705D01*
X0130742Y0057705D02*
X0252192Y0057705D01*
X0252192Y0059154D02*
X0252192Y0050846D01*
X0253075Y0048715D01*
X0254707Y0047083D01*
X0256839Y0046200D01*
X0259146Y0046200D01*
X0261278Y0047083D01*
X0262909Y0048715D01*
X0262992Y0048915D01*
X0263075Y0048715D01*
X0264707Y0047083D01*
X0266839Y0046200D01*
X0269146Y0046200D01*
X0271278Y0047083D01*
X0272909Y0048715D01*
X0272992Y0048915D01*
X0273075Y0048715D01*
X0274707Y0047083D01*
X0276839Y0046200D01*
X0279146Y0046200D01*
X0281278Y0047083D01*
X0282909Y0048715D01*
X0283792Y0050846D01*
X0283792Y0059154D01*
X0282909Y0061285D01*
X0282392Y0061802D01*
X0282392Y0069497D01*
X0281722Y0071114D01*
X0280485Y0072352D01*
X0272709Y0080128D01*
X0317617Y0080128D01*
X0319596Y0078149D01*
X0322362Y0077003D01*
X0325355Y0077003D01*
X0328121Y0078149D01*
X0330237Y0080265D01*
X0331383Y0083031D01*
X0331383Y0086024D01*
X0330237Y0088790D01*
X0328121Y0090906D01*
X0325355Y0092052D01*
X0322362Y0092052D01*
X0319596Y0090906D01*
X0317617Y0088928D01*
X0206556Y0088928D01*
X0204577Y0090906D01*
X0201812Y0092052D01*
X0199013Y0092052D01*
X0194203Y0096862D01*
X0192965Y0098100D01*
X0191348Y0098770D01*
X0045424Y0098770D01*
X0043807Y0098100D01*
X0037759Y0092052D01*
X0034960Y0092052D01*
X0032195Y0090906D01*
X0030078Y0088790D01*
X0028932Y0086024D01*
X0028932Y0083031D01*
X0030078Y0080265D01*
X0032195Y0078149D01*
X0034960Y0077003D01*
X0037954Y0077003D01*
X0040719Y0078149D01*
X0042836Y0080265D01*
X0043981Y0083031D01*
X0043981Y0085829D01*
X0048122Y0089970D01*
X0061258Y0089970D01*
X0060078Y0088790D01*
X0058932Y0086024D01*
X0058932Y0083031D01*
X0060078Y0080265D01*
X0062195Y0078149D01*
X0064960Y0077003D01*
X0067954Y0077003D01*
X0070719Y0078149D01*
X0072836Y0080265D01*
X0073981Y0083031D01*
X0073981Y0086024D01*
X0072836Y0088790D01*
X0071655Y0089970D01*
X0165726Y0089970D01*
X0165616Y0089886D01*
X0164957Y0089227D01*
X0164389Y0088487D01*
X0163923Y0087680D01*
X0163566Y0086818D01*
X0163325Y0085918D01*
X0163203Y0084994D01*
X0163203Y0084528D01*
X0170315Y0084528D01*
X0170315Y0084527D01*
X0170315Y0084527D01*
X0170315Y0077416D01*
X0169849Y0077416D01*
X0168925Y0077537D01*
X0168024Y0077779D01*
X0167163Y0078135D01*
X0166355Y0078602D01*
X0165616Y0079169D01*
X0164957Y0079828D01*
X0164389Y0080568D01*
X0163923Y0081375D01*
X0163566Y0082237D01*
X0163325Y0083137D01*
X0163203Y0084061D01*
X0163203Y0084527D01*
X0170315Y0084527D01*
X0170315Y0077416D01*
X0170781Y0077416D01*
X0171706Y0077537D01*
X0172606Y0077779D01*
X0173467Y0078135D01*
X0174275Y0078602D01*
X0175014Y0079169D01*
X0175673Y0079828D01*
X0176241Y0080568D01*
X0176707Y0081375D01*
X0177064Y0082237D01*
X0177305Y0083137D01*
X0177427Y0084061D01*
X0177427Y0084527D01*
X0170315Y0084527D01*
X0170315Y0084528D01*
X0177427Y0084528D01*
X0177427Y0084994D01*
X0177305Y0085918D01*
X0177064Y0086818D01*
X0176707Y0087680D01*
X0176241Y0088487D01*
X0175673Y0089227D01*
X0175014Y0089886D01*
X0174905Y0089970D01*
X0188650Y0089970D01*
X0192791Y0085829D01*
X0192791Y0083031D01*
X0193936Y0080265D01*
X0196053Y0078149D01*
X0198818Y0077003D01*
X0201812Y0077003D01*
X0204577Y0078149D01*
X0206556Y0080128D01*
X0260264Y0080128D01*
X0273592Y0066799D01*
X0273592Y0061802D01*
X0273075Y0061285D01*
X0272992Y0061085D01*
X0272909Y0061285D01*
X0271278Y0062917D01*
X0269146Y0063800D01*
X0266839Y0063800D01*
X0264707Y0062917D01*
X0263075Y0061285D01*
X0262992Y0061085D01*
X0262909Y0061285D01*
X0261278Y0062917D01*
X0259146Y0063800D01*
X0256839Y0063800D01*
X0254707Y0062917D01*
X0253075Y0061285D01*
X0252192Y0059154D01*
X0252917Y0060903D02*
X0187153Y0060903D01*
X0190977Y0064102D02*
X0273592Y0064102D01*
X0273092Y0067300D02*
X0191658Y0067300D01*
X0190735Y0070499D02*
X0269893Y0070499D01*
X0277992Y0068622D02*
X0277992Y0055000D01*
X0283792Y0054506D02*
X0333019Y0054506D01*
X0333481Y0055621D02*
X0332515Y0053289D01*
X0332515Y0050766D01*
X0333481Y0048434D01*
X0335265Y0046650D01*
X0337597Y0045684D01*
X0340120Y0045684D01*
X0342452Y0046650D01*
X0344236Y0048434D01*
X0345202Y0050766D01*
X0345202Y0053289D01*
X0344236Y0055621D01*
X0342452Y0057405D01*
X0340120Y0058371D01*
X0337597Y0058371D01*
X0335265Y0057405D01*
X0333481Y0055621D01*
X0335988Y0057705D02*
X0283792Y0057705D01*
X0283068Y0060903D02*
X0367554Y0060903D01*
X0367554Y0057705D02*
X0341729Y0057705D01*
X0344698Y0054506D02*
X0367527Y0054506D01*
X0367037Y0051308D02*
X0345202Y0051308D01*
X0343911Y0048109D02*
X0365974Y0048109D01*
X0364084Y0044910D02*
X0224139Y0044910D01*
X0224139Y0045789D02*
X0224139Y0043266D01*
X0223173Y0040934D01*
X0221389Y0039150D01*
X0219057Y0038184D01*
X0216534Y0038184D01*
X0214202Y0039150D01*
X0212418Y0040934D01*
X0211452Y0043266D01*
X0211452Y0045789D01*
X0212418Y0048121D01*
X0214202Y0049905D01*
X0216534Y0050871D01*
X0219057Y0050871D01*
X0221389Y0049905D01*
X0223173Y0048121D01*
X0224139Y0045789D01*
X0223178Y0048109D02*
X0253681Y0048109D01*
X0252192Y0051308D02*
X0130699Y0051308D01*
X0125355Y0051308D02*
X0125354Y0051308D01*
X0125354Y0054506D02*
X0125355Y0054506D01*
X0130742Y0054506D02*
X0252192Y0054506D01*
X0262304Y0048109D02*
X0263681Y0048109D01*
X0272304Y0048109D02*
X0273681Y0048109D01*
X0282304Y0048109D02*
X0333806Y0048109D01*
X0332515Y0051308D02*
X0283792Y0051308D01*
X0282392Y0064102D02*
X0334247Y0064102D01*
X0334159Y0064169D02*
X0334899Y0063602D01*
X0335706Y0063135D01*
X0336567Y0062779D01*
X0337468Y0062537D01*
X0338392Y0062416D01*
X0338858Y0062416D01*
X0338858Y0069527D01*
X0338858Y0069527D01*
X0331747Y0069527D01*
X0331747Y0069061D01*
X0331868Y0068137D01*
X0332110Y0067237D01*
X0332466Y0066375D01*
X0332932Y0065568D01*
X0333500Y0064828D01*
X0334159Y0064169D01*
X0332093Y0067300D02*
X0282392Y0067300D01*
X0277992Y0068622D02*
X0262087Y0084528D01*
X0323858Y0084528D01*
X0331189Y0086491D02*
X0346527Y0086491D01*
X0346334Y0086024D02*
X0346334Y0083031D01*
X0347480Y0080265D01*
X0349596Y0078149D01*
X0352362Y0077003D01*
X0355355Y0077003D01*
X0358121Y0078149D01*
X0360237Y0080265D01*
X0361383Y0083031D01*
X0361383Y0086024D01*
X0360237Y0088790D01*
X0358121Y0090906D01*
X0355355Y0092052D01*
X0352362Y0092052D01*
X0349596Y0090906D01*
X0347480Y0088790D01*
X0346334Y0086024D01*
X0346334Y0083293D02*
X0331383Y0083293D01*
X0330066Y0080094D02*
X0347651Y0080094D01*
X0343558Y0074886D02*
X0342818Y0075453D01*
X0342011Y0075920D01*
X0341149Y0076276D01*
X0340249Y0076518D01*
X0339325Y0076639D01*
X0338858Y0076639D01*
X0338392Y0076639D01*
X0337468Y0076518D01*
X0336567Y0076276D01*
X0335706Y0075920D01*
X0334899Y0075453D01*
X0334159Y0074886D01*
X0333500Y0074227D01*
X0332932Y0073487D01*
X0332466Y0072680D01*
X0332110Y0071818D01*
X0331868Y0070918D01*
X0331747Y0069994D01*
X0331747Y0069528D01*
X0338858Y0069528D01*
X0338858Y0076639D01*
X0338858Y0069528D01*
X0338858Y0069528D01*
X0338858Y0069527D01*
X0338858Y0062416D01*
X0339325Y0062416D01*
X0340249Y0062537D01*
X0341149Y0062779D01*
X0342011Y0063135D01*
X0342818Y0063602D01*
X0343558Y0064169D01*
X0344217Y0064828D01*
X0344784Y0065568D01*
X0345250Y0066375D01*
X0345607Y0067237D01*
X0345849Y0068137D01*
X0345970Y0069061D01*
X0345970Y0069527D01*
X0338859Y0069527D01*
X0338859Y0069528D01*
X0345970Y0069528D01*
X0345970Y0069994D01*
X0345849Y0070918D01*
X0345607Y0071818D01*
X0345250Y0072680D01*
X0344784Y0073487D01*
X0344217Y0074227D01*
X0343558Y0074886D01*
X0344623Y0073697D02*
X0367554Y0073697D01*
X0367554Y0076896D02*
X0275941Y0076896D01*
X0272743Y0080094D02*
X0317651Y0080094D01*
X0333094Y0073697D02*
X0279140Y0073697D01*
X0281977Y0070499D02*
X0331813Y0070499D01*
X0338858Y0070499D02*
X0338858Y0070499D01*
X0345904Y0070499D02*
X0367554Y0070499D01*
X0367554Y0067300D02*
X0345624Y0067300D01*
X0338858Y0067300D02*
X0338858Y0067300D01*
X0338858Y0064102D02*
X0338858Y0064102D01*
X0343470Y0064102D02*
X0367554Y0064102D01*
X0338858Y0073697D02*
X0338858Y0073697D01*
X0360066Y0080094D02*
X0367554Y0080094D01*
X0367554Y0083293D02*
X0361383Y0083293D01*
X0361189Y0086491D02*
X0367554Y0086491D01*
X0367554Y0089690D02*
X0359337Y0089690D01*
X0367554Y0092888D02*
X0198177Y0092888D01*
X0194979Y0096087D02*
X0367458Y0096087D01*
X0366758Y0099285D02*
X0023557Y0099285D01*
X0024930Y0102484D02*
X0028254Y0102484D01*
X0027906Y0105682D02*
X0027206Y0105682D01*
X0022857Y0096087D02*
X0041793Y0096087D01*
X0046299Y0094370D02*
X0036457Y0084528D01*
X0029126Y0086491D02*
X0022761Y0086491D01*
X0022761Y0083293D02*
X0028932Y0083293D01*
X0030249Y0080094D02*
X0022761Y0080094D01*
X0022761Y0076896D02*
X0049583Y0076896D01*
X0053331Y0076896D02*
X0263496Y0076896D01*
X0260298Y0080094D02*
X0206523Y0080094D01*
X0200315Y0084528D02*
X0260118Y0084528D01*
X0262087Y0084528D01*
X0266695Y0073697D02*
X0184030Y0073697D01*
X0182599Y0069528D02*
X0185118Y0067008D01*
X0185315Y0067008D01*
X0182599Y0069528D02*
X0051457Y0069528D01*
X0044235Y0067300D02*
X0022761Y0067300D01*
X0022761Y0064102D02*
X0046242Y0064102D01*
X0043932Y0070499D02*
X0022761Y0070499D01*
X0022761Y0073697D02*
X0045040Y0073697D01*
X0042665Y0080094D02*
X0060249Y0080094D01*
X0058932Y0083293D02*
X0043981Y0083293D01*
X0044643Y0086491D02*
X0059126Y0086491D01*
X0060978Y0089690D02*
X0047841Y0089690D01*
X0046299Y0094370D02*
X0190473Y0094370D01*
X0200315Y0084528D01*
X0192791Y0083293D02*
X0177326Y0083293D01*
X0177152Y0086491D02*
X0192129Y0086491D01*
X0188930Y0089690D02*
X0175211Y0089690D01*
X0165420Y0089690D02*
X0071936Y0089690D01*
X0073788Y0086491D02*
X0163479Y0086491D01*
X0163304Y0083293D02*
X0073981Y0083293D01*
X0072665Y0080094D02*
X0164753Y0080094D01*
X0170315Y0080094D02*
X0170315Y0080094D01*
X0170315Y0083293D02*
X0170315Y0083293D01*
X0175877Y0080094D02*
X0194107Y0080094D01*
X0205794Y0089690D02*
X0318379Y0089690D01*
X0329337Y0089690D02*
X0348379Y0089690D01*
X0346528Y0102484D02*
X0365385Y0102484D01*
X0363109Y0105682D02*
X0347463Y0105682D01*
X0347219Y0108881D02*
X0359209Y0108881D01*
X0329153Y0108881D02*
X0212335Y0108881D01*
X0210834Y0105682D02*
X0329153Y0105682D01*
X0329501Y0102484D02*
X0210486Y0102484D01*
X0194960Y0102484D02*
X0193571Y0102484D01*
X0159043Y0102484D02*
X0075059Y0102484D01*
X0075408Y0105682D02*
X0158695Y0105682D01*
X0157193Y0108881D02*
X0075408Y0108881D01*
X0063584Y0102484D02*
X0062782Y0102484D01*
X0038595Y0092888D02*
X0022761Y0092888D01*
X0022761Y0089690D02*
X0030978Y0089690D01*
X0022761Y0060903D02*
X0110279Y0060903D01*
X0119666Y0048109D02*
X0121627Y0048109D01*
X0125354Y0048109D02*
X0125355Y0048109D01*
X0129082Y0048109D02*
X0212413Y0048109D01*
X0211452Y0044910D02*
X0026231Y0044910D01*
X0029397Y0041712D02*
X0212096Y0041712D01*
X0215739Y0038513D02*
X0036474Y0038513D01*
X0219852Y0038513D02*
X0353841Y0038513D01*
X0359653Y0040703D02*
X0359653Y0040703D01*
X0360918Y0041712D02*
X0223495Y0041712D01*
M02*
