G75*
%MOIN*%
%OFA0B0*%
%FSLAX25Y25*%
%IPPOS*%
%LPD*%
%AMOC8*
5,1,8,0,0,1.08239X$1,22.5*
%
%ADD10C,0.00500*%
%ADD11C,0.06000*%
%ADD12C,0.09449*%
%ADD13C,0.07087*%
%ADD14C,0.01600*%
%ADD15C,0.03200*%
D10*
X0039954Y0123616D02*
X0039954Y0128120D01*
X0042957Y0128120D02*
X0039954Y0123616D01*
X0042957Y0123616D02*
X0042957Y0128120D01*
X0044525Y0128120D02*
X0046026Y0128120D01*
X0045275Y0128120D02*
X0045275Y0123616D01*
X0044525Y0123616D02*
X0046026Y0123616D01*
X0052231Y0123616D02*
X0052231Y0128120D01*
X0052231Y0125868D02*
X0055234Y0125868D01*
X0056835Y0125868D02*
X0058337Y0125868D01*
X0056835Y0125868D02*
X0056835Y0124367D01*
X0057586Y0123616D01*
X0059087Y0123616D01*
X0059838Y0124367D01*
X0059838Y0127369D01*
X0059087Y0128120D01*
X0057586Y0128120D01*
X0056835Y0127369D01*
X0055234Y0128120D02*
X0055234Y0123616D01*
X0050630Y0125868D02*
X0047627Y0125868D01*
X0061439Y0124367D02*
X0062190Y0123616D01*
X0063691Y0123616D01*
X0064442Y0124367D01*
X0064442Y0128120D01*
X0066043Y0127369D02*
X0066794Y0128120D01*
X0068295Y0128120D01*
X0069046Y0127369D01*
X0069046Y0124367D01*
X0068295Y0123616D01*
X0066794Y0123616D01*
X0066043Y0124367D01*
X0066043Y0127369D01*
X0070647Y0127369D02*
X0071398Y0128120D01*
X0073650Y0128120D01*
X0073650Y0123616D01*
X0073650Y0125117D02*
X0071398Y0125117D01*
X0070647Y0125868D01*
X0070647Y0127369D01*
X0072148Y0125117D02*
X0070647Y0123616D01*
X0075251Y0123616D02*
X0075251Y0128120D01*
X0075251Y0125868D02*
X0078254Y0125868D01*
X0078254Y0123616D02*
X0078254Y0128120D01*
X0079855Y0128120D02*
X0082857Y0128120D01*
X0081356Y0128120D02*
X0081356Y0123616D01*
X0061439Y0124367D02*
X0061439Y0128120D01*
X0170743Y0128120D02*
X0173746Y0128120D01*
X0172245Y0128120D02*
X0172245Y0123616D01*
X0175347Y0124367D02*
X0175347Y0128120D01*
X0178350Y0128120D02*
X0178350Y0124367D01*
X0177599Y0123616D01*
X0176098Y0123616D01*
X0175347Y0124367D01*
X0179951Y0124367D02*
X0179951Y0127369D01*
X0180702Y0128120D01*
X0182203Y0128120D01*
X0182954Y0127369D01*
X0182954Y0124367D01*
X0182203Y0123616D01*
X0180702Y0123616D01*
X0179951Y0124367D01*
X0184555Y0125868D02*
X0187558Y0125868D01*
X0189159Y0125868D02*
X0192161Y0125868D01*
X0193763Y0125868D02*
X0193763Y0124367D01*
X0194513Y0123616D01*
X0196015Y0123616D01*
X0196765Y0124367D01*
X0196765Y0127369D01*
X0196015Y0128120D01*
X0194513Y0128120D01*
X0193763Y0127369D01*
X0193763Y0125868D02*
X0195264Y0125868D01*
X0198367Y0124367D02*
X0198367Y0128120D01*
X0201369Y0128120D02*
X0201369Y0124367D01*
X0200619Y0123616D01*
X0199117Y0123616D01*
X0198367Y0124367D01*
X0202971Y0124367D02*
X0203721Y0123616D01*
X0205223Y0123616D01*
X0205973Y0124367D01*
X0205973Y0127369D01*
X0205223Y0128120D01*
X0203721Y0128120D01*
X0202971Y0127369D01*
X0202971Y0124367D01*
X0207575Y0123616D02*
X0209076Y0125117D01*
X0208325Y0125117D02*
X0210577Y0125117D01*
X0210577Y0123616D02*
X0210577Y0128120D01*
X0208325Y0128120D01*
X0207575Y0127369D01*
X0207575Y0125868D01*
X0208325Y0125117D01*
X0212179Y0125868D02*
X0215181Y0125868D01*
X0215181Y0123616D02*
X0215181Y0128120D01*
X0216782Y0128120D02*
X0219785Y0128120D01*
X0218284Y0128120D02*
X0218284Y0123616D01*
X0212179Y0123616D02*
X0212179Y0128120D01*
X0192161Y0128120D02*
X0192161Y0123616D01*
X0189159Y0123616D02*
X0189159Y0128120D01*
X0342702Y0127369D02*
X0342702Y0124367D01*
X0343453Y0123616D01*
X0345705Y0123616D01*
X0345705Y0128120D01*
X0343453Y0128120D01*
X0342702Y0127369D01*
X0347306Y0128120D02*
X0347306Y0123616D01*
X0350309Y0128120D01*
X0350309Y0123616D01*
X0351910Y0123616D02*
X0354913Y0123616D01*
X0354913Y0128120D01*
X0351910Y0128120D01*
X0353411Y0125868D02*
X0354913Y0125868D01*
D11*
X0287391Y0058000D02*
X0287391Y0052000D01*
X0277391Y0052000D02*
X0277391Y0058000D01*
X0267391Y0058000D02*
X0267391Y0052000D01*
X0134753Y0053969D02*
X0134753Y0059969D01*
X0124753Y0059969D02*
X0124753Y0053969D01*
D12*
X0075855Y0084528D03*
X0045855Y0084528D03*
X0179713Y0084528D03*
X0209713Y0084528D03*
X0333257Y0084528D03*
X0363257Y0084528D03*
D13*
X0348257Y0067008D03*
X0348257Y0052047D03*
X0227194Y0044528D03*
X0194713Y0067008D03*
X0060855Y0067008D03*
X0060855Y0052047D03*
D14*
X0027791Y0037223D02*
X0024807Y0038192D01*
X0022269Y0040036D01*
X0020425Y0042574D01*
X0019456Y0045557D01*
X0019332Y0047126D01*
X0019332Y0121929D01*
X0019456Y0123498D01*
X0020425Y0126481D01*
X0022269Y0129019D01*
X0024807Y0130863D01*
X0027791Y0131832D01*
X0029359Y0131956D01*
X0030098Y0131956D01*
X0379753Y0131956D01*
X0381321Y0131832D01*
X0384305Y0130863D01*
X0386843Y0129019D01*
X0388687Y0126481D01*
X0389656Y0123498D01*
X0389780Y0121929D01*
X0389780Y0047126D01*
X0389656Y0045557D01*
X0388687Y0042574D01*
X0386843Y0040036D01*
X0384305Y0038192D01*
X0381321Y0037223D01*
X0379753Y0037099D01*
X0029359Y0037099D01*
X0027791Y0037223D01*
X0024367Y0038512D02*
X0384745Y0038512D01*
X0386897Y0040110D02*
X0229826Y0040110D01*
X0229883Y0040139D02*
X0230536Y0040614D01*
X0231107Y0041185D01*
X0231582Y0041838D01*
X0231948Y0042558D01*
X0232198Y0043326D01*
X0232324Y0044124D01*
X0232324Y0044146D01*
X0227575Y0044146D01*
X0227575Y0039397D01*
X0227597Y0039397D01*
X0228395Y0039523D01*
X0229163Y0039773D01*
X0229883Y0040139D01*
X0231488Y0041709D02*
X0388058Y0041709D01*
X0388925Y0043308D02*
X0232192Y0043308D01*
X0232324Y0044909D02*
X0227575Y0044909D01*
X0226813Y0044909D01*
X0226813Y0049658D01*
X0226790Y0049658D01*
X0225992Y0049532D01*
X0225224Y0049282D01*
X0224505Y0048916D01*
X0223851Y0048441D01*
X0223280Y0047870D01*
X0222806Y0047217D01*
X0222439Y0046497D01*
X0222189Y0045729D01*
X0222063Y0044931D01*
X0222063Y0044909D01*
X0226813Y0044909D01*
X0226813Y0044146D01*
X0227575Y0044146D01*
X0227575Y0044909D01*
X0227575Y0049658D01*
X0227597Y0049658D01*
X0228395Y0049532D01*
X0229163Y0049282D01*
X0229883Y0048916D01*
X0230536Y0048441D01*
X0231107Y0047870D01*
X0231582Y0047217D01*
X0231948Y0046497D01*
X0232198Y0045729D01*
X0232324Y0044931D01*
X0232324Y0044909D01*
X0231945Y0046505D02*
X0389731Y0046505D01*
X0389780Y0048103D02*
X0351557Y0048103D01*
X0351599Y0048134D02*
X0352170Y0048705D01*
X0352645Y0049358D01*
X0353011Y0050078D01*
X0353261Y0050846D01*
X0353387Y0051643D01*
X0353387Y0051666D01*
X0348638Y0051666D01*
X0348638Y0052428D01*
X0353387Y0052428D01*
X0353387Y0052451D01*
X0353261Y0053249D01*
X0353011Y0054017D01*
X0352645Y0054736D01*
X0352170Y0055390D01*
X0351599Y0055961D01*
X0350946Y0056435D01*
X0350226Y0056802D01*
X0349458Y0057052D01*
X0348660Y0057178D01*
X0348638Y0057178D01*
X0348638Y0052428D01*
X0347876Y0052428D01*
X0347876Y0051666D01*
X0348638Y0051666D01*
X0348638Y0046917D01*
X0348660Y0046917D01*
X0349458Y0047043D01*
X0350226Y0047292D01*
X0350946Y0047659D01*
X0351599Y0048134D01*
X0352820Y0049702D02*
X0389780Y0049702D01*
X0389780Y0051300D02*
X0353333Y0051300D01*
X0353317Y0052899D02*
X0389780Y0052899D01*
X0389780Y0054497D02*
X0352767Y0054497D01*
X0351413Y0056096D02*
X0389780Y0056096D01*
X0389780Y0057694D02*
X0292191Y0057694D01*
X0292191Y0058955D02*
X0291460Y0060719D01*
X0290110Y0062069D01*
X0288345Y0062800D01*
X0286436Y0062800D01*
X0284672Y0062069D01*
X0283321Y0060719D01*
X0282591Y0058955D01*
X0282591Y0051045D01*
X0283321Y0049281D01*
X0284672Y0047931D01*
X0286436Y0047200D01*
X0288345Y0047200D01*
X0290110Y0047931D01*
X0291460Y0049281D01*
X0292191Y0051045D01*
X0292191Y0058955D01*
X0292051Y0059293D02*
X0389780Y0059293D01*
X0389780Y0060891D02*
X0291288Y0060891D01*
X0289095Y0062490D02*
X0345218Y0062490D01*
X0345230Y0062478D02*
X0347194Y0061665D01*
X0349320Y0061665D01*
X0351283Y0062478D01*
X0352787Y0063981D01*
X0353600Y0065945D01*
X0353600Y0068071D01*
X0352787Y0070035D01*
X0351536Y0071285D01*
X0354090Y0071285D01*
X0355340Y0071803D01*
X0356297Y0072759D01*
X0361663Y0078126D01*
X0361959Y0078003D01*
X0364554Y0078003D01*
X0366952Y0078996D01*
X0368788Y0080832D01*
X0369781Y0083230D01*
X0369781Y0085825D01*
X0368788Y0088223D01*
X0366952Y0090059D01*
X0364554Y0091052D01*
X0361959Y0091052D01*
X0359561Y0090059D01*
X0357726Y0088223D01*
X0356732Y0085825D01*
X0356732Y0083230D01*
X0356855Y0082934D01*
X0352006Y0078085D01*
X0334752Y0078085D01*
X0336952Y0078996D01*
X0338788Y0080832D01*
X0339781Y0083230D01*
X0339781Y0085825D01*
X0338788Y0088223D01*
X0336952Y0090059D01*
X0334554Y0091052D01*
X0331959Y0091052D01*
X0329561Y0090059D01*
X0327726Y0088223D01*
X0326732Y0085825D01*
X0326732Y0083230D01*
X0327726Y0080832D01*
X0329561Y0078996D01*
X0331761Y0078085D01*
X0211209Y0078085D01*
X0213409Y0078996D01*
X0215245Y0080832D01*
X0216238Y0083230D01*
X0216238Y0085825D01*
X0215245Y0088223D01*
X0213409Y0090059D01*
X0211011Y0091052D01*
X0208416Y0091052D01*
X0206018Y0090059D01*
X0204182Y0088223D01*
X0203189Y0085825D01*
X0203189Y0083230D01*
X0204182Y0080832D01*
X0206018Y0078996D01*
X0208218Y0078085D01*
X0181209Y0078085D01*
X0183409Y0078996D01*
X0185245Y0080832D01*
X0186238Y0083230D01*
X0186238Y0085825D01*
X0185245Y0088223D01*
X0183409Y0090059D01*
X0181011Y0091052D01*
X0178416Y0091052D01*
X0176018Y0090059D01*
X0174182Y0088223D01*
X0173189Y0085825D01*
X0173189Y0083230D01*
X0174182Y0080832D01*
X0176018Y0078996D01*
X0178218Y0078085D01*
X0087106Y0078085D01*
X0082257Y0082934D01*
X0082380Y0083230D01*
X0082380Y0085825D01*
X0081386Y0088223D01*
X0079551Y0090059D01*
X0077153Y0091052D01*
X0074557Y0091052D01*
X0072159Y0090059D01*
X0070324Y0088223D01*
X0069331Y0085825D01*
X0069331Y0083230D01*
X0070324Y0080832D01*
X0072159Y0078996D01*
X0074557Y0078003D01*
X0077153Y0078003D01*
X0077449Y0078126D01*
X0082815Y0072759D01*
X0083772Y0071803D01*
X0085021Y0071285D01*
X0121353Y0071285D01*
X0121353Y0063357D01*
X0120684Y0062687D01*
X0119953Y0060923D01*
X0119953Y0053014D01*
X0120684Y0051250D01*
X0122034Y0049899D01*
X0123798Y0049169D01*
X0125708Y0049169D01*
X0127472Y0049899D01*
X0128822Y0051250D01*
X0129553Y0053014D01*
X0129553Y0060923D01*
X0128822Y0062687D01*
X0128153Y0063357D01*
X0128153Y0070245D01*
X0129193Y0071285D01*
X0191434Y0071285D01*
X0190184Y0070035D01*
X0189370Y0068071D01*
X0189370Y0065945D01*
X0190184Y0063981D01*
X0191687Y0062478D01*
X0193651Y0061665D01*
X0195776Y0061665D01*
X0197740Y0062478D01*
X0199243Y0063981D01*
X0200057Y0065945D01*
X0200057Y0068071D01*
X0199243Y0070035D01*
X0197993Y0071285D01*
X0263991Y0071285D01*
X0263991Y0061388D01*
X0263321Y0060719D01*
X0262591Y0058955D01*
X0262591Y0051045D01*
X0263321Y0049281D01*
X0264672Y0047931D01*
X0266436Y0047200D01*
X0268345Y0047200D01*
X0270110Y0047931D01*
X0271460Y0049281D01*
X0272191Y0051045D01*
X0272191Y0058955D01*
X0271460Y0060719D01*
X0270791Y0061388D01*
X0270791Y0071151D01*
X0270925Y0071285D01*
X0344977Y0071285D01*
X0343727Y0070035D01*
X0342913Y0068071D01*
X0342913Y0065945D01*
X0343727Y0063981D01*
X0345230Y0062478D01*
X0343683Y0064088D02*
X0270791Y0064088D01*
X0270791Y0062490D02*
X0275687Y0062490D01*
X0276436Y0062800D02*
X0274672Y0062069D01*
X0273321Y0060719D01*
X0272591Y0058955D01*
X0272591Y0051045D01*
X0273321Y0049281D01*
X0274672Y0047931D01*
X0276436Y0047200D01*
X0278345Y0047200D01*
X0280110Y0047931D01*
X0281460Y0049281D01*
X0282191Y0051045D01*
X0282191Y0058955D01*
X0281460Y0060719D01*
X0280110Y0062069D01*
X0278345Y0062800D01*
X0276436Y0062800D01*
X0279095Y0062490D02*
X0285687Y0062490D01*
X0283493Y0060891D02*
X0281288Y0060891D01*
X0282051Y0059293D02*
X0282730Y0059293D01*
X0282591Y0057694D02*
X0282191Y0057694D01*
X0282191Y0056096D02*
X0282591Y0056096D01*
X0282591Y0054497D02*
X0282191Y0054497D01*
X0282191Y0052899D02*
X0282591Y0052899D01*
X0282591Y0051300D02*
X0282191Y0051300D01*
X0281634Y0049702D02*
X0283147Y0049702D01*
X0284499Y0048103D02*
X0280282Y0048103D01*
X0274499Y0048103D02*
X0270282Y0048103D01*
X0271634Y0049702D02*
X0273147Y0049702D01*
X0272591Y0051300D02*
X0272191Y0051300D01*
X0272191Y0052899D02*
X0272591Y0052899D01*
X0272591Y0054497D02*
X0272191Y0054497D01*
X0272191Y0056096D02*
X0272591Y0056096D01*
X0272591Y0057694D02*
X0272191Y0057694D01*
X0272051Y0059293D02*
X0272730Y0059293D01*
X0273493Y0060891D02*
X0271288Y0060891D01*
X0263991Y0062490D02*
X0197752Y0062490D01*
X0199288Y0064088D02*
X0263991Y0064088D01*
X0263991Y0065687D02*
X0199950Y0065687D01*
X0200057Y0067285D02*
X0263991Y0067285D01*
X0263991Y0068884D02*
X0199720Y0068884D01*
X0198796Y0070482D02*
X0263991Y0070482D01*
X0270791Y0070482D02*
X0344174Y0070482D01*
X0343250Y0068884D02*
X0270791Y0068884D01*
X0270791Y0067285D02*
X0342913Y0067285D01*
X0343020Y0065687D02*
X0270791Y0065687D01*
X0263493Y0060891D02*
X0139553Y0060891D01*
X0139553Y0060923D02*
X0138822Y0062687D01*
X0137472Y0064038D01*
X0135708Y0064768D01*
X0133798Y0064768D01*
X0132034Y0064038D01*
X0130684Y0062687D01*
X0129953Y0060923D01*
X0129953Y0053014D01*
X0130684Y0051250D01*
X0132034Y0049899D01*
X0133798Y0049169D01*
X0135708Y0049169D01*
X0137472Y0049899D01*
X0138822Y0051250D01*
X0139553Y0053014D01*
X0139553Y0060923D01*
X0139553Y0059293D02*
X0262730Y0059293D01*
X0262591Y0057694D02*
X0139553Y0057694D01*
X0139553Y0056096D02*
X0262591Y0056096D01*
X0262591Y0054497D02*
X0139553Y0054497D01*
X0139505Y0052899D02*
X0262591Y0052899D01*
X0262591Y0051300D02*
X0138843Y0051300D01*
X0136994Y0049702D02*
X0263147Y0049702D01*
X0264499Y0048103D02*
X0230874Y0048103D01*
X0227575Y0048103D02*
X0226813Y0048103D01*
X0226813Y0046505D02*
X0227575Y0046505D01*
X0227575Y0044906D02*
X0389444Y0044906D01*
X0389780Y0062490D02*
X0351295Y0062490D01*
X0352831Y0064088D02*
X0389780Y0064088D01*
X0389780Y0065687D02*
X0353493Y0065687D01*
X0353600Y0067285D02*
X0389780Y0067285D01*
X0389780Y0068884D02*
X0353263Y0068884D01*
X0352339Y0070482D02*
X0389780Y0070482D01*
X0389780Y0072081D02*
X0355618Y0072081D01*
X0357217Y0073679D02*
X0389780Y0073679D01*
X0389780Y0075278D02*
X0358815Y0075278D01*
X0360414Y0076876D02*
X0389780Y0076876D01*
X0389780Y0078475D02*
X0365693Y0078475D01*
X0368029Y0080073D02*
X0389780Y0080073D01*
X0389780Y0081672D02*
X0369136Y0081672D01*
X0369781Y0083270D02*
X0389780Y0083270D01*
X0389780Y0084869D02*
X0369781Y0084869D01*
X0369515Y0086467D02*
X0389780Y0086467D01*
X0389780Y0088066D02*
X0368853Y0088066D01*
X0367347Y0089664D02*
X0389780Y0089664D01*
X0389780Y0091263D02*
X0019332Y0091263D01*
X0019332Y0092861D02*
X0389780Y0092861D01*
X0389780Y0094460D02*
X0019332Y0094460D01*
X0019332Y0096058D02*
X0389780Y0096058D01*
X0389780Y0097657D02*
X0019332Y0097657D01*
X0019332Y0099255D02*
X0389780Y0099255D01*
X0389780Y0100854D02*
X0019332Y0100854D01*
X0019332Y0102452D02*
X0389780Y0102452D01*
X0389780Y0104051D02*
X0019332Y0104051D01*
X0019332Y0105649D02*
X0389780Y0105649D01*
X0389780Y0107248D02*
X0019332Y0107248D01*
X0019332Y0108846D02*
X0389780Y0108846D01*
X0389780Y0110445D02*
X0019332Y0110445D01*
X0019332Y0112044D02*
X0389780Y0112044D01*
X0389780Y0113642D02*
X0019332Y0113642D01*
X0019332Y0115241D02*
X0389780Y0115241D01*
X0389780Y0116839D02*
X0019332Y0116839D01*
X0019332Y0118438D02*
X0389780Y0118438D01*
X0389780Y0120036D02*
X0019332Y0120036D01*
X0019332Y0121635D02*
X0039037Y0121635D01*
X0039105Y0121566D02*
X0039334Y0121566D01*
X0039524Y0121439D01*
X0040157Y0121566D01*
X0040803Y0121566D01*
X0040965Y0121728D01*
X0041189Y0121772D01*
X0041474Y0122200D01*
X0042108Y0121566D01*
X0046875Y0121566D01*
X0048076Y0122767D01*
X0048076Y0123818D01*
X0050181Y0123818D01*
X0050181Y0122767D01*
X0051382Y0121566D01*
X0053080Y0121566D01*
X0053733Y0122218D01*
X0054385Y0121566D01*
X0056083Y0121566D01*
X0056410Y0121893D01*
X0056737Y0121566D01*
X0059936Y0121566D01*
X0060639Y0122268D01*
X0061341Y0121566D01*
X0064540Y0121566D01*
X0065242Y0122268D01*
X0065945Y0121566D01*
X0069144Y0121566D01*
X0069471Y0121893D01*
X0069798Y0121566D01*
X0071496Y0121566D01*
X0072148Y0122218D01*
X0072800Y0121566D01*
X0076100Y0121566D01*
X0076752Y0122218D01*
X0077404Y0121566D01*
X0079103Y0121566D01*
X0079805Y0122268D01*
X0080507Y0121566D01*
X0082205Y0121566D01*
X0083406Y0122767D01*
X0083406Y0126070D01*
X0083707Y0126070D01*
X0084907Y0127271D01*
X0084907Y0128969D01*
X0083707Y0130170D01*
X0077404Y0130170D01*
X0076752Y0129518D01*
X0076100Y0130170D01*
X0070549Y0130170D01*
X0069846Y0129468D01*
X0069144Y0130170D01*
X0065945Y0130170D01*
X0065618Y0129843D01*
X0065291Y0130170D01*
X0063593Y0130170D01*
X0062940Y0129518D01*
X0062288Y0130170D01*
X0060590Y0130170D01*
X0060263Y0129843D01*
X0059936Y0130170D01*
X0056737Y0130170D01*
X0056410Y0129843D01*
X0056083Y0130170D01*
X0054385Y0130170D01*
X0053733Y0129518D01*
X0053080Y0130170D01*
X0051382Y0130170D01*
X0050181Y0128969D01*
X0050181Y0127918D01*
X0048076Y0127918D01*
X0048076Y0128969D01*
X0046875Y0130170D01*
X0043577Y0130170D01*
X0043387Y0130297D01*
X0042754Y0130170D01*
X0042108Y0130170D01*
X0041946Y0130008D01*
X0041722Y0129964D01*
X0041437Y0129536D01*
X0040803Y0130170D01*
X0039105Y0130170D01*
X0037904Y0128969D01*
X0037904Y0124237D01*
X0037778Y0124047D01*
X0037904Y0123413D01*
X0037904Y0122767D01*
X0038066Y0122605D01*
X0038111Y0122381D01*
X0038648Y0122023D01*
X0039105Y0121566D01*
X0040872Y0121635D02*
X0042039Y0121635D01*
X0037904Y0123233D02*
X0019435Y0123233D01*
X0019889Y0124832D02*
X0037904Y0124832D01*
X0037904Y0126430D02*
X0020409Y0126430D01*
X0021549Y0128029D02*
X0037904Y0128029D01*
X0038562Y0129627D02*
X0023106Y0129627D01*
X0025923Y0131226D02*
X0383189Y0131226D01*
X0386006Y0129627D02*
X0356305Y0129627D01*
X0355762Y0130170D02*
X0356963Y0128969D01*
X0356963Y0122767D01*
X0355762Y0121566D01*
X0349460Y0121566D01*
X0348826Y0122200D01*
X0348541Y0121772D01*
X0348317Y0121728D01*
X0348155Y0121566D01*
X0347509Y0121566D01*
X0346875Y0121439D01*
X0346685Y0121566D01*
X0342604Y0121566D01*
X0341853Y0122317D01*
X0340652Y0123518D01*
X0340652Y0128218D01*
X0341403Y0128969D01*
X0342604Y0130170D01*
X0348155Y0130170D01*
X0348789Y0129536D01*
X0349074Y0129964D01*
X0349298Y0130008D01*
X0349460Y0130170D01*
X0350106Y0130170D01*
X0350739Y0130297D01*
X0350929Y0130170D01*
X0355762Y0130170D01*
X0356963Y0128029D02*
X0387562Y0128029D01*
X0388703Y0126430D02*
X0356963Y0126430D01*
X0356963Y0124832D02*
X0389223Y0124832D01*
X0389677Y0123233D02*
X0356963Y0123233D01*
X0355830Y0121635D02*
X0389780Y0121635D01*
X0349391Y0121635D02*
X0348224Y0121635D01*
X0342535Y0121635D02*
X0219201Y0121635D01*
X0219133Y0121566D02*
X0220334Y0122767D01*
X0220334Y0126070D01*
X0220634Y0126070D01*
X0221835Y0127271D01*
X0221835Y0128969D01*
X0220634Y0130170D01*
X0214332Y0130170D01*
X0213680Y0129518D01*
X0213028Y0130170D01*
X0207476Y0130170D01*
X0206774Y0129468D01*
X0206072Y0130170D01*
X0202872Y0130170D01*
X0202545Y0129843D01*
X0202218Y0130170D01*
X0200520Y0130170D01*
X0199868Y0129518D01*
X0199216Y0130170D01*
X0197518Y0130170D01*
X0197191Y0129843D01*
X0196864Y0130170D01*
X0193664Y0130170D01*
X0193337Y0129843D01*
X0193011Y0130170D01*
X0191312Y0130170D01*
X0190660Y0129518D01*
X0190008Y0130170D01*
X0188310Y0130170D01*
X0187109Y0128969D01*
X0187109Y0127918D01*
X0185004Y0127918D01*
X0185004Y0128218D01*
X0183803Y0129419D01*
X0183052Y0130170D01*
X0179853Y0130170D01*
X0179526Y0129843D01*
X0179199Y0130170D01*
X0177501Y0130170D01*
X0176848Y0129518D01*
X0176196Y0130170D01*
X0169894Y0130170D01*
X0168693Y0128969D01*
X0168693Y0127271D01*
X0169894Y0126070D01*
X0170195Y0126070D01*
X0170195Y0122767D01*
X0171395Y0121566D01*
X0173094Y0121566D01*
X0174171Y0122644D01*
X0174498Y0122317D01*
X0175249Y0121566D01*
X0178448Y0121566D01*
X0179150Y0122268D01*
X0179853Y0121566D01*
X0183052Y0121566D01*
X0184253Y0122767D01*
X0185004Y0123518D01*
X0185004Y0123818D01*
X0187109Y0123818D01*
X0187109Y0122767D01*
X0188310Y0121566D01*
X0190008Y0121566D01*
X0190660Y0122218D01*
X0191312Y0121566D01*
X0193011Y0121566D01*
X0193337Y0121893D01*
X0193664Y0121566D01*
X0196864Y0121566D01*
X0197566Y0122268D01*
X0198268Y0121566D01*
X0201468Y0121566D01*
X0202170Y0122268D01*
X0202872Y0121566D01*
X0206072Y0121566D01*
X0206399Y0121893D01*
X0206725Y0121566D01*
X0208424Y0121566D01*
X0209076Y0122218D01*
X0209728Y0121566D01*
X0213028Y0121566D01*
X0213680Y0122218D01*
X0214332Y0121566D01*
X0216030Y0121566D01*
X0216732Y0122268D01*
X0217435Y0121566D01*
X0219133Y0121566D01*
X0217366Y0121635D02*
X0216099Y0121635D01*
X0214264Y0121635D02*
X0213096Y0121635D01*
X0209660Y0121635D02*
X0208492Y0121635D01*
X0206657Y0121635D02*
X0206140Y0121635D01*
X0202804Y0121635D02*
X0201536Y0121635D01*
X0198200Y0121635D02*
X0196932Y0121635D01*
X0193596Y0121635D02*
X0193079Y0121635D01*
X0191244Y0121635D02*
X0190076Y0121635D01*
X0188241Y0121635D02*
X0183121Y0121635D01*
X0184719Y0123233D02*
X0187109Y0123233D01*
X0179784Y0121635D02*
X0178517Y0121635D01*
X0175180Y0121635D02*
X0173162Y0121635D01*
X0171327Y0121635D02*
X0082274Y0121635D01*
X0080439Y0121635D02*
X0079171Y0121635D01*
X0077336Y0121635D02*
X0076169Y0121635D01*
X0072732Y0121635D02*
X0071565Y0121635D01*
X0069729Y0121635D02*
X0069213Y0121635D01*
X0065876Y0121635D02*
X0064609Y0121635D01*
X0061272Y0121635D02*
X0060005Y0121635D01*
X0056668Y0121635D02*
X0056151Y0121635D01*
X0054316Y0121635D02*
X0053149Y0121635D01*
X0051314Y0121635D02*
X0046944Y0121635D01*
X0048076Y0123233D02*
X0050181Y0123233D01*
X0050181Y0128029D02*
X0048076Y0128029D01*
X0047418Y0129627D02*
X0050839Y0129627D01*
X0053623Y0129627D02*
X0053842Y0129627D01*
X0062831Y0129627D02*
X0063050Y0129627D01*
X0069687Y0129627D02*
X0070006Y0129627D01*
X0076643Y0129627D02*
X0076862Y0129627D01*
X0084249Y0129627D02*
X0169351Y0129627D01*
X0168693Y0128029D02*
X0084907Y0128029D01*
X0084067Y0126430D02*
X0169534Y0126430D01*
X0170195Y0124832D02*
X0083406Y0124832D01*
X0083406Y0123233D02*
X0170195Y0123233D01*
X0176739Y0129627D02*
X0176958Y0129627D01*
X0183595Y0129627D02*
X0187767Y0129627D01*
X0187109Y0128029D02*
X0185004Y0128029D01*
X0190551Y0129627D02*
X0190770Y0129627D01*
X0199759Y0129627D02*
X0199977Y0129627D01*
X0206615Y0129627D02*
X0206933Y0129627D01*
X0213571Y0129627D02*
X0213789Y0129627D01*
X0221177Y0129627D02*
X0342061Y0129627D01*
X0340652Y0128029D02*
X0221835Y0128029D01*
X0220994Y0126430D02*
X0340652Y0126430D01*
X0340652Y0124832D02*
X0220334Y0124832D01*
X0220334Y0123233D02*
X0340937Y0123233D01*
X0348698Y0129627D02*
X0348850Y0129627D01*
X0359167Y0089664D02*
X0337347Y0089664D01*
X0338853Y0088066D02*
X0357660Y0088066D01*
X0356998Y0086467D02*
X0339515Y0086467D01*
X0339781Y0084869D02*
X0356732Y0084869D01*
X0356732Y0083270D02*
X0339781Y0083270D01*
X0339136Y0081672D02*
X0355593Y0081672D01*
X0353994Y0080073D02*
X0338029Y0080073D01*
X0335693Y0078475D02*
X0352396Y0078475D01*
X0330820Y0078475D02*
X0212150Y0078475D01*
X0214486Y0080073D02*
X0328484Y0080073D01*
X0327378Y0081672D02*
X0215592Y0081672D01*
X0216238Y0083270D02*
X0326732Y0083270D01*
X0326732Y0084869D02*
X0216238Y0084869D01*
X0215972Y0086467D02*
X0326998Y0086467D01*
X0327660Y0088066D02*
X0215310Y0088066D01*
X0213803Y0089664D02*
X0329167Y0089664D01*
X0346287Y0056802D02*
X0345568Y0056435D01*
X0344914Y0055961D01*
X0344343Y0055390D01*
X0343869Y0054736D01*
X0343502Y0054017D01*
X0343252Y0053249D01*
X0343126Y0052451D01*
X0343126Y0052428D01*
X0347876Y0052428D01*
X0347876Y0057178D01*
X0347853Y0057178D01*
X0347055Y0057052D01*
X0346287Y0056802D01*
X0345100Y0056096D02*
X0292191Y0056096D01*
X0292191Y0054497D02*
X0343747Y0054497D01*
X0343197Y0052899D02*
X0292191Y0052899D01*
X0292191Y0051300D02*
X0343180Y0051300D01*
X0343126Y0051643D02*
X0343252Y0050846D01*
X0343502Y0050078D01*
X0343869Y0049358D01*
X0344343Y0048705D01*
X0344914Y0048134D01*
X0345568Y0047659D01*
X0346287Y0047292D01*
X0347055Y0047043D01*
X0347853Y0046917D01*
X0347876Y0046917D01*
X0347876Y0051666D01*
X0343126Y0051666D01*
X0343126Y0051643D01*
X0343694Y0049702D02*
X0291634Y0049702D01*
X0290282Y0048103D02*
X0344957Y0048103D01*
X0347876Y0048103D02*
X0348638Y0048103D01*
X0348638Y0049702D02*
X0347876Y0049702D01*
X0347876Y0051300D02*
X0348638Y0051300D01*
X0348638Y0052899D02*
X0347876Y0052899D01*
X0347876Y0054497D02*
X0348638Y0054497D01*
X0348638Y0056096D02*
X0347876Y0056096D01*
X0227575Y0043308D02*
X0226813Y0043308D01*
X0226813Y0044146D02*
X0226813Y0039397D01*
X0226790Y0039397D01*
X0225992Y0039523D01*
X0225224Y0039773D01*
X0224505Y0040139D01*
X0223851Y0040614D01*
X0223280Y0041185D01*
X0222806Y0041838D01*
X0222439Y0042558D01*
X0222189Y0043326D01*
X0222063Y0044124D01*
X0222063Y0044146D01*
X0226813Y0044146D01*
X0226813Y0044906D02*
X0019667Y0044906D01*
X0019381Y0046505D02*
X0222443Y0046505D01*
X0223513Y0048103D02*
X0064155Y0048103D01*
X0064198Y0048134D02*
X0064769Y0048705D01*
X0065243Y0049358D01*
X0065610Y0050078D01*
X0065859Y0050846D01*
X0065986Y0051643D01*
X0065986Y0051666D01*
X0061236Y0051666D01*
X0061236Y0046917D01*
X0061259Y0046917D01*
X0062057Y0047043D01*
X0062825Y0047292D01*
X0063544Y0047659D01*
X0064198Y0048134D01*
X0065418Y0049702D02*
X0122511Y0049702D01*
X0120663Y0051300D02*
X0065931Y0051300D01*
X0065986Y0052428D02*
X0065986Y0052451D01*
X0065859Y0053249D01*
X0065610Y0054017D01*
X0065243Y0054736D01*
X0064769Y0055390D01*
X0064198Y0055961D01*
X0063544Y0056435D01*
X0062825Y0056802D01*
X0062057Y0057052D01*
X0061259Y0057178D01*
X0061236Y0057178D01*
X0061236Y0052428D01*
X0065986Y0052428D01*
X0065915Y0052899D02*
X0120000Y0052899D01*
X0119953Y0054497D02*
X0065365Y0054497D01*
X0064012Y0056096D02*
X0119953Y0056096D01*
X0119953Y0057694D02*
X0019332Y0057694D01*
X0019332Y0056096D02*
X0057698Y0056096D01*
X0057513Y0055961D02*
X0058166Y0056435D01*
X0058886Y0056802D01*
X0059654Y0057052D01*
X0060451Y0057178D01*
X0060474Y0057178D01*
X0060474Y0052428D01*
X0060474Y0051666D01*
X0061236Y0051666D01*
X0061236Y0052428D01*
X0060474Y0052428D01*
X0055724Y0052428D01*
X0055724Y0052451D01*
X0055851Y0053249D01*
X0056100Y0054017D01*
X0056467Y0054736D01*
X0056942Y0055390D01*
X0057513Y0055961D01*
X0056345Y0054497D02*
X0019332Y0054497D01*
X0019332Y0052899D02*
X0055795Y0052899D01*
X0055724Y0051666D02*
X0055724Y0051643D01*
X0055851Y0050846D01*
X0056100Y0050078D01*
X0056467Y0049358D01*
X0056942Y0048705D01*
X0057513Y0048134D01*
X0058166Y0047659D01*
X0058886Y0047292D01*
X0059654Y0047043D01*
X0060451Y0046917D01*
X0060474Y0046917D01*
X0060474Y0051666D01*
X0055724Y0051666D01*
X0055779Y0051300D02*
X0019332Y0051300D01*
X0019332Y0049702D02*
X0056292Y0049702D01*
X0057555Y0048103D02*
X0019332Y0048103D01*
X0020187Y0043308D02*
X0222195Y0043308D01*
X0222900Y0041709D02*
X0021054Y0041709D01*
X0022215Y0040110D02*
X0224561Y0040110D01*
X0226813Y0040110D02*
X0227575Y0040110D01*
X0227575Y0041709D02*
X0226813Y0041709D01*
X0191675Y0062490D02*
X0138904Y0062490D01*
X0137350Y0064088D02*
X0190139Y0064088D01*
X0189477Y0065687D02*
X0128153Y0065687D01*
X0128153Y0067285D02*
X0189370Y0067285D01*
X0189707Y0068884D02*
X0128153Y0068884D01*
X0128390Y0070482D02*
X0190631Y0070482D01*
X0182150Y0078475D02*
X0207277Y0078475D01*
X0204941Y0080073D02*
X0184486Y0080073D01*
X0185592Y0081672D02*
X0203834Y0081672D01*
X0203189Y0083270D02*
X0186238Y0083270D01*
X0186238Y0084869D02*
X0203189Y0084869D01*
X0203455Y0086467D02*
X0185972Y0086467D01*
X0185310Y0088066D02*
X0204117Y0088066D01*
X0205623Y0089664D02*
X0183803Y0089664D01*
X0175623Y0089664D02*
X0079945Y0089664D01*
X0081451Y0088066D02*
X0174117Y0088066D01*
X0173455Y0086467D02*
X0082114Y0086467D01*
X0082380Y0084869D02*
X0173189Y0084869D01*
X0173189Y0083270D02*
X0082380Y0083270D01*
X0083519Y0081672D02*
X0173834Y0081672D01*
X0174941Y0080073D02*
X0085118Y0080073D01*
X0086716Y0078475D02*
X0177277Y0078475D01*
X0132156Y0064088D02*
X0128153Y0064088D01*
X0128904Y0062490D02*
X0130602Y0062490D01*
X0129953Y0060891D02*
X0129553Y0060891D01*
X0129553Y0059293D02*
X0129953Y0059293D01*
X0129953Y0057694D02*
X0129553Y0057694D01*
X0129553Y0056096D02*
X0129953Y0056096D01*
X0129953Y0054497D02*
X0129553Y0054497D01*
X0129505Y0052899D02*
X0130000Y0052899D01*
X0130663Y0051300D02*
X0128843Y0051300D01*
X0126994Y0049702D02*
X0132511Y0049702D01*
X0119953Y0059293D02*
X0019332Y0059293D01*
X0019332Y0060891D02*
X0119953Y0060891D01*
X0120602Y0062490D02*
X0063893Y0062490D01*
X0063882Y0062478D02*
X0065385Y0063981D01*
X0066198Y0065945D01*
X0066198Y0068071D01*
X0065385Y0070035D01*
X0063882Y0071538D01*
X0061918Y0072351D01*
X0059792Y0072351D01*
X0057828Y0071538D01*
X0056325Y0070035D01*
X0055512Y0068071D01*
X0055512Y0065945D01*
X0056325Y0063981D01*
X0057828Y0062478D01*
X0059792Y0061665D01*
X0061918Y0061665D01*
X0063882Y0062478D01*
X0065429Y0064088D02*
X0121353Y0064088D01*
X0121353Y0065687D02*
X0066091Y0065687D01*
X0066198Y0067285D02*
X0121353Y0067285D01*
X0121353Y0068884D02*
X0065862Y0068884D01*
X0064937Y0070482D02*
X0121353Y0070482D01*
X0083494Y0072081D02*
X0062571Y0072081D01*
X0059139Y0072081D02*
X0019332Y0072081D01*
X0019332Y0073679D02*
X0081895Y0073679D01*
X0080297Y0075278D02*
X0019332Y0075278D01*
X0019332Y0076876D02*
X0078698Y0076876D01*
X0073419Y0078475D02*
X0048291Y0078475D01*
X0047153Y0078003D02*
X0044557Y0078003D01*
X0042159Y0078996D01*
X0040324Y0080832D01*
X0039331Y0083230D01*
X0039331Y0085825D01*
X0040324Y0088223D01*
X0042159Y0090059D01*
X0044557Y0091052D01*
X0047153Y0091052D01*
X0049551Y0090059D01*
X0051386Y0088223D01*
X0052380Y0085825D01*
X0052380Y0083230D01*
X0051386Y0080832D01*
X0049551Y0078996D01*
X0047153Y0078003D01*
X0043419Y0078475D02*
X0019332Y0078475D01*
X0019332Y0080073D02*
X0041082Y0080073D01*
X0039976Y0081672D02*
X0019332Y0081672D01*
X0019332Y0083270D02*
X0039331Y0083270D01*
X0039331Y0084869D02*
X0019332Y0084869D01*
X0019332Y0086467D02*
X0039597Y0086467D01*
X0040259Y0088066D02*
X0019332Y0088066D01*
X0019332Y0089664D02*
X0041765Y0089664D01*
X0049945Y0089664D02*
X0071765Y0089664D01*
X0070259Y0088066D02*
X0051451Y0088066D01*
X0052114Y0086467D02*
X0069597Y0086467D01*
X0069331Y0084869D02*
X0052380Y0084869D01*
X0052380Y0083270D02*
X0069331Y0083270D01*
X0069976Y0081672D02*
X0051734Y0081672D01*
X0050628Y0080073D02*
X0071082Y0080073D01*
X0056773Y0070482D02*
X0019332Y0070482D01*
X0019332Y0068884D02*
X0055849Y0068884D01*
X0055512Y0067285D02*
X0019332Y0067285D01*
X0019332Y0065687D02*
X0055619Y0065687D01*
X0056281Y0064088D02*
X0019332Y0064088D01*
X0019332Y0062490D02*
X0057817Y0062490D01*
X0060474Y0056096D02*
X0061236Y0056096D01*
X0061236Y0054497D02*
X0060474Y0054497D01*
X0060474Y0052899D02*
X0061236Y0052899D01*
X0061236Y0051300D02*
X0060474Y0051300D01*
X0060474Y0049702D02*
X0061236Y0049702D01*
X0061236Y0048103D02*
X0060474Y0048103D01*
X0041498Y0129627D02*
X0041346Y0129627D01*
D15*
X0075855Y0084528D02*
X0085698Y0074685D01*
X0127784Y0074685D01*
X0124753Y0071654D01*
X0124753Y0056969D01*
X0127784Y0074685D02*
X0269517Y0074685D01*
X0267391Y0072559D01*
X0267391Y0055000D01*
X0269517Y0074685D02*
X0353414Y0074685D01*
X0363257Y0084528D01*
M02*
