G75*
%MOIN*%
%OFA0B0*%
%FSLAX25Y25*%
%IPPOS*%
%LPD*%
%AMOC8*
5,1,8,0,0,1.08239X$1,22.5*
%
%ADD10C,0.00000*%
%ADD11C,0.00500*%
%ADD12C,0.06000*%
%ADD13C,0.09449*%
%ADD14C,0.07087*%
%ADD15C,0.01600*%
%ADD16C,0.03200*%
D10*
X0029359Y0035315D02*
X0379753Y0035315D01*
X0380038Y0035318D01*
X0380324Y0035329D01*
X0380609Y0035346D01*
X0380893Y0035370D01*
X0381177Y0035401D01*
X0381460Y0035439D01*
X0381741Y0035484D01*
X0382022Y0035535D01*
X0382302Y0035593D01*
X0382580Y0035658D01*
X0382856Y0035730D01*
X0383130Y0035808D01*
X0383403Y0035893D01*
X0383673Y0035985D01*
X0383941Y0036083D01*
X0384207Y0036187D01*
X0384470Y0036298D01*
X0384730Y0036415D01*
X0384988Y0036538D01*
X0385242Y0036668D01*
X0385493Y0036804D01*
X0385741Y0036945D01*
X0385985Y0037093D01*
X0386226Y0037246D01*
X0386462Y0037406D01*
X0386695Y0037571D01*
X0386924Y0037741D01*
X0387149Y0037917D01*
X0387369Y0038099D01*
X0387585Y0038285D01*
X0387796Y0038477D01*
X0388003Y0038674D01*
X0388205Y0038876D01*
X0388402Y0039083D01*
X0388594Y0039294D01*
X0388780Y0039510D01*
X0388962Y0039730D01*
X0389138Y0039955D01*
X0389308Y0040184D01*
X0389473Y0040417D01*
X0389633Y0040653D01*
X0389786Y0040894D01*
X0389934Y0041138D01*
X0390075Y0041386D01*
X0390211Y0041637D01*
X0390341Y0041891D01*
X0390464Y0042149D01*
X0390581Y0042409D01*
X0390692Y0042672D01*
X0390796Y0042938D01*
X0390894Y0043206D01*
X0390986Y0043476D01*
X0391071Y0043749D01*
X0391149Y0044023D01*
X0391221Y0044299D01*
X0391286Y0044577D01*
X0391344Y0044857D01*
X0391395Y0045138D01*
X0391440Y0045419D01*
X0391478Y0045702D01*
X0391509Y0045986D01*
X0391533Y0046270D01*
X0391550Y0046555D01*
X0391561Y0046841D01*
X0391564Y0047126D01*
X0391564Y0121929D01*
X0391561Y0122214D01*
X0391550Y0122500D01*
X0391533Y0122785D01*
X0391509Y0123069D01*
X0391478Y0123353D01*
X0391440Y0123636D01*
X0391395Y0123917D01*
X0391344Y0124198D01*
X0391286Y0124478D01*
X0391221Y0124756D01*
X0391149Y0125032D01*
X0391071Y0125306D01*
X0390986Y0125579D01*
X0390894Y0125849D01*
X0390796Y0126117D01*
X0390692Y0126383D01*
X0390581Y0126646D01*
X0390464Y0126906D01*
X0390341Y0127164D01*
X0390211Y0127418D01*
X0390075Y0127669D01*
X0389934Y0127917D01*
X0389786Y0128161D01*
X0389633Y0128402D01*
X0389473Y0128638D01*
X0389308Y0128871D01*
X0389138Y0129100D01*
X0388962Y0129325D01*
X0388780Y0129545D01*
X0388594Y0129761D01*
X0388402Y0129972D01*
X0388205Y0130179D01*
X0388003Y0130381D01*
X0387796Y0130578D01*
X0387585Y0130770D01*
X0387369Y0130956D01*
X0387149Y0131138D01*
X0386924Y0131314D01*
X0386695Y0131484D01*
X0386462Y0131649D01*
X0386226Y0131809D01*
X0385985Y0131962D01*
X0385741Y0132110D01*
X0385493Y0132251D01*
X0385242Y0132387D01*
X0384988Y0132517D01*
X0384730Y0132640D01*
X0384470Y0132757D01*
X0384207Y0132868D01*
X0383941Y0132972D01*
X0383673Y0133070D01*
X0383403Y0133162D01*
X0383130Y0133247D01*
X0382856Y0133325D01*
X0382580Y0133397D01*
X0382302Y0133462D01*
X0382022Y0133520D01*
X0381741Y0133571D01*
X0381460Y0133616D01*
X0381177Y0133654D01*
X0380893Y0133685D01*
X0380609Y0133709D01*
X0380324Y0133726D01*
X0380038Y0133737D01*
X0379753Y0133740D01*
X0029359Y0133740D01*
X0029074Y0133737D01*
X0028788Y0133726D01*
X0028503Y0133709D01*
X0028219Y0133685D01*
X0027935Y0133654D01*
X0027652Y0133616D01*
X0027371Y0133571D01*
X0027090Y0133520D01*
X0026810Y0133462D01*
X0026532Y0133397D01*
X0026256Y0133325D01*
X0025982Y0133247D01*
X0025709Y0133162D01*
X0025439Y0133070D01*
X0025171Y0132972D01*
X0024905Y0132868D01*
X0024642Y0132757D01*
X0024382Y0132640D01*
X0024124Y0132517D01*
X0023870Y0132387D01*
X0023619Y0132251D01*
X0023371Y0132110D01*
X0023127Y0131962D01*
X0022886Y0131809D01*
X0022650Y0131649D01*
X0022417Y0131484D01*
X0022188Y0131314D01*
X0021963Y0131138D01*
X0021743Y0130956D01*
X0021527Y0130770D01*
X0021316Y0130578D01*
X0021109Y0130381D01*
X0020907Y0130179D01*
X0020710Y0129972D01*
X0020518Y0129761D01*
X0020332Y0129545D01*
X0020150Y0129325D01*
X0019974Y0129100D01*
X0019804Y0128871D01*
X0019639Y0128638D01*
X0019479Y0128402D01*
X0019326Y0128161D01*
X0019178Y0127917D01*
X0019037Y0127669D01*
X0018901Y0127418D01*
X0018771Y0127164D01*
X0018648Y0126906D01*
X0018531Y0126646D01*
X0018420Y0126383D01*
X0018316Y0126117D01*
X0018218Y0125849D01*
X0018126Y0125579D01*
X0018041Y0125306D01*
X0017963Y0125032D01*
X0017891Y0124756D01*
X0017826Y0124478D01*
X0017768Y0124198D01*
X0017717Y0123917D01*
X0017672Y0123636D01*
X0017634Y0123353D01*
X0017603Y0123069D01*
X0017579Y0122785D01*
X0017562Y0122500D01*
X0017551Y0122214D01*
X0017548Y0121929D01*
X0017548Y0047126D01*
X0017551Y0046841D01*
X0017562Y0046555D01*
X0017579Y0046270D01*
X0017603Y0045986D01*
X0017634Y0045702D01*
X0017672Y0045419D01*
X0017717Y0045138D01*
X0017768Y0044857D01*
X0017826Y0044577D01*
X0017891Y0044299D01*
X0017963Y0044023D01*
X0018041Y0043749D01*
X0018126Y0043476D01*
X0018218Y0043206D01*
X0018316Y0042938D01*
X0018420Y0042672D01*
X0018531Y0042409D01*
X0018648Y0042149D01*
X0018771Y0041891D01*
X0018901Y0041637D01*
X0019037Y0041386D01*
X0019178Y0041138D01*
X0019326Y0040894D01*
X0019479Y0040653D01*
X0019639Y0040417D01*
X0019804Y0040184D01*
X0019974Y0039955D01*
X0020150Y0039730D01*
X0020332Y0039510D01*
X0020518Y0039294D01*
X0020710Y0039083D01*
X0020907Y0038876D01*
X0021109Y0038674D01*
X0021316Y0038477D01*
X0021527Y0038285D01*
X0021743Y0038099D01*
X0021963Y0037917D01*
X0022188Y0037741D01*
X0022417Y0037571D01*
X0022650Y0037406D01*
X0022886Y0037246D01*
X0023127Y0037093D01*
X0023371Y0036945D01*
X0023619Y0036804D01*
X0023870Y0036668D01*
X0024124Y0036538D01*
X0024382Y0036415D01*
X0024642Y0036298D01*
X0024905Y0036187D01*
X0025171Y0036083D01*
X0025439Y0035985D01*
X0025709Y0035893D01*
X0025982Y0035808D01*
X0026256Y0035730D01*
X0026532Y0035658D01*
X0026810Y0035593D01*
X0027090Y0035535D01*
X0027371Y0035484D01*
X0027652Y0035439D01*
X0027935Y0035401D01*
X0028219Y0035370D01*
X0028503Y0035346D01*
X0028788Y0035329D01*
X0029074Y0035318D01*
X0029359Y0035315D01*
D11*
X0040354Y0123616D02*
X0040354Y0128120D01*
X0038853Y0128120D02*
X0041855Y0128120D01*
X0043457Y0128120D02*
X0043457Y0123616D01*
X0046459Y0123616D02*
X0046459Y0128120D01*
X0048061Y0128120D02*
X0050313Y0128120D01*
X0051063Y0127369D01*
X0051063Y0125868D01*
X0050313Y0125117D01*
X0048061Y0125117D01*
X0048061Y0123616D02*
X0048061Y0128120D01*
X0046459Y0125868D02*
X0043457Y0125868D01*
X0049562Y0125117D02*
X0051063Y0123616D01*
X0052665Y0124367D02*
X0053415Y0123616D01*
X0054916Y0123616D01*
X0055667Y0124367D01*
X0055667Y0127369D01*
X0054916Y0128120D01*
X0053415Y0128120D01*
X0052665Y0127369D01*
X0052665Y0124367D01*
X0057268Y0124367D02*
X0058019Y0123616D01*
X0059520Y0123616D01*
X0060271Y0124367D01*
X0060271Y0128120D01*
X0061872Y0127369D02*
X0061872Y0124367D01*
X0062623Y0123616D01*
X0064124Y0123616D01*
X0064875Y0124367D01*
X0064875Y0125868D01*
X0063374Y0125868D01*
X0064875Y0127369D02*
X0064124Y0128120D01*
X0062623Y0128120D01*
X0061872Y0127369D01*
X0066476Y0128120D02*
X0066476Y0123616D01*
X0069479Y0123616D02*
X0069479Y0128120D01*
X0069479Y0125868D02*
X0066476Y0125868D01*
X0071080Y0125868D02*
X0074083Y0125868D01*
X0075684Y0128120D02*
X0077185Y0128120D01*
X0076435Y0128120D02*
X0076435Y0123616D01*
X0077185Y0123616D02*
X0075684Y0123616D01*
X0078753Y0123616D02*
X0078753Y0128120D01*
X0081756Y0123616D01*
X0081756Y0128120D01*
X0057268Y0128120D02*
X0057268Y0124367D01*
X0169642Y0128120D02*
X0172644Y0128120D01*
X0171143Y0128120D02*
X0171143Y0123616D01*
X0174246Y0123616D02*
X0174246Y0128120D01*
X0174246Y0125868D02*
X0177248Y0125868D01*
X0178850Y0125117D02*
X0181102Y0125117D01*
X0181852Y0125868D01*
X0181852Y0127369D01*
X0181102Y0128120D01*
X0178850Y0128120D01*
X0178850Y0123616D01*
X0177248Y0123616D02*
X0177248Y0128120D01*
X0183454Y0127369D02*
X0183454Y0124367D01*
X0184204Y0123616D01*
X0185705Y0123616D01*
X0186456Y0124367D01*
X0186456Y0127369D01*
X0185705Y0128120D01*
X0184204Y0128120D01*
X0183454Y0127369D01*
X0180351Y0125117D02*
X0181852Y0123616D01*
X0188057Y0124367D02*
X0188808Y0123616D01*
X0190309Y0123616D01*
X0191060Y0124367D01*
X0191060Y0128120D01*
X0192661Y0127369D02*
X0192661Y0124367D01*
X0193412Y0123616D01*
X0194913Y0123616D01*
X0195664Y0124367D01*
X0195664Y0125868D01*
X0194163Y0125868D01*
X0195664Y0127369D02*
X0194913Y0128120D01*
X0193412Y0128120D01*
X0192661Y0127369D01*
X0197265Y0128120D02*
X0197265Y0123616D01*
X0200268Y0123616D02*
X0200268Y0128120D01*
X0200268Y0125868D02*
X0197265Y0125868D01*
X0201869Y0125868D02*
X0204872Y0125868D01*
X0206473Y0127369D02*
X0206473Y0124367D01*
X0207224Y0123616D01*
X0208725Y0123616D01*
X0209476Y0124367D01*
X0209476Y0127369D01*
X0208725Y0128120D01*
X0207224Y0128120D01*
X0206473Y0127369D01*
X0211077Y0128120D02*
X0211077Y0124367D01*
X0211828Y0123616D01*
X0213329Y0123616D01*
X0214080Y0124367D01*
X0214080Y0128120D01*
X0215681Y0128120D02*
X0218684Y0128120D01*
X0217182Y0128120D02*
X0217182Y0123616D01*
X0188057Y0124367D02*
X0188057Y0128120D01*
X0341601Y0128120D02*
X0341601Y0123616D01*
X0344603Y0123616D01*
X0346205Y0123616D02*
X0346205Y0128120D01*
X0349207Y0123616D01*
X0349207Y0128120D01*
X0350809Y0128120D02*
X0353061Y0128120D01*
X0353811Y0127369D01*
X0353811Y0124367D01*
X0353061Y0123616D01*
X0350809Y0123616D01*
X0350809Y0128120D01*
X0344603Y0128120D02*
X0341601Y0128120D01*
X0341601Y0125868D02*
X0343102Y0125868D01*
D12*
X0287391Y0058000D02*
X0287391Y0052000D01*
X0277391Y0052000D02*
X0277391Y0058000D01*
X0267391Y0058000D02*
X0267391Y0052000D01*
X0134753Y0053969D02*
X0134753Y0059969D01*
X0124753Y0059969D02*
X0124753Y0053969D01*
D13*
X0075855Y0084528D03*
X0045855Y0084528D03*
X0179713Y0084528D03*
X0209713Y0084528D03*
X0333257Y0084528D03*
X0363257Y0084528D03*
D14*
X0348257Y0067008D03*
X0348257Y0052047D03*
X0227194Y0044528D03*
X0194713Y0067008D03*
X0060855Y0067008D03*
X0060855Y0052047D03*
D15*
X0056043Y0049702D02*
X0019332Y0049702D01*
X0019332Y0051300D02*
X0055512Y0051300D01*
X0055512Y0050984D02*
X0056325Y0049020D01*
X0057828Y0047517D01*
X0059792Y0046704D01*
X0061918Y0046704D01*
X0063882Y0047517D01*
X0065385Y0049020D01*
X0066198Y0050984D01*
X0066198Y0053110D01*
X0065385Y0055074D01*
X0063882Y0056577D01*
X0061918Y0057391D01*
X0059792Y0057391D01*
X0057828Y0056577D01*
X0056325Y0055074D01*
X0055512Y0053110D01*
X0055512Y0050984D01*
X0057243Y0048103D02*
X0019332Y0048103D01*
X0019332Y0047126D02*
X0019332Y0121929D01*
X0019456Y0123498D01*
X0020425Y0126481D01*
X0022269Y0129019D01*
X0024807Y0130863D01*
X0027791Y0131832D01*
X0029359Y0131956D01*
X0030098Y0131956D01*
X0379753Y0131956D01*
X0381321Y0131832D01*
X0384305Y0130863D01*
X0386843Y0129019D01*
X0388687Y0126481D01*
X0389656Y0123498D01*
X0389780Y0121929D01*
X0389780Y0047126D01*
X0389656Y0045557D01*
X0388687Y0042574D01*
X0386843Y0040036D01*
X0384305Y0038192D01*
X0381321Y0037223D01*
X0379753Y0037099D01*
X0029359Y0037099D01*
X0027791Y0037223D01*
X0024807Y0038192D01*
X0022269Y0040036D01*
X0020425Y0042574D01*
X0019456Y0045557D01*
X0019332Y0047126D01*
X0019381Y0046505D02*
X0222229Y0046505D01*
X0221850Y0045590D02*
X0222664Y0047554D01*
X0224167Y0049057D01*
X0226131Y0049871D01*
X0228257Y0049871D01*
X0230220Y0049057D01*
X0231724Y0047554D01*
X0232537Y0045590D01*
X0232537Y0043465D01*
X0231724Y0041501D01*
X0230220Y0039998D01*
X0228257Y0039184D01*
X0226131Y0039184D01*
X0224167Y0039998D01*
X0222664Y0041501D01*
X0221850Y0043465D01*
X0221850Y0045590D01*
X0221850Y0044906D02*
X0019667Y0044906D01*
X0020187Y0043308D02*
X0221916Y0043308D01*
X0222578Y0041709D02*
X0021054Y0041709D01*
X0022215Y0040110D02*
X0224054Y0040110D01*
X0230333Y0040110D02*
X0386897Y0040110D01*
X0388058Y0041709D02*
X0231810Y0041709D01*
X0232472Y0043308D02*
X0388925Y0043308D01*
X0389444Y0044906D02*
X0232537Y0044906D01*
X0232158Y0046505D02*
X0389731Y0046505D01*
X0389780Y0048103D02*
X0351869Y0048103D01*
X0351283Y0047517D02*
X0352787Y0049020D01*
X0353600Y0050984D01*
X0353600Y0053110D01*
X0352787Y0055074D01*
X0351283Y0056577D01*
X0349320Y0057391D01*
X0347194Y0057391D01*
X0345230Y0056577D01*
X0343727Y0055074D01*
X0342913Y0053110D01*
X0342913Y0050984D01*
X0343727Y0049020D01*
X0345230Y0047517D01*
X0347194Y0046704D01*
X0349320Y0046704D01*
X0351283Y0047517D01*
X0344644Y0048103D02*
X0290282Y0048103D01*
X0290110Y0047931D02*
X0291460Y0049281D01*
X0292191Y0051045D01*
X0292191Y0058955D01*
X0291460Y0060719D01*
X0290791Y0061388D01*
X0290791Y0069298D01*
X0290273Y0070548D01*
X0289316Y0071504D01*
X0279693Y0081128D01*
X0327603Y0081128D01*
X0327726Y0080832D01*
X0329561Y0078996D01*
X0331959Y0078003D01*
X0334554Y0078003D01*
X0336952Y0078996D01*
X0338788Y0080832D01*
X0339781Y0083230D01*
X0339781Y0085825D01*
X0338788Y0088223D01*
X0336952Y0090059D01*
X0334554Y0091052D01*
X0331959Y0091052D01*
X0329561Y0090059D01*
X0327726Y0088223D01*
X0327603Y0087928D01*
X0215367Y0087928D01*
X0215245Y0088223D01*
X0213409Y0090059D01*
X0211011Y0091052D01*
X0208416Y0091052D01*
X0208120Y0090929D01*
X0202753Y0096296D01*
X0201797Y0097252D01*
X0200547Y0097770D01*
X0055021Y0097770D01*
X0053772Y0097252D01*
X0052815Y0096296D01*
X0047449Y0090929D01*
X0047153Y0091052D01*
X0044557Y0091052D01*
X0042159Y0090059D01*
X0040324Y0088223D01*
X0039331Y0085825D01*
X0039331Y0083230D01*
X0040324Y0080832D01*
X0042159Y0078996D01*
X0044557Y0078003D01*
X0047153Y0078003D01*
X0049551Y0078996D01*
X0051386Y0080832D01*
X0052380Y0083230D01*
X0052380Y0085825D01*
X0052257Y0086121D01*
X0057106Y0090970D01*
X0074360Y0090970D01*
X0072159Y0090059D01*
X0070324Y0088223D01*
X0069331Y0085825D01*
X0069331Y0083230D01*
X0070324Y0080832D01*
X0072159Y0078996D01*
X0074557Y0078003D01*
X0077153Y0078003D01*
X0079551Y0078996D01*
X0081386Y0080832D01*
X0082380Y0083230D01*
X0082380Y0085825D01*
X0081386Y0088223D01*
X0079551Y0090059D01*
X0077351Y0090970D01*
X0198463Y0090970D01*
X0203312Y0086121D01*
X0203189Y0085825D01*
X0203189Y0083230D01*
X0204182Y0080832D01*
X0206018Y0078996D01*
X0208416Y0078003D01*
X0211011Y0078003D01*
X0213409Y0078996D01*
X0215245Y0080832D01*
X0215367Y0081128D01*
X0270077Y0081128D01*
X0283991Y0067214D01*
X0283991Y0061388D01*
X0283321Y0060719D01*
X0282591Y0058955D01*
X0282591Y0051045D01*
X0283321Y0049281D01*
X0284672Y0047931D01*
X0286436Y0047200D01*
X0288345Y0047200D01*
X0290110Y0047931D01*
X0291634Y0049702D02*
X0343445Y0049702D01*
X0342913Y0051300D02*
X0292191Y0051300D01*
X0292191Y0052899D02*
X0342913Y0052899D01*
X0343488Y0054497D02*
X0292191Y0054497D01*
X0292191Y0056096D02*
X0344748Y0056096D01*
X0351765Y0056096D02*
X0389780Y0056096D01*
X0389780Y0057694D02*
X0292191Y0057694D01*
X0292051Y0059293D02*
X0389780Y0059293D01*
X0389780Y0060891D02*
X0291288Y0060891D01*
X0290791Y0062490D02*
X0345823Y0062490D01*
X0345568Y0062620D02*
X0346287Y0062253D01*
X0347055Y0062003D01*
X0347853Y0061877D01*
X0347876Y0061877D01*
X0347876Y0066627D01*
X0348638Y0066627D01*
X0348638Y0067389D01*
X0353387Y0067389D01*
X0353387Y0067412D01*
X0353261Y0068209D01*
X0353011Y0068977D01*
X0352645Y0069697D01*
X0352170Y0070350D01*
X0351599Y0070921D01*
X0350946Y0071396D01*
X0350226Y0071763D01*
X0349458Y0072012D01*
X0348660Y0072139D01*
X0348638Y0072139D01*
X0348638Y0067389D01*
X0347876Y0067389D01*
X0347876Y0072139D01*
X0347853Y0072139D01*
X0347055Y0072012D01*
X0346287Y0071763D01*
X0345568Y0071396D01*
X0344914Y0070921D01*
X0344343Y0070350D01*
X0343869Y0069697D01*
X0343502Y0068977D01*
X0343252Y0068209D01*
X0343126Y0067412D01*
X0343126Y0067389D01*
X0347876Y0067389D01*
X0347876Y0066627D01*
X0343126Y0066627D01*
X0343126Y0066604D01*
X0343252Y0065806D01*
X0343502Y0065038D01*
X0343869Y0064319D01*
X0344343Y0063665D01*
X0344914Y0063094D01*
X0345568Y0062620D01*
X0344036Y0064088D02*
X0290791Y0064088D01*
X0290791Y0065687D02*
X0343291Y0065687D01*
X0343471Y0068884D02*
X0290791Y0068884D01*
X0290791Y0067285D02*
X0347876Y0067285D01*
X0348638Y0067285D02*
X0389780Y0067285D01*
X0389780Y0065687D02*
X0353222Y0065687D01*
X0353261Y0065806D02*
X0353387Y0066604D01*
X0353387Y0066627D01*
X0348638Y0066627D01*
X0348638Y0061877D01*
X0348660Y0061877D01*
X0349458Y0062003D01*
X0350226Y0062253D01*
X0350946Y0062620D01*
X0351599Y0063094D01*
X0352170Y0063665D01*
X0352645Y0064319D01*
X0353011Y0065038D01*
X0353261Y0065806D01*
X0352477Y0064088D02*
X0389780Y0064088D01*
X0389780Y0062490D02*
X0350691Y0062490D01*
X0348638Y0062490D02*
X0347876Y0062490D01*
X0347876Y0064088D02*
X0348638Y0064088D01*
X0348638Y0065687D02*
X0347876Y0065687D01*
X0347876Y0068884D02*
X0348638Y0068884D01*
X0348638Y0070482D02*
X0347876Y0070482D01*
X0347876Y0072081D02*
X0348638Y0072081D01*
X0349026Y0072081D02*
X0389780Y0072081D01*
X0389780Y0073679D02*
X0287142Y0073679D01*
X0288740Y0072081D02*
X0347488Y0072081D01*
X0344475Y0070482D02*
X0290300Y0070482D01*
X0282321Y0068884D02*
X0276189Y0068884D01*
X0275183Y0069890D02*
X0273933Y0070408D01*
X0198870Y0070408D01*
X0197740Y0071538D01*
X0195776Y0072351D01*
X0193651Y0072351D01*
X0191687Y0071538D01*
X0190557Y0070408D01*
X0065012Y0070408D01*
X0063882Y0071538D01*
X0061918Y0072351D01*
X0059792Y0072351D01*
X0057828Y0071538D01*
X0056325Y0070035D01*
X0055512Y0068071D01*
X0055512Y0065945D01*
X0056325Y0063981D01*
X0057828Y0062478D01*
X0059792Y0061665D01*
X0061918Y0061665D01*
X0063882Y0062478D01*
X0065012Y0063608D01*
X0121604Y0063608D01*
X0120684Y0062687D01*
X0119953Y0060923D01*
X0119953Y0053014D01*
X0120684Y0051250D01*
X0122034Y0049899D01*
X0123798Y0049169D01*
X0125708Y0049169D01*
X0127472Y0049899D01*
X0128822Y0051250D01*
X0129553Y0053014D01*
X0129553Y0060923D01*
X0128822Y0062687D01*
X0127902Y0063608D01*
X0131957Y0063608D01*
X0131764Y0063468D01*
X0131254Y0062957D01*
X0130829Y0062373D01*
X0130501Y0061729D01*
X0130278Y0061043D01*
X0130165Y0060330D01*
X0130165Y0057169D01*
X0134553Y0057169D01*
X0134553Y0056768D01*
X0134953Y0056768D01*
X0134953Y0049381D01*
X0135114Y0049381D01*
X0135827Y0049494D01*
X0136514Y0049717D01*
X0137157Y0050045D01*
X0137741Y0050469D01*
X0138252Y0050980D01*
X0138676Y0051564D01*
X0139004Y0052208D01*
X0139227Y0052894D01*
X0139340Y0053607D01*
X0139340Y0056768D01*
X0134953Y0056768D01*
X0134953Y0057169D01*
X0139340Y0057169D01*
X0139340Y0060330D01*
X0139227Y0061043D01*
X0139004Y0061729D01*
X0138676Y0062373D01*
X0138252Y0062957D01*
X0137741Y0063468D01*
X0137548Y0063608D01*
X0190557Y0063608D01*
X0191687Y0062478D01*
X0193651Y0061665D01*
X0195776Y0061665D01*
X0197740Y0062478D01*
X0198870Y0063608D01*
X0271848Y0063608D01*
X0273991Y0061466D01*
X0273991Y0061388D01*
X0273321Y0060719D01*
X0272591Y0058955D01*
X0272591Y0051045D01*
X0273321Y0049281D01*
X0274672Y0047931D01*
X0276436Y0047200D01*
X0278345Y0047200D01*
X0280110Y0047931D01*
X0281460Y0049281D01*
X0282191Y0051045D01*
X0282191Y0058955D01*
X0281460Y0060719D01*
X0280791Y0061388D01*
X0280791Y0063550D01*
X0280273Y0064800D01*
X0279316Y0065756D01*
X0275183Y0069890D01*
X0279124Y0072081D02*
X0196429Y0072081D01*
X0198796Y0070482D02*
X0280722Y0070482D01*
X0277788Y0067285D02*
X0283919Y0067285D01*
X0283991Y0065687D02*
X0279386Y0065687D01*
X0280568Y0064088D02*
X0283991Y0064088D01*
X0283991Y0062490D02*
X0280791Y0062490D01*
X0281288Y0060891D02*
X0283493Y0060891D01*
X0282730Y0059293D02*
X0282051Y0059293D01*
X0282191Y0057694D02*
X0282591Y0057694D01*
X0282591Y0056096D02*
X0282191Y0056096D01*
X0282191Y0054497D02*
X0282591Y0054497D01*
X0282591Y0052899D02*
X0282191Y0052899D01*
X0282191Y0051300D02*
X0282591Y0051300D01*
X0283147Y0049702D02*
X0281634Y0049702D01*
X0280282Y0048103D02*
X0284499Y0048103D01*
X0274499Y0048103D02*
X0270282Y0048103D01*
X0270110Y0047931D02*
X0271460Y0049281D01*
X0272191Y0051045D01*
X0272191Y0058955D01*
X0271460Y0060719D01*
X0270110Y0062069D01*
X0268345Y0062800D01*
X0266436Y0062800D01*
X0264672Y0062069D01*
X0263321Y0060719D01*
X0262591Y0058955D01*
X0262591Y0051045D01*
X0263321Y0049281D01*
X0264672Y0047931D01*
X0266436Y0047200D01*
X0268345Y0047200D01*
X0270110Y0047931D01*
X0271634Y0049702D02*
X0273147Y0049702D01*
X0272591Y0051300D02*
X0272191Y0051300D01*
X0272191Y0052899D02*
X0272591Y0052899D01*
X0272591Y0054497D02*
X0272191Y0054497D01*
X0272191Y0056096D02*
X0272591Y0056096D01*
X0272591Y0057694D02*
X0272191Y0057694D01*
X0272051Y0059293D02*
X0272730Y0059293D01*
X0273493Y0060891D02*
X0271288Y0060891D01*
X0272967Y0062490D02*
X0269095Y0062490D01*
X0265687Y0062490D02*
X0197752Y0062490D01*
X0191675Y0062490D02*
X0138591Y0062490D01*
X0139251Y0060891D02*
X0263493Y0060891D01*
X0262730Y0059293D02*
X0139340Y0059293D01*
X0139340Y0057694D02*
X0262591Y0057694D01*
X0262591Y0056096D02*
X0139340Y0056096D01*
X0139340Y0054497D02*
X0262591Y0054497D01*
X0262591Y0052899D02*
X0139228Y0052899D01*
X0138484Y0051300D02*
X0262591Y0051300D01*
X0263147Y0049702D02*
X0228665Y0049702D01*
X0225722Y0049702D02*
X0136466Y0049702D01*
X0134953Y0049702D02*
X0134553Y0049702D01*
X0134553Y0049381D02*
X0134553Y0056768D01*
X0130165Y0056768D01*
X0130165Y0053607D01*
X0130278Y0052894D01*
X0130501Y0052208D01*
X0130829Y0051564D01*
X0131254Y0050980D01*
X0131764Y0050469D01*
X0132348Y0050045D01*
X0132992Y0049717D01*
X0133679Y0049494D01*
X0134392Y0049381D01*
X0134553Y0049381D01*
X0133040Y0049702D02*
X0126994Y0049702D01*
X0128843Y0051300D02*
X0131021Y0051300D01*
X0130278Y0052899D02*
X0129505Y0052899D01*
X0129553Y0054497D02*
X0130165Y0054497D01*
X0130165Y0056096D02*
X0129553Y0056096D01*
X0129553Y0057694D02*
X0130165Y0057694D01*
X0130165Y0059293D02*
X0129553Y0059293D01*
X0129553Y0060891D02*
X0130254Y0060891D01*
X0130914Y0062490D02*
X0128904Y0062490D01*
X0120602Y0062490D02*
X0063893Y0062490D01*
X0057817Y0062490D02*
X0019332Y0062490D01*
X0019332Y0064088D02*
X0056281Y0064088D01*
X0055619Y0065687D02*
X0019332Y0065687D01*
X0019332Y0067285D02*
X0055512Y0067285D01*
X0055849Y0068884D02*
X0019332Y0068884D01*
X0019332Y0070482D02*
X0056773Y0070482D01*
X0059139Y0072081D02*
X0019332Y0072081D01*
X0019332Y0073679D02*
X0277525Y0073679D01*
X0275927Y0075278D02*
X0019332Y0075278D01*
X0019332Y0076876D02*
X0274328Y0076876D01*
X0272730Y0078475D02*
X0212150Y0078475D01*
X0214486Y0080073D02*
X0271131Y0080073D01*
X0280748Y0080073D02*
X0328484Y0080073D01*
X0330820Y0078475D02*
X0282346Y0078475D01*
X0283945Y0076876D02*
X0389780Y0076876D01*
X0389780Y0075278D02*
X0285543Y0075278D01*
X0327660Y0088066D02*
X0215310Y0088066D01*
X0213803Y0089664D02*
X0329167Y0089664D01*
X0337347Y0089664D02*
X0359167Y0089664D01*
X0359561Y0090059D02*
X0357726Y0088223D01*
X0356732Y0085825D01*
X0356732Y0083230D01*
X0357726Y0080832D01*
X0359561Y0078996D01*
X0361959Y0078003D01*
X0364554Y0078003D01*
X0366952Y0078996D01*
X0368788Y0080832D01*
X0369781Y0083230D01*
X0369781Y0085825D01*
X0368788Y0088223D01*
X0366952Y0090059D01*
X0364554Y0091052D01*
X0361959Y0091052D01*
X0359561Y0090059D01*
X0357660Y0088066D02*
X0338853Y0088066D01*
X0339515Y0086467D02*
X0356998Y0086467D01*
X0356732Y0084869D02*
X0339781Y0084869D01*
X0339781Y0083270D02*
X0356732Y0083270D01*
X0357378Y0081672D02*
X0339136Y0081672D01*
X0338029Y0080073D02*
X0358484Y0080073D01*
X0360820Y0078475D02*
X0335693Y0078475D01*
X0352038Y0070482D02*
X0389780Y0070482D01*
X0389780Y0068884D02*
X0353042Y0068884D01*
X0365693Y0078475D02*
X0389780Y0078475D01*
X0389780Y0080073D02*
X0368029Y0080073D01*
X0369136Y0081672D02*
X0389780Y0081672D01*
X0389780Y0083270D02*
X0369781Y0083270D01*
X0369781Y0084869D02*
X0389780Y0084869D01*
X0389780Y0086467D02*
X0369515Y0086467D01*
X0368853Y0088066D02*
X0389780Y0088066D01*
X0389780Y0089664D02*
X0367347Y0089664D01*
X0389780Y0091263D02*
X0207786Y0091263D01*
X0206188Y0092861D02*
X0389780Y0092861D01*
X0389780Y0094460D02*
X0204589Y0094460D01*
X0202991Y0096058D02*
X0389780Y0096058D01*
X0389780Y0097657D02*
X0200820Y0097657D01*
X0199768Y0089664D02*
X0183381Y0089664D01*
X0183021Y0089926D02*
X0182136Y0090377D01*
X0181191Y0090684D01*
X0180488Y0090795D01*
X0180488Y0085302D01*
X0185981Y0085302D01*
X0185870Y0086006D01*
X0185563Y0086950D01*
X0185112Y0087836D01*
X0184528Y0088639D01*
X0183825Y0089342D01*
X0183021Y0089926D01*
X0180488Y0089664D02*
X0178939Y0089664D01*
X0178939Y0090795D02*
X0178235Y0090684D01*
X0177290Y0090377D01*
X0176405Y0089926D01*
X0175602Y0089342D01*
X0174899Y0088639D01*
X0174315Y0087836D01*
X0173864Y0086950D01*
X0173557Y0086006D01*
X0173446Y0085302D01*
X0178938Y0085302D01*
X0178938Y0083753D01*
X0173446Y0083753D01*
X0173557Y0083050D01*
X0173864Y0082105D01*
X0174315Y0081219D01*
X0174899Y0080416D01*
X0175602Y0079713D01*
X0176405Y0079129D01*
X0177290Y0078678D01*
X0178235Y0078371D01*
X0178939Y0078260D01*
X0178939Y0083753D01*
X0180488Y0083753D01*
X0180488Y0085302D01*
X0178939Y0085302D01*
X0178939Y0090795D01*
X0176045Y0089664D02*
X0079945Y0089664D01*
X0081451Y0088066D02*
X0174482Y0088066D01*
X0173707Y0086467D02*
X0082114Y0086467D01*
X0082380Y0084869D02*
X0178938Y0084869D01*
X0180488Y0084869D02*
X0203189Y0084869D01*
X0203189Y0083270D02*
X0185905Y0083270D01*
X0185870Y0083050D02*
X0185981Y0083753D01*
X0180488Y0083753D01*
X0180488Y0078260D01*
X0181191Y0078371D01*
X0182136Y0078678D01*
X0183021Y0079129D01*
X0183825Y0079713D01*
X0184528Y0080416D01*
X0185112Y0081219D01*
X0185563Y0082105D01*
X0185870Y0083050D01*
X0185342Y0081672D02*
X0203834Y0081672D01*
X0204941Y0080073D02*
X0184185Y0080073D01*
X0181510Y0078475D02*
X0207277Y0078475D01*
X0202965Y0086467D02*
X0185720Y0086467D01*
X0184945Y0088066D02*
X0201367Y0088066D01*
X0180488Y0088066D02*
X0178939Y0088066D01*
X0178939Y0086467D02*
X0180488Y0086467D01*
X0180488Y0083270D02*
X0178939Y0083270D01*
X0178939Y0081672D02*
X0180488Y0081672D01*
X0180488Y0080073D02*
X0178939Y0080073D01*
X0178939Y0078475D02*
X0180488Y0078475D01*
X0177916Y0078475D02*
X0078291Y0078475D01*
X0080628Y0080073D02*
X0175241Y0080073D01*
X0174085Y0081672D02*
X0081734Y0081672D01*
X0082380Y0083270D02*
X0173522Y0083270D01*
X0192998Y0072081D02*
X0062571Y0072081D01*
X0064937Y0070482D02*
X0190631Y0070482D01*
X0223213Y0048103D02*
X0064467Y0048103D01*
X0065667Y0049702D02*
X0122511Y0049702D01*
X0120663Y0051300D02*
X0066198Y0051300D01*
X0066198Y0052899D02*
X0120000Y0052899D01*
X0119953Y0054497D02*
X0065624Y0054497D01*
X0064363Y0056096D02*
X0119953Y0056096D01*
X0119953Y0057694D02*
X0019332Y0057694D01*
X0019332Y0056096D02*
X0057347Y0056096D01*
X0056086Y0054497D02*
X0019332Y0054497D01*
X0019332Y0052899D02*
X0055512Y0052899D01*
X0024367Y0038512D02*
X0384745Y0038512D01*
X0389780Y0049702D02*
X0353069Y0049702D01*
X0353600Y0051300D02*
X0389780Y0051300D01*
X0389780Y0052899D02*
X0353600Y0052899D01*
X0353025Y0054497D02*
X0389780Y0054497D01*
X0389780Y0099255D02*
X0019332Y0099255D01*
X0019332Y0097657D02*
X0054748Y0097657D01*
X0052815Y0096296D02*
X0052815Y0096296D01*
X0052578Y0096058D02*
X0019332Y0096058D01*
X0019332Y0094460D02*
X0050979Y0094460D01*
X0049381Y0092861D02*
X0019332Y0092861D01*
X0019332Y0091263D02*
X0047782Y0091263D01*
X0041765Y0089664D02*
X0019332Y0089664D01*
X0019332Y0088066D02*
X0040259Y0088066D01*
X0039597Y0086467D02*
X0019332Y0086467D01*
X0019332Y0084869D02*
X0039331Y0084869D01*
X0039331Y0083270D02*
X0019332Y0083270D01*
X0019332Y0081672D02*
X0039976Y0081672D01*
X0041082Y0080073D02*
X0019332Y0080073D01*
X0019332Y0078475D02*
X0043419Y0078475D01*
X0048291Y0078475D02*
X0073419Y0078475D01*
X0071082Y0080073D02*
X0050628Y0080073D01*
X0051734Y0081672D02*
X0069976Y0081672D01*
X0069331Y0083270D02*
X0052380Y0083270D01*
X0052380Y0084869D02*
X0069331Y0084869D01*
X0069597Y0086467D02*
X0052603Y0086467D01*
X0054202Y0088066D02*
X0070259Y0088066D01*
X0071765Y0089664D02*
X0055800Y0089664D01*
X0019332Y0100854D02*
X0389780Y0100854D01*
X0389780Y0102452D02*
X0019332Y0102452D01*
X0019332Y0104051D02*
X0389780Y0104051D01*
X0389780Y0105649D02*
X0019332Y0105649D01*
X0019332Y0107248D02*
X0389780Y0107248D01*
X0389780Y0108846D02*
X0019332Y0108846D01*
X0019332Y0110445D02*
X0389780Y0110445D01*
X0389780Y0112044D02*
X0019332Y0112044D01*
X0019332Y0113642D02*
X0389780Y0113642D01*
X0389780Y0115241D02*
X0019332Y0115241D01*
X0019332Y0116839D02*
X0389780Y0116839D01*
X0389780Y0118438D02*
X0019332Y0118438D01*
X0019332Y0120036D02*
X0389780Y0120036D01*
X0389780Y0121635D02*
X0353978Y0121635D01*
X0353910Y0121566D02*
X0354660Y0122317D01*
X0355861Y0123518D01*
X0355861Y0128218D01*
X0355111Y0128969D01*
X0353910Y0130170D01*
X0348358Y0130170D01*
X0347724Y0129536D01*
X0347439Y0129964D01*
X0347215Y0130008D01*
X0347054Y0130170D01*
X0346408Y0130170D01*
X0345774Y0130297D01*
X0345584Y0130170D01*
X0345452Y0130170D01*
X0340752Y0130170D01*
X0339551Y0128969D01*
X0339551Y0122767D01*
X0340752Y0121566D01*
X0347054Y0121566D01*
X0347688Y0122200D01*
X0347973Y0121772D01*
X0348197Y0121728D01*
X0348358Y0121566D01*
X0349004Y0121566D01*
X0349638Y0121439D01*
X0349828Y0121566D01*
X0353910Y0121566D01*
X0355577Y0123233D02*
X0389677Y0123233D01*
X0389223Y0124832D02*
X0355861Y0124832D01*
X0355861Y0126430D02*
X0388703Y0126430D01*
X0387562Y0128029D02*
X0355861Y0128029D01*
X0354453Y0129627D02*
X0386006Y0129627D01*
X0383189Y0131226D02*
X0025923Y0131226D01*
X0023106Y0129627D02*
X0037461Y0129627D01*
X0038004Y0130170D02*
X0036803Y0128969D01*
X0036803Y0127271D01*
X0038004Y0126070D01*
X0038304Y0126070D01*
X0038304Y0122767D01*
X0039505Y0121566D01*
X0041203Y0121566D01*
X0041905Y0122268D01*
X0042608Y0121566D01*
X0044306Y0121566D01*
X0044958Y0122218D01*
X0045610Y0121566D01*
X0048910Y0121566D01*
X0049562Y0122218D01*
X0050214Y0121566D01*
X0051912Y0121566D01*
X0052239Y0121893D01*
X0052566Y0121566D01*
X0055766Y0121566D01*
X0056468Y0122268D01*
X0057170Y0121566D01*
X0060370Y0121566D01*
X0061072Y0122268D01*
X0061774Y0121566D01*
X0064973Y0121566D01*
X0065300Y0121893D01*
X0065627Y0121566D01*
X0067325Y0121566D01*
X0067978Y0122218D01*
X0068630Y0121566D01*
X0070328Y0121566D01*
X0071529Y0122767D01*
X0071529Y0123818D01*
X0073634Y0123818D01*
X0073634Y0122767D01*
X0074835Y0121566D01*
X0079603Y0121566D01*
X0080236Y0122200D01*
X0080521Y0121772D01*
X0080745Y0121728D01*
X0080907Y0121566D01*
X0081553Y0121566D01*
X0082187Y0121439D01*
X0082377Y0121566D01*
X0082605Y0121566D01*
X0083062Y0122023D01*
X0083600Y0122381D01*
X0083644Y0122605D01*
X0083806Y0122767D01*
X0083806Y0123413D01*
X0083933Y0124047D01*
X0083806Y0124237D01*
X0083806Y0128969D01*
X0082605Y0130170D01*
X0080907Y0130170D01*
X0080273Y0129536D01*
X0079988Y0129964D01*
X0079764Y0130008D01*
X0079603Y0130170D01*
X0078956Y0130170D01*
X0078323Y0130297D01*
X0078133Y0130170D01*
X0074835Y0130170D01*
X0073634Y0128969D01*
X0073634Y0127918D01*
X0071529Y0127918D01*
X0071529Y0128969D01*
X0070328Y0130170D01*
X0068630Y0130170D01*
X0067978Y0129518D01*
X0067325Y0130170D01*
X0065627Y0130170D01*
X0065300Y0129843D01*
X0064973Y0130170D01*
X0061774Y0130170D01*
X0061447Y0129843D01*
X0061120Y0130170D01*
X0059422Y0130170D01*
X0058770Y0129518D01*
X0058118Y0130170D01*
X0056419Y0130170D01*
X0056092Y0129843D01*
X0055766Y0130170D01*
X0052566Y0130170D01*
X0051864Y0129468D01*
X0051162Y0130170D01*
X0045610Y0130170D01*
X0044958Y0129518D01*
X0044306Y0130170D01*
X0038004Y0130170D01*
X0036803Y0128029D02*
X0021549Y0128029D01*
X0020409Y0126430D02*
X0037643Y0126430D01*
X0038304Y0124832D02*
X0019889Y0124832D01*
X0019435Y0123233D02*
X0038304Y0123233D01*
X0039436Y0121635D02*
X0019332Y0121635D01*
X0041272Y0121635D02*
X0042539Y0121635D01*
X0044374Y0121635D02*
X0045542Y0121635D01*
X0048978Y0121635D02*
X0050146Y0121635D01*
X0051981Y0121635D02*
X0052498Y0121635D01*
X0055834Y0121635D02*
X0057102Y0121635D01*
X0060438Y0121635D02*
X0061705Y0121635D01*
X0065042Y0121635D02*
X0065559Y0121635D01*
X0067394Y0121635D02*
X0068561Y0121635D01*
X0070396Y0121635D02*
X0074767Y0121635D01*
X0073634Y0123233D02*
X0071529Y0123233D01*
X0079671Y0121635D02*
X0080838Y0121635D01*
X0082674Y0121635D02*
X0170225Y0121635D01*
X0170294Y0121566D02*
X0171992Y0121566D01*
X0172694Y0122268D01*
X0173397Y0121566D01*
X0175095Y0121566D01*
X0175747Y0122218D01*
X0176399Y0121566D01*
X0179699Y0121566D01*
X0180351Y0122218D01*
X0181003Y0121566D01*
X0182701Y0121566D01*
X0183028Y0121893D01*
X0183355Y0121566D01*
X0186555Y0121566D01*
X0187257Y0122268D01*
X0187959Y0121566D01*
X0191159Y0121566D01*
X0191861Y0122268D01*
X0192563Y0121566D01*
X0195762Y0121566D01*
X0196089Y0121893D01*
X0196416Y0121566D01*
X0198114Y0121566D01*
X0198767Y0122218D01*
X0199419Y0121566D01*
X0201117Y0121566D01*
X0202318Y0122767D01*
X0202318Y0123818D01*
X0204423Y0123818D01*
X0204423Y0123518D01*
X0205174Y0122767D01*
X0206375Y0121566D01*
X0209574Y0121566D01*
X0210276Y0122268D01*
X0210979Y0121566D01*
X0214178Y0121566D01*
X0214929Y0122317D01*
X0215256Y0122644D01*
X0216333Y0121566D01*
X0218031Y0121566D01*
X0219232Y0122767D01*
X0219232Y0126070D01*
X0219533Y0126070D01*
X0220734Y0127271D01*
X0220734Y0128969D01*
X0219533Y0130170D01*
X0213230Y0130170D01*
X0212578Y0129518D01*
X0211926Y0130170D01*
X0210228Y0130170D01*
X0209901Y0129843D01*
X0209574Y0130170D01*
X0206375Y0130170D01*
X0205624Y0129419D01*
X0204423Y0128218D01*
X0204423Y0127918D01*
X0202318Y0127918D01*
X0202318Y0128969D01*
X0201117Y0130170D01*
X0199419Y0130170D01*
X0198767Y0129518D01*
X0198114Y0130170D01*
X0196416Y0130170D01*
X0196089Y0129843D01*
X0195762Y0130170D01*
X0192563Y0130170D01*
X0192236Y0129843D01*
X0191909Y0130170D01*
X0190211Y0130170D01*
X0189559Y0129518D01*
X0188907Y0130170D01*
X0187208Y0130170D01*
X0186881Y0129843D01*
X0186555Y0130170D01*
X0183355Y0130170D01*
X0182653Y0129468D01*
X0181951Y0130170D01*
X0176399Y0130170D01*
X0175747Y0129518D01*
X0175095Y0130170D01*
X0168793Y0130170D01*
X0167592Y0128969D01*
X0167592Y0127271D01*
X0168793Y0126070D01*
X0169093Y0126070D01*
X0169093Y0122767D01*
X0170294Y0121566D01*
X0172061Y0121635D02*
X0173328Y0121635D01*
X0175163Y0121635D02*
X0176331Y0121635D01*
X0179767Y0121635D02*
X0180935Y0121635D01*
X0182770Y0121635D02*
X0183287Y0121635D01*
X0186623Y0121635D02*
X0187891Y0121635D01*
X0191227Y0121635D02*
X0192494Y0121635D01*
X0195831Y0121635D02*
X0196348Y0121635D01*
X0198183Y0121635D02*
X0199350Y0121635D01*
X0201185Y0121635D02*
X0206306Y0121635D01*
X0204708Y0123233D02*
X0202318Y0123233D01*
X0209643Y0121635D02*
X0210910Y0121635D01*
X0214247Y0121635D02*
X0216265Y0121635D01*
X0218100Y0121635D02*
X0340683Y0121635D01*
X0339551Y0123233D02*
X0219232Y0123233D01*
X0219232Y0124832D02*
X0339551Y0124832D01*
X0339551Y0126430D02*
X0219893Y0126430D01*
X0220734Y0128029D02*
X0339551Y0128029D01*
X0340209Y0129627D02*
X0220076Y0129627D01*
X0212688Y0129627D02*
X0212469Y0129627D01*
X0205832Y0129627D02*
X0201660Y0129627D01*
X0202318Y0128029D02*
X0204423Y0128029D01*
X0198876Y0129627D02*
X0198657Y0129627D01*
X0189668Y0129627D02*
X0189449Y0129627D01*
X0182812Y0129627D02*
X0182493Y0129627D01*
X0175856Y0129627D02*
X0175638Y0129627D01*
X0168250Y0129627D02*
X0083148Y0129627D01*
X0083806Y0128029D02*
X0167592Y0128029D01*
X0168432Y0126430D02*
X0083806Y0126430D01*
X0083806Y0124832D02*
X0169093Y0124832D01*
X0169093Y0123233D02*
X0083806Y0123233D01*
X0073634Y0128029D02*
X0071529Y0128029D01*
X0070871Y0129627D02*
X0074292Y0129627D01*
X0080212Y0129627D02*
X0080364Y0129627D01*
X0068087Y0129627D02*
X0067868Y0129627D01*
X0058879Y0129627D02*
X0058660Y0129627D01*
X0052023Y0129627D02*
X0051705Y0129627D01*
X0045067Y0129627D02*
X0044849Y0129627D01*
X0019332Y0060891D02*
X0119953Y0060891D01*
X0119953Y0059293D02*
X0019332Y0059293D01*
X0134553Y0056096D02*
X0134953Y0056096D01*
X0134953Y0054497D02*
X0134553Y0054497D01*
X0134553Y0052899D02*
X0134953Y0052899D01*
X0134953Y0051300D02*
X0134553Y0051300D01*
X0231175Y0048103D02*
X0264499Y0048103D01*
X0347122Y0121635D02*
X0348290Y0121635D01*
X0347815Y0129627D02*
X0347664Y0129627D01*
D16*
X0333257Y0084528D02*
X0271485Y0084528D01*
X0287391Y0068622D01*
X0287391Y0055000D01*
X0277391Y0055000D02*
X0277391Y0062874D01*
X0273257Y0067008D01*
X0194713Y0067008D01*
X0060855Y0067008D01*
X0045855Y0084528D02*
X0055698Y0094370D01*
X0199871Y0094370D01*
X0209713Y0084528D01*
X0269517Y0084528D01*
X0271485Y0084528D01*
M02*
