G75*
%MOIN*%
%OFA0B0*%
%FSLAX25Y25*%
%IPPOS*%
%LPD*%
%AMOC8*
5,1,8,0,0,1.08239X$1,22.5*
%
%ADD10C,0.06299*%
%ADD11C,0.17717*%
%ADD12R,0.07900X0.04700*%
%ADD13C,0.06900*%
%ADD14R,0.06299X0.06299*%
%ADD15R,0.06299X0.04331*%
%ADD16C,0.02953*%
D10*
X0035265Y0180540D02*
X0041564Y0180540D01*
X0041564Y0190540D02*
X0035265Y0190540D01*
X0035265Y0200540D02*
X0041564Y0200540D01*
X0041564Y0210540D02*
X0035265Y0210540D01*
X0035265Y0220540D02*
X0041564Y0220540D01*
X0041564Y0230540D02*
X0035265Y0230540D01*
X0035265Y0240540D02*
X0041564Y0240540D01*
X0041564Y0250540D02*
X0035265Y0250540D01*
X0035265Y0260540D02*
X0041564Y0260540D01*
X0041564Y0270540D02*
X0035265Y0270540D01*
X0035265Y0280540D02*
X0041564Y0280540D01*
X0041564Y0290540D02*
X0035265Y0290540D01*
X0035265Y0300540D02*
X0041564Y0300540D01*
X0041564Y0310540D02*
X0035265Y0310540D01*
X0035265Y0320540D02*
X0041564Y0320540D01*
X0041564Y0330540D02*
X0035265Y0330540D01*
D11*
X0035265Y0037233D03*
X0035265Y0360068D03*
D12*
X0074278Y0111997D03*
X0074278Y0101997D03*
X0074278Y0091997D03*
X0074278Y0081997D03*
X0074278Y0071997D03*
X0050678Y0076997D03*
X0050678Y0086997D03*
X0050678Y0096997D03*
X0050678Y0106997D03*
X0050678Y0066997D03*
D13*
X0054978Y0059397D03*
X0054978Y0119597D03*
D14*
X0099635Y0310658D03*
D15*
X0110658Y0306328D03*
X0110658Y0314989D03*
D16*
X0117942Y0304950D03*
X0121879Y0285265D03*
X0098257Y0295107D03*
X0096288Y0304950D03*
X0068729Y0356131D03*
X0052981Y0308887D03*
X0074457Y0230757D03*
X0124241Y0226209D03*
X0124044Y0163217D03*
X0124831Y0108099D03*
X0063611Y0064792D03*
X0131721Y0356131D03*
X0131721Y0360068D03*
X0135658Y0360068D03*
X0135658Y0356131D03*
M02*
