G75*
%MOIN*%
%OFA0B0*%
%FSLAX25Y25*%
%IPPOS*%
%LPD*%
%AMOC8*
5,1,8,0,0,1.08239X$1,22.5*
%
%ADD10R,0.04331X0.03937*%
%ADD11R,0.03150X0.03150*%
%ADD12R,0.03937X0.04331*%
%ADD13R,0.09449X0.03150*%
%ADD14R,0.09449X0.02756*%
%ADD15R,0.03346X0.01378*%
D10*
X0052843Y0181170D03*
X0052843Y0187863D03*
X0060048Y0187863D03*
X0060048Y0181170D03*
X0067253Y0181170D03*
X0067253Y0187863D03*
X0074457Y0187863D03*
X0074457Y0181170D03*
X0074457Y0276367D03*
X0074457Y0283060D03*
X0067253Y0283060D03*
X0067253Y0276367D03*
X0060048Y0276367D03*
X0060048Y0283060D03*
X0052843Y0283060D03*
X0052843Y0276367D03*
X0072902Y0356426D03*
X0079595Y0356426D03*
X0100225Y0357509D03*
X0100225Y0350816D03*
X0108099Y0350816D03*
X0108099Y0357509D03*
X0117154Y0357509D03*
X0117154Y0350816D03*
X0117351Y0295107D03*
X0110658Y0295107D03*
D11*
X0111052Y0285265D03*
X0116957Y0285265D03*
X0116957Y0226209D03*
X0111052Y0226209D03*
X0111052Y0163217D03*
X0116957Y0163217D03*
X0116957Y0108099D03*
X0111052Y0108099D03*
D12*
X0110658Y0100225D03*
X0117351Y0100225D03*
X0117351Y0155343D03*
X0110658Y0155343D03*
X0110658Y0218335D03*
X0117351Y0218335D03*
X0117351Y0277391D03*
X0110658Y0277391D03*
X0106918Y0316761D03*
X0100225Y0316761D03*
X0114595Y0316761D03*
X0121288Y0316761D03*
D13*
X0088020Y0314812D03*
X0088020Y0350206D03*
X0053375Y0350206D03*
X0053375Y0314812D03*
D14*
X0053375Y0320009D03*
X0053375Y0325009D03*
X0053375Y0330009D03*
X0053375Y0335009D03*
X0053375Y0340009D03*
X0053375Y0345009D03*
X0088020Y0345009D03*
X0088020Y0340009D03*
X0088020Y0335009D03*
X0088020Y0330009D03*
X0088020Y0325009D03*
X0088020Y0320009D03*
D15*
X0101800Y0307509D03*
X0101800Y0304950D03*
X0101800Y0302391D03*
X0110461Y0302391D03*
X0110461Y0304950D03*
X0110461Y0307509D03*
M02*
