G75*
%MOIN*%
%OFA0B0*%
%FSLAX25Y25*%
%IPPOS*%
%LPD*%
%AMOC8*
5,1,8,0,0,1.08239X$1,22.5*
%
%ADD10C,0.06299*%
%ADD11C,0.17717*%
%ADD12R,0.07900X0.04700*%
%ADD13R,0.06299X0.06299*%
%ADD14R,0.06299X0.04331*%
%ADD15C,0.01600*%
%ADD16C,0.02953*%
%ADD17C,0.00700*%
%ADD18C,0.02362*%
D10*
X0035265Y0180540D02*
X0041564Y0180540D01*
X0041564Y0190540D02*
X0035265Y0190540D01*
X0035265Y0200540D02*
X0041564Y0200540D01*
X0041564Y0210540D02*
X0035265Y0210540D01*
X0035265Y0220540D02*
X0041564Y0220540D01*
X0041564Y0230540D02*
X0035265Y0230540D01*
X0035265Y0240540D02*
X0041564Y0240540D01*
X0041564Y0250540D02*
X0035265Y0250540D01*
X0035265Y0260540D02*
X0041564Y0260540D01*
X0041564Y0270540D02*
X0035265Y0270540D01*
X0035265Y0280540D02*
X0041564Y0280540D01*
X0041564Y0290540D02*
X0035265Y0290540D01*
X0035265Y0300540D02*
X0041564Y0300540D01*
X0041564Y0310540D02*
X0035265Y0310540D01*
X0035265Y0320540D02*
X0041564Y0320540D01*
X0041564Y0330540D02*
X0035265Y0330540D01*
D11*
X0035265Y0360068D03*
X0035265Y0037233D03*
D12*
X0050678Y0066997D03*
X0050678Y0076997D03*
X0050678Y0086997D03*
X0050678Y0096997D03*
X0050678Y0106997D03*
X0074278Y0111997D03*
X0074278Y0101997D03*
X0074278Y0091997D03*
X0074278Y0081997D03*
X0074278Y0071997D03*
D13*
X0099635Y0310658D03*
D14*
X0110658Y0306328D03*
X0110658Y0314989D03*
D15*
X0027222Y0353037D02*
X0027222Y0044264D01*
X0028720Y0045762D01*
X0031151Y0047165D01*
X0033861Y0047891D01*
X0036668Y0047891D01*
X0039378Y0047165D01*
X0041809Y0045762D01*
X0043793Y0043777D01*
X0045196Y0041347D01*
X0045923Y0038636D01*
X0045923Y0035830D01*
X0045196Y0033119D01*
X0043793Y0030689D01*
X0041809Y0028704D01*
X0039378Y0027301D01*
X0039083Y0027222D01*
X0131721Y0027222D01*
X0133287Y0027345D01*
X0136266Y0028313D01*
X0138800Y0030154D01*
X0140641Y0032688D01*
X0141609Y0035667D01*
X0141732Y0037233D01*
X0141732Y0066129D01*
X0066604Y0066129D01*
X0066887Y0065444D01*
X0066887Y0064140D01*
X0066389Y0062936D01*
X0065467Y0062015D01*
X0064263Y0061516D01*
X0062959Y0061516D01*
X0061755Y0062015D01*
X0060833Y0062936D01*
X0060335Y0064140D01*
X0060335Y0064392D01*
X0060329Y0064397D01*
X0056626Y0064397D01*
X0057952Y0063848D01*
X0059429Y0062371D01*
X0060228Y0060441D01*
X0060228Y0058353D01*
X0059429Y0056423D01*
X0057952Y0054946D01*
X0056022Y0054147D01*
X0053934Y0054147D01*
X0052004Y0054946D01*
X0050527Y0056423D01*
X0049728Y0058353D01*
X0049728Y0060441D01*
X0050527Y0062371D01*
X0051003Y0062847D01*
X0045982Y0062847D01*
X0044928Y0063901D01*
X0044928Y0070092D01*
X0045982Y0071147D01*
X0055374Y0071147D01*
X0056428Y0070092D01*
X0056428Y0069597D01*
X0061923Y0069597D01*
X0062192Y0069486D01*
X0062192Y0074847D01*
X0056428Y0074847D01*
X0056428Y0073901D01*
X0055374Y0072847D01*
X0045982Y0072847D01*
X0044928Y0073901D01*
X0044928Y0080092D01*
X0045982Y0081147D01*
X0055374Y0081147D01*
X0056428Y0080092D01*
X0056428Y0079147D01*
X0064139Y0079147D01*
X0064275Y0079203D01*
X0068528Y0079203D01*
X0068528Y0084847D01*
X0056428Y0084847D01*
X0056428Y0083901D01*
X0055374Y0082847D01*
X0045982Y0082847D01*
X0044928Y0083901D01*
X0044928Y0090092D01*
X0045982Y0091147D01*
X0055374Y0091147D01*
X0056428Y0090092D01*
X0056428Y0089147D01*
X0068528Y0089147D01*
X0068528Y0095092D01*
X0069582Y0096147D01*
X0078974Y0096147D01*
X0080028Y0095092D01*
X0080028Y0094147D01*
X0100949Y0094147D01*
X0102165Y0095363D01*
X0102165Y0095897D01*
X0102619Y0096993D01*
X0103458Y0097831D01*
X0104553Y0098285D01*
X0105739Y0098285D01*
X0106835Y0097831D01*
X0107674Y0096993D01*
X0108128Y0095897D01*
X0108128Y0094711D01*
X0107674Y0093615D01*
X0106835Y0092777D01*
X0105739Y0092323D01*
X0105206Y0092323D01*
X0102730Y0089847D01*
X0080028Y0089847D01*
X0080028Y0089147D01*
X0124861Y0089147D01*
X0125184Y0089927D01*
X0125184Y0105046D01*
X0125133Y0105035D01*
X0124832Y0105035D01*
X0124832Y0108099D01*
X0124831Y0108099D01*
X0121768Y0108099D01*
X0121768Y0107797D01*
X0121885Y0107206D01*
X0122116Y0106648D01*
X0122452Y0106146D01*
X0122878Y0105719D01*
X0123380Y0105384D01*
X0123938Y0105153D01*
X0124530Y0105035D01*
X0124831Y0105035D01*
X0124831Y0108099D01*
X0124831Y0108099D01*
X0121768Y0108099D01*
X0121768Y0108401D01*
X0121885Y0108993D01*
X0122116Y0109550D01*
X0122452Y0110052D01*
X0122878Y0110479D01*
X0123380Y0110814D01*
X0123938Y0111045D01*
X0124530Y0111163D01*
X0124831Y0111163D01*
X0124831Y0108099D01*
X0124832Y0108099D01*
X0124832Y0111163D01*
X0125133Y0111163D01*
X0125184Y0111153D01*
X0125184Y0160373D01*
X0124938Y0160271D01*
X0124346Y0160154D01*
X0124044Y0160154D01*
X0124044Y0163217D01*
X0124044Y0163217D01*
X0124044Y0160154D01*
X0123742Y0160154D01*
X0123150Y0160271D01*
X0122593Y0160502D01*
X0122091Y0160838D01*
X0121664Y0161264D01*
X0121329Y0161766D01*
X0121098Y0162324D01*
X0120980Y0162916D01*
X0120980Y0163217D01*
X0124044Y0163217D01*
X0124044Y0163217D01*
X0120980Y0163217D01*
X0120980Y0163519D01*
X0121098Y0164111D01*
X0121329Y0164669D01*
X0121664Y0165170D01*
X0122091Y0165597D01*
X0122593Y0165932D01*
X0123150Y0166163D01*
X0123742Y0166281D01*
X0124044Y0166281D01*
X0124044Y0163217D01*
X0124044Y0163217D01*
X0124044Y0166281D01*
X0124346Y0166281D01*
X0124938Y0166163D01*
X0125184Y0166061D01*
X0125184Y0223284D01*
X0125135Y0223263D01*
X0124543Y0223146D01*
X0124241Y0223146D01*
X0124241Y0226209D01*
X0124241Y0226209D01*
X0124241Y0223146D01*
X0123939Y0223146D01*
X0123347Y0223263D01*
X0122790Y0223494D01*
X0122288Y0223830D01*
X0121861Y0224256D01*
X0121526Y0224758D01*
X0121295Y0225316D01*
X0121177Y0225908D01*
X0121177Y0226209D01*
X0124241Y0226209D01*
X0124241Y0226209D01*
X0121177Y0226209D01*
X0121177Y0226511D01*
X0121295Y0227103D01*
X0121526Y0227661D01*
X0121861Y0228162D01*
X0122288Y0228589D01*
X0122790Y0228925D01*
X0123347Y0229155D01*
X0123939Y0229273D01*
X0124241Y0229273D01*
X0124241Y0226210D01*
X0124241Y0226210D01*
X0124241Y0229273D01*
X0124543Y0229273D01*
X0125135Y0229155D01*
X0125184Y0229135D01*
X0125184Y0331275D01*
X0124814Y0331122D01*
X0123628Y0331122D01*
X0122533Y0331576D01*
X0121694Y0332414D01*
X0121240Y0333510D01*
X0121240Y0334044D01*
X0119177Y0336107D01*
X0110249Y0336107D01*
X0110249Y0330638D01*
X0110626Y0330260D01*
X0111080Y0329165D01*
X0111080Y0327979D01*
X0110626Y0326883D01*
X0109788Y0326044D01*
X0108692Y0325591D01*
X0107506Y0325591D01*
X0106411Y0326044D01*
X0105572Y0326883D01*
X0105118Y0327979D01*
X0105118Y0329165D01*
X0105572Y0330260D01*
X0105949Y0330638D01*
X0105949Y0336191D01*
X0105572Y0336568D01*
X0105118Y0337664D01*
X0105118Y0338850D01*
X0105572Y0339945D01*
X0106411Y0340784D01*
X0107506Y0341238D01*
X0108692Y0341238D01*
X0109788Y0340784D01*
X0110165Y0340407D01*
X0120958Y0340407D01*
X0122218Y0339147D01*
X0122218Y0339147D01*
X0124281Y0337084D01*
X0124814Y0337084D01*
X0125184Y0336931D01*
X0125184Y0339678D01*
X0124440Y0339370D01*
X0123254Y0339370D01*
X0122159Y0339824D01*
X0121320Y0340663D01*
X0120866Y0341758D01*
X0120866Y0342170D01*
X0102375Y0342170D01*
X0102375Y0328669D01*
X0102752Y0328292D01*
X0103206Y0327196D01*
X0103206Y0326010D01*
X0102752Y0324914D01*
X0101914Y0324076D01*
X0100818Y0323622D01*
X0099632Y0323622D01*
X0098537Y0324076D01*
X0097698Y0324914D01*
X0097244Y0326010D01*
X0097244Y0327196D01*
X0097698Y0328292D01*
X0098075Y0328669D01*
X0098075Y0341339D01*
X0097664Y0341339D01*
X0096568Y0341792D01*
X0095729Y0342631D01*
X0095276Y0343727D01*
X0095276Y0344913D01*
X0095729Y0346008D01*
X0096568Y0346847D01*
X0097664Y0347301D01*
X0098850Y0347301D01*
X0099945Y0346847D01*
X0100323Y0346470D01*
X0122769Y0346470D01*
X0123907Y0345332D01*
X0124440Y0345332D01*
X0125184Y0345024D01*
X0125184Y0370079D01*
X0039083Y0370079D01*
X0039378Y0370000D01*
X0041809Y0368596D01*
X0043793Y0366612D01*
X0045196Y0364182D01*
X0045923Y0361471D01*
X0045923Y0358665D01*
X0045196Y0355954D01*
X0043793Y0353523D01*
X0041809Y0351539D01*
X0039378Y0350136D01*
X0036668Y0349409D01*
X0033861Y0349409D01*
X0031151Y0350136D01*
X0028720Y0351539D01*
X0027222Y0353037D01*
X0027222Y0351888D02*
X0028371Y0351888D01*
X0027222Y0350290D02*
X0030884Y0350290D01*
X0027222Y0348691D02*
X0125184Y0348691D01*
X0125184Y0347093D02*
X0099352Y0347093D01*
X0097162Y0347093D02*
X0027222Y0347093D01*
X0027222Y0345494D02*
X0095517Y0345494D01*
X0095276Y0343896D02*
X0027222Y0343896D01*
X0027222Y0342297D02*
X0096063Y0342297D01*
X0098075Y0340699D02*
X0027222Y0340699D01*
X0027222Y0339100D02*
X0098075Y0339100D01*
X0098075Y0337502D02*
X0061653Y0337502D01*
X0061560Y0337595D02*
X0060464Y0338049D01*
X0059278Y0338049D01*
X0058182Y0337595D01*
X0057344Y0336756D01*
X0056890Y0335661D01*
X0056890Y0335127D01*
X0055752Y0333990D01*
X0055752Y0310202D01*
X0055696Y0310338D01*
X0055361Y0310840D01*
X0054934Y0311266D01*
X0054432Y0311602D01*
X0053875Y0311833D01*
X0053283Y0311950D01*
X0052981Y0311950D01*
X0052679Y0311950D01*
X0052087Y0311833D01*
X0051530Y0311602D01*
X0051028Y0311266D01*
X0050601Y0310840D01*
X0050266Y0310338D01*
X0050035Y0309780D01*
X0049917Y0309188D01*
X0049917Y0308887D01*
X0052981Y0308887D01*
X0052981Y0311950D01*
X0052981Y0308887D01*
X0052981Y0308887D01*
X0052981Y0308887D01*
X0049917Y0308887D01*
X0049917Y0308585D01*
X0050035Y0307993D01*
X0050266Y0307435D01*
X0050601Y0306934D01*
X0051028Y0306507D01*
X0051530Y0306172D01*
X0052087Y0305941D01*
X0052679Y0305823D01*
X0052981Y0305823D01*
X0052981Y0308886D01*
X0052981Y0308886D01*
X0052981Y0305823D01*
X0053283Y0305823D01*
X0053875Y0305941D01*
X0054432Y0306172D01*
X0054934Y0306507D01*
X0055361Y0306934D01*
X0055696Y0307435D01*
X0055752Y0307571D01*
X0055752Y0277139D01*
X0052134Y0273521D01*
X0051601Y0273521D01*
X0050505Y0273067D01*
X0050128Y0272690D01*
X0046031Y0272690D01*
X0045760Y0273344D01*
X0044367Y0274736D01*
X0042548Y0275490D01*
X0034280Y0275490D01*
X0032461Y0274736D01*
X0031068Y0273344D01*
X0030315Y0271525D01*
X0030315Y0269556D01*
X0031068Y0267736D01*
X0032461Y0266344D01*
X0034280Y0265591D01*
X0042548Y0265591D01*
X0044367Y0266344D01*
X0045760Y0267736D01*
X0046031Y0268390D01*
X0050128Y0268390D01*
X0050505Y0268013D01*
X0051601Y0267559D01*
X0052787Y0267559D01*
X0053882Y0268013D01*
X0054721Y0268851D01*
X0055175Y0269947D01*
X0055175Y0270481D01*
X0058793Y0274099D01*
X0060052Y0275358D01*
X0060052Y0326733D01*
X0060083Y0326703D01*
X0060083Y0268517D01*
X0055087Y0263521D01*
X0054553Y0263521D01*
X0053458Y0263067D01*
X0053081Y0262690D01*
X0046031Y0262690D01*
X0045760Y0263344D01*
X0044367Y0264736D01*
X0042548Y0265490D01*
X0034280Y0265490D01*
X0032461Y0264736D01*
X0031068Y0263344D01*
X0030315Y0261525D01*
X0030315Y0259556D01*
X0031068Y0257736D01*
X0032461Y0256344D01*
X0034280Y0255591D01*
X0042548Y0255591D01*
X0044367Y0256344D01*
X0045760Y0257736D01*
X0046031Y0258390D01*
X0053081Y0258390D01*
X0053458Y0258013D01*
X0054553Y0257559D01*
X0055739Y0257559D01*
X0056835Y0258013D01*
X0057674Y0258851D01*
X0058128Y0259947D01*
X0058128Y0260481D01*
X0064383Y0266736D01*
X0064383Y0319772D01*
X0064394Y0319767D01*
X0064394Y0258891D01*
X0059024Y0253521D01*
X0058490Y0253521D01*
X0057395Y0253067D01*
X0057018Y0252690D01*
X0046031Y0252690D01*
X0045760Y0253344D01*
X0044367Y0254736D01*
X0042548Y0255490D01*
X0034280Y0255490D01*
X0032461Y0254736D01*
X0031068Y0253344D01*
X0030315Y0251525D01*
X0030315Y0249556D01*
X0031068Y0247736D01*
X0032461Y0246344D01*
X0034280Y0245591D01*
X0042548Y0245591D01*
X0044367Y0246344D01*
X0045760Y0247736D01*
X0046031Y0248390D01*
X0057018Y0248390D01*
X0057395Y0248013D01*
X0058490Y0247559D01*
X0059676Y0247559D01*
X0060772Y0248013D01*
X0061611Y0248851D01*
X0062065Y0249947D01*
X0062065Y0250481D01*
X0068694Y0257110D01*
X0068694Y0315945D01*
X0068804Y0315945D01*
X0068804Y0250348D01*
X0061977Y0243521D01*
X0061443Y0243521D01*
X0060348Y0243067D01*
X0059970Y0242690D01*
X0046031Y0242690D01*
X0045760Y0243344D01*
X0044367Y0244736D01*
X0042548Y0245490D01*
X0034280Y0245490D01*
X0032461Y0244736D01*
X0031068Y0243344D01*
X0030315Y0241525D01*
X0030315Y0239556D01*
X0031068Y0237736D01*
X0032461Y0236344D01*
X0034280Y0235591D01*
X0042548Y0235591D01*
X0044367Y0236344D01*
X0045760Y0237736D01*
X0046031Y0238390D01*
X0059970Y0238390D01*
X0060348Y0238013D01*
X0061443Y0237559D01*
X0062629Y0237559D01*
X0063725Y0238013D01*
X0064563Y0238851D01*
X0065017Y0239947D01*
X0065017Y0240481D01*
X0073104Y0248567D01*
X0073104Y0317789D01*
X0071907Y0318985D01*
X0071907Y0319519D01*
X0071453Y0320615D01*
X0070615Y0321453D01*
X0069519Y0321907D01*
X0068694Y0321907D01*
X0068694Y0322198D01*
X0068167Y0322726D01*
X0068167Y0323259D01*
X0067713Y0324355D01*
X0066874Y0325193D01*
X0065779Y0325647D01*
X0064593Y0325647D01*
X0064383Y0325560D01*
X0064383Y0326703D01*
X0064760Y0327080D01*
X0065214Y0328176D01*
X0065214Y0329361D01*
X0064760Y0330457D01*
X0063922Y0331296D01*
X0062826Y0331750D01*
X0061640Y0331750D01*
X0060544Y0331296D01*
X0060052Y0330804D01*
X0060052Y0332087D01*
X0060464Y0332087D01*
X0061560Y0332540D01*
X0062398Y0333379D01*
X0062852Y0334475D01*
X0062852Y0335661D01*
X0062398Y0336756D01*
X0061560Y0337595D01*
X0062752Y0335903D02*
X0098075Y0335903D01*
X0098075Y0334305D02*
X0062782Y0334305D01*
X0061725Y0332706D02*
X0078421Y0332706D01*
X0078963Y0332931D02*
X0077867Y0332477D01*
X0077029Y0331638D01*
X0076575Y0330543D01*
X0076575Y0329357D01*
X0077029Y0328261D01*
X0077763Y0327526D01*
X0076883Y0327162D01*
X0076044Y0326323D01*
X0075591Y0325228D01*
X0075591Y0324042D01*
X0076044Y0322946D01*
X0076883Y0322107D01*
X0077979Y0321654D01*
X0078512Y0321654D01*
X0085280Y0314886D01*
X0085280Y0215289D01*
X0082602Y0212611D01*
X0062134Y0212611D01*
X0061756Y0212989D01*
X0060661Y0213443D01*
X0059475Y0213443D01*
X0058379Y0212989D01*
X0058081Y0212690D01*
X0046031Y0212690D01*
X0045760Y0213344D01*
X0044367Y0214736D01*
X0042548Y0215490D01*
X0034280Y0215490D01*
X0032461Y0214736D01*
X0031068Y0213344D01*
X0030315Y0211525D01*
X0030315Y0209556D01*
X0031068Y0207736D01*
X0032461Y0206344D01*
X0034280Y0205591D01*
X0042548Y0205591D01*
X0044367Y0206344D01*
X0045760Y0207736D01*
X0046031Y0208390D01*
X0057923Y0208390D01*
X0058379Y0207934D01*
X0059475Y0207480D01*
X0060661Y0207480D01*
X0061756Y0207934D01*
X0062134Y0208311D01*
X0084383Y0208311D01*
X0085643Y0209571D01*
X0089580Y0213508D01*
X0089580Y0316667D01*
X0081553Y0324694D01*
X0081553Y0324912D01*
X0090201Y0316264D01*
X0090201Y0207415D01*
X0085476Y0202690D01*
X0054968Y0202690D01*
X0054591Y0203067D01*
X0053495Y0203521D01*
X0052309Y0203521D01*
X0051214Y0203067D01*
X0050836Y0202690D01*
X0046031Y0202690D01*
X0045760Y0203344D01*
X0044367Y0204736D01*
X0042548Y0205490D01*
X0034280Y0205490D01*
X0032461Y0204736D01*
X0031068Y0203344D01*
X0030315Y0201525D01*
X0030315Y0199556D01*
X0031068Y0197736D01*
X0032461Y0196344D01*
X0034280Y0195591D01*
X0042548Y0195591D01*
X0044367Y0196344D01*
X0045760Y0197736D01*
X0046031Y0198390D01*
X0050836Y0198390D01*
X0051214Y0198013D01*
X0052309Y0197559D01*
X0053495Y0197559D01*
X0054591Y0198013D01*
X0054968Y0198390D01*
X0087257Y0198390D01*
X0094501Y0205634D01*
X0094501Y0302143D01*
X0095636Y0301673D01*
X0096940Y0301673D01*
X0098144Y0302172D01*
X0099066Y0303094D01*
X0099565Y0304298D01*
X0099565Y0305601D01*
X0099520Y0305709D01*
X0103530Y0305709D01*
X0104584Y0306763D01*
X0104584Y0314553D01*
X0103530Y0315608D01*
X0095739Y0315608D01*
X0094685Y0314553D01*
X0094685Y0309386D01*
X0094501Y0309202D01*
X0094501Y0318045D01*
X0082537Y0330009D01*
X0082537Y0330543D01*
X0082083Y0331638D01*
X0081245Y0332477D01*
X0080149Y0332931D01*
X0078963Y0332931D01*
X0080691Y0332706D02*
X0098075Y0332706D01*
X0098075Y0331108D02*
X0082303Y0331108D01*
X0083037Y0329509D02*
X0098075Y0329509D01*
X0097540Y0327911D02*
X0084635Y0327911D01*
X0086234Y0326312D02*
X0097244Y0326312D01*
X0097899Y0324714D02*
X0087832Y0324714D01*
X0089431Y0323115D02*
X0125184Y0323115D01*
X0125184Y0321517D02*
X0091029Y0321517D01*
X0092628Y0319918D02*
X0125184Y0319918D01*
X0125184Y0318320D02*
X0114887Y0318320D01*
X0114783Y0318425D02*
X0114421Y0318634D01*
X0114017Y0318742D01*
X0110941Y0318742D01*
X0110941Y0315272D01*
X0110376Y0315272D01*
X0110376Y0318742D01*
X0107300Y0318742D01*
X0106896Y0318634D01*
X0106534Y0318425D01*
X0106238Y0318129D01*
X0106029Y0317767D01*
X0105921Y0317363D01*
X0105921Y0315272D01*
X0110376Y0315272D01*
X0110376Y0314706D01*
X0110941Y0314706D01*
X0110941Y0311236D01*
X0114017Y0311236D01*
X0114421Y0311344D01*
X0114783Y0311553D01*
X0115078Y0311849D01*
X0115287Y0312211D01*
X0115395Y0312615D01*
X0115395Y0314706D01*
X0110941Y0314706D01*
X0110941Y0315272D01*
X0115395Y0315272D01*
X0115395Y0317363D01*
X0115287Y0317767D01*
X0115078Y0318129D01*
X0114783Y0318425D01*
X0115395Y0316721D02*
X0125184Y0316721D01*
X0125184Y0315123D02*
X0110941Y0315123D01*
X0110376Y0315123D02*
X0104015Y0315123D01*
X0104584Y0313524D02*
X0105921Y0313524D01*
X0105921Y0312615D02*
X0105921Y0314706D01*
X0110376Y0314706D01*
X0110376Y0311236D01*
X0107300Y0311236D01*
X0106896Y0311344D01*
X0106534Y0311553D01*
X0106238Y0311849D01*
X0106029Y0312211D01*
X0105921Y0312615D01*
X0106194Y0311926D02*
X0104584Y0311926D01*
X0104584Y0310327D02*
X0125184Y0310327D01*
X0125184Y0308729D02*
X0115608Y0308729D01*
X0115608Y0309238D02*
X0115608Y0306949D01*
X0115989Y0307329D01*
X0116490Y0307665D01*
X0117048Y0307896D01*
X0117640Y0308013D01*
X0117942Y0308013D01*
X0118243Y0308013D01*
X0118835Y0307896D01*
X0119393Y0307665D01*
X0119895Y0307329D01*
X0120322Y0306903D01*
X0120657Y0306401D01*
X0120888Y0305843D01*
X0121005Y0305251D01*
X0121005Y0304950D01*
X0117942Y0304950D01*
X0117942Y0304950D01*
X0117942Y0308013D01*
X0117942Y0304950D01*
X0117942Y0304950D01*
X0121005Y0304950D01*
X0121005Y0304648D01*
X0120888Y0304056D01*
X0120657Y0303498D01*
X0120322Y0302997D01*
X0119895Y0302570D01*
X0119393Y0302235D01*
X0118835Y0302004D01*
X0118243Y0301886D01*
X0117942Y0301886D01*
X0117942Y0304949D01*
X0117942Y0304949D01*
X0117942Y0301886D01*
X0117640Y0301886D01*
X0117048Y0302004D01*
X0116490Y0302235D01*
X0115989Y0302570D01*
X0115562Y0302997D01*
X0115412Y0303221D01*
X0114553Y0302362D01*
X0113258Y0302362D01*
X0113258Y0299117D01*
X0112862Y0298162D01*
X0108335Y0293634D01*
X0107603Y0292903D01*
X0106648Y0292507D01*
X0100857Y0292507D01*
X0100857Y0204039D01*
X0100461Y0203083D01*
X0099729Y0202352D01*
X0085714Y0188336D01*
X0084758Y0187940D01*
X0045844Y0187940D01*
X0045760Y0187736D01*
X0044367Y0186344D01*
X0042548Y0185591D01*
X0034280Y0185591D01*
X0032461Y0186344D01*
X0031068Y0187736D01*
X0030315Y0189556D01*
X0030315Y0191525D01*
X0031068Y0193344D01*
X0032461Y0194736D01*
X0034280Y0195490D01*
X0042548Y0195490D01*
X0044367Y0194736D01*
X0045760Y0193344D01*
X0045844Y0193140D01*
X0083164Y0193140D01*
X0095657Y0205633D01*
X0095657Y0293074D01*
X0095479Y0293251D01*
X0094980Y0294455D01*
X0094980Y0295759D01*
X0095479Y0296963D01*
X0096401Y0297885D01*
X0097605Y0298383D01*
X0098908Y0298383D01*
X0100113Y0297885D01*
X0100290Y0297707D01*
X0105054Y0297707D01*
X0108058Y0300712D01*
X0108058Y0302362D01*
X0106763Y0302362D01*
X0105709Y0303417D01*
X0105709Y0309238D01*
X0106763Y0310293D01*
X0114553Y0310293D01*
X0115608Y0309238D01*
X0115608Y0307130D02*
X0115789Y0307130D01*
X0117942Y0307130D02*
X0117942Y0307130D01*
X0117942Y0305532D02*
X0117942Y0305532D01*
X0117942Y0303933D02*
X0117942Y0303933D01*
X0117942Y0302334D02*
X0117942Y0302334D01*
X0119543Y0302334D02*
X0125184Y0302334D01*
X0125184Y0300736D02*
X0113258Y0300736D01*
X0113258Y0302334D02*
X0116341Y0302334D01*
X0113258Y0299137D02*
X0125184Y0299137D01*
X0125184Y0297539D02*
X0112240Y0297539D01*
X0110641Y0295940D02*
X0125184Y0295940D01*
X0125184Y0294342D02*
X0109043Y0294342D01*
X0107218Y0292743D02*
X0125184Y0292743D01*
X0125184Y0291145D02*
X0100857Y0291145D01*
X0100857Y0289546D02*
X0125184Y0289546D01*
X0125184Y0287948D02*
X0123377Y0287948D01*
X0123330Y0287980D02*
X0123832Y0287644D01*
X0124259Y0287218D01*
X0124594Y0286716D01*
X0124825Y0286158D01*
X0124943Y0285566D01*
X0124943Y0285265D01*
X0121879Y0285265D01*
X0121879Y0285265D01*
X0121879Y0288328D01*
X0122180Y0288328D01*
X0122772Y0288211D01*
X0123330Y0287980D01*
X0121879Y0287948D02*
X0121879Y0287948D01*
X0121879Y0288328D02*
X0121577Y0288328D01*
X0120985Y0288211D01*
X0120427Y0287980D01*
X0119926Y0287644D01*
X0119499Y0287218D01*
X0119164Y0286716D01*
X0118933Y0286158D01*
X0118815Y0285566D01*
X0118815Y0285265D01*
X0121879Y0285265D01*
X0121879Y0285264D01*
X0121879Y0282201D01*
X0122180Y0282201D01*
X0122772Y0282319D01*
X0123330Y0282549D01*
X0123832Y0282885D01*
X0124259Y0283312D01*
X0124594Y0283813D01*
X0124825Y0284371D01*
X0124943Y0284963D01*
X0124943Y0285264D01*
X0121879Y0285264D01*
X0121879Y0285264D01*
X0121879Y0282201D01*
X0121577Y0282201D01*
X0120985Y0282319D01*
X0120427Y0282549D01*
X0119926Y0282885D01*
X0119499Y0283312D01*
X0119164Y0283813D01*
X0118933Y0284371D01*
X0118815Y0284963D01*
X0118815Y0285264D01*
X0121879Y0285264D01*
X0121879Y0285265D01*
X0121879Y0288328D01*
X0120380Y0287948D02*
X0100857Y0287948D01*
X0100857Y0286349D02*
X0119012Y0286349D01*
X0118857Y0284751D02*
X0100857Y0284751D01*
X0100857Y0283152D02*
X0119658Y0283152D01*
X0121879Y0283152D02*
X0121879Y0283152D01*
X0121879Y0284751D02*
X0121879Y0284751D01*
X0121879Y0286349D02*
X0121879Y0286349D01*
X0124746Y0286349D02*
X0125184Y0286349D01*
X0125184Y0284751D02*
X0124900Y0284751D01*
X0125184Y0283152D02*
X0124099Y0283152D01*
X0125184Y0281554D02*
X0100857Y0281554D01*
X0100857Y0279955D02*
X0125184Y0279955D01*
X0125184Y0278357D02*
X0100857Y0278357D01*
X0100857Y0276758D02*
X0125184Y0276758D01*
X0125184Y0275160D02*
X0100857Y0275160D01*
X0100857Y0273561D02*
X0125184Y0273561D01*
X0125184Y0271963D02*
X0100857Y0271963D01*
X0100857Y0270364D02*
X0125184Y0270364D01*
X0125184Y0268766D02*
X0100857Y0268766D01*
X0100857Y0267167D02*
X0125184Y0267167D01*
X0125184Y0265569D02*
X0100857Y0265569D01*
X0100857Y0263970D02*
X0125184Y0263970D01*
X0125184Y0262372D02*
X0100857Y0262372D01*
X0100857Y0260773D02*
X0125184Y0260773D01*
X0125184Y0259175D02*
X0100857Y0259175D01*
X0100857Y0257576D02*
X0125184Y0257576D01*
X0125184Y0255978D02*
X0100857Y0255978D01*
X0100857Y0254379D02*
X0125184Y0254379D01*
X0125184Y0252781D02*
X0100857Y0252781D01*
X0100857Y0251182D02*
X0125184Y0251182D01*
X0125184Y0249584D02*
X0100857Y0249584D01*
X0100857Y0247985D02*
X0125184Y0247985D01*
X0125184Y0246387D02*
X0100857Y0246387D01*
X0100857Y0244788D02*
X0125184Y0244788D01*
X0125184Y0243190D02*
X0100857Y0243190D01*
X0100857Y0241591D02*
X0125184Y0241591D01*
X0125184Y0239993D02*
X0100857Y0239993D01*
X0100857Y0238394D02*
X0125184Y0238394D01*
X0125184Y0236796D02*
X0100857Y0236796D01*
X0100857Y0235197D02*
X0125184Y0235197D01*
X0125184Y0233599D02*
X0100857Y0233599D01*
X0100857Y0232000D02*
X0125184Y0232000D01*
X0125184Y0230401D02*
X0100857Y0230401D01*
X0100857Y0228803D02*
X0122608Y0228803D01*
X0124241Y0228803D02*
X0124241Y0228803D01*
X0124241Y0227204D02*
X0124241Y0227204D01*
X0124241Y0225606D02*
X0124241Y0225606D01*
X0124241Y0224007D02*
X0124241Y0224007D01*
X0125184Y0222409D02*
X0100857Y0222409D01*
X0100857Y0224007D02*
X0122110Y0224007D01*
X0121237Y0225606D02*
X0100857Y0225606D01*
X0100857Y0227204D02*
X0121337Y0227204D01*
X0125184Y0220810D02*
X0100857Y0220810D01*
X0100857Y0219212D02*
X0125184Y0219212D01*
X0125184Y0217613D02*
X0100857Y0217613D01*
X0100857Y0216015D02*
X0125184Y0216015D01*
X0125184Y0214416D02*
X0100857Y0214416D01*
X0100857Y0212818D02*
X0125184Y0212818D01*
X0125184Y0211219D02*
X0100857Y0211219D01*
X0100857Y0209621D02*
X0125184Y0209621D01*
X0125184Y0208022D02*
X0100857Y0208022D01*
X0100857Y0206424D02*
X0125184Y0206424D01*
X0125184Y0204825D02*
X0100857Y0204825D01*
X0100520Y0203227D02*
X0125184Y0203227D01*
X0125184Y0201628D02*
X0099006Y0201628D01*
X0097408Y0200030D02*
X0125184Y0200030D01*
X0125184Y0198431D02*
X0095809Y0198431D01*
X0094210Y0196833D02*
X0125184Y0196833D01*
X0125184Y0195234D02*
X0092612Y0195234D01*
X0091013Y0193636D02*
X0125184Y0193636D01*
X0125184Y0192037D02*
X0089415Y0192037D01*
X0087816Y0190439D02*
X0125184Y0190439D01*
X0125184Y0188840D02*
X0086218Y0188840D01*
X0085258Y0195234D02*
X0043165Y0195234D01*
X0044856Y0196833D02*
X0086857Y0196833D01*
X0087299Y0198431D02*
X0088455Y0198431D01*
X0088897Y0200030D02*
X0090054Y0200030D01*
X0090496Y0201628D02*
X0091652Y0201628D01*
X0092094Y0203227D02*
X0093251Y0203227D01*
X0093693Y0204825D02*
X0094849Y0204825D01*
X0094501Y0206424D02*
X0095657Y0206424D01*
X0095657Y0208022D02*
X0094501Y0208022D01*
X0094501Y0209621D02*
X0095657Y0209621D01*
X0095657Y0211219D02*
X0094501Y0211219D01*
X0094501Y0212818D02*
X0095657Y0212818D01*
X0095657Y0214416D02*
X0094501Y0214416D01*
X0094501Y0216015D02*
X0095657Y0216015D01*
X0095657Y0217613D02*
X0094501Y0217613D01*
X0094501Y0219212D02*
X0095657Y0219212D01*
X0095657Y0220810D02*
X0094501Y0220810D01*
X0094501Y0222409D02*
X0095657Y0222409D01*
X0095657Y0224007D02*
X0094501Y0224007D01*
X0094501Y0225606D02*
X0095657Y0225606D01*
X0095657Y0227204D02*
X0094501Y0227204D01*
X0094501Y0228803D02*
X0095657Y0228803D01*
X0095657Y0230401D02*
X0094501Y0230401D01*
X0094501Y0232000D02*
X0095657Y0232000D01*
X0095657Y0233599D02*
X0094501Y0233599D01*
X0094501Y0235197D02*
X0095657Y0235197D01*
X0095657Y0236796D02*
X0094501Y0236796D01*
X0094501Y0238394D02*
X0095657Y0238394D01*
X0095657Y0239993D02*
X0094501Y0239993D01*
X0094501Y0241591D02*
X0095657Y0241591D01*
X0095657Y0243190D02*
X0094501Y0243190D01*
X0094501Y0244788D02*
X0095657Y0244788D01*
X0095657Y0246387D02*
X0094501Y0246387D01*
X0094501Y0247985D02*
X0095657Y0247985D01*
X0095657Y0249584D02*
X0094501Y0249584D01*
X0094501Y0251182D02*
X0095657Y0251182D01*
X0095657Y0252781D02*
X0094501Y0252781D01*
X0094501Y0254379D02*
X0095657Y0254379D01*
X0095657Y0255978D02*
X0094501Y0255978D01*
X0094501Y0257576D02*
X0095657Y0257576D01*
X0095657Y0259175D02*
X0094501Y0259175D01*
X0094501Y0260773D02*
X0095657Y0260773D01*
X0095657Y0262372D02*
X0094501Y0262372D01*
X0094501Y0263970D02*
X0095657Y0263970D01*
X0095657Y0265569D02*
X0094501Y0265569D01*
X0094501Y0267167D02*
X0095657Y0267167D01*
X0095657Y0268766D02*
X0094501Y0268766D01*
X0094501Y0270364D02*
X0095657Y0270364D01*
X0095657Y0271963D02*
X0094501Y0271963D01*
X0094501Y0273561D02*
X0095657Y0273561D01*
X0095657Y0275160D02*
X0094501Y0275160D01*
X0094501Y0276758D02*
X0095657Y0276758D01*
X0095657Y0278357D02*
X0094501Y0278357D01*
X0094501Y0279955D02*
X0095657Y0279955D01*
X0095657Y0281554D02*
X0094501Y0281554D01*
X0094501Y0283152D02*
X0095657Y0283152D01*
X0095657Y0284751D02*
X0094501Y0284751D01*
X0094501Y0286349D02*
X0095657Y0286349D01*
X0095657Y0287948D02*
X0094501Y0287948D01*
X0094501Y0289546D02*
X0095657Y0289546D01*
X0095657Y0291145D02*
X0094501Y0291145D01*
X0094501Y0292743D02*
X0095657Y0292743D01*
X0095027Y0294342D02*
X0094501Y0294342D01*
X0094501Y0295940D02*
X0095056Y0295940D01*
X0094501Y0297539D02*
X0096055Y0297539D01*
X0094501Y0299137D02*
X0106484Y0299137D01*
X0108058Y0300736D02*
X0094501Y0300736D01*
X0090201Y0300736D02*
X0089580Y0300736D01*
X0089580Y0302334D02*
X0090201Y0302334D01*
X0090201Y0303933D02*
X0089580Y0303933D01*
X0089580Y0305532D02*
X0090201Y0305532D01*
X0090201Y0307130D02*
X0089580Y0307130D01*
X0089580Y0308729D02*
X0090201Y0308729D01*
X0090201Y0310327D02*
X0089580Y0310327D01*
X0089580Y0311926D02*
X0090201Y0311926D01*
X0090201Y0313524D02*
X0089580Y0313524D01*
X0089580Y0315123D02*
X0090201Y0315123D01*
X0089744Y0316721D02*
X0089526Y0316721D01*
X0088145Y0318320D02*
X0087927Y0318320D01*
X0086547Y0319918D02*
X0086329Y0319918D01*
X0084948Y0321517D02*
X0084730Y0321517D01*
X0083350Y0323115D02*
X0083132Y0323115D01*
X0081751Y0324714D02*
X0081553Y0324714D01*
X0079130Y0320418D02*
X0079584Y0319322D01*
X0079584Y0318789D01*
X0084659Y0313714D01*
X0084659Y0225319D01*
X0078950Y0219610D01*
X0077691Y0218351D01*
X0068827Y0218351D01*
X0068449Y0217974D01*
X0067354Y0217520D01*
X0066168Y0217520D01*
X0065072Y0217974D01*
X0064655Y0218390D01*
X0046031Y0218390D01*
X0045760Y0217736D01*
X0044367Y0216344D01*
X0042548Y0215591D01*
X0034280Y0215591D01*
X0032461Y0216344D01*
X0031068Y0217736D01*
X0030315Y0219556D01*
X0030315Y0221525D01*
X0031068Y0223344D01*
X0032461Y0224736D01*
X0034280Y0225490D01*
X0042548Y0225490D01*
X0044367Y0224736D01*
X0045760Y0223344D01*
X0046031Y0222690D01*
X0064734Y0222690D01*
X0065072Y0223028D01*
X0066168Y0223482D01*
X0067354Y0223482D01*
X0068449Y0223028D01*
X0068827Y0222651D01*
X0075909Y0222651D01*
X0080359Y0227100D01*
X0080359Y0311933D01*
X0079737Y0312554D01*
X0079737Y0232996D01*
X0077734Y0230993D01*
X0077734Y0230105D01*
X0077235Y0228901D01*
X0076313Y0227979D01*
X0075109Y0227480D01*
X0073806Y0227480D01*
X0072602Y0227979D01*
X0072191Y0228390D01*
X0046031Y0228390D01*
X0045760Y0227736D01*
X0044367Y0226344D01*
X0042548Y0225591D01*
X0034280Y0225591D01*
X0032461Y0226344D01*
X0031068Y0227736D01*
X0030315Y0229556D01*
X0030315Y0231525D01*
X0031068Y0233344D01*
X0032461Y0234736D01*
X0034280Y0235490D01*
X0042548Y0235490D01*
X0044367Y0234736D01*
X0045760Y0233344D01*
X0046031Y0232690D01*
X0071757Y0232690D01*
X0072602Y0233534D01*
X0073806Y0234033D01*
X0074693Y0234033D01*
X0075437Y0234777D01*
X0075437Y0310080D01*
X0074914Y0310296D01*
X0074076Y0311135D01*
X0073622Y0312231D01*
X0073622Y0313417D01*
X0074076Y0314512D01*
X0074914Y0315351D01*
X0075942Y0315776D01*
X0074914Y0316202D01*
X0074076Y0317040D01*
X0073622Y0318136D01*
X0073622Y0319322D01*
X0074076Y0320418D01*
X0074914Y0321256D01*
X0076010Y0321710D01*
X0077196Y0321710D01*
X0078292Y0321256D01*
X0079130Y0320418D01*
X0079337Y0319918D02*
X0080248Y0319918D01*
X0080053Y0318320D02*
X0081846Y0318320D01*
X0081652Y0316721D02*
X0083445Y0316721D01*
X0083250Y0315123D02*
X0085043Y0315123D01*
X0085280Y0313524D02*
X0084659Y0313524D01*
X0084659Y0311926D02*
X0085280Y0311926D01*
X0085280Y0310327D02*
X0084659Y0310327D01*
X0084659Y0308729D02*
X0085280Y0308729D01*
X0085280Y0307130D02*
X0084659Y0307130D01*
X0084659Y0305532D02*
X0085280Y0305532D01*
X0085280Y0303933D02*
X0084659Y0303933D01*
X0084659Y0302334D02*
X0085280Y0302334D01*
X0085280Y0300736D02*
X0084659Y0300736D01*
X0084659Y0299137D02*
X0085280Y0299137D01*
X0085280Y0297539D02*
X0084659Y0297539D01*
X0084659Y0295940D02*
X0085280Y0295940D01*
X0085280Y0294342D02*
X0084659Y0294342D01*
X0084659Y0292743D02*
X0085280Y0292743D01*
X0085280Y0291145D02*
X0084659Y0291145D01*
X0084659Y0289546D02*
X0085280Y0289546D01*
X0085280Y0287948D02*
X0084659Y0287948D01*
X0084659Y0286349D02*
X0085280Y0286349D01*
X0085280Y0284751D02*
X0084659Y0284751D01*
X0084659Y0283152D02*
X0085280Y0283152D01*
X0085280Y0281554D02*
X0084659Y0281554D01*
X0084659Y0279955D02*
X0085280Y0279955D01*
X0085280Y0278357D02*
X0084659Y0278357D01*
X0084659Y0276758D02*
X0085280Y0276758D01*
X0085280Y0275160D02*
X0084659Y0275160D01*
X0084659Y0273561D02*
X0085280Y0273561D01*
X0085280Y0271963D02*
X0084659Y0271963D01*
X0084659Y0270364D02*
X0085280Y0270364D01*
X0085280Y0268766D02*
X0084659Y0268766D01*
X0084659Y0267167D02*
X0085280Y0267167D01*
X0085280Y0265569D02*
X0084659Y0265569D01*
X0084659Y0263970D02*
X0085280Y0263970D01*
X0085280Y0262372D02*
X0084659Y0262372D01*
X0084659Y0260773D02*
X0085280Y0260773D01*
X0085280Y0259175D02*
X0084659Y0259175D01*
X0084659Y0257576D02*
X0085280Y0257576D01*
X0085280Y0255978D02*
X0084659Y0255978D01*
X0084659Y0254379D02*
X0085280Y0254379D01*
X0085280Y0252781D02*
X0084659Y0252781D01*
X0084659Y0251182D02*
X0085280Y0251182D01*
X0085280Y0249584D02*
X0084659Y0249584D01*
X0084659Y0247985D02*
X0085280Y0247985D01*
X0085280Y0246387D02*
X0084659Y0246387D01*
X0084659Y0244788D02*
X0085280Y0244788D01*
X0085280Y0243190D02*
X0084659Y0243190D01*
X0084659Y0241591D02*
X0085280Y0241591D01*
X0085280Y0239993D02*
X0084659Y0239993D01*
X0084659Y0238394D02*
X0085280Y0238394D01*
X0085280Y0236796D02*
X0084659Y0236796D01*
X0084659Y0235197D02*
X0085280Y0235197D01*
X0085280Y0233599D02*
X0084659Y0233599D01*
X0084659Y0232000D02*
X0085280Y0232000D01*
X0085280Y0230401D02*
X0084659Y0230401D01*
X0084659Y0228803D02*
X0085280Y0228803D01*
X0085280Y0227204D02*
X0084659Y0227204D01*
X0084659Y0225606D02*
X0085280Y0225606D01*
X0085280Y0224007D02*
X0083347Y0224007D01*
X0081749Y0222409D02*
X0085280Y0222409D01*
X0085280Y0220810D02*
X0080150Y0220810D01*
X0078552Y0219212D02*
X0085280Y0219212D01*
X0085280Y0217613D02*
X0067580Y0217613D01*
X0065941Y0217613D02*
X0045637Y0217613D01*
X0044687Y0214416D02*
X0084407Y0214416D01*
X0085280Y0216015D02*
X0043573Y0216015D01*
X0045978Y0212818D02*
X0058208Y0212818D01*
X0061927Y0212818D02*
X0082809Y0212818D01*
X0085693Y0209621D02*
X0090201Y0209621D01*
X0090201Y0211219D02*
X0087291Y0211219D01*
X0088890Y0212818D02*
X0090201Y0212818D01*
X0090201Y0214416D02*
X0089580Y0214416D01*
X0089580Y0216015D02*
X0090201Y0216015D01*
X0090201Y0217613D02*
X0089580Y0217613D01*
X0089580Y0219212D02*
X0090201Y0219212D01*
X0090201Y0220810D02*
X0089580Y0220810D01*
X0089580Y0222409D02*
X0090201Y0222409D01*
X0090201Y0224007D02*
X0089580Y0224007D01*
X0089580Y0225606D02*
X0090201Y0225606D01*
X0090201Y0227204D02*
X0089580Y0227204D01*
X0089580Y0228803D02*
X0090201Y0228803D01*
X0090201Y0230401D02*
X0089580Y0230401D01*
X0089580Y0232000D02*
X0090201Y0232000D01*
X0090201Y0233599D02*
X0089580Y0233599D01*
X0089580Y0235197D02*
X0090201Y0235197D01*
X0090201Y0236796D02*
X0089580Y0236796D01*
X0089580Y0238394D02*
X0090201Y0238394D01*
X0090201Y0239993D02*
X0089580Y0239993D01*
X0089580Y0241591D02*
X0090201Y0241591D01*
X0090201Y0243190D02*
X0089580Y0243190D01*
X0089580Y0244788D02*
X0090201Y0244788D01*
X0090201Y0246387D02*
X0089580Y0246387D01*
X0089580Y0247985D02*
X0090201Y0247985D01*
X0090201Y0249584D02*
X0089580Y0249584D01*
X0089580Y0251182D02*
X0090201Y0251182D01*
X0090201Y0252781D02*
X0089580Y0252781D01*
X0089580Y0254379D02*
X0090201Y0254379D01*
X0090201Y0255978D02*
X0089580Y0255978D01*
X0089580Y0257576D02*
X0090201Y0257576D01*
X0090201Y0259175D02*
X0089580Y0259175D01*
X0089580Y0260773D02*
X0090201Y0260773D01*
X0090201Y0262372D02*
X0089580Y0262372D01*
X0089580Y0263970D02*
X0090201Y0263970D01*
X0090201Y0265569D02*
X0089580Y0265569D01*
X0089580Y0267167D02*
X0090201Y0267167D01*
X0090201Y0268766D02*
X0089580Y0268766D01*
X0089580Y0270364D02*
X0090201Y0270364D01*
X0090201Y0271963D02*
X0089580Y0271963D01*
X0089580Y0273561D02*
X0090201Y0273561D01*
X0090201Y0275160D02*
X0089580Y0275160D01*
X0089580Y0276758D02*
X0090201Y0276758D01*
X0090201Y0278357D02*
X0089580Y0278357D01*
X0089580Y0279955D02*
X0090201Y0279955D01*
X0090201Y0281554D02*
X0089580Y0281554D01*
X0089580Y0283152D02*
X0090201Y0283152D01*
X0090201Y0284751D02*
X0089580Y0284751D01*
X0089580Y0286349D02*
X0090201Y0286349D01*
X0090201Y0287948D02*
X0089580Y0287948D01*
X0089580Y0289546D02*
X0090201Y0289546D01*
X0090201Y0291145D02*
X0089580Y0291145D01*
X0089580Y0292743D02*
X0090201Y0292743D01*
X0090201Y0294342D02*
X0089580Y0294342D01*
X0089580Y0295940D02*
X0090201Y0295940D01*
X0090201Y0297539D02*
X0089580Y0297539D01*
X0089580Y0299137D02*
X0090201Y0299137D01*
X0096288Y0304950D02*
X0096288Y0307312D01*
X0099635Y0310658D01*
X0099565Y0305532D02*
X0105709Y0305532D01*
X0105709Y0307130D02*
X0104584Y0307130D01*
X0104584Y0308729D02*
X0105709Y0308729D01*
X0105709Y0303933D02*
X0099413Y0303933D01*
X0098307Y0302334D02*
X0108058Y0302334D01*
X0110658Y0299635D02*
X0106131Y0295107D01*
X0098257Y0295107D01*
X0098257Y0204556D01*
X0084241Y0190540D01*
X0035265Y0190540D01*
X0033663Y0195234D02*
X0027222Y0195234D01*
X0027222Y0193636D02*
X0031360Y0193636D01*
X0030527Y0192037D02*
X0027222Y0192037D01*
X0027222Y0190439D02*
X0030315Y0190439D01*
X0030611Y0188840D02*
X0027222Y0188840D01*
X0027222Y0187242D02*
X0031563Y0187242D01*
X0032782Y0184592D02*
X0032179Y0184153D01*
X0031651Y0183626D01*
X0031213Y0183023D01*
X0030875Y0182359D01*
X0030644Y0181649D01*
X0030528Y0180913D01*
X0030528Y0180724D01*
X0035080Y0180724D01*
X0035080Y0180356D01*
X0030528Y0180356D01*
X0030528Y0180167D01*
X0030644Y0179431D01*
X0030875Y0178722D01*
X0031213Y0178057D01*
X0031651Y0177454D01*
X0032179Y0176927D01*
X0032782Y0176489D01*
X0033446Y0176150D01*
X0034155Y0175920D01*
X0034892Y0175803D01*
X0035080Y0175803D01*
X0035080Y0180356D01*
X0035449Y0180356D01*
X0035449Y0180724D01*
X0046301Y0180724D01*
X0046301Y0180913D01*
X0046184Y0181649D01*
X0045954Y0182359D01*
X0045615Y0183023D01*
X0045177Y0183626D01*
X0044650Y0184153D01*
X0044047Y0184592D01*
X0043382Y0184930D01*
X0042673Y0185161D01*
X0041937Y0185277D01*
X0035449Y0185277D01*
X0035449Y0180724D01*
X0035080Y0180724D01*
X0035080Y0185277D01*
X0034892Y0185277D01*
X0034155Y0185161D01*
X0033446Y0184930D01*
X0032782Y0184592D01*
X0032070Y0184045D02*
X0027222Y0184045D01*
X0027222Y0185643D02*
X0034153Y0185643D01*
X0035080Y0184045D02*
X0035449Y0184045D01*
X0035449Y0182446D02*
X0035080Y0182446D01*
X0035080Y0180848D02*
X0035449Y0180848D01*
X0035449Y0180356D02*
X0046301Y0180356D01*
X0046301Y0180167D01*
X0046184Y0179431D01*
X0045954Y0178722D01*
X0045615Y0178057D01*
X0045177Y0177454D01*
X0044650Y0176927D01*
X0044047Y0176489D01*
X0043382Y0176150D01*
X0042673Y0175920D01*
X0041937Y0175803D01*
X0035449Y0175803D01*
X0035449Y0180356D01*
X0035449Y0179249D02*
X0035080Y0179249D01*
X0035080Y0177651D02*
X0035449Y0177651D01*
X0035449Y0176052D02*
X0035080Y0176052D01*
X0033748Y0176052D02*
X0027222Y0176052D01*
X0027222Y0174454D02*
X0125184Y0174454D01*
X0125184Y0176052D02*
X0043080Y0176052D01*
X0045320Y0177651D02*
X0125184Y0177651D01*
X0125184Y0179249D02*
X0046125Y0179249D01*
X0046301Y0180848D02*
X0125184Y0180848D01*
X0125184Y0182446D02*
X0045909Y0182446D01*
X0044758Y0184045D02*
X0125184Y0184045D01*
X0125184Y0185643D02*
X0042675Y0185643D01*
X0045265Y0187242D02*
X0125184Y0187242D01*
X0127784Y0187242D02*
X0141748Y0187242D01*
X0141748Y0188840D02*
X0127784Y0188840D01*
X0127784Y0190439D02*
X0141748Y0190439D01*
X0141748Y0192037D02*
X0127784Y0192037D01*
X0127784Y0193636D02*
X0141748Y0193636D01*
X0141748Y0195234D02*
X0127784Y0195234D01*
X0127784Y0196833D02*
X0141748Y0196833D01*
X0141748Y0198431D02*
X0127784Y0198431D01*
X0127784Y0200030D02*
X0141748Y0200030D01*
X0141748Y0201628D02*
X0127784Y0201628D01*
X0127784Y0203227D02*
X0141748Y0203227D01*
X0141748Y0204825D02*
X0127784Y0204825D01*
X0127784Y0206424D02*
X0141748Y0206424D01*
X0141748Y0208022D02*
X0127784Y0208022D01*
X0127784Y0209621D02*
X0141748Y0209621D01*
X0141748Y0211219D02*
X0127784Y0211219D01*
X0127784Y0212818D02*
X0141748Y0212818D01*
X0141748Y0214416D02*
X0127784Y0214416D01*
X0127784Y0216015D02*
X0141748Y0216015D01*
X0141748Y0217613D02*
X0127784Y0217613D01*
X0127784Y0219212D02*
X0141748Y0219212D01*
X0141748Y0220810D02*
X0127784Y0220810D01*
X0127784Y0222409D02*
X0141748Y0222409D01*
X0141748Y0224007D02*
X0127784Y0224007D01*
X0127784Y0225606D02*
X0141748Y0225606D01*
X0141748Y0227204D02*
X0127784Y0227204D01*
X0127784Y0228803D02*
X0141748Y0228803D01*
X0141748Y0230401D02*
X0127784Y0230401D01*
X0127784Y0232000D02*
X0141748Y0232000D01*
X0141748Y0233599D02*
X0127784Y0233599D01*
X0127784Y0235197D02*
X0141748Y0235197D01*
X0141748Y0236796D02*
X0127784Y0236796D01*
X0127784Y0238394D02*
X0141748Y0238394D01*
X0141748Y0239993D02*
X0127784Y0239993D01*
X0127784Y0241591D02*
X0141748Y0241591D01*
X0141748Y0243190D02*
X0127784Y0243190D01*
X0127784Y0244788D02*
X0141748Y0244788D01*
X0141748Y0246387D02*
X0127784Y0246387D01*
X0127784Y0247985D02*
X0141748Y0247985D01*
X0141748Y0249584D02*
X0127784Y0249584D01*
X0127784Y0251182D02*
X0141748Y0251182D01*
X0141748Y0252781D02*
X0127784Y0252781D01*
X0127784Y0254379D02*
X0141748Y0254379D01*
X0141748Y0255978D02*
X0127784Y0255978D01*
X0127784Y0257576D02*
X0141748Y0257576D01*
X0141748Y0259175D02*
X0127784Y0259175D01*
X0127784Y0260773D02*
X0141748Y0260773D01*
X0141748Y0262372D02*
X0127784Y0262372D01*
X0127784Y0263970D02*
X0141748Y0263970D01*
X0141748Y0265569D02*
X0127784Y0265569D01*
X0127784Y0267167D02*
X0141748Y0267167D01*
X0141748Y0268766D02*
X0127784Y0268766D01*
X0127784Y0270364D02*
X0141748Y0270364D01*
X0141748Y0271963D02*
X0127784Y0271963D01*
X0127784Y0273561D02*
X0141748Y0273561D01*
X0141748Y0275160D02*
X0127784Y0275160D01*
X0127784Y0276758D02*
X0141748Y0276758D01*
X0141748Y0278357D02*
X0127784Y0278357D01*
X0127784Y0279955D02*
X0141748Y0279955D01*
X0141748Y0281554D02*
X0127784Y0281554D01*
X0127784Y0283152D02*
X0141748Y0283152D01*
X0141748Y0284751D02*
X0127784Y0284751D01*
X0127784Y0286349D02*
X0141748Y0286349D01*
X0141748Y0287948D02*
X0127784Y0287948D01*
X0127784Y0289546D02*
X0141748Y0289546D01*
X0141748Y0291145D02*
X0127784Y0291145D01*
X0127784Y0292743D02*
X0141748Y0292743D01*
X0141748Y0294342D02*
X0127784Y0294342D01*
X0127784Y0295940D02*
X0141748Y0295940D01*
X0141748Y0297539D02*
X0127784Y0297539D01*
X0127784Y0299137D02*
X0141748Y0299137D01*
X0141748Y0300736D02*
X0127784Y0300736D01*
X0127784Y0302334D02*
X0141748Y0302334D01*
X0141748Y0303933D02*
X0127784Y0303933D01*
X0127784Y0305532D02*
X0141748Y0305532D01*
X0141748Y0307130D02*
X0127784Y0307130D01*
X0127784Y0308729D02*
X0141748Y0308729D01*
X0141748Y0310327D02*
X0127784Y0310327D01*
X0127784Y0311926D02*
X0141748Y0311926D01*
X0141748Y0313524D02*
X0127784Y0313524D01*
X0127784Y0315123D02*
X0141748Y0315123D01*
X0141748Y0316721D02*
X0127784Y0316721D01*
X0127784Y0318320D02*
X0141748Y0318320D01*
X0141748Y0319918D02*
X0127784Y0319918D01*
X0127784Y0321517D02*
X0141748Y0321517D01*
X0141748Y0323115D02*
X0127784Y0323115D01*
X0127784Y0324714D02*
X0141748Y0324714D01*
X0141748Y0326312D02*
X0127784Y0326312D01*
X0127784Y0327911D02*
X0141748Y0327911D01*
X0141748Y0329509D02*
X0127784Y0329509D01*
X0127784Y0331108D02*
X0141748Y0331108D01*
X0141748Y0332706D02*
X0127784Y0332706D01*
X0127784Y0334305D02*
X0141748Y0334305D01*
X0141748Y0335903D02*
X0127784Y0335903D01*
X0127784Y0337502D02*
X0141748Y0337502D01*
X0141748Y0339100D02*
X0127784Y0339100D01*
X0127784Y0340699D02*
X0141748Y0340699D01*
X0141748Y0342297D02*
X0127784Y0342297D01*
X0127784Y0343896D02*
X0141748Y0343896D01*
X0141748Y0345494D02*
X0127784Y0345494D01*
X0127784Y0347093D02*
X0141748Y0347093D01*
X0141748Y0348691D02*
X0127784Y0348691D01*
X0127784Y0350290D02*
X0141748Y0350290D01*
X0141748Y0351888D02*
X0127784Y0351888D01*
X0127784Y0353487D02*
X0130163Y0353487D01*
X0130270Y0353416D02*
X0130828Y0353185D01*
X0131419Y0353067D01*
X0131721Y0353067D01*
X0131721Y0356131D01*
X0131721Y0359194D01*
X0131721Y0360068D01*
X0131721Y0363131D01*
X0131419Y0363131D01*
X0130828Y0363014D01*
X0130270Y0362783D01*
X0129768Y0362448D01*
X0129341Y0362021D01*
X0129006Y0361519D01*
X0128775Y0360961D01*
X0128657Y0360369D01*
X0128657Y0360068D01*
X0131721Y0360068D01*
X0131721Y0360068D01*
X0131721Y0360068D01*
X0131721Y0363131D01*
X0132023Y0363131D01*
X0132615Y0363014D01*
X0133173Y0362783D01*
X0133674Y0362448D01*
X0133690Y0362432D01*
X0133705Y0362448D01*
X0134207Y0362783D01*
X0134765Y0363014D01*
X0135356Y0363131D01*
X0135658Y0363131D01*
X0135658Y0360068D01*
X0135658Y0360068D01*
X0135658Y0360068D01*
X0134785Y0360068D01*
X0131721Y0360068D01*
X0128657Y0360068D01*
X0128657Y0359766D01*
X0128775Y0359174D01*
X0129006Y0358616D01*
X0129341Y0358115D01*
X0129357Y0358099D01*
X0129341Y0358084D01*
X0129006Y0357582D01*
X0128775Y0357024D01*
X0128657Y0356432D01*
X0128657Y0356131D01*
X0131721Y0356131D01*
X0131721Y0356131D01*
X0131721Y0356131D01*
X0131721Y0360068D01*
X0131721Y0360068D01*
X0131721Y0360068D01*
X0135658Y0360068D01*
X0135658Y0363131D01*
X0135960Y0363131D01*
X0136552Y0363014D01*
X0137110Y0362783D01*
X0137611Y0362448D01*
X0138038Y0362021D01*
X0138373Y0361519D01*
X0138604Y0360961D01*
X0138722Y0360369D01*
X0138722Y0360068D01*
X0135658Y0360068D01*
X0135658Y0360068D01*
X0135658Y0360068D01*
X0135658Y0356131D01*
X0135658Y0356131D01*
X0135658Y0356131D01*
X0132594Y0356131D01*
X0131721Y0356131D01*
X0128657Y0356131D01*
X0128657Y0355829D01*
X0128775Y0355237D01*
X0129006Y0354679D01*
X0129341Y0354178D01*
X0129768Y0353751D01*
X0130270Y0353416D01*
X0131721Y0353487D02*
X0131721Y0353487D01*
X0131721Y0353067D02*
X0131721Y0356131D01*
X0131721Y0356131D01*
X0131721Y0356131D01*
X0135658Y0356131D01*
X0135658Y0359194D01*
X0135658Y0360068D01*
X0138722Y0360068D01*
X0138722Y0359766D01*
X0138604Y0359174D01*
X0138373Y0358616D01*
X0138038Y0358115D01*
X0138023Y0358099D01*
X0138038Y0358084D01*
X0138373Y0357582D01*
X0138604Y0357024D01*
X0138722Y0356432D01*
X0138722Y0356131D01*
X0135658Y0356131D01*
X0135658Y0356131D01*
X0135658Y0356131D01*
X0135658Y0353067D01*
X0135356Y0353067D01*
X0134765Y0353185D01*
X0134207Y0353416D01*
X0133705Y0353751D01*
X0133690Y0353766D01*
X0133674Y0353751D01*
X0133173Y0353416D01*
X0132615Y0353185D01*
X0132023Y0353067D01*
X0131721Y0353067D01*
X0133279Y0353487D02*
X0134100Y0353487D01*
X0135658Y0353487D02*
X0135658Y0353487D01*
X0135658Y0353067D02*
X0135658Y0356131D01*
X0138722Y0356131D01*
X0138722Y0355829D01*
X0138604Y0355237D01*
X0138373Y0354679D01*
X0138038Y0354178D01*
X0137611Y0353751D01*
X0137110Y0353416D01*
X0136552Y0353185D01*
X0135960Y0353067D01*
X0135658Y0353067D01*
X0137216Y0353487D02*
X0141748Y0353487D01*
X0141748Y0355085D02*
X0138541Y0355085D01*
X0138672Y0356684D02*
X0141748Y0356684D01*
X0141748Y0358282D02*
X0138150Y0358282D01*
X0138722Y0359881D02*
X0141748Y0359881D01*
X0141748Y0360068D02*
X0141748Y0068729D01*
X0079531Y0068729D01*
X0079707Y0069034D01*
X0079815Y0069438D01*
X0079815Y0071622D01*
X0074653Y0071622D01*
X0074653Y0072372D01*
X0079815Y0072372D01*
X0079815Y0074556D01*
X0079707Y0074960D01*
X0079536Y0075256D01*
X0130867Y0075256D01*
X0131611Y0076000D01*
X0132233Y0076000D01*
X0133178Y0076392D01*
X0133901Y0077115D01*
X0134293Y0078060D01*
X0134293Y0079083D01*
X0133901Y0080028D01*
X0133178Y0080752D01*
X0132233Y0081143D01*
X0131210Y0081143D01*
X0130265Y0080752D01*
X0129541Y0080028D01*
X0129150Y0079083D01*
X0129150Y0078737D01*
X0127784Y0078737D01*
X0127784Y0085843D01*
X0128296Y0085843D01*
X0129241Y0086234D01*
X0129964Y0086957D01*
X0130356Y0087903D01*
X0130356Y0088926D01*
X0129964Y0089871D01*
X0129241Y0090594D01*
X0128296Y0090986D01*
X0127784Y0090986D01*
X0127784Y0370094D01*
X0131721Y0370094D01*
X0133290Y0369971D01*
X0136273Y0369002D01*
X0138811Y0367158D01*
X0140655Y0364620D01*
X0141625Y0361636D01*
X0141748Y0360068D01*
X0141637Y0361479D02*
X0138390Y0361479D01*
X0136229Y0363078D02*
X0141156Y0363078D01*
X0140614Y0364676D02*
X0127784Y0364676D01*
X0127784Y0363078D02*
X0131150Y0363078D01*
X0131721Y0363078D02*
X0131721Y0363078D01*
X0132292Y0363078D02*
X0135087Y0363078D01*
X0135658Y0363078D02*
X0135658Y0363078D01*
X0135658Y0361479D02*
X0135658Y0361479D01*
X0135658Y0359881D02*
X0135658Y0359881D01*
X0135658Y0358282D02*
X0135658Y0358282D01*
X0135658Y0356684D02*
X0135658Y0356684D01*
X0135658Y0355085D02*
X0135658Y0355085D01*
X0131721Y0355085D02*
X0131721Y0355085D01*
X0131721Y0356684D02*
X0131721Y0356684D01*
X0131721Y0358282D02*
X0131721Y0358282D01*
X0131721Y0359881D02*
X0131721Y0359881D01*
X0131721Y0361479D02*
X0131721Y0361479D01*
X0128990Y0361479D02*
X0127784Y0361479D01*
X0127784Y0359881D02*
X0128657Y0359881D01*
X0129229Y0358282D02*
X0127784Y0358282D01*
X0127784Y0356684D02*
X0128707Y0356684D01*
X0128838Y0355085D02*
X0127784Y0355085D01*
X0125184Y0355085D02*
X0071612Y0355085D01*
X0071675Y0355237D02*
X0071793Y0355829D01*
X0071793Y0356131D01*
X0071793Y0356432D01*
X0071675Y0357024D01*
X0071444Y0357582D01*
X0071109Y0358084D01*
X0070682Y0358510D01*
X0070180Y0358846D01*
X0069623Y0359077D01*
X0069031Y0359194D01*
X0068729Y0359194D01*
X0068427Y0359194D01*
X0067835Y0359077D01*
X0067278Y0358846D01*
X0066776Y0358510D01*
X0066349Y0358084D01*
X0066014Y0357582D01*
X0065783Y0357024D01*
X0065665Y0356432D01*
X0065665Y0356131D01*
X0068729Y0356131D01*
X0068729Y0359194D01*
X0068729Y0356131D01*
X0068729Y0356131D01*
X0068729Y0356131D01*
X0071793Y0356131D01*
X0068729Y0356131D01*
X0068729Y0356131D01*
X0065665Y0356131D01*
X0065665Y0355829D01*
X0065783Y0355237D01*
X0066014Y0354679D01*
X0066349Y0354178D01*
X0066776Y0353751D01*
X0067278Y0353416D01*
X0067835Y0353185D01*
X0068427Y0353067D01*
X0068729Y0353067D01*
X0068729Y0356131D01*
X0068729Y0356131D01*
X0068729Y0353067D01*
X0069031Y0353067D01*
X0069623Y0353185D01*
X0070180Y0353416D01*
X0070682Y0353751D01*
X0071109Y0354178D01*
X0071444Y0354679D01*
X0071675Y0355237D01*
X0071743Y0356684D02*
X0125184Y0356684D01*
X0125184Y0358282D02*
X0070910Y0358282D01*
X0068729Y0358282D02*
X0068729Y0358282D01*
X0068729Y0356684D02*
X0068729Y0356684D01*
X0068729Y0355085D02*
X0068729Y0355085D01*
X0068729Y0353487D02*
X0068729Y0353487D01*
X0067171Y0353487D02*
X0043757Y0353487D01*
X0044695Y0355085D02*
X0065846Y0355085D01*
X0065715Y0356684D02*
X0045392Y0356684D01*
X0045820Y0358282D02*
X0066548Y0358282D01*
X0070287Y0353487D02*
X0125184Y0353487D01*
X0125184Y0351888D02*
X0042158Y0351888D01*
X0039645Y0350290D02*
X0125184Y0350290D01*
X0125184Y0345494D02*
X0123745Y0345494D01*
X0121305Y0340699D02*
X0109873Y0340699D01*
X0110249Y0335903D02*
X0119381Y0335903D01*
X0120979Y0334305D02*
X0110249Y0334305D01*
X0110249Y0332706D02*
X0121573Y0332706D01*
X0123863Y0337502D02*
X0125184Y0337502D01*
X0125184Y0339100D02*
X0122265Y0339100D01*
X0125184Y0331108D02*
X0110249Y0331108D01*
X0110938Y0329509D02*
X0125184Y0329509D01*
X0125184Y0327911D02*
X0111052Y0327911D01*
X0110056Y0326312D02*
X0125184Y0326312D01*
X0125184Y0324714D02*
X0102552Y0324714D01*
X0103206Y0326312D02*
X0106143Y0326312D01*
X0105146Y0327911D02*
X0102910Y0327911D01*
X0102375Y0329509D02*
X0105261Y0329509D01*
X0105949Y0331108D02*
X0102375Y0331108D01*
X0102375Y0332706D02*
X0105949Y0332706D01*
X0105949Y0334305D02*
X0102375Y0334305D01*
X0102375Y0335903D02*
X0105949Y0335903D01*
X0105185Y0337502D02*
X0102375Y0337502D01*
X0102375Y0339100D02*
X0105222Y0339100D01*
X0106325Y0340699D02*
X0102375Y0340699D01*
X0106429Y0318320D02*
X0094226Y0318320D01*
X0094501Y0316721D02*
X0105921Y0316721D01*
X0110376Y0316721D02*
X0110941Y0316721D01*
X0110941Y0318320D02*
X0110376Y0318320D01*
X0110376Y0313524D02*
X0110941Y0313524D01*
X0110941Y0311926D02*
X0110376Y0311926D01*
X0110658Y0306328D02*
X0110658Y0299635D01*
X0115122Y0311926D02*
X0125184Y0311926D01*
X0125184Y0313524D02*
X0115395Y0313524D01*
X0120094Y0307130D02*
X0125184Y0307130D01*
X0125184Y0305532D02*
X0120950Y0305532D01*
X0120837Y0303933D02*
X0125184Y0303933D01*
X0125184Y0359881D02*
X0045923Y0359881D01*
X0045921Y0361479D02*
X0125184Y0361479D01*
X0125184Y0363078D02*
X0045492Y0363078D01*
X0044911Y0364676D02*
X0125184Y0364676D01*
X0125184Y0366275D02*
X0043988Y0366275D01*
X0042532Y0367873D02*
X0125184Y0367873D01*
X0125184Y0369472D02*
X0040292Y0369472D01*
X0027222Y0337502D02*
X0058089Y0337502D01*
X0056990Y0335903D02*
X0027222Y0335903D01*
X0027222Y0334305D02*
X0032387Y0334305D01*
X0032179Y0334153D02*
X0031651Y0333626D01*
X0031213Y0333023D01*
X0030875Y0332359D01*
X0030644Y0331649D01*
X0030528Y0330913D01*
X0030528Y0330724D01*
X0035080Y0330724D01*
X0035080Y0330356D01*
X0030528Y0330356D01*
X0030528Y0330167D01*
X0030644Y0329431D01*
X0030875Y0328722D01*
X0031213Y0328057D01*
X0031651Y0327454D01*
X0032179Y0326927D01*
X0032782Y0326489D01*
X0033446Y0326150D01*
X0034155Y0325920D01*
X0034892Y0325803D01*
X0035080Y0325803D01*
X0035080Y0330356D01*
X0035449Y0330356D01*
X0035449Y0330724D01*
X0046301Y0330724D01*
X0046301Y0330913D01*
X0046184Y0331649D01*
X0045954Y0332359D01*
X0045615Y0333023D01*
X0045177Y0333626D01*
X0044650Y0334153D01*
X0044047Y0334592D01*
X0043382Y0334930D01*
X0042673Y0335161D01*
X0041937Y0335277D01*
X0035449Y0335277D01*
X0035449Y0330724D01*
X0035080Y0330724D01*
X0035080Y0335277D01*
X0034892Y0335277D01*
X0034155Y0335161D01*
X0033446Y0334930D01*
X0032782Y0334592D01*
X0032179Y0334153D01*
X0031052Y0332706D02*
X0027222Y0332706D01*
X0027222Y0331108D02*
X0030558Y0331108D01*
X0030632Y0329509D02*
X0027222Y0329509D01*
X0027222Y0327911D02*
X0031320Y0327911D01*
X0033128Y0326312D02*
X0027222Y0326312D01*
X0027222Y0324714D02*
X0032438Y0324714D01*
X0032461Y0324736D02*
X0031068Y0323344D01*
X0030315Y0321525D01*
X0030315Y0319556D01*
X0031068Y0317736D01*
X0032461Y0316344D01*
X0034280Y0315591D01*
X0042548Y0315591D01*
X0044367Y0316344D01*
X0045760Y0317736D01*
X0046513Y0319556D01*
X0046513Y0321525D01*
X0045760Y0323344D01*
X0044367Y0324736D01*
X0042548Y0325490D01*
X0034280Y0325490D01*
X0032461Y0324736D01*
X0030974Y0323115D02*
X0027222Y0323115D01*
X0027222Y0321517D02*
X0030315Y0321517D01*
X0030315Y0319918D02*
X0027222Y0319918D01*
X0027222Y0318320D02*
X0030827Y0318320D01*
X0032084Y0316721D02*
X0027222Y0316721D01*
X0027222Y0315123D02*
X0033394Y0315123D01*
X0034280Y0315490D02*
X0032461Y0314736D01*
X0031068Y0313344D01*
X0030315Y0311525D01*
X0030315Y0309556D01*
X0031068Y0307736D01*
X0032461Y0306344D01*
X0034280Y0305591D01*
X0042548Y0305591D01*
X0044367Y0306344D01*
X0045760Y0307736D01*
X0046513Y0309556D01*
X0046513Y0311525D01*
X0045760Y0313344D01*
X0044367Y0314736D01*
X0042548Y0315490D01*
X0034280Y0315490D01*
X0031249Y0313524D02*
X0027222Y0313524D01*
X0027222Y0311926D02*
X0030481Y0311926D01*
X0030315Y0310327D02*
X0027222Y0310327D01*
X0027222Y0308729D02*
X0030658Y0308729D01*
X0031675Y0307130D02*
X0027222Y0307130D01*
X0027222Y0305532D02*
X0055752Y0305532D01*
X0055752Y0307130D02*
X0055492Y0307130D01*
X0052981Y0307130D02*
X0052981Y0307130D01*
X0052981Y0308729D02*
X0052981Y0308729D01*
X0052981Y0310327D02*
X0052981Y0310327D01*
X0052981Y0311926D02*
X0052981Y0311926D01*
X0052555Y0311926D02*
X0046347Y0311926D01*
X0046513Y0310327D02*
X0050262Y0310327D01*
X0049917Y0308729D02*
X0046171Y0308729D01*
X0045153Y0307130D02*
X0050470Y0307130D01*
X0053408Y0311926D02*
X0055752Y0311926D01*
X0055752Y0313524D02*
X0045580Y0313524D01*
X0043435Y0315123D02*
X0055752Y0315123D01*
X0055752Y0316721D02*
X0044745Y0316721D01*
X0046001Y0318320D02*
X0055752Y0318320D01*
X0055752Y0319918D02*
X0046513Y0319918D01*
X0046513Y0321517D02*
X0055752Y0321517D01*
X0055752Y0323115D02*
X0045855Y0323115D01*
X0044390Y0324714D02*
X0055752Y0324714D01*
X0055752Y0326312D02*
X0043700Y0326312D01*
X0043382Y0326150D02*
X0044047Y0326489D01*
X0044650Y0326927D01*
X0045177Y0327454D01*
X0045615Y0328057D01*
X0045954Y0328722D01*
X0046184Y0329431D01*
X0046301Y0330167D01*
X0046301Y0330356D01*
X0035449Y0330356D01*
X0035449Y0325803D01*
X0041937Y0325803D01*
X0042673Y0325920D01*
X0043382Y0326150D01*
X0045509Y0327911D02*
X0055752Y0327911D01*
X0055752Y0329509D02*
X0046197Y0329509D01*
X0046270Y0331108D02*
X0055752Y0331108D01*
X0055752Y0332706D02*
X0045777Y0332706D01*
X0044441Y0334305D02*
X0056067Y0334305D01*
X0060052Y0331108D02*
X0060356Y0331108D01*
X0060083Y0326312D02*
X0060052Y0326312D01*
X0060052Y0324714D02*
X0060083Y0324714D01*
X0060052Y0323115D02*
X0060083Y0323115D01*
X0060052Y0321517D02*
X0060083Y0321517D01*
X0060052Y0319918D02*
X0060083Y0319918D01*
X0060052Y0318320D02*
X0060083Y0318320D01*
X0060052Y0316721D02*
X0060083Y0316721D01*
X0060052Y0315123D02*
X0060083Y0315123D01*
X0060052Y0313524D02*
X0060083Y0313524D01*
X0060052Y0311926D02*
X0060083Y0311926D01*
X0060052Y0310327D02*
X0060083Y0310327D01*
X0060052Y0308729D02*
X0060083Y0308729D01*
X0060052Y0307130D02*
X0060083Y0307130D01*
X0060052Y0305532D02*
X0060083Y0305532D01*
X0060052Y0303933D02*
X0060083Y0303933D01*
X0060052Y0302334D02*
X0060083Y0302334D01*
X0060052Y0300736D02*
X0060083Y0300736D01*
X0060052Y0299137D02*
X0060083Y0299137D01*
X0060052Y0297539D02*
X0060083Y0297539D01*
X0060052Y0295940D02*
X0060083Y0295940D01*
X0060052Y0294342D02*
X0060083Y0294342D01*
X0060052Y0292743D02*
X0060083Y0292743D01*
X0060052Y0291145D02*
X0060083Y0291145D01*
X0060052Y0289546D02*
X0060083Y0289546D01*
X0060052Y0287948D02*
X0060083Y0287948D01*
X0060052Y0286349D02*
X0060083Y0286349D01*
X0060052Y0284751D02*
X0060083Y0284751D01*
X0060052Y0283152D02*
X0060083Y0283152D01*
X0060052Y0281554D02*
X0060083Y0281554D01*
X0060052Y0279955D02*
X0060083Y0279955D01*
X0060052Y0278357D02*
X0060083Y0278357D01*
X0060052Y0276758D02*
X0060083Y0276758D01*
X0060083Y0275160D02*
X0059854Y0275160D01*
X0060083Y0273561D02*
X0058255Y0273561D01*
X0056657Y0271963D02*
X0060083Y0271963D01*
X0060083Y0270364D02*
X0055175Y0270364D01*
X0054635Y0268766D02*
X0060083Y0268766D01*
X0058733Y0267167D02*
X0045191Y0267167D01*
X0045133Y0263970D02*
X0055536Y0263970D01*
X0057134Y0265569D02*
X0027222Y0265569D01*
X0027222Y0267167D02*
X0031638Y0267167D01*
X0030642Y0268766D02*
X0027222Y0268766D01*
X0027222Y0270364D02*
X0030315Y0270364D01*
X0030496Y0271963D02*
X0027222Y0271963D01*
X0027222Y0273561D02*
X0031286Y0273561D01*
X0033483Y0275160D02*
X0027222Y0275160D01*
X0027222Y0276758D02*
X0032047Y0276758D01*
X0032461Y0276344D02*
X0031068Y0277736D01*
X0030315Y0279556D01*
X0030315Y0281525D01*
X0031068Y0283344D01*
X0032461Y0284736D01*
X0034280Y0285490D01*
X0042548Y0285490D01*
X0044367Y0284736D01*
X0045760Y0283344D01*
X0046513Y0281525D01*
X0046513Y0279556D01*
X0045760Y0277736D01*
X0044367Y0276344D01*
X0042548Y0275591D01*
X0034280Y0275591D01*
X0032461Y0276344D01*
X0030812Y0278357D02*
X0027222Y0278357D01*
X0027222Y0279955D02*
X0030315Y0279955D01*
X0030327Y0281554D02*
X0027222Y0281554D01*
X0027222Y0283152D02*
X0030989Y0283152D01*
X0032496Y0284751D02*
X0027222Y0284751D01*
X0027222Y0286349D02*
X0033055Y0286349D01*
X0032782Y0286489D02*
X0033446Y0286150D01*
X0034155Y0285920D01*
X0034892Y0285803D01*
X0035080Y0285803D01*
X0035080Y0290356D01*
X0030528Y0290356D01*
X0030528Y0290167D01*
X0030644Y0289431D01*
X0030875Y0288722D01*
X0031213Y0288057D01*
X0031651Y0287454D01*
X0032179Y0286927D01*
X0032782Y0286489D01*
X0031293Y0287948D02*
X0027222Y0287948D01*
X0027222Y0289546D02*
X0030626Y0289546D01*
X0030528Y0290724D02*
X0035080Y0290724D01*
X0035080Y0290356D01*
X0035449Y0290356D01*
X0035449Y0290724D01*
X0046301Y0290724D01*
X0046301Y0290913D01*
X0046184Y0291649D01*
X0045954Y0292359D01*
X0045615Y0293023D01*
X0045177Y0293626D01*
X0044650Y0294153D01*
X0044047Y0294592D01*
X0043382Y0294930D01*
X0042673Y0295161D01*
X0041937Y0295277D01*
X0035449Y0295277D01*
X0035449Y0290724D01*
X0035080Y0290724D01*
X0035080Y0295277D01*
X0034892Y0295277D01*
X0034155Y0295161D01*
X0033446Y0294930D01*
X0032782Y0294592D01*
X0032179Y0294153D01*
X0031651Y0293626D01*
X0031213Y0293023D01*
X0030875Y0292359D01*
X0030644Y0291649D01*
X0030528Y0290913D01*
X0030528Y0290724D01*
X0030564Y0291145D02*
X0027222Y0291145D01*
X0027222Y0292743D02*
X0031071Y0292743D01*
X0032438Y0294342D02*
X0027222Y0294342D01*
X0027222Y0295940D02*
X0033435Y0295940D01*
X0034280Y0295591D02*
X0032461Y0296344D01*
X0031068Y0297736D01*
X0030315Y0299556D01*
X0030315Y0301525D01*
X0031068Y0303344D01*
X0032461Y0304736D01*
X0034280Y0305490D01*
X0042548Y0305490D01*
X0044367Y0304736D01*
X0045760Y0303344D01*
X0046513Y0301525D01*
X0046513Y0299556D01*
X0045760Y0297736D01*
X0044367Y0296344D01*
X0042548Y0295591D01*
X0034280Y0295591D01*
X0035080Y0294342D02*
X0035449Y0294342D01*
X0035449Y0292743D02*
X0035080Y0292743D01*
X0035080Y0291145D02*
X0035449Y0291145D01*
X0035449Y0290356D02*
X0046301Y0290356D01*
X0046301Y0290167D01*
X0046184Y0289431D01*
X0045954Y0288722D01*
X0045615Y0288057D01*
X0045177Y0287454D01*
X0044650Y0286927D01*
X0044047Y0286489D01*
X0043382Y0286150D01*
X0042673Y0285920D01*
X0041937Y0285803D01*
X0035449Y0285803D01*
X0035449Y0290356D01*
X0035449Y0289546D02*
X0035080Y0289546D01*
X0035080Y0287948D02*
X0035449Y0287948D01*
X0035449Y0286349D02*
X0035080Y0286349D01*
X0031266Y0297539D02*
X0027222Y0297539D01*
X0027222Y0299137D02*
X0030488Y0299137D01*
X0030315Y0300736D02*
X0027222Y0300736D01*
X0027222Y0302334D02*
X0030650Y0302334D01*
X0031658Y0303933D02*
X0027222Y0303933D01*
X0035080Y0326312D02*
X0035449Y0326312D01*
X0035449Y0327911D02*
X0035080Y0327911D01*
X0035080Y0329509D02*
X0035449Y0329509D01*
X0035449Y0331108D02*
X0035080Y0331108D01*
X0035080Y0332706D02*
X0035449Y0332706D01*
X0035449Y0334305D02*
X0035080Y0334305D01*
X0045171Y0303933D02*
X0055752Y0303933D01*
X0055752Y0302334D02*
X0046178Y0302334D01*
X0046513Y0300736D02*
X0055752Y0300736D01*
X0055752Y0299137D02*
X0046340Y0299137D01*
X0045562Y0297539D02*
X0055752Y0297539D01*
X0055752Y0295940D02*
X0043393Y0295940D01*
X0044390Y0294342D02*
X0055752Y0294342D01*
X0055752Y0292743D02*
X0045758Y0292743D01*
X0046264Y0291145D02*
X0055752Y0291145D01*
X0055752Y0289546D02*
X0046202Y0289546D01*
X0045536Y0287948D02*
X0055752Y0287948D01*
X0055752Y0286349D02*
X0043773Y0286349D01*
X0044332Y0284751D02*
X0055752Y0284751D01*
X0055752Y0283152D02*
X0045839Y0283152D01*
X0046501Y0281554D02*
X0055752Y0281554D01*
X0055752Y0279955D02*
X0046513Y0279955D01*
X0046017Y0278357D02*
X0055752Y0278357D01*
X0055371Y0276758D02*
X0044782Y0276758D01*
X0043345Y0275160D02*
X0053773Y0275160D01*
X0052174Y0273561D02*
X0045542Y0273561D01*
X0045600Y0257576D02*
X0054512Y0257576D01*
X0055781Y0257576D02*
X0063079Y0257576D01*
X0064394Y0259175D02*
X0057808Y0259175D01*
X0058420Y0260773D02*
X0064394Y0260773D01*
X0064394Y0262372D02*
X0060019Y0262372D01*
X0061617Y0263970D02*
X0064394Y0263970D01*
X0064394Y0265569D02*
X0063216Y0265569D01*
X0064383Y0267167D02*
X0064394Y0267167D01*
X0064383Y0268766D02*
X0064394Y0268766D01*
X0064383Y0270364D02*
X0064394Y0270364D01*
X0064383Y0271963D02*
X0064394Y0271963D01*
X0064383Y0273561D02*
X0064394Y0273561D01*
X0064383Y0275160D02*
X0064394Y0275160D01*
X0064383Y0276758D02*
X0064394Y0276758D01*
X0064383Y0278357D02*
X0064394Y0278357D01*
X0064383Y0279955D02*
X0064394Y0279955D01*
X0064383Y0281554D02*
X0064394Y0281554D01*
X0064383Y0283152D02*
X0064394Y0283152D01*
X0064383Y0284751D02*
X0064394Y0284751D01*
X0064383Y0286349D02*
X0064394Y0286349D01*
X0064383Y0287948D02*
X0064394Y0287948D01*
X0064383Y0289546D02*
X0064394Y0289546D01*
X0064383Y0291145D02*
X0064394Y0291145D01*
X0064383Y0292743D02*
X0064394Y0292743D01*
X0064383Y0294342D02*
X0064394Y0294342D01*
X0064383Y0295940D02*
X0064394Y0295940D01*
X0064383Y0297539D02*
X0064394Y0297539D01*
X0064383Y0299137D02*
X0064394Y0299137D01*
X0064383Y0300736D02*
X0064394Y0300736D01*
X0064383Y0302334D02*
X0064394Y0302334D01*
X0064383Y0303933D02*
X0064394Y0303933D01*
X0064383Y0305532D02*
X0064394Y0305532D01*
X0064383Y0307130D02*
X0064394Y0307130D01*
X0064383Y0308729D02*
X0064394Y0308729D01*
X0064383Y0310327D02*
X0064394Y0310327D01*
X0064383Y0311926D02*
X0064394Y0311926D01*
X0064383Y0313524D02*
X0064394Y0313524D01*
X0064383Y0315123D02*
X0064394Y0315123D01*
X0064383Y0316721D02*
X0064394Y0316721D01*
X0064383Y0318320D02*
X0064394Y0318320D01*
X0067354Y0324714D02*
X0075591Y0324714D01*
X0075974Y0323115D02*
X0068167Y0323115D01*
X0070462Y0321517D02*
X0075543Y0321517D01*
X0077664Y0321517D02*
X0078649Y0321517D01*
X0076040Y0326312D02*
X0064383Y0326312D01*
X0065104Y0327911D02*
X0077379Y0327911D01*
X0076575Y0329509D02*
X0065153Y0329509D01*
X0064110Y0331108D02*
X0076809Y0331108D01*
X0073869Y0319918D02*
X0071742Y0319918D01*
X0072573Y0318320D02*
X0073622Y0318320D01*
X0073104Y0316721D02*
X0074395Y0316721D01*
X0074686Y0315123D02*
X0073104Y0315123D01*
X0073104Y0313524D02*
X0073667Y0313524D01*
X0073748Y0311926D02*
X0073104Y0311926D01*
X0073104Y0310327D02*
X0074884Y0310327D01*
X0075437Y0308729D02*
X0073104Y0308729D01*
X0073104Y0307130D02*
X0075437Y0307130D01*
X0075437Y0305532D02*
X0073104Y0305532D01*
X0073104Y0303933D02*
X0075437Y0303933D01*
X0075437Y0302334D02*
X0073104Y0302334D01*
X0073104Y0300736D02*
X0075437Y0300736D01*
X0075437Y0299137D02*
X0073104Y0299137D01*
X0073104Y0297539D02*
X0075437Y0297539D01*
X0075437Y0295940D02*
X0073104Y0295940D01*
X0073104Y0294342D02*
X0075437Y0294342D01*
X0075437Y0292743D02*
X0073104Y0292743D01*
X0073104Y0291145D02*
X0075437Y0291145D01*
X0075437Y0289546D02*
X0073104Y0289546D01*
X0073104Y0287948D02*
X0075437Y0287948D01*
X0075437Y0286349D02*
X0073104Y0286349D01*
X0073104Y0284751D02*
X0075437Y0284751D01*
X0075437Y0283152D02*
X0073104Y0283152D01*
X0073104Y0281554D02*
X0075437Y0281554D01*
X0075437Y0279955D02*
X0073104Y0279955D01*
X0073104Y0278357D02*
X0075437Y0278357D01*
X0075437Y0276758D02*
X0073104Y0276758D01*
X0073104Y0275160D02*
X0075437Y0275160D01*
X0075437Y0273561D02*
X0073104Y0273561D01*
X0073104Y0271963D02*
X0075437Y0271963D01*
X0075437Y0270364D02*
X0073104Y0270364D01*
X0073104Y0268766D02*
X0075437Y0268766D01*
X0075437Y0267167D02*
X0073104Y0267167D01*
X0073104Y0265569D02*
X0075437Y0265569D01*
X0075437Y0263970D02*
X0073104Y0263970D01*
X0073104Y0262372D02*
X0075437Y0262372D01*
X0075437Y0260773D02*
X0073104Y0260773D01*
X0073104Y0259175D02*
X0075437Y0259175D01*
X0075437Y0257576D02*
X0073104Y0257576D01*
X0073104Y0255978D02*
X0075437Y0255978D01*
X0075437Y0254379D02*
X0073104Y0254379D01*
X0073104Y0252781D02*
X0075437Y0252781D01*
X0075437Y0251182D02*
X0073104Y0251182D01*
X0073104Y0249584D02*
X0075437Y0249584D01*
X0075437Y0247985D02*
X0072522Y0247985D01*
X0070923Y0246387D02*
X0075437Y0246387D01*
X0075437Y0244788D02*
X0069325Y0244788D01*
X0067726Y0243190D02*
X0075437Y0243190D01*
X0075437Y0241591D02*
X0066128Y0241591D01*
X0065017Y0239993D02*
X0075437Y0239993D01*
X0075437Y0238394D02*
X0064106Y0238394D01*
X0060643Y0243190D02*
X0045824Y0243190D01*
X0044242Y0244788D02*
X0063244Y0244788D01*
X0064842Y0246387D02*
X0044410Y0246387D01*
X0045863Y0247985D02*
X0057462Y0247985D01*
X0060705Y0247985D02*
X0066441Y0247985D01*
X0068039Y0249584D02*
X0061914Y0249584D01*
X0062766Y0251182D02*
X0068804Y0251182D01*
X0068804Y0252781D02*
X0064365Y0252781D01*
X0065963Y0254379D02*
X0068804Y0254379D01*
X0068804Y0255978D02*
X0067562Y0255978D01*
X0068694Y0257576D02*
X0068804Y0257576D01*
X0068804Y0259175D02*
X0068694Y0259175D01*
X0068694Y0260773D02*
X0068804Y0260773D01*
X0068804Y0262372D02*
X0068694Y0262372D01*
X0068694Y0263970D02*
X0068804Y0263970D01*
X0068804Y0265569D02*
X0068694Y0265569D01*
X0068694Y0267167D02*
X0068804Y0267167D01*
X0068804Y0268766D02*
X0068694Y0268766D01*
X0068694Y0270364D02*
X0068804Y0270364D01*
X0068804Y0271963D02*
X0068694Y0271963D01*
X0068694Y0273561D02*
X0068804Y0273561D01*
X0068804Y0275160D02*
X0068694Y0275160D01*
X0068694Y0276758D02*
X0068804Y0276758D01*
X0068804Y0278357D02*
X0068694Y0278357D01*
X0068694Y0279955D02*
X0068804Y0279955D01*
X0068804Y0281554D02*
X0068694Y0281554D01*
X0068694Y0283152D02*
X0068804Y0283152D01*
X0068804Y0284751D02*
X0068694Y0284751D01*
X0068694Y0286349D02*
X0068804Y0286349D01*
X0068804Y0287948D02*
X0068694Y0287948D01*
X0068694Y0289546D02*
X0068804Y0289546D01*
X0068804Y0291145D02*
X0068694Y0291145D01*
X0068694Y0292743D02*
X0068804Y0292743D01*
X0068804Y0294342D02*
X0068694Y0294342D01*
X0068694Y0295940D02*
X0068804Y0295940D01*
X0068804Y0297539D02*
X0068694Y0297539D01*
X0068694Y0299137D02*
X0068804Y0299137D01*
X0068804Y0300736D02*
X0068694Y0300736D01*
X0068694Y0302334D02*
X0068804Y0302334D01*
X0068804Y0303933D02*
X0068694Y0303933D01*
X0068694Y0305532D02*
X0068804Y0305532D01*
X0068804Y0307130D02*
X0068694Y0307130D01*
X0068694Y0308729D02*
X0068804Y0308729D01*
X0068804Y0310327D02*
X0068694Y0310327D01*
X0068694Y0311926D02*
X0068804Y0311926D01*
X0068804Y0313524D02*
X0068694Y0313524D01*
X0068694Y0315123D02*
X0068804Y0315123D01*
X0079737Y0311926D02*
X0080359Y0311926D01*
X0080359Y0310327D02*
X0079737Y0310327D01*
X0079737Y0308729D02*
X0080359Y0308729D01*
X0080359Y0307130D02*
X0079737Y0307130D01*
X0079737Y0305532D02*
X0080359Y0305532D01*
X0080359Y0303933D02*
X0079737Y0303933D01*
X0079737Y0302334D02*
X0080359Y0302334D01*
X0080359Y0300736D02*
X0079737Y0300736D01*
X0079737Y0299137D02*
X0080359Y0299137D01*
X0080359Y0297539D02*
X0079737Y0297539D01*
X0079737Y0295940D02*
X0080359Y0295940D01*
X0080359Y0294342D02*
X0079737Y0294342D01*
X0079737Y0292743D02*
X0080359Y0292743D01*
X0080359Y0291145D02*
X0079737Y0291145D01*
X0079737Y0289546D02*
X0080359Y0289546D01*
X0080359Y0287948D02*
X0079737Y0287948D01*
X0079737Y0286349D02*
X0080359Y0286349D01*
X0080359Y0284751D02*
X0079737Y0284751D01*
X0079737Y0283152D02*
X0080359Y0283152D01*
X0080359Y0281554D02*
X0079737Y0281554D01*
X0079737Y0279955D02*
X0080359Y0279955D01*
X0080359Y0278357D02*
X0079737Y0278357D01*
X0079737Y0276758D02*
X0080359Y0276758D01*
X0080359Y0275160D02*
X0079737Y0275160D01*
X0079737Y0273561D02*
X0080359Y0273561D01*
X0080359Y0271963D02*
X0079737Y0271963D01*
X0079737Y0270364D02*
X0080359Y0270364D01*
X0080359Y0268766D02*
X0079737Y0268766D01*
X0079737Y0267167D02*
X0080359Y0267167D01*
X0080359Y0265569D02*
X0079737Y0265569D01*
X0079737Y0263970D02*
X0080359Y0263970D01*
X0080359Y0262372D02*
X0079737Y0262372D01*
X0079737Y0260773D02*
X0080359Y0260773D01*
X0080359Y0259175D02*
X0079737Y0259175D01*
X0079737Y0257576D02*
X0080359Y0257576D01*
X0080359Y0255978D02*
X0079737Y0255978D01*
X0079737Y0254379D02*
X0080359Y0254379D01*
X0080359Y0252781D02*
X0079737Y0252781D01*
X0079737Y0251182D02*
X0080359Y0251182D01*
X0080359Y0249584D02*
X0079737Y0249584D01*
X0079737Y0247985D02*
X0080359Y0247985D01*
X0080359Y0246387D02*
X0079737Y0246387D01*
X0079737Y0244788D02*
X0080359Y0244788D01*
X0080359Y0243190D02*
X0079737Y0243190D01*
X0079737Y0241591D02*
X0080359Y0241591D01*
X0080359Y0239993D02*
X0079737Y0239993D01*
X0079737Y0238394D02*
X0080359Y0238394D01*
X0080359Y0236796D02*
X0079737Y0236796D01*
X0079737Y0235197D02*
X0080359Y0235197D01*
X0080359Y0233599D02*
X0079737Y0233599D01*
X0080359Y0232000D02*
X0078741Y0232000D01*
X0077734Y0230401D02*
X0080359Y0230401D01*
X0080359Y0228803D02*
X0077137Y0228803D01*
X0078865Y0225606D02*
X0042585Y0225606D01*
X0045096Y0224007D02*
X0077266Y0224007D01*
X0080359Y0227204D02*
X0045228Y0227204D01*
X0045505Y0233599D02*
X0072757Y0233599D01*
X0075437Y0235197D02*
X0043255Y0235197D01*
X0044819Y0236796D02*
X0075437Y0236796D01*
X0061480Y0255978D02*
X0043483Y0255978D01*
X0044725Y0254379D02*
X0059882Y0254379D01*
X0057108Y0252781D02*
X0045993Y0252781D01*
X0034243Y0225606D02*
X0027222Y0225606D01*
X0027222Y0227204D02*
X0031600Y0227204D01*
X0030627Y0228803D02*
X0027222Y0228803D01*
X0027222Y0230401D02*
X0030315Y0230401D01*
X0030512Y0232000D02*
X0027222Y0232000D01*
X0027222Y0233599D02*
X0031323Y0233599D01*
X0033573Y0235197D02*
X0027222Y0235197D01*
X0027222Y0236796D02*
X0032009Y0236796D01*
X0030796Y0238394D02*
X0027222Y0238394D01*
X0027222Y0239993D02*
X0030315Y0239993D01*
X0030342Y0241591D02*
X0027222Y0241591D01*
X0027222Y0243190D02*
X0031005Y0243190D01*
X0032586Y0244788D02*
X0027222Y0244788D01*
X0027222Y0246387D02*
X0032418Y0246387D01*
X0030965Y0247985D02*
X0027222Y0247985D01*
X0027222Y0249584D02*
X0030315Y0249584D01*
X0030315Y0251182D02*
X0027222Y0251182D01*
X0027222Y0252781D02*
X0030835Y0252781D01*
X0032104Y0254379D02*
X0027222Y0254379D01*
X0027222Y0255978D02*
X0033345Y0255978D01*
X0031229Y0257576D02*
X0027222Y0257576D01*
X0027222Y0259175D02*
X0030473Y0259175D01*
X0030315Y0260773D02*
X0027222Y0260773D01*
X0027222Y0262372D02*
X0030666Y0262372D01*
X0031695Y0263970D02*
X0027222Y0263970D01*
X0027222Y0224007D02*
X0031732Y0224007D01*
X0030681Y0222409D02*
X0027222Y0222409D01*
X0027222Y0220810D02*
X0030315Y0220810D01*
X0030457Y0219212D02*
X0027222Y0219212D01*
X0027222Y0217613D02*
X0031192Y0217613D01*
X0033256Y0216015D02*
X0027222Y0216015D01*
X0027222Y0214416D02*
X0032141Y0214416D01*
X0030851Y0212818D02*
X0027222Y0212818D01*
X0027222Y0211219D02*
X0030315Y0211219D01*
X0030315Y0209621D02*
X0027222Y0209621D01*
X0027222Y0208022D02*
X0030950Y0208022D01*
X0032381Y0206424D02*
X0027222Y0206424D01*
X0027222Y0204825D02*
X0032676Y0204825D01*
X0031020Y0203227D02*
X0027222Y0203227D01*
X0027222Y0201628D02*
X0030358Y0201628D01*
X0030315Y0200030D02*
X0027222Y0200030D01*
X0027222Y0198431D02*
X0030781Y0198431D01*
X0031972Y0196833D02*
X0027222Y0196833D01*
X0027222Y0182446D02*
X0030919Y0182446D01*
X0030528Y0180848D02*
X0027222Y0180848D01*
X0027222Y0179249D02*
X0030703Y0179249D01*
X0031509Y0177651D02*
X0027222Y0177651D01*
X0027222Y0172855D02*
X0125184Y0172855D01*
X0125184Y0171257D02*
X0027222Y0171257D01*
X0027222Y0169658D02*
X0125184Y0169658D01*
X0125184Y0168060D02*
X0027222Y0168060D01*
X0027222Y0166461D02*
X0125184Y0166461D01*
X0124044Y0164863D02*
X0124044Y0164863D01*
X0124044Y0163264D02*
X0124044Y0163264D01*
X0124044Y0161666D02*
X0124044Y0161666D01*
X0125184Y0160067D02*
X0027222Y0160067D01*
X0027222Y0161666D02*
X0121396Y0161666D01*
X0120980Y0163264D02*
X0027222Y0163264D01*
X0027222Y0164863D02*
X0121459Y0164863D01*
X0125184Y0158468D02*
X0027222Y0158468D01*
X0027222Y0156870D02*
X0125184Y0156870D01*
X0125184Y0155271D02*
X0027222Y0155271D01*
X0027222Y0153673D02*
X0125184Y0153673D01*
X0125184Y0152074D02*
X0027222Y0152074D01*
X0027222Y0150476D02*
X0125184Y0150476D01*
X0125184Y0148877D02*
X0027222Y0148877D01*
X0027222Y0147279D02*
X0125184Y0147279D01*
X0125184Y0145680D02*
X0027222Y0145680D01*
X0027222Y0144082D02*
X0125184Y0144082D01*
X0125184Y0142483D02*
X0027222Y0142483D01*
X0027222Y0140885D02*
X0125184Y0140885D01*
X0125184Y0139286D02*
X0027222Y0139286D01*
X0027222Y0137688D02*
X0125184Y0137688D01*
X0125184Y0136089D02*
X0027222Y0136089D01*
X0027222Y0134491D02*
X0125184Y0134491D01*
X0125184Y0132892D02*
X0027222Y0132892D01*
X0027222Y0131294D02*
X0125184Y0131294D01*
X0125184Y0129695D02*
X0027222Y0129695D01*
X0027222Y0128097D02*
X0125184Y0128097D01*
X0125184Y0126498D02*
X0027222Y0126498D01*
X0027222Y0124900D02*
X0125184Y0124900D01*
X0125184Y0123301D02*
X0058698Y0123301D01*
X0059429Y0122571D02*
X0057952Y0124048D01*
X0056022Y0124847D01*
X0053934Y0124847D01*
X0052004Y0124048D01*
X0050527Y0122571D01*
X0049728Y0120641D01*
X0049728Y0118553D01*
X0050527Y0116623D01*
X0052004Y0115146D01*
X0053934Y0114347D01*
X0056022Y0114347D01*
X0057952Y0115146D01*
X0059429Y0116623D01*
X0060228Y0118553D01*
X0060228Y0120641D01*
X0059429Y0122571D01*
X0059788Y0121703D02*
X0125184Y0121703D01*
X0125184Y0120104D02*
X0060228Y0120104D01*
X0060209Y0118506D02*
X0125184Y0118506D01*
X0125184Y0116907D02*
X0096617Y0116907D01*
X0096847Y0116678D02*
X0096008Y0117516D01*
X0094913Y0117970D01*
X0093727Y0117970D01*
X0092631Y0117516D01*
X0091792Y0116678D01*
X0091339Y0115582D01*
X0091339Y0115048D01*
X0090437Y0114147D01*
X0080028Y0114147D01*
X0080028Y0115092D01*
X0078974Y0116147D01*
X0069582Y0116147D01*
X0068528Y0115092D01*
X0068528Y0108901D01*
X0069582Y0107847D01*
X0078974Y0107847D01*
X0080028Y0108901D01*
X0080028Y0109847D01*
X0092218Y0109847D01*
X0094379Y0112008D01*
X0094913Y0112008D01*
X0096008Y0112462D01*
X0096847Y0113300D01*
X0097301Y0114396D01*
X0097301Y0115582D01*
X0096847Y0116678D01*
X0097301Y0115309D02*
X0125184Y0115309D01*
X0125184Y0113710D02*
X0097017Y0113710D01*
X0095163Y0112112D02*
X0125184Y0112112D01*
X0124831Y0110513D02*
X0124832Y0110513D01*
X0124831Y0108915D02*
X0124832Y0108915D01*
X0124831Y0107316D02*
X0124832Y0107316D01*
X0124831Y0105718D02*
X0124832Y0105718D01*
X0125184Y0104119D02*
X0102222Y0104119D01*
X0102222Y0103569D02*
X0102222Y0104755D01*
X0101768Y0105851D01*
X0100930Y0106689D01*
X0099834Y0107143D01*
X0098648Y0107143D01*
X0097552Y0106689D01*
X0096714Y0105851D01*
X0096260Y0104755D01*
X0096260Y0104222D01*
X0096185Y0104147D01*
X0080028Y0104147D01*
X0080028Y0105092D01*
X0078974Y0106147D01*
X0069582Y0106147D01*
X0068528Y0105092D01*
X0068528Y0098901D01*
X0069582Y0097847D01*
X0078974Y0097847D01*
X0080028Y0098901D01*
X0080028Y0099847D01*
X0097966Y0099847D01*
X0099300Y0101181D01*
X0099834Y0101181D01*
X0100930Y0101635D01*
X0101768Y0102474D01*
X0102222Y0103569D01*
X0101788Y0102521D02*
X0125184Y0102521D01*
X0125184Y0100922D02*
X0099041Y0100922D01*
X0096658Y0105718D02*
X0079403Y0105718D01*
X0080028Y0108915D02*
X0121870Y0108915D01*
X0121863Y0107316D02*
X0061903Y0107316D01*
X0061903Y0107887D02*
X0060643Y0109147D01*
X0056428Y0109147D01*
X0056428Y0110092D01*
X0055374Y0111147D01*
X0045982Y0111147D01*
X0044928Y0110092D01*
X0044928Y0103901D01*
X0045982Y0102847D01*
X0055374Y0102847D01*
X0056428Y0103901D01*
X0056428Y0104847D01*
X0060643Y0104847D01*
X0061903Y0106106D01*
X0061903Y0107887D01*
X0060876Y0108915D02*
X0068528Y0108915D01*
X0068528Y0110513D02*
X0056007Y0110513D01*
X0058114Y0115309D02*
X0068744Y0115309D01*
X0068528Y0113710D02*
X0027222Y0113710D01*
X0027222Y0112112D02*
X0068528Y0112112D01*
X0069153Y0105718D02*
X0061514Y0105718D01*
X0056428Y0104119D02*
X0068528Y0104119D01*
X0068528Y0102521D02*
X0027222Y0102521D01*
X0027222Y0104119D02*
X0044928Y0104119D01*
X0044928Y0105718D02*
X0027222Y0105718D01*
X0027222Y0107316D02*
X0044928Y0107316D01*
X0044928Y0108915D02*
X0027222Y0108915D01*
X0027222Y0110513D02*
X0045349Y0110513D01*
X0046519Y0100934D02*
X0046115Y0100826D01*
X0045753Y0100617D01*
X0045458Y0100322D01*
X0045249Y0099960D01*
X0045141Y0099556D01*
X0045141Y0097372D01*
X0050303Y0097372D01*
X0050303Y0100934D01*
X0046519Y0100934D01*
X0046474Y0100922D02*
X0027222Y0100922D01*
X0027222Y0099324D02*
X0045141Y0099324D01*
X0045141Y0097725D02*
X0027222Y0097725D01*
X0027222Y0096127D02*
X0045141Y0096127D01*
X0045141Y0096622D02*
X0045141Y0094438D01*
X0045249Y0094034D01*
X0045458Y0093672D01*
X0045753Y0093377D01*
X0046115Y0093168D01*
X0046519Y0093059D01*
X0050303Y0093059D01*
X0050303Y0096622D01*
X0045141Y0096622D01*
X0045141Y0094528D02*
X0027222Y0094528D01*
X0027222Y0092930D02*
X0068528Y0092930D01*
X0068528Y0094528D02*
X0056215Y0094528D01*
X0056215Y0094438D02*
X0056215Y0096622D01*
X0051053Y0096622D01*
X0051053Y0097372D01*
X0050303Y0097372D01*
X0050303Y0096622D01*
X0051053Y0096622D01*
X0051053Y0093059D01*
X0054837Y0093059D01*
X0055241Y0093168D01*
X0055603Y0093377D01*
X0055898Y0093672D01*
X0056107Y0094034D01*
X0056215Y0094438D01*
X0056215Y0096127D02*
X0069562Y0096127D01*
X0068528Y0099324D02*
X0056215Y0099324D01*
X0056215Y0099556D02*
X0056107Y0099960D01*
X0055898Y0100322D01*
X0055603Y0100617D01*
X0055241Y0100826D01*
X0054837Y0100934D01*
X0051053Y0100934D01*
X0051053Y0097372D01*
X0056215Y0097372D01*
X0056215Y0099556D01*
X0056215Y0097725D02*
X0103352Y0097725D01*
X0102260Y0096127D02*
X0078994Y0096127D01*
X0080028Y0094528D02*
X0101330Y0094528D01*
X0104214Y0091331D02*
X0125184Y0091331D01*
X0125184Y0092930D02*
X0106988Y0092930D01*
X0108052Y0094528D02*
X0125184Y0094528D01*
X0125184Y0096127D02*
X0108032Y0096127D01*
X0106941Y0097725D02*
X0125184Y0097725D01*
X0125184Y0099324D02*
X0080028Y0099324D01*
X0080028Y0089732D02*
X0125104Y0089732D01*
X0127784Y0091331D02*
X0141748Y0091331D01*
X0141748Y0089732D02*
X0130022Y0089732D01*
X0130356Y0088134D02*
X0141748Y0088134D01*
X0141748Y0086535D02*
X0129542Y0086535D01*
X0127784Y0084937D02*
X0141748Y0084937D01*
X0141748Y0083338D02*
X0127784Y0083338D01*
X0127784Y0081740D02*
X0141748Y0081740D01*
X0141748Y0080141D02*
X0133788Y0080141D01*
X0134293Y0078543D02*
X0141748Y0078543D01*
X0141748Y0076944D02*
X0133731Y0076944D01*
X0130957Y0075346D02*
X0141748Y0075346D01*
X0141748Y0073747D02*
X0079815Y0073747D01*
X0079815Y0070550D02*
X0141748Y0070550D01*
X0141748Y0068952D02*
X0079660Y0068952D01*
X0074653Y0072149D02*
X0141748Y0072149D01*
X0141732Y0065755D02*
X0066759Y0065755D01*
X0066887Y0064156D02*
X0141732Y0064156D01*
X0141732Y0062558D02*
X0066010Y0062558D01*
X0063611Y0064792D02*
X0061406Y0066997D01*
X0050678Y0066997D01*
X0050714Y0062558D02*
X0027222Y0062558D01*
X0027222Y0064156D02*
X0044928Y0064156D01*
X0044928Y0065755D02*
X0027222Y0065755D01*
X0027222Y0067353D02*
X0044928Y0067353D01*
X0044928Y0068952D02*
X0027222Y0068952D01*
X0027222Y0070550D02*
X0045386Y0070550D01*
X0045082Y0073747D02*
X0027222Y0073747D01*
X0027222Y0072149D02*
X0062192Y0072149D01*
X0062192Y0073747D02*
X0056274Y0073747D01*
X0055970Y0070550D02*
X0062192Y0070550D01*
X0064792Y0070550D02*
X0068741Y0070550D01*
X0068741Y0071622D02*
X0068741Y0069438D01*
X0068849Y0069034D01*
X0069025Y0068729D01*
X0064792Y0068729D01*
X0064792Y0075256D01*
X0069020Y0075256D01*
X0068849Y0074960D01*
X0068741Y0074556D01*
X0068741Y0072372D01*
X0073903Y0072372D01*
X0073903Y0071622D01*
X0068741Y0071622D01*
X0068741Y0073747D02*
X0064792Y0073747D01*
X0064792Y0072149D02*
X0073903Y0072149D01*
X0068896Y0068952D02*
X0064792Y0068952D01*
X0061212Y0062558D02*
X0059242Y0062558D01*
X0060013Y0060959D02*
X0141732Y0060959D01*
X0141732Y0059361D02*
X0060228Y0059361D01*
X0059983Y0057762D02*
X0141732Y0057762D01*
X0141732Y0056164D02*
X0059169Y0056164D01*
X0057032Y0054565D02*
X0141732Y0054565D01*
X0141732Y0052967D02*
X0027222Y0052967D01*
X0027222Y0054565D02*
X0052924Y0054565D01*
X0050786Y0056164D02*
X0027222Y0056164D01*
X0027222Y0057762D02*
X0049972Y0057762D01*
X0049728Y0059361D02*
X0027222Y0059361D01*
X0027222Y0060959D02*
X0049943Y0060959D01*
X0044928Y0075346D02*
X0027222Y0075346D01*
X0027222Y0076944D02*
X0044928Y0076944D01*
X0044928Y0078543D02*
X0027222Y0078543D01*
X0027222Y0080141D02*
X0044977Y0080141D01*
X0045491Y0083338D02*
X0027222Y0083338D01*
X0027222Y0081740D02*
X0068528Y0081740D01*
X0068528Y0083338D02*
X0055865Y0083338D01*
X0056379Y0080141D02*
X0068528Y0080141D01*
X0068528Y0089732D02*
X0056428Y0089732D01*
X0051053Y0094528D02*
X0050303Y0094528D01*
X0050303Y0096127D02*
X0051053Y0096127D01*
X0051053Y0097725D02*
X0050303Y0097725D01*
X0050303Y0099324D02*
X0051053Y0099324D01*
X0051053Y0100922D02*
X0050303Y0100922D01*
X0054882Y0100922D02*
X0068528Y0100922D01*
X0068528Y0091331D02*
X0027222Y0091331D01*
X0027222Y0089732D02*
X0044928Y0089732D01*
X0044928Y0088134D02*
X0027222Y0088134D01*
X0027222Y0086535D02*
X0044928Y0086535D01*
X0044928Y0084937D02*
X0027222Y0084937D01*
X0027222Y0115309D02*
X0051841Y0115309D01*
X0050409Y0116907D02*
X0027222Y0116907D01*
X0027222Y0118506D02*
X0049747Y0118506D01*
X0049728Y0120104D02*
X0027222Y0120104D01*
X0027222Y0121703D02*
X0050168Y0121703D01*
X0051258Y0123301D02*
X0027222Y0123301D01*
X0057206Y0064156D02*
X0060335Y0064156D01*
X0045923Y0038580D02*
X0141732Y0038580D01*
X0141713Y0036982D02*
X0045923Y0036982D01*
X0045803Y0035383D02*
X0141517Y0035383D01*
X0140997Y0033785D02*
X0045375Y0033785D01*
X0044658Y0032186D02*
X0140276Y0032186D01*
X0139115Y0030588D02*
X0043692Y0030588D01*
X0042094Y0028989D02*
X0137196Y0028989D01*
X0133427Y0027391D02*
X0039533Y0027391D01*
X0045510Y0040179D02*
X0141732Y0040179D01*
X0141732Y0041777D02*
X0044948Y0041777D01*
X0044025Y0043376D02*
X0141732Y0043376D01*
X0141732Y0044974D02*
X0042597Y0044974D01*
X0040404Y0046573D02*
X0141732Y0046573D01*
X0141732Y0048171D02*
X0027222Y0048171D01*
X0027222Y0046573D02*
X0030125Y0046573D01*
X0027933Y0044974D02*
X0027222Y0044974D01*
X0027222Y0049770D02*
X0141732Y0049770D01*
X0141732Y0051368D02*
X0027222Y0051368D01*
X0059546Y0116907D02*
X0092022Y0116907D01*
X0091339Y0115309D02*
X0079812Y0115309D01*
X0092884Y0110513D02*
X0122930Y0110513D01*
X0122881Y0105718D02*
X0101823Y0105718D01*
X0127784Y0105718D02*
X0141748Y0105718D01*
X0141748Y0107316D02*
X0127784Y0107316D01*
X0127784Y0108915D02*
X0141748Y0108915D01*
X0141748Y0110513D02*
X0127784Y0110513D01*
X0127784Y0112112D02*
X0141748Y0112112D01*
X0141748Y0113710D02*
X0127784Y0113710D01*
X0127784Y0115309D02*
X0141748Y0115309D01*
X0141748Y0116907D02*
X0127784Y0116907D01*
X0127784Y0118506D02*
X0141748Y0118506D01*
X0141748Y0120104D02*
X0127784Y0120104D01*
X0127784Y0121703D02*
X0141748Y0121703D01*
X0141748Y0123301D02*
X0127784Y0123301D01*
X0127784Y0124900D02*
X0141748Y0124900D01*
X0141748Y0126498D02*
X0127784Y0126498D01*
X0127784Y0128097D02*
X0141748Y0128097D01*
X0141748Y0129695D02*
X0127784Y0129695D01*
X0127784Y0131294D02*
X0141748Y0131294D01*
X0141748Y0132892D02*
X0127784Y0132892D01*
X0127784Y0134491D02*
X0141748Y0134491D01*
X0141748Y0136089D02*
X0127784Y0136089D01*
X0127784Y0137688D02*
X0141748Y0137688D01*
X0141748Y0139286D02*
X0127784Y0139286D01*
X0127784Y0140885D02*
X0141748Y0140885D01*
X0141748Y0142483D02*
X0127784Y0142483D01*
X0127784Y0144082D02*
X0141748Y0144082D01*
X0141748Y0145680D02*
X0127784Y0145680D01*
X0127784Y0147279D02*
X0141748Y0147279D01*
X0141748Y0148877D02*
X0127784Y0148877D01*
X0127784Y0150476D02*
X0141748Y0150476D01*
X0141748Y0152074D02*
X0127784Y0152074D01*
X0127784Y0153673D02*
X0141748Y0153673D01*
X0141748Y0155271D02*
X0127784Y0155271D01*
X0127784Y0156870D02*
X0141748Y0156870D01*
X0141748Y0158468D02*
X0127784Y0158468D01*
X0127784Y0160067D02*
X0141748Y0160067D01*
X0141748Y0161666D02*
X0127784Y0161666D01*
X0127784Y0163264D02*
X0141748Y0163264D01*
X0141748Y0164863D02*
X0127784Y0164863D01*
X0127784Y0166461D02*
X0141748Y0166461D01*
X0141748Y0168060D02*
X0127784Y0168060D01*
X0127784Y0169658D02*
X0141748Y0169658D01*
X0141748Y0171257D02*
X0127784Y0171257D01*
X0127784Y0172855D02*
X0141748Y0172855D01*
X0141748Y0174454D02*
X0127784Y0174454D01*
X0127784Y0176052D02*
X0141748Y0176052D01*
X0141748Y0177651D02*
X0127784Y0177651D01*
X0127784Y0179249D02*
X0141748Y0179249D01*
X0141748Y0180848D02*
X0127784Y0180848D01*
X0127784Y0182446D02*
X0141748Y0182446D01*
X0141748Y0184045D02*
X0127784Y0184045D01*
X0127784Y0185643D02*
X0141748Y0185643D01*
X0141748Y0104119D02*
X0127784Y0104119D01*
X0127784Y0102521D02*
X0141748Y0102521D01*
X0141748Y0100922D02*
X0127784Y0100922D01*
X0127784Y0099324D02*
X0141748Y0099324D01*
X0141748Y0097725D02*
X0127784Y0097725D01*
X0127784Y0096127D02*
X0141748Y0096127D01*
X0141748Y0094528D02*
X0127784Y0094528D01*
X0127784Y0092930D02*
X0141748Y0092930D01*
X0129654Y0080141D02*
X0127784Y0080141D01*
X0083660Y0193636D02*
X0045468Y0193636D01*
X0045808Y0203227D02*
X0051598Y0203227D01*
X0054206Y0203227D02*
X0086013Y0203227D01*
X0087612Y0204825D02*
X0044152Y0204825D01*
X0044447Y0206424D02*
X0089210Y0206424D01*
X0090201Y0208022D02*
X0061845Y0208022D01*
X0058291Y0208022D02*
X0045878Y0208022D01*
X0055701Y0310327D02*
X0055752Y0310327D01*
X0094501Y0310327D02*
X0094685Y0310327D01*
X0094685Y0311926D02*
X0094501Y0311926D01*
X0094501Y0313524D02*
X0094685Y0313524D01*
X0094501Y0315123D02*
X0095254Y0315123D01*
X0127784Y0366275D02*
X0139453Y0366275D01*
X0137826Y0367873D02*
X0127784Y0367873D01*
X0127784Y0369472D02*
X0134826Y0369472D01*
D16*
X0135658Y0360068D03*
X0135658Y0356131D03*
X0131721Y0356131D03*
X0131721Y0360068D03*
X0117942Y0304950D03*
X0121879Y0285265D03*
X0098257Y0295107D03*
X0096288Y0304950D03*
X0068729Y0356131D03*
X0052981Y0308887D03*
X0074457Y0230757D03*
X0124241Y0226209D03*
X0124044Y0163217D03*
X0124831Y0108099D03*
X0063611Y0064792D03*
D17*
X0074278Y0081997D02*
X0113493Y0081997D01*
X0115973Y0084477D01*
X0126367Y0086997D02*
X0050678Y0086997D01*
X0050678Y0076997D02*
X0130146Y0076997D01*
X0131721Y0078572D01*
X0126367Y0086997D02*
X0127784Y0088414D01*
X0105146Y0095304D02*
X0101839Y0091997D01*
X0074278Y0091997D01*
X0074278Y0101997D02*
X0097076Y0101997D01*
X0099241Y0104162D01*
X0091328Y0111997D02*
X0094320Y0114989D01*
X0091328Y0111997D02*
X0074278Y0111997D01*
X0059753Y0106997D02*
X0050678Y0106997D01*
X0052902Y0200540D02*
X0035265Y0200540D01*
X0035265Y0210540D02*
X0059878Y0210540D01*
X0060068Y0210461D02*
X0083493Y0210461D01*
X0087430Y0214398D01*
X0087430Y0315776D01*
X0078572Y0324635D01*
X0076603Y0318729D02*
X0082509Y0312824D01*
X0082509Y0226209D01*
X0076800Y0220501D01*
X0066761Y0220501D01*
X0066666Y0220540D02*
X0035265Y0220540D01*
X0035265Y0230540D02*
X0074241Y0230540D01*
X0074457Y0230757D01*
X0077587Y0233887D01*
X0077587Y0311839D01*
X0076603Y0312824D01*
X0070954Y0316898D02*
X0068926Y0318926D01*
X0070954Y0316898D02*
X0070954Y0249457D01*
X0062036Y0240540D01*
X0035265Y0240540D01*
X0035265Y0250540D02*
X0059083Y0250540D01*
X0066544Y0258001D01*
X0066544Y0321308D01*
X0065186Y0322666D01*
X0062233Y0328769D02*
X0062233Y0267627D01*
X0055146Y0260540D01*
X0035265Y0260540D01*
X0035265Y0270540D02*
X0052194Y0270540D01*
X0057902Y0276249D01*
X0057902Y0333099D01*
X0059871Y0335068D01*
X0079556Y0329950D02*
X0092351Y0317154D01*
X0092351Y0206524D01*
X0086367Y0200540D01*
X0052902Y0200540D01*
X0059878Y0210540D02*
X0059908Y0210538D01*
X0059938Y0210533D01*
X0059967Y0210525D01*
X0059995Y0210513D01*
X0060021Y0210499D01*
X0060046Y0210481D01*
X0060068Y0210461D01*
X0066666Y0220540D02*
X0066687Y0220538D01*
X0066707Y0220533D01*
X0066727Y0220525D01*
X0066745Y0220514D01*
X0066761Y0220501D01*
X0100225Y0326603D02*
X0100225Y0344320D01*
X0121879Y0344320D01*
X0123847Y0342351D01*
X0120068Y0338257D02*
X0124221Y0334103D01*
X0120068Y0338257D02*
X0108099Y0338257D01*
X0108099Y0328572D01*
X0108119Y0328591D01*
X0100225Y0344320D02*
X0098257Y0344320D01*
D18*
X0098257Y0344320D03*
X0100225Y0326603D03*
X0108099Y0328572D03*
X0108099Y0338257D03*
X0123847Y0342351D03*
X0124221Y0334103D03*
X0079556Y0329950D03*
X0078572Y0324635D03*
X0076603Y0318729D03*
X0076603Y0312824D03*
X0068926Y0318926D03*
X0065186Y0322666D03*
X0062233Y0328769D03*
X0059871Y0335068D03*
X0052194Y0270540D03*
X0055146Y0260540D03*
X0059083Y0250540D03*
X0062036Y0240540D03*
X0066761Y0220501D03*
X0060068Y0210461D03*
X0052902Y0200540D03*
X0094320Y0114989D03*
X0099241Y0104162D03*
X0105146Y0095304D03*
X0115973Y0084477D03*
X0127784Y0088414D03*
X0131721Y0078572D03*
M02*
