%
M48
M72
T01C0.01378
T02C0.01969
T03C0.03937
T04C0.06900
T05C0.10630
%
T01
X52902Y200540
X60068Y210461
X66761Y220501
X62036Y240540
X59083Y250540
X55146Y260540
X52194Y270540
X68926Y318926
X65186Y322666
X62233Y328769
X59871Y335068
X76603Y318729
X78572Y324635
X79556Y329950
X76603Y312824
X98257Y344320
X100225Y326603
X108099Y328572
X108099Y338257
X123847Y342351
X124221Y334103
X94320Y114989
X99241Y104162
X105146Y95304
X115973Y84477
X127784Y88414
X131721Y78572
T02
X124831Y108099
X124044Y163217
X124241Y226209
X121879Y285265
X117942Y304950
X98257Y295107
X96288Y304950
X68729Y356131
X52981Y308887
X74457Y230757
X131721Y356131
X131721Y360068
X135658Y360068
X135658Y356131
X63611Y64792
T03
X35265Y180540
X35265Y190540
X35265Y200540
X35265Y210540
X35265Y220540
X35265Y230540
X35265Y240540
X35265Y250540
X35265Y260540
X35265Y270540
X35265Y280540
X35265Y290540
X35265Y300540
X35265Y310540
X35265Y320540
X35265Y330540
T04
X54978Y119597
X54978Y59397
T05
X35265Y37233
X35265Y360068
M30
