G75*
%MOIN*%
%OFA0B0*%
%FSLAX25Y25*%
%IPPOS*%
%LPD*%
%AMOC8*
5,1,8,0,0,1.08239X$1,22.5*
%
%ADD10C,0.00000*%
%ADD11C,0.07480*%
%ADD12C,0.05906*%
%ADD13C,0.01600*%
%ADD14C,0.02953*%
%ADD15C,0.02362*%
%ADD16C,0.00700*%
%ADD17C,0.00591*%
D10*
X0009082Y0008987D02*
X0013019Y0005050D01*
X0221681Y0005050D01*
X0225618Y0008987D01*
X0225618Y0119223D01*
X0221681Y0123160D01*
X0013019Y0123160D01*
X0009082Y0119223D01*
X0009082Y0008987D01*
D11*
X0014791Y0050030D03*
X0014791Y0078180D03*
D12*
X0018413Y0117255D02*
X0018413Y0123160D01*
X0028413Y0123160D02*
X0028413Y0117255D01*
X0038413Y0117255D02*
X0038413Y0123160D01*
X0048413Y0123160D02*
X0048413Y0117255D01*
X0058413Y0117255D02*
X0058413Y0123160D01*
X0068413Y0123160D02*
X0068413Y0117255D01*
X0078413Y0117255D02*
X0078413Y0123160D01*
X0088413Y0123160D02*
X0088413Y0117255D01*
X0098413Y0117255D02*
X0098413Y0123160D01*
X0108413Y0123160D02*
X0108413Y0117255D01*
X0118413Y0117255D02*
X0118413Y0123160D01*
X0128413Y0123160D02*
X0128413Y0117255D01*
X0138413Y0117255D02*
X0138413Y0123160D01*
X0148413Y0123160D02*
X0148413Y0117255D01*
X0158413Y0117255D02*
X0158413Y0123160D01*
X0168413Y0123160D02*
X0168413Y0117255D01*
X0178413Y0117255D02*
X0178413Y0123160D01*
X0188413Y0123160D02*
X0188413Y0117255D01*
X0198413Y0117255D02*
X0198413Y0123160D01*
X0208413Y0123160D02*
X0208413Y0117255D01*
X0218413Y0117255D02*
X0218413Y0123160D01*
X0218138Y0010956D02*
X0218138Y0005050D01*
X0208138Y0005050D02*
X0208138Y0010956D01*
X0198138Y0010956D02*
X0198138Y0005050D01*
X0188138Y0005050D02*
X0188138Y0010956D01*
X0178138Y0010956D02*
X0178138Y0005050D01*
X0168138Y0005050D02*
X0168138Y0010956D01*
X0158138Y0010956D02*
X0158138Y0005050D01*
X0148138Y0005050D02*
X0148138Y0010956D01*
X0138138Y0010956D02*
X0138138Y0005050D01*
X0128138Y0005050D02*
X0128138Y0010956D01*
X0118138Y0010956D02*
X0118138Y0005050D01*
X0108138Y0005050D02*
X0108138Y0010956D01*
X0098138Y0010956D02*
X0098138Y0005050D01*
X0088138Y0005050D02*
X0088138Y0010956D01*
X0078138Y0010956D02*
X0078138Y0005050D01*
X0068138Y0005050D02*
X0068138Y0010956D01*
X0058138Y0010956D02*
X0058138Y0005050D01*
X0048138Y0005050D02*
X0048138Y0010956D01*
X0038138Y0010956D02*
X0038138Y0005050D01*
X0028138Y0005050D02*
X0028138Y0010956D01*
X0018138Y0010956D02*
X0018138Y0005050D01*
D13*
X0011279Y0009314D02*
X0010867Y0009726D01*
X0010867Y0046420D01*
X0011320Y0045967D01*
X0011999Y0045474D01*
X0012746Y0045093D01*
X0013544Y0044834D01*
X0014361Y0044705D01*
X0014361Y0049600D01*
X0015221Y0049600D01*
X0015221Y0044705D01*
X0016039Y0044834D01*
X0016836Y0045093D01*
X0017583Y0045474D01*
X0018262Y0045967D01*
X0018855Y0046560D01*
X0019348Y0047238D01*
X0019728Y0047985D01*
X0019987Y0048783D01*
X0020117Y0049600D01*
X0015221Y0049600D01*
X0015221Y0050461D01*
X0014361Y0050461D01*
X0014361Y0055356D01*
X0013544Y0055227D01*
X0012746Y0054968D01*
X0011999Y0054587D01*
X0011320Y0054094D01*
X0010867Y0053640D01*
X0010867Y0074570D01*
X0011320Y0074116D01*
X0011999Y0073623D01*
X0012746Y0073243D01*
X0013544Y0072984D01*
X0014361Y0072854D01*
X0014361Y0077750D01*
X0015221Y0077750D01*
X0015221Y0078610D01*
X0014361Y0078610D01*
X0014361Y0083506D01*
X0013544Y0083376D01*
X0012746Y0083117D01*
X0011999Y0082736D01*
X0011320Y0082244D01*
X0010867Y0081790D01*
X0010867Y0118484D01*
X0013758Y0121376D01*
X0014070Y0121376D01*
X0014070Y0116391D01*
X0014731Y0114794D01*
X0015953Y0113573D01*
X0017549Y0112911D01*
X0018342Y0112911D01*
X0025700Y0105554D01*
X0025700Y0104932D01*
X0026091Y0103987D01*
X0026815Y0103264D01*
X0027760Y0102872D01*
X0028783Y0102872D01*
X0029728Y0103264D01*
X0030452Y0103987D01*
X0030843Y0104932D01*
X0030843Y0105955D01*
X0030452Y0106900D01*
X0029728Y0107624D01*
X0028783Y0108015D01*
X0028161Y0108015D01*
X0021739Y0114438D01*
X0022095Y0114794D01*
X0022756Y0116391D01*
X0022756Y0121376D01*
X0024070Y0121376D01*
X0024070Y0116391D01*
X0024731Y0114794D01*
X0025953Y0113573D01*
X0026673Y0113275D01*
X0026673Y0112719D01*
X0033838Y0105554D01*
X0033838Y0104932D01*
X0034229Y0103987D01*
X0034952Y0103264D01*
X0035898Y0102872D01*
X0036921Y0102872D01*
X0037866Y0103264D01*
X0038589Y0103987D01*
X0038981Y0104932D01*
X0038981Y0105955D01*
X0038589Y0106900D01*
X0037866Y0107624D01*
X0036921Y0108015D01*
X0036299Y0108015D01*
X0030780Y0113534D01*
X0030873Y0113573D01*
X0032095Y0114794D01*
X0032756Y0116391D01*
X0032756Y0121376D01*
X0034070Y0121376D01*
X0034070Y0116391D01*
X0034731Y0114794D01*
X0035953Y0113573D01*
X0036673Y0113275D01*
X0036673Y0112719D01*
X0043928Y0105463D01*
X0043928Y0104932D01*
X0044320Y0103987D01*
X0045043Y0103264D01*
X0045988Y0102872D01*
X0047011Y0102872D01*
X0047956Y0103264D01*
X0048680Y0103987D01*
X0049071Y0104932D01*
X0049071Y0105955D01*
X0048680Y0106900D01*
X0047956Y0107624D01*
X0047011Y0108015D01*
X0046299Y0108015D01*
X0040780Y0113534D01*
X0040873Y0113573D01*
X0042095Y0114794D01*
X0042756Y0116391D01*
X0042756Y0121376D01*
X0044070Y0121376D01*
X0044070Y0116391D01*
X0044731Y0114794D01*
X0045953Y0113573D01*
X0046673Y0113275D01*
X0046673Y0112719D01*
X0047692Y0111699D01*
X0047873Y0111699D01*
X0054019Y0105554D01*
X0054019Y0104932D01*
X0054410Y0103987D01*
X0055134Y0103264D01*
X0056079Y0102872D01*
X0057102Y0102872D01*
X0058047Y0103264D01*
X0058770Y0103987D01*
X0059162Y0104932D01*
X0059162Y0105955D01*
X0058770Y0106900D01*
X0058047Y0107624D01*
X0057102Y0108015D01*
X0056480Y0108015D01*
X0050898Y0113597D01*
X0052095Y0114794D01*
X0052756Y0116391D01*
X0052756Y0121376D01*
X0054070Y0121376D01*
X0054070Y0116391D01*
X0054731Y0114794D01*
X0055953Y0113573D01*
X0056673Y0113275D01*
X0056673Y0112719D01*
X0057692Y0111699D01*
X0057964Y0111699D01*
X0064109Y0105554D01*
X0064109Y0104932D01*
X0064501Y0103987D01*
X0065224Y0103264D01*
X0066169Y0102872D01*
X0067192Y0102872D01*
X0068138Y0103264D01*
X0068861Y0103987D01*
X0069252Y0104932D01*
X0069252Y0105955D01*
X0068861Y0106900D01*
X0068138Y0107624D01*
X0067192Y0108015D01*
X0066571Y0108015D01*
X0060943Y0113643D01*
X0062095Y0114794D01*
X0062756Y0116391D01*
X0062756Y0121376D01*
X0064070Y0121376D01*
X0064070Y0116391D01*
X0064731Y0114794D01*
X0065953Y0113573D01*
X0066673Y0113275D01*
X0066673Y0112719D01*
X0073838Y0105554D01*
X0073838Y0104932D01*
X0074229Y0103987D01*
X0074952Y0103264D01*
X0075898Y0102872D01*
X0076921Y0102872D01*
X0077866Y0103264D01*
X0078589Y0103987D01*
X0078981Y0104932D01*
X0078981Y0105955D01*
X0078589Y0106900D01*
X0077866Y0107624D01*
X0076921Y0108015D01*
X0076299Y0108015D01*
X0070780Y0113534D01*
X0070873Y0113573D01*
X0072095Y0114794D01*
X0072756Y0116391D01*
X0072756Y0121376D01*
X0074070Y0121376D01*
X0074070Y0116391D01*
X0074731Y0114794D01*
X0075953Y0113573D01*
X0076673Y0113275D01*
X0076673Y0112719D01*
X0083231Y0106160D01*
X0083231Y0105538D01*
X0083623Y0104593D01*
X0084346Y0103870D01*
X0085291Y0103478D01*
X0086314Y0103478D01*
X0087260Y0103870D01*
X0087983Y0104593D01*
X0088375Y0105538D01*
X0088375Y0106562D01*
X0087983Y0107507D01*
X0087260Y0108230D01*
X0086314Y0108622D01*
X0085693Y0108622D01*
X0080780Y0113534D01*
X0080873Y0113573D01*
X0082095Y0114794D01*
X0082756Y0116391D01*
X0082756Y0121376D01*
X0084070Y0121376D01*
X0084070Y0116391D01*
X0084731Y0114794D01*
X0085953Y0113573D01*
X0086673Y0113275D01*
X0086673Y0109191D01*
X0088341Y0107522D01*
X0088341Y0106901D01*
X0088733Y0105955D01*
X0089456Y0105232D01*
X0090402Y0104841D01*
X0091425Y0104841D01*
X0092370Y0105232D01*
X0093093Y0105955D01*
X0093485Y0106901D01*
X0093485Y0107924D01*
X0093093Y0108869D01*
X0092370Y0109592D01*
X0091425Y0109984D01*
X0090803Y0109984D01*
X0090154Y0110633D01*
X0090154Y0113275D01*
X0090873Y0113573D01*
X0092095Y0114794D01*
X0092756Y0116391D01*
X0092756Y0121376D01*
X0094070Y0121376D01*
X0094070Y0116391D01*
X0094731Y0114794D01*
X0095953Y0113573D01*
X0096673Y0113275D01*
X0096673Y0109880D01*
X0099030Y0107522D01*
X0099030Y0106901D01*
X0099422Y0105955D01*
X0100145Y0105232D01*
X0101091Y0104841D01*
X0102114Y0104841D01*
X0103059Y0105232D01*
X0103782Y0105955D01*
X0104174Y0106901D01*
X0104174Y0107924D01*
X0103782Y0108869D01*
X0103059Y0109592D01*
X0102114Y0109984D01*
X0101492Y0109984D01*
X0100154Y0111322D01*
X0100154Y0113275D01*
X0100873Y0113573D01*
X0102095Y0114794D01*
X0102756Y0116391D01*
X0102756Y0121376D01*
X0104070Y0121376D01*
X0104070Y0116391D01*
X0104731Y0114794D01*
X0105953Y0113573D01*
X0106673Y0113275D01*
X0106673Y0109309D01*
X0106233Y0108869D01*
X0105841Y0107924D01*
X0105841Y0106901D01*
X0106233Y0105955D01*
X0106956Y0105232D01*
X0107902Y0104841D01*
X0108925Y0104841D01*
X0109870Y0105232D01*
X0110593Y0105955D01*
X0110985Y0106901D01*
X0110985Y0107924D01*
X0110593Y0108869D01*
X0110154Y0109309D01*
X0110154Y0113275D01*
X0110873Y0113573D01*
X0112095Y0114794D01*
X0112756Y0116391D01*
X0112756Y0121376D01*
X0114070Y0121376D01*
X0114070Y0116391D01*
X0114731Y0114794D01*
X0115953Y0113573D01*
X0116673Y0113275D01*
X0116673Y0110133D01*
X0116523Y0109984D01*
X0115902Y0109984D01*
X0114956Y0109592D01*
X0114233Y0108869D01*
X0113841Y0107924D01*
X0113841Y0106901D01*
X0114233Y0105955D01*
X0114956Y0105232D01*
X0115902Y0104841D01*
X0116925Y0104841D01*
X0117870Y0105232D01*
X0118593Y0105955D01*
X0118985Y0106901D01*
X0118985Y0107522D01*
X0120154Y0108691D01*
X0120154Y0113275D01*
X0120873Y0113573D01*
X0122095Y0114794D01*
X0122756Y0116391D01*
X0122756Y0121376D01*
X0124070Y0121376D01*
X0124070Y0116391D01*
X0124731Y0114794D01*
X0125953Y0113573D01*
X0126065Y0113526D01*
X0122523Y0109984D01*
X0121902Y0109984D01*
X0120956Y0109592D01*
X0120233Y0108869D01*
X0119841Y0107924D01*
X0119841Y0106901D01*
X0120233Y0105955D01*
X0120956Y0105232D01*
X0121902Y0104841D01*
X0122925Y0104841D01*
X0123870Y0105232D01*
X0124593Y0105955D01*
X0124985Y0106901D01*
X0124985Y0107522D01*
X0129134Y0111672D01*
X0130154Y0112691D01*
X0130154Y0113275D01*
X0130873Y0113573D01*
X0132095Y0114794D01*
X0132756Y0116391D01*
X0132756Y0121376D01*
X0134070Y0121376D01*
X0134070Y0116391D01*
X0134731Y0114794D01*
X0135953Y0113573D01*
X0136065Y0113526D01*
X0132523Y0109984D01*
X0131902Y0109984D01*
X0130956Y0109592D01*
X0130233Y0108869D01*
X0129841Y0107924D01*
X0129841Y0106901D01*
X0130233Y0105955D01*
X0130956Y0105232D01*
X0131902Y0104841D01*
X0132925Y0104841D01*
X0133870Y0105232D01*
X0134593Y0105955D01*
X0134985Y0106901D01*
X0134985Y0107522D01*
X0139134Y0111672D01*
X0140154Y0112691D01*
X0140154Y0113275D01*
X0140873Y0113573D01*
X0142095Y0114794D01*
X0142756Y0116391D01*
X0142756Y0121376D01*
X0144070Y0121376D01*
X0144070Y0116391D01*
X0144731Y0114794D01*
X0145953Y0113573D01*
X0146673Y0113275D01*
X0146673Y0113165D01*
X0141523Y0108015D01*
X0140902Y0108015D01*
X0139956Y0107624D01*
X0139233Y0106900D01*
X0138841Y0105955D01*
X0138841Y0104932D01*
X0139233Y0103987D01*
X0139956Y0103264D01*
X0140902Y0102872D01*
X0141925Y0102872D01*
X0142870Y0103264D01*
X0143593Y0103987D01*
X0143985Y0104932D01*
X0143985Y0105554D01*
X0150154Y0111723D01*
X0150154Y0113275D01*
X0150873Y0113573D01*
X0152095Y0114794D01*
X0152756Y0116391D01*
X0152756Y0121376D01*
X0154070Y0121376D01*
X0154070Y0116391D01*
X0154731Y0114794D01*
X0155953Y0113573D01*
X0156673Y0113275D01*
X0156673Y0113165D01*
X0151523Y0108015D01*
X0150902Y0108015D01*
X0149956Y0107624D01*
X0149233Y0106900D01*
X0148841Y0105955D01*
X0148841Y0104932D01*
X0149233Y0103987D01*
X0149956Y0103264D01*
X0150902Y0102872D01*
X0151925Y0102872D01*
X0152870Y0103264D01*
X0153593Y0103987D01*
X0153985Y0104932D01*
X0153985Y0105554D01*
X0160154Y0111723D01*
X0160154Y0113275D01*
X0160873Y0113573D01*
X0162095Y0114794D01*
X0162756Y0116391D01*
X0162756Y0121376D01*
X0164070Y0121376D01*
X0164070Y0116391D01*
X0164731Y0114794D01*
X0165953Y0113573D01*
X0166673Y0113275D01*
X0166673Y0113165D01*
X0161523Y0108015D01*
X0160902Y0108015D01*
X0159956Y0107624D01*
X0159233Y0106900D01*
X0158841Y0105955D01*
X0158841Y0104932D01*
X0159233Y0103987D01*
X0159956Y0103264D01*
X0160902Y0102872D01*
X0161925Y0102872D01*
X0162870Y0103264D01*
X0163593Y0103987D01*
X0163985Y0104932D01*
X0163985Y0105554D01*
X0170154Y0111723D01*
X0170154Y0113275D01*
X0170873Y0113573D01*
X0172095Y0114794D01*
X0172756Y0116391D01*
X0172756Y0121376D01*
X0174070Y0121376D01*
X0174070Y0116391D01*
X0174731Y0114794D01*
X0175953Y0113573D01*
X0176673Y0113275D01*
X0176673Y0113165D01*
X0171523Y0108015D01*
X0170902Y0108015D01*
X0169956Y0107624D01*
X0169233Y0106900D01*
X0168841Y0105955D01*
X0168841Y0104932D01*
X0169233Y0103987D01*
X0169956Y0103264D01*
X0170902Y0102872D01*
X0171925Y0102872D01*
X0172870Y0103264D01*
X0173593Y0103987D01*
X0173985Y0104932D01*
X0173985Y0105554D01*
X0180154Y0111723D01*
X0180154Y0113275D01*
X0180873Y0113573D01*
X0182095Y0114794D01*
X0182756Y0116391D01*
X0182756Y0121376D01*
X0184070Y0121376D01*
X0184070Y0116391D01*
X0184731Y0114794D01*
X0185953Y0113573D01*
X0186673Y0113275D01*
X0186673Y0113165D01*
X0181523Y0108015D01*
X0180902Y0108015D01*
X0179956Y0107624D01*
X0179233Y0106900D01*
X0178841Y0105955D01*
X0178841Y0104932D01*
X0179233Y0103987D01*
X0179956Y0103264D01*
X0180902Y0102872D01*
X0181925Y0102872D01*
X0182870Y0103264D01*
X0183593Y0103987D01*
X0183985Y0104932D01*
X0183985Y0105554D01*
X0190154Y0111723D01*
X0190154Y0113275D01*
X0190873Y0113573D01*
X0192095Y0114794D01*
X0192756Y0116391D01*
X0192756Y0121376D01*
X0194070Y0121376D01*
X0194070Y0116391D01*
X0194731Y0114794D01*
X0195953Y0113573D01*
X0196673Y0113275D01*
X0196673Y0113165D01*
X0191523Y0108015D01*
X0190902Y0108015D01*
X0189956Y0107624D01*
X0189233Y0106900D01*
X0188841Y0105955D01*
X0188841Y0104932D01*
X0189233Y0103987D01*
X0189956Y0103264D01*
X0190902Y0102872D01*
X0191925Y0102872D01*
X0192870Y0103264D01*
X0193593Y0103987D01*
X0193985Y0104932D01*
X0193985Y0105554D01*
X0200154Y0111723D01*
X0200154Y0113275D01*
X0200873Y0113573D01*
X0202095Y0114794D01*
X0202756Y0116391D01*
X0202756Y0121376D01*
X0203873Y0121376D01*
X0203873Y0116897D01*
X0203985Y0116192D01*
X0204206Y0115512D01*
X0204530Y0114875D01*
X0204950Y0114297D01*
X0205455Y0113792D01*
X0206034Y0113372D01*
X0206670Y0113047D01*
X0207350Y0112826D01*
X0208056Y0112715D01*
X0208229Y0112715D01*
X0208229Y0121376D01*
X0208597Y0121376D01*
X0208597Y0112715D01*
X0208770Y0112715D01*
X0209476Y0112826D01*
X0210156Y0113047D01*
X0210793Y0113372D01*
X0211371Y0113792D01*
X0211876Y0114297D01*
X0212296Y0114875D01*
X0212621Y0115512D01*
X0212841Y0116192D01*
X0212953Y0116897D01*
X0212953Y0121376D01*
X0214070Y0121376D01*
X0214070Y0116391D01*
X0214731Y0114794D01*
X0215953Y0113573D01*
X0217549Y0112911D01*
X0219277Y0112911D01*
X0220873Y0113573D01*
X0222095Y0114794D01*
X0222756Y0116391D01*
X0222756Y0119561D01*
X0223834Y0118484D01*
X0223834Y0009726D01*
X0222481Y0008373D01*
X0222481Y0011819D01*
X0221820Y0013416D01*
X0220598Y0014638D01*
X0219001Y0015299D01*
X0217274Y0015299D01*
X0215677Y0014638D01*
X0214455Y0013416D01*
X0213794Y0011819D01*
X0213794Y0006834D01*
X0212678Y0006834D01*
X0212678Y0011313D01*
X0212566Y0012019D01*
X0212345Y0012698D01*
X0212021Y0013335D01*
X0211601Y0013913D01*
X0211095Y0014419D01*
X0210517Y0014839D01*
X0209880Y0015163D01*
X0209201Y0015384D01*
X0208495Y0015496D01*
X0208322Y0015496D01*
X0208322Y0006834D01*
X0207953Y0006834D01*
X0207953Y0015496D01*
X0207780Y0015496D01*
X0207074Y0015384D01*
X0206395Y0015163D01*
X0205758Y0014839D01*
X0205180Y0014419D01*
X0204674Y0013913D01*
X0204254Y0013335D01*
X0203930Y0012698D01*
X0203709Y0012019D01*
X0203597Y0011313D01*
X0203597Y0006834D01*
X0202481Y0006834D01*
X0202481Y0011819D01*
X0201820Y0013416D01*
X0200598Y0014638D01*
X0199989Y0014890D01*
X0199989Y0021599D01*
X0200483Y0022093D01*
X0200875Y0023038D01*
X0200875Y0024062D01*
X0200483Y0025007D01*
X0199760Y0025730D01*
X0198814Y0026122D01*
X0197791Y0026122D01*
X0196846Y0025730D01*
X0196123Y0025007D01*
X0195731Y0024062D01*
X0195731Y0023038D01*
X0196123Y0022093D01*
X0196617Y0021599D01*
X0196617Y0015027D01*
X0195677Y0014638D01*
X0194455Y0013416D01*
X0193794Y0011819D01*
X0193794Y0006834D01*
X0192481Y0006834D01*
X0192481Y0011819D01*
X0191820Y0013416D01*
X0190598Y0014638D01*
X0189823Y0014958D01*
X0189823Y0021434D01*
X0190483Y0022093D01*
X0190875Y0023038D01*
X0190875Y0024062D01*
X0190483Y0025007D01*
X0189760Y0025730D01*
X0188814Y0026122D01*
X0187791Y0026122D01*
X0186846Y0025730D01*
X0186123Y0025007D01*
X0185731Y0024062D01*
X0185731Y0023038D01*
X0186123Y0022093D01*
X0186452Y0021764D01*
X0186452Y0014958D01*
X0185677Y0014638D01*
X0184455Y0013416D01*
X0183794Y0011819D01*
X0183794Y0006834D01*
X0182481Y0006834D01*
X0182481Y0011819D01*
X0181820Y0013416D01*
X0180598Y0014638D01*
X0179989Y0014890D01*
X0179989Y0021599D01*
X0180483Y0022093D01*
X0180875Y0023038D01*
X0180875Y0024062D01*
X0180483Y0025007D01*
X0179760Y0025730D01*
X0178814Y0026122D01*
X0177791Y0026122D01*
X0176846Y0025730D01*
X0176123Y0025007D01*
X0175731Y0024062D01*
X0175731Y0023038D01*
X0176123Y0022093D01*
X0176617Y0021599D01*
X0176617Y0015027D01*
X0175677Y0014638D01*
X0174455Y0013416D01*
X0173794Y0011819D01*
X0173794Y0006834D01*
X0172481Y0006834D01*
X0172481Y0011819D01*
X0171820Y0013416D01*
X0170598Y0014638D01*
X0169989Y0014890D01*
X0169989Y0021599D01*
X0170483Y0022093D01*
X0170875Y0023038D01*
X0170875Y0024062D01*
X0170483Y0025007D01*
X0169760Y0025730D01*
X0168814Y0026122D01*
X0167791Y0026122D01*
X0166846Y0025730D01*
X0166123Y0025007D01*
X0165731Y0024062D01*
X0165731Y0023038D01*
X0166123Y0022093D01*
X0166617Y0021599D01*
X0166617Y0015027D01*
X0165677Y0014638D01*
X0164455Y0013416D01*
X0163794Y0011819D01*
X0163794Y0006834D01*
X0162481Y0006834D01*
X0162481Y0011819D01*
X0161820Y0013416D01*
X0160598Y0014638D01*
X0159989Y0014890D01*
X0159989Y0021599D01*
X0160483Y0022093D01*
X0160875Y0023038D01*
X0160875Y0024062D01*
X0160483Y0025007D01*
X0159760Y0025730D01*
X0158814Y0026122D01*
X0157791Y0026122D01*
X0156846Y0025730D01*
X0156123Y0025007D01*
X0155731Y0024062D01*
X0155731Y0023038D01*
X0156123Y0022093D01*
X0156617Y0021599D01*
X0156617Y0015027D01*
X0155677Y0014638D01*
X0154455Y0013416D01*
X0153794Y0011819D01*
X0153794Y0006834D01*
X0152481Y0006834D01*
X0152481Y0011819D01*
X0151820Y0013416D01*
X0150598Y0014638D01*
X0149989Y0014890D01*
X0149989Y0021599D01*
X0150483Y0022093D01*
X0150875Y0023038D01*
X0150875Y0024062D01*
X0150483Y0025007D01*
X0149760Y0025730D01*
X0148814Y0026122D01*
X0147791Y0026122D01*
X0146846Y0025730D01*
X0146123Y0025007D01*
X0145731Y0024062D01*
X0145731Y0023038D01*
X0146123Y0022093D01*
X0146617Y0021599D01*
X0146617Y0015027D01*
X0145677Y0014638D01*
X0144455Y0013416D01*
X0143794Y0011819D01*
X0143794Y0006834D01*
X0142481Y0006834D01*
X0142481Y0011819D01*
X0141820Y0013416D01*
X0140686Y0014549D01*
X0143501Y0017364D01*
X0144489Y0018352D01*
X0144489Y0021599D01*
X0144983Y0022093D01*
X0145375Y0023038D01*
X0145375Y0024062D01*
X0144983Y0025007D01*
X0144260Y0025730D01*
X0143314Y0026122D01*
X0142291Y0026122D01*
X0141346Y0025730D01*
X0140623Y0025007D01*
X0140231Y0024062D01*
X0140231Y0023038D01*
X0140623Y0022093D01*
X0141117Y0021599D01*
X0141117Y0019748D01*
X0137439Y0016070D01*
X0136452Y0015083D01*
X0136452Y0014958D01*
X0135677Y0014638D01*
X0134455Y0013416D01*
X0133794Y0011819D01*
X0133794Y0006834D01*
X0132481Y0006834D01*
X0132481Y0011819D01*
X0131820Y0013416D01*
X0130598Y0014638D01*
X0129823Y0014958D01*
X0129823Y0015686D01*
X0130501Y0016364D01*
X0134501Y0016364D01*
X0135615Y0017478D01*
X0136314Y0017478D01*
X0137260Y0017870D01*
X0137983Y0018593D01*
X0138375Y0019538D01*
X0138375Y0020562D01*
X0137983Y0021507D01*
X0137260Y0022230D01*
X0136314Y0022622D01*
X0135291Y0022622D01*
X0134346Y0022230D01*
X0133623Y0021507D01*
X0133231Y0020562D01*
X0133231Y0019862D01*
X0133105Y0019736D01*
X0129105Y0019736D01*
X0128117Y0018748D01*
X0127439Y0018070D01*
X0126452Y0017083D01*
X0126452Y0014958D01*
X0125677Y0014638D01*
X0124455Y0013416D01*
X0123794Y0011819D01*
X0123794Y0006834D01*
X0122481Y0006834D01*
X0122481Y0011819D01*
X0121820Y0013416D01*
X0120598Y0014638D01*
X0119823Y0014958D01*
X0119823Y0015686D01*
X0121615Y0017478D01*
X0122314Y0017478D01*
X0123260Y0017870D01*
X0123983Y0018593D01*
X0124375Y0019538D01*
X0124375Y0020562D01*
X0123983Y0021507D01*
X0123260Y0022230D01*
X0122314Y0022622D01*
X0121291Y0022622D01*
X0120346Y0022230D01*
X0119623Y0021507D01*
X0119231Y0020562D01*
X0119231Y0019862D01*
X0117439Y0018070D01*
X0116452Y0017083D01*
X0116452Y0014958D01*
X0115677Y0014638D01*
X0114455Y0013416D01*
X0113794Y0011819D01*
X0113794Y0006834D01*
X0112481Y0006834D01*
X0112481Y0011819D01*
X0111820Y0013416D01*
X0111186Y0014049D01*
X0114615Y0017478D01*
X0115314Y0017478D01*
X0116260Y0017870D01*
X0116983Y0018593D01*
X0117375Y0019538D01*
X0117375Y0020562D01*
X0116983Y0021507D01*
X0116260Y0022230D01*
X0115314Y0022622D01*
X0114291Y0022622D01*
X0113346Y0022230D01*
X0112623Y0021507D01*
X0112231Y0020562D01*
X0112231Y0019862D01*
X0107668Y0015299D01*
X0107274Y0015299D01*
X0105677Y0014638D01*
X0104455Y0013416D01*
X0103794Y0011819D01*
X0103794Y0006834D01*
X0102481Y0006834D01*
X0102481Y0011819D01*
X0101820Y0013416D01*
X0100598Y0014638D01*
X0100016Y0014879D01*
X0103501Y0018364D01*
X0105852Y0018364D01*
X0106346Y0017870D01*
X0107291Y0017478D01*
X0108314Y0017478D01*
X0109260Y0017870D01*
X0109983Y0018593D01*
X0110375Y0019538D01*
X0110375Y0020562D01*
X0109983Y0021507D01*
X0109260Y0022230D01*
X0108314Y0022622D01*
X0107291Y0022622D01*
X0106346Y0022230D01*
X0105852Y0021736D01*
X0102105Y0021736D01*
X0101117Y0020748D01*
X0096452Y0016083D01*
X0096452Y0014958D01*
X0095677Y0014638D01*
X0094455Y0013416D01*
X0093794Y0011819D01*
X0093794Y0006834D01*
X0092481Y0006834D01*
X0092481Y0011819D01*
X0091820Y0013416D01*
X0090598Y0014638D01*
X0089823Y0014958D01*
X0089823Y0017689D01*
X0090260Y0017870D01*
X0090983Y0018593D01*
X0091375Y0019538D01*
X0091375Y0020562D01*
X0090983Y0021507D01*
X0090260Y0022230D01*
X0089314Y0022622D01*
X0088291Y0022622D01*
X0087346Y0022230D01*
X0086623Y0021507D01*
X0086231Y0020562D01*
X0086231Y0019538D01*
X0086452Y0019006D01*
X0086452Y0014958D01*
X0085677Y0014638D01*
X0084455Y0013416D01*
X0083794Y0011819D01*
X0083794Y0006834D01*
X0082481Y0006834D01*
X0082481Y0011819D01*
X0081820Y0013416D01*
X0080598Y0014638D01*
X0079989Y0014890D01*
X0079989Y0018099D01*
X0080483Y0018593D01*
X0080875Y0019538D01*
X0080875Y0020562D01*
X0080483Y0021507D01*
X0079760Y0022230D01*
X0078814Y0022622D01*
X0077791Y0022622D01*
X0076846Y0022230D01*
X0076123Y0021507D01*
X0075731Y0020562D01*
X0075731Y0019538D01*
X0076123Y0018593D01*
X0076617Y0018099D01*
X0076617Y0015027D01*
X0075677Y0014638D01*
X0074455Y0013416D01*
X0073794Y0011819D01*
X0073794Y0006834D01*
X0072481Y0006834D01*
X0072481Y0011819D01*
X0071820Y0013416D01*
X0070598Y0014638D01*
X0069989Y0014890D01*
X0069989Y0021599D01*
X0070483Y0022093D01*
X0070875Y0023038D01*
X0070875Y0024062D01*
X0070483Y0025007D01*
X0069760Y0025730D01*
X0068814Y0026122D01*
X0067791Y0026122D01*
X0066846Y0025730D01*
X0066123Y0025007D01*
X0065731Y0024062D01*
X0065731Y0023038D01*
X0066123Y0022093D01*
X0066617Y0021599D01*
X0066617Y0015027D01*
X0065677Y0014638D01*
X0064455Y0013416D01*
X0063794Y0011819D01*
X0063794Y0006834D01*
X0062481Y0006834D01*
X0062481Y0011819D01*
X0061820Y0013416D01*
X0060598Y0014638D01*
X0059823Y0014958D01*
X0059823Y0021434D01*
X0060483Y0022093D01*
X0060875Y0023038D01*
X0060875Y0024062D01*
X0060483Y0025007D01*
X0059760Y0025730D01*
X0058814Y0026122D01*
X0057791Y0026122D01*
X0056846Y0025730D01*
X0056123Y0025007D01*
X0055731Y0024062D01*
X0055731Y0023038D01*
X0056123Y0022093D01*
X0056452Y0021764D01*
X0056452Y0014958D01*
X0055677Y0014638D01*
X0054455Y0013416D01*
X0053794Y0011819D01*
X0053794Y0006834D01*
X0052481Y0006834D01*
X0052481Y0011819D01*
X0051820Y0013416D01*
X0050598Y0014638D01*
X0049823Y0014958D01*
X0049823Y0020686D01*
X0050115Y0020978D01*
X0050814Y0020978D01*
X0051760Y0021370D01*
X0052483Y0022093D01*
X0052875Y0023038D01*
X0052875Y0024062D01*
X0052483Y0025007D01*
X0051760Y0025730D01*
X0050814Y0026122D01*
X0049791Y0026122D01*
X0048846Y0025730D01*
X0048123Y0025007D01*
X0047731Y0024062D01*
X0047731Y0023362D01*
X0047439Y0023070D01*
X0046452Y0022083D01*
X0046452Y0014958D01*
X0045677Y0014638D01*
X0044455Y0013416D01*
X0043794Y0011819D01*
X0043794Y0006834D01*
X0042481Y0006834D01*
X0042481Y0011819D01*
X0041820Y0013416D01*
X0040598Y0014638D01*
X0039823Y0014958D01*
X0039823Y0017252D01*
X0040260Y0017433D01*
X0040983Y0018156D01*
X0041375Y0019101D01*
X0041375Y0020125D01*
X0040983Y0021070D01*
X0040260Y0021793D01*
X0039314Y0022185D01*
X0038382Y0022185D01*
X0038382Y0057443D01*
X0101024Y0057443D01*
X0102043Y0058463D01*
X0102043Y0072700D01*
X0101024Y0073720D01*
X0038382Y0073720D01*
X0038382Y0079364D01*
X0042090Y0079364D01*
X0042145Y0079309D01*
X0101907Y0079309D01*
X0102346Y0078870D01*
X0103291Y0078478D01*
X0104314Y0078478D01*
X0105260Y0078870D01*
X0105983Y0079593D01*
X0106375Y0080538D01*
X0106375Y0081562D01*
X0105983Y0082507D01*
X0105260Y0083230D01*
X0104314Y0083622D01*
X0103291Y0083622D01*
X0102346Y0083230D01*
X0101907Y0082791D01*
X0042145Y0082791D01*
X0042090Y0082736D01*
X0039489Y0082736D01*
X0034394Y0087831D01*
X0034394Y0088530D01*
X0034003Y0089475D01*
X0033279Y0090199D01*
X0032334Y0090590D01*
X0031311Y0090590D01*
X0030366Y0090199D01*
X0029642Y0089475D01*
X0029251Y0088530D01*
X0029251Y0087507D01*
X0029642Y0086562D01*
X0030366Y0085838D01*
X0031311Y0085447D01*
X0032010Y0085447D01*
X0036848Y0080609D01*
X0026078Y0080609D01*
X0025058Y0079590D01*
X0025058Y0030413D01*
X0012298Y0030413D01*
X0011279Y0029393D01*
X0011279Y0009314D01*
X0011279Y0009846D02*
X0010867Y0009846D01*
X0010867Y0011444D02*
X0011279Y0011444D01*
X0011279Y0013043D02*
X0010867Y0013043D01*
X0010867Y0014641D02*
X0011279Y0014641D01*
X0011279Y0016240D02*
X0010867Y0016240D01*
X0010867Y0017838D02*
X0011279Y0017838D01*
X0011279Y0019437D02*
X0010867Y0019437D01*
X0010867Y0021035D02*
X0011279Y0021035D01*
X0011279Y0022634D02*
X0010867Y0022634D01*
X0010867Y0024232D02*
X0011279Y0024232D01*
X0011279Y0025831D02*
X0010867Y0025831D01*
X0010867Y0027429D02*
X0011279Y0027429D01*
X0011279Y0029028D02*
X0010867Y0029028D01*
X0010867Y0030626D02*
X0025058Y0030626D01*
X0025058Y0032225D02*
X0010867Y0032225D01*
X0010867Y0033823D02*
X0025058Y0033823D01*
X0025058Y0035422D02*
X0010867Y0035422D01*
X0010867Y0037020D02*
X0025058Y0037020D01*
X0025058Y0038619D02*
X0010867Y0038619D01*
X0010867Y0040217D02*
X0025058Y0040217D01*
X0025058Y0041816D02*
X0010867Y0041816D01*
X0010867Y0043414D02*
X0025058Y0043414D01*
X0025058Y0045013D02*
X0016589Y0045013D01*
X0015221Y0045013D02*
X0014361Y0045013D01*
X0012993Y0045013D02*
X0010867Y0045013D01*
X0014361Y0046611D02*
X0015221Y0046611D01*
X0015221Y0048210D02*
X0014361Y0048210D01*
X0015221Y0049808D02*
X0025058Y0049808D01*
X0025058Y0048210D02*
X0019801Y0048210D01*
X0018892Y0046611D02*
X0025058Y0046611D01*
X0020117Y0050461D02*
X0019987Y0051278D01*
X0019728Y0052075D01*
X0019348Y0052823D01*
X0018855Y0053501D01*
X0018262Y0054094D01*
X0017583Y0054587D01*
X0016836Y0054968D01*
X0016039Y0055227D01*
X0015221Y0055356D01*
X0015221Y0050461D01*
X0020117Y0050461D01*
X0019946Y0051407D02*
X0025058Y0051407D01*
X0025058Y0053005D02*
X0019215Y0053005D01*
X0017550Y0054604D02*
X0025058Y0054604D01*
X0025058Y0056202D02*
X0010867Y0056202D01*
X0010867Y0054604D02*
X0012032Y0054604D01*
X0014361Y0054604D02*
X0015221Y0054604D01*
X0015221Y0053005D02*
X0014361Y0053005D01*
X0014361Y0051407D02*
X0015221Y0051407D01*
X0010867Y0057801D02*
X0025058Y0057801D01*
X0025058Y0059399D02*
X0010867Y0059399D01*
X0010867Y0060998D02*
X0025058Y0060998D01*
X0025058Y0062596D02*
X0010867Y0062596D01*
X0010867Y0064195D02*
X0025058Y0064195D01*
X0025058Y0065793D02*
X0010867Y0065793D01*
X0010867Y0067392D02*
X0025058Y0067392D01*
X0025058Y0068990D02*
X0010867Y0068990D01*
X0010867Y0070589D02*
X0025058Y0070589D01*
X0025058Y0072187D02*
X0010867Y0072187D01*
X0010867Y0073786D02*
X0011775Y0073786D01*
X0014361Y0073786D02*
X0015221Y0073786D01*
X0015221Y0072854D02*
X0016039Y0072984D01*
X0016836Y0073243D01*
X0017583Y0073623D01*
X0018262Y0074116D01*
X0018855Y0074709D01*
X0019348Y0075388D01*
X0019728Y0076135D01*
X0019987Y0076932D01*
X0020117Y0077750D01*
X0015221Y0077750D01*
X0015221Y0072854D01*
X0017807Y0073786D02*
X0025058Y0073786D01*
X0025058Y0075384D02*
X0019345Y0075384D01*
X0019995Y0076983D02*
X0025058Y0076983D01*
X0025058Y0078582D02*
X0015221Y0078582D01*
X0015221Y0078610D02*
X0020117Y0078610D01*
X0019987Y0079427D01*
X0019728Y0080225D01*
X0019348Y0080972D01*
X0018855Y0081651D01*
X0018262Y0082244D01*
X0017583Y0082736D01*
X0016836Y0083117D01*
X0016039Y0083376D01*
X0015221Y0083506D01*
X0015221Y0078610D01*
X0015221Y0080180D02*
X0014361Y0080180D01*
X0014361Y0081779D02*
X0015221Y0081779D01*
X0018727Y0081779D02*
X0035678Y0081779D01*
X0034080Y0083377D02*
X0016034Y0083377D01*
X0015221Y0083377D02*
X0014361Y0083377D01*
X0013548Y0083377D02*
X0010867Y0083377D01*
X0010867Y0084976D02*
X0032481Y0084976D01*
X0029637Y0086574D02*
X0010867Y0086574D01*
X0010867Y0088173D02*
X0029251Y0088173D01*
X0029938Y0089771D02*
X0010867Y0089771D01*
X0010867Y0091370D02*
X0223834Y0091370D01*
X0223834Y0092968D02*
X0010867Y0092968D01*
X0010867Y0094567D02*
X0223834Y0094567D01*
X0223834Y0096165D02*
X0010867Y0096165D01*
X0010867Y0097764D02*
X0223834Y0097764D01*
X0223834Y0099362D02*
X0010867Y0099362D01*
X0010867Y0100961D02*
X0223834Y0100961D01*
X0223834Y0102559D02*
X0010867Y0102559D01*
X0010867Y0104158D02*
X0026020Y0104158D01*
X0025497Y0105756D02*
X0010867Y0105756D01*
X0010867Y0107355D02*
X0023899Y0107355D01*
X0022300Y0108953D02*
X0010867Y0108953D01*
X0010867Y0110552D02*
X0020702Y0110552D01*
X0019103Y0112150D02*
X0010867Y0112150D01*
X0010867Y0113749D02*
X0015777Y0113749D01*
X0014502Y0115347D02*
X0010867Y0115347D01*
X0010867Y0116946D02*
X0014070Y0116946D01*
X0014070Y0118544D02*
X0010927Y0118544D01*
X0012525Y0120143D02*
X0014070Y0120143D01*
X0022756Y0120143D02*
X0024070Y0120143D01*
X0024070Y0118544D02*
X0022756Y0118544D01*
X0022756Y0116946D02*
X0024070Y0116946D01*
X0024502Y0115347D02*
X0022324Y0115347D01*
X0022428Y0113749D02*
X0025777Y0113749D01*
X0027241Y0112150D02*
X0024026Y0112150D01*
X0025625Y0110552D02*
X0028840Y0110552D01*
X0032164Y0112150D02*
X0037241Y0112150D01*
X0035777Y0113749D02*
X0031049Y0113749D01*
X0032324Y0115347D02*
X0034502Y0115347D01*
X0034070Y0116946D02*
X0032756Y0116946D01*
X0032756Y0118544D02*
X0034070Y0118544D01*
X0034070Y0120143D02*
X0032756Y0120143D01*
X0042324Y0115347D02*
X0044502Y0115347D01*
X0045777Y0113749D02*
X0041049Y0113749D01*
X0042164Y0112150D02*
X0047241Y0112150D01*
X0049021Y0110552D02*
X0043763Y0110552D01*
X0045361Y0108953D02*
X0050619Y0108953D01*
X0052218Y0107355D02*
X0048226Y0107355D01*
X0049071Y0105756D02*
X0053816Y0105756D01*
X0054339Y0104158D02*
X0048751Y0104158D01*
X0044249Y0104158D02*
X0038660Y0104158D01*
X0038981Y0105756D02*
X0043635Y0105756D01*
X0042037Y0107355D02*
X0038135Y0107355D01*
X0040438Y0108953D02*
X0035361Y0108953D01*
X0033763Y0110552D02*
X0038840Y0110552D01*
X0032037Y0107355D02*
X0029997Y0107355D01*
X0030438Y0108953D02*
X0027223Y0108953D01*
X0030843Y0105756D02*
X0033635Y0105756D01*
X0034158Y0104158D02*
X0030522Y0104158D01*
X0051049Y0113749D02*
X0055777Y0113749D01*
X0054502Y0115347D02*
X0052324Y0115347D01*
X0052756Y0116946D02*
X0054070Y0116946D01*
X0054070Y0118544D02*
X0052756Y0118544D01*
X0052756Y0120143D02*
X0054070Y0120143D01*
X0062756Y0120143D02*
X0064070Y0120143D01*
X0064070Y0118544D02*
X0062756Y0118544D01*
X0062756Y0116946D02*
X0064070Y0116946D01*
X0064502Y0115347D02*
X0062324Y0115347D01*
X0061049Y0113749D02*
X0065777Y0113749D01*
X0067241Y0112150D02*
X0062436Y0112150D01*
X0064034Y0110552D02*
X0068840Y0110552D01*
X0072164Y0112150D02*
X0077241Y0112150D01*
X0075777Y0113749D02*
X0071049Y0113749D01*
X0072324Y0115347D02*
X0074502Y0115347D01*
X0074070Y0116946D02*
X0072756Y0116946D01*
X0072756Y0118544D02*
X0074070Y0118544D01*
X0074070Y0120143D02*
X0072756Y0120143D01*
X0082324Y0115347D02*
X0084502Y0115347D01*
X0085777Y0113749D02*
X0081049Y0113749D01*
X0082164Y0112150D02*
X0086673Y0112150D01*
X0086673Y0110552D02*
X0083763Y0110552D01*
X0085361Y0108953D02*
X0086911Y0108953D01*
X0088046Y0107355D02*
X0088341Y0107355D01*
X0088375Y0105756D02*
X0088932Y0105756D01*
X0087547Y0104158D02*
X0139162Y0104158D01*
X0138841Y0105756D02*
X0134394Y0105756D01*
X0134985Y0107355D02*
X0139687Y0107355D01*
X0142461Y0108953D02*
X0136416Y0108953D01*
X0138014Y0110552D02*
X0144060Y0110552D01*
X0145658Y0112150D02*
X0139613Y0112150D01*
X0141049Y0113749D02*
X0145777Y0113749D01*
X0144502Y0115347D02*
X0142324Y0115347D01*
X0142756Y0116946D02*
X0144070Y0116946D01*
X0144070Y0118544D02*
X0142756Y0118544D01*
X0142756Y0120143D02*
X0144070Y0120143D01*
X0152756Y0120143D02*
X0154070Y0120143D01*
X0154070Y0118544D02*
X0152756Y0118544D01*
X0152756Y0116946D02*
X0154070Y0116946D01*
X0154502Y0115347D02*
X0152324Y0115347D01*
X0151049Y0113749D02*
X0155777Y0113749D01*
X0155658Y0112150D02*
X0150154Y0112150D01*
X0148983Y0110552D02*
X0154060Y0110552D01*
X0152461Y0108953D02*
X0147384Y0108953D01*
X0145786Y0107355D02*
X0149687Y0107355D01*
X0148841Y0105756D02*
X0144187Y0105756D01*
X0143664Y0104158D02*
X0149162Y0104158D01*
X0153664Y0104158D02*
X0159162Y0104158D01*
X0158841Y0105756D02*
X0154187Y0105756D01*
X0155786Y0107355D02*
X0159687Y0107355D01*
X0157384Y0108953D02*
X0162461Y0108953D01*
X0165786Y0107355D02*
X0169687Y0107355D01*
X0168841Y0105756D02*
X0164187Y0105756D01*
X0163664Y0104158D02*
X0169162Y0104158D01*
X0173664Y0104158D02*
X0179162Y0104158D01*
X0178841Y0105756D02*
X0174187Y0105756D01*
X0175786Y0107355D02*
X0179687Y0107355D01*
X0177384Y0108953D02*
X0182461Y0108953D01*
X0185786Y0107355D02*
X0189687Y0107355D01*
X0188841Y0105756D02*
X0184187Y0105756D01*
X0183664Y0104158D02*
X0189162Y0104158D01*
X0193664Y0104158D02*
X0223834Y0104158D01*
X0223834Y0105756D02*
X0194187Y0105756D01*
X0195786Y0107355D02*
X0223834Y0107355D01*
X0223834Y0108953D02*
X0197384Y0108953D01*
X0198983Y0110552D02*
X0223834Y0110552D01*
X0223834Y0112150D02*
X0200154Y0112150D01*
X0201049Y0113749D02*
X0205514Y0113749D01*
X0204289Y0115347D02*
X0202324Y0115347D01*
X0202756Y0116946D02*
X0203873Y0116946D01*
X0203873Y0118544D02*
X0202756Y0118544D01*
X0202756Y0120143D02*
X0203873Y0120143D01*
X0208229Y0120143D02*
X0208597Y0120143D01*
X0208597Y0118544D02*
X0208229Y0118544D01*
X0208229Y0116946D02*
X0208597Y0116946D01*
X0208597Y0115347D02*
X0208229Y0115347D01*
X0208229Y0113749D02*
X0208597Y0113749D01*
X0211312Y0113749D02*
X0215777Y0113749D01*
X0214502Y0115347D02*
X0212537Y0115347D01*
X0212953Y0116946D02*
X0214070Y0116946D01*
X0214070Y0118544D02*
X0212953Y0118544D01*
X0212953Y0120143D02*
X0214070Y0120143D01*
X0222756Y0118544D02*
X0223773Y0118544D01*
X0223834Y0116946D02*
X0222756Y0116946D01*
X0222324Y0115347D02*
X0223834Y0115347D01*
X0223834Y0113749D02*
X0221049Y0113749D01*
X0195777Y0113749D02*
X0191049Y0113749D01*
X0190154Y0112150D02*
X0195658Y0112150D01*
X0194060Y0110552D02*
X0188983Y0110552D01*
X0187384Y0108953D02*
X0192461Y0108953D01*
X0185658Y0112150D02*
X0180154Y0112150D01*
X0181049Y0113749D02*
X0185777Y0113749D01*
X0184502Y0115347D02*
X0182324Y0115347D01*
X0182756Y0116946D02*
X0184070Y0116946D01*
X0184070Y0118544D02*
X0182756Y0118544D01*
X0182756Y0120143D02*
X0184070Y0120143D01*
X0192756Y0120143D02*
X0194070Y0120143D01*
X0194070Y0118544D02*
X0192756Y0118544D01*
X0192756Y0116946D02*
X0194070Y0116946D01*
X0194502Y0115347D02*
X0192324Y0115347D01*
X0184060Y0110552D02*
X0178983Y0110552D01*
X0175658Y0112150D02*
X0170154Y0112150D01*
X0171049Y0113749D02*
X0175777Y0113749D01*
X0174502Y0115347D02*
X0172324Y0115347D01*
X0172756Y0116946D02*
X0174070Y0116946D01*
X0174070Y0118544D02*
X0172756Y0118544D01*
X0172756Y0120143D02*
X0174070Y0120143D01*
X0164070Y0120143D02*
X0162756Y0120143D01*
X0162756Y0118544D02*
X0164070Y0118544D01*
X0164070Y0116946D02*
X0162756Y0116946D01*
X0162324Y0115347D02*
X0164502Y0115347D01*
X0165777Y0113749D02*
X0161049Y0113749D01*
X0160154Y0112150D02*
X0165658Y0112150D01*
X0164060Y0110552D02*
X0158983Y0110552D01*
X0167384Y0108953D02*
X0172461Y0108953D01*
X0174060Y0110552D02*
X0168983Y0110552D01*
X0135777Y0113749D02*
X0131049Y0113749D01*
X0132324Y0115347D02*
X0134502Y0115347D01*
X0134070Y0116946D02*
X0132756Y0116946D01*
X0132756Y0118544D02*
X0134070Y0118544D01*
X0134070Y0120143D02*
X0132756Y0120143D01*
X0124070Y0120143D02*
X0122756Y0120143D01*
X0122756Y0118544D02*
X0124070Y0118544D01*
X0124070Y0116946D02*
X0122756Y0116946D01*
X0122324Y0115347D02*
X0124502Y0115347D01*
X0125777Y0113749D02*
X0121049Y0113749D01*
X0120154Y0112150D02*
X0124690Y0112150D01*
X0123091Y0110552D02*
X0120154Y0110552D01*
X0120154Y0108953D02*
X0120317Y0108953D01*
X0119841Y0107355D02*
X0118985Y0107355D01*
X0118394Y0105756D02*
X0120432Y0105756D01*
X0124394Y0105756D02*
X0130432Y0105756D01*
X0129841Y0107355D02*
X0124985Y0107355D01*
X0126416Y0108953D02*
X0130317Y0108953D01*
X0128014Y0110552D02*
X0133091Y0110552D01*
X0134690Y0112150D02*
X0129613Y0112150D01*
X0116673Y0112150D02*
X0110154Y0112150D01*
X0110154Y0110552D02*
X0116673Y0110552D01*
X0114317Y0108953D02*
X0110509Y0108953D01*
X0110985Y0107355D02*
X0113841Y0107355D01*
X0114432Y0105756D02*
X0110394Y0105756D01*
X0106432Y0105756D02*
X0103583Y0105756D01*
X0104174Y0107355D02*
X0105841Y0107355D01*
X0106317Y0108953D02*
X0103698Y0108953D01*
X0100924Y0110552D02*
X0106673Y0110552D01*
X0106673Y0112150D02*
X0100154Y0112150D01*
X0101049Y0113749D02*
X0105777Y0113749D01*
X0104502Y0115347D02*
X0102324Y0115347D01*
X0102756Y0116946D02*
X0104070Y0116946D01*
X0104070Y0118544D02*
X0102756Y0118544D01*
X0102756Y0120143D02*
X0104070Y0120143D01*
X0112756Y0120143D02*
X0114070Y0120143D01*
X0114070Y0118544D02*
X0112756Y0118544D01*
X0112756Y0116946D02*
X0114070Y0116946D01*
X0114502Y0115347D02*
X0112324Y0115347D01*
X0111049Y0113749D02*
X0115777Y0113749D01*
X0099030Y0107355D02*
X0093485Y0107355D01*
X0093009Y0108953D02*
X0097600Y0108953D01*
X0096673Y0110552D02*
X0090235Y0110552D01*
X0090154Y0112150D02*
X0096673Y0112150D01*
X0095777Y0113749D02*
X0091049Y0113749D01*
X0092324Y0115347D02*
X0094502Y0115347D01*
X0094070Y0116946D02*
X0092756Y0116946D01*
X0092756Y0118544D02*
X0094070Y0118544D01*
X0094070Y0120143D02*
X0092756Y0120143D01*
X0084070Y0120143D02*
X0082756Y0120143D01*
X0082756Y0118544D02*
X0084070Y0118544D01*
X0084070Y0116946D02*
X0082756Y0116946D01*
X0078840Y0110552D02*
X0073763Y0110552D01*
X0075361Y0108953D02*
X0080438Y0108953D01*
X0082037Y0107355D02*
X0078135Y0107355D01*
X0078981Y0105756D02*
X0083231Y0105756D01*
X0084058Y0104158D02*
X0078660Y0104158D01*
X0074158Y0104158D02*
X0068932Y0104158D01*
X0069252Y0105756D02*
X0073635Y0105756D01*
X0072037Y0107355D02*
X0068407Y0107355D01*
X0070438Y0108953D02*
X0065633Y0108953D01*
X0062308Y0107355D02*
X0058316Y0107355D01*
X0059162Y0105756D02*
X0063907Y0105756D01*
X0064430Y0104158D02*
X0058841Y0104158D01*
X0060710Y0108953D02*
X0055542Y0108953D01*
X0053944Y0110552D02*
X0059111Y0110552D01*
X0057241Y0112150D02*
X0052345Y0112150D01*
X0044070Y0116946D02*
X0042756Y0116946D01*
X0042756Y0118544D02*
X0044070Y0118544D01*
X0044070Y0120143D02*
X0042756Y0120143D01*
X0092894Y0105756D02*
X0099621Y0105756D01*
X0102701Y0083377D02*
X0038848Y0083377D01*
X0037250Y0084976D02*
X0223834Y0084976D01*
X0223834Y0086574D02*
X0035651Y0086574D01*
X0034394Y0088173D02*
X0223834Y0088173D01*
X0223834Y0089771D02*
X0033707Y0089771D01*
X0025649Y0080180D02*
X0019743Y0080180D01*
X0015221Y0076983D02*
X0014361Y0076983D01*
X0014361Y0075384D02*
X0015221Y0075384D01*
X0038382Y0075384D02*
X0223834Y0075384D01*
X0223834Y0073786D02*
X0038382Y0073786D01*
X0038382Y0076983D02*
X0223834Y0076983D01*
X0223834Y0078582D02*
X0104563Y0078582D01*
X0103042Y0078582D02*
X0038382Y0078582D01*
X0038382Y0056202D02*
X0078973Y0056202D01*
X0078846Y0056177D02*
X0078289Y0055946D01*
X0077787Y0055611D01*
X0077360Y0055184D01*
X0077025Y0054682D01*
X0076794Y0054125D01*
X0076676Y0053533D01*
X0076676Y0053231D01*
X0076676Y0052929D01*
X0076794Y0052337D01*
X0077025Y0051780D01*
X0077360Y0051278D01*
X0077787Y0050851D01*
X0078289Y0050516D01*
X0078846Y0050285D01*
X0079438Y0050167D01*
X0079740Y0050167D01*
X0080042Y0050167D01*
X0080634Y0050285D01*
X0081191Y0050516D01*
X0081693Y0050851D01*
X0082120Y0051278D01*
X0082455Y0051780D01*
X0082686Y0052337D01*
X0082804Y0052929D01*
X0082804Y0053231D01*
X0079740Y0053231D01*
X0079740Y0053231D01*
X0079740Y0050167D01*
X0079740Y0053231D01*
X0079740Y0053231D01*
X0082804Y0053231D01*
X0082804Y0053533D01*
X0082686Y0054125D01*
X0082455Y0054682D01*
X0082120Y0055184D01*
X0081693Y0055611D01*
X0081191Y0055946D01*
X0080634Y0056177D01*
X0080042Y0056295D01*
X0079740Y0056295D01*
X0079740Y0053231D01*
X0079740Y0053231D01*
X0076676Y0053231D01*
X0079740Y0053231D01*
X0079740Y0053231D01*
X0079740Y0056295D01*
X0079438Y0056295D01*
X0078846Y0056177D01*
X0079740Y0056202D02*
X0079740Y0056202D01*
X0080507Y0056202D02*
X0103203Y0056202D01*
X0103159Y0056247D02*
X0103586Y0055820D01*
X0104088Y0055485D01*
X0104645Y0055254D01*
X0105237Y0055136D01*
X0105539Y0055136D01*
X0105539Y0058199D01*
X0105539Y0058199D01*
X0105539Y0055136D01*
X0105841Y0055136D01*
X0106433Y0055254D01*
X0106990Y0055485D01*
X0107492Y0055820D01*
X0107919Y0056247D01*
X0108254Y0056748D01*
X0108485Y0057306D01*
X0108603Y0057898D01*
X0108603Y0058200D01*
X0108603Y0058501D01*
X0108485Y0059093D01*
X0108254Y0059651D01*
X0107919Y0060153D01*
X0107492Y0060579D01*
X0106990Y0060915D01*
X0106433Y0061146D01*
X0105841Y0061263D01*
X0105539Y0061263D01*
X0105237Y0061263D01*
X0104645Y0061146D01*
X0104088Y0060915D01*
X0103586Y0060579D01*
X0103159Y0060153D01*
X0102824Y0059651D01*
X0102593Y0059093D01*
X0102475Y0058501D01*
X0102475Y0058200D01*
X0105539Y0058200D01*
X0105539Y0061263D01*
X0105539Y0058200D01*
X0105539Y0058200D01*
X0105539Y0058200D01*
X0108603Y0058200D01*
X0105539Y0058200D01*
X0105539Y0058200D01*
X0102475Y0058200D01*
X0102475Y0057898D01*
X0102593Y0057306D01*
X0102824Y0056748D01*
X0103159Y0056247D01*
X0105539Y0056202D02*
X0105539Y0056202D01*
X0107875Y0056202D02*
X0112181Y0056202D01*
X0110583Y0054604D02*
X0082487Y0054604D01*
X0082804Y0053005D02*
X0108984Y0053005D01*
X0107695Y0051716D02*
X0106996Y0051716D01*
X0106051Y0051325D01*
X0105327Y0050601D01*
X0104936Y0049656D01*
X0104936Y0048633D01*
X0105327Y0047688D01*
X0106051Y0046964D01*
X0106996Y0046573D01*
X0108019Y0046573D01*
X0108964Y0046964D01*
X0109588Y0047588D01*
X0109988Y0047189D01*
X0110933Y0046797D01*
X0111956Y0046797D01*
X0112901Y0047189D01*
X0113413Y0047701D01*
X0113925Y0047189D01*
X0114870Y0046797D01*
X0115893Y0046797D01*
X0116838Y0047189D01*
X0117350Y0047701D01*
X0117862Y0047189D01*
X0118807Y0046797D01*
X0119830Y0046797D01*
X0120775Y0047189D01*
X0121061Y0047474D01*
X0121346Y0047189D01*
X0122291Y0046797D01*
X0123314Y0046797D01*
X0124260Y0047189D01*
X0124983Y0047912D01*
X0125375Y0048857D01*
X0125375Y0049556D01*
X0131682Y0055864D01*
X0144733Y0055864D01*
X0141990Y0053122D01*
X0141291Y0053122D01*
X0140346Y0052730D01*
X0139623Y0052007D01*
X0139231Y0051062D01*
X0139231Y0050038D01*
X0139623Y0049093D01*
X0140346Y0048370D01*
X0141291Y0047978D01*
X0142314Y0047978D01*
X0143260Y0048370D01*
X0143983Y0049093D01*
X0144375Y0050038D01*
X0144375Y0050738D01*
X0149501Y0055864D01*
X0165605Y0055864D01*
X0166117Y0055352D01*
X0167105Y0054364D01*
X0176395Y0054364D01*
X0176889Y0053870D01*
X0177835Y0053478D01*
X0178858Y0053478D01*
X0179803Y0053870D01*
X0180526Y0054593D01*
X0180918Y0055538D01*
X0180918Y0056562D01*
X0180526Y0057507D01*
X0179803Y0058230D01*
X0178858Y0058622D01*
X0177835Y0058622D01*
X0176889Y0058230D01*
X0176395Y0057736D01*
X0174085Y0057736D01*
X0174418Y0058538D01*
X0174418Y0059562D01*
X0174292Y0059864D01*
X0174895Y0059864D01*
X0175389Y0059370D01*
X0176335Y0058978D01*
X0177358Y0058978D01*
X0178303Y0059370D01*
X0179026Y0060093D01*
X0179418Y0061038D01*
X0179418Y0062062D01*
X0179026Y0063007D01*
X0178303Y0063730D01*
X0177358Y0064122D01*
X0176335Y0064122D01*
X0175389Y0063730D01*
X0174895Y0063236D01*
X0168373Y0063236D01*
X0169501Y0064364D01*
X0179076Y0064364D01*
X0179190Y0064478D01*
X0179889Y0064478D01*
X0180834Y0064870D01*
X0181558Y0065593D01*
X0181949Y0066538D01*
X0181949Y0067562D01*
X0181558Y0068507D01*
X0180834Y0069230D01*
X0179889Y0069622D01*
X0178866Y0069622D01*
X0177921Y0069230D01*
X0177198Y0068507D01*
X0176878Y0067736D01*
X0175416Y0067736D01*
X0176063Y0068383D01*
X0176063Y0069099D01*
X0176558Y0069593D01*
X0176949Y0070538D01*
X0176949Y0071562D01*
X0176558Y0072507D01*
X0175834Y0073230D01*
X0174889Y0073622D01*
X0173866Y0073622D01*
X0172921Y0073230D01*
X0172198Y0072507D01*
X0171806Y0071562D01*
X0171806Y0070538D01*
X0172198Y0069593D01*
X0172351Y0069439D01*
X0172148Y0069236D01*
X0166605Y0069236D01*
X0165617Y0068248D01*
X0164105Y0066736D01*
X0122715Y0066736D01*
X0107695Y0051716D01*
X0106249Y0051407D02*
X0082206Y0051407D01*
X0079740Y0051407D02*
X0079740Y0051407D01*
X0079740Y0053005D02*
X0079740Y0053005D01*
X0079740Y0054604D02*
X0079740Y0054604D01*
X0076992Y0054604D02*
X0038382Y0054604D01*
X0038382Y0053005D02*
X0076676Y0053005D01*
X0077274Y0051407D02*
X0038382Y0051407D01*
X0038382Y0049808D02*
X0104999Y0049808D01*
X0105111Y0048210D02*
X0038382Y0048210D01*
X0038382Y0046611D02*
X0106903Y0046611D01*
X0108112Y0046611D02*
X0125731Y0046611D01*
X0125731Y0047062D02*
X0125731Y0046038D01*
X0126123Y0045093D01*
X0126617Y0044599D01*
X0126617Y0028533D01*
X0126091Y0028007D01*
X0125700Y0027062D01*
X0125700Y0026038D01*
X0126091Y0025093D01*
X0126815Y0024370D01*
X0127760Y0023978D01*
X0128783Y0023978D01*
X0129728Y0024370D01*
X0130452Y0025093D01*
X0130719Y0025738D01*
X0130818Y0025639D01*
X0131320Y0025303D01*
X0131878Y0025072D01*
X0132470Y0024955D01*
X0132771Y0024955D01*
X0132771Y0028018D01*
X0132771Y0028018D01*
X0132771Y0024955D01*
X0133073Y0024955D01*
X0133665Y0025072D01*
X0134223Y0025303D01*
X0134724Y0025639D01*
X0135151Y0026065D01*
X0135486Y0026567D01*
X0135717Y0027125D01*
X0135835Y0027717D01*
X0135835Y0028018D01*
X0132771Y0028018D01*
X0132771Y0028019D01*
X0132771Y0031082D01*
X0132470Y0031082D01*
X0131878Y0030965D01*
X0131320Y0030734D01*
X0130818Y0030398D01*
X0130392Y0029972D01*
X0130056Y0029470D01*
X0129989Y0029307D01*
X0129989Y0044599D01*
X0130483Y0045093D01*
X0130875Y0046038D01*
X0130875Y0047062D01*
X0130483Y0048007D01*
X0129760Y0048730D01*
X0128814Y0049122D01*
X0127791Y0049122D01*
X0126846Y0048730D01*
X0126123Y0048007D01*
X0125731Y0047062D01*
X0126326Y0048210D02*
X0125106Y0048210D01*
X0125626Y0049808D02*
X0139327Y0049808D01*
X0140733Y0048210D02*
X0130280Y0048210D01*
X0130875Y0046611D02*
X0223834Y0046611D01*
X0223834Y0045013D02*
X0130403Y0045013D01*
X0129989Y0043414D02*
X0223834Y0043414D01*
X0223834Y0041816D02*
X0129989Y0041816D01*
X0129989Y0040217D02*
X0223834Y0040217D01*
X0223834Y0038619D02*
X0129989Y0038619D01*
X0129989Y0037020D02*
X0223834Y0037020D01*
X0223834Y0035422D02*
X0129989Y0035422D01*
X0129989Y0033823D02*
X0223834Y0033823D01*
X0223834Y0032225D02*
X0129989Y0032225D01*
X0132771Y0031082D02*
X0132771Y0028019D01*
X0132771Y0028019D01*
X0135835Y0028019D01*
X0135835Y0028320D01*
X0135717Y0028912D01*
X0135486Y0029470D01*
X0135151Y0029972D01*
X0134724Y0030398D01*
X0134223Y0030734D01*
X0133665Y0030965D01*
X0133073Y0031082D01*
X0132771Y0031082D01*
X0132771Y0030626D02*
X0132771Y0030626D01*
X0132771Y0029028D02*
X0132771Y0029028D01*
X0132771Y0027429D02*
X0132771Y0027429D01*
X0132771Y0025831D02*
X0132771Y0025831D01*
X0134916Y0025831D02*
X0141589Y0025831D01*
X0144017Y0025831D02*
X0147089Y0025831D01*
X0149517Y0025831D02*
X0157089Y0025831D01*
X0159517Y0025831D02*
X0167089Y0025831D01*
X0169517Y0025831D02*
X0177089Y0025831D01*
X0179517Y0025831D02*
X0187089Y0025831D01*
X0189517Y0025831D02*
X0197089Y0025831D01*
X0199517Y0025831D02*
X0223834Y0025831D01*
X0223834Y0027429D02*
X0135778Y0027429D01*
X0135670Y0029028D02*
X0223834Y0029028D01*
X0223834Y0030626D02*
X0134383Y0030626D01*
X0131159Y0030626D02*
X0129989Y0030626D01*
X0126617Y0030626D02*
X0087342Y0030626D01*
X0087335Y0030661D02*
X0087126Y0031165D01*
X0086823Y0031618D01*
X0086438Y0032004D01*
X0085984Y0032307D01*
X0085480Y0032515D01*
X0084946Y0032622D01*
X0084673Y0032622D01*
X0084673Y0029853D01*
X0084673Y0027085D01*
X0084946Y0027085D01*
X0085480Y0027191D01*
X0085984Y0027400D01*
X0086438Y0027703D01*
X0086823Y0028088D01*
X0087126Y0028542D01*
X0087335Y0029046D01*
X0087441Y0029580D01*
X0087441Y0029853D01*
X0084673Y0029853D01*
X0084673Y0029853D01*
X0084673Y0029853D01*
X0084673Y0027085D01*
X0084400Y0027085D01*
X0083865Y0027191D01*
X0083362Y0027400D01*
X0082908Y0027703D01*
X0082523Y0028088D01*
X0082220Y0028542D01*
X0082011Y0029046D01*
X0081904Y0029580D01*
X0081904Y0029853D01*
X0084673Y0029853D01*
X0084673Y0029853D01*
X0087441Y0029853D01*
X0087441Y0030126D01*
X0087335Y0030661D01*
X0087328Y0029028D02*
X0126617Y0029028D01*
X0125852Y0027429D02*
X0086028Y0027429D01*
X0084673Y0027429D02*
X0084673Y0027429D01*
X0083318Y0027429D02*
X0038382Y0027429D01*
X0038382Y0025831D02*
X0049089Y0025831D01*
X0051517Y0025831D02*
X0057089Y0025831D01*
X0059517Y0025831D02*
X0067089Y0025831D01*
X0069517Y0025831D02*
X0125786Y0025831D01*
X0127147Y0024232D02*
X0070804Y0024232D01*
X0070707Y0022634D02*
X0140399Y0022634D01*
X0140302Y0024232D02*
X0129396Y0024232D01*
X0133427Y0021035D02*
X0124178Y0021035D01*
X0124332Y0019437D02*
X0128805Y0019437D01*
X0127207Y0017838D02*
X0123183Y0017838D01*
X0120377Y0016240D02*
X0126452Y0016240D01*
X0125686Y0014641D02*
X0120589Y0014641D01*
X0121974Y0013043D02*
X0124301Y0013043D01*
X0123794Y0011444D02*
X0122481Y0011444D01*
X0122481Y0009846D02*
X0123794Y0009846D01*
X0123794Y0008247D02*
X0122481Y0008247D01*
X0113794Y0008247D02*
X0112481Y0008247D01*
X0112481Y0009846D02*
X0113794Y0009846D01*
X0113794Y0011444D02*
X0112481Y0011444D01*
X0111974Y0013043D02*
X0114301Y0013043D01*
X0115686Y0014641D02*
X0111778Y0014641D01*
X0113377Y0016240D02*
X0116452Y0016240D01*
X0116183Y0017838D02*
X0117207Y0017838D01*
X0117332Y0019437D02*
X0118805Y0019437D01*
X0119427Y0021035D02*
X0117178Y0021035D01*
X0112427Y0021035D02*
X0110178Y0021035D01*
X0110332Y0019437D02*
X0111805Y0019437D01*
X0110207Y0017838D02*
X0109183Y0017838D01*
X0108608Y0016240D02*
X0101377Y0016240D01*
X0100589Y0014641D02*
X0105686Y0014641D01*
X0104301Y0013043D02*
X0101974Y0013043D01*
X0102481Y0011444D02*
X0103794Y0011444D01*
X0103794Y0009846D02*
X0102481Y0009846D01*
X0102481Y0008247D02*
X0103794Y0008247D01*
X0094301Y0013043D02*
X0091974Y0013043D01*
X0090589Y0014641D02*
X0095686Y0014641D01*
X0096608Y0016240D02*
X0089823Y0016240D01*
X0090183Y0017838D02*
X0098207Y0017838D01*
X0099805Y0019437D02*
X0091332Y0019437D01*
X0091178Y0021035D02*
X0101404Y0021035D01*
X0102975Y0017838D02*
X0106423Y0017838D01*
X0093794Y0011444D02*
X0092481Y0011444D01*
X0092481Y0009846D02*
X0093794Y0009846D01*
X0093794Y0008247D02*
X0092481Y0008247D01*
X0083794Y0008247D02*
X0082481Y0008247D01*
X0082481Y0009846D02*
X0083794Y0009846D01*
X0083794Y0011444D02*
X0082481Y0011444D01*
X0081974Y0013043D02*
X0084301Y0013043D01*
X0085686Y0014641D02*
X0080589Y0014641D01*
X0079989Y0016240D02*
X0086452Y0016240D01*
X0086452Y0017838D02*
X0079989Y0017838D01*
X0076617Y0017838D02*
X0069989Y0017838D01*
X0069989Y0016240D02*
X0076617Y0016240D01*
X0075686Y0014641D02*
X0070589Y0014641D01*
X0071974Y0013043D02*
X0074301Y0013043D01*
X0073794Y0011444D02*
X0072481Y0011444D01*
X0072481Y0009846D02*
X0073794Y0009846D01*
X0073794Y0008247D02*
X0072481Y0008247D01*
X0063794Y0008247D02*
X0062481Y0008247D01*
X0062481Y0009846D02*
X0063794Y0009846D01*
X0063794Y0011444D02*
X0062481Y0011444D01*
X0061974Y0013043D02*
X0064301Y0013043D01*
X0065686Y0014641D02*
X0060589Y0014641D01*
X0059823Y0016240D02*
X0066617Y0016240D01*
X0066617Y0017838D02*
X0059823Y0017838D01*
X0059823Y0019437D02*
X0066617Y0019437D01*
X0066617Y0021035D02*
X0059823Y0021035D01*
X0060707Y0022634D02*
X0065899Y0022634D01*
X0065802Y0024232D02*
X0060804Y0024232D01*
X0055802Y0024232D02*
X0052804Y0024232D01*
X0052707Y0022634D02*
X0055899Y0022634D01*
X0056452Y0021035D02*
X0050951Y0021035D01*
X0049823Y0019437D02*
X0056452Y0019437D01*
X0056452Y0017838D02*
X0049823Y0017838D01*
X0049823Y0016240D02*
X0056452Y0016240D01*
X0055686Y0014641D02*
X0050589Y0014641D01*
X0051974Y0013043D02*
X0054301Y0013043D01*
X0053794Y0011444D02*
X0052481Y0011444D01*
X0052481Y0009846D02*
X0053794Y0009846D01*
X0053794Y0008247D02*
X0052481Y0008247D01*
X0043794Y0008247D02*
X0042481Y0008247D01*
X0042481Y0009846D02*
X0043794Y0009846D01*
X0043794Y0011444D02*
X0042481Y0011444D01*
X0041974Y0013043D02*
X0044301Y0013043D01*
X0045686Y0014641D02*
X0040589Y0014641D01*
X0039823Y0016240D02*
X0046452Y0016240D01*
X0046452Y0017838D02*
X0040665Y0017838D01*
X0041375Y0019437D02*
X0046452Y0019437D01*
X0046452Y0021035D02*
X0040997Y0021035D01*
X0038382Y0022634D02*
X0047002Y0022634D01*
X0047802Y0024232D02*
X0038382Y0024232D01*
X0038382Y0029028D02*
X0082018Y0029028D01*
X0081904Y0029853D02*
X0084673Y0029853D01*
X0084673Y0029853D01*
X0084673Y0032622D01*
X0084400Y0032622D01*
X0083865Y0032515D01*
X0083362Y0032307D01*
X0082908Y0032004D01*
X0082523Y0031618D01*
X0082220Y0031165D01*
X0082011Y0030661D01*
X0081904Y0030126D01*
X0081904Y0029853D01*
X0082004Y0030626D02*
X0038382Y0030626D01*
X0038382Y0032225D02*
X0083239Y0032225D01*
X0084673Y0032225D02*
X0084673Y0032225D01*
X0086107Y0032225D02*
X0126617Y0032225D01*
X0126617Y0033823D02*
X0038382Y0033823D01*
X0038382Y0035422D02*
X0126617Y0035422D01*
X0126617Y0037020D02*
X0038382Y0037020D01*
X0038382Y0038619D02*
X0126617Y0038619D01*
X0126617Y0040217D02*
X0038382Y0040217D01*
X0038382Y0041816D02*
X0126617Y0041816D01*
X0126617Y0043414D02*
X0038382Y0043414D01*
X0038382Y0045013D02*
X0126203Y0045013D01*
X0127225Y0051407D02*
X0139374Y0051407D01*
X0141011Y0053005D02*
X0128823Y0053005D01*
X0130422Y0054604D02*
X0143473Y0054604D01*
X0146642Y0053005D02*
X0223834Y0053005D01*
X0223834Y0051407D02*
X0145044Y0051407D01*
X0144279Y0049808D02*
X0223834Y0049808D01*
X0223834Y0048210D02*
X0142873Y0048210D01*
X0148241Y0054604D02*
X0166865Y0054604D01*
X0174112Y0057801D02*
X0176460Y0057801D01*
X0175360Y0059399D02*
X0174418Y0059399D01*
X0178332Y0059399D02*
X0223834Y0059399D01*
X0223834Y0057801D02*
X0180232Y0057801D01*
X0180918Y0056202D02*
X0223834Y0056202D01*
X0223834Y0054604D02*
X0180531Y0054604D01*
X0179401Y0060998D02*
X0223834Y0060998D01*
X0223834Y0062596D02*
X0179196Y0062596D01*
X0181641Y0065793D02*
X0205418Y0065793D01*
X0205451Y0065625D02*
X0205682Y0065067D01*
X0206018Y0064565D01*
X0206444Y0064139D01*
X0206946Y0063803D01*
X0207504Y0063572D01*
X0208096Y0063455D01*
X0208397Y0063455D01*
X0208397Y0066518D01*
X0208397Y0066518D01*
X0205334Y0066518D01*
X0205334Y0066217D01*
X0205451Y0065625D01*
X0205334Y0066519D02*
X0208397Y0066519D01*
X0208397Y0069582D01*
X0208096Y0069582D01*
X0207504Y0069465D01*
X0206946Y0069234D01*
X0206444Y0068898D01*
X0206018Y0068472D01*
X0205682Y0067970D01*
X0205451Y0067412D01*
X0205334Y0066820D01*
X0205334Y0066519D01*
X0205447Y0067392D02*
X0181949Y0067392D01*
X0181074Y0068990D02*
X0206582Y0068990D01*
X0208397Y0068990D02*
X0208397Y0068990D01*
X0208397Y0069582D02*
X0208397Y0066519D01*
X0208397Y0066519D01*
X0208397Y0066518D01*
X0208397Y0063455D01*
X0208699Y0063455D01*
X0209291Y0063572D01*
X0209849Y0063803D01*
X0210350Y0064139D01*
X0210397Y0064186D01*
X0210444Y0064139D01*
X0210946Y0063803D01*
X0211504Y0063572D01*
X0212096Y0063455D01*
X0212397Y0063455D01*
X0212397Y0066518D01*
X0212397Y0066518D01*
X0209334Y0066518D01*
X0208397Y0066518D01*
X0208397Y0066519D01*
X0212397Y0066519D01*
X0212397Y0069582D01*
X0212096Y0069582D01*
X0211504Y0069465D01*
X0210946Y0069234D01*
X0210444Y0068898D01*
X0210397Y0068851D01*
X0210350Y0068898D01*
X0209849Y0069234D01*
X0209291Y0069465D01*
X0208699Y0069582D01*
X0208397Y0069582D01*
X0210212Y0068990D02*
X0210582Y0068990D01*
X0212397Y0068990D02*
X0212397Y0068990D01*
X0212397Y0069582D02*
X0212397Y0066519D01*
X0212397Y0066519D01*
X0212397Y0066518D01*
X0212397Y0063455D01*
X0212699Y0063455D01*
X0213291Y0063572D01*
X0213849Y0063803D01*
X0214350Y0064139D01*
X0214397Y0064186D01*
X0214444Y0064139D01*
X0214946Y0063803D01*
X0215504Y0063572D01*
X0216096Y0063455D01*
X0216397Y0063455D01*
X0216397Y0066518D01*
X0216397Y0066518D01*
X0213334Y0066518D01*
X0212397Y0066518D01*
X0212397Y0066519D01*
X0216397Y0066519D01*
X0216397Y0069582D01*
X0216096Y0069582D01*
X0215504Y0069465D01*
X0214946Y0069234D01*
X0214444Y0068898D01*
X0214397Y0068851D01*
X0214350Y0068898D01*
X0213849Y0069234D01*
X0213291Y0069465D01*
X0212699Y0069582D01*
X0212397Y0069582D01*
X0214212Y0068990D02*
X0214582Y0068990D01*
X0216397Y0068990D02*
X0216397Y0068990D01*
X0216397Y0069582D02*
X0216699Y0069582D01*
X0217291Y0069465D01*
X0217849Y0069234D01*
X0218350Y0068898D01*
X0218777Y0068472D01*
X0219112Y0067970D01*
X0219343Y0067412D01*
X0219461Y0066820D01*
X0219461Y0066519D01*
X0216397Y0066519D01*
X0216397Y0066519D01*
X0216397Y0066518D01*
X0216397Y0063455D01*
X0216699Y0063455D01*
X0217291Y0063572D01*
X0217849Y0063803D01*
X0218350Y0064139D01*
X0218777Y0064565D01*
X0219112Y0065067D01*
X0219343Y0065625D01*
X0219461Y0066217D01*
X0219461Y0066518D01*
X0216397Y0066518D01*
X0216397Y0066519D01*
X0216397Y0069582D01*
X0218212Y0068990D02*
X0223834Y0068990D01*
X0223834Y0067392D02*
X0219347Y0067392D01*
X0219377Y0065793D02*
X0223834Y0065793D01*
X0223834Y0064195D02*
X0218407Y0064195D01*
X0216397Y0064195D02*
X0216397Y0064195D01*
X0216397Y0065793D02*
X0216397Y0065793D01*
X0216397Y0067392D02*
X0216397Y0067392D01*
X0212397Y0067392D02*
X0212397Y0067392D01*
X0212397Y0065793D02*
X0212397Y0065793D01*
X0212397Y0064195D02*
X0212397Y0064195D01*
X0208397Y0064195D02*
X0208397Y0064195D01*
X0208397Y0065793D02*
X0208397Y0065793D01*
X0208397Y0067392D02*
X0208397Y0067392D01*
X0206388Y0064195D02*
X0169332Y0064195D01*
X0164761Y0067392D02*
X0107135Y0067392D01*
X0106990Y0067296D02*
X0107492Y0067631D01*
X0107919Y0068058D01*
X0108254Y0068559D01*
X0108485Y0069117D01*
X0108603Y0069709D01*
X0108603Y0070011D01*
X0108603Y0070312D01*
X0108485Y0070904D01*
X0108254Y0071462D01*
X0107919Y0071964D01*
X0107492Y0072390D01*
X0106990Y0072726D01*
X0106433Y0072957D01*
X0105841Y0073074D01*
X0105539Y0073074D01*
X0105237Y0073074D01*
X0104645Y0072957D01*
X0104088Y0072726D01*
X0103586Y0072390D01*
X0103159Y0071964D01*
X0102824Y0071462D01*
X0102593Y0070904D01*
X0102475Y0070312D01*
X0102475Y0070011D01*
X0105539Y0070011D01*
X0105539Y0073074D01*
X0105539Y0070011D01*
X0105539Y0070011D01*
X0105539Y0070011D01*
X0108603Y0070011D01*
X0105539Y0070011D01*
X0105539Y0070011D01*
X0102475Y0070011D01*
X0102475Y0069709D01*
X0102593Y0069117D01*
X0102824Y0068559D01*
X0103159Y0068058D01*
X0103586Y0067631D01*
X0104088Y0067296D01*
X0104645Y0067065D01*
X0105237Y0066947D01*
X0105539Y0066947D01*
X0105539Y0070010D01*
X0105539Y0070010D01*
X0105539Y0066947D01*
X0105841Y0066947D01*
X0106433Y0067065D01*
X0106990Y0067296D01*
X0105539Y0067392D02*
X0105539Y0067392D01*
X0103944Y0067392D02*
X0102043Y0067392D01*
X0102043Y0068990D02*
X0102645Y0068990D01*
X0105539Y0068990D02*
X0105539Y0068990D01*
X0105539Y0070589D02*
X0105539Y0070589D01*
X0105539Y0072187D02*
X0105539Y0072187D01*
X0103383Y0072187D02*
X0102043Y0072187D01*
X0102043Y0070589D02*
X0102530Y0070589D01*
X0107695Y0072187D02*
X0172065Y0072187D01*
X0171806Y0070589D02*
X0108548Y0070589D01*
X0108433Y0068990D02*
X0166359Y0068990D01*
X0176063Y0068990D02*
X0177681Y0068990D01*
X0176949Y0070589D02*
X0223834Y0070589D01*
X0223834Y0072187D02*
X0176690Y0072187D01*
X0223834Y0080180D02*
X0106226Y0080180D01*
X0106285Y0081779D02*
X0223834Y0081779D01*
X0223834Y0083377D02*
X0104905Y0083377D01*
X0102043Y0065793D02*
X0121772Y0065793D01*
X0120174Y0064195D02*
X0102043Y0064195D01*
X0102043Y0062596D02*
X0118575Y0062596D01*
X0116977Y0060998D02*
X0106789Y0060998D01*
X0105539Y0060998D02*
X0105539Y0060998D01*
X0104289Y0060998D02*
X0102043Y0060998D01*
X0102043Y0059399D02*
X0102720Y0059399D01*
X0102495Y0057801D02*
X0101381Y0057801D01*
X0105539Y0057801D02*
X0105539Y0057801D01*
X0105539Y0059399D02*
X0105539Y0059399D01*
X0108358Y0059399D02*
X0115378Y0059399D01*
X0113780Y0057801D02*
X0108584Y0057801D01*
X0084673Y0030626D02*
X0084673Y0030626D01*
X0084673Y0029028D02*
X0084673Y0029028D01*
X0086427Y0021035D02*
X0080678Y0021035D01*
X0080832Y0019437D02*
X0086273Y0019437D01*
X0075927Y0021035D02*
X0069989Y0021035D01*
X0069989Y0019437D02*
X0075773Y0019437D01*
X0130377Y0016240D02*
X0137608Y0016240D01*
X0137183Y0017838D02*
X0139207Y0017838D01*
X0142377Y0016240D02*
X0146617Y0016240D01*
X0146617Y0017838D02*
X0143975Y0017838D01*
X0144489Y0019437D02*
X0146617Y0019437D01*
X0146617Y0021035D02*
X0144489Y0021035D01*
X0145207Y0022634D02*
X0145899Y0022634D01*
X0145802Y0024232D02*
X0145304Y0024232D01*
X0141117Y0021035D02*
X0138178Y0021035D01*
X0138332Y0019437D02*
X0140805Y0019437D01*
X0140778Y0014641D02*
X0145686Y0014641D01*
X0144301Y0013043D02*
X0141974Y0013043D01*
X0142481Y0011444D02*
X0143794Y0011444D01*
X0143794Y0009846D02*
X0142481Y0009846D01*
X0142481Y0008247D02*
X0143794Y0008247D01*
X0152481Y0008247D02*
X0153794Y0008247D01*
X0153794Y0009846D02*
X0152481Y0009846D01*
X0152481Y0011444D02*
X0153794Y0011444D01*
X0154301Y0013043D02*
X0151974Y0013043D01*
X0150589Y0014641D02*
X0155686Y0014641D01*
X0156617Y0016240D02*
X0149989Y0016240D01*
X0149989Y0017838D02*
X0156617Y0017838D01*
X0159989Y0017838D02*
X0166617Y0017838D01*
X0166617Y0016240D02*
X0159989Y0016240D01*
X0160589Y0014641D02*
X0165686Y0014641D01*
X0164301Y0013043D02*
X0161974Y0013043D01*
X0162481Y0011444D02*
X0163794Y0011444D01*
X0163794Y0009846D02*
X0162481Y0009846D01*
X0162481Y0008247D02*
X0163794Y0008247D01*
X0172481Y0008247D02*
X0173794Y0008247D01*
X0173794Y0009846D02*
X0172481Y0009846D01*
X0172481Y0011444D02*
X0173794Y0011444D01*
X0174301Y0013043D02*
X0171974Y0013043D01*
X0170589Y0014641D02*
X0175686Y0014641D01*
X0176617Y0016240D02*
X0169989Y0016240D01*
X0169989Y0017838D02*
X0176617Y0017838D01*
X0179989Y0017838D02*
X0186452Y0017838D01*
X0186452Y0016240D02*
X0179989Y0016240D01*
X0180589Y0014641D02*
X0185686Y0014641D01*
X0184301Y0013043D02*
X0181974Y0013043D01*
X0182481Y0011444D02*
X0183794Y0011444D01*
X0183794Y0009846D02*
X0182481Y0009846D01*
X0182481Y0008247D02*
X0183794Y0008247D01*
X0192481Y0008247D02*
X0193794Y0008247D01*
X0193794Y0009846D02*
X0192481Y0009846D01*
X0192481Y0011444D02*
X0193794Y0011444D01*
X0194301Y0013043D02*
X0191974Y0013043D01*
X0190589Y0014641D02*
X0195686Y0014641D01*
X0196617Y0016240D02*
X0189823Y0016240D01*
X0189823Y0017838D02*
X0196617Y0017838D01*
X0196617Y0019437D02*
X0189823Y0019437D01*
X0189823Y0021035D02*
X0196617Y0021035D01*
X0195899Y0022634D02*
X0190707Y0022634D01*
X0190804Y0024232D02*
X0195802Y0024232D01*
X0200804Y0024232D02*
X0223834Y0024232D01*
X0223834Y0022634D02*
X0200707Y0022634D01*
X0199989Y0021035D02*
X0223834Y0021035D01*
X0223834Y0019437D02*
X0199989Y0019437D01*
X0199989Y0017838D02*
X0223834Y0017838D01*
X0223834Y0016240D02*
X0199989Y0016240D01*
X0200589Y0014641D02*
X0205486Y0014641D01*
X0204105Y0013043D02*
X0201974Y0013043D01*
X0202481Y0011444D02*
X0203618Y0011444D01*
X0203597Y0009846D02*
X0202481Y0009846D01*
X0202481Y0008247D02*
X0203597Y0008247D01*
X0207953Y0008247D02*
X0208322Y0008247D01*
X0208322Y0009846D02*
X0207953Y0009846D01*
X0207953Y0011444D02*
X0208322Y0011444D01*
X0208322Y0013043D02*
X0207953Y0013043D01*
X0207953Y0014641D02*
X0208322Y0014641D01*
X0210789Y0014641D02*
X0215686Y0014641D01*
X0214301Y0013043D02*
X0212170Y0013043D01*
X0212657Y0011444D02*
X0213794Y0011444D01*
X0213794Y0009846D02*
X0212678Y0009846D01*
X0212678Y0008247D02*
X0213794Y0008247D01*
X0222481Y0009846D02*
X0223834Y0009846D01*
X0223834Y0011444D02*
X0222481Y0011444D01*
X0221974Y0013043D02*
X0223834Y0013043D01*
X0223834Y0014641D02*
X0220589Y0014641D01*
X0186452Y0019437D02*
X0179989Y0019437D01*
X0179989Y0021035D02*
X0186452Y0021035D01*
X0185899Y0022634D02*
X0180707Y0022634D01*
X0180804Y0024232D02*
X0185802Y0024232D01*
X0176617Y0021035D02*
X0169989Y0021035D01*
X0169989Y0019437D02*
X0176617Y0019437D01*
X0175899Y0022634D02*
X0170707Y0022634D01*
X0170804Y0024232D02*
X0175802Y0024232D01*
X0166617Y0021035D02*
X0159989Y0021035D01*
X0159989Y0019437D02*
X0166617Y0019437D01*
X0165899Y0022634D02*
X0160707Y0022634D01*
X0160804Y0024232D02*
X0165802Y0024232D01*
X0156617Y0021035D02*
X0149989Y0021035D01*
X0149989Y0019437D02*
X0156617Y0019437D01*
X0155899Y0022634D02*
X0150707Y0022634D01*
X0150804Y0024232D02*
X0155802Y0024232D01*
X0135686Y0014641D02*
X0130589Y0014641D01*
X0131974Y0013043D02*
X0134301Y0013043D01*
X0133794Y0011444D02*
X0132481Y0011444D01*
X0132481Y0009846D02*
X0133794Y0009846D01*
X0133794Y0008247D02*
X0132481Y0008247D01*
D14*
X0132771Y0028019D03*
X0079740Y0053231D03*
X0097303Y0065050D03*
X0105539Y0070011D03*
X0105539Y0058200D03*
X0034082Y0025176D03*
X0021082Y0023987D03*
X0030082Y0075050D03*
X0208397Y0066519D03*
X0212397Y0066519D03*
X0216397Y0066519D03*
D15*
X0179378Y0067050D03*
X0174378Y0071050D03*
X0176846Y0061550D03*
X0171846Y0059050D03*
X0178346Y0056050D03*
X0141803Y0050550D03*
X0128303Y0046550D03*
X0122803Y0049369D03*
X0119319Y0049369D03*
X0115382Y0049369D03*
X0111445Y0049369D03*
X0107508Y0049144D03*
X0084673Y0029853D03*
X0068303Y0023550D03*
X0078303Y0020050D03*
X0088803Y0020050D03*
X0107803Y0020050D03*
X0114803Y0020050D03*
X0121803Y0020050D03*
X0128271Y0026550D03*
X0135803Y0020050D03*
X0142803Y0023550D03*
X0148303Y0023550D03*
X0158303Y0023550D03*
X0168303Y0023550D03*
X0178303Y0023550D03*
X0188303Y0023550D03*
X0198303Y0023550D03*
X0103803Y0081050D03*
X0065082Y0067550D03*
X0059082Y0067050D03*
X0047582Y0069550D03*
X0047582Y0061550D03*
X0031823Y0088019D03*
X0028271Y0105444D03*
X0036409Y0105444D03*
X0046500Y0105444D03*
X0056590Y0105444D03*
X0066681Y0105444D03*
X0076409Y0105444D03*
X0085803Y0106050D03*
X0090913Y0107412D03*
X0101602Y0107412D03*
X0108413Y0107412D03*
X0116413Y0107412D03*
X0122413Y0107412D03*
X0132413Y0107412D03*
X0141413Y0105444D03*
X0151413Y0105444D03*
X0161413Y0105444D03*
X0171413Y0105444D03*
X0181413Y0105444D03*
X0191413Y0105444D03*
X0058303Y0023550D03*
X0050303Y0023550D03*
X0038803Y0019613D03*
X0032803Y0019613D03*
D16*
X0034301Y0021116D02*
X0036641Y0021116D01*
X0036641Y0021814D02*
X0022153Y0021814D01*
X0022451Y0021938D02*
X0023131Y0022618D01*
X0023499Y0023506D01*
X0023499Y0024468D01*
X0023131Y0025356D01*
X0022451Y0026036D01*
X0021563Y0026404D01*
X0020602Y0026404D01*
X0019713Y0026036D01*
X0019033Y0025356D01*
X0018665Y0024468D01*
X0018665Y0023506D01*
X0019033Y0022618D01*
X0019713Y0021938D01*
X0020602Y0021570D01*
X0021563Y0021570D01*
X0022451Y0021938D01*
X0023026Y0022513D02*
X0036641Y0022513D01*
X0036641Y0023211D02*
X0035814Y0023211D01*
X0035749Y0023146D02*
X0036113Y0023510D01*
X0036399Y0023938D01*
X0036596Y0024414D01*
X0036641Y0024643D01*
X0036641Y0014550D01*
X0035932Y0014256D01*
X0034837Y0013161D01*
X0034244Y0011730D01*
X0034244Y0006384D01*
X0032031Y0006384D01*
X0032031Y0011730D01*
X0031438Y0013161D01*
X0030343Y0014256D01*
X0029530Y0014593D01*
X0032429Y0017491D01*
X0033682Y0017491D01*
X0034925Y0018734D01*
X0034925Y0020492D01*
X0033682Y0021735D01*
X0031924Y0021735D01*
X0030681Y0020492D01*
X0030681Y0019239D01*
X0027626Y0016183D01*
X0026902Y0015460D01*
X0026902Y0014658D01*
X0025932Y0014256D01*
X0024837Y0013161D01*
X0024244Y0011730D01*
X0024244Y0006384D01*
X0022228Y0006384D01*
X0022228Y0011277D01*
X0022127Y0011913D01*
X0021928Y0012526D01*
X0021636Y0013099D01*
X0021257Y0013620D01*
X0020802Y0014075D01*
X0020281Y0014454D01*
X0019708Y0014746D01*
X0019095Y0014945D01*
X0018487Y0015041D01*
X0018487Y0006384D01*
X0017788Y0006384D01*
X0017788Y0015041D01*
X0017180Y0014945D01*
X0016567Y0014746D01*
X0015994Y0014454D01*
X0015473Y0014075D01*
X0015018Y0013620D01*
X0014639Y0013099D01*
X0014347Y0012526D01*
X0014148Y0011913D01*
X0014047Y0011277D01*
X0014047Y0006384D01*
X0013572Y0006384D01*
X0013019Y0006937D01*
X0013019Y0028672D01*
X0026799Y0028672D01*
X0026799Y0078869D01*
X0036641Y0078869D01*
X0036641Y0071979D01*
X0100303Y0071979D01*
X0100303Y0059184D01*
X0036641Y0059184D01*
X0036641Y0025708D01*
X0036596Y0025938D01*
X0036399Y0026414D01*
X0036113Y0026842D01*
X0035749Y0027206D01*
X0035320Y0027492D01*
X0034845Y0027689D01*
X0034340Y0027790D01*
X0034225Y0027790D01*
X0034225Y0025318D01*
X0033940Y0025318D01*
X0033940Y0025034D01*
X0031469Y0025034D01*
X0031469Y0024919D01*
X0031569Y0024414D01*
X0031766Y0023938D01*
X0032052Y0023510D01*
X0032416Y0023146D01*
X0032844Y0022860D01*
X0033320Y0022663D01*
X0033825Y0022562D01*
X0033940Y0022562D01*
X0033940Y0025034D01*
X0034225Y0025034D01*
X0034225Y0022562D01*
X0034340Y0022562D01*
X0034845Y0022663D01*
X0035320Y0022860D01*
X0035749Y0023146D01*
X0036380Y0023910D02*
X0036641Y0023910D01*
X0036634Y0024608D02*
X0036641Y0024608D01*
X0036641Y0026005D02*
X0036568Y0026005D01*
X0036641Y0026704D02*
X0036205Y0026704D01*
X0036641Y0027402D02*
X0035455Y0027402D01*
X0034225Y0027402D02*
X0033940Y0027402D01*
X0033940Y0027790D02*
X0033825Y0027790D01*
X0033320Y0027689D01*
X0032844Y0027492D01*
X0032416Y0027206D01*
X0032052Y0026842D01*
X0031766Y0026414D01*
X0031569Y0025938D01*
X0031469Y0025433D01*
X0031469Y0025318D01*
X0033940Y0025318D01*
X0033940Y0027790D01*
X0033940Y0026704D02*
X0034225Y0026704D01*
X0034225Y0026005D02*
X0033940Y0026005D01*
X0033940Y0025307D02*
X0023152Y0025307D01*
X0023441Y0024608D02*
X0031530Y0024608D01*
X0031785Y0023910D02*
X0023499Y0023910D01*
X0023377Y0023211D02*
X0032351Y0023211D01*
X0033940Y0023211D02*
X0034225Y0023211D01*
X0034225Y0023910D02*
X0033940Y0023910D01*
X0033940Y0024608D02*
X0034225Y0024608D01*
X0031597Y0026005D02*
X0022482Y0026005D01*
X0019683Y0026005D02*
X0013019Y0026005D01*
X0013019Y0025307D02*
X0019013Y0025307D01*
X0018724Y0024608D02*
X0013019Y0024608D01*
X0013019Y0023910D02*
X0018665Y0023910D01*
X0018788Y0023211D02*
X0013019Y0023211D01*
X0013019Y0022513D02*
X0019139Y0022513D01*
X0020012Y0021814D02*
X0013019Y0021814D01*
X0013019Y0021116D02*
X0031305Y0021116D01*
X0030681Y0020417D02*
X0013019Y0020417D01*
X0013019Y0019719D02*
X0030681Y0019719D01*
X0030462Y0019020D02*
X0013019Y0019020D01*
X0013019Y0018322D02*
X0029764Y0018322D01*
X0029065Y0017623D02*
X0013019Y0017623D01*
X0013019Y0016925D02*
X0028367Y0016925D01*
X0027668Y0016226D02*
X0013019Y0016226D01*
X0013019Y0015528D02*
X0026970Y0015528D01*
X0026902Y0014829D02*
X0019452Y0014829D01*
X0018487Y0014829D02*
X0017788Y0014829D01*
X0017788Y0014131D02*
X0018487Y0014131D01*
X0018487Y0013432D02*
X0017788Y0013432D01*
X0017788Y0012734D02*
X0018487Y0012734D01*
X0018487Y0012035D02*
X0017788Y0012035D01*
X0017788Y0011337D02*
X0018487Y0011337D01*
X0018487Y0010638D02*
X0017788Y0010638D01*
X0017788Y0009940D02*
X0018487Y0009940D01*
X0018487Y0009241D02*
X0017788Y0009241D01*
X0017788Y0008543D02*
X0018487Y0008543D01*
X0018487Y0007844D02*
X0017788Y0007844D01*
X0017788Y0007146D02*
X0018487Y0007146D01*
X0018487Y0006447D02*
X0017788Y0006447D01*
X0014047Y0006447D02*
X0013509Y0006447D01*
X0013019Y0007146D02*
X0014047Y0007146D01*
X0014047Y0007844D02*
X0013019Y0007844D01*
X0013019Y0008543D02*
X0014047Y0008543D01*
X0014047Y0009241D02*
X0013019Y0009241D01*
X0013019Y0009940D02*
X0014047Y0009940D01*
X0014047Y0010638D02*
X0013019Y0010638D01*
X0013019Y0011337D02*
X0014057Y0011337D01*
X0014188Y0012035D02*
X0013019Y0012035D01*
X0013019Y0012734D02*
X0014453Y0012734D01*
X0014881Y0013432D02*
X0013019Y0013432D01*
X0013019Y0014131D02*
X0015549Y0014131D01*
X0016823Y0014829D02*
X0013019Y0014829D01*
X0020726Y0014131D02*
X0025807Y0014131D01*
X0025108Y0013432D02*
X0021394Y0013432D01*
X0021822Y0012734D02*
X0024660Y0012734D01*
X0024371Y0012035D02*
X0022087Y0012035D01*
X0022218Y0011337D02*
X0024244Y0011337D01*
X0024244Y0010638D02*
X0022228Y0010638D01*
X0022228Y0009940D02*
X0024244Y0009940D01*
X0024244Y0009241D02*
X0022228Y0009241D01*
X0022228Y0008543D02*
X0024244Y0008543D01*
X0024244Y0007844D02*
X0022228Y0007844D01*
X0022228Y0007146D02*
X0024244Y0007146D01*
X0024244Y0006447D02*
X0022228Y0006447D01*
X0032031Y0006447D02*
X0034244Y0006447D01*
X0034244Y0007146D02*
X0032031Y0007146D01*
X0032031Y0007844D02*
X0034244Y0007844D01*
X0034244Y0008543D02*
X0032031Y0008543D01*
X0032031Y0009241D02*
X0034244Y0009241D01*
X0034244Y0009940D02*
X0032031Y0009940D01*
X0032031Y0010638D02*
X0034244Y0010638D01*
X0034244Y0011337D02*
X0032031Y0011337D01*
X0031904Y0012035D02*
X0034371Y0012035D01*
X0034660Y0012734D02*
X0031615Y0012734D01*
X0031167Y0013432D02*
X0035108Y0013432D01*
X0035807Y0014131D02*
X0030468Y0014131D01*
X0029767Y0014829D02*
X0036641Y0014829D01*
X0036641Y0015528D02*
X0030465Y0015528D01*
X0031164Y0016226D02*
X0036641Y0016226D01*
X0036641Y0016925D02*
X0031862Y0016925D01*
X0033814Y0017623D02*
X0036641Y0017623D01*
X0036641Y0018322D02*
X0034512Y0018322D01*
X0034925Y0019020D02*
X0036641Y0019020D01*
X0036641Y0019719D02*
X0034925Y0019719D01*
X0034925Y0020417D02*
X0036641Y0020417D01*
X0031960Y0026704D02*
X0013019Y0026704D01*
X0013019Y0027402D02*
X0032710Y0027402D01*
X0036641Y0028101D02*
X0013019Y0028101D01*
X0026799Y0028799D02*
X0036641Y0028799D01*
X0036641Y0029498D02*
X0026799Y0029498D01*
X0026799Y0030196D02*
X0036641Y0030196D01*
X0036641Y0030895D02*
X0026799Y0030895D01*
X0026799Y0031593D02*
X0036641Y0031593D01*
X0036641Y0032292D02*
X0026799Y0032292D01*
X0026799Y0032990D02*
X0036641Y0032990D01*
X0036641Y0033689D02*
X0026799Y0033689D01*
X0026799Y0034387D02*
X0036641Y0034387D01*
X0036641Y0035086D02*
X0026799Y0035086D01*
X0026799Y0035784D02*
X0036641Y0035784D01*
X0036641Y0036483D02*
X0026799Y0036483D01*
X0026799Y0037182D02*
X0036641Y0037182D01*
X0036641Y0037880D02*
X0026799Y0037880D01*
X0026799Y0038579D02*
X0036641Y0038579D01*
X0036641Y0039277D02*
X0026799Y0039277D01*
X0026799Y0039976D02*
X0036641Y0039976D01*
X0036641Y0040674D02*
X0026799Y0040674D01*
X0026799Y0041373D02*
X0036641Y0041373D01*
X0036641Y0042071D02*
X0026799Y0042071D01*
X0026799Y0042770D02*
X0036641Y0042770D01*
X0036641Y0043468D02*
X0026799Y0043468D01*
X0026799Y0044167D02*
X0036641Y0044167D01*
X0036641Y0044865D02*
X0026799Y0044865D01*
X0026799Y0045564D02*
X0036641Y0045564D01*
X0036641Y0046262D02*
X0026799Y0046262D01*
X0026799Y0046961D02*
X0036641Y0046961D01*
X0036641Y0047659D02*
X0026799Y0047659D01*
X0026799Y0048358D02*
X0036641Y0048358D01*
X0036641Y0049056D02*
X0026799Y0049056D01*
X0026799Y0049755D02*
X0036641Y0049755D01*
X0036641Y0050453D02*
X0026799Y0050453D01*
X0026799Y0051152D02*
X0036641Y0051152D01*
X0036641Y0051850D02*
X0026799Y0051850D01*
X0026799Y0052549D02*
X0036641Y0052549D01*
X0036641Y0053247D02*
X0026799Y0053247D01*
X0026799Y0053946D02*
X0036641Y0053946D01*
X0036641Y0054644D02*
X0026799Y0054644D01*
X0026799Y0055343D02*
X0036641Y0055343D01*
X0036641Y0056041D02*
X0026799Y0056041D01*
X0026799Y0056740D02*
X0036641Y0056740D01*
X0036641Y0057438D02*
X0026799Y0057438D01*
X0026799Y0058137D02*
X0036641Y0058137D01*
X0036641Y0058835D02*
X0026799Y0058835D01*
X0026799Y0059534D02*
X0046598Y0059534D01*
X0046704Y0059428D02*
X0048461Y0059428D01*
X0049347Y0060314D01*
X0053070Y0060314D01*
X0054094Y0060314D01*
X0058708Y0064928D01*
X0059961Y0064928D01*
X0061204Y0066171D01*
X0061204Y0067929D01*
X0060819Y0068314D01*
X0062570Y0068314D01*
X0062961Y0067924D01*
X0062961Y0066671D01*
X0064204Y0065428D01*
X0065961Y0065428D01*
X0067204Y0066671D01*
X0067204Y0068429D01*
X0065961Y0069672D01*
X0064708Y0069672D01*
X0063594Y0070786D01*
X0049347Y0070786D01*
X0048461Y0071672D01*
X0046704Y0071672D01*
X0045461Y0070429D01*
X0045461Y0068671D01*
X0046704Y0067428D01*
X0048461Y0067428D01*
X0049347Y0068314D01*
X0057346Y0068314D01*
X0056961Y0067929D01*
X0056961Y0066676D01*
X0053070Y0062786D01*
X0049347Y0062786D01*
X0048461Y0063672D01*
X0046704Y0063672D01*
X0045461Y0062429D01*
X0045461Y0060671D01*
X0046704Y0059428D01*
X0045900Y0060232D02*
X0026799Y0060232D01*
X0026799Y0060931D02*
X0045461Y0060931D01*
X0045461Y0061629D02*
X0026799Y0061629D01*
X0026799Y0062328D02*
X0045461Y0062328D01*
X0046058Y0063026D02*
X0026799Y0063026D01*
X0026799Y0063725D02*
X0054010Y0063725D01*
X0054708Y0064423D02*
X0026799Y0064423D01*
X0026799Y0065122D02*
X0055407Y0065122D01*
X0056105Y0065820D02*
X0026799Y0065820D01*
X0026799Y0066519D02*
X0056804Y0066519D01*
X0056961Y0067218D02*
X0026799Y0067218D01*
X0026799Y0067916D02*
X0046216Y0067916D01*
X0045517Y0068615D02*
X0026799Y0068615D01*
X0026799Y0069313D02*
X0045461Y0069313D01*
X0045461Y0070012D02*
X0026799Y0070012D01*
X0026799Y0070710D02*
X0045742Y0070710D01*
X0046441Y0071409D02*
X0026799Y0071409D01*
X0026799Y0072107D02*
X0036641Y0072107D01*
X0036641Y0072806D02*
X0031428Y0072806D01*
X0031320Y0072734D02*
X0031749Y0073020D01*
X0032113Y0073384D01*
X0032399Y0073812D01*
X0032596Y0074288D01*
X0032696Y0074793D01*
X0032696Y0074908D01*
X0030225Y0074908D01*
X0030225Y0075192D01*
X0032696Y0075192D01*
X0032696Y0075307D01*
X0032596Y0075812D01*
X0032399Y0076288D01*
X0032113Y0076716D01*
X0031749Y0077080D01*
X0031320Y0077366D01*
X0030845Y0077563D01*
X0030340Y0077664D01*
X0030225Y0077664D01*
X0030225Y0075192D01*
X0029940Y0075192D01*
X0029940Y0074908D01*
X0027469Y0074908D01*
X0027469Y0074793D01*
X0027569Y0074288D01*
X0027766Y0073812D01*
X0028052Y0073384D01*
X0028416Y0073020D01*
X0028844Y0072734D01*
X0029320Y0072537D01*
X0029825Y0072436D01*
X0029940Y0072436D01*
X0029940Y0074908D01*
X0030225Y0074908D01*
X0030225Y0072436D01*
X0030340Y0072436D01*
X0030845Y0072537D01*
X0031320Y0072734D01*
X0030225Y0072806D02*
X0029940Y0072806D01*
X0029940Y0073504D02*
X0030225Y0073504D01*
X0030225Y0074203D02*
X0029940Y0074203D01*
X0029940Y0074901D02*
X0030225Y0074901D01*
X0029940Y0075192D02*
X0027469Y0075192D01*
X0027469Y0075307D01*
X0027569Y0075812D01*
X0027766Y0076288D01*
X0028052Y0076716D01*
X0028416Y0077080D01*
X0028844Y0077366D01*
X0029320Y0077563D01*
X0029825Y0077664D01*
X0029940Y0077664D01*
X0029940Y0075192D01*
X0029940Y0075600D02*
X0030225Y0075600D01*
X0030225Y0076298D02*
X0029940Y0076298D01*
X0029940Y0076997D02*
X0030225Y0076997D01*
X0031832Y0076997D02*
X0036641Y0076997D01*
X0036641Y0077695D02*
X0026799Y0077695D01*
X0026799Y0076997D02*
X0028333Y0076997D01*
X0027773Y0076298D02*
X0026799Y0076298D01*
X0026799Y0075600D02*
X0027527Y0075600D01*
X0027469Y0074901D02*
X0026799Y0074901D01*
X0026799Y0074203D02*
X0027604Y0074203D01*
X0027972Y0073504D02*
X0026799Y0073504D01*
X0026799Y0072806D02*
X0028737Y0072806D01*
X0032193Y0073504D02*
X0036641Y0073504D01*
X0036641Y0074203D02*
X0032561Y0074203D01*
X0032696Y0074901D02*
X0036641Y0074901D01*
X0036641Y0075600D02*
X0032638Y0075600D01*
X0032392Y0076298D02*
X0036641Y0076298D01*
X0036641Y0078394D02*
X0026799Y0078394D01*
X0042866Y0081050D02*
X0103803Y0081050D01*
X0100303Y0071409D02*
X0048724Y0071409D01*
X0048949Y0067916D02*
X0056961Y0067916D01*
X0060853Y0065820D02*
X0063811Y0065820D01*
X0063113Y0066519D02*
X0061204Y0066519D01*
X0061204Y0067218D02*
X0062961Y0067218D01*
X0062961Y0067916D02*
X0061204Y0067916D01*
X0060155Y0065122D02*
X0097161Y0065122D01*
X0097161Y0065192D02*
X0097161Y0064908D01*
X0097445Y0064908D01*
X0097445Y0065192D01*
X0099917Y0065192D01*
X0099917Y0065307D01*
X0099816Y0065812D01*
X0099619Y0066288D01*
X0099333Y0066716D01*
X0098969Y0067080D01*
X0098541Y0067366D01*
X0098065Y0067563D01*
X0097560Y0067664D01*
X0097445Y0067664D01*
X0097445Y0065192D01*
X0097161Y0065192D01*
X0097161Y0067664D01*
X0097045Y0067664D01*
X0096540Y0067563D01*
X0096065Y0067366D01*
X0095637Y0067080D01*
X0095273Y0066716D01*
X0094987Y0066288D01*
X0094790Y0065812D01*
X0094689Y0065307D01*
X0094689Y0065192D01*
X0097161Y0065192D01*
X0097161Y0064908D02*
X0094689Y0064908D01*
X0094689Y0064793D01*
X0094790Y0064288D01*
X0094987Y0063812D01*
X0095273Y0063384D01*
X0095637Y0063020D01*
X0096065Y0062734D01*
X0096540Y0062537D01*
X0097045Y0062436D01*
X0097161Y0062436D01*
X0097161Y0064908D01*
X0097445Y0064908D02*
X0097445Y0062436D01*
X0097560Y0062436D01*
X0098065Y0062537D01*
X0098541Y0062734D01*
X0098969Y0063020D01*
X0099333Y0063384D01*
X0099619Y0063812D01*
X0099816Y0064288D01*
X0099917Y0064793D01*
X0099917Y0064908D01*
X0097445Y0064908D01*
X0097445Y0065122D02*
X0100303Y0065122D01*
X0100303Y0065820D02*
X0099813Y0065820D01*
X0099465Y0066519D02*
X0100303Y0066519D01*
X0100303Y0067218D02*
X0098764Y0067218D01*
X0097445Y0067218D02*
X0097161Y0067218D01*
X0097161Y0066519D02*
X0097445Y0066519D01*
X0097445Y0065820D02*
X0097161Y0065820D01*
X0097161Y0064423D02*
X0097445Y0064423D01*
X0097445Y0063725D02*
X0097161Y0063725D01*
X0097161Y0063026D02*
X0097445Y0063026D01*
X0098976Y0063026D02*
X0100303Y0063026D01*
X0100303Y0062328D02*
X0056108Y0062328D01*
X0056807Y0063026D02*
X0095630Y0063026D01*
X0095045Y0063725D02*
X0057505Y0063725D01*
X0058204Y0064423D02*
X0094762Y0064423D01*
X0094793Y0065820D02*
X0066353Y0065820D01*
X0067052Y0066519D02*
X0095141Y0066519D01*
X0095842Y0067218D02*
X0067204Y0067218D01*
X0067204Y0067916D02*
X0100303Y0067916D01*
X0100303Y0068615D02*
X0067018Y0068615D01*
X0066320Y0069313D02*
X0100303Y0069313D01*
X0100303Y0070012D02*
X0064369Y0070012D01*
X0063670Y0070710D02*
X0100303Y0070710D01*
X0100303Y0064423D02*
X0099843Y0064423D01*
X0099561Y0063725D02*
X0100303Y0063725D01*
X0100303Y0061629D02*
X0055410Y0061629D01*
X0054711Y0060931D02*
X0100303Y0060931D01*
X0100303Y0060232D02*
X0049265Y0060232D01*
X0048567Y0059534D02*
X0100303Y0059534D01*
X0053311Y0063026D02*
X0049106Y0063026D01*
X0046500Y0105444D02*
X0046409Y0105444D01*
X0038413Y0113440D01*
X0038413Y0123160D01*
X0028413Y0123160D02*
X0028413Y0113440D01*
X0036409Y0105444D01*
X0028271Y0105444D02*
X0018413Y0115302D01*
X0018413Y0123160D01*
X0048413Y0123160D02*
X0048413Y0113440D01*
X0048594Y0113440D01*
X0056590Y0105444D01*
X0058685Y0113440D02*
X0066681Y0105444D01*
X0068413Y0113440D02*
X0076409Y0105444D01*
X0078413Y0113440D02*
X0085803Y0106050D01*
X0088413Y0109912D02*
X0090913Y0107412D01*
X0088413Y0109912D02*
X0088413Y0123160D01*
X0078413Y0123160D02*
X0078413Y0113440D01*
X0068413Y0113440D02*
X0068413Y0123160D01*
X0058413Y0123160D02*
X0058413Y0113440D01*
X0058685Y0113440D01*
X0098413Y0110601D02*
X0101602Y0107412D01*
X0098413Y0110601D02*
X0098413Y0123160D01*
X0108413Y0123160D02*
X0108413Y0107412D01*
X0116413Y0107412D02*
X0118413Y0109412D01*
X0118413Y0123160D01*
X0128413Y0123160D02*
X0128413Y0113412D01*
X0122413Y0107412D01*
X0132413Y0107412D02*
X0138413Y0113412D01*
X0138413Y0123160D01*
X0148413Y0123160D02*
X0148413Y0112444D01*
X0141413Y0105444D01*
X0151413Y0105444D02*
X0158413Y0112444D01*
X0158413Y0123160D01*
X0168413Y0123160D02*
X0168413Y0112444D01*
X0161413Y0105444D01*
X0171413Y0105444D02*
X0178413Y0112444D01*
X0178413Y0123160D01*
X0188413Y0123160D02*
X0188413Y0112444D01*
X0181413Y0105444D01*
X0191413Y0105444D02*
X0198413Y0112444D01*
X0198413Y0123160D01*
D17*
X0174378Y0071050D02*
X0174378Y0069081D01*
X0172846Y0067550D01*
X0167303Y0067550D01*
X0164803Y0065050D01*
X0123413Y0065050D01*
X0107508Y0049144D01*
X0111445Y0049369D02*
X0125126Y0063050D01*
X0165803Y0063050D01*
X0168803Y0066050D01*
X0178378Y0066050D01*
X0179378Y0067050D01*
X0176846Y0061550D02*
X0167303Y0061550D01*
X0166803Y0061050D01*
X0127063Y0061050D01*
X0115382Y0049369D01*
X0119319Y0049369D02*
X0129000Y0059050D01*
X0171846Y0059050D01*
X0167803Y0056050D02*
X0178346Y0056050D01*
X0167803Y0056050D02*
X0166303Y0057550D01*
X0148803Y0057550D01*
X0130984Y0057550D01*
X0122803Y0049369D01*
X0128303Y0046550D02*
X0128303Y0026581D01*
X0128271Y0026550D01*
X0121803Y0020050D02*
X0118138Y0016385D01*
X0118138Y0005050D01*
X0128138Y0005050D02*
X0128138Y0016385D01*
X0129803Y0018050D01*
X0133803Y0018050D01*
X0135803Y0020050D01*
X0138138Y0014385D02*
X0142803Y0019050D01*
X0142803Y0023550D01*
X0148303Y0023550D02*
X0148303Y0005160D01*
X0148193Y0005050D01*
X0148138Y0005050D01*
X0138138Y0005050D02*
X0138138Y0014385D01*
X0158138Y0005050D02*
X0158193Y0005050D01*
X0158303Y0005160D01*
X0158303Y0023550D01*
X0168303Y0023550D02*
X0168303Y0005160D01*
X0168193Y0005050D01*
X0168138Y0005050D01*
X0178138Y0005050D02*
X0178193Y0005050D01*
X0178303Y0005160D01*
X0178303Y0023550D01*
X0188138Y0023164D02*
X0188138Y0005050D01*
X0198138Y0005050D02*
X0198248Y0005160D01*
X0198303Y0005160D01*
X0198303Y0023550D01*
X0188413Y0023440D02*
X0188138Y0023164D01*
X0188413Y0023440D02*
X0188303Y0023550D01*
X0148803Y0057550D02*
X0141803Y0050550D01*
X0114803Y0020050D02*
X0108138Y0013385D01*
X0108138Y0005050D01*
X0098138Y0005050D02*
X0098138Y0015385D01*
X0102803Y0020050D01*
X0107803Y0020050D01*
X0088803Y0020050D02*
X0088138Y0019385D01*
X0088138Y0005050D01*
X0078303Y0005160D02*
X0078193Y0005050D01*
X0078138Y0005050D01*
X0078303Y0005160D02*
X0078303Y0020050D01*
X0088413Y0019660D02*
X0088803Y0020050D01*
X0068303Y0023550D02*
X0068303Y0005160D01*
X0068193Y0005050D01*
X0068138Y0005050D01*
X0058138Y0005050D02*
X0058138Y0023164D01*
X0058413Y0023440D01*
X0058303Y0023550D01*
X0050303Y0023550D02*
X0048138Y0021385D01*
X0048138Y0005050D01*
X0038138Y0005050D02*
X0038138Y0018948D01*
X0038803Y0019613D01*
X0038413Y0019223D01*
X0032803Y0019613D02*
X0028138Y0014948D01*
X0028138Y0005050D01*
X0047582Y0061550D02*
X0053582Y0061550D01*
X0059082Y0067050D01*
X0063082Y0069550D02*
X0065082Y0067550D01*
X0064082Y0068550D01*
X0063082Y0069550D02*
X0047582Y0069550D01*
X0042866Y0081050D02*
X0038791Y0081050D01*
X0031823Y0088019D01*
M02*
