G75*
%MOIN*%
%OFA0B0*%
%FSLAX25Y25*%
%IPPOS*%
%LPD*%
%AMOC8*
5,1,8,0,0,1.08239X$1,22.5*
%
%ADD10R,0.04331X0.03937*%
%ADD11R,0.03937X0.04331*%
%ADD12R,0.05709X0.04528*%
%ADD13R,0.05512X0.01575*%
%ADD14R,0.07480X0.06890*%
%ADD15C,0.07480*%
%ADD16R,0.05800X0.01100*%
%ADD17R,0.01100X0.05800*%
%ADD18C,0.05906*%
%ADD19R,0.03543X0.03937*%
%ADD20R,0.02756X0.06693*%
%ADD21R,0.04300X0.07500*%
%ADD22R,0.03150X0.03150*%
%ADD23C,0.05000*%
%ADD24C,0.03937*%
%ADD25R,0.12598X0.05000*%
%ADD26C,0.02953*%
D10*
X0074456Y0074050D03*
X0081149Y0074050D03*
X0202897Y0049022D03*
X0211051Y0049176D03*
X0217744Y0049176D03*
X0202897Y0042330D03*
D11*
X0145803Y0079204D03*
X0145803Y0085896D03*
X0080334Y0048578D03*
X0073803Y0048578D03*
X0073803Y0041885D03*
X0080334Y0041885D03*
X0040929Y0061550D03*
X0034236Y0061550D03*
X0034236Y0069550D03*
X0040929Y0069550D03*
X0021681Y0091956D03*
X0014988Y0091956D03*
X0027236Y0038550D03*
X0033929Y0038550D03*
X0033929Y0030519D03*
X0027236Y0030519D03*
D12*
X0023571Y0053081D03*
X0023571Y0074735D03*
D13*
X0025224Y0069223D03*
X0025224Y0066664D03*
X0025224Y0064105D03*
X0025224Y0061546D03*
X0025224Y0058987D03*
D14*
X0014791Y0059676D03*
X0014791Y0068534D03*
D15*
X0014791Y0078180D03*
X0014791Y0050030D03*
D16*
X0091313Y0049305D03*
X0091313Y0051305D03*
X0091313Y0053305D03*
X0091313Y0055205D03*
X0091313Y0057205D03*
X0091313Y0059205D03*
X0091313Y0061105D03*
X0091313Y0063105D03*
X0091313Y0065105D03*
X0091313Y0067105D03*
X0091313Y0069005D03*
X0091313Y0071005D03*
X0091313Y0073005D03*
X0091313Y0074905D03*
X0091313Y0076905D03*
X0091313Y0078905D03*
X0135513Y0078905D03*
X0135513Y0076905D03*
X0135513Y0074905D03*
X0135513Y0073005D03*
X0135513Y0071005D03*
X0135513Y0069005D03*
X0135513Y0067105D03*
X0135513Y0065105D03*
X0135513Y0063105D03*
X0135513Y0061105D03*
X0135513Y0059205D03*
X0135513Y0057205D03*
X0135513Y0055205D03*
X0135513Y0053305D03*
X0135513Y0051305D03*
X0135513Y0049305D03*
D17*
X0128213Y0042005D03*
X0126213Y0042005D03*
X0124213Y0042005D03*
X0122313Y0042005D03*
X0120313Y0042005D03*
X0118313Y0042005D03*
X0116413Y0042005D03*
X0114413Y0042005D03*
X0112413Y0042005D03*
X0110413Y0042005D03*
X0108513Y0042005D03*
X0106513Y0042005D03*
X0104513Y0042005D03*
X0102613Y0042005D03*
X0100613Y0042005D03*
X0098613Y0042005D03*
X0098613Y0086205D03*
X0100613Y0086205D03*
X0102613Y0086205D03*
X0104513Y0086205D03*
X0106513Y0086205D03*
X0108513Y0086205D03*
X0110413Y0086205D03*
X0112413Y0086205D03*
X0114413Y0086205D03*
X0116413Y0086205D03*
X0118313Y0086205D03*
X0120313Y0086205D03*
X0122313Y0086205D03*
X0124213Y0086205D03*
X0126213Y0086205D03*
X0128213Y0086205D03*
D18*
X0018138Y0010956D02*
X0018138Y0005050D01*
X0028138Y0005050D02*
X0028138Y0010956D01*
X0038138Y0010956D02*
X0038138Y0005050D01*
X0048138Y0005050D02*
X0048138Y0010956D01*
X0058138Y0010956D02*
X0058138Y0005050D01*
X0068138Y0005050D02*
X0068138Y0010956D01*
X0078138Y0010956D02*
X0078138Y0005050D01*
X0088138Y0005050D02*
X0088138Y0010956D01*
X0098138Y0010956D02*
X0098138Y0005050D01*
X0108138Y0005050D02*
X0108138Y0010956D01*
X0118138Y0010956D02*
X0118138Y0005050D01*
X0128138Y0005050D02*
X0128138Y0010956D01*
X0138138Y0010956D02*
X0138138Y0005050D01*
X0148138Y0005050D02*
X0148138Y0010956D01*
X0158138Y0010956D02*
X0158138Y0005050D01*
X0168138Y0005050D02*
X0168138Y0010956D01*
X0178138Y0010956D02*
X0178138Y0005050D01*
X0188138Y0005050D02*
X0188138Y0010956D01*
X0198138Y0010956D02*
X0198138Y0005050D01*
X0208138Y0005050D02*
X0208138Y0010956D01*
X0218138Y0010956D02*
X0218138Y0005050D01*
X0218413Y0117255D02*
X0218413Y0123160D01*
X0208413Y0123160D02*
X0208413Y0117255D01*
X0198413Y0117255D02*
X0198413Y0123160D01*
X0188413Y0123160D02*
X0188413Y0117255D01*
X0178413Y0117255D02*
X0178413Y0123160D01*
X0168413Y0123160D02*
X0168413Y0117255D01*
X0158413Y0117255D02*
X0158413Y0123160D01*
X0148413Y0123160D02*
X0148413Y0117255D01*
X0138413Y0117255D02*
X0138413Y0123160D01*
X0128413Y0123160D02*
X0128413Y0117255D01*
X0118413Y0117255D02*
X0118413Y0123160D01*
X0108413Y0123160D02*
X0108413Y0117255D01*
X0098413Y0117255D02*
X0098413Y0123160D01*
X0088413Y0123160D02*
X0088413Y0117255D01*
X0078413Y0117255D02*
X0078413Y0123160D01*
X0068413Y0123160D02*
X0068413Y0117255D01*
X0058413Y0117255D02*
X0058413Y0123160D01*
X0048413Y0123160D02*
X0048413Y0117255D01*
X0038413Y0117255D02*
X0038413Y0123160D01*
X0028413Y0123160D02*
X0028413Y0117255D01*
X0018413Y0117255D02*
X0018413Y0123160D01*
D19*
X0211445Y0042247D03*
X0217350Y0042247D03*
X0217350Y0026105D03*
X0211445Y0026105D03*
D20*
X0137496Y0033231D03*
X0132771Y0033231D03*
X0128047Y0033231D03*
D21*
X0101303Y0029550D03*
X0091303Y0029550D03*
D22*
X0021535Y0030519D03*
X0015630Y0030519D03*
X0015630Y0038550D03*
X0021535Y0038550D03*
X0025913Y0091956D03*
X0031819Y0091956D03*
D23*
X0040082Y0038550D03*
X0040082Y0030519D03*
X0015582Y0023987D03*
D24*
X0014004Y0017845D03*
X0014004Y0109381D03*
X0220697Y0109381D03*
X0220697Y0017845D03*
D25*
X0216169Y0058278D03*
X0216169Y0068278D03*
X0216169Y0078278D03*
X0216169Y0088278D03*
X0216169Y0098278D03*
X0196484Y0098278D03*
X0196484Y0088278D03*
X0196484Y0078278D03*
X0196484Y0068278D03*
X0196484Y0058278D03*
D26*
X0207807Y0063369D03*
X0207870Y0073605D03*
X0208130Y0083251D03*
X0132771Y0028019D03*
X0079740Y0053231D03*
X0097303Y0065050D03*
X0105539Y0070011D03*
X0105539Y0058200D03*
X0034082Y0025176D03*
X0021082Y0023987D03*
X0030082Y0075050D03*
M02*
