G75*
%MOIN*%
%OFA0B0*%
%FSLAX25Y25*%
%IPPOS*%
%LPD*%
%AMOC8*
5,1,8,0,0,1.08239X$1,22.5*
%
%ADD10C,0.00000*%
%ADD11OC8,0.06300*%
%ADD12C,0.06000*%
%ADD13C,0.09449*%
%ADD14C,0.07087*%
%ADD15C,0.06791*%
%ADD16R,0.06791X0.06791*%
%ADD17C,0.03937*%
%ADD18C,0.01600*%
%ADD19C,0.02559*%
%ADD20C,0.01000*%
%ADD21C,0.02400*%
%ADD22R,0.02559X0.02559*%
%ADD23R,0.03600X0.03600*%
%ADD24R,0.03543X0.03543*%
%ADD25C,0.03600*%
D10*
X0193698Y0086610D02*
X0193698Y0204720D01*
X0193697Y0204720D02*
X0193694Y0205005D01*
X0193683Y0205291D01*
X0193666Y0205576D01*
X0193642Y0205860D01*
X0193611Y0206144D01*
X0193573Y0206427D01*
X0193528Y0206708D01*
X0193477Y0206989D01*
X0193419Y0207269D01*
X0193354Y0207547D01*
X0193282Y0207823D01*
X0193204Y0208097D01*
X0193119Y0208370D01*
X0193027Y0208640D01*
X0192929Y0208908D01*
X0192825Y0209174D01*
X0192714Y0209437D01*
X0192597Y0209697D01*
X0192474Y0209955D01*
X0192344Y0210209D01*
X0192208Y0210460D01*
X0192067Y0210708D01*
X0191919Y0210952D01*
X0191766Y0211193D01*
X0191606Y0211429D01*
X0191441Y0211662D01*
X0191271Y0211891D01*
X0191095Y0212116D01*
X0190913Y0212336D01*
X0190727Y0212552D01*
X0190535Y0212763D01*
X0190338Y0212970D01*
X0190136Y0213172D01*
X0189929Y0213369D01*
X0189718Y0213561D01*
X0189502Y0213747D01*
X0189282Y0213929D01*
X0189057Y0214105D01*
X0188828Y0214275D01*
X0188595Y0214440D01*
X0188359Y0214600D01*
X0188118Y0214753D01*
X0187874Y0214901D01*
X0187626Y0215042D01*
X0187375Y0215178D01*
X0187121Y0215308D01*
X0186863Y0215431D01*
X0186603Y0215548D01*
X0186340Y0215659D01*
X0186074Y0215763D01*
X0185806Y0215861D01*
X0185536Y0215953D01*
X0185263Y0216038D01*
X0184989Y0216116D01*
X0184713Y0216188D01*
X0184435Y0216253D01*
X0184155Y0216311D01*
X0183874Y0216362D01*
X0183593Y0216407D01*
X0183310Y0216445D01*
X0183026Y0216476D01*
X0182742Y0216500D01*
X0182457Y0216517D01*
X0182171Y0216528D01*
X0181886Y0216531D01*
X0059839Y0216531D01*
X0059839Y0216532D02*
X0059554Y0216535D01*
X0059268Y0216546D01*
X0058983Y0216563D01*
X0058699Y0216587D01*
X0058415Y0216618D01*
X0058132Y0216656D01*
X0057851Y0216701D01*
X0057570Y0216752D01*
X0057290Y0216810D01*
X0057012Y0216875D01*
X0056736Y0216947D01*
X0056462Y0217025D01*
X0056189Y0217110D01*
X0055919Y0217202D01*
X0055651Y0217300D01*
X0055385Y0217404D01*
X0055122Y0217515D01*
X0054862Y0217632D01*
X0054604Y0217755D01*
X0054350Y0217885D01*
X0054099Y0218021D01*
X0053851Y0218162D01*
X0053607Y0218310D01*
X0053366Y0218463D01*
X0053130Y0218623D01*
X0052897Y0218788D01*
X0052668Y0218958D01*
X0052443Y0219134D01*
X0052223Y0219316D01*
X0052007Y0219502D01*
X0051796Y0219694D01*
X0051589Y0219891D01*
X0051387Y0220093D01*
X0051190Y0220300D01*
X0050998Y0220511D01*
X0050812Y0220727D01*
X0050630Y0220947D01*
X0050454Y0221172D01*
X0050284Y0221401D01*
X0050119Y0221634D01*
X0049959Y0221870D01*
X0049806Y0222111D01*
X0049658Y0222355D01*
X0049517Y0222603D01*
X0049381Y0222854D01*
X0049251Y0223108D01*
X0049128Y0223366D01*
X0049011Y0223626D01*
X0048900Y0223889D01*
X0048796Y0224155D01*
X0048698Y0224423D01*
X0048606Y0224693D01*
X0048521Y0224966D01*
X0048443Y0225240D01*
X0048371Y0225516D01*
X0048306Y0225794D01*
X0048248Y0226074D01*
X0048197Y0226355D01*
X0048152Y0226636D01*
X0048114Y0226919D01*
X0048083Y0227203D01*
X0048059Y0227487D01*
X0048042Y0227772D01*
X0048031Y0228058D01*
X0048028Y0228343D01*
X0048028Y0328736D01*
X0048031Y0329021D01*
X0048042Y0329307D01*
X0048059Y0329592D01*
X0048083Y0329876D01*
X0048114Y0330160D01*
X0048152Y0330443D01*
X0048197Y0330724D01*
X0048248Y0331005D01*
X0048306Y0331285D01*
X0048371Y0331563D01*
X0048443Y0331839D01*
X0048521Y0332113D01*
X0048606Y0332386D01*
X0048698Y0332656D01*
X0048796Y0332924D01*
X0048900Y0333190D01*
X0049011Y0333453D01*
X0049128Y0333713D01*
X0049251Y0333971D01*
X0049381Y0334225D01*
X0049517Y0334476D01*
X0049658Y0334724D01*
X0049806Y0334968D01*
X0049959Y0335209D01*
X0050119Y0335445D01*
X0050284Y0335678D01*
X0050454Y0335907D01*
X0050630Y0336132D01*
X0050812Y0336352D01*
X0050998Y0336568D01*
X0051190Y0336779D01*
X0051387Y0336986D01*
X0051589Y0337188D01*
X0051796Y0337385D01*
X0052007Y0337577D01*
X0052223Y0337763D01*
X0052443Y0337945D01*
X0052668Y0338121D01*
X0052897Y0338291D01*
X0053130Y0338456D01*
X0053366Y0338616D01*
X0053607Y0338769D01*
X0053851Y0338917D01*
X0054099Y0339058D01*
X0054350Y0339194D01*
X0054604Y0339324D01*
X0054862Y0339447D01*
X0055122Y0339564D01*
X0055385Y0339675D01*
X0055651Y0339779D01*
X0055919Y0339877D01*
X0056189Y0339969D01*
X0056462Y0340054D01*
X0056736Y0340132D01*
X0057012Y0340204D01*
X0057290Y0340269D01*
X0057570Y0340327D01*
X0057851Y0340378D01*
X0058132Y0340423D01*
X0058415Y0340461D01*
X0058699Y0340492D01*
X0058983Y0340516D01*
X0059268Y0340533D01*
X0059554Y0340544D01*
X0059839Y0340547D01*
X0289199Y0340547D01*
X0297551Y0344007D02*
X0316222Y0362678D01*
X0324574Y0366138D02*
X0432900Y0366138D01*
X0441251Y0362678D02*
X0459923Y0344007D01*
X0468275Y0340547D02*
X0685823Y0340547D01*
X0686108Y0340544D01*
X0686394Y0340533D01*
X0686679Y0340516D01*
X0686963Y0340492D01*
X0687247Y0340461D01*
X0687530Y0340423D01*
X0687811Y0340378D01*
X0688092Y0340327D01*
X0688372Y0340269D01*
X0688650Y0340204D01*
X0688926Y0340132D01*
X0689200Y0340054D01*
X0689473Y0339969D01*
X0689743Y0339877D01*
X0690011Y0339779D01*
X0690277Y0339675D01*
X0690540Y0339564D01*
X0690800Y0339447D01*
X0691058Y0339324D01*
X0691312Y0339194D01*
X0691563Y0339058D01*
X0691811Y0338917D01*
X0692055Y0338769D01*
X0692296Y0338616D01*
X0692532Y0338456D01*
X0692765Y0338291D01*
X0692994Y0338121D01*
X0693219Y0337945D01*
X0693439Y0337763D01*
X0693655Y0337577D01*
X0693866Y0337385D01*
X0694073Y0337188D01*
X0694275Y0336986D01*
X0694472Y0336779D01*
X0694664Y0336568D01*
X0694850Y0336352D01*
X0695032Y0336132D01*
X0695208Y0335907D01*
X0695378Y0335678D01*
X0695543Y0335445D01*
X0695703Y0335209D01*
X0695856Y0334968D01*
X0696004Y0334724D01*
X0696145Y0334476D01*
X0696281Y0334225D01*
X0696411Y0333971D01*
X0696534Y0333713D01*
X0696651Y0333453D01*
X0696762Y0333190D01*
X0696866Y0332924D01*
X0696964Y0332656D01*
X0697056Y0332386D01*
X0697141Y0332113D01*
X0697219Y0331839D01*
X0697291Y0331563D01*
X0697356Y0331285D01*
X0697414Y0331005D01*
X0697465Y0330724D01*
X0697510Y0330443D01*
X0697548Y0330160D01*
X0697579Y0329876D01*
X0697603Y0329592D01*
X0697620Y0329307D01*
X0697631Y0329021D01*
X0697634Y0328736D01*
X0697635Y0328736D02*
X0697635Y0228343D01*
X0697634Y0228343D02*
X0697631Y0228058D01*
X0697620Y0227772D01*
X0697603Y0227487D01*
X0697579Y0227203D01*
X0697548Y0226919D01*
X0697510Y0226636D01*
X0697465Y0226355D01*
X0697414Y0226074D01*
X0697356Y0225794D01*
X0697291Y0225516D01*
X0697219Y0225240D01*
X0697141Y0224966D01*
X0697056Y0224693D01*
X0696964Y0224423D01*
X0696866Y0224155D01*
X0696762Y0223889D01*
X0696651Y0223626D01*
X0696534Y0223366D01*
X0696411Y0223108D01*
X0696281Y0222854D01*
X0696145Y0222603D01*
X0696004Y0222355D01*
X0695856Y0222111D01*
X0695703Y0221870D01*
X0695543Y0221634D01*
X0695378Y0221401D01*
X0695208Y0221172D01*
X0695032Y0220947D01*
X0694850Y0220727D01*
X0694664Y0220511D01*
X0694472Y0220300D01*
X0694275Y0220093D01*
X0694073Y0219891D01*
X0693866Y0219694D01*
X0693655Y0219502D01*
X0693439Y0219316D01*
X0693219Y0219134D01*
X0692994Y0218958D01*
X0692765Y0218788D01*
X0692532Y0218623D01*
X0692296Y0218463D01*
X0692055Y0218310D01*
X0691811Y0218162D01*
X0691563Y0218021D01*
X0691312Y0217885D01*
X0691058Y0217755D01*
X0690800Y0217632D01*
X0690540Y0217515D01*
X0690277Y0217404D01*
X0690011Y0217300D01*
X0689743Y0217202D01*
X0689473Y0217110D01*
X0689200Y0217025D01*
X0688926Y0216947D01*
X0688650Y0216875D01*
X0688372Y0216810D01*
X0688092Y0216752D01*
X0687811Y0216701D01*
X0687530Y0216656D01*
X0687247Y0216618D01*
X0686963Y0216587D01*
X0686679Y0216563D01*
X0686394Y0216546D01*
X0686108Y0216535D01*
X0685823Y0216532D01*
X0685823Y0216531D02*
X0441729Y0216531D01*
X0441444Y0216528D01*
X0441158Y0216517D01*
X0440873Y0216500D01*
X0440589Y0216476D01*
X0440305Y0216445D01*
X0440022Y0216407D01*
X0439741Y0216362D01*
X0439460Y0216311D01*
X0439180Y0216253D01*
X0438902Y0216188D01*
X0438626Y0216116D01*
X0438352Y0216038D01*
X0438079Y0215953D01*
X0437809Y0215861D01*
X0437541Y0215763D01*
X0437275Y0215659D01*
X0437012Y0215548D01*
X0436752Y0215431D01*
X0436494Y0215308D01*
X0436240Y0215178D01*
X0435989Y0215042D01*
X0435741Y0214901D01*
X0435497Y0214753D01*
X0435256Y0214600D01*
X0435020Y0214440D01*
X0434787Y0214275D01*
X0434558Y0214105D01*
X0434333Y0213929D01*
X0434113Y0213747D01*
X0433897Y0213561D01*
X0433686Y0213369D01*
X0433479Y0213172D01*
X0433277Y0212970D01*
X0433080Y0212763D01*
X0432888Y0212552D01*
X0432702Y0212336D01*
X0432520Y0212116D01*
X0432344Y0211891D01*
X0432174Y0211662D01*
X0432009Y0211429D01*
X0431849Y0211193D01*
X0431696Y0210952D01*
X0431548Y0210708D01*
X0431407Y0210460D01*
X0431271Y0210209D01*
X0431141Y0209955D01*
X0431018Y0209697D01*
X0430901Y0209437D01*
X0430790Y0209174D01*
X0430686Y0208908D01*
X0430588Y0208640D01*
X0430496Y0208370D01*
X0430411Y0208097D01*
X0430333Y0207823D01*
X0430261Y0207547D01*
X0430196Y0207269D01*
X0430138Y0206989D01*
X0430087Y0206708D01*
X0430042Y0206427D01*
X0430004Y0206144D01*
X0429973Y0205860D01*
X0429949Y0205576D01*
X0429932Y0205291D01*
X0429921Y0205005D01*
X0429918Y0204720D01*
X0429918Y0086610D01*
X0429915Y0086325D01*
X0429904Y0086039D01*
X0429887Y0085754D01*
X0429863Y0085470D01*
X0429832Y0085186D01*
X0429794Y0084903D01*
X0429749Y0084622D01*
X0429698Y0084341D01*
X0429640Y0084061D01*
X0429575Y0083783D01*
X0429503Y0083507D01*
X0429425Y0083233D01*
X0429340Y0082960D01*
X0429248Y0082690D01*
X0429150Y0082422D01*
X0429046Y0082156D01*
X0428935Y0081893D01*
X0428818Y0081633D01*
X0428695Y0081375D01*
X0428565Y0081121D01*
X0428429Y0080870D01*
X0428288Y0080622D01*
X0428140Y0080378D01*
X0427987Y0080137D01*
X0427827Y0079901D01*
X0427662Y0079668D01*
X0427492Y0079439D01*
X0427316Y0079214D01*
X0427134Y0078994D01*
X0426948Y0078778D01*
X0426756Y0078567D01*
X0426559Y0078360D01*
X0426357Y0078158D01*
X0426150Y0077961D01*
X0425939Y0077769D01*
X0425723Y0077583D01*
X0425503Y0077401D01*
X0425278Y0077225D01*
X0425049Y0077055D01*
X0424816Y0076890D01*
X0424580Y0076730D01*
X0424339Y0076577D01*
X0424095Y0076429D01*
X0423847Y0076288D01*
X0423596Y0076152D01*
X0423342Y0076022D01*
X0423084Y0075899D01*
X0422824Y0075782D01*
X0422561Y0075671D01*
X0422295Y0075567D01*
X0422027Y0075469D01*
X0421757Y0075377D01*
X0421484Y0075292D01*
X0421210Y0075214D01*
X0420934Y0075142D01*
X0420656Y0075077D01*
X0420376Y0075019D01*
X0420095Y0074968D01*
X0419814Y0074923D01*
X0419531Y0074885D01*
X0419247Y0074854D01*
X0418963Y0074830D01*
X0418678Y0074813D01*
X0418392Y0074802D01*
X0418107Y0074799D01*
X0205509Y0074799D01*
X0205224Y0074802D01*
X0204938Y0074813D01*
X0204653Y0074830D01*
X0204369Y0074854D01*
X0204085Y0074885D01*
X0203802Y0074923D01*
X0203521Y0074968D01*
X0203240Y0075019D01*
X0202960Y0075077D01*
X0202682Y0075142D01*
X0202406Y0075214D01*
X0202132Y0075292D01*
X0201859Y0075377D01*
X0201589Y0075469D01*
X0201321Y0075567D01*
X0201055Y0075671D01*
X0200792Y0075782D01*
X0200532Y0075899D01*
X0200274Y0076022D01*
X0200020Y0076152D01*
X0199769Y0076288D01*
X0199521Y0076429D01*
X0199277Y0076577D01*
X0199036Y0076730D01*
X0198800Y0076890D01*
X0198567Y0077055D01*
X0198338Y0077225D01*
X0198113Y0077401D01*
X0197893Y0077583D01*
X0197677Y0077769D01*
X0197466Y0077961D01*
X0197259Y0078158D01*
X0197057Y0078360D01*
X0196860Y0078567D01*
X0196668Y0078778D01*
X0196482Y0078994D01*
X0196300Y0079214D01*
X0196124Y0079439D01*
X0195954Y0079668D01*
X0195789Y0079901D01*
X0195629Y0080137D01*
X0195476Y0080378D01*
X0195328Y0080622D01*
X0195187Y0080870D01*
X0195051Y0081121D01*
X0194921Y0081375D01*
X0194798Y0081633D01*
X0194681Y0081893D01*
X0194570Y0082156D01*
X0194466Y0082422D01*
X0194368Y0082690D01*
X0194276Y0082960D01*
X0194191Y0083233D01*
X0194113Y0083507D01*
X0194041Y0083783D01*
X0193976Y0084061D01*
X0193918Y0084341D01*
X0193867Y0084622D01*
X0193822Y0084903D01*
X0193784Y0085186D01*
X0193753Y0085470D01*
X0193729Y0085754D01*
X0193712Y0086039D01*
X0193701Y0086325D01*
X0193698Y0086610D01*
X0212314Y0229412D02*
X0212316Y0229549D01*
X0212322Y0229687D01*
X0212332Y0229824D01*
X0212346Y0229960D01*
X0212364Y0230097D01*
X0212386Y0230232D01*
X0212412Y0230367D01*
X0212441Y0230501D01*
X0212475Y0230635D01*
X0212512Y0230767D01*
X0212554Y0230898D01*
X0212599Y0231028D01*
X0212648Y0231156D01*
X0212700Y0231283D01*
X0212757Y0231408D01*
X0212816Y0231532D01*
X0212880Y0231654D01*
X0212947Y0231774D01*
X0213017Y0231892D01*
X0213091Y0232008D01*
X0213168Y0232122D01*
X0213249Y0232233D01*
X0213332Y0232342D01*
X0213419Y0232449D01*
X0213509Y0232552D01*
X0213602Y0232654D01*
X0213698Y0232752D01*
X0213796Y0232848D01*
X0213898Y0232941D01*
X0214001Y0233031D01*
X0214108Y0233118D01*
X0214217Y0233201D01*
X0214328Y0233282D01*
X0214442Y0233359D01*
X0214558Y0233433D01*
X0214676Y0233503D01*
X0214796Y0233570D01*
X0214918Y0233634D01*
X0215042Y0233693D01*
X0215167Y0233750D01*
X0215294Y0233802D01*
X0215422Y0233851D01*
X0215552Y0233896D01*
X0215683Y0233938D01*
X0215815Y0233975D01*
X0215949Y0234009D01*
X0216083Y0234038D01*
X0216218Y0234064D01*
X0216353Y0234086D01*
X0216490Y0234104D01*
X0216626Y0234118D01*
X0216763Y0234128D01*
X0216901Y0234134D01*
X0217038Y0234136D01*
X0217175Y0234134D01*
X0217313Y0234128D01*
X0217450Y0234118D01*
X0217586Y0234104D01*
X0217723Y0234086D01*
X0217858Y0234064D01*
X0217993Y0234038D01*
X0218127Y0234009D01*
X0218261Y0233975D01*
X0218393Y0233938D01*
X0218524Y0233896D01*
X0218654Y0233851D01*
X0218782Y0233802D01*
X0218909Y0233750D01*
X0219034Y0233693D01*
X0219158Y0233634D01*
X0219280Y0233570D01*
X0219400Y0233503D01*
X0219518Y0233433D01*
X0219634Y0233359D01*
X0219748Y0233282D01*
X0219859Y0233201D01*
X0219968Y0233118D01*
X0220075Y0233031D01*
X0220178Y0232941D01*
X0220280Y0232848D01*
X0220378Y0232752D01*
X0220474Y0232654D01*
X0220567Y0232552D01*
X0220657Y0232449D01*
X0220744Y0232342D01*
X0220827Y0232233D01*
X0220908Y0232122D01*
X0220985Y0232008D01*
X0221059Y0231892D01*
X0221129Y0231774D01*
X0221196Y0231654D01*
X0221260Y0231532D01*
X0221319Y0231408D01*
X0221376Y0231283D01*
X0221428Y0231156D01*
X0221477Y0231028D01*
X0221522Y0230898D01*
X0221564Y0230767D01*
X0221601Y0230635D01*
X0221635Y0230501D01*
X0221664Y0230367D01*
X0221690Y0230232D01*
X0221712Y0230097D01*
X0221730Y0229960D01*
X0221744Y0229824D01*
X0221754Y0229687D01*
X0221760Y0229549D01*
X0221762Y0229412D01*
X0221760Y0229275D01*
X0221754Y0229137D01*
X0221744Y0229000D01*
X0221730Y0228864D01*
X0221712Y0228727D01*
X0221690Y0228592D01*
X0221664Y0228457D01*
X0221635Y0228323D01*
X0221601Y0228189D01*
X0221564Y0228057D01*
X0221522Y0227926D01*
X0221477Y0227796D01*
X0221428Y0227668D01*
X0221376Y0227541D01*
X0221319Y0227416D01*
X0221260Y0227292D01*
X0221196Y0227170D01*
X0221129Y0227050D01*
X0221059Y0226932D01*
X0220985Y0226816D01*
X0220908Y0226702D01*
X0220827Y0226591D01*
X0220744Y0226482D01*
X0220657Y0226375D01*
X0220567Y0226272D01*
X0220474Y0226170D01*
X0220378Y0226072D01*
X0220280Y0225976D01*
X0220178Y0225883D01*
X0220075Y0225793D01*
X0219968Y0225706D01*
X0219859Y0225623D01*
X0219748Y0225542D01*
X0219634Y0225465D01*
X0219518Y0225391D01*
X0219400Y0225321D01*
X0219280Y0225254D01*
X0219158Y0225190D01*
X0219034Y0225131D01*
X0218909Y0225074D01*
X0218782Y0225022D01*
X0218654Y0224973D01*
X0218524Y0224928D01*
X0218393Y0224886D01*
X0218261Y0224849D01*
X0218127Y0224815D01*
X0217993Y0224786D01*
X0217858Y0224760D01*
X0217723Y0224738D01*
X0217586Y0224720D01*
X0217450Y0224706D01*
X0217313Y0224696D01*
X0217175Y0224690D01*
X0217038Y0224688D01*
X0216901Y0224690D01*
X0216763Y0224696D01*
X0216626Y0224706D01*
X0216490Y0224720D01*
X0216353Y0224738D01*
X0216218Y0224760D01*
X0216083Y0224786D01*
X0215949Y0224815D01*
X0215815Y0224849D01*
X0215683Y0224886D01*
X0215552Y0224928D01*
X0215422Y0224973D01*
X0215294Y0225022D01*
X0215167Y0225074D01*
X0215042Y0225131D01*
X0214918Y0225190D01*
X0214796Y0225254D01*
X0214676Y0225321D01*
X0214558Y0225391D01*
X0214442Y0225465D01*
X0214328Y0225542D01*
X0214217Y0225623D01*
X0214108Y0225706D01*
X0214001Y0225793D01*
X0213898Y0225883D01*
X0213796Y0225976D01*
X0213698Y0226072D01*
X0213602Y0226170D01*
X0213509Y0226272D01*
X0213419Y0226375D01*
X0213332Y0226482D01*
X0213249Y0226591D01*
X0213168Y0226702D01*
X0213091Y0226816D01*
X0213017Y0226932D01*
X0212947Y0227050D01*
X0212880Y0227170D01*
X0212816Y0227292D01*
X0212757Y0227416D01*
X0212700Y0227541D01*
X0212648Y0227668D01*
X0212599Y0227796D01*
X0212554Y0227926D01*
X0212512Y0228057D01*
X0212475Y0228189D01*
X0212441Y0228323D01*
X0212412Y0228457D01*
X0212386Y0228592D01*
X0212364Y0228727D01*
X0212346Y0228864D01*
X0212332Y0229000D01*
X0212322Y0229137D01*
X0212316Y0229275D01*
X0212314Y0229412D01*
X0190043Y0251683D02*
X0190045Y0251820D01*
X0190051Y0251958D01*
X0190061Y0252095D01*
X0190075Y0252231D01*
X0190093Y0252368D01*
X0190115Y0252503D01*
X0190141Y0252638D01*
X0190170Y0252772D01*
X0190204Y0252906D01*
X0190241Y0253038D01*
X0190283Y0253169D01*
X0190328Y0253299D01*
X0190377Y0253427D01*
X0190429Y0253554D01*
X0190486Y0253679D01*
X0190545Y0253803D01*
X0190609Y0253925D01*
X0190676Y0254045D01*
X0190746Y0254163D01*
X0190820Y0254279D01*
X0190897Y0254393D01*
X0190978Y0254504D01*
X0191061Y0254613D01*
X0191148Y0254720D01*
X0191238Y0254823D01*
X0191331Y0254925D01*
X0191427Y0255023D01*
X0191525Y0255119D01*
X0191627Y0255212D01*
X0191730Y0255302D01*
X0191837Y0255389D01*
X0191946Y0255472D01*
X0192057Y0255553D01*
X0192171Y0255630D01*
X0192287Y0255704D01*
X0192405Y0255774D01*
X0192525Y0255841D01*
X0192647Y0255905D01*
X0192771Y0255964D01*
X0192896Y0256021D01*
X0193023Y0256073D01*
X0193151Y0256122D01*
X0193281Y0256167D01*
X0193412Y0256209D01*
X0193544Y0256246D01*
X0193678Y0256280D01*
X0193812Y0256309D01*
X0193947Y0256335D01*
X0194082Y0256357D01*
X0194219Y0256375D01*
X0194355Y0256389D01*
X0194492Y0256399D01*
X0194630Y0256405D01*
X0194767Y0256407D01*
X0194904Y0256405D01*
X0195042Y0256399D01*
X0195179Y0256389D01*
X0195315Y0256375D01*
X0195452Y0256357D01*
X0195587Y0256335D01*
X0195722Y0256309D01*
X0195856Y0256280D01*
X0195990Y0256246D01*
X0196122Y0256209D01*
X0196253Y0256167D01*
X0196383Y0256122D01*
X0196511Y0256073D01*
X0196638Y0256021D01*
X0196763Y0255964D01*
X0196887Y0255905D01*
X0197009Y0255841D01*
X0197129Y0255774D01*
X0197247Y0255704D01*
X0197363Y0255630D01*
X0197477Y0255553D01*
X0197588Y0255472D01*
X0197697Y0255389D01*
X0197804Y0255302D01*
X0197907Y0255212D01*
X0198009Y0255119D01*
X0198107Y0255023D01*
X0198203Y0254925D01*
X0198296Y0254823D01*
X0198386Y0254720D01*
X0198473Y0254613D01*
X0198556Y0254504D01*
X0198637Y0254393D01*
X0198714Y0254279D01*
X0198788Y0254163D01*
X0198858Y0254045D01*
X0198925Y0253925D01*
X0198989Y0253803D01*
X0199048Y0253679D01*
X0199105Y0253554D01*
X0199157Y0253427D01*
X0199206Y0253299D01*
X0199251Y0253169D01*
X0199293Y0253038D01*
X0199330Y0252906D01*
X0199364Y0252772D01*
X0199393Y0252638D01*
X0199419Y0252503D01*
X0199441Y0252368D01*
X0199459Y0252231D01*
X0199473Y0252095D01*
X0199483Y0251958D01*
X0199489Y0251820D01*
X0199491Y0251683D01*
X0199489Y0251546D01*
X0199483Y0251408D01*
X0199473Y0251271D01*
X0199459Y0251135D01*
X0199441Y0250998D01*
X0199419Y0250863D01*
X0199393Y0250728D01*
X0199364Y0250594D01*
X0199330Y0250460D01*
X0199293Y0250328D01*
X0199251Y0250197D01*
X0199206Y0250067D01*
X0199157Y0249939D01*
X0199105Y0249812D01*
X0199048Y0249687D01*
X0198989Y0249563D01*
X0198925Y0249441D01*
X0198858Y0249321D01*
X0198788Y0249203D01*
X0198714Y0249087D01*
X0198637Y0248973D01*
X0198556Y0248862D01*
X0198473Y0248753D01*
X0198386Y0248646D01*
X0198296Y0248543D01*
X0198203Y0248441D01*
X0198107Y0248343D01*
X0198009Y0248247D01*
X0197907Y0248154D01*
X0197804Y0248064D01*
X0197697Y0247977D01*
X0197588Y0247894D01*
X0197477Y0247813D01*
X0197363Y0247736D01*
X0197247Y0247662D01*
X0197129Y0247592D01*
X0197009Y0247525D01*
X0196887Y0247461D01*
X0196763Y0247402D01*
X0196638Y0247345D01*
X0196511Y0247293D01*
X0196383Y0247244D01*
X0196253Y0247199D01*
X0196122Y0247157D01*
X0195990Y0247120D01*
X0195856Y0247086D01*
X0195722Y0247057D01*
X0195587Y0247031D01*
X0195452Y0247009D01*
X0195315Y0246991D01*
X0195179Y0246977D01*
X0195042Y0246967D01*
X0194904Y0246961D01*
X0194767Y0246959D01*
X0194630Y0246961D01*
X0194492Y0246967D01*
X0194355Y0246977D01*
X0194219Y0246991D01*
X0194082Y0247009D01*
X0193947Y0247031D01*
X0193812Y0247057D01*
X0193678Y0247086D01*
X0193544Y0247120D01*
X0193412Y0247157D01*
X0193281Y0247199D01*
X0193151Y0247244D01*
X0193023Y0247293D01*
X0192896Y0247345D01*
X0192771Y0247402D01*
X0192647Y0247461D01*
X0192525Y0247525D01*
X0192405Y0247592D01*
X0192287Y0247662D01*
X0192171Y0247736D01*
X0192057Y0247813D01*
X0191946Y0247894D01*
X0191837Y0247977D01*
X0191730Y0248064D01*
X0191627Y0248154D01*
X0191525Y0248247D01*
X0191427Y0248343D01*
X0191331Y0248441D01*
X0191238Y0248543D01*
X0191148Y0248646D01*
X0191061Y0248753D01*
X0190978Y0248862D01*
X0190897Y0248973D01*
X0190820Y0249087D01*
X0190746Y0249203D01*
X0190676Y0249321D01*
X0190609Y0249441D01*
X0190545Y0249563D01*
X0190486Y0249687D01*
X0190429Y0249812D01*
X0190377Y0249939D01*
X0190328Y0250067D01*
X0190283Y0250197D01*
X0190241Y0250328D01*
X0190204Y0250460D01*
X0190170Y0250594D01*
X0190141Y0250728D01*
X0190115Y0250863D01*
X0190093Y0250998D01*
X0190075Y0251135D01*
X0190061Y0251271D01*
X0190051Y0251408D01*
X0190045Y0251546D01*
X0190043Y0251683D01*
X0078455Y0229412D02*
X0078457Y0229549D01*
X0078463Y0229687D01*
X0078473Y0229824D01*
X0078487Y0229960D01*
X0078505Y0230097D01*
X0078527Y0230232D01*
X0078553Y0230367D01*
X0078582Y0230501D01*
X0078616Y0230635D01*
X0078653Y0230767D01*
X0078695Y0230898D01*
X0078740Y0231028D01*
X0078789Y0231156D01*
X0078841Y0231283D01*
X0078898Y0231408D01*
X0078957Y0231532D01*
X0079021Y0231654D01*
X0079088Y0231774D01*
X0079158Y0231892D01*
X0079232Y0232008D01*
X0079309Y0232122D01*
X0079390Y0232233D01*
X0079473Y0232342D01*
X0079560Y0232449D01*
X0079650Y0232552D01*
X0079743Y0232654D01*
X0079839Y0232752D01*
X0079937Y0232848D01*
X0080039Y0232941D01*
X0080142Y0233031D01*
X0080249Y0233118D01*
X0080358Y0233201D01*
X0080469Y0233282D01*
X0080583Y0233359D01*
X0080699Y0233433D01*
X0080817Y0233503D01*
X0080937Y0233570D01*
X0081059Y0233634D01*
X0081183Y0233693D01*
X0081308Y0233750D01*
X0081435Y0233802D01*
X0081563Y0233851D01*
X0081693Y0233896D01*
X0081824Y0233938D01*
X0081956Y0233975D01*
X0082090Y0234009D01*
X0082224Y0234038D01*
X0082359Y0234064D01*
X0082494Y0234086D01*
X0082631Y0234104D01*
X0082767Y0234118D01*
X0082904Y0234128D01*
X0083042Y0234134D01*
X0083179Y0234136D01*
X0083316Y0234134D01*
X0083454Y0234128D01*
X0083591Y0234118D01*
X0083727Y0234104D01*
X0083864Y0234086D01*
X0083999Y0234064D01*
X0084134Y0234038D01*
X0084268Y0234009D01*
X0084402Y0233975D01*
X0084534Y0233938D01*
X0084665Y0233896D01*
X0084795Y0233851D01*
X0084923Y0233802D01*
X0085050Y0233750D01*
X0085175Y0233693D01*
X0085299Y0233634D01*
X0085421Y0233570D01*
X0085541Y0233503D01*
X0085659Y0233433D01*
X0085775Y0233359D01*
X0085889Y0233282D01*
X0086000Y0233201D01*
X0086109Y0233118D01*
X0086216Y0233031D01*
X0086319Y0232941D01*
X0086421Y0232848D01*
X0086519Y0232752D01*
X0086615Y0232654D01*
X0086708Y0232552D01*
X0086798Y0232449D01*
X0086885Y0232342D01*
X0086968Y0232233D01*
X0087049Y0232122D01*
X0087126Y0232008D01*
X0087200Y0231892D01*
X0087270Y0231774D01*
X0087337Y0231654D01*
X0087401Y0231532D01*
X0087460Y0231408D01*
X0087517Y0231283D01*
X0087569Y0231156D01*
X0087618Y0231028D01*
X0087663Y0230898D01*
X0087705Y0230767D01*
X0087742Y0230635D01*
X0087776Y0230501D01*
X0087805Y0230367D01*
X0087831Y0230232D01*
X0087853Y0230097D01*
X0087871Y0229960D01*
X0087885Y0229824D01*
X0087895Y0229687D01*
X0087901Y0229549D01*
X0087903Y0229412D01*
X0087901Y0229275D01*
X0087895Y0229137D01*
X0087885Y0229000D01*
X0087871Y0228864D01*
X0087853Y0228727D01*
X0087831Y0228592D01*
X0087805Y0228457D01*
X0087776Y0228323D01*
X0087742Y0228189D01*
X0087705Y0228057D01*
X0087663Y0227926D01*
X0087618Y0227796D01*
X0087569Y0227668D01*
X0087517Y0227541D01*
X0087460Y0227416D01*
X0087401Y0227292D01*
X0087337Y0227170D01*
X0087270Y0227050D01*
X0087200Y0226932D01*
X0087126Y0226816D01*
X0087049Y0226702D01*
X0086968Y0226591D01*
X0086885Y0226482D01*
X0086798Y0226375D01*
X0086708Y0226272D01*
X0086615Y0226170D01*
X0086519Y0226072D01*
X0086421Y0225976D01*
X0086319Y0225883D01*
X0086216Y0225793D01*
X0086109Y0225706D01*
X0086000Y0225623D01*
X0085889Y0225542D01*
X0085775Y0225465D01*
X0085659Y0225391D01*
X0085541Y0225321D01*
X0085421Y0225254D01*
X0085299Y0225190D01*
X0085175Y0225131D01*
X0085050Y0225074D01*
X0084923Y0225022D01*
X0084795Y0224973D01*
X0084665Y0224928D01*
X0084534Y0224886D01*
X0084402Y0224849D01*
X0084268Y0224815D01*
X0084134Y0224786D01*
X0083999Y0224760D01*
X0083864Y0224738D01*
X0083727Y0224720D01*
X0083591Y0224706D01*
X0083454Y0224696D01*
X0083316Y0224690D01*
X0083179Y0224688D01*
X0083042Y0224690D01*
X0082904Y0224696D01*
X0082767Y0224706D01*
X0082631Y0224720D01*
X0082494Y0224738D01*
X0082359Y0224760D01*
X0082224Y0224786D01*
X0082090Y0224815D01*
X0081956Y0224849D01*
X0081824Y0224886D01*
X0081693Y0224928D01*
X0081563Y0224973D01*
X0081435Y0225022D01*
X0081308Y0225074D01*
X0081183Y0225131D01*
X0081059Y0225190D01*
X0080937Y0225254D01*
X0080817Y0225321D01*
X0080699Y0225391D01*
X0080583Y0225465D01*
X0080469Y0225542D01*
X0080358Y0225623D01*
X0080249Y0225706D01*
X0080142Y0225793D01*
X0080039Y0225883D01*
X0079937Y0225976D01*
X0079839Y0226072D01*
X0079743Y0226170D01*
X0079650Y0226272D01*
X0079560Y0226375D01*
X0079473Y0226482D01*
X0079390Y0226591D01*
X0079309Y0226702D01*
X0079232Y0226816D01*
X0079158Y0226932D01*
X0079088Y0227050D01*
X0079021Y0227170D01*
X0078957Y0227292D01*
X0078898Y0227416D01*
X0078841Y0227541D01*
X0078789Y0227668D01*
X0078740Y0227796D01*
X0078695Y0227926D01*
X0078653Y0228057D01*
X0078616Y0228189D01*
X0078582Y0228323D01*
X0078553Y0228457D01*
X0078527Y0228592D01*
X0078505Y0228727D01*
X0078487Y0228864D01*
X0078473Y0229000D01*
X0078463Y0229137D01*
X0078457Y0229275D01*
X0078455Y0229412D01*
X0056184Y0251683D02*
X0056186Y0251820D01*
X0056192Y0251958D01*
X0056202Y0252095D01*
X0056216Y0252231D01*
X0056234Y0252368D01*
X0056256Y0252503D01*
X0056282Y0252638D01*
X0056311Y0252772D01*
X0056345Y0252906D01*
X0056382Y0253038D01*
X0056424Y0253169D01*
X0056469Y0253299D01*
X0056518Y0253427D01*
X0056570Y0253554D01*
X0056627Y0253679D01*
X0056686Y0253803D01*
X0056750Y0253925D01*
X0056817Y0254045D01*
X0056887Y0254163D01*
X0056961Y0254279D01*
X0057038Y0254393D01*
X0057119Y0254504D01*
X0057202Y0254613D01*
X0057289Y0254720D01*
X0057379Y0254823D01*
X0057472Y0254925D01*
X0057568Y0255023D01*
X0057666Y0255119D01*
X0057768Y0255212D01*
X0057871Y0255302D01*
X0057978Y0255389D01*
X0058087Y0255472D01*
X0058198Y0255553D01*
X0058312Y0255630D01*
X0058428Y0255704D01*
X0058546Y0255774D01*
X0058666Y0255841D01*
X0058788Y0255905D01*
X0058912Y0255964D01*
X0059037Y0256021D01*
X0059164Y0256073D01*
X0059292Y0256122D01*
X0059422Y0256167D01*
X0059553Y0256209D01*
X0059685Y0256246D01*
X0059819Y0256280D01*
X0059953Y0256309D01*
X0060088Y0256335D01*
X0060223Y0256357D01*
X0060360Y0256375D01*
X0060496Y0256389D01*
X0060633Y0256399D01*
X0060771Y0256405D01*
X0060908Y0256407D01*
X0061045Y0256405D01*
X0061183Y0256399D01*
X0061320Y0256389D01*
X0061456Y0256375D01*
X0061593Y0256357D01*
X0061728Y0256335D01*
X0061863Y0256309D01*
X0061997Y0256280D01*
X0062131Y0256246D01*
X0062263Y0256209D01*
X0062394Y0256167D01*
X0062524Y0256122D01*
X0062652Y0256073D01*
X0062779Y0256021D01*
X0062904Y0255964D01*
X0063028Y0255905D01*
X0063150Y0255841D01*
X0063270Y0255774D01*
X0063388Y0255704D01*
X0063504Y0255630D01*
X0063618Y0255553D01*
X0063729Y0255472D01*
X0063838Y0255389D01*
X0063945Y0255302D01*
X0064048Y0255212D01*
X0064150Y0255119D01*
X0064248Y0255023D01*
X0064344Y0254925D01*
X0064437Y0254823D01*
X0064527Y0254720D01*
X0064614Y0254613D01*
X0064697Y0254504D01*
X0064778Y0254393D01*
X0064855Y0254279D01*
X0064929Y0254163D01*
X0064999Y0254045D01*
X0065066Y0253925D01*
X0065130Y0253803D01*
X0065189Y0253679D01*
X0065246Y0253554D01*
X0065298Y0253427D01*
X0065347Y0253299D01*
X0065392Y0253169D01*
X0065434Y0253038D01*
X0065471Y0252906D01*
X0065505Y0252772D01*
X0065534Y0252638D01*
X0065560Y0252503D01*
X0065582Y0252368D01*
X0065600Y0252231D01*
X0065614Y0252095D01*
X0065624Y0251958D01*
X0065630Y0251820D01*
X0065632Y0251683D01*
X0065630Y0251546D01*
X0065624Y0251408D01*
X0065614Y0251271D01*
X0065600Y0251135D01*
X0065582Y0250998D01*
X0065560Y0250863D01*
X0065534Y0250728D01*
X0065505Y0250594D01*
X0065471Y0250460D01*
X0065434Y0250328D01*
X0065392Y0250197D01*
X0065347Y0250067D01*
X0065298Y0249939D01*
X0065246Y0249812D01*
X0065189Y0249687D01*
X0065130Y0249563D01*
X0065066Y0249441D01*
X0064999Y0249321D01*
X0064929Y0249203D01*
X0064855Y0249087D01*
X0064778Y0248973D01*
X0064697Y0248862D01*
X0064614Y0248753D01*
X0064527Y0248646D01*
X0064437Y0248543D01*
X0064344Y0248441D01*
X0064248Y0248343D01*
X0064150Y0248247D01*
X0064048Y0248154D01*
X0063945Y0248064D01*
X0063838Y0247977D01*
X0063729Y0247894D01*
X0063618Y0247813D01*
X0063504Y0247736D01*
X0063388Y0247662D01*
X0063270Y0247592D01*
X0063150Y0247525D01*
X0063028Y0247461D01*
X0062904Y0247402D01*
X0062779Y0247345D01*
X0062652Y0247293D01*
X0062524Y0247244D01*
X0062394Y0247199D01*
X0062263Y0247157D01*
X0062131Y0247120D01*
X0061997Y0247086D01*
X0061863Y0247057D01*
X0061728Y0247031D01*
X0061593Y0247009D01*
X0061456Y0246991D01*
X0061320Y0246977D01*
X0061183Y0246967D01*
X0061045Y0246961D01*
X0060908Y0246959D01*
X0060771Y0246961D01*
X0060633Y0246967D01*
X0060496Y0246977D01*
X0060360Y0246991D01*
X0060223Y0247009D01*
X0060088Y0247031D01*
X0059953Y0247057D01*
X0059819Y0247086D01*
X0059685Y0247120D01*
X0059553Y0247157D01*
X0059422Y0247199D01*
X0059292Y0247244D01*
X0059164Y0247293D01*
X0059037Y0247345D01*
X0058912Y0247402D01*
X0058788Y0247461D01*
X0058666Y0247525D01*
X0058546Y0247592D01*
X0058428Y0247662D01*
X0058312Y0247736D01*
X0058198Y0247813D01*
X0058087Y0247894D01*
X0057978Y0247977D01*
X0057871Y0248064D01*
X0057768Y0248154D01*
X0057666Y0248247D01*
X0057568Y0248343D01*
X0057472Y0248441D01*
X0057379Y0248543D01*
X0057289Y0248646D01*
X0057202Y0248753D01*
X0057119Y0248862D01*
X0057038Y0248973D01*
X0056961Y0249087D01*
X0056887Y0249203D01*
X0056817Y0249321D01*
X0056750Y0249441D01*
X0056686Y0249563D01*
X0056627Y0249687D01*
X0056570Y0249812D01*
X0056518Y0249939D01*
X0056469Y0250067D01*
X0056424Y0250197D01*
X0056382Y0250328D01*
X0056345Y0250460D01*
X0056311Y0250594D01*
X0056282Y0250728D01*
X0056256Y0250863D01*
X0056234Y0250998D01*
X0056216Y0251135D01*
X0056202Y0251271D01*
X0056192Y0251408D01*
X0056186Y0251546D01*
X0056184Y0251683D01*
X0289199Y0340547D02*
X0289489Y0340551D01*
X0289779Y0340561D01*
X0290068Y0340579D01*
X0290357Y0340604D01*
X0290645Y0340636D01*
X0290932Y0340675D01*
X0291218Y0340721D01*
X0291503Y0340774D01*
X0291787Y0340834D01*
X0292069Y0340901D01*
X0292349Y0340975D01*
X0292628Y0341056D01*
X0292904Y0341143D01*
X0293178Y0341237D01*
X0293450Y0341338D01*
X0293719Y0341446D01*
X0293985Y0341560D01*
X0294249Y0341681D01*
X0294509Y0341808D01*
X0294767Y0341942D01*
X0295021Y0342081D01*
X0295271Y0342227D01*
X0295518Y0342379D01*
X0295761Y0342538D01*
X0296000Y0342702D01*
X0296235Y0342871D01*
X0296465Y0343047D01*
X0296692Y0343228D01*
X0296914Y0343415D01*
X0297131Y0343607D01*
X0297343Y0343804D01*
X0297551Y0344006D01*
X0316222Y0362679D02*
X0316430Y0362881D01*
X0316642Y0363078D01*
X0316859Y0363270D01*
X0317081Y0363457D01*
X0317308Y0363638D01*
X0317538Y0363814D01*
X0317773Y0363983D01*
X0318012Y0364147D01*
X0318255Y0364306D01*
X0318502Y0364458D01*
X0318752Y0364604D01*
X0319006Y0364743D01*
X0319264Y0364877D01*
X0319524Y0365004D01*
X0319788Y0365125D01*
X0320054Y0365239D01*
X0320323Y0365347D01*
X0320595Y0365448D01*
X0320869Y0365542D01*
X0321145Y0365629D01*
X0321424Y0365710D01*
X0321704Y0365784D01*
X0321986Y0365851D01*
X0322270Y0365911D01*
X0322555Y0365964D01*
X0322841Y0366010D01*
X0323128Y0366049D01*
X0323416Y0366081D01*
X0323705Y0366106D01*
X0323994Y0366124D01*
X0324284Y0366134D01*
X0324574Y0366138D01*
X0333461Y0346453D02*
X0333463Y0346541D01*
X0333469Y0346629D01*
X0333479Y0346717D01*
X0333493Y0346805D01*
X0333510Y0346891D01*
X0333532Y0346977D01*
X0333557Y0347061D01*
X0333587Y0347145D01*
X0333619Y0347227D01*
X0333656Y0347307D01*
X0333696Y0347386D01*
X0333740Y0347463D01*
X0333787Y0347538D01*
X0333837Y0347610D01*
X0333891Y0347681D01*
X0333947Y0347748D01*
X0334007Y0347814D01*
X0334069Y0347876D01*
X0334135Y0347936D01*
X0334202Y0347992D01*
X0334273Y0348046D01*
X0334345Y0348096D01*
X0334420Y0348143D01*
X0334497Y0348187D01*
X0334576Y0348227D01*
X0334656Y0348264D01*
X0334738Y0348296D01*
X0334822Y0348326D01*
X0334906Y0348351D01*
X0334992Y0348373D01*
X0335078Y0348390D01*
X0335166Y0348404D01*
X0335254Y0348414D01*
X0335342Y0348420D01*
X0335430Y0348422D01*
X0335518Y0348420D01*
X0335606Y0348414D01*
X0335694Y0348404D01*
X0335782Y0348390D01*
X0335868Y0348373D01*
X0335954Y0348351D01*
X0336038Y0348326D01*
X0336122Y0348296D01*
X0336204Y0348264D01*
X0336284Y0348227D01*
X0336363Y0348187D01*
X0336440Y0348143D01*
X0336515Y0348096D01*
X0336587Y0348046D01*
X0336658Y0347992D01*
X0336725Y0347936D01*
X0336791Y0347876D01*
X0336853Y0347814D01*
X0336913Y0347748D01*
X0336969Y0347681D01*
X0337023Y0347610D01*
X0337073Y0347538D01*
X0337120Y0347463D01*
X0337164Y0347386D01*
X0337204Y0347307D01*
X0337241Y0347227D01*
X0337273Y0347145D01*
X0337303Y0347061D01*
X0337328Y0346977D01*
X0337350Y0346891D01*
X0337367Y0346805D01*
X0337381Y0346717D01*
X0337391Y0346629D01*
X0337397Y0346541D01*
X0337399Y0346453D01*
X0337397Y0346365D01*
X0337391Y0346277D01*
X0337381Y0346189D01*
X0337367Y0346101D01*
X0337350Y0346015D01*
X0337328Y0345929D01*
X0337303Y0345845D01*
X0337273Y0345761D01*
X0337241Y0345679D01*
X0337204Y0345599D01*
X0337164Y0345520D01*
X0337120Y0345443D01*
X0337073Y0345368D01*
X0337023Y0345296D01*
X0336969Y0345225D01*
X0336913Y0345158D01*
X0336853Y0345092D01*
X0336791Y0345030D01*
X0336725Y0344970D01*
X0336658Y0344914D01*
X0336587Y0344860D01*
X0336515Y0344810D01*
X0336440Y0344763D01*
X0336363Y0344719D01*
X0336284Y0344679D01*
X0336204Y0344642D01*
X0336122Y0344610D01*
X0336038Y0344580D01*
X0335954Y0344555D01*
X0335868Y0344533D01*
X0335782Y0344516D01*
X0335694Y0344502D01*
X0335606Y0344492D01*
X0335518Y0344486D01*
X0335430Y0344484D01*
X0335342Y0344486D01*
X0335254Y0344492D01*
X0335166Y0344502D01*
X0335078Y0344516D01*
X0334992Y0344533D01*
X0334906Y0344555D01*
X0334822Y0344580D01*
X0334738Y0344610D01*
X0334656Y0344642D01*
X0334576Y0344679D01*
X0334497Y0344719D01*
X0334420Y0344763D01*
X0334345Y0344810D01*
X0334273Y0344860D01*
X0334202Y0344914D01*
X0334135Y0344970D01*
X0334069Y0345030D01*
X0334007Y0345092D01*
X0333947Y0345158D01*
X0333891Y0345225D01*
X0333837Y0345296D01*
X0333787Y0345368D01*
X0333740Y0345443D01*
X0333696Y0345520D01*
X0333656Y0345599D01*
X0333619Y0345679D01*
X0333587Y0345761D01*
X0333557Y0345845D01*
X0333532Y0345929D01*
X0333510Y0346015D01*
X0333493Y0346101D01*
X0333479Y0346189D01*
X0333469Y0346277D01*
X0333463Y0346365D01*
X0333461Y0346453D01*
X0420075Y0346453D02*
X0420077Y0346541D01*
X0420083Y0346629D01*
X0420093Y0346717D01*
X0420107Y0346805D01*
X0420124Y0346891D01*
X0420146Y0346977D01*
X0420171Y0347061D01*
X0420201Y0347145D01*
X0420233Y0347227D01*
X0420270Y0347307D01*
X0420310Y0347386D01*
X0420354Y0347463D01*
X0420401Y0347538D01*
X0420451Y0347610D01*
X0420505Y0347681D01*
X0420561Y0347748D01*
X0420621Y0347814D01*
X0420683Y0347876D01*
X0420749Y0347936D01*
X0420816Y0347992D01*
X0420887Y0348046D01*
X0420959Y0348096D01*
X0421034Y0348143D01*
X0421111Y0348187D01*
X0421190Y0348227D01*
X0421270Y0348264D01*
X0421352Y0348296D01*
X0421436Y0348326D01*
X0421520Y0348351D01*
X0421606Y0348373D01*
X0421692Y0348390D01*
X0421780Y0348404D01*
X0421868Y0348414D01*
X0421956Y0348420D01*
X0422044Y0348422D01*
X0422132Y0348420D01*
X0422220Y0348414D01*
X0422308Y0348404D01*
X0422396Y0348390D01*
X0422482Y0348373D01*
X0422568Y0348351D01*
X0422652Y0348326D01*
X0422736Y0348296D01*
X0422818Y0348264D01*
X0422898Y0348227D01*
X0422977Y0348187D01*
X0423054Y0348143D01*
X0423129Y0348096D01*
X0423201Y0348046D01*
X0423272Y0347992D01*
X0423339Y0347936D01*
X0423405Y0347876D01*
X0423467Y0347814D01*
X0423527Y0347748D01*
X0423583Y0347681D01*
X0423637Y0347610D01*
X0423687Y0347538D01*
X0423734Y0347463D01*
X0423778Y0347386D01*
X0423818Y0347307D01*
X0423855Y0347227D01*
X0423887Y0347145D01*
X0423917Y0347061D01*
X0423942Y0346977D01*
X0423964Y0346891D01*
X0423981Y0346805D01*
X0423995Y0346717D01*
X0424005Y0346629D01*
X0424011Y0346541D01*
X0424013Y0346453D01*
X0424011Y0346365D01*
X0424005Y0346277D01*
X0423995Y0346189D01*
X0423981Y0346101D01*
X0423964Y0346015D01*
X0423942Y0345929D01*
X0423917Y0345845D01*
X0423887Y0345761D01*
X0423855Y0345679D01*
X0423818Y0345599D01*
X0423778Y0345520D01*
X0423734Y0345443D01*
X0423687Y0345368D01*
X0423637Y0345296D01*
X0423583Y0345225D01*
X0423527Y0345158D01*
X0423467Y0345092D01*
X0423405Y0345030D01*
X0423339Y0344970D01*
X0423272Y0344914D01*
X0423201Y0344860D01*
X0423129Y0344810D01*
X0423054Y0344763D01*
X0422977Y0344719D01*
X0422898Y0344679D01*
X0422818Y0344642D01*
X0422736Y0344610D01*
X0422652Y0344580D01*
X0422568Y0344555D01*
X0422482Y0344533D01*
X0422396Y0344516D01*
X0422308Y0344502D01*
X0422220Y0344492D01*
X0422132Y0344486D01*
X0422044Y0344484D01*
X0421956Y0344486D01*
X0421868Y0344492D01*
X0421780Y0344502D01*
X0421692Y0344516D01*
X0421606Y0344533D01*
X0421520Y0344555D01*
X0421436Y0344580D01*
X0421352Y0344610D01*
X0421270Y0344642D01*
X0421190Y0344679D01*
X0421111Y0344719D01*
X0421034Y0344763D01*
X0420959Y0344810D01*
X0420887Y0344860D01*
X0420816Y0344914D01*
X0420749Y0344970D01*
X0420683Y0345030D01*
X0420621Y0345092D01*
X0420561Y0345158D01*
X0420505Y0345225D01*
X0420451Y0345296D01*
X0420401Y0345368D01*
X0420354Y0345443D01*
X0420310Y0345520D01*
X0420270Y0345599D01*
X0420233Y0345679D01*
X0420201Y0345761D01*
X0420171Y0345845D01*
X0420146Y0345929D01*
X0420124Y0346015D01*
X0420107Y0346101D01*
X0420093Y0346189D01*
X0420083Y0346277D01*
X0420077Y0346365D01*
X0420075Y0346453D01*
X0432900Y0366138D02*
X0433190Y0366134D01*
X0433480Y0366124D01*
X0433769Y0366106D01*
X0434058Y0366081D01*
X0434346Y0366049D01*
X0434633Y0366010D01*
X0434919Y0365964D01*
X0435204Y0365911D01*
X0435488Y0365851D01*
X0435770Y0365784D01*
X0436050Y0365710D01*
X0436329Y0365629D01*
X0436605Y0365542D01*
X0436879Y0365448D01*
X0437151Y0365347D01*
X0437420Y0365239D01*
X0437686Y0365125D01*
X0437950Y0365004D01*
X0438210Y0364877D01*
X0438468Y0364743D01*
X0438722Y0364604D01*
X0438972Y0364458D01*
X0439219Y0364306D01*
X0439462Y0364147D01*
X0439701Y0363983D01*
X0439936Y0363814D01*
X0440166Y0363638D01*
X0440393Y0363457D01*
X0440615Y0363270D01*
X0440832Y0363078D01*
X0441044Y0362881D01*
X0441252Y0362679D01*
X0459923Y0344006D02*
X0460131Y0343804D01*
X0460343Y0343607D01*
X0460560Y0343415D01*
X0460782Y0343228D01*
X0461009Y0343047D01*
X0461239Y0342871D01*
X0461474Y0342702D01*
X0461713Y0342538D01*
X0461956Y0342379D01*
X0462203Y0342227D01*
X0462453Y0342081D01*
X0462707Y0341942D01*
X0462965Y0341808D01*
X0463225Y0341681D01*
X0463489Y0341560D01*
X0463755Y0341446D01*
X0464024Y0341338D01*
X0464296Y0341237D01*
X0464570Y0341143D01*
X0464846Y0341056D01*
X0465125Y0340975D01*
X0465405Y0340901D01*
X0465687Y0340834D01*
X0465971Y0340774D01*
X0466256Y0340721D01*
X0466542Y0340675D01*
X0466829Y0340636D01*
X0467117Y0340604D01*
X0467406Y0340579D01*
X0467695Y0340561D01*
X0467985Y0340551D01*
X0468275Y0340547D01*
X0457759Y0251683D02*
X0457761Y0251820D01*
X0457767Y0251958D01*
X0457777Y0252095D01*
X0457791Y0252231D01*
X0457809Y0252368D01*
X0457831Y0252503D01*
X0457857Y0252638D01*
X0457886Y0252772D01*
X0457920Y0252906D01*
X0457957Y0253038D01*
X0457999Y0253169D01*
X0458044Y0253299D01*
X0458093Y0253427D01*
X0458145Y0253554D01*
X0458202Y0253679D01*
X0458261Y0253803D01*
X0458325Y0253925D01*
X0458392Y0254045D01*
X0458462Y0254163D01*
X0458536Y0254279D01*
X0458613Y0254393D01*
X0458694Y0254504D01*
X0458777Y0254613D01*
X0458864Y0254720D01*
X0458954Y0254823D01*
X0459047Y0254925D01*
X0459143Y0255023D01*
X0459241Y0255119D01*
X0459343Y0255212D01*
X0459446Y0255302D01*
X0459553Y0255389D01*
X0459662Y0255472D01*
X0459773Y0255553D01*
X0459887Y0255630D01*
X0460003Y0255704D01*
X0460121Y0255774D01*
X0460241Y0255841D01*
X0460363Y0255905D01*
X0460487Y0255964D01*
X0460612Y0256021D01*
X0460739Y0256073D01*
X0460867Y0256122D01*
X0460997Y0256167D01*
X0461128Y0256209D01*
X0461260Y0256246D01*
X0461394Y0256280D01*
X0461528Y0256309D01*
X0461663Y0256335D01*
X0461798Y0256357D01*
X0461935Y0256375D01*
X0462071Y0256389D01*
X0462208Y0256399D01*
X0462346Y0256405D01*
X0462483Y0256407D01*
X0462620Y0256405D01*
X0462758Y0256399D01*
X0462895Y0256389D01*
X0463031Y0256375D01*
X0463168Y0256357D01*
X0463303Y0256335D01*
X0463438Y0256309D01*
X0463572Y0256280D01*
X0463706Y0256246D01*
X0463838Y0256209D01*
X0463969Y0256167D01*
X0464099Y0256122D01*
X0464227Y0256073D01*
X0464354Y0256021D01*
X0464479Y0255964D01*
X0464603Y0255905D01*
X0464725Y0255841D01*
X0464845Y0255774D01*
X0464963Y0255704D01*
X0465079Y0255630D01*
X0465193Y0255553D01*
X0465304Y0255472D01*
X0465413Y0255389D01*
X0465520Y0255302D01*
X0465623Y0255212D01*
X0465725Y0255119D01*
X0465823Y0255023D01*
X0465919Y0254925D01*
X0466012Y0254823D01*
X0466102Y0254720D01*
X0466189Y0254613D01*
X0466272Y0254504D01*
X0466353Y0254393D01*
X0466430Y0254279D01*
X0466504Y0254163D01*
X0466574Y0254045D01*
X0466641Y0253925D01*
X0466705Y0253803D01*
X0466764Y0253679D01*
X0466821Y0253554D01*
X0466873Y0253427D01*
X0466922Y0253299D01*
X0466967Y0253169D01*
X0467009Y0253038D01*
X0467046Y0252906D01*
X0467080Y0252772D01*
X0467109Y0252638D01*
X0467135Y0252503D01*
X0467157Y0252368D01*
X0467175Y0252231D01*
X0467189Y0252095D01*
X0467199Y0251958D01*
X0467205Y0251820D01*
X0467207Y0251683D01*
X0467205Y0251546D01*
X0467199Y0251408D01*
X0467189Y0251271D01*
X0467175Y0251135D01*
X0467157Y0250998D01*
X0467135Y0250863D01*
X0467109Y0250728D01*
X0467080Y0250594D01*
X0467046Y0250460D01*
X0467009Y0250328D01*
X0466967Y0250197D01*
X0466922Y0250067D01*
X0466873Y0249939D01*
X0466821Y0249812D01*
X0466764Y0249687D01*
X0466705Y0249563D01*
X0466641Y0249441D01*
X0466574Y0249321D01*
X0466504Y0249203D01*
X0466430Y0249087D01*
X0466353Y0248973D01*
X0466272Y0248862D01*
X0466189Y0248753D01*
X0466102Y0248646D01*
X0466012Y0248543D01*
X0465919Y0248441D01*
X0465823Y0248343D01*
X0465725Y0248247D01*
X0465623Y0248154D01*
X0465520Y0248064D01*
X0465413Y0247977D01*
X0465304Y0247894D01*
X0465193Y0247813D01*
X0465079Y0247736D01*
X0464963Y0247662D01*
X0464845Y0247592D01*
X0464725Y0247525D01*
X0464603Y0247461D01*
X0464479Y0247402D01*
X0464354Y0247345D01*
X0464227Y0247293D01*
X0464099Y0247244D01*
X0463969Y0247199D01*
X0463838Y0247157D01*
X0463706Y0247120D01*
X0463572Y0247086D01*
X0463438Y0247057D01*
X0463303Y0247031D01*
X0463168Y0247009D01*
X0463031Y0246991D01*
X0462895Y0246977D01*
X0462758Y0246967D01*
X0462620Y0246961D01*
X0462483Y0246959D01*
X0462346Y0246961D01*
X0462208Y0246967D01*
X0462071Y0246977D01*
X0461935Y0246991D01*
X0461798Y0247009D01*
X0461663Y0247031D01*
X0461528Y0247057D01*
X0461394Y0247086D01*
X0461260Y0247120D01*
X0461128Y0247157D01*
X0460997Y0247199D01*
X0460867Y0247244D01*
X0460739Y0247293D01*
X0460612Y0247345D01*
X0460487Y0247402D01*
X0460363Y0247461D01*
X0460241Y0247525D01*
X0460121Y0247592D01*
X0460003Y0247662D01*
X0459887Y0247736D01*
X0459773Y0247813D01*
X0459662Y0247894D01*
X0459553Y0247977D01*
X0459446Y0248064D01*
X0459343Y0248154D01*
X0459241Y0248247D01*
X0459143Y0248343D01*
X0459047Y0248441D01*
X0458954Y0248543D01*
X0458864Y0248646D01*
X0458777Y0248753D01*
X0458694Y0248862D01*
X0458613Y0248973D01*
X0458536Y0249087D01*
X0458462Y0249203D01*
X0458392Y0249321D01*
X0458325Y0249441D01*
X0458261Y0249563D01*
X0458202Y0249687D01*
X0458145Y0249812D01*
X0458093Y0249939D01*
X0458044Y0250067D01*
X0457999Y0250197D01*
X0457957Y0250328D01*
X0457920Y0250460D01*
X0457886Y0250594D01*
X0457857Y0250728D01*
X0457831Y0250863D01*
X0457809Y0250998D01*
X0457791Y0251135D01*
X0457777Y0251271D01*
X0457767Y0251408D01*
X0457761Y0251546D01*
X0457759Y0251683D01*
X0480030Y0229412D02*
X0480032Y0229549D01*
X0480038Y0229687D01*
X0480048Y0229824D01*
X0480062Y0229960D01*
X0480080Y0230097D01*
X0480102Y0230232D01*
X0480128Y0230367D01*
X0480157Y0230501D01*
X0480191Y0230635D01*
X0480228Y0230767D01*
X0480270Y0230898D01*
X0480315Y0231028D01*
X0480364Y0231156D01*
X0480416Y0231283D01*
X0480473Y0231408D01*
X0480532Y0231532D01*
X0480596Y0231654D01*
X0480663Y0231774D01*
X0480733Y0231892D01*
X0480807Y0232008D01*
X0480884Y0232122D01*
X0480965Y0232233D01*
X0481048Y0232342D01*
X0481135Y0232449D01*
X0481225Y0232552D01*
X0481318Y0232654D01*
X0481414Y0232752D01*
X0481512Y0232848D01*
X0481614Y0232941D01*
X0481717Y0233031D01*
X0481824Y0233118D01*
X0481933Y0233201D01*
X0482044Y0233282D01*
X0482158Y0233359D01*
X0482274Y0233433D01*
X0482392Y0233503D01*
X0482512Y0233570D01*
X0482634Y0233634D01*
X0482758Y0233693D01*
X0482883Y0233750D01*
X0483010Y0233802D01*
X0483138Y0233851D01*
X0483268Y0233896D01*
X0483399Y0233938D01*
X0483531Y0233975D01*
X0483665Y0234009D01*
X0483799Y0234038D01*
X0483934Y0234064D01*
X0484069Y0234086D01*
X0484206Y0234104D01*
X0484342Y0234118D01*
X0484479Y0234128D01*
X0484617Y0234134D01*
X0484754Y0234136D01*
X0484891Y0234134D01*
X0485029Y0234128D01*
X0485166Y0234118D01*
X0485302Y0234104D01*
X0485439Y0234086D01*
X0485574Y0234064D01*
X0485709Y0234038D01*
X0485843Y0234009D01*
X0485977Y0233975D01*
X0486109Y0233938D01*
X0486240Y0233896D01*
X0486370Y0233851D01*
X0486498Y0233802D01*
X0486625Y0233750D01*
X0486750Y0233693D01*
X0486874Y0233634D01*
X0486996Y0233570D01*
X0487116Y0233503D01*
X0487234Y0233433D01*
X0487350Y0233359D01*
X0487464Y0233282D01*
X0487575Y0233201D01*
X0487684Y0233118D01*
X0487791Y0233031D01*
X0487894Y0232941D01*
X0487996Y0232848D01*
X0488094Y0232752D01*
X0488190Y0232654D01*
X0488283Y0232552D01*
X0488373Y0232449D01*
X0488460Y0232342D01*
X0488543Y0232233D01*
X0488624Y0232122D01*
X0488701Y0232008D01*
X0488775Y0231892D01*
X0488845Y0231774D01*
X0488912Y0231654D01*
X0488976Y0231532D01*
X0489035Y0231408D01*
X0489092Y0231283D01*
X0489144Y0231156D01*
X0489193Y0231028D01*
X0489238Y0230898D01*
X0489280Y0230767D01*
X0489317Y0230635D01*
X0489351Y0230501D01*
X0489380Y0230367D01*
X0489406Y0230232D01*
X0489428Y0230097D01*
X0489446Y0229960D01*
X0489460Y0229824D01*
X0489470Y0229687D01*
X0489476Y0229549D01*
X0489478Y0229412D01*
X0489476Y0229275D01*
X0489470Y0229137D01*
X0489460Y0229000D01*
X0489446Y0228864D01*
X0489428Y0228727D01*
X0489406Y0228592D01*
X0489380Y0228457D01*
X0489351Y0228323D01*
X0489317Y0228189D01*
X0489280Y0228057D01*
X0489238Y0227926D01*
X0489193Y0227796D01*
X0489144Y0227668D01*
X0489092Y0227541D01*
X0489035Y0227416D01*
X0488976Y0227292D01*
X0488912Y0227170D01*
X0488845Y0227050D01*
X0488775Y0226932D01*
X0488701Y0226816D01*
X0488624Y0226702D01*
X0488543Y0226591D01*
X0488460Y0226482D01*
X0488373Y0226375D01*
X0488283Y0226272D01*
X0488190Y0226170D01*
X0488094Y0226072D01*
X0487996Y0225976D01*
X0487894Y0225883D01*
X0487791Y0225793D01*
X0487684Y0225706D01*
X0487575Y0225623D01*
X0487464Y0225542D01*
X0487350Y0225465D01*
X0487234Y0225391D01*
X0487116Y0225321D01*
X0486996Y0225254D01*
X0486874Y0225190D01*
X0486750Y0225131D01*
X0486625Y0225074D01*
X0486498Y0225022D01*
X0486370Y0224973D01*
X0486240Y0224928D01*
X0486109Y0224886D01*
X0485977Y0224849D01*
X0485843Y0224815D01*
X0485709Y0224786D01*
X0485574Y0224760D01*
X0485439Y0224738D01*
X0485302Y0224720D01*
X0485166Y0224706D01*
X0485029Y0224696D01*
X0484891Y0224690D01*
X0484754Y0224688D01*
X0484617Y0224690D01*
X0484479Y0224696D01*
X0484342Y0224706D01*
X0484206Y0224720D01*
X0484069Y0224738D01*
X0483934Y0224760D01*
X0483799Y0224786D01*
X0483665Y0224815D01*
X0483531Y0224849D01*
X0483399Y0224886D01*
X0483268Y0224928D01*
X0483138Y0224973D01*
X0483010Y0225022D01*
X0482883Y0225074D01*
X0482758Y0225131D01*
X0482634Y0225190D01*
X0482512Y0225254D01*
X0482392Y0225321D01*
X0482274Y0225391D01*
X0482158Y0225465D01*
X0482044Y0225542D01*
X0481933Y0225623D01*
X0481824Y0225706D01*
X0481717Y0225793D01*
X0481614Y0225883D01*
X0481512Y0225976D01*
X0481414Y0226072D01*
X0481318Y0226170D01*
X0481225Y0226272D01*
X0481135Y0226375D01*
X0481048Y0226482D01*
X0480965Y0226591D01*
X0480884Y0226702D01*
X0480807Y0226816D01*
X0480733Y0226932D01*
X0480663Y0227050D01*
X0480596Y0227170D01*
X0480532Y0227292D01*
X0480473Y0227416D01*
X0480416Y0227541D01*
X0480364Y0227668D01*
X0480315Y0227796D01*
X0480270Y0227926D01*
X0480228Y0228057D01*
X0480191Y0228189D01*
X0480157Y0228323D01*
X0480128Y0228457D01*
X0480102Y0228592D01*
X0480080Y0228727D01*
X0480062Y0228864D01*
X0480048Y0229000D01*
X0480038Y0229137D01*
X0480032Y0229275D01*
X0480030Y0229412D01*
X0591617Y0251683D02*
X0591619Y0251820D01*
X0591625Y0251958D01*
X0591635Y0252095D01*
X0591649Y0252231D01*
X0591667Y0252368D01*
X0591689Y0252503D01*
X0591715Y0252638D01*
X0591744Y0252772D01*
X0591778Y0252906D01*
X0591815Y0253038D01*
X0591857Y0253169D01*
X0591902Y0253299D01*
X0591951Y0253427D01*
X0592003Y0253554D01*
X0592060Y0253679D01*
X0592119Y0253803D01*
X0592183Y0253925D01*
X0592250Y0254045D01*
X0592320Y0254163D01*
X0592394Y0254279D01*
X0592471Y0254393D01*
X0592552Y0254504D01*
X0592635Y0254613D01*
X0592722Y0254720D01*
X0592812Y0254823D01*
X0592905Y0254925D01*
X0593001Y0255023D01*
X0593099Y0255119D01*
X0593201Y0255212D01*
X0593304Y0255302D01*
X0593411Y0255389D01*
X0593520Y0255472D01*
X0593631Y0255553D01*
X0593745Y0255630D01*
X0593861Y0255704D01*
X0593979Y0255774D01*
X0594099Y0255841D01*
X0594221Y0255905D01*
X0594345Y0255964D01*
X0594470Y0256021D01*
X0594597Y0256073D01*
X0594725Y0256122D01*
X0594855Y0256167D01*
X0594986Y0256209D01*
X0595118Y0256246D01*
X0595252Y0256280D01*
X0595386Y0256309D01*
X0595521Y0256335D01*
X0595656Y0256357D01*
X0595793Y0256375D01*
X0595929Y0256389D01*
X0596066Y0256399D01*
X0596204Y0256405D01*
X0596341Y0256407D01*
X0596478Y0256405D01*
X0596616Y0256399D01*
X0596753Y0256389D01*
X0596889Y0256375D01*
X0597026Y0256357D01*
X0597161Y0256335D01*
X0597296Y0256309D01*
X0597430Y0256280D01*
X0597564Y0256246D01*
X0597696Y0256209D01*
X0597827Y0256167D01*
X0597957Y0256122D01*
X0598085Y0256073D01*
X0598212Y0256021D01*
X0598337Y0255964D01*
X0598461Y0255905D01*
X0598583Y0255841D01*
X0598703Y0255774D01*
X0598821Y0255704D01*
X0598937Y0255630D01*
X0599051Y0255553D01*
X0599162Y0255472D01*
X0599271Y0255389D01*
X0599378Y0255302D01*
X0599481Y0255212D01*
X0599583Y0255119D01*
X0599681Y0255023D01*
X0599777Y0254925D01*
X0599870Y0254823D01*
X0599960Y0254720D01*
X0600047Y0254613D01*
X0600130Y0254504D01*
X0600211Y0254393D01*
X0600288Y0254279D01*
X0600362Y0254163D01*
X0600432Y0254045D01*
X0600499Y0253925D01*
X0600563Y0253803D01*
X0600622Y0253679D01*
X0600679Y0253554D01*
X0600731Y0253427D01*
X0600780Y0253299D01*
X0600825Y0253169D01*
X0600867Y0253038D01*
X0600904Y0252906D01*
X0600938Y0252772D01*
X0600967Y0252638D01*
X0600993Y0252503D01*
X0601015Y0252368D01*
X0601033Y0252231D01*
X0601047Y0252095D01*
X0601057Y0251958D01*
X0601063Y0251820D01*
X0601065Y0251683D01*
X0601063Y0251546D01*
X0601057Y0251408D01*
X0601047Y0251271D01*
X0601033Y0251135D01*
X0601015Y0250998D01*
X0600993Y0250863D01*
X0600967Y0250728D01*
X0600938Y0250594D01*
X0600904Y0250460D01*
X0600867Y0250328D01*
X0600825Y0250197D01*
X0600780Y0250067D01*
X0600731Y0249939D01*
X0600679Y0249812D01*
X0600622Y0249687D01*
X0600563Y0249563D01*
X0600499Y0249441D01*
X0600432Y0249321D01*
X0600362Y0249203D01*
X0600288Y0249087D01*
X0600211Y0248973D01*
X0600130Y0248862D01*
X0600047Y0248753D01*
X0599960Y0248646D01*
X0599870Y0248543D01*
X0599777Y0248441D01*
X0599681Y0248343D01*
X0599583Y0248247D01*
X0599481Y0248154D01*
X0599378Y0248064D01*
X0599271Y0247977D01*
X0599162Y0247894D01*
X0599051Y0247813D01*
X0598937Y0247736D01*
X0598821Y0247662D01*
X0598703Y0247592D01*
X0598583Y0247525D01*
X0598461Y0247461D01*
X0598337Y0247402D01*
X0598212Y0247345D01*
X0598085Y0247293D01*
X0597957Y0247244D01*
X0597827Y0247199D01*
X0597696Y0247157D01*
X0597564Y0247120D01*
X0597430Y0247086D01*
X0597296Y0247057D01*
X0597161Y0247031D01*
X0597026Y0247009D01*
X0596889Y0246991D01*
X0596753Y0246977D01*
X0596616Y0246967D01*
X0596478Y0246961D01*
X0596341Y0246959D01*
X0596204Y0246961D01*
X0596066Y0246967D01*
X0595929Y0246977D01*
X0595793Y0246991D01*
X0595656Y0247009D01*
X0595521Y0247031D01*
X0595386Y0247057D01*
X0595252Y0247086D01*
X0595118Y0247120D01*
X0594986Y0247157D01*
X0594855Y0247199D01*
X0594725Y0247244D01*
X0594597Y0247293D01*
X0594470Y0247345D01*
X0594345Y0247402D01*
X0594221Y0247461D01*
X0594099Y0247525D01*
X0593979Y0247592D01*
X0593861Y0247662D01*
X0593745Y0247736D01*
X0593631Y0247813D01*
X0593520Y0247894D01*
X0593411Y0247977D01*
X0593304Y0248064D01*
X0593201Y0248154D01*
X0593099Y0248247D01*
X0593001Y0248343D01*
X0592905Y0248441D01*
X0592812Y0248543D01*
X0592722Y0248646D01*
X0592635Y0248753D01*
X0592552Y0248862D01*
X0592471Y0248973D01*
X0592394Y0249087D01*
X0592320Y0249203D01*
X0592250Y0249321D01*
X0592183Y0249441D01*
X0592119Y0249563D01*
X0592060Y0249687D01*
X0592003Y0249812D01*
X0591951Y0249939D01*
X0591902Y0250067D01*
X0591857Y0250197D01*
X0591815Y0250328D01*
X0591778Y0250460D01*
X0591744Y0250594D01*
X0591715Y0250728D01*
X0591689Y0250863D01*
X0591667Y0250998D01*
X0591649Y0251135D01*
X0591635Y0251271D01*
X0591625Y0251408D01*
X0591619Y0251546D01*
X0591617Y0251683D01*
X0613889Y0229412D02*
X0613891Y0229549D01*
X0613897Y0229687D01*
X0613907Y0229824D01*
X0613921Y0229960D01*
X0613939Y0230097D01*
X0613961Y0230232D01*
X0613987Y0230367D01*
X0614016Y0230501D01*
X0614050Y0230635D01*
X0614087Y0230767D01*
X0614129Y0230898D01*
X0614174Y0231028D01*
X0614223Y0231156D01*
X0614275Y0231283D01*
X0614332Y0231408D01*
X0614391Y0231532D01*
X0614455Y0231654D01*
X0614522Y0231774D01*
X0614592Y0231892D01*
X0614666Y0232008D01*
X0614743Y0232122D01*
X0614824Y0232233D01*
X0614907Y0232342D01*
X0614994Y0232449D01*
X0615084Y0232552D01*
X0615177Y0232654D01*
X0615273Y0232752D01*
X0615371Y0232848D01*
X0615473Y0232941D01*
X0615576Y0233031D01*
X0615683Y0233118D01*
X0615792Y0233201D01*
X0615903Y0233282D01*
X0616017Y0233359D01*
X0616133Y0233433D01*
X0616251Y0233503D01*
X0616371Y0233570D01*
X0616493Y0233634D01*
X0616617Y0233693D01*
X0616742Y0233750D01*
X0616869Y0233802D01*
X0616997Y0233851D01*
X0617127Y0233896D01*
X0617258Y0233938D01*
X0617390Y0233975D01*
X0617524Y0234009D01*
X0617658Y0234038D01*
X0617793Y0234064D01*
X0617928Y0234086D01*
X0618065Y0234104D01*
X0618201Y0234118D01*
X0618338Y0234128D01*
X0618476Y0234134D01*
X0618613Y0234136D01*
X0618750Y0234134D01*
X0618888Y0234128D01*
X0619025Y0234118D01*
X0619161Y0234104D01*
X0619298Y0234086D01*
X0619433Y0234064D01*
X0619568Y0234038D01*
X0619702Y0234009D01*
X0619836Y0233975D01*
X0619968Y0233938D01*
X0620099Y0233896D01*
X0620229Y0233851D01*
X0620357Y0233802D01*
X0620484Y0233750D01*
X0620609Y0233693D01*
X0620733Y0233634D01*
X0620855Y0233570D01*
X0620975Y0233503D01*
X0621093Y0233433D01*
X0621209Y0233359D01*
X0621323Y0233282D01*
X0621434Y0233201D01*
X0621543Y0233118D01*
X0621650Y0233031D01*
X0621753Y0232941D01*
X0621855Y0232848D01*
X0621953Y0232752D01*
X0622049Y0232654D01*
X0622142Y0232552D01*
X0622232Y0232449D01*
X0622319Y0232342D01*
X0622402Y0232233D01*
X0622483Y0232122D01*
X0622560Y0232008D01*
X0622634Y0231892D01*
X0622704Y0231774D01*
X0622771Y0231654D01*
X0622835Y0231532D01*
X0622894Y0231408D01*
X0622951Y0231283D01*
X0623003Y0231156D01*
X0623052Y0231028D01*
X0623097Y0230898D01*
X0623139Y0230767D01*
X0623176Y0230635D01*
X0623210Y0230501D01*
X0623239Y0230367D01*
X0623265Y0230232D01*
X0623287Y0230097D01*
X0623305Y0229960D01*
X0623319Y0229824D01*
X0623329Y0229687D01*
X0623335Y0229549D01*
X0623337Y0229412D01*
X0623335Y0229275D01*
X0623329Y0229137D01*
X0623319Y0229000D01*
X0623305Y0228864D01*
X0623287Y0228727D01*
X0623265Y0228592D01*
X0623239Y0228457D01*
X0623210Y0228323D01*
X0623176Y0228189D01*
X0623139Y0228057D01*
X0623097Y0227926D01*
X0623052Y0227796D01*
X0623003Y0227668D01*
X0622951Y0227541D01*
X0622894Y0227416D01*
X0622835Y0227292D01*
X0622771Y0227170D01*
X0622704Y0227050D01*
X0622634Y0226932D01*
X0622560Y0226816D01*
X0622483Y0226702D01*
X0622402Y0226591D01*
X0622319Y0226482D01*
X0622232Y0226375D01*
X0622142Y0226272D01*
X0622049Y0226170D01*
X0621953Y0226072D01*
X0621855Y0225976D01*
X0621753Y0225883D01*
X0621650Y0225793D01*
X0621543Y0225706D01*
X0621434Y0225623D01*
X0621323Y0225542D01*
X0621209Y0225465D01*
X0621093Y0225391D01*
X0620975Y0225321D01*
X0620855Y0225254D01*
X0620733Y0225190D01*
X0620609Y0225131D01*
X0620484Y0225074D01*
X0620357Y0225022D01*
X0620229Y0224973D01*
X0620099Y0224928D01*
X0619968Y0224886D01*
X0619836Y0224849D01*
X0619702Y0224815D01*
X0619568Y0224786D01*
X0619433Y0224760D01*
X0619298Y0224738D01*
X0619161Y0224720D01*
X0619025Y0224706D01*
X0618888Y0224696D01*
X0618750Y0224690D01*
X0618613Y0224688D01*
X0618476Y0224690D01*
X0618338Y0224696D01*
X0618201Y0224706D01*
X0618065Y0224720D01*
X0617928Y0224738D01*
X0617793Y0224760D01*
X0617658Y0224786D01*
X0617524Y0224815D01*
X0617390Y0224849D01*
X0617258Y0224886D01*
X0617127Y0224928D01*
X0616997Y0224973D01*
X0616869Y0225022D01*
X0616742Y0225074D01*
X0616617Y0225131D01*
X0616493Y0225190D01*
X0616371Y0225254D01*
X0616251Y0225321D01*
X0616133Y0225391D01*
X0616017Y0225465D01*
X0615903Y0225542D01*
X0615792Y0225623D01*
X0615683Y0225706D01*
X0615576Y0225793D01*
X0615473Y0225883D01*
X0615371Y0225976D01*
X0615273Y0226072D01*
X0615177Y0226170D01*
X0615084Y0226272D01*
X0614994Y0226375D01*
X0614907Y0226482D01*
X0614824Y0226591D01*
X0614743Y0226702D01*
X0614666Y0226816D01*
X0614592Y0226932D01*
X0614522Y0227050D01*
X0614455Y0227170D01*
X0614391Y0227292D01*
X0614332Y0227416D01*
X0614275Y0227541D01*
X0614223Y0227668D01*
X0614174Y0227796D01*
X0614129Y0227926D01*
X0614087Y0228057D01*
X0614050Y0228189D01*
X0614016Y0228323D01*
X0613987Y0228457D01*
X0613961Y0228592D01*
X0613939Y0228727D01*
X0613921Y0228864D01*
X0613907Y0229000D01*
X0613897Y0229137D01*
X0613891Y0229275D01*
X0613889Y0229412D01*
X0346172Y0229412D02*
X0346174Y0229549D01*
X0346180Y0229687D01*
X0346190Y0229824D01*
X0346204Y0229960D01*
X0346222Y0230097D01*
X0346244Y0230232D01*
X0346270Y0230367D01*
X0346299Y0230501D01*
X0346333Y0230635D01*
X0346370Y0230767D01*
X0346412Y0230898D01*
X0346457Y0231028D01*
X0346506Y0231156D01*
X0346558Y0231283D01*
X0346615Y0231408D01*
X0346674Y0231532D01*
X0346738Y0231654D01*
X0346805Y0231774D01*
X0346875Y0231892D01*
X0346949Y0232008D01*
X0347026Y0232122D01*
X0347107Y0232233D01*
X0347190Y0232342D01*
X0347277Y0232449D01*
X0347367Y0232552D01*
X0347460Y0232654D01*
X0347556Y0232752D01*
X0347654Y0232848D01*
X0347756Y0232941D01*
X0347859Y0233031D01*
X0347966Y0233118D01*
X0348075Y0233201D01*
X0348186Y0233282D01*
X0348300Y0233359D01*
X0348416Y0233433D01*
X0348534Y0233503D01*
X0348654Y0233570D01*
X0348776Y0233634D01*
X0348900Y0233693D01*
X0349025Y0233750D01*
X0349152Y0233802D01*
X0349280Y0233851D01*
X0349410Y0233896D01*
X0349541Y0233938D01*
X0349673Y0233975D01*
X0349807Y0234009D01*
X0349941Y0234038D01*
X0350076Y0234064D01*
X0350211Y0234086D01*
X0350348Y0234104D01*
X0350484Y0234118D01*
X0350621Y0234128D01*
X0350759Y0234134D01*
X0350896Y0234136D01*
X0351033Y0234134D01*
X0351171Y0234128D01*
X0351308Y0234118D01*
X0351444Y0234104D01*
X0351581Y0234086D01*
X0351716Y0234064D01*
X0351851Y0234038D01*
X0351985Y0234009D01*
X0352119Y0233975D01*
X0352251Y0233938D01*
X0352382Y0233896D01*
X0352512Y0233851D01*
X0352640Y0233802D01*
X0352767Y0233750D01*
X0352892Y0233693D01*
X0353016Y0233634D01*
X0353138Y0233570D01*
X0353258Y0233503D01*
X0353376Y0233433D01*
X0353492Y0233359D01*
X0353606Y0233282D01*
X0353717Y0233201D01*
X0353826Y0233118D01*
X0353933Y0233031D01*
X0354036Y0232941D01*
X0354138Y0232848D01*
X0354236Y0232752D01*
X0354332Y0232654D01*
X0354425Y0232552D01*
X0354515Y0232449D01*
X0354602Y0232342D01*
X0354685Y0232233D01*
X0354766Y0232122D01*
X0354843Y0232008D01*
X0354917Y0231892D01*
X0354987Y0231774D01*
X0355054Y0231654D01*
X0355118Y0231532D01*
X0355177Y0231408D01*
X0355234Y0231283D01*
X0355286Y0231156D01*
X0355335Y0231028D01*
X0355380Y0230898D01*
X0355422Y0230767D01*
X0355459Y0230635D01*
X0355493Y0230501D01*
X0355522Y0230367D01*
X0355548Y0230232D01*
X0355570Y0230097D01*
X0355588Y0229960D01*
X0355602Y0229824D01*
X0355612Y0229687D01*
X0355618Y0229549D01*
X0355620Y0229412D01*
X0355618Y0229275D01*
X0355612Y0229137D01*
X0355602Y0229000D01*
X0355588Y0228864D01*
X0355570Y0228727D01*
X0355548Y0228592D01*
X0355522Y0228457D01*
X0355493Y0228323D01*
X0355459Y0228189D01*
X0355422Y0228057D01*
X0355380Y0227926D01*
X0355335Y0227796D01*
X0355286Y0227668D01*
X0355234Y0227541D01*
X0355177Y0227416D01*
X0355118Y0227292D01*
X0355054Y0227170D01*
X0354987Y0227050D01*
X0354917Y0226932D01*
X0354843Y0226816D01*
X0354766Y0226702D01*
X0354685Y0226591D01*
X0354602Y0226482D01*
X0354515Y0226375D01*
X0354425Y0226272D01*
X0354332Y0226170D01*
X0354236Y0226072D01*
X0354138Y0225976D01*
X0354036Y0225883D01*
X0353933Y0225793D01*
X0353826Y0225706D01*
X0353717Y0225623D01*
X0353606Y0225542D01*
X0353492Y0225465D01*
X0353376Y0225391D01*
X0353258Y0225321D01*
X0353138Y0225254D01*
X0353016Y0225190D01*
X0352892Y0225131D01*
X0352767Y0225074D01*
X0352640Y0225022D01*
X0352512Y0224973D01*
X0352382Y0224928D01*
X0352251Y0224886D01*
X0352119Y0224849D01*
X0351985Y0224815D01*
X0351851Y0224786D01*
X0351716Y0224760D01*
X0351581Y0224738D01*
X0351444Y0224720D01*
X0351308Y0224706D01*
X0351171Y0224696D01*
X0351033Y0224690D01*
X0350896Y0224688D01*
X0350759Y0224690D01*
X0350621Y0224696D01*
X0350484Y0224706D01*
X0350348Y0224720D01*
X0350211Y0224738D01*
X0350076Y0224760D01*
X0349941Y0224786D01*
X0349807Y0224815D01*
X0349673Y0224849D01*
X0349541Y0224886D01*
X0349410Y0224928D01*
X0349280Y0224973D01*
X0349152Y0225022D01*
X0349025Y0225074D01*
X0348900Y0225131D01*
X0348776Y0225190D01*
X0348654Y0225254D01*
X0348534Y0225321D01*
X0348416Y0225391D01*
X0348300Y0225465D01*
X0348186Y0225542D01*
X0348075Y0225623D01*
X0347966Y0225706D01*
X0347859Y0225793D01*
X0347756Y0225883D01*
X0347654Y0225976D01*
X0347556Y0226072D01*
X0347460Y0226170D01*
X0347367Y0226272D01*
X0347277Y0226375D01*
X0347190Y0226482D01*
X0347107Y0226591D01*
X0347026Y0226702D01*
X0346949Y0226816D01*
X0346875Y0226932D01*
X0346805Y0227050D01*
X0346738Y0227170D01*
X0346674Y0227292D01*
X0346615Y0227416D01*
X0346558Y0227541D01*
X0346506Y0227668D01*
X0346457Y0227796D01*
X0346412Y0227926D01*
X0346370Y0228057D01*
X0346333Y0228189D01*
X0346299Y0228323D01*
X0346270Y0228457D01*
X0346244Y0228592D01*
X0346222Y0228727D01*
X0346204Y0228864D01*
X0346190Y0229000D01*
X0346180Y0229137D01*
X0346174Y0229275D01*
X0346172Y0229412D01*
X0323901Y0251683D02*
X0323903Y0251820D01*
X0323909Y0251958D01*
X0323919Y0252095D01*
X0323933Y0252231D01*
X0323951Y0252368D01*
X0323973Y0252503D01*
X0323999Y0252638D01*
X0324028Y0252772D01*
X0324062Y0252906D01*
X0324099Y0253038D01*
X0324141Y0253169D01*
X0324186Y0253299D01*
X0324235Y0253427D01*
X0324287Y0253554D01*
X0324344Y0253679D01*
X0324403Y0253803D01*
X0324467Y0253925D01*
X0324534Y0254045D01*
X0324604Y0254163D01*
X0324678Y0254279D01*
X0324755Y0254393D01*
X0324836Y0254504D01*
X0324919Y0254613D01*
X0325006Y0254720D01*
X0325096Y0254823D01*
X0325189Y0254925D01*
X0325285Y0255023D01*
X0325383Y0255119D01*
X0325485Y0255212D01*
X0325588Y0255302D01*
X0325695Y0255389D01*
X0325804Y0255472D01*
X0325915Y0255553D01*
X0326029Y0255630D01*
X0326145Y0255704D01*
X0326263Y0255774D01*
X0326383Y0255841D01*
X0326505Y0255905D01*
X0326629Y0255964D01*
X0326754Y0256021D01*
X0326881Y0256073D01*
X0327009Y0256122D01*
X0327139Y0256167D01*
X0327270Y0256209D01*
X0327402Y0256246D01*
X0327536Y0256280D01*
X0327670Y0256309D01*
X0327805Y0256335D01*
X0327940Y0256357D01*
X0328077Y0256375D01*
X0328213Y0256389D01*
X0328350Y0256399D01*
X0328488Y0256405D01*
X0328625Y0256407D01*
X0328762Y0256405D01*
X0328900Y0256399D01*
X0329037Y0256389D01*
X0329173Y0256375D01*
X0329310Y0256357D01*
X0329445Y0256335D01*
X0329580Y0256309D01*
X0329714Y0256280D01*
X0329848Y0256246D01*
X0329980Y0256209D01*
X0330111Y0256167D01*
X0330241Y0256122D01*
X0330369Y0256073D01*
X0330496Y0256021D01*
X0330621Y0255964D01*
X0330745Y0255905D01*
X0330867Y0255841D01*
X0330987Y0255774D01*
X0331105Y0255704D01*
X0331221Y0255630D01*
X0331335Y0255553D01*
X0331446Y0255472D01*
X0331555Y0255389D01*
X0331662Y0255302D01*
X0331765Y0255212D01*
X0331867Y0255119D01*
X0331965Y0255023D01*
X0332061Y0254925D01*
X0332154Y0254823D01*
X0332244Y0254720D01*
X0332331Y0254613D01*
X0332414Y0254504D01*
X0332495Y0254393D01*
X0332572Y0254279D01*
X0332646Y0254163D01*
X0332716Y0254045D01*
X0332783Y0253925D01*
X0332847Y0253803D01*
X0332906Y0253679D01*
X0332963Y0253554D01*
X0333015Y0253427D01*
X0333064Y0253299D01*
X0333109Y0253169D01*
X0333151Y0253038D01*
X0333188Y0252906D01*
X0333222Y0252772D01*
X0333251Y0252638D01*
X0333277Y0252503D01*
X0333299Y0252368D01*
X0333317Y0252231D01*
X0333331Y0252095D01*
X0333341Y0251958D01*
X0333347Y0251820D01*
X0333349Y0251683D01*
X0333347Y0251546D01*
X0333341Y0251408D01*
X0333331Y0251271D01*
X0333317Y0251135D01*
X0333299Y0250998D01*
X0333277Y0250863D01*
X0333251Y0250728D01*
X0333222Y0250594D01*
X0333188Y0250460D01*
X0333151Y0250328D01*
X0333109Y0250197D01*
X0333064Y0250067D01*
X0333015Y0249939D01*
X0332963Y0249812D01*
X0332906Y0249687D01*
X0332847Y0249563D01*
X0332783Y0249441D01*
X0332716Y0249321D01*
X0332646Y0249203D01*
X0332572Y0249087D01*
X0332495Y0248973D01*
X0332414Y0248862D01*
X0332331Y0248753D01*
X0332244Y0248646D01*
X0332154Y0248543D01*
X0332061Y0248441D01*
X0331965Y0248343D01*
X0331867Y0248247D01*
X0331765Y0248154D01*
X0331662Y0248064D01*
X0331555Y0247977D01*
X0331446Y0247894D01*
X0331335Y0247813D01*
X0331221Y0247736D01*
X0331105Y0247662D01*
X0330987Y0247592D01*
X0330867Y0247525D01*
X0330745Y0247461D01*
X0330621Y0247402D01*
X0330496Y0247345D01*
X0330369Y0247293D01*
X0330241Y0247244D01*
X0330111Y0247199D01*
X0329980Y0247157D01*
X0329848Y0247120D01*
X0329714Y0247086D01*
X0329580Y0247057D01*
X0329445Y0247031D01*
X0329310Y0247009D01*
X0329173Y0246991D01*
X0329037Y0246977D01*
X0328900Y0246967D01*
X0328762Y0246961D01*
X0328625Y0246959D01*
X0328488Y0246961D01*
X0328350Y0246967D01*
X0328213Y0246977D01*
X0328077Y0246991D01*
X0327940Y0247009D01*
X0327805Y0247031D01*
X0327670Y0247057D01*
X0327536Y0247086D01*
X0327402Y0247120D01*
X0327270Y0247157D01*
X0327139Y0247199D01*
X0327009Y0247244D01*
X0326881Y0247293D01*
X0326754Y0247345D01*
X0326629Y0247402D01*
X0326505Y0247461D01*
X0326383Y0247525D01*
X0326263Y0247592D01*
X0326145Y0247662D01*
X0326029Y0247736D01*
X0325915Y0247813D01*
X0325804Y0247894D01*
X0325695Y0247977D01*
X0325588Y0248064D01*
X0325485Y0248154D01*
X0325383Y0248247D01*
X0325285Y0248343D01*
X0325189Y0248441D01*
X0325096Y0248543D01*
X0325006Y0248646D01*
X0324919Y0248753D01*
X0324836Y0248862D01*
X0324755Y0248973D01*
X0324678Y0249087D01*
X0324604Y0249203D01*
X0324534Y0249321D01*
X0324467Y0249441D01*
X0324403Y0249563D01*
X0324344Y0249687D01*
X0324287Y0249812D01*
X0324235Y0249939D01*
X0324186Y0250067D01*
X0324141Y0250197D01*
X0324099Y0250328D01*
X0324062Y0250460D01*
X0324028Y0250594D01*
X0323999Y0250728D01*
X0323973Y0250863D01*
X0323951Y0250998D01*
X0323933Y0251135D01*
X0323919Y0251271D01*
X0323909Y0251408D01*
X0323903Y0251546D01*
X0323901Y0251683D01*
D11*
X0476776Y0330177D03*
X0489776Y0330177D03*
D12*
X0203698Y0321894D02*
X0203698Y0315894D01*
X0193698Y0315894D02*
X0193698Y0321894D01*
X0183698Y0321894D02*
X0183698Y0315894D01*
X0168264Y0315894D02*
X0168264Y0321894D01*
X0158264Y0321894D02*
X0158264Y0315894D01*
X0148264Y0315894D02*
X0148264Y0321894D01*
D13*
X0126020Y0279524D03*
X0096020Y0279524D03*
X0229879Y0279524D03*
X0259879Y0279524D03*
X0363737Y0279524D03*
X0393737Y0279524D03*
X0497595Y0279524D03*
X0527595Y0279524D03*
X0257379Y0115980D03*
X0232379Y0115980D03*
D14*
X0227379Y0128480D03*
X0217379Y0123480D03*
X0209879Y0125980D03*
X0202379Y0128480D03*
X0244879Y0108480D03*
X0244879Y0093598D03*
X0259879Y0130980D03*
X0363737Y0130980D03*
X0366237Y0115980D03*
X0378737Y0108480D03*
X0391237Y0115980D03*
X0393737Y0128480D03*
X0403737Y0150980D03*
X0411237Y0153480D03*
X0418737Y0155980D03*
X0411237Y0085980D03*
X0411217Y0239524D03*
X0378737Y0262004D03*
X0277359Y0239524D03*
X0244879Y0262004D03*
X0143501Y0239524D03*
X0111020Y0262004D03*
X0512595Y0262004D03*
X0545075Y0239524D03*
X0633953Y0269524D03*
X0646453Y0262024D03*
X0658953Y0269524D03*
X0661453Y0282024D03*
X0631453Y0284524D03*
X0671453Y0304524D03*
X0678953Y0307024D03*
X0686453Y0309524D03*
X0678953Y0239524D03*
D15*
X0333776Y0189177D03*
X0323776Y0189177D03*
X0313776Y0189177D03*
X0272776Y0189177D03*
X0262776Y0189177D03*
X0252776Y0189177D03*
D16*
X0282776Y0189177D03*
X0343776Y0189177D03*
D17*
X0422776Y0208177D03*
X0201776Y0092177D03*
X0083776Y0331177D03*
X0687776Y0332177D03*
D18*
X0684428Y0330917D02*
X0582808Y0330917D01*
X0582454Y0330770D02*
X0583706Y0331289D01*
X0584665Y0332247D01*
X0585183Y0333499D01*
X0585183Y0334855D01*
X0584665Y0336107D01*
X0583706Y0337066D01*
X0582454Y0337584D01*
X0581099Y0337584D01*
X0579846Y0337066D01*
X0579065Y0336284D01*
X0496649Y0336284D01*
X0495649Y0337284D01*
X0461649Y0337284D01*
X0439883Y0359050D01*
X0438649Y0360284D01*
X0394903Y0360284D01*
X0393669Y0359050D01*
X0393669Y0359050D01*
X0392669Y0358050D01*
X0392669Y0349152D01*
X0392329Y0348812D01*
X0391890Y0347751D01*
X0391890Y0346603D01*
X0392329Y0345542D01*
X0393141Y0344730D01*
X0394202Y0344291D01*
X0395350Y0344291D01*
X0396411Y0344730D01*
X0397223Y0345542D01*
X0397663Y0346603D01*
X0397663Y0347751D01*
X0397223Y0348812D01*
X0396883Y0349152D01*
X0396883Y0356070D01*
X0405689Y0356070D01*
X0405669Y0356050D01*
X0405669Y0353050D01*
X0402683Y0350064D01*
X0402202Y0350064D01*
X0401141Y0349624D01*
X0400329Y0348812D01*
X0399890Y0347751D01*
X0399890Y0346603D01*
X0400329Y0345542D01*
X0401141Y0344730D01*
X0402202Y0344291D01*
X0403350Y0344291D01*
X0404411Y0344730D01*
X0405223Y0345542D01*
X0405663Y0346603D01*
X0405663Y0347084D01*
X0408649Y0350070D01*
X0409883Y0351304D01*
X0409883Y0354070D01*
X0435903Y0354070D01*
X0453669Y0336304D01*
X0453669Y0336152D01*
X0453329Y0335812D01*
X0452890Y0334751D01*
X0452890Y0333603D01*
X0453329Y0332542D01*
X0454141Y0331730D01*
X0454493Y0331584D01*
X0428451Y0331584D01*
X0428411Y0331624D01*
X0427350Y0332064D01*
X0426202Y0332064D01*
X0425141Y0331624D01*
X0424329Y0330812D01*
X0423890Y0329751D01*
X0423890Y0328603D01*
X0424329Y0327542D01*
X0425141Y0326730D01*
X0426202Y0326291D01*
X0427350Y0326291D01*
X0428411Y0326730D01*
X0428451Y0326770D01*
X0473456Y0326770D01*
X0474806Y0325420D01*
X0478747Y0325420D01*
X0481533Y0328207D01*
X0481533Y0332148D01*
X0480611Y0333070D01*
X0485969Y0333070D01*
X0485039Y0332139D01*
X0485039Y0330277D01*
X0489676Y0330277D01*
X0489676Y0330077D01*
X0485039Y0330077D01*
X0485039Y0328215D01*
X0487814Y0325440D01*
X0489676Y0325440D01*
X0489676Y0330077D01*
X0489876Y0330077D01*
X0489876Y0325440D01*
X0491739Y0325440D01*
X0494514Y0328215D01*
X0494514Y0330077D01*
X0489876Y0330077D01*
X0489876Y0330277D01*
X0494514Y0330277D01*
X0494514Y0332139D01*
X0493583Y0333070D01*
X0493903Y0333070D01*
X0494903Y0332070D01*
X0579065Y0332070D01*
X0579846Y0331289D01*
X0581099Y0330770D01*
X0582454Y0330770D01*
X0580745Y0330917D02*
X0494514Y0330917D01*
X0494514Y0329318D02*
X0685579Y0329318D01*
X0685751Y0329146D02*
X0687065Y0328602D01*
X0688487Y0328602D01*
X0689802Y0329146D01*
X0690807Y0330152D01*
X0691352Y0331466D01*
X0691352Y0332888D01*
X0690807Y0334203D01*
X0689802Y0335208D01*
X0688487Y0335753D01*
X0687065Y0335753D01*
X0685751Y0335208D01*
X0684745Y0334203D01*
X0684201Y0332888D01*
X0684201Y0331466D01*
X0684745Y0330152D01*
X0685751Y0329146D01*
X0684201Y0332515D02*
X0584776Y0332515D01*
X0585183Y0334114D02*
X0684708Y0334114D01*
X0686967Y0335712D02*
X0584828Y0335712D01*
X0583114Y0337311D02*
X0690870Y0337311D01*
X0690376Y0337670D02*
X0692913Y0335826D01*
X0694757Y0333288D01*
X0695727Y0330305D01*
X0695850Y0328736D01*
X0695850Y0228343D01*
X0695727Y0226774D01*
X0694757Y0223790D01*
X0692913Y0221253D01*
X0690376Y0219409D01*
X0687392Y0218439D01*
X0685823Y0218316D01*
X0439576Y0218316D01*
X0435480Y0216985D01*
X0435480Y0216985D01*
X0431996Y0214454D01*
X0431996Y0214454D01*
X0431996Y0214454D01*
X0429465Y0210970D01*
X0428134Y0206874D01*
X0428134Y0086610D01*
X0428010Y0085042D01*
X0427041Y0082058D01*
X0425197Y0079520D01*
X0422659Y0077676D01*
X0419675Y0076707D01*
X0418107Y0076583D01*
X0205509Y0076583D01*
X0203940Y0076707D01*
X0200956Y0077676D01*
X0198419Y0079520D01*
X0196575Y0082058D01*
X0195605Y0085042D01*
X0195482Y0086610D01*
X0195482Y0206874D01*
X0194151Y0210970D01*
X0191620Y0214454D01*
X0188136Y0216985D01*
X0188136Y0216985D01*
X0184040Y0218316D01*
X0059839Y0218316D01*
X0058271Y0218439D01*
X0055287Y0219409D01*
X0052749Y0221253D01*
X0050905Y0223790D01*
X0049936Y0226774D01*
X0049812Y0228343D01*
X0049812Y0328736D01*
X0049936Y0330305D01*
X0050905Y0333288D01*
X0052749Y0335826D01*
X0055287Y0337670D01*
X0058271Y0338640D01*
X0059839Y0338763D01*
X0290989Y0338763D01*
X0294446Y0339689D01*
X0297547Y0341479D01*
X0298812Y0342745D01*
X0298812Y0342745D01*
X0299335Y0343268D01*
X0316961Y0360894D01*
X0317484Y0361417D01*
X0318470Y0362282D01*
X0320737Y0363590D01*
X0323265Y0364268D01*
X0324574Y0364354D01*
X0432900Y0364354D01*
X0434208Y0364268D01*
X0436737Y0363590D01*
X0439004Y0362282D01*
X0439990Y0361417D01*
X0440464Y0360943D01*
X0458139Y0343268D01*
X0458139Y0343268D01*
X0458662Y0342745D01*
X0459927Y0341479D01*
X0463027Y0339689D01*
X0466485Y0338763D01*
X0685824Y0338763D01*
X0687392Y0338640D01*
X0690376Y0337670D01*
X0688585Y0335712D02*
X0692996Y0335712D01*
X0694158Y0334114D02*
X0690844Y0334114D01*
X0691352Y0332515D02*
X0695009Y0332515D01*
X0695528Y0330917D02*
X0691124Y0330917D01*
X0689974Y0329318D02*
X0695804Y0329318D01*
X0695850Y0327720D02*
X0494018Y0327720D01*
X0492420Y0326121D02*
X0695850Y0326121D01*
X0695850Y0324523D02*
X0397343Y0324523D01*
X0397223Y0324812D02*
X0396411Y0325624D01*
X0395350Y0326064D01*
X0394202Y0326064D01*
X0393141Y0325624D01*
X0392329Y0324812D01*
X0391890Y0323751D01*
X0391890Y0322603D01*
X0392329Y0321542D01*
X0393141Y0320730D01*
X0394202Y0320291D01*
X0394683Y0320291D01*
X0396903Y0318070D01*
X0541801Y0318070D01*
X0542141Y0317730D01*
X0543202Y0317291D01*
X0544350Y0317291D01*
X0545411Y0317730D01*
X0546223Y0318542D01*
X0546663Y0319603D01*
X0546663Y0320751D01*
X0546223Y0321812D01*
X0545411Y0322624D01*
X0544350Y0323064D01*
X0543202Y0323064D01*
X0542141Y0322624D01*
X0541801Y0322284D01*
X0398649Y0322284D01*
X0397663Y0323270D01*
X0397663Y0323751D01*
X0397223Y0324812D01*
X0398009Y0322924D02*
X0542865Y0322924D01*
X0544688Y0322924D02*
X0695850Y0322924D01*
X0695850Y0321326D02*
X0546425Y0321326D01*
X0546663Y0319727D02*
X0558294Y0319727D01*
X0558329Y0319812D02*
X0557890Y0318751D01*
X0557890Y0317603D01*
X0558329Y0316542D01*
X0559141Y0315730D01*
X0560202Y0315291D01*
X0561350Y0315291D01*
X0562411Y0315730D01*
X0562751Y0316070D01*
X0579903Y0316070D01*
X0580890Y0315084D01*
X0580890Y0314603D01*
X0581329Y0313542D01*
X0582141Y0312730D01*
X0583202Y0312291D01*
X0584350Y0312291D01*
X0585411Y0312730D01*
X0586223Y0313542D01*
X0586663Y0314603D01*
X0586663Y0315751D01*
X0586223Y0316812D01*
X0585411Y0317624D01*
X0584350Y0318064D01*
X0583869Y0318064D01*
X0581649Y0320284D01*
X0562751Y0320284D01*
X0562411Y0320624D01*
X0561350Y0321064D01*
X0560202Y0321064D01*
X0559141Y0320624D01*
X0558329Y0319812D01*
X0557890Y0318129D02*
X0545810Y0318129D01*
X0558341Y0316530D02*
X0215533Y0316530D01*
X0213935Y0314932D02*
X0580890Y0314932D01*
X0581538Y0313333D02*
X0212336Y0313333D01*
X0210738Y0311735D02*
X0676868Y0311735D01*
X0676036Y0311390D02*
X0674587Y0309941D01*
X0674184Y0308967D01*
X0672478Y0309674D01*
X0670429Y0309674D01*
X0668536Y0308890D01*
X0667087Y0307441D01*
X0666303Y0305548D01*
X0666303Y0303499D01*
X0667087Y0301606D01*
X0668536Y0300157D01*
X0670429Y0299373D01*
X0672478Y0299373D01*
X0674371Y0300157D01*
X0675820Y0301606D01*
X0676223Y0302580D01*
X0677929Y0301873D01*
X0679978Y0301873D01*
X0681871Y0302657D01*
X0683320Y0304106D01*
X0683723Y0305080D01*
X0685429Y0304373D01*
X0687478Y0304373D01*
X0689371Y0305157D01*
X0690820Y0306606D01*
X0691604Y0308499D01*
X0691604Y0310548D01*
X0690820Y0312441D01*
X0689371Y0313890D01*
X0687478Y0314674D01*
X0685429Y0314674D01*
X0683536Y0313890D01*
X0682087Y0312441D01*
X0681684Y0311467D01*
X0679978Y0312174D01*
X0677929Y0312174D01*
X0676036Y0311390D01*
X0674782Y0310136D02*
X0407900Y0310136D01*
X0408223Y0309812D02*
X0407411Y0310624D01*
X0406350Y0311064D01*
X0405202Y0311064D01*
X0404141Y0310624D01*
X0403801Y0310284D01*
X0239903Y0310284D01*
X0238683Y0309064D01*
X0238202Y0309064D01*
X0237141Y0308624D01*
X0236329Y0307812D01*
X0235890Y0306751D01*
X0235890Y0305603D01*
X0236329Y0304542D01*
X0237141Y0303730D01*
X0238202Y0303291D01*
X0239350Y0303291D01*
X0240411Y0303730D01*
X0241223Y0304542D01*
X0241663Y0305603D01*
X0241663Y0306070D01*
X0403801Y0306070D01*
X0404141Y0305730D01*
X0405202Y0305291D01*
X0406350Y0305291D01*
X0407411Y0305730D01*
X0408223Y0306542D01*
X0408663Y0307603D01*
X0408663Y0308751D01*
X0408223Y0309812D01*
X0408663Y0308537D02*
X0585157Y0308537D01*
X0584669Y0308050D02*
X0583903Y0307284D01*
X0576751Y0307284D01*
X0576411Y0307624D01*
X0575350Y0308064D01*
X0574202Y0308064D01*
X0573141Y0307624D01*
X0572329Y0306812D01*
X0571890Y0305751D01*
X0571890Y0304603D01*
X0572329Y0303542D01*
X0573141Y0302730D01*
X0574202Y0302291D01*
X0575350Y0302291D01*
X0576411Y0302730D01*
X0576751Y0303070D01*
X0583903Y0303070D01*
X0585649Y0303070D01*
X0587649Y0305070D01*
X0622801Y0305070D01*
X0623141Y0304730D01*
X0624202Y0304291D01*
X0625350Y0304291D01*
X0626411Y0304730D01*
X0627223Y0305542D01*
X0627663Y0306603D01*
X0627663Y0307751D01*
X0627223Y0308812D01*
X0626411Y0309624D01*
X0625350Y0310064D01*
X0624202Y0310064D01*
X0623141Y0309624D01*
X0622801Y0309284D01*
X0585903Y0309284D01*
X0584669Y0308050D01*
X0586321Y0303742D02*
X0666303Y0303742D01*
X0666303Y0305340D02*
X0627022Y0305340D01*
X0627663Y0306939D02*
X0666879Y0306939D01*
X0668184Y0308537D02*
X0627337Y0308537D01*
X0635649Y0298284D02*
X0587531Y0298284D01*
X0587663Y0298603D01*
X0587663Y0299751D01*
X0587223Y0300812D01*
X0586411Y0301624D01*
X0585350Y0302064D01*
X0584202Y0302064D01*
X0583141Y0301624D01*
X0583101Y0301584D01*
X0407773Y0301584D01*
X0407140Y0302218D01*
X0406255Y0302584D01*
X0334490Y0302584D01*
X0334379Y0302695D01*
X0334379Y0302751D01*
X0333940Y0303812D01*
X0333128Y0304624D01*
X0332067Y0305064D01*
X0330919Y0305064D01*
X0329858Y0304624D01*
X0329046Y0303812D01*
X0328606Y0302751D01*
X0328606Y0301603D01*
X0329046Y0300542D01*
X0329858Y0299730D01*
X0330919Y0299291D01*
X0330975Y0299291D01*
X0330982Y0299284D01*
X0112801Y0299284D01*
X0098759Y0285242D01*
X0097280Y0285855D01*
X0094761Y0285855D01*
X0092434Y0284891D01*
X0090653Y0283110D01*
X0089689Y0280783D01*
X0089689Y0278264D01*
X0090653Y0275937D01*
X0092434Y0274156D01*
X0094761Y0273192D01*
X0097280Y0273192D01*
X0099607Y0274156D01*
X0101388Y0275937D01*
X0102352Y0278264D01*
X0102352Y0280783D01*
X0101739Y0282262D01*
X0114547Y0295070D01*
X0338022Y0295070D01*
X0337890Y0294751D01*
X0337890Y0293603D01*
X0338329Y0292542D01*
X0339141Y0291730D01*
X0340202Y0291291D01*
X0340683Y0291291D01*
X0340903Y0291070D01*
X0406022Y0291070D01*
X0405890Y0290751D01*
X0405890Y0290270D01*
X0404903Y0289284D01*
X0370518Y0289284D01*
X0369283Y0288050D01*
X0366476Y0285242D01*
X0364996Y0285855D01*
X0362477Y0285855D01*
X0360150Y0284891D01*
X0358369Y0283110D01*
X0357405Y0280783D01*
X0357405Y0278264D01*
X0358369Y0275937D01*
X0360150Y0274156D01*
X0362477Y0273192D01*
X0364996Y0273192D01*
X0367323Y0274156D01*
X0369104Y0275937D01*
X0370068Y0278264D01*
X0370068Y0280783D01*
X0369456Y0282262D01*
X0372263Y0285070D01*
X0390719Y0285070D01*
X0390429Y0284922D01*
X0389625Y0284338D01*
X0388922Y0283635D01*
X0388339Y0282832D01*
X0387887Y0281947D01*
X0387580Y0281002D01*
X0387469Y0280298D01*
X0392962Y0280298D01*
X0392962Y0278749D01*
X0387469Y0278749D01*
X0387580Y0278046D01*
X0387887Y0277101D01*
X0388339Y0276216D01*
X0388922Y0275412D01*
X0389625Y0274709D01*
X0390429Y0274125D01*
X0391314Y0273674D01*
X0392259Y0273367D01*
X0392962Y0273256D01*
X0392962Y0278749D01*
X0394512Y0278749D01*
X0394512Y0280298D01*
X0400005Y0280298D01*
X0399893Y0281002D01*
X0399586Y0281947D01*
X0399135Y0282832D01*
X0398551Y0283635D01*
X0397849Y0284338D01*
X0397045Y0284922D01*
X0396754Y0285070D01*
X0406649Y0285070D01*
X0408869Y0287291D01*
X0409350Y0287291D01*
X0410411Y0287730D01*
X0411223Y0288542D01*
X0411663Y0289603D01*
X0411663Y0290751D01*
X0411531Y0291070D01*
X0555890Y0291070D01*
X0555890Y0290603D01*
X0556329Y0289542D01*
X0557141Y0288730D01*
X0558202Y0288291D01*
X0559350Y0288291D01*
X0560411Y0288730D01*
X0561223Y0289542D01*
X0561663Y0290603D01*
X0561663Y0291751D01*
X0561223Y0292812D01*
X0560411Y0293624D01*
X0559350Y0294064D01*
X0558869Y0294064D01*
X0558863Y0294070D01*
X0633903Y0294070D01*
X0634669Y0293304D01*
X0634669Y0292984D01*
X0568218Y0292984D01*
X0567186Y0292557D01*
X0566397Y0291767D01*
X0543613Y0268984D01*
X0105218Y0268984D01*
X0104186Y0268557D01*
X0103397Y0267767D01*
X0102969Y0266736D01*
X0102969Y0257619D01*
X0103397Y0256587D01*
X0104186Y0255797D01*
X0105218Y0255370D01*
X0189249Y0255370D01*
X0189249Y0255370D01*
X0188258Y0252977D01*
X0188258Y0250404D01*
X0135773Y0250284D01*
X0134903Y0250284D01*
X0134901Y0250282D01*
X0134899Y0250282D01*
X0134284Y0249665D01*
X0133669Y0249050D01*
X0133669Y0249047D01*
X0133667Y0249045D01*
X0133669Y0248175D01*
X0133669Y0233304D01*
X0134903Y0232070D01*
X0211094Y0232070D01*
X0210529Y0230706D01*
X0210529Y0228117D01*
X0211520Y0225725D01*
X0213351Y0223894D01*
X0215743Y0222903D01*
X0218332Y0222903D01*
X0220725Y0223894D01*
X0222556Y0225725D01*
X0223546Y0228117D01*
X0223546Y0230706D01*
X0222982Y0232070D01*
X0344952Y0232070D01*
X0344387Y0230706D01*
X0344387Y0228117D01*
X0345378Y0225725D01*
X0347209Y0223894D01*
X0349601Y0222903D01*
X0352191Y0222903D01*
X0354583Y0223894D01*
X0356414Y0225725D01*
X0357405Y0228117D01*
X0357405Y0230706D01*
X0356840Y0232070D01*
X0478811Y0232070D01*
X0478246Y0230706D01*
X0478246Y0228117D01*
X0479237Y0225725D01*
X0481067Y0223894D01*
X0483460Y0222903D01*
X0486049Y0222903D01*
X0488441Y0223894D01*
X0490272Y0225725D01*
X0491263Y0228117D01*
X0491263Y0230706D01*
X0490698Y0232070D01*
X0612669Y0232070D01*
X0612104Y0230706D01*
X0612104Y0228117D01*
X0613095Y0225725D01*
X0614926Y0223894D01*
X0617318Y0222903D01*
X0619907Y0222903D01*
X0622299Y0223894D01*
X0624130Y0225725D01*
X0625121Y0228117D01*
X0625121Y0230706D01*
X0624556Y0232070D01*
X0686712Y0232070D01*
X0687946Y0233304D01*
X0687946Y0249050D01*
X0686712Y0250284D01*
X0623633Y0250284D01*
X0607368Y0266550D01*
X0606133Y0267784D01*
X0590325Y0267784D01*
X0573823Y0251282D01*
X0468992Y0251043D01*
X0468992Y0252977D01*
X0468001Y0255370D01*
X0468001Y0255370D01*
X0556335Y0255370D01*
X0557366Y0255797D01*
X0558156Y0256587D01*
X0577939Y0276370D01*
X0634669Y0276370D01*
X0634669Y0274674D01*
X0632929Y0274674D01*
X0631036Y0273890D01*
X0629587Y0272441D01*
X0628803Y0270548D01*
X0628803Y0268499D01*
X0629587Y0266606D01*
X0631036Y0265157D01*
X0632929Y0264373D01*
X0634978Y0264373D01*
X0636871Y0265157D01*
X0638320Y0266606D01*
X0639104Y0268499D01*
X0639104Y0270548D01*
X0638768Y0271358D01*
X0638883Y0271474D01*
X0638883Y0277314D01*
X0639156Y0277587D01*
X0639583Y0278619D01*
X0639583Y0290736D01*
X0639156Y0291767D01*
X0638883Y0292040D01*
X0638883Y0295050D01*
X0637649Y0296284D01*
X0635649Y0298284D01*
X0636585Y0297348D02*
X0695850Y0297348D01*
X0695850Y0298946D02*
X0587663Y0298946D01*
X0587334Y0300545D02*
X0668148Y0300545D01*
X0666865Y0302143D02*
X0407214Y0302143D01*
X0405776Y0300177D02*
X0333493Y0300177D01*
X0331493Y0302177D01*
X0328606Y0302143D02*
X0049812Y0302143D01*
X0049812Y0300545D02*
X0329044Y0300545D01*
X0329016Y0303742D02*
X0240423Y0303742D01*
X0241554Y0305340D02*
X0405082Y0305340D01*
X0406471Y0305340D02*
X0571890Y0305340D01*
X0572246Y0303742D02*
X0333969Y0303742D01*
X0337890Y0294151D02*
X0113627Y0294151D01*
X0112029Y0292552D02*
X0338325Y0292552D01*
X0358308Y0282961D02*
X0265183Y0282961D01*
X0265277Y0282832D02*
X0264693Y0283635D01*
X0263990Y0284338D01*
X0263187Y0284922D01*
X0262301Y0285373D01*
X0261357Y0285680D01*
X0260653Y0285791D01*
X0260653Y0280298D01*
X0266146Y0280298D01*
X0266035Y0281002D01*
X0265728Y0281947D01*
X0265277Y0282832D01*
X0265918Y0281363D02*
X0357646Y0281363D01*
X0357405Y0279764D02*
X0260653Y0279764D01*
X0260653Y0280298D02*
X0260653Y0278749D01*
X0260653Y0273256D01*
X0261357Y0273367D01*
X0262301Y0273674D01*
X0263187Y0274125D01*
X0263990Y0274709D01*
X0264693Y0275412D01*
X0265277Y0276216D01*
X0265728Y0277101D01*
X0266035Y0278046D01*
X0266146Y0278749D01*
X0260653Y0278749D01*
X0259104Y0278749D01*
X0259104Y0273256D01*
X0258401Y0273367D01*
X0257456Y0273674D01*
X0256570Y0274125D01*
X0255767Y0274709D01*
X0255064Y0275412D01*
X0254480Y0276216D01*
X0254029Y0277101D01*
X0253722Y0278046D01*
X0253611Y0278749D01*
X0259104Y0278749D01*
X0259104Y0280298D01*
X0253611Y0280298D01*
X0253722Y0281002D01*
X0254029Y0281947D01*
X0254480Y0282832D01*
X0255064Y0283635D01*
X0255767Y0284338D01*
X0256570Y0284922D01*
X0257456Y0285373D01*
X0258401Y0285680D01*
X0259104Y0285791D01*
X0259104Y0280298D01*
X0260653Y0280298D01*
X0260653Y0281363D02*
X0259104Y0281363D01*
X0259104Y0282961D02*
X0260653Y0282961D01*
X0260653Y0284560D02*
X0259104Y0284560D01*
X0256072Y0284560D02*
X0233796Y0284560D01*
X0233465Y0284891D02*
X0231138Y0285855D01*
X0228619Y0285855D01*
X0226292Y0284891D01*
X0224511Y0283110D01*
X0223547Y0280783D01*
X0223547Y0278264D01*
X0224511Y0275937D01*
X0226292Y0274156D01*
X0228619Y0273192D01*
X0231138Y0273192D01*
X0233465Y0274156D01*
X0235246Y0275937D01*
X0236210Y0278264D01*
X0236210Y0280783D01*
X0235246Y0283110D01*
X0233465Y0284891D01*
X0235308Y0282961D02*
X0254574Y0282961D01*
X0253840Y0281363D02*
X0235970Y0281363D01*
X0236210Y0279764D02*
X0259104Y0279764D01*
X0259104Y0278166D02*
X0260653Y0278166D01*
X0260653Y0276567D02*
X0259104Y0276567D01*
X0259104Y0274969D02*
X0260653Y0274969D01*
X0260653Y0273370D02*
X0259104Y0273370D01*
X0258391Y0273370D02*
X0231568Y0273370D01*
X0234278Y0274969D02*
X0255507Y0274969D01*
X0254301Y0276567D02*
X0235507Y0276567D01*
X0236169Y0278166D02*
X0253703Y0278166D01*
X0261366Y0273370D02*
X0362047Y0273370D01*
X0359338Y0274969D02*
X0264250Y0274969D01*
X0265456Y0276567D02*
X0358108Y0276567D01*
X0357446Y0278166D02*
X0266054Y0278166D01*
X0263685Y0284560D02*
X0359819Y0284560D01*
X0367392Y0286158D02*
X0105635Y0286158D01*
X0104036Y0284560D02*
X0122214Y0284560D01*
X0121908Y0284338D02*
X0121206Y0283635D01*
X0120622Y0282832D01*
X0120171Y0281947D01*
X0119864Y0281002D01*
X0119753Y0280298D01*
X0125245Y0280298D01*
X0125245Y0278749D01*
X0119753Y0278749D01*
X0119864Y0278046D01*
X0120171Y0277101D01*
X0120622Y0276216D01*
X0121206Y0275412D01*
X0121908Y0274709D01*
X0122712Y0274125D01*
X0123597Y0273674D01*
X0124542Y0273367D01*
X0125246Y0273256D01*
X0125246Y0278749D01*
X0126795Y0278749D01*
X0126795Y0280298D01*
X0132288Y0280298D01*
X0132177Y0281002D01*
X0131870Y0281947D01*
X0131419Y0282832D01*
X0130835Y0283635D01*
X0130132Y0284338D01*
X0129328Y0284922D01*
X0128443Y0285373D01*
X0127498Y0285680D01*
X0126795Y0285791D01*
X0126795Y0280298D01*
X0125246Y0280298D01*
X0125246Y0285791D01*
X0124542Y0285680D01*
X0123597Y0285373D01*
X0122712Y0284922D01*
X0121908Y0284338D01*
X0120716Y0282961D02*
X0102438Y0282961D01*
X0102112Y0281363D02*
X0119981Y0281363D01*
X0119845Y0278166D02*
X0102311Y0278166D01*
X0102352Y0279764D02*
X0125245Y0279764D01*
X0126795Y0279764D02*
X0223547Y0279764D01*
X0223588Y0278166D02*
X0132196Y0278166D01*
X0132177Y0278046D02*
X0132288Y0278749D01*
X0126795Y0278749D01*
X0126795Y0273256D01*
X0127498Y0273367D01*
X0128443Y0273674D01*
X0129328Y0274125D01*
X0130132Y0274709D01*
X0130835Y0275412D01*
X0131419Y0276216D01*
X0131870Y0277101D01*
X0132177Y0278046D01*
X0131598Y0276567D02*
X0224250Y0276567D01*
X0225479Y0274969D02*
X0130392Y0274969D01*
X0127508Y0273370D02*
X0228189Y0273370D01*
X0223787Y0281363D02*
X0132059Y0281363D01*
X0131325Y0282961D02*
X0224449Y0282961D01*
X0225961Y0284560D02*
X0129827Y0284560D01*
X0126795Y0284560D02*
X0125246Y0284560D01*
X0125246Y0282961D02*
X0126795Y0282961D01*
X0126795Y0281363D02*
X0125246Y0281363D01*
X0125246Y0278166D02*
X0126795Y0278166D01*
X0126795Y0276567D02*
X0125246Y0276567D01*
X0125246Y0274969D02*
X0126795Y0274969D01*
X0126795Y0273370D02*
X0125246Y0273370D01*
X0124533Y0273370D02*
X0097710Y0273370D01*
X0100420Y0274969D02*
X0121649Y0274969D01*
X0120443Y0276567D02*
X0101649Y0276567D01*
X0094331Y0273370D02*
X0049812Y0273370D01*
X0049812Y0271772D02*
X0546401Y0271772D01*
X0547999Y0273370D02*
X0529082Y0273370D01*
X0529073Y0273367D02*
X0530018Y0273674D01*
X0530903Y0274125D01*
X0531707Y0274709D01*
X0532410Y0275412D01*
X0532993Y0276216D01*
X0533445Y0277101D01*
X0533752Y0278046D01*
X0533863Y0278749D01*
X0528370Y0278749D01*
X0528370Y0280298D01*
X0533863Y0280298D01*
X0533752Y0281002D01*
X0533445Y0281947D01*
X0532993Y0282832D01*
X0532410Y0283635D01*
X0531707Y0284338D01*
X0530903Y0284922D01*
X0530018Y0285373D01*
X0529073Y0285680D01*
X0528370Y0285791D01*
X0528370Y0280298D01*
X0526820Y0280298D01*
X0526820Y0278749D01*
X0521327Y0278749D01*
X0521439Y0278046D01*
X0521746Y0277101D01*
X0522197Y0276216D01*
X0522781Y0275412D01*
X0523483Y0274709D01*
X0524287Y0274125D01*
X0525172Y0273674D01*
X0526117Y0273367D01*
X0526820Y0273256D01*
X0526820Y0278749D01*
X0528370Y0278749D01*
X0528370Y0273256D01*
X0529073Y0273367D01*
X0528370Y0273370D02*
X0526820Y0273370D01*
X0526108Y0273370D02*
X0499285Y0273370D01*
X0498855Y0273192D02*
X0501182Y0274156D01*
X0502963Y0275937D01*
X0503927Y0278264D01*
X0503927Y0280783D01*
X0502963Y0283110D01*
X0501182Y0284891D01*
X0498855Y0285855D01*
X0496336Y0285855D01*
X0494009Y0284891D01*
X0492228Y0283110D01*
X0491264Y0280783D01*
X0491264Y0278264D01*
X0492228Y0275937D01*
X0494009Y0274156D01*
X0496336Y0273192D01*
X0498855Y0273192D01*
X0495906Y0273370D02*
X0395224Y0273370D01*
X0395215Y0273367D02*
X0396160Y0273674D01*
X0397045Y0274125D01*
X0397849Y0274709D01*
X0398551Y0275412D01*
X0399135Y0276216D01*
X0399586Y0277101D01*
X0399893Y0278046D01*
X0400005Y0278749D01*
X0394512Y0278749D01*
X0394512Y0273256D01*
X0395215Y0273367D01*
X0394512Y0273370D02*
X0392962Y0273370D01*
X0392250Y0273370D02*
X0365426Y0273370D01*
X0368136Y0274969D02*
X0389365Y0274969D01*
X0388159Y0276567D02*
X0369365Y0276567D01*
X0370028Y0278166D02*
X0387561Y0278166D01*
X0387698Y0281363D02*
X0369828Y0281363D01*
X0370068Y0279764D02*
X0392962Y0279764D01*
X0394512Y0279764D02*
X0491264Y0279764D01*
X0491304Y0278166D02*
X0399912Y0278166D01*
X0399314Y0276567D02*
X0491967Y0276567D01*
X0493196Y0274969D02*
X0398108Y0274969D01*
X0394512Y0274969D02*
X0392962Y0274969D01*
X0392962Y0276567D02*
X0394512Y0276567D01*
X0394512Y0278166D02*
X0392962Y0278166D01*
X0388433Y0282961D02*
X0370154Y0282961D01*
X0371753Y0284560D02*
X0389930Y0284560D01*
X0397543Y0284560D02*
X0493677Y0284560D01*
X0492166Y0282961D02*
X0399041Y0282961D01*
X0399776Y0281363D02*
X0491504Y0281363D01*
X0501513Y0284560D02*
X0523789Y0284560D01*
X0523483Y0284338D02*
X0522781Y0283635D01*
X0522197Y0282832D01*
X0521746Y0281947D01*
X0521439Y0281002D01*
X0521327Y0280298D01*
X0526820Y0280298D01*
X0526820Y0285791D01*
X0526117Y0285680D01*
X0525172Y0285373D01*
X0524287Y0284922D01*
X0523483Y0284338D01*
X0522291Y0282961D02*
X0503024Y0282961D01*
X0503686Y0281363D02*
X0521556Y0281363D01*
X0521420Y0278166D02*
X0503886Y0278166D01*
X0503927Y0279764D02*
X0526820Y0279764D01*
X0528370Y0279764D02*
X0554394Y0279764D01*
X0555992Y0281363D02*
X0533634Y0281363D01*
X0532899Y0282961D02*
X0557591Y0282961D01*
X0559189Y0284560D02*
X0531402Y0284560D01*
X0528370Y0284560D02*
X0526820Y0284560D01*
X0526820Y0282961D02*
X0528370Y0282961D01*
X0528370Y0281363D02*
X0526820Y0281363D01*
X0526820Y0278166D02*
X0528370Y0278166D01*
X0528370Y0276567D02*
X0526820Y0276567D01*
X0526820Y0274969D02*
X0528370Y0274969D01*
X0531967Y0274969D02*
X0549598Y0274969D01*
X0551197Y0276567D02*
X0533173Y0276567D01*
X0533771Y0278166D02*
X0552795Y0278166D01*
X0560788Y0286158D02*
X0407737Y0286158D01*
X0410438Y0287757D02*
X0562386Y0287757D01*
X0561037Y0289355D02*
X0563985Y0289355D01*
X0565583Y0290954D02*
X0561663Y0290954D01*
X0561331Y0292552D02*
X0567182Y0292552D01*
X0556516Y0289355D02*
X0411560Y0289355D01*
X0411579Y0290954D02*
X0555890Y0290954D01*
X0574939Y0273370D02*
X0630516Y0273370D01*
X0629310Y0271772D02*
X0573341Y0271772D01*
X0571742Y0270173D02*
X0628803Y0270173D01*
X0628803Y0268575D02*
X0570144Y0268575D01*
X0568545Y0266976D02*
X0589517Y0266976D01*
X0587918Y0265378D02*
X0566947Y0265378D01*
X0565348Y0263779D02*
X0586320Y0263779D01*
X0584721Y0262181D02*
X0563750Y0262181D01*
X0562151Y0260582D02*
X0583123Y0260582D01*
X0581524Y0258984D02*
X0560553Y0258984D01*
X0558954Y0257385D02*
X0579926Y0257385D01*
X0578327Y0255787D02*
X0557340Y0255787D01*
X0575130Y0252590D02*
X0468992Y0252590D01*
X0468490Y0254188D02*
X0576729Y0254188D01*
X0606941Y0266976D02*
X0629434Y0266976D01*
X0630816Y0265378D02*
X0608540Y0265378D01*
X0610138Y0263779D02*
X0641606Y0263779D01*
X0641303Y0263048D02*
X0642087Y0264941D01*
X0643536Y0266390D01*
X0645429Y0267174D01*
X0647478Y0267174D01*
X0649371Y0266390D01*
X0650820Y0264941D01*
X0651604Y0263048D01*
X0651604Y0260999D01*
X0650820Y0259106D01*
X0649371Y0257657D01*
X0647478Y0256873D01*
X0645429Y0256873D01*
X0643536Y0257657D01*
X0642087Y0259106D01*
X0641303Y0260999D01*
X0641303Y0263048D01*
X0641303Y0262181D02*
X0611737Y0262181D01*
X0613335Y0260582D02*
X0641476Y0260582D01*
X0642210Y0258984D02*
X0614934Y0258984D01*
X0616532Y0257385D02*
X0644193Y0257385D01*
X0648714Y0257385D02*
X0695850Y0257385D01*
X0695850Y0255787D02*
X0618131Y0255787D01*
X0619729Y0254188D02*
X0695850Y0254188D01*
X0695850Y0252590D02*
X0621328Y0252590D01*
X0622926Y0250991D02*
X0695850Y0250991D01*
X0695850Y0249393D02*
X0687604Y0249393D01*
X0687946Y0247794D02*
X0695850Y0247794D01*
X0695850Y0246196D02*
X0687946Y0246196D01*
X0687946Y0244597D02*
X0695850Y0244597D01*
X0695850Y0242999D02*
X0687946Y0242999D01*
X0687946Y0241400D02*
X0695850Y0241400D01*
X0695850Y0239802D02*
X0687946Y0239802D01*
X0687946Y0238203D02*
X0695850Y0238203D01*
X0695850Y0236604D02*
X0687946Y0236604D01*
X0687946Y0235006D02*
X0695850Y0235006D01*
X0695850Y0233407D02*
X0687946Y0233407D01*
X0695850Y0231809D02*
X0624664Y0231809D01*
X0625121Y0230210D02*
X0695850Y0230210D01*
X0695850Y0228612D02*
X0625121Y0228612D01*
X0624664Y0227013D02*
X0695746Y0227013D01*
X0695285Y0225415D02*
X0623820Y0225415D01*
X0622112Y0223816D02*
X0694766Y0223816D01*
X0693615Y0222218D02*
X0052048Y0222218D01*
X0050897Y0223816D02*
X0079680Y0223816D01*
X0079493Y0223894D02*
X0081885Y0222903D01*
X0084474Y0222903D01*
X0086866Y0223894D01*
X0088697Y0225725D01*
X0089688Y0228117D01*
X0089688Y0230706D01*
X0088697Y0233099D01*
X0086866Y0234929D01*
X0084474Y0235920D01*
X0081885Y0235920D01*
X0079493Y0234929D01*
X0077662Y0233099D01*
X0076671Y0230706D01*
X0076671Y0228117D01*
X0077662Y0225725D01*
X0079493Y0223894D01*
X0077972Y0225415D02*
X0050377Y0225415D01*
X0049917Y0227013D02*
X0077128Y0227013D01*
X0076671Y0228612D02*
X0049812Y0228612D01*
X0049812Y0230210D02*
X0076671Y0230210D01*
X0077128Y0231809D02*
X0049812Y0231809D01*
X0049812Y0233407D02*
X0077971Y0233407D01*
X0079677Y0235006D02*
X0049812Y0235006D01*
X0049812Y0236604D02*
X0133669Y0236604D01*
X0133669Y0235006D02*
X0086682Y0235006D01*
X0088388Y0233407D02*
X0133669Y0233407D01*
X0133669Y0238203D02*
X0049812Y0238203D01*
X0049812Y0239802D02*
X0133669Y0239802D01*
X0133669Y0241400D02*
X0049812Y0241400D01*
X0049812Y0242999D02*
X0133669Y0242999D01*
X0133669Y0244597D02*
X0049812Y0244597D01*
X0049812Y0246196D02*
X0057191Y0246196D01*
X0057222Y0246165D02*
X0059614Y0245174D01*
X0062203Y0245174D01*
X0064595Y0246165D01*
X0066426Y0247996D01*
X0067417Y0250388D01*
X0067417Y0252977D01*
X0066426Y0255370D01*
X0064595Y0257201D01*
X0062203Y0258191D01*
X0059614Y0258191D01*
X0057222Y0257201D01*
X0055391Y0255370D01*
X0054400Y0252977D01*
X0054400Y0250388D01*
X0055391Y0247996D01*
X0057222Y0246165D01*
X0055592Y0247794D02*
X0049812Y0247794D01*
X0049812Y0249393D02*
X0054812Y0249393D01*
X0054400Y0250991D02*
X0049812Y0250991D01*
X0049812Y0252590D02*
X0054400Y0252590D01*
X0054901Y0254188D02*
X0049812Y0254188D01*
X0049812Y0255787D02*
X0055808Y0255787D01*
X0057667Y0257385D02*
X0049812Y0257385D01*
X0049812Y0258984D02*
X0102969Y0258984D01*
X0102969Y0260582D02*
X0049812Y0260582D01*
X0049812Y0262181D02*
X0102969Y0262181D01*
X0102969Y0263779D02*
X0049812Y0263779D01*
X0049812Y0265378D02*
X0102969Y0265378D01*
X0103069Y0266976D02*
X0049812Y0266976D01*
X0049812Y0268575D02*
X0104229Y0268575D01*
X0091621Y0274969D02*
X0049812Y0274969D01*
X0049812Y0276567D02*
X0090392Y0276567D01*
X0089730Y0278166D02*
X0049812Y0278166D01*
X0049812Y0279764D02*
X0089689Y0279764D01*
X0089929Y0281363D02*
X0049812Y0281363D01*
X0049812Y0282961D02*
X0090591Y0282961D01*
X0092102Y0284560D02*
X0049812Y0284560D01*
X0049812Y0286158D02*
X0099675Y0286158D01*
X0101274Y0287757D02*
X0049812Y0287757D01*
X0049812Y0289355D02*
X0102872Y0289355D01*
X0104471Y0290954D02*
X0049812Y0290954D01*
X0049812Y0292552D02*
X0106069Y0292552D01*
X0107668Y0294151D02*
X0049812Y0294151D01*
X0049812Y0295749D02*
X0109266Y0295749D01*
X0110865Y0297348D02*
X0049812Y0297348D01*
X0049812Y0298946D02*
X0112463Y0298946D01*
X0110430Y0290954D02*
X0405974Y0290954D01*
X0404975Y0289355D02*
X0108832Y0289355D01*
X0107233Y0287757D02*
X0368990Y0287757D01*
X0405776Y0300177D02*
X0406776Y0299177D01*
X0584776Y0299177D01*
X0572456Y0306939D02*
X0408388Y0306939D01*
X0396845Y0318129D02*
X0356810Y0318129D01*
X0356411Y0317730D02*
X0357223Y0318542D01*
X0357663Y0319603D01*
X0357663Y0320751D01*
X0357223Y0321812D01*
X0356411Y0322624D01*
X0355350Y0323064D01*
X0354202Y0323064D01*
X0353155Y0322630D01*
X0353183Y0322698D01*
X0353183Y0331656D01*
X0352817Y0332541D01*
X0352140Y0333218D01*
X0351255Y0333584D01*
X0211297Y0333584D01*
X0210413Y0333218D01*
X0206779Y0329584D01*
X0142297Y0329584D01*
X0141413Y0329218D01*
X0140736Y0328541D01*
X0140369Y0327656D01*
X0140369Y0326698D01*
X0140369Y0311656D01*
X0140369Y0310698D01*
X0140736Y0309814D01*
X0141413Y0309137D01*
X0142297Y0308770D01*
X0207255Y0308770D01*
X0208140Y0309137D01*
X0218100Y0319096D01*
X0218329Y0318542D01*
X0219141Y0317730D01*
X0220202Y0317291D01*
X0221350Y0317291D01*
X0222411Y0317730D01*
X0222451Y0317770D01*
X0353101Y0317770D01*
X0353141Y0317730D01*
X0354202Y0317291D01*
X0355350Y0317291D01*
X0356411Y0317730D01*
X0357663Y0319727D02*
X0395246Y0319727D01*
X0392546Y0321326D02*
X0357425Y0321326D01*
X0355688Y0322924D02*
X0391890Y0322924D01*
X0392209Y0324523D02*
X0353183Y0324523D01*
X0353183Y0326121D02*
X0474105Y0326121D01*
X0475776Y0329177D02*
X0476776Y0330177D01*
X0475776Y0329177D02*
X0426776Y0329177D01*
X0423890Y0329318D02*
X0353183Y0329318D01*
X0353183Y0327720D02*
X0424256Y0327720D01*
X0424433Y0330917D02*
X0353183Y0330917D01*
X0352827Y0332515D02*
X0453356Y0332515D01*
X0452890Y0334114D02*
X0085896Y0334114D01*
X0085802Y0334208D02*
X0084487Y0334753D01*
X0083065Y0334753D01*
X0081751Y0334208D01*
X0080745Y0333203D01*
X0080201Y0331888D01*
X0080201Y0330466D01*
X0080745Y0329152D01*
X0081751Y0328146D01*
X0083065Y0327602D01*
X0084487Y0327602D01*
X0085802Y0328146D01*
X0086807Y0329152D01*
X0087352Y0330466D01*
X0087352Y0331888D01*
X0086807Y0333203D01*
X0085802Y0334208D01*
X0087092Y0332515D02*
X0209710Y0332515D01*
X0208112Y0330917D02*
X0087352Y0330917D01*
X0086876Y0329318D02*
X0141655Y0329318D01*
X0140396Y0327720D02*
X0084772Y0327720D01*
X0082780Y0327720D02*
X0049812Y0327720D01*
X0049858Y0329318D02*
X0080676Y0329318D01*
X0080201Y0330917D02*
X0050135Y0330917D01*
X0050654Y0332515D02*
X0080460Y0332515D01*
X0081656Y0334114D02*
X0051505Y0334114D01*
X0052666Y0335712D02*
X0453288Y0335712D01*
X0452663Y0337311D02*
X0054792Y0337311D01*
X0049812Y0326121D02*
X0140369Y0326121D01*
X0140369Y0324523D02*
X0049812Y0324523D01*
X0049812Y0322924D02*
X0140369Y0322924D01*
X0140369Y0321326D02*
X0049812Y0321326D01*
X0049812Y0319727D02*
X0140369Y0319727D01*
X0140369Y0318129D02*
X0049812Y0318129D01*
X0049812Y0316530D02*
X0140369Y0316530D01*
X0140369Y0314932D02*
X0049812Y0314932D01*
X0049812Y0313333D02*
X0140369Y0313333D01*
X0140369Y0311735D02*
X0049812Y0311735D01*
X0049812Y0310136D02*
X0140602Y0310136D01*
X0142776Y0311177D02*
X0142776Y0327177D01*
X0207776Y0327177D01*
X0211776Y0331177D01*
X0342909Y0331177D01*
X0342909Y0330177D01*
X0342909Y0328689D01*
X0342912Y0328677D01*
X0342909Y0328666D01*
X0342909Y0327177D01*
X0342909Y0325689D01*
X0342912Y0325677D01*
X0342909Y0325666D01*
X0342909Y0324177D01*
X0342909Y0323177D01*
X0329465Y0323177D01*
X0329533Y0323341D01*
X0329643Y0323895D01*
X0329643Y0324177D01*
X0326776Y0324177D01*
X0323909Y0324177D01*
X0323909Y0323895D01*
X0324019Y0323341D01*
X0324087Y0323177D01*
X0218776Y0323177D01*
X0206776Y0311177D01*
X0142776Y0311177D01*
X0142776Y0311735D02*
X0146323Y0311735D01*
X0146503Y0311642D02*
X0147190Y0311419D01*
X0147903Y0311306D01*
X0148064Y0311306D01*
X0148064Y0318694D01*
X0143677Y0318694D01*
X0143677Y0315533D01*
X0143790Y0314819D01*
X0144013Y0314133D01*
X0144341Y0313489D01*
X0144765Y0312905D01*
X0145276Y0312395D01*
X0145860Y0311970D01*
X0146503Y0311642D01*
X0148064Y0311735D02*
X0148464Y0311735D01*
X0148464Y0311306D02*
X0148625Y0311306D01*
X0149339Y0311419D01*
X0150025Y0311642D01*
X0150669Y0311970D01*
X0151253Y0312395D01*
X0151763Y0312905D01*
X0152188Y0313489D01*
X0152516Y0314133D01*
X0152739Y0314819D01*
X0152852Y0315533D01*
X0152852Y0318694D01*
X0148465Y0318694D01*
X0148465Y0319094D01*
X0152852Y0319094D01*
X0152852Y0322255D01*
X0152739Y0322968D01*
X0152516Y0323655D01*
X0152188Y0324298D01*
X0151763Y0324882D01*
X0151253Y0325393D01*
X0150669Y0325817D01*
X0150025Y0326145D01*
X0149339Y0326368D01*
X0148625Y0326481D01*
X0148464Y0326481D01*
X0148464Y0319094D01*
X0148064Y0319094D01*
X0148064Y0318694D01*
X0148464Y0318694D01*
X0148464Y0311306D01*
X0150206Y0311735D02*
X0156267Y0311735D01*
X0155655Y0311988D02*
X0157348Y0311287D01*
X0159181Y0311287D01*
X0160874Y0311988D01*
X0162170Y0313284D01*
X0162872Y0314977D01*
X0162872Y0322810D01*
X0162170Y0324503D01*
X0160874Y0325799D01*
X0159181Y0326501D01*
X0157348Y0326501D01*
X0155655Y0325799D01*
X0154359Y0324503D01*
X0153657Y0322810D01*
X0153657Y0314977D01*
X0154359Y0313284D01*
X0155655Y0311988D01*
X0154338Y0313333D02*
X0152074Y0313333D01*
X0152757Y0314932D02*
X0153676Y0314932D01*
X0153657Y0316530D02*
X0152852Y0316530D01*
X0152852Y0318129D02*
X0153657Y0318129D01*
X0153657Y0319727D02*
X0152852Y0319727D01*
X0152852Y0321326D02*
X0153657Y0321326D01*
X0153705Y0322924D02*
X0152746Y0322924D01*
X0152025Y0324523D02*
X0154378Y0324523D01*
X0156431Y0326121D02*
X0150072Y0326121D01*
X0148464Y0326121D02*
X0148064Y0326121D01*
X0148064Y0326481D02*
X0147903Y0326481D01*
X0147190Y0326368D01*
X0146503Y0326145D01*
X0145860Y0325817D01*
X0145276Y0325393D01*
X0144765Y0324882D01*
X0144341Y0324298D01*
X0144013Y0323655D01*
X0143790Y0322968D01*
X0143677Y0322255D01*
X0143677Y0319094D01*
X0148064Y0319094D01*
X0148064Y0326481D01*
X0146457Y0326121D02*
X0142776Y0326121D01*
X0142776Y0324523D02*
X0144504Y0324523D01*
X0143783Y0322924D02*
X0142776Y0322924D01*
X0142776Y0321326D02*
X0143677Y0321326D01*
X0143677Y0319727D02*
X0142776Y0319727D01*
X0142776Y0318129D02*
X0143677Y0318129D01*
X0143677Y0316530D02*
X0142776Y0316530D01*
X0142776Y0314932D02*
X0143772Y0314932D01*
X0144455Y0313333D02*
X0142776Y0313333D01*
X0148064Y0313333D02*
X0148464Y0313333D01*
X0148464Y0314932D02*
X0148064Y0314932D01*
X0148064Y0316530D02*
X0148464Y0316530D01*
X0148464Y0318129D02*
X0148064Y0318129D01*
X0148064Y0319727D02*
X0148464Y0319727D01*
X0148464Y0321326D02*
X0148064Y0321326D01*
X0148064Y0322924D02*
X0148464Y0322924D01*
X0148464Y0324523D02*
X0148064Y0324523D01*
X0160097Y0326121D02*
X0166431Y0326121D01*
X0165655Y0325799D02*
X0164359Y0324503D01*
X0163657Y0322810D01*
X0163657Y0314977D01*
X0164359Y0313284D01*
X0165655Y0311988D01*
X0167348Y0311287D01*
X0169181Y0311287D01*
X0170874Y0311988D01*
X0172170Y0313284D01*
X0172872Y0314977D01*
X0172872Y0322810D01*
X0172170Y0324503D01*
X0170874Y0325799D01*
X0169181Y0326501D01*
X0167348Y0326501D01*
X0165655Y0325799D01*
X0164378Y0324523D02*
X0162151Y0324523D01*
X0162824Y0322924D02*
X0163705Y0322924D01*
X0163657Y0321326D02*
X0162872Y0321326D01*
X0162872Y0319727D02*
X0163657Y0319727D01*
X0163657Y0318129D02*
X0162872Y0318129D01*
X0162872Y0316530D02*
X0163657Y0316530D01*
X0163676Y0314932D02*
X0162853Y0314932D01*
X0162190Y0313333D02*
X0164338Y0313333D01*
X0166267Y0311735D02*
X0160262Y0311735D01*
X0170262Y0311735D02*
X0181756Y0311735D01*
X0181937Y0311642D02*
X0182623Y0311419D01*
X0183336Y0311306D01*
X0183497Y0311306D01*
X0183497Y0318694D01*
X0179110Y0318694D01*
X0179110Y0315533D01*
X0179223Y0314819D01*
X0179446Y0314133D01*
X0179774Y0313489D01*
X0180198Y0312905D01*
X0180709Y0312395D01*
X0181293Y0311970D01*
X0181937Y0311642D01*
X0183497Y0311735D02*
X0183898Y0311735D01*
X0183898Y0311306D02*
X0184059Y0311306D01*
X0184772Y0311419D01*
X0185458Y0311642D01*
X0186102Y0311970D01*
X0186686Y0312395D01*
X0187197Y0312905D01*
X0187621Y0313489D01*
X0187949Y0314133D01*
X0188172Y0314819D01*
X0188285Y0315533D01*
X0188285Y0318694D01*
X0183898Y0318694D01*
X0183898Y0319094D01*
X0188285Y0319094D01*
X0188285Y0322255D01*
X0188172Y0322968D01*
X0187949Y0323655D01*
X0187621Y0324298D01*
X0187197Y0324882D01*
X0186686Y0325393D01*
X0186102Y0325817D01*
X0185458Y0326145D01*
X0184772Y0326368D01*
X0184059Y0326481D01*
X0183898Y0326481D01*
X0183898Y0319094D01*
X0183497Y0319094D01*
X0183497Y0318694D01*
X0183898Y0318694D01*
X0183898Y0311306D01*
X0185639Y0311735D02*
X0191700Y0311735D01*
X0191088Y0311988D02*
X0192781Y0311287D01*
X0194614Y0311287D01*
X0196307Y0311988D01*
X0197603Y0313284D01*
X0198305Y0314977D01*
X0198305Y0322810D01*
X0197603Y0324503D01*
X0196307Y0325799D01*
X0194614Y0326501D01*
X0192781Y0326501D01*
X0191088Y0325799D01*
X0189792Y0324503D01*
X0189090Y0322810D01*
X0189090Y0314977D01*
X0189792Y0313284D01*
X0191088Y0311988D01*
X0189771Y0313333D02*
X0187507Y0313333D01*
X0188190Y0314932D02*
X0189109Y0314932D01*
X0189090Y0316530D02*
X0188285Y0316530D01*
X0188285Y0318129D02*
X0189090Y0318129D01*
X0189090Y0319727D02*
X0188285Y0319727D01*
X0188285Y0321326D02*
X0189090Y0321326D01*
X0189138Y0322924D02*
X0188179Y0322924D01*
X0187458Y0324523D02*
X0189811Y0324523D01*
X0191865Y0326121D02*
X0185505Y0326121D01*
X0183898Y0326121D02*
X0183497Y0326121D01*
X0183497Y0326481D02*
X0183336Y0326481D01*
X0182623Y0326368D01*
X0181937Y0326145D01*
X0181293Y0325817D01*
X0180709Y0325393D01*
X0180198Y0324882D01*
X0179774Y0324298D01*
X0179446Y0323655D01*
X0179223Y0322968D01*
X0179110Y0322255D01*
X0179110Y0319094D01*
X0183497Y0319094D01*
X0183497Y0326481D01*
X0181890Y0326121D02*
X0170097Y0326121D01*
X0172151Y0324523D02*
X0179937Y0324523D01*
X0179216Y0322924D02*
X0172824Y0322924D01*
X0172872Y0321326D02*
X0179110Y0321326D01*
X0179110Y0319727D02*
X0172872Y0319727D01*
X0172872Y0318129D02*
X0179110Y0318129D01*
X0179110Y0316530D02*
X0172872Y0316530D01*
X0172853Y0314932D02*
X0179205Y0314932D01*
X0179888Y0313333D02*
X0172190Y0313333D01*
X0183497Y0313333D02*
X0183898Y0313333D01*
X0183898Y0314932D02*
X0183497Y0314932D01*
X0183497Y0316530D02*
X0183898Y0316530D01*
X0183898Y0318129D02*
X0183497Y0318129D01*
X0183497Y0319727D02*
X0183898Y0319727D01*
X0183898Y0321326D02*
X0183497Y0321326D01*
X0183497Y0322924D02*
X0183898Y0322924D01*
X0183898Y0324523D02*
X0183497Y0324523D01*
X0195530Y0326121D02*
X0201865Y0326121D01*
X0201088Y0325799D02*
X0199792Y0324503D01*
X0199090Y0322810D01*
X0199090Y0314977D01*
X0199792Y0313284D01*
X0201088Y0311988D01*
X0202781Y0311287D01*
X0204614Y0311287D01*
X0206307Y0311988D01*
X0207603Y0313284D01*
X0208305Y0314977D01*
X0208305Y0322810D01*
X0207603Y0324503D01*
X0206307Y0325799D01*
X0204614Y0326501D01*
X0202781Y0326501D01*
X0201088Y0325799D01*
X0199811Y0324523D02*
X0197584Y0324523D01*
X0198257Y0322924D02*
X0199138Y0322924D01*
X0199090Y0321326D02*
X0198305Y0321326D01*
X0198305Y0319727D02*
X0199090Y0319727D01*
X0199090Y0318129D02*
X0198305Y0318129D01*
X0198305Y0316530D02*
X0199090Y0316530D01*
X0199109Y0314932D02*
X0198286Y0314932D01*
X0197623Y0313333D02*
X0199771Y0313333D01*
X0201700Y0311735D02*
X0195695Y0311735D01*
X0205695Y0311735D02*
X0207334Y0311735D01*
X0207623Y0313333D02*
X0208932Y0313333D01*
X0208286Y0314932D02*
X0210531Y0314932D01*
X0212129Y0316530D02*
X0208305Y0316530D01*
X0208305Y0318129D02*
X0213728Y0318129D01*
X0215326Y0319727D02*
X0208305Y0319727D01*
X0208305Y0321326D02*
X0216925Y0321326D01*
X0218523Y0322924D02*
X0208257Y0322924D01*
X0207584Y0324523D02*
X0323922Y0324523D01*
X0323909Y0324460D02*
X0323909Y0324177D01*
X0326776Y0324177D01*
X0326776Y0324177D01*
X0326776Y0328177D01*
X0323909Y0328177D01*
X0323909Y0327895D01*
X0324019Y0327341D01*
X0324236Y0326819D01*
X0324549Y0326350D01*
X0324722Y0326177D01*
X0324549Y0326005D01*
X0324236Y0325535D01*
X0324019Y0325013D01*
X0323909Y0324460D01*
X0324666Y0326121D02*
X0205530Y0326121D01*
X0208319Y0327720D02*
X0323944Y0327720D01*
X0323909Y0328177D02*
X0326776Y0328177D01*
X0326776Y0328177D01*
X0326776Y0328177D01*
X0326776Y0325310D01*
X0326776Y0324177D01*
X0326776Y0324177D01*
X0326776Y0324177D01*
X0329643Y0324177D01*
X0329643Y0324460D01*
X0329533Y0325013D01*
X0329317Y0325535D01*
X0329003Y0326005D01*
X0328831Y0326177D01*
X0329003Y0326350D01*
X0329317Y0326819D01*
X0329533Y0327341D01*
X0329643Y0327895D01*
X0329643Y0328177D01*
X0326776Y0328177D01*
X0326776Y0331044D01*
X0326494Y0331044D01*
X0325940Y0330934D01*
X0325418Y0330718D01*
X0324949Y0330404D01*
X0324549Y0330005D01*
X0324236Y0329535D01*
X0324019Y0329013D01*
X0323909Y0328460D01*
X0323909Y0328177D01*
X0324146Y0329318D02*
X0209917Y0329318D01*
X0211516Y0330917D02*
X0325898Y0330917D01*
X0326776Y0330917D02*
X0326776Y0330917D01*
X0326776Y0331044D02*
X0327059Y0331044D01*
X0327612Y0330934D01*
X0328134Y0330718D01*
X0328604Y0330404D01*
X0329003Y0330005D01*
X0329317Y0329535D01*
X0329533Y0329013D01*
X0329643Y0328460D01*
X0329643Y0328177D01*
X0326776Y0328177D01*
X0326776Y0328177D01*
X0326776Y0328177D01*
X0326776Y0331044D01*
X0327654Y0330917D02*
X0342909Y0330917D01*
X0342909Y0330177D02*
X0345776Y0330177D01*
X0342909Y0330177D01*
X0342909Y0329318D02*
X0329407Y0329318D01*
X0329608Y0327720D02*
X0342909Y0327720D01*
X0342909Y0327177D02*
X0345776Y0327177D01*
X0342909Y0327177D01*
X0342909Y0326121D02*
X0328887Y0326121D01*
X0329631Y0324523D02*
X0342909Y0324523D01*
X0342909Y0324177D02*
X0345776Y0324177D01*
X0342909Y0324177D01*
X0345776Y0324177D02*
X0345776Y0324177D01*
X0345776Y0327177D01*
X0345776Y0327177D01*
X0345776Y0327177D01*
X0345776Y0324310D01*
X0345776Y0324177D01*
X0345776Y0324177D01*
X0345776Y0324177D01*
X0345909Y0324177D01*
X0348776Y0324177D01*
X0348776Y0324177D01*
X0345776Y0324177D01*
X0345776Y0324523D02*
X0345776Y0324523D01*
X0345776Y0326121D02*
X0345776Y0326121D01*
X0345776Y0327177D02*
X0345776Y0327177D01*
X0345776Y0330044D01*
X0345776Y0330177D01*
X0345776Y0330177D01*
X0345776Y0330177D01*
X0345776Y0327177D01*
X0345776Y0327177D01*
X0348776Y0327177D01*
X0348776Y0327177D01*
X0348776Y0327177D01*
X0348776Y0324177D01*
X0348776Y0324177D01*
X0348776Y0324310D01*
X0348776Y0327177D01*
X0348643Y0327177D01*
X0345776Y0327177D01*
X0345776Y0327720D02*
X0345776Y0327720D01*
X0345776Y0329318D02*
X0345776Y0329318D01*
X0345776Y0330177D02*
X0345776Y0330177D01*
X0348776Y0330177D01*
X0348776Y0330177D01*
X0348776Y0330177D01*
X0348776Y0330044D01*
X0348776Y0327177D01*
X0348776Y0327177D01*
X0348776Y0330177D01*
X0348643Y0330177D01*
X0345776Y0330177D01*
X0348776Y0329318D02*
X0348776Y0329318D01*
X0348776Y0327720D02*
X0348776Y0327720D01*
X0348776Y0326121D02*
X0348776Y0326121D01*
X0348776Y0324523D02*
X0348776Y0324523D01*
X0353183Y0322924D02*
X0353865Y0322924D01*
X0354776Y0320177D02*
X0220776Y0320177D01*
X0218743Y0318129D02*
X0217132Y0318129D01*
X0209139Y0310136D02*
X0239755Y0310136D01*
X0237054Y0308537D02*
X0049812Y0308537D01*
X0049812Y0306939D02*
X0235967Y0306939D01*
X0235998Y0305340D02*
X0049812Y0305340D01*
X0049812Y0303742D02*
X0237129Y0303742D01*
X0291534Y0338909D02*
X0451064Y0338909D01*
X0449466Y0340508D02*
X0295864Y0340508D01*
X0294446Y0339689D02*
X0294446Y0339689D01*
X0297547Y0341479D02*
X0297547Y0341479D01*
X0298173Y0342106D02*
X0447867Y0342106D01*
X0446269Y0343705D02*
X0424603Y0343705D01*
X0424170Y0343271D02*
X0425225Y0344327D01*
X0425797Y0345706D01*
X0425797Y0347199D01*
X0425225Y0348579D01*
X0424170Y0349634D01*
X0422790Y0350205D01*
X0421297Y0350205D01*
X0419918Y0349634D01*
X0418863Y0348579D01*
X0418291Y0347199D01*
X0418291Y0345706D01*
X0418863Y0344327D01*
X0419918Y0343271D01*
X0421297Y0342700D01*
X0422790Y0342700D01*
X0424170Y0343271D01*
X0425630Y0345303D02*
X0444670Y0345303D01*
X0443072Y0346902D02*
X0425797Y0346902D01*
X0425258Y0348500D02*
X0441473Y0348500D01*
X0439875Y0350099D02*
X0423048Y0350099D01*
X0421040Y0350099D02*
X0408678Y0350099D01*
X0409883Y0351697D02*
X0438276Y0351697D01*
X0436678Y0353296D02*
X0409883Y0353296D01*
X0405669Y0353296D02*
X0396883Y0353296D01*
X0396883Y0354894D02*
X0405669Y0354894D01*
X0404317Y0351697D02*
X0396883Y0351697D01*
X0396883Y0350099D02*
X0402718Y0350099D01*
X0400200Y0348500D02*
X0397353Y0348500D01*
X0397663Y0346902D02*
X0399890Y0346902D01*
X0400568Y0345303D02*
X0396985Y0345303D01*
X0392568Y0345303D02*
X0356985Y0345303D01*
X0357223Y0345542D02*
X0357663Y0346603D01*
X0357663Y0347751D01*
X0357223Y0348812D01*
X0357183Y0348852D01*
X0357183Y0351656D01*
X0356817Y0352541D01*
X0356140Y0353218D01*
X0352140Y0357218D01*
X0351255Y0357584D01*
X0319451Y0357584D01*
X0319411Y0357624D01*
X0318350Y0358064D01*
X0317202Y0358064D01*
X0316141Y0357624D01*
X0315329Y0356812D01*
X0314890Y0355751D01*
X0314890Y0354603D01*
X0315329Y0353542D01*
X0316141Y0352730D01*
X0317202Y0352291D01*
X0318350Y0352291D01*
X0319411Y0352730D01*
X0319451Y0352770D01*
X0349779Y0352770D01*
X0352369Y0350180D01*
X0352369Y0348852D01*
X0352329Y0348812D01*
X0351890Y0347751D01*
X0351890Y0346603D01*
X0352329Y0345542D01*
X0353141Y0344730D01*
X0354202Y0344291D01*
X0355350Y0344291D01*
X0356411Y0344730D01*
X0357223Y0345542D01*
X0357663Y0346902D02*
X0391890Y0346902D01*
X0392200Y0348500D02*
X0357353Y0348500D01*
X0357183Y0350099D02*
X0392669Y0350099D01*
X0392669Y0351697D02*
X0357166Y0351697D01*
X0356062Y0353296D02*
X0392669Y0353296D01*
X0392669Y0354894D02*
X0354463Y0354894D01*
X0352865Y0356493D02*
X0392669Y0356493D01*
X0392711Y0358091D02*
X0314159Y0358091D01*
X0315197Y0356493D02*
X0312560Y0356493D01*
X0310962Y0354894D02*
X0314890Y0354894D01*
X0315575Y0353296D02*
X0309363Y0353296D01*
X0307765Y0351697D02*
X0350852Y0351697D01*
X0352369Y0350099D02*
X0336434Y0350099D01*
X0336176Y0350205D02*
X0334683Y0350205D01*
X0333304Y0349634D01*
X0332248Y0348579D01*
X0331677Y0347199D01*
X0331677Y0345706D01*
X0332248Y0344327D01*
X0333304Y0343271D01*
X0334683Y0342700D01*
X0336176Y0342700D01*
X0337556Y0343271D01*
X0338611Y0344327D01*
X0339183Y0345706D01*
X0339183Y0347199D01*
X0338611Y0348579D01*
X0337556Y0349634D01*
X0336176Y0350205D01*
X0334426Y0350099D02*
X0306166Y0350099D01*
X0304568Y0348500D02*
X0332216Y0348500D01*
X0331677Y0346902D02*
X0302969Y0346902D01*
X0301371Y0345303D02*
X0331844Y0345303D01*
X0332871Y0343705D02*
X0299772Y0343705D01*
X0299335Y0343268D02*
X0299335Y0343268D01*
X0317776Y0355177D02*
X0350776Y0355177D01*
X0354776Y0351177D01*
X0354776Y0347177D01*
X0352568Y0345303D02*
X0339016Y0345303D01*
X0339183Y0346902D02*
X0351890Y0346902D01*
X0352200Y0348500D02*
X0338644Y0348500D01*
X0337989Y0343705D02*
X0419485Y0343705D01*
X0418458Y0345303D02*
X0404985Y0345303D01*
X0405663Y0346902D02*
X0418291Y0346902D01*
X0418830Y0348500D02*
X0407079Y0348500D01*
X0394309Y0359690D02*
X0315757Y0359690D01*
X0317356Y0361288D02*
X0440118Y0361288D01*
X0439243Y0359690D02*
X0441717Y0359690D01*
X0440842Y0358091D02*
X0443315Y0358091D01*
X0442440Y0356493D02*
X0444914Y0356493D01*
X0444039Y0354894D02*
X0446512Y0354894D01*
X0445637Y0353296D02*
X0448111Y0353296D01*
X0447236Y0351697D02*
X0449709Y0351697D01*
X0448834Y0350099D02*
X0451308Y0350099D01*
X0450433Y0348500D02*
X0452906Y0348500D01*
X0452031Y0346902D02*
X0454505Y0346902D01*
X0453630Y0345303D02*
X0456103Y0345303D01*
X0455229Y0343705D02*
X0457702Y0343705D01*
X0456827Y0342106D02*
X0459300Y0342106D01*
X0459927Y0341479D02*
X0459927Y0341479D01*
X0458426Y0340508D02*
X0461610Y0340508D01*
X0463027Y0339689D02*
X0463027Y0339689D01*
X0461623Y0337311D02*
X0580438Y0337311D01*
X0582206Y0319727D02*
X0695850Y0319727D01*
X0695850Y0318129D02*
X0583805Y0318129D01*
X0586340Y0316530D02*
X0695850Y0316530D01*
X0695850Y0314932D02*
X0586663Y0314932D01*
X0586014Y0313333D02*
X0682979Y0313333D01*
X0681794Y0311735D02*
X0681039Y0311735D01*
X0682955Y0303742D02*
X0695850Y0303742D01*
X0695850Y0305340D02*
X0689554Y0305340D01*
X0690958Y0306939D02*
X0695850Y0306939D01*
X0695850Y0308537D02*
X0691604Y0308537D01*
X0691604Y0310136D02*
X0695850Y0310136D01*
X0695850Y0311735D02*
X0691112Y0311735D01*
X0689928Y0313333D02*
X0695850Y0313333D01*
X0695850Y0302143D02*
X0680630Y0302143D01*
X0677277Y0302143D02*
X0676042Y0302143D01*
X0674758Y0300545D02*
X0695850Y0300545D01*
X0695850Y0295749D02*
X0638184Y0295749D01*
X0638883Y0294151D02*
X0695850Y0294151D01*
X0695850Y0292552D02*
X0638883Y0292552D01*
X0639493Y0290954D02*
X0695850Y0290954D01*
X0695850Y0289355D02*
X0639583Y0289355D01*
X0639583Y0287757D02*
X0695850Y0287757D01*
X0695850Y0286158D02*
X0664491Y0286158D01*
X0664796Y0285937D02*
X0664142Y0286412D01*
X0663423Y0286778D01*
X0662655Y0287028D01*
X0661857Y0287154D01*
X0661835Y0287154D01*
X0661835Y0282405D01*
X0666584Y0282405D01*
X0666584Y0282427D01*
X0666458Y0283225D01*
X0666208Y0283993D01*
X0665842Y0284713D01*
X0665367Y0285366D01*
X0664796Y0285937D01*
X0665919Y0284560D02*
X0695850Y0284560D01*
X0695850Y0282961D02*
X0666500Y0282961D01*
X0666584Y0281642D02*
X0661835Y0281642D01*
X0661835Y0282405D01*
X0661072Y0282405D01*
X0661072Y0281642D01*
X0661835Y0281642D01*
X0661835Y0276893D01*
X0661857Y0276893D01*
X0662655Y0277019D01*
X0663423Y0277269D01*
X0664142Y0277635D01*
X0664796Y0278110D01*
X0665367Y0278681D01*
X0665842Y0279335D01*
X0666208Y0280054D01*
X0666458Y0280822D01*
X0666584Y0281620D01*
X0666584Y0281642D01*
X0666543Y0281363D02*
X0695850Y0281363D01*
X0695850Y0279764D02*
X0666061Y0279764D01*
X0664851Y0278166D02*
X0695850Y0278166D01*
X0695850Y0276567D02*
X0638883Y0276567D01*
X0638883Y0274969D02*
X0695850Y0274969D01*
X0695850Y0273370D02*
X0662391Y0273370D01*
X0661871Y0273890D02*
X0659978Y0274674D01*
X0657929Y0274674D01*
X0656036Y0273890D01*
X0654587Y0272441D01*
X0653803Y0270548D01*
X0653803Y0268499D01*
X0654587Y0266606D01*
X0656036Y0265157D01*
X0657929Y0264373D01*
X0659978Y0264373D01*
X0661871Y0265157D01*
X0663320Y0266606D01*
X0664104Y0268499D01*
X0664104Y0270548D01*
X0663320Y0272441D01*
X0661871Y0273890D01*
X0663597Y0271772D02*
X0695850Y0271772D01*
X0695850Y0270173D02*
X0664104Y0270173D01*
X0664104Y0268575D02*
X0695850Y0268575D01*
X0695850Y0266976D02*
X0663473Y0266976D01*
X0662091Y0265378D02*
X0695850Y0265378D01*
X0695850Y0263779D02*
X0651301Y0263779D01*
X0651604Y0262181D02*
X0695850Y0262181D01*
X0695850Y0260582D02*
X0651431Y0260582D01*
X0650697Y0258984D02*
X0695850Y0258984D01*
X0661835Y0278166D02*
X0661072Y0278166D01*
X0661072Y0276893D02*
X0661072Y0281642D01*
X0656323Y0281642D01*
X0656323Y0281620D01*
X0656449Y0280822D01*
X0656699Y0280054D01*
X0657065Y0279335D01*
X0657540Y0278681D01*
X0658111Y0278110D01*
X0658764Y0277635D01*
X0659484Y0277269D01*
X0660252Y0277019D01*
X0661050Y0276893D01*
X0661072Y0276893D01*
X0661072Y0279764D02*
X0661835Y0279764D01*
X0661835Y0281363D02*
X0661072Y0281363D01*
X0661072Y0282405D02*
X0656323Y0282405D01*
X0656323Y0282427D01*
X0656449Y0283225D01*
X0656699Y0283993D01*
X0657065Y0284713D01*
X0657540Y0285366D01*
X0658111Y0285937D01*
X0658764Y0286412D01*
X0659484Y0286778D01*
X0660252Y0287028D01*
X0661050Y0287154D01*
X0661072Y0287154D01*
X0661072Y0282405D01*
X0661072Y0282961D02*
X0661835Y0282961D01*
X0661835Y0284560D02*
X0661072Y0284560D01*
X0661072Y0286158D02*
X0661835Y0286158D01*
X0658415Y0286158D02*
X0639583Y0286158D01*
X0639583Y0284560D02*
X0656987Y0284560D01*
X0656407Y0282961D02*
X0639583Y0282961D01*
X0639583Y0281363D02*
X0656363Y0281363D01*
X0656846Y0279764D02*
X0639583Y0279764D01*
X0639396Y0278166D02*
X0658055Y0278166D01*
X0655516Y0273370D02*
X0638883Y0273370D01*
X0638883Y0271772D02*
X0654310Y0271772D01*
X0653803Y0270173D02*
X0639104Y0270173D01*
X0639104Y0268575D02*
X0653803Y0268575D01*
X0654434Y0266976D02*
X0647955Y0266976D01*
X0650383Y0265378D02*
X0655816Y0265378D01*
X0644951Y0266976D02*
X0638473Y0266976D01*
X0637091Y0265378D02*
X0642524Y0265378D01*
X0634669Y0274969D02*
X0576538Y0274969D01*
X0544802Y0270173D02*
X0049812Y0270173D01*
X0064150Y0257385D02*
X0103066Y0257385D01*
X0104212Y0255787D02*
X0066009Y0255787D01*
X0066916Y0254188D02*
X0188760Y0254188D01*
X0188258Y0252590D02*
X0067417Y0252590D01*
X0067417Y0250991D02*
X0188258Y0250991D01*
X0200284Y0255370D02*
X0248714Y0255370D01*
X0248349Y0255005D01*
X0248035Y0254535D01*
X0247819Y0254013D01*
X0247709Y0253460D01*
X0247709Y0253177D01*
X0247709Y0252895D01*
X0247819Y0252341D01*
X0248035Y0251819D01*
X0248349Y0251350D01*
X0248748Y0250950D01*
X0249217Y0250637D01*
X0249443Y0250543D01*
X0201275Y0250433D01*
X0201275Y0252977D01*
X0200284Y0255370D01*
X0200284Y0255370D01*
X0200774Y0254188D02*
X0247891Y0254188D01*
X0247709Y0253177D02*
X0250575Y0253177D01*
X0247709Y0253177D01*
X0247769Y0252590D02*
X0201275Y0252590D01*
X0201275Y0250991D02*
X0248707Y0250991D01*
X0250575Y0253177D02*
X0250575Y0253177D01*
X0250576Y0253177D02*
X0250576Y0253177D01*
X0253442Y0253177D01*
X0253442Y0252895D01*
X0253332Y0252341D01*
X0253116Y0251819D01*
X0252802Y0251350D01*
X0252403Y0250950D01*
X0251933Y0250637D01*
X0251721Y0250548D01*
X0322116Y0250709D01*
X0322116Y0252977D01*
X0323107Y0255370D01*
X0323108Y0255370D01*
X0252437Y0255370D01*
X0252802Y0255005D01*
X0253116Y0254535D01*
X0253332Y0254013D01*
X0253442Y0253460D01*
X0253442Y0253177D01*
X0250576Y0253177D01*
X0253382Y0252590D02*
X0322116Y0252590D01*
X0322116Y0250991D02*
X0252444Y0250991D01*
X0253260Y0254188D02*
X0322618Y0254188D01*
X0334142Y0255370D02*
X0376336Y0255370D01*
X0375971Y0255005D01*
X0375657Y0254535D01*
X0375441Y0254013D01*
X0375331Y0253460D01*
X0375331Y0253177D01*
X0375331Y0252895D01*
X0375441Y0252341D01*
X0375657Y0251819D01*
X0375971Y0251350D01*
X0376370Y0250950D01*
X0376546Y0250833D01*
X0335134Y0250738D01*
X0335134Y0252977D01*
X0334143Y0255370D01*
X0334142Y0255370D01*
X0334632Y0254188D02*
X0375513Y0254188D01*
X0375331Y0253177D02*
X0378197Y0253177D01*
X0375331Y0253177D01*
X0375391Y0252590D02*
X0335134Y0252590D01*
X0335134Y0250991D02*
X0376329Y0250991D01*
X0378197Y0253177D02*
X0378197Y0253177D01*
X0378198Y0253177D02*
X0378198Y0253177D01*
X0381064Y0253177D01*
X0381064Y0252895D01*
X0380954Y0252341D01*
X0380738Y0251819D01*
X0380424Y0251350D01*
X0380025Y0250950D01*
X0379861Y0250840D01*
X0455975Y0251014D01*
X0455975Y0252977D01*
X0456965Y0255370D01*
X0456966Y0255370D01*
X0380059Y0255370D01*
X0380424Y0255005D01*
X0380738Y0254535D01*
X0380954Y0254013D01*
X0381064Y0253460D01*
X0381064Y0253177D01*
X0378198Y0253177D01*
X0381004Y0252590D02*
X0455975Y0252590D01*
X0456476Y0254188D02*
X0380882Y0254188D01*
X0380066Y0250991D02*
X0446022Y0250991D01*
X0478702Y0231809D02*
X0356948Y0231809D01*
X0357405Y0230210D02*
X0478246Y0230210D01*
X0478246Y0228612D02*
X0357405Y0228612D01*
X0356948Y0227013D02*
X0478703Y0227013D01*
X0479546Y0225415D02*
X0356104Y0225415D01*
X0354396Y0223816D02*
X0481255Y0223816D01*
X0488254Y0223816D02*
X0615113Y0223816D01*
X0613405Y0225415D02*
X0489962Y0225415D01*
X0490806Y0227013D02*
X0525791Y0227013D01*
X0525803Y0226985D02*
X0526116Y0226515D01*
X0526516Y0226116D01*
X0526985Y0225802D01*
X0527507Y0225586D01*
X0528061Y0225476D01*
X0528343Y0225476D01*
X0528343Y0228342D01*
X0528343Y0228342D01*
X0528343Y0225476D01*
X0528626Y0225476D01*
X0529179Y0225586D01*
X0529701Y0225802D01*
X0530171Y0226116D01*
X0530570Y0226515D01*
X0530884Y0226985D01*
X0531100Y0227506D01*
X0531210Y0228060D01*
X0531210Y0228342D01*
X0528343Y0228342D01*
X0525476Y0228342D01*
X0525476Y0228060D01*
X0525586Y0227506D01*
X0525803Y0226985D01*
X0525476Y0228343D02*
X0528343Y0228343D01*
X0528343Y0231209D01*
X0528061Y0231209D01*
X0527507Y0231099D01*
X0526985Y0230883D01*
X0526516Y0230569D01*
X0526116Y0230170D01*
X0525803Y0229701D01*
X0525586Y0229179D01*
X0525476Y0228625D01*
X0525476Y0228343D01*
X0525476Y0228612D02*
X0491263Y0228612D01*
X0491263Y0230210D02*
X0526157Y0230210D01*
X0528343Y0230210D02*
X0528343Y0230210D01*
X0528343Y0231209D02*
X0528626Y0231209D01*
X0529179Y0231099D01*
X0529701Y0230883D01*
X0530171Y0230569D01*
X0530570Y0230170D01*
X0530884Y0229701D01*
X0531100Y0229179D01*
X0531210Y0228625D01*
X0531210Y0228343D01*
X0528343Y0228343D01*
X0528343Y0228343D01*
X0528343Y0231209D01*
X0530530Y0230210D02*
X0593086Y0230210D01*
X0593045Y0230170D02*
X0592732Y0229701D01*
X0592516Y0229179D01*
X0592405Y0228625D01*
X0592405Y0228343D01*
X0595272Y0228343D01*
X0595272Y0231209D01*
X0594990Y0231209D01*
X0594436Y0231099D01*
X0593914Y0230883D01*
X0593445Y0230569D01*
X0593045Y0230170D01*
X0592405Y0228612D02*
X0531210Y0228612D01*
X0530896Y0227013D02*
X0592720Y0227013D01*
X0592732Y0226985D02*
X0593045Y0226515D01*
X0593445Y0226116D01*
X0593914Y0225802D01*
X0594436Y0225586D01*
X0594990Y0225476D01*
X0595272Y0225476D01*
X0595272Y0228342D01*
X0595272Y0228342D01*
X0592405Y0228342D01*
X0592405Y0228060D01*
X0592516Y0227506D01*
X0592732Y0226985D01*
X0595272Y0227013D02*
X0595272Y0227013D01*
X0595272Y0228342D02*
X0595272Y0225476D01*
X0595555Y0225476D01*
X0596109Y0225586D01*
X0596630Y0225802D01*
X0597100Y0226116D01*
X0597499Y0226515D01*
X0597813Y0226985D01*
X0598029Y0227506D01*
X0598139Y0228060D01*
X0598139Y0228342D01*
X0595272Y0228342D01*
X0595272Y0228343D01*
X0595272Y0228343D01*
X0595272Y0231209D01*
X0595555Y0231209D01*
X0596109Y0231099D01*
X0596630Y0230883D01*
X0597100Y0230569D01*
X0597499Y0230170D01*
X0597813Y0229701D01*
X0598029Y0229179D01*
X0598139Y0228625D01*
X0598139Y0228343D01*
X0595272Y0228343D01*
X0595272Y0228342D01*
X0595272Y0228612D02*
X0595272Y0228612D01*
X0595272Y0230210D02*
X0595272Y0230210D01*
X0597459Y0230210D02*
X0612104Y0230210D01*
X0612104Y0228612D02*
X0598139Y0228612D01*
X0597825Y0227013D02*
X0612561Y0227013D01*
X0612561Y0231809D02*
X0490806Y0231809D01*
X0528343Y0228612D02*
X0528343Y0228612D01*
X0528343Y0228343D02*
X0528343Y0228342D01*
X0528343Y0228343D01*
X0528343Y0227013D02*
X0528343Y0227013D01*
X0523224Y0274969D02*
X0501994Y0274969D01*
X0503224Y0276567D02*
X0522018Y0276567D01*
X0489876Y0326121D02*
X0489676Y0326121D01*
X0489676Y0327720D02*
X0489876Y0327720D01*
X0489876Y0329318D02*
X0489676Y0329318D01*
X0487133Y0326121D02*
X0479448Y0326121D01*
X0481046Y0327720D02*
X0485534Y0327720D01*
X0485039Y0329318D02*
X0481533Y0329318D01*
X0481533Y0330917D02*
X0485039Y0330917D01*
X0485415Y0332515D02*
X0481166Y0332515D01*
X0494138Y0332515D02*
X0494458Y0332515D01*
X0465939Y0338909D02*
X0460024Y0338909D01*
X0437955Y0362887D02*
X0319519Y0362887D01*
X0326776Y0329318D02*
X0326776Y0329318D01*
X0326776Y0327720D02*
X0326776Y0327720D01*
X0326776Y0326121D02*
X0326776Y0326121D01*
X0326776Y0324523D02*
X0326776Y0324523D01*
X0344844Y0231809D02*
X0223090Y0231809D01*
X0223546Y0230210D02*
X0344387Y0230210D01*
X0344387Y0228612D02*
X0223546Y0228612D01*
X0223089Y0227013D02*
X0344845Y0227013D01*
X0345688Y0225415D02*
X0222246Y0225415D01*
X0220537Y0223816D02*
X0347396Y0223816D01*
X0330134Y0197718D02*
X0329612Y0197934D01*
X0329059Y0198044D01*
X0328776Y0198044D01*
X0328494Y0198044D01*
X0327940Y0197934D01*
X0327418Y0197718D01*
X0326949Y0197404D01*
X0326549Y0197005D01*
X0326236Y0196535D01*
X0326019Y0196013D01*
X0325909Y0195460D01*
X0325909Y0195177D01*
X0325909Y0194895D01*
X0326019Y0194341D01*
X0326236Y0193819D01*
X0326549Y0193350D01*
X0326651Y0193248D01*
X0326388Y0193439D01*
X0325689Y0193795D01*
X0324943Y0194038D01*
X0324168Y0194160D01*
X0324108Y0194160D01*
X0324108Y0191584D01*
X0323444Y0191584D01*
X0323444Y0194160D01*
X0323384Y0194160D01*
X0322609Y0194038D01*
X0321863Y0193795D01*
X0321165Y0193439D01*
X0320530Y0192978D01*
X0319975Y0192423D01*
X0319514Y0191789D01*
X0319410Y0191584D01*
X0318194Y0191584D01*
X0318017Y0192011D01*
X0316610Y0193418D01*
X0314771Y0194180D01*
X0312781Y0194180D01*
X0310942Y0193418D01*
X0309535Y0192011D01*
X0309358Y0191584D01*
X0287779Y0191584D01*
X0287779Y0193239D01*
X0287600Y0193418D01*
X0287612Y0193420D01*
X0288134Y0193637D01*
X0288604Y0193950D01*
X0289003Y0194350D01*
X0289317Y0194819D01*
X0289533Y0195341D01*
X0289643Y0195895D01*
X0289643Y0196177D01*
X0286776Y0196177D01*
X0283909Y0196177D01*
X0283909Y0195895D01*
X0284019Y0195341D01*
X0284236Y0194819D01*
X0284549Y0194350D01*
X0284719Y0194180D01*
X0278715Y0194180D01*
X0277773Y0193239D01*
X0277773Y0191584D01*
X0277194Y0191584D01*
X0277017Y0192011D01*
X0275610Y0193418D01*
X0274497Y0193879D01*
X0274604Y0193950D01*
X0275003Y0194350D01*
X0275317Y0194819D01*
X0275533Y0195341D01*
X0275643Y0195895D01*
X0275643Y0196177D01*
X0272776Y0196177D01*
X0269909Y0196177D01*
X0269909Y0195895D01*
X0270019Y0195341D01*
X0270236Y0194819D01*
X0270549Y0194350D01*
X0270949Y0193950D01*
X0271055Y0193879D01*
X0269942Y0193418D01*
X0268535Y0192011D01*
X0268358Y0191584D01*
X0268297Y0191584D01*
X0267413Y0191218D01*
X0267357Y0191162D01*
X0267038Y0191789D01*
X0266577Y0192423D01*
X0266022Y0192978D01*
X0265388Y0193439D01*
X0264689Y0193795D01*
X0263943Y0194038D01*
X0263168Y0194160D01*
X0263108Y0194160D01*
X0263108Y0189509D01*
X0262444Y0189509D01*
X0262444Y0188845D01*
X0257793Y0188845D01*
X0257793Y0188785D01*
X0257916Y0188010D01*
X0258158Y0187264D01*
X0258514Y0186565D01*
X0258975Y0185931D01*
X0259530Y0185376D01*
X0260165Y0184915D01*
X0260863Y0184559D01*
X0261609Y0184317D01*
X0262384Y0184194D01*
X0262444Y0184194D01*
X0262444Y0188845D01*
X0263108Y0188845D01*
X0263108Y0184194D01*
X0263168Y0184194D01*
X0263943Y0184317D01*
X0264689Y0184559D01*
X0265388Y0184915D01*
X0266022Y0185376D01*
X0266369Y0185723D01*
X0266369Y0177698D01*
X0266736Y0176814D01*
X0267413Y0176137D01*
X0268297Y0175770D01*
X0349255Y0175770D01*
X0350140Y0176137D01*
X0350817Y0176814D01*
X0351183Y0177698D01*
X0351183Y0189656D01*
X0350817Y0190541D01*
X0350140Y0191218D01*
X0349255Y0191584D01*
X0348779Y0191584D01*
X0348779Y0193239D01*
X0347838Y0194180D01*
X0339715Y0194180D01*
X0338773Y0193239D01*
X0338773Y0191584D01*
X0338194Y0191584D01*
X0338017Y0192011D01*
X0336610Y0193418D01*
X0334771Y0194180D01*
X0332781Y0194180D01*
X0331090Y0193479D01*
X0331317Y0193819D01*
X0331533Y0194341D01*
X0331643Y0194895D01*
X0331643Y0195177D01*
X0328776Y0195177D01*
X0325909Y0195177D01*
X0328776Y0195177D01*
X0328776Y0195177D01*
X0328776Y0195177D01*
X0328776Y0192310D01*
X0328494Y0192310D01*
X0327940Y0192420D01*
X0327418Y0192637D01*
X0327255Y0192746D01*
X0327577Y0192423D01*
X0328038Y0191789D01*
X0328142Y0191584D01*
X0329358Y0191584D01*
X0329535Y0192011D01*
X0330214Y0192690D01*
X0330134Y0192637D01*
X0329612Y0192420D01*
X0329059Y0192310D01*
X0328776Y0192310D01*
X0328776Y0195177D01*
X0328776Y0198044D01*
X0328776Y0195177D01*
X0328776Y0195177D01*
X0328776Y0195177D01*
X0331643Y0195177D01*
X0331643Y0195460D01*
X0331533Y0196013D01*
X0331317Y0196535D01*
X0331003Y0197005D01*
X0330604Y0197404D01*
X0330134Y0197718D01*
X0331246Y0196642D02*
X0428134Y0196642D01*
X0428134Y0198240D02*
X0304768Y0198240D01*
X0304604Y0198404D02*
X0304134Y0198718D01*
X0303612Y0198934D01*
X0303059Y0199044D01*
X0302776Y0199044D01*
X0302494Y0199044D01*
X0301940Y0198934D01*
X0301418Y0198718D01*
X0300949Y0198404D01*
X0300549Y0198005D01*
X0300236Y0197535D01*
X0300019Y0197013D01*
X0299909Y0196460D01*
X0299909Y0196177D01*
X0299909Y0195895D01*
X0300019Y0195341D01*
X0300236Y0194819D01*
X0300549Y0194350D01*
X0300949Y0193950D01*
X0301418Y0193637D01*
X0301940Y0193420D01*
X0302494Y0193310D01*
X0302776Y0193310D01*
X0302776Y0196177D01*
X0299909Y0196177D01*
X0302776Y0196177D01*
X0302776Y0196177D01*
X0302776Y0196177D01*
X0302776Y0193310D01*
X0303059Y0193310D01*
X0303612Y0193420D01*
X0304134Y0193637D01*
X0304604Y0193950D01*
X0305003Y0194350D01*
X0305317Y0194819D01*
X0305533Y0195341D01*
X0305643Y0195895D01*
X0305643Y0196177D01*
X0302776Y0196177D01*
X0302776Y0199044D01*
X0302776Y0196177D01*
X0302776Y0196177D01*
X0302776Y0196177D01*
X0305643Y0196177D01*
X0305643Y0196460D01*
X0305533Y0197013D01*
X0305317Y0197535D01*
X0305003Y0198005D01*
X0304604Y0198404D01*
X0302776Y0198240D02*
X0302776Y0198240D01*
X0302776Y0196642D02*
X0302776Y0196642D01*
X0302776Y0195043D02*
X0302776Y0195043D01*
X0302776Y0193445D02*
X0302776Y0193445D01*
X0301881Y0193445D02*
X0287671Y0193445D01*
X0287779Y0191846D02*
X0309467Y0191846D01*
X0311006Y0193445D02*
X0303671Y0193445D01*
X0305410Y0195043D02*
X0325909Y0195043D01*
X0326307Y0196642D02*
X0305607Y0196642D01*
X0300785Y0198240D02*
X0288768Y0198240D01*
X0288604Y0198404D02*
X0288134Y0198718D01*
X0287612Y0198934D01*
X0287059Y0199044D01*
X0286776Y0199044D01*
X0286494Y0199044D01*
X0285940Y0198934D01*
X0285418Y0198718D01*
X0284949Y0198404D01*
X0284549Y0198005D01*
X0284236Y0197535D01*
X0284019Y0197013D01*
X0283909Y0196460D01*
X0283909Y0196177D01*
X0286776Y0196177D01*
X0286776Y0196177D01*
X0286776Y0199044D01*
X0286776Y0196177D01*
X0286776Y0196177D01*
X0286776Y0196177D01*
X0289643Y0196177D01*
X0289643Y0196460D01*
X0289533Y0197013D01*
X0289317Y0197535D01*
X0289003Y0198005D01*
X0288604Y0198404D01*
X0286776Y0198240D02*
X0286776Y0198240D01*
X0286776Y0196642D02*
X0286776Y0196642D01*
X0284785Y0198240D02*
X0274768Y0198240D01*
X0274604Y0198404D02*
X0274134Y0198718D01*
X0273612Y0198934D01*
X0273059Y0199044D01*
X0272776Y0199044D01*
X0272494Y0199044D01*
X0271940Y0198934D01*
X0271418Y0198718D01*
X0270949Y0198404D01*
X0270549Y0198005D01*
X0270236Y0197535D01*
X0270019Y0197013D01*
X0269909Y0196460D01*
X0269909Y0196177D01*
X0272776Y0196177D01*
X0272776Y0196177D01*
X0272776Y0199044D01*
X0272776Y0196177D01*
X0272776Y0196177D01*
X0272776Y0196177D01*
X0275643Y0196177D01*
X0275643Y0196460D01*
X0275533Y0197013D01*
X0275317Y0197535D01*
X0275003Y0198005D01*
X0274604Y0198404D01*
X0272776Y0198240D02*
X0272776Y0198240D01*
X0272776Y0196642D02*
X0272776Y0196642D01*
X0270785Y0198240D02*
X0195482Y0198240D01*
X0195482Y0196642D02*
X0269946Y0196642D01*
X0270143Y0195043D02*
X0195482Y0195043D01*
X0195482Y0193445D02*
X0250006Y0193445D01*
X0249942Y0193418D02*
X0248535Y0192011D01*
X0247773Y0190172D01*
X0247773Y0188182D01*
X0248535Y0186343D01*
X0249942Y0184936D01*
X0251781Y0184174D01*
X0253771Y0184174D01*
X0255610Y0184936D01*
X0257017Y0186343D01*
X0257779Y0188182D01*
X0257779Y0190172D01*
X0257017Y0192011D01*
X0255610Y0193418D01*
X0253771Y0194180D01*
X0251781Y0194180D01*
X0249942Y0193418D01*
X0248467Y0191846D02*
X0195482Y0191846D01*
X0195482Y0190248D02*
X0247805Y0190248D01*
X0247773Y0188649D02*
X0195482Y0188649D01*
X0195482Y0187051D02*
X0248242Y0187051D01*
X0249426Y0185452D02*
X0195482Y0185452D01*
X0195482Y0183854D02*
X0266369Y0183854D01*
X0266369Y0185452D02*
X0266098Y0185452D01*
X0268776Y0185452D02*
X0269426Y0185452D01*
X0269942Y0184936D02*
X0268776Y0186102D01*
X0268776Y0178177D01*
X0348776Y0178177D01*
X0348776Y0189177D01*
X0344108Y0189177D01*
X0344108Y0188845D01*
X0344108Y0184194D01*
X0347381Y0184194D01*
X0347785Y0184302D01*
X0348147Y0184511D01*
X0348442Y0184807D01*
X0348651Y0185169D01*
X0348759Y0185573D01*
X0348759Y0188845D01*
X0344108Y0188845D01*
X0343444Y0188845D01*
X0338793Y0188845D01*
X0338793Y0185573D01*
X0338901Y0185169D01*
X0339110Y0184807D01*
X0339406Y0184511D01*
X0339768Y0184302D01*
X0340172Y0184194D01*
X0343444Y0184194D01*
X0343444Y0188845D01*
X0343444Y0189177D01*
X0338779Y0189177D01*
X0338779Y0188182D01*
X0338017Y0186343D01*
X0336610Y0184936D01*
X0334771Y0184174D01*
X0332781Y0184174D01*
X0330942Y0184936D01*
X0329535Y0186343D01*
X0328776Y0188175D01*
X0328017Y0186343D01*
X0326610Y0184936D01*
X0324771Y0184174D01*
X0322781Y0184174D01*
X0320942Y0184936D01*
X0319535Y0186343D01*
X0318776Y0188175D01*
X0318017Y0186343D01*
X0316610Y0184936D01*
X0314771Y0184174D01*
X0312781Y0184174D01*
X0310942Y0184936D01*
X0309535Y0186343D01*
X0308773Y0188182D01*
X0308773Y0189177D01*
X0283108Y0189177D01*
X0283108Y0188845D01*
X0283108Y0184194D01*
X0286381Y0184194D01*
X0286785Y0184302D01*
X0287147Y0184511D01*
X0287442Y0184807D01*
X0287651Y0185169D01*
X0287759Y0185573D01*
X0287759Y0188845D01*
X0283108Y0188845D01*
X0282444Y0188845D01*
X0277793Y0188845D01*
X0277793Y0185573D01*
X0277901Y0185169D01*
X0278110Y0184807D01*
X0278406Y0184511D01*
X0278768Y0184302D01*
X0279172Y0184194D01*
X0282444Y0184194D01*
X0282444Y0188845D01*
X0282444Y0189177D01*
X0277779Y0189177D01*
X0277779Y0188182D01*
X0277017Y0186343D01*
X0275610Y0184936D01*
X0273771Y0184174D01*
X0271781Y0184174D01*
X0269942Y0184936D01*
X0268776Y0183854D02*
X0348776Y0183854D01*
X0348727Y0185452D02*
X0348776Y0185452D01*
X0348759Y0187051D02*
X0348776Y0187051D01*
X0348759Y0188649D02*
X0348776Y0188649D01*
X0351183Y0188649D02*
X0428134Y0188649D01*
X0428134Y0187051D02*
X0351183Y0187051D01*
X0351183Y0185452D02*
X0428134Y0185452D01*
X0428134Y0183854D02*
X0351183Y0183854D01*
X0351183Y0182255D02*
X0428134Y0182255D01*
X0428134Y0180657D02*
X0351183Y0180657D01*
X0351183Y0179058D02*
X0428134Y0179058D01*
X0428134Y0177460D02*
X0351084Y0177460D01*
X0349475Y0175861D02*
X0428134Y0175861D01*
X0428134Y0174263D02*
X0195482Y0174263D01*
X0195482Y0175861D02*
X0268078Y0175861D01*
X0266468Y0177460D02*
X0195482Y0177460D01*
X0195482Y0179058D02*
X0266369Y0179058D01*
X0266369Y0180657D02*
X0195482Y0180657D01*
X0195482Y0182255D02*
X0266369Y0182255D01*
X0268776Y0182255D02*
X0348776Y0182255D01*
X0348776Y0180657D02*
X0268776Y0180657D01*
X0268776Y0179058D02*
X0348776Y0179058D01*
X0344108Y0185452D02*
X0343444Y0185452D01*
X0343444Y0187051D02*
X0344108Y0187051D01*
X0344108Y0188649D02*
X0343444Y0188649D01*
X0338793Y0188649D02*
X0338779Y0188649D01*
X0338793Y0187051D02*
X0338310Y0187051D01*
X0338825Y0185452D02*
X0337126Y0185452D01*
X0338086Y0191846D02*
X0338773Y0191846D01*
X0338980Y0193445D02*
X0336546Y0193445D01*
X0331643Y0195043D02*
X0428134Y0195043D01*
X0428134Y0193445D02*
X0348573Y0193445D01*
X0348779Y0191846D02*
X0428134Y0191846D01*
X0428134Y0190248D02*
X0350938Y0190248D01*
X0330426Y0185452D02*
X0327126Y0185452D01*
X0328310Y0187051D02*
X0329242Y0187051D01*
X0329467Y0191846D02*
X0327997Y0191846D01*
X0328776Y0193445D02*
X0328776Y0193445D01*
X0328776Y0195043D02*
X0328776Y0195043D01*
X0328776Y0196642D02*
X0328776Y0196642D01*
X0326486Y0193445D02*
X0326377Y0193445D01*
X0324108Y0193445D02*
X0323444Y0193445D01*
X0323444Y0191846D02*
X0324108Y0191846D01*
X0321176Y0193445D02*
X0316546Y0193445D01*
X0318086Y0191846D02*
X0319556Y0191846D01*
X0319242Y0187051D02*
X0318310Y0187051D01*
X0317126Y0185452D02*
X0320426Y0185452D01*
X0310426Y0185452D02*
X0287727Y0185452D01*
X0287759Y0187051D02*
X0309242Y0187051D01*
X0308773Y0188649D02*
X0287759Y0188649D01*
X0283108Y0188649D02*
X0282444Y0188649D01*
X0282444Y0187051D02*
X0283108Y0187051D01*
X0283108Y0185452D02*
X0282444Y0185452D01*
X0277825Y0185452D02*
X0276126Y0185452D01*
X0277310Y0187051D02*
X0277793Y0187051D01*
X0277779Y0188649D02*
X0277793Y0188649D01*
X0277773Y0191846D02*
X0277086Y0191846D01*
X0277980Y0193445D02*
X0275546Y0193445D01*
X0275410Y0195043D02*
X0284143Y0195043D01*
X0283946Y0196642D02*
X0275607Y0196642D01*
X0270006Y0193445D02*
X0265377Y0193445D01*
X0263108Y0193445D02*
X0262444Y0193445D01*
X0262444Y0194160D02*
X0262384Y0194160D01*
X0261609Y0194038D01*
X0260863Y0193795D01*
X0260165Y0193439D01*
X0259530Y0192978D01*
X0258975Y0192423D01*
X0258514Y0191789D01*
X0258158Y0191090D01*
X0257916Y0190344D01*
X0257793Y0189569D01*
X0257793Y0189509D01*
X0262444Y0189509D01*
X0262444Y0194160D01*
X0262444Y0191846D02*
X0263108Y0191846D01*
X0263108Y0190248D02*
X0262444Y0190248D01*
X0262444Y0188649D02*
X0263108Y0188649D01*
X0263108Y0187051D02*
X0262444Y0187051D01*
X0262444Y0185452D02*
X0263108Y0185452D01*
X0259454Y0185452D02*
X0256126Y0185452D01*
X0257310Y0187051D02*
X0258267Y0187051D01*
X0257815Y0188649D02*
X0257779Y0188649D01*
X0257748Y0190248D02*
X0257901Y0190248D01*
X0258556Y0191846D02*
X0257086Y0191846D01*
X0255546Y0193445D02*
X0260176Y0193445D01*
X0266997Y0191846D02*
X0268467Y0191846D01*
X0289410Y0195043D02*
X0300143Y0195043D01*
X0299946Y0196642D02*
X0289607Y0196642D01*
X0213538Y0223816D02*
X0086679Y0223816D01*
X0088387Y0225415D02*
X0211830Y0225415D01*
X0210986Y0227013D02*
X0089231Y0227013D01*
X0089688Y0228612D02*
X0210529Y0228612D01*
X0210529Y0230210D02*
X0089688Y0230210D01*
X0089231Y0231809D02*
X0210986Y0231809D01*
X0186789Y0217422D02*
X0436826Y0217422D01*
X0433882Y0215824D02*
X0189734Y0215824D01*
X0191620Y0214454D02*
X0191620Y0214454D01*
X0191620Y0214454D01*
X0191785Y0214225D02*
X0431830Y0214225D01*
X0430669Y0212627D02*
X0192947Y0212627D01*
X0194108Y0211028D02*
X0420571Y0211028D01*
X0420751Y0211208D02*
X0419745Y0210203D01*
X0419201Y0208888D01*
X0419201Y0207466D01*
X0419745Y0206152D01*
X0420751Y0205146D01*
X0422065Y0204602D01*
X0423487Y0204602D01*
X0424802Y0205146D01*
X0425807Y0206152D01*
X0426352Y0207466D01*
X0426352Y0208888D01*
X0425807Y0210203D01*
X0424802Y0211208D01*
X0423487Y0211753D01*
X0422065Y0211753D01*
X0420751Y0211208D01*
X0419425Y0209430D02*
X0194651Y0209430D01*
X0194151Y0210970D02*
X0194151Y0210970D01*
X0195171Y0207831D02*
X0419201Y0207831D01*
X0419711Y0206233D02*
X0195482Y0206233D01*
X0195482Y0204634D02*
X0421986Y0204634D01*
X0423566Y0204634D02*
X0428134Y0204634D01*
X0428134Y0203036D02*
X0195482Y0203036D01*
X0195482Y0201437D02*
X0428134Y0201437D01*
X0428134Y0199839D02*
X0195482Y0199839D01*
X0195482Y0172664D02*
X0428134Y0172664D01*
X0428134Y0171066D02*
X0195482Y0171066D01*
X0195482Y0169467D02*
X0428134Y0169467D01*
X0428134Y0167868D02*
X0195482Y0167868D01*
X0195482Y0166270D02*
X0428134Y0166270D01*
X0428134Y0164671D02*
X0195482Y0164671D01*
X0195482Y0163073D02*
X0428134Y0163073D01*
X0428134Y0161474D02*
X0195482Y0161474D01*
X0195482Y0159876D02*
X0415349Y0159876D01*
X0415819Y0160347D02*
X0414371Y0158898D01*
X0413967Y0157924D01*
X0412261Y0158631D01*
X0410212Y0158631D01*
X0408319Y0157847D01*
X0406871Y0156398D01*
X0406467Y0155424D01*
X0404761Y0156131D01*
X0402712Y0156131D01*
X0400819Y0155347D01*
X0399371Y0153898D01*
X0398586Y0152005D01*
X0398586Y0149956D01*
X0399371Y0148063D01*
X0400819Y0146614D01*
X0402712Y0145830D01*
X0404761Y0145830D01*
X0406654Y0146614D01*
X0408103Y0148063D01*
X0408506Y0149037D01*
X0410212Y0148330D01*
X0412261Y0148330D01*
X0414154Y0149114D01*
X0415603Y0150563D01*
X0416006Y0151537D01*
X0417712Y0150830D01*
X0419761Y0150830D01*
X0421654Y0151614D01*
X0423103Y0153063D01*
X0423887Y0154956D01*
X0423887Y0157005D01*
X0423103Y0158898D01*
X0421654Y0160347D01*
X0419761Y0161131D01*
X0417712Y0161131D01*
X0415819Y0160347D01*
X0414114Y0158277D02*
X0413114Y0158277D01*
X0409360Y0158277D02*
X0195482Y0158277D01*
X0195482Y0156679D02*
X0407152Y0156679D01*
X0400553Y0155080D02*
X0195482Y0155080D01*
X0195482Y0153482D02*
X0399198Y0153482D01*
X0398586Y0151883D02*
X0195482Y0151883D01*
X0195482Y0150285D02*
X0398586Y0150285D01*
X0399112Y0148686D02*
X0195482Y0148686D01*
X0195482Y0147088D02*
X0400346Y0147088D01*
X0407128Y0147088D02*
X0428134Y0147088D01*
X0428134Y0148686D02*
X0413122Y0148686D01*
X0415325Y0150285D02*
X0428134Y0150285D01*
X0428134Y0151883D02*
X0421924Y0151883D01*
X0423277Y0153482D02*
X0428134Y0153482D01*
X0428134Y0155080D02*
X0423887Y0155080D01*
X0423887Y0156679D02*
X0428134Y0156679D01*
X0428134Y0158277D02*
X0423360Y0158277D01*
X0422125Y0159876D02*
X0428134Y0159876D01*
X0409352Y0148686D02*
X0408361Y0148686D01*
X0428134Y0145489D02*
X0195482Y0145489D01*
X0195482Y0143891D02*
X0428134Y0143891D01*
X0428134Y0142292D02*
X0195482Y0142292D01*
X0195482Y0140694D02*
X0428134Y0140694D01*
X0428134Y0139095D02*
X0195482Y0139095D01*
X0195482Y0137497D02*
X0428134Y0137497D01*
X0428134Y0135898D02*
X0365322Y0135898D01*
X0364761Y0136131D02*
X0362712Y0136131D01*
X0360819Y0135347D01*
X0359371Y0133898D01*
X0359035Y0133087D01*
X0264581Y0133087D01*
X0264245Y0133898D01*
X0262796Y0135347D01*
X0260903Y0136131D01*
X0258854Y0136131D01*
X0256961Y0135347D01*
X0255512Y0133898D01*
X0254728Y0132005D01*
X0254728Y0129956D01*
X0255512Y0128063D01*
X0256961Y0126614D01*
X0258854Y0125830D01*
X0260903Y0125830D01*
X0262796Y0126614D01*
X0264245Y0128063D01*
X0264581Y0128873D01*
X0359035Y0128873D01*
X0359371Y0128063D01*
X0360819Y0126614D01*
X0362712Y0125830D01*
X0364761Y0125830D01*
X0366654Y0126614D01*
X0368103Y0128063D01*
X0368887Y0129956D01*
X0368887Y0132005D01*
X0368103Y0133898D01*
X0366654Y0135347D01*
X0364761Y0136131D01*
X0362151Y0135898D02*
X0261464Y0135898D01*
X0263843Y0134300D02*
X0359773Y0134300D01*
X0359528Y0127906D02*
X0264088Y0127906D01*
X0262055Y0126307D02*
X0361560Y0126307D01*
X0365914Y0126307D02*
X0389086Y0126307D01*
X0388982Y0126511D02*
X0389349Y0125791D01*
X0389823Y0125138D01*
X0390394Y0124567D01*
X0391048Y0124092D01*
X0391767Y0123726D01*
X0392535Y0123476D01*
X0393333Y0123350D01*
X0393356Y0123350D01*
X0393356Y0128099D01*
X0394118Y0128099D01*
X0394118Y0123350D01*
X0394141Y0123350D01*
X0394938Y0123476D01*
X0395706Y0123726D01*
X0396426Y0124092D01*
X0397079Y0124567D01*
X0397650Y0125138D01*
X0398125Y0125791D01*
X0398492Y0126511D01*
X0398741Y0127279D01*
X0398868Y0128077D01*
X0398868Y0128099D01*
X0394118Y0128099D01*
X0394118Y0128861D01*
X0398868Y0128861D01*
X0398868Y0128884D01*
X0398741Y0129682D01*
X0398492Y0130450D01*
X0398125Y0131169D01*
X0397650Y0131823D01*
X0397079Y0132394D01*
X0396426Y0132868D01*
X0395706Y0133235D01*
X0394938Y0133485D01*
X0394141Y0133611D01*
X0394118Y0133611D01*
X0394118Y0128861D01*
X0393356Y0128861D01*
X0393356Y0128099D01*
X0388606Y0128099D01*
X0388606Y0128077D01*
X0388732Y0127279D01*
X0388982Y0126511D01*
X0387776Y0126307D02*
X0399776Y0126307D01*
X0398388Y0126307D02*
X0428134Y0126307D01*
X0428134Y0124709D02*
X0397221Y0124709D01*
X0399776Y0124709D02*
X0387776Y0124709D01*
X0387776Y0124177D02*
X0387776Y0136177D01*
X0399776Y0136177D01*
X0399776Y0124177D01*
X0387776Y0124177D01*
X0390253Y0124709D02*
X0230863Y0124709D01*
X0230721Y0124567D02*
X0231292Y0125138D01*
X0231767Y0125791D01*
X0232133Y0126511D01*
X0232383Y0127279D01*
X0232509Y0128077D01*
X0232509Y0128099D01*
X0227760Y0128099D01*
X0227760Y0128861D01*
X0232509Y0128861D01*
X0232509Y0128884D01*
X0232383Y0129682D01*
X0232133Y0130450D01*
X0231767Y0131169D01*
X0231292Y0131823D01*
X0230721Y0132394D01*
X0230068Y0132868D01*
X0229348Y0133235D01*
X0228580Y0133485D01*
X0227782Y0133611D01*
X0227760Y0133611D01*
X0227760Y0128861D01*
X0226997Y0128861D01*
X0226997Y0128099D01*
X0222248Y0128099D01*
X0222248Y0128077D01*
X0222374Y0127279D01*
X0222624Y0126511D01*
X0222990Y0125791D01*
X0223465Y0125138D01*
X0224036Y0124567D01*
X0224690Y0124092D01*
X0225409Y0123726D01*
X0226177Y0123476D01*
X0226975Y0123350D01*
X0226997Y0123350D01*
X0226997Y0128099D01*
X0227760Y0128099D01*
X0227760Y0123350D01*
X0227782Y0123350D01*
X0228580Y0123476D01*
X0229348Y0123726D01*
X0230068Y0124092D01*
X0230721Y0124567D01*
X0232030Y0126307D02*
X0257702Y0126307D01*
X0255669Y0127906D02*
X0232482Y0127906D01*
X0233776Y0127906D02*
X0221776Y0127906D01*
X0222275Y0127906D02*
X0220153Y0127906D01*
X0220296Y0127847D02*
X0218403Y0128631D01*
X0216354Y0128631D01*
X0214648Y0127924D01*
X0214245Y0128898D01*
X0212796Y0130347D01*
X0210903Y0131131D01*
X0208854Y0131131D01*
X0207148Y0130424D01*
X0206745Y0131398D01*
X0205296Y0132847D01*
X0203403Y0133631D01*
X0201354Y0133631D01*
X0199461Y0132847D01*
X0198012Y0131398D01*
X0197228Y0129505D01*
X0197228Y0127456D01*
X0198012Y0125563D01*
X0199461Y0124114D01*
X0199669Y0124028D01*
X0199669Y0114304D01*
X0200903Y0113070D01*
X0207600Y0106373D01*
X0240177Y0106373D01*
X0240512Y0105563D01*
X0241961Y0104114D01*
X0243854Y0103330D01*
X0245903Y0103330D01*
X0247796Y0104114D01*
X0249245Y0105563D01*
X0249293Y0105680D01*
X0249669Y0105304D01*
X0250903Y0104070D01*
X0375926Y0104070D01*
X0377712Y0103330D01*
X0379761Y0103330D01*
X0381654Y0104114D01*
X0383103Y0105563D01*
X0383439Y0106373D01*
X0415952Y0106373D01*
X0418349Y0108770D01*
X0421242Y0108770D01*
X0422183Y0109711D01*
X0422183Y0114643D01*
X0421242Y0115584D01*
X0416311Y0115584D01*
X0415369Y0114643D01*
X0415369Y0111750D01*
X0414207Y0110587D01*
X0383439Y0110587D01*
X0383103Y0111398D01*
X0381654Y0112847D01*
X0381115Y0113070D01*
X0386868Y0113070D01*
X0386871Y0113063D01*
X0388319Y0111614D01*
X0390212Y0110830D01*
X0392261Y0110830D01*
X0394154Y0111614D01*
X0395603Y0113063D01*
X0396387Y0114956D01*
X0396387Y0117005D01*
X0395603Y0118898D01*
X0394154Y0120347D01*
X0392261Y0121131D01*
X0390212Y0121131D01*
X0388319Y0120347D01*
X0386871Y0118898D01*
X0386202Y0117284D01*
X0373903Y0117284D01*
X0372669Y0116050D01*
X0371254Y0114635D01*
X0371387Y0114956D01*
X0371387Y0117005D01*
X0370603Y0118898D01*
X0369154Y0120347D01*
X0367261Y0121131D01*
X0365212Y0121131D01*
X0363319Y0120347D01*
X0361871Y0118898D01*
X0361535Y0118087D01*
X0263359Y0118087D01*
X0262746Y0119567D01*
X0260965Y0121348D01*
X0258638Y0122312D01*
X0256119Y0122312D01*
X0253792Y0121348D01*
X0252011Y0119567D01*
X0251047Y0117240D01*
X0251047Y0114721D01*
X0251637Y0113296D01*
X0246846Y0118087D01*
X0238359Y0118087D01*
X0237746Y0119567D01*
X0235965Y0121348D01*
X0233638Y0122312D01*
X0231119Y0122312D01*
X0228792Y0121348D01*
X0227011Y0119567D01*
X0226047Y0117240D01*
X0226047Y0114721D01*
X0227011Y0112394D01*
X0228792Y0110613D01*
X0228853Y0110587D01*
X0209346Y0110587D01*
X0203883Y0116050D01*
X0203883Y0123529D01*
X0205109Y0124037D01*
X0205512Y0123063D01*
X0206961Y0121614D01*
X0208854Y0120830D01*
X0210903Y0120830D01*
X0212609Y0121537D01*
X0213012Y0120563D01*
X0214461Y0119114D01*
X0216354Y0118330D01*
X0218403Y0118330D01*
X0220296Y0119114D01*
X0221745Y0120563D01*
X0222529Y0122456D01*
X0222529Y0124505D01*
X0221776Y0126322D01*
X0221776Y0134177D01*
X0233776Y0134177D01*
X0233776Y0124177D01*
X0222529Y0124177D01*
X0222529Y0124505D01*
X0221745Y0126398D01*
X0220296Y0127847D01*
X0221782Y0126307D02*
X0233776Y0126307D01*
X0233776Y0124709D02*
X0222445Y0124709D01*
X0223894Y0124709D01*
X0222728Y0126307D02*
X0221782Y0126307D01*
X0222248Y0128861D02*
X0226997Y0128861D01*
X0226997Y0133611D01*
X0226975Y0133611D01*
X0226177Y0133485D01*
X0225409Y0133235D01*
X0224690Y0132868D01*
X0224036Y0132394D01*
X0223465Y0131823D01*
X0222990Y0131169D01*
X0222624Y0130450D01*
X0222374Y0129682D01*
X0222248Y0128884D01*
X0222248Y0128861D01*
X0222346Y0129504D02*
X0213638Y0129504D01*
X0210971Y0131103D02*
X0222956Y0131103D01*
X0221776Y0131103D02*
X0233776Y0131103D01*
X0233776Y0132701D02*
X0221776Y0132701D01*
X0224459Y0132701D02*
X0205441Y0132701D01*
X0206867Y0131103D02*
X0208787Y0131103D01*
X0199316Y0132701D02*
X0195482Y0132701D01*
X0195482Y0131103D02*
X0197890Y0131103D01*
X0197228Y0129504D02*
X0195482Y0129504D01*
X0195482Y0127906D02*
X0197228Y0127906D01*
X0197704Y0126307D02*
X0195482Y0126307D01*
X0195482Y0124709D02*
X0198866Y0124709D01*
X0199669Y0123110D02*
X0195482Y0123110D01*
X0195482Y0121512D02*
X0199669Y0121512D01*
X0199669Y0119913D02*
X0195482Y0119913D01*
X0195482Y0118315D02*
X0199669Y0118315D01*
X0199669Y0116716D02*
X0195482Y0116716D01*
X0195482Y0115118D02*
X0199669Y0115118D01*
X0200454Y0113519D02*
X0195482Y0113519D01*
X0195482Y0111921D02*
X0202053Y0111921D01*
X0203651Y0110322D02*
X0195482Y0110322D01*
X0195482Y0108724D02*
X0205250Y0108724D01*
X0206848Y0107125D02*
X0195482Y0107125D01*
X0195482Y0105527D02*
X0240549Y0105527D01*
X0242410Y0103928D02*
X0195482Y0103928D01*
X0195482Y0102330D02*
X0428134Y0102330D01*
X0428134Y0103928D02*
X0381205Y0103928D01*
X0383067Y0105527D02*
X0428134Y0105527D01*
X0428134Y0107125D02*
X0416704Y0107125D01*
X0418302Y0108724D02*
X0428134Y0108724D01*
X0428134Y0110322D02*
X0422183Y0110322D01*
X0422183Y0111921D02*
X0428134Y0111921D01*
X0428134Y0113519D02*
X0422183Y0113519D01*
X0421709Y0115118D02*
X0428134Y0115118D01*
X0428134Y0116716D02*
X0396387Y0116716D01*
X0396387Y0115118D02*
X0415844Y0115118D01*
X0415369Y0113519D02*
X0395792Y0113519D01*
X0394461Y0111921D02*
X0415369Y0111921D01*
X0428134Y0118315D02*
X0395845Y0118315D01*
X0394588Y0119913D02*
X0428134Y0119913D01*
X0428134Y0121512D02*
X0260570Y0121512D01*
X0262400Y0119913D02*
X0362886Y0119913D01*
X0361629Y0118315D02*
X0263265Y0118315D01*
X0254187Y0121512D02*
X0235570Y0121512D01*
X0237400Y0119913D02*
X0252357Y0119913D01*
X0251492Y0118315D02*
X0238265Y0118315D01*
X0248217Y0116716D02*
X0251047Y0116716D01*
X0251047Y0115118D02*
X0249816Y0115118D01*
X0251414Y0113519D02*
X0251545Y0113519D01*
X0249447Y0105527D02*
X0249209Y0105527D01*
X0247347Y0103928D02*
X0376268Y0103928D01*
X0382580Y0111921D02*
X0388013Y0111921D01*
X0386629Y0118315D02*
X0370845Y0118315D01*
X0371387Y0116716D02*
X0373335Y0116716D01*
X0371737Y0115118D02*
X0371387Y0115118D01*
X0369588Y0119913D02*
X0387886Y0119913D01*
X0393356Y0124709D02*
X0394118Y0124709D01*
X0394118Y0126307D02*
X0393356Y0126307D01*
X0393356Y0127906D02*
X0394118Y0127906D01*
X0393356Y0128861D02*
X0388606Y0128861D01*
X0388606Y0128884D01*
X0388732Y0129682D01*
X0388982Y0130450D01*
X0389349Y0131169D01*
X0389823Y0131823D01*
X0390394Y0132394D01*
X0391048Y0132868D01*
X0391767Y0133235D01*
X0392535Y0133485D01*
X0393333Y0133611D01*
X0393356Y0133611D01*
X0393356Y0128861D01*
X0393356Y0129504D02*
X0394118Y0129504D01*
X0394118Y0131103D02*
X0393356Y0131103D01*
X0393356Y0132701D02*
X0394118Y0132701D01*
X0396656Y0132701D02*
X0428134Y0132701D01*
X0428134Y0131103D02*
X0398159Y0131103D01*
X0399776Y0131103D02*
X0387776Y0131103D01*
X0389315Y0131103D02*
X0368887Y0131103D01*
X0368700Y0129504D02*
X0388704Y0129504D01*
X0387776Y0129504D02*
X0399776Y0129504D01*
X0398769Y0129504D02*
X0428134Y0129504D01*
X0428134Y0127906D02*
X0398841Y0127906D01*
X0399776Y0127906D02*
X0387776Y0127906D01*
X0388633Y0127906D02*
X0367946Y0127906D01*
X0368599Y0132701D02*
X0390818Y0132701D01*
X0387776Y0132701D02*
X0399776Y0132701D01*
X0399776Y0134300D02*
X0387776Y0134300D01*
X0387776Y0135898D02*
X0399776Y0135898D01*
X0428134Y0134300D02*
X0367701Y0134300D01*
X0428134Y0123110D02*
X0222529Y0123110D01*
X0222138Y0121512D02*
X0229187Y0121512D01*
X0227357Y0119913D02*
X0221095Y0119913D01*
X0226492Y0118315D02*
X0203883Y0118315D01*
X0203883Y0119913D02*
X0213662Y0119913D01*
X0212619Y0121512D02*
X0212549Y0121512D01*
X0207208Y0121512D02*
X0203883Y0121512D01*
X0203883Y0123110D02*
X0205493Y0123110D01*
X0203883Y0116716D02*
X0226047Y0116716D01*
X0226047Y0115118D02*
X0204816Y0115118D01*
X0206414Y0113519D02*
X0226545Y0113519D01*
X0227484Y0111921D02*
X0208013Y0111921D01*
X0226997Y0124709D02*
X0227760Y0124709D01*
X0227760Y0126307D02*
X0226997Y0126307D01*
X0226997Y0127906D02*
X0227760Y0127906D01*
X0227760Y0129504D02*
X0226997Y0129504D01*
X0226997Y0131103D02*
X0227760Y0131103D01*
X0227760Y0132701D02*
X0226997Y0132701D01*
X0230298Y0132701D02*
X0255017Y0132701D01*
X0254728Y0131103D02*
X0231801Y0131103D01*
X0232411Y0129504D02*
X0254915Y0129504D01*
X0255914Y0134300D02*
X0195482Y0134300D01*
X0195482Y0135898D02*
X0258293Y0135898D01*
X0233776Y0129504D02*
X0221776Y0129504D01*
X0225903Y0101284D02*
X0224669Y0100050D01*
X0224669Y0088304D01*
X0225903Y0087070D01*
X0227649Y0087070D01*
X0403669Y0087070D01*
X0403669Y0080304D01*
X0404903Y0079070D01*
X0417649Y0079070D01*
X0418883Y0080304D01*
X0418883Y0097050D01*
X0417649Y0098284D01*
X0252883Y0098284D01*
X0252883Y0100050D01*
X0251649Y0101284D01*
X0225903Y0101284D01*
X0225350Y0100731D02*
X0195482Y0100731D01*
X0195482Y0099133D02*
X0224669Y0099133D01*
X0224669Y0097534D02*
X0195482Y0097534D01*
X0195482Y0095935D02*
X0224669Y0095935D01*
X0224669Y0094337D02*
X0204673Y0094337D01*
X0204807Y0094203D02*
X0203802Y0095208D01*
X0202487Y0095753D01*
X0201065Y0095753D01*
X0199751Y0095208D01*
X0198745Y0094203D01*
X0198201Y0092888D01*
X0198201Y0091466D01*
X0198745Y0090152D01*
X0199751Y0089146D01*
X0201065Y0088602D01*
X0202487Y0088602D01*
X0203802Y0089146D01*
X0204807Y0090152D01*
X0205352Y0091466D01*
X0205352Y0092888D01*
X0204807Y0094203D01*
X0205352Y0092738D02*
X0224669Y0092738D01*
X0224669Y0091140D02*
X0205217Y0091140D01*
X0204197Y0089541D02*
X0224669Y0089541D01*
X0225031Y0087943D02*
X0195482Y0087943D01*
X0195482Y0089541D02*
X0199355Y0089541D01*
X0198336Y0091140D02*
X0195482Y0091140D01*
X0195482Y0092738D02*
X0198201Y0092738D01*
X0198879Y0094337D02*
X0195482Y0094337D01*
X0195503Y0086344D02*
X0403669Y0086344D01*
X0403669Y0084746D02*
X0384656Y0084746D01*
X0384501Y0084900D02*
X0384032Y0085214D01*
X0383510Y0085430D01*
X0382956Y0085540D01*
X0382674Y0085540D01*
X0382674Y0082673D01*
X0382674Y0079806D01*
X0382956Y0079806D01*
X0383510Y0079916D01*
X0384032Y0080133D01*
X0384501Y0080446D01*
X0384901Y0080846D01*
X0385215Y0081315D01*
X0385431Y0081837D01*
X0385541Y0082391D01*
X0385541Y0082673D01*
X0382674Y0082673D01*
X0382674Y0082673D01*
X0382674Y0082673D01*
X0382674Y0079806D01*
X0382391Y0079806D01*
X0381838Y0079916D01*
X0381316Y0080133D01*
X0380846Y0080446D01*
X0380447Y0080846D01*
X0380133Y0081315D01*
X0379917Y0081837D01*
X0379807Y0082391D01*
X0379807Y0082673D01*
X0382674Y0082673D01*
X0385541Y0082673D01*
X0385541Y0082956D01*
X0385431Y0083509D01*
X0385215Y0084031D01*
X0384901Y0084501D01*
X0384501Y0084900D01*
X0382674Y0084746D02*
X0382674Y0084746D01*
X0382674Y0085540D02*
X0382391Y0085540D01*
X0381838Y0085430D01*
X0381316Y0085214D01*
X0380846Y0084900D01*
X0380447Y0084501D01*
X0380133Y0084031D01*
X0379917Y0083509D01*
X0379807Y0082956D01*
X0379807Y0082673D01*
X0382674Y0082673D01*
X0382674Y0082673D01*
X0382674Y0082673D01*
X0382674Y0085540D01*
X0380692Y0084746D02*
X0242923Y0084746D01*
X0242769Y0084900D02*
X0242300Y0085214D01*
X0241778Y0085430D01*
X0241224Y0085540D01*
X0240942Y0085540D01*
X0240942Y0082673D01*
X0240942Y0082673D01*
X0243809Y0082673D01*
X0243809Y0082391D01*
X0243698Y0081837D01*
X0243482Y0081315D01*
X0243168Y0080846D01*
X0242769Y0080446D01*
X0242300Y0080133D01*
X0241778Y0079916D01*
X0241224Y0079806D01*
X0240942Y0079806D01*
X0240942Y0082673D01*
X0240942Y0082673D01*
X0243809Y0082673D01*
X0243809Y0082956D01*
X0243698Y0083509D01*
X0243482Y0084031D01*
X0243168Y0084501D01*
X0242769Y0084900D01*
X0240942Y0084746D02*
X0240942Y0084746D01*
X0240942Y0085540D02*
X0240659Y0085540D01*
X0240105Y0085430D01*
X0239584Y0085214D01*
X0239114Y0084900D01*
X0238715Y0084501D01*
X0238401Y0084031D01*
X0238185Y0083509D01*
X0238075Y0082956D01*
X0238075Y0082673D01*
X0238075Y0082391D01*
X0238185Y0081837D01*
X0238401Y0081315D01*
X0238715Y0080846D01*
X0239114Y0080446D01*
X0239584Y0080133D01*
X0240105Y0079916D01*
X0240659Y0079806D01*
X0240942Y0079806D01*
X0240942Y0082673D01*
X0240942Y0082673D01*
X0240941Y0082673D02*
X0238075Y0082673D01*
X0240941Y0082673D01*
X0240941Y0082673D01*
X0240942Y0082673D02*
X0240942Y0085540D01*
X0238960Y0084746D02*
X0195701Y0084746D01*
X0196221Y0083147D02*
X0238113Y0083147D01*
X0238304Y0081549D02*
X0196945Y0081549D01*
X0198106Y0079950D02*
X0240023Y0079950D01*
X0240942Y0079950D02*
X0240942Y0079950D01*
X0241860Y0079950D02*
X0381756Y0079950D01*
X0382674Y0079950D02*
X0382674Y0079950D01*
X0383592Y0079950D02*
X0404023Y0079950D01*
X0403669Y0081549D02*
X0385311Y0081549D01*
X0385503Y0083147D02*
X0403669Y0083147D01*
X0418529Y0079950D02*
X0425509Y0079950D01*
X0426671Y0081549D02*
X0418883Y0081549D01*
X0418883Y0083147D02*
X0427395Y0083147D01*
X0427914Y0084746D02*
X0418883Y0084746D01*
X0418883Y0086344D02*
X0428113Y0086344D01*
X0428134Y0087943D02*
X0418883Y0087943D01*
X0418883Y0089541D02*
X0428134Y0089541D01*
X0428134Y0091140D02*
X0418883Y0091140D01*
X0418883Y0092738D02*
X0428134Y0092738D01*
X0428134Y0094337D02*
X0418883Y0094337D01*
X0418883Y0095935D02*
X0428134Y0095935D01*
X0428134Y0097534D02*
X0418399Y0097534D01*
X0428134Y0099133D02*
X0252883Y0099133D01*
X0252202Y0100731D02*
X0428134Y0100731D01*
X0423589Y0078352D02*
X0200027Y0078352D01*
X0203797Y0076753D02*
X0419818Y0076753D01*
X0382674Y0081549D02*
X0382674Y0081549D01*
X0382674Y0083147D02*
X0382674Y0083147D01*
X0379845Y0083147D02*
X0243770Y0083147D01*
X0243579Y0081549D02*
X0380036Y0081549D01*
X0240942Y0081549D02*
X0240942Y0081549D01*
X0240942Y0083147D02*
X0240942Y0083147D01*
X0425841Y0206233D02*
X0428134Y0206233D01*
X0428445Y0207831D02*
X0426352Y0207831D01*
X0426128Y0209430D02*
X0428964Y0209430D01*
X0429465Y0210970D02*
X0429465Y0210970D01*
X0429507Y0211028D02*
X0424982Y0211028D01*
X0689182Y0219021D02*
X0056481Y0219021D01*
X0053621Y0220619D02*
X0692042Y0220619D01*
X0134012Y0249393D02*
X0067005Y0249393D01*
X0066224Y0247794D02*
X0133669Y0247794D01*
X0133669Y0246196D02*
X0064626Y0246196D01*
D19*
X0220776Y0320177D03*
X0238776Y0306177D03*
X0317776Y0355177D03*
X0354776Y0347177D03*
X0326776Y0328177D03*
X0326776Y0324177D03*
X0354776Y0320177D03*
X0331493Y0302177D03*
X0340776Y0294177D03*
X0374776Y0296177D03*
X0403776Y0296177D03*
X0408776Y0290177D03*
X0405776Y0308177D03*
X0394776Y0323177D03*
X0426776Y0329177D03*
X0455776Y0334177D03*
X0402776Y0347177D03*
X0394776Y0347177D03*
X0543776Y0320177D03*
X0560776Y0318177D03*
X0574776Y0305177D03*
X0584776Y0299177D03*
X0583776Y0315177D03*
X0624776Y0307177D03*
X0558776Y0291177D03*
X0528343Y0228343D03*
X0595272Y0228343D03*
X0378198Y0253177D03*
X0328776Y0195177D03*
X0302776Y0196177D03*
X0286776Y0196177D03*
X0272776Y0196177D03*
X0250575Y0253177D03*
X0240942Y0082673D03*
X0382674Y0082673D03*
D20*
X0405776Y0083130D02*
X0407337Y0083130D01*
X0407552Y0082833D02*
X0408090Y0082296D01*
X0408705Y0081849D01*
X0409383Y0081504D01*
X0410106Y0081269D01*
X0410683Y0081177D01*
X0405776Y0081177D01*
X0405776Y0089177D01*
X0246842Y0089177D01*
X0247410Y0089467D01*
X0248026Y0089914D01*
X0248563Y0090451D01*
X0249010Y0091067D01*
X0249355Y0091744D01*
X0249590Y0092467D01*
X0249690Y0093098D01*
X0245379Y0093098D01*
X0245379Y0094098D01*
X0249690Y0094098D01*
X0249590Y0094730D01*
X0249355Y0095453D01*
X0249010Y0096130D01*
X0248563Y0096745D01*
X0248026Y0097283D01*
X0247410Y0097730D01*
X0246733Y0098075D01*
X0246010Y0098310D01*
X0245379Y0098410D01*
X0245379Y0094098D01*
X0244379Y0094098D01*
X0244379Y0093098D01*
X0240067Y0093098D01*
X0240167Y0092467D01*
X0240402Y0091744D01*
X0240747Y0091067D01*
X0241194Y0090451D01*
X0241732Y0089914D01*
X0242347Y0089467D01*
X0242915Y0089177D01*
X0235938Y0089177D01*
X0236045Y0089206D01*
X0236338Y0089375D01*
X0236578Y0089615D01*
X0236748Y0089909D01*
X0236835Y0090236D01*
X0236835Y0092087D01*
X0233867Y0092087D01*
X0233867Y0092268D01*
X0233686Y0092268D01*
X0233686Y0093118D01*
X0233686Y0096087D01*
X0230717Y0096087D01*
X0229867Y0096087D01*
X0229867Y0096268D01*
X0233686Y0096268D01*
X0233686Y0096087D01*
X0233867Y0096087D01*
X0233867Y0096268D01*
X0236835Y0096268D01*
X0236835Y0098118D01*
X0236748Y0098446D01*
X0236578Y0098739D01*
X0236338Y0098979D01*
X0236045Y0099148D01*
X0235938Y0099177D01*
X0250776Y0099177D01*
X0250776Y0096177D01*
X0416776Y0096177D01*
X0416776Y0081177D01*
X0411791Y0081177D01*
X0412368Y0081269D01*
X0413091Y0081504D01*
X0413769Y0081849D01*
X0414384Y0082296D01*
X0414922Y0082833D01*
X0415368Y0083448D01*
X0415714Y0084126D01*
X0415949Y0084849D01*
X0416049Y0085480D01*
X0411737Y0085480D01*
X0411737Y0086480D01*
X0416049Y0086480D01*
X0415949Y0087112D01*
X0415714Y0087835D01*
X0415368Y0088512D01*
X0414922Y0089127D01*
X0414384Y0089665D01*
X0413769Y0090112D01*
X0413091Y0090457D01*
X0412368Y0090692D01*
X0411737Y0090792D01*
X0411737Y0086480D01*
X0410737Y0086480D01*
X0410737Y0085480D01*
X0406425Y0085480D01*
X0406525Y0084849D01*
X0406760Y0084126D01*
X0407105Y0083448D01*
X0407552Y0082833D01*
X0408316Y0082131D02*
X0405776Y0082131D01*
X0405776Y0084128D02*
X0406759Y0084128D01*
X0406481Y0085127D02*
X0405776Y0085127D01*
X0405776Y0086125D02*
X0410737Y0086125D01*
X0410737Y0086480D02*
X0406425Y0086480D01*
X0406525Y0087112D01*
X0406760Y0087835D01*
X0407105Y0088512D01*
X0407552Y0089127D01*
X0408090Y0089665D01*
X0408705Y0090112D01*
X0409383Y0090457D01*
X0410106Y0090692D01*
X0410737Y0090792D01*
X0410737Y0086480D01*
X0410737Y0087124D02*
X0411737Y0087124D01*
X0411737Y0088122D02*
X0410737Y0088122D01*
X0410737Y0089121D02*
X0411737Y0089121D01*
X0411737Y0090119D02*
X0410737Y0090119D01*
X0408719Y0090119D02*
X0248231Y0090119D01*
X0249036Y0091118D02*
X0416776Y0091118D01*
X0416776Y0092116D02*
X0249476Y0092116D01*
X0249688Y0094113D02*
X0416776Y0094113D01*
X0416776Y0093115D02*
X0245379Y0093115D01*
X0245379Y0094113D02*
X0244379Y0094113D01*
X0244379Y0094098D02*
X0244379Y0098410D01*
X0243747Y0098310D01*
X0243024Y0098075D01*
X0242347Y0097730D01*
X0241732Y0097283D01*
X0241194Y0096745D01*
X0240747Y0096130D01*
X0240402Y0095453D01*
X0240167Y0094730D01*
X0240067Y0094098D01*
X0244379Y0094098D01*
X0244379Y0093115D02*
X0236835Y0093115D01*
X0236835Y0092268D02*
X0236835Y0094118D01*
X0236820Y0094177D01*
X0236835Y0094236D01*
X0236835Y0096087D01*
X0233867Y0096087D01*
X0233867Y0092268D01*
X0236835Y0092268D01*
X0236835Y0091118D02*
X0240721Y0091118D01*
X0240281Y0092116D02*
X0233867Y0092116D01*
X0233686Y0092116D02*
X0229867Y0092116D01*
X0229867Y0092087D02*
X0229867Y0092268D01*
X0229867Y0093118D01*
X0229867Y0096087D01*
X0229686Y0096087D01*
X0229686Y0092268D01*
X0229867Y0092268D01*
X0233686Y0092268D01*
X0233686Y0092087D01*
X0232835Y0092087D01*
X0229867Y0092087D01*
X0229867Y0093115D02*
X0229686Y0093115D01*
X0229686Y0094113D02*
X0229867Y0094113D01*
X0229867Y0095112D02*
X0229686Y0095112D01*
X0229867Y0096110D02*
X0233686Y0096110D01*
X0233867Y0096110D02*
X0240737Y0096110D01*
X0240291Y0095112D02*
X0236835Y0095112D01*
X0236835Y0094113D02*
X0240069Y0094113D01*
X0241557Y0097109D02*
X0236835Y0097109D01*
X0236835Y0098107D02*
X0243123Y0098107D01*
X0244379Y0098107D02*
X0245379Y0098107D01*
X0245379Y0097109D02*
X0244379Y0097109D01*
X0244379Y0096110D02*
X0245379Y0096110D01*
X0245379Y0095112D02*
X0244379Y0095112D01*
X0246634Y0098107D02*
X0250776Y0098107D01*
X0250776Y0097109D02*
X0248200Y0097109D01*
X0249020Y0096110D02*
X0416776Y0096110D01*
X0416776Y0095112D02*
X0249466Y0095112D01*
X0250776Y0099106D02*
X0236119Y0099106D01*
X0233867Y0095112D02*
X0233686Y0095112D01*
X0233686Y0094113D02*
X0233867Y0094113D01*
X0233867Y0093115D02*
X0233686Y0093115D01*
X0236804Y0090119D02*
X0241526Y0090119D01*
X0251776Y0106177D02*
X0376434Y0106177D01*
X0378737Y0108480D01*
X0415079Y0108480D01*
X0418776Y0112177D01*
X0391237Y0115980D02*
X0390434Y0115177D01*
X0374776Y0115177D01*
X0368776Y0109177D01*
X0252776Y0109177D01*
X0245973Y0115980D01*
X0232379Y0115980D01*
X0244879Y0108480D02*
X0208473Y0108480D01*
X0201776Y0115177D01*
X0201776Y0127878D01*
X0202379Y0128480D01*
X0244879Y0108480D02*
X0249473Y0108480D01*
X0251776Y0106177D01*
X0257379Y0115980D02*
X0366237Y0115980D01*
X0363737Y0130980D02*
X0259879Y0130980D01*
X0405776Y0089121D02*
X0407547Y0089121D01*
X0406907Y0088122D02*
X0405776Y0088122D01*
X0405776Y0087124D02*
X0406529Y0087124D01*
X0411737Y0086125D02*
X0416776Y0086125D01*
X0416776Y0085127D02*
X0415993Y0085127D01*
X0415714Y0084128D02*
X0416776Y0084128D01*
X0416776Y0083130D02*
X0415137Y0083130D01*
X0414157Y0082131D02*
X0416776Y0082131D01*
X0416776Y0087124D02*
X0415945Y0087124D01*
X0415567Y0088122D02*
X0416776Y0088122D01*
X0416776Y0089121D02*
X0414926Y0089121D01*
X0413755Y0090119D02*
X0416776Y0090119D01*
X0354911Y0234177D02*
X0354413Y0234675D01*
X0352131Y0235620D01*
X0349661Y0235620D01*
X0347379Y0234675D01*
X0346881Y0234177D01*
X0221053Y0234177D01*
X0220555Y0234675D01*
X0218273Y0235620D01*
X0215803Y0235620D01*
X0213521Y0234675D01*
X0213023Y0234177D01*
X0135776Y0234177D01*
X0135776Y0248177D01*
X0189448Y0248299D01*
X0189503Y0248166D01*
X0191250Y0246419D01*
X0193532Y0245474D01*
X0196002Y0245474D01*
X0198284Y0246419D01*
X0200030Y0248166D01*
X0200095Y0248324D01*
X0323180Y0248604D01*
X0323362Y0248166D01*
X0325108Y0246419D01*
X0327390Y0245474D01*
X0329860Y0245474D01*
X0332142Y0246419D01*
X0333888Y0248166D01*
X0334080Y0248629D01*
X0456912Y0248909D01*
X0457220Y0248166D01*
X0458966Y0246419D01*
X0461248Y0245474D01*
X0463718Y0245474D01*
X0466000Y0246419D01*
X0467747Y0248166D01*
X0468065Y0248934D01*
X0574698Y0249177D01*
X0591198Y0265677D01*
X0605260Y0265677D01*
X0622760Y0248177D01*
X0685839Y0248177D01*
X0685839Y0234177D01*
X0622627Y0234177D01*
X0622129Y0234675D01*
X0619848Y0235620D01*
X0617378Y0235620D01*
X0615096Y0234675D01*
X0614598Y0234177D01*
X0488769Y0234177D01*
X0488271Y0234675D01*
X0485989Y0235620D01*
X0483519Y0235620D01*
X0481237Y0234675D01*
X0480739Y0234177D01*
X0354911Y0234177D01*
X0353862Y0234903D02*
X0481788Y0234903D01*
X0487721Y0234903D02*
X0615646Y0234903D01*
X0621579Y0234903D02*
X0685839Y0234903D01*
X0685839Y0235902D02*
X0135776Y0235902D01*
X0135776Y0236900D02*
X0685839Y0236900D01*
X0685839Y0237899D02*
X0135776Y0237899D01*
X0135776Y0238897D02*
X0685839Y0238897D01*
X0685839Y0239896D02*
X0135776Y0239896D01*
X0135776Y0240894D02*
X0685839Y0240894D01*
X0685839Y0241893D02*
X0135776Y0241893D01*
X0135776Y0242891D02*
X0685839Y0242891D01*
X0685839Y0243890D02*
X0135776Y0243890D01*
X0135776Y0244888D02*
X0685839Y0244888D01*
X0685839Y0245887D02*
X0598573Y0245887D01*
X0597576Y0245474D02*
X0599858Y0246419D01*
X0601605Y0248166D01*
X0602550Y0250448D01*
X0602550Y0252918D01*
X0601605Y0255200D01*
X0599858Y0256946D01*
X0597576Y0257891D01*
X0595106Y0257891D01*
X0592825Y0256946D01*
X0591078Y0255200D01*
X0590133Y0252918D01*
X0590133Y0250448D01*
X0591078Y0248166D01*
X0592825Y0246419D01*
X0595106Y0245474D01*
X0597576Y0245474D01*
X0600324Y0246885D02*
X0685839Y0246885D01*
X0685839Y0247884D02*
X0601323Y0247884D01*
X0601902Y0248882D02*
X0622055Y0248882D01*
X0621057Y0249881D02*
X0602315Y0249881D01*
X0602550Y0250879D02*
X0620058Y0250879D01*
X0619060Y0251878D02*
X0602550Y0251878D01*
X0602550Y0252876D02*
X0618061Y0252876D01*
X0617063Y0253875D02*
X0602154Y0253875D01*
X0601740Y0254873D02*
X0616064Y0254873D01*
X0615066Y0255872D02*
X0600933Y0255872D01*
X0599934Y0256870D02*
X0614067Y0256870D01*
X0613069Y0257869D02*
X0597631Y0257869D01*
X0595052Y0257869D02*
X0583389Y0257869D01*
X0582391Y0256870D02*
X0592749Y0256870D01*
X0591750Y0255872D02*
X0581392Y0255872D01*
X0580394Y0254873D02*
X0590943Y0254873D01*
X0590529Y0253875D02*
X0579395Y0253875D01*
X0578397Y0252876D02*
X0590133Y0252876D01*
X0590133Y0251878D02*
X0577398Y0251878D01*
X0576400Y0250879D02*
X0590133Y0250879D01*
X0590368Y0249881D02*
X0575401Y0249881D01*
X0584388Y0258868D02*
X0612070Y0258868D01*
X0611072Y0259866D02*
X0585386Y0259866D01*
X0586385Y0260865D02*
X0610073Y0260865D01*
X0609075Y0261863D02*
X0587383Y0261863D01*
X0588382Y0262862D02*
X0608076Y0262862D01*
X0607078Y0263860D02*
X0589380Y0263860D01*
X0590379Y0264859D02*
X0606079Y0264859D01*
X0633953Y0269524D02*
X0636776Y0272346D01*
X0636776Y0294177D01*
X0634776Y0296177D01*
X0403776Y0296177D01*
X0408776Y0290177D02*
X0405776Y0287177D01*
X0371390Y0287177D01*
X0363737Y0279524D01*
X0341776Y0293177D02*
X0556776Y0293177D01*
X0558776Y0291177D01*
X0574776Y0305177D02*
X0584776Y0305177D01*
X0586776Y0307177D01*
X0624776Y0307177D01*
X0583776Y0315177D02*
X0580776Y0318177D01*
X0560776Y0318177D01*
X0543776Y0320177D02*
X0397776Y0320177D01*
X0394776Y0323177D01*
X0405776Y0308177D02*
X0240776Y0308177D01*
X0238776Y0306177D01*
X0199748Y0247884D02*
X0323643Y0247884D01*
X0324642Y0246885D02*
X0198750Y0246885D01*
X0196998Y0245887D02*
X0326393Y0245887D01*
X0330856Y0245887D02*
X0460252Y0245887D01*
X0458500Y0246885D02*
X0332608Y0246885D01*
X0333606Y0247884D02*
X0457502Y0247884D01*
X0456923Y0248882D02*
X0445323Y0248882D01*
X0464715Y0245887D02*
X0594110Y0245887D01*
X0592359Y0246885D02*
X0466466Y0246885D01*
X0467465Y0247884D02*
X0591360Y0247884D01*
X0590781Y0248882D02*
X0468043Y0248882D01*
X0374776Y0296177D02*
X0343776Y0296177D01*
X0342776Y0297177D01*
X0113674Y0297177D01*
X0096020Y0279524D01*
X0135776Y0247884D02*
X0189785Y0247884D01*
X0190784Y0246885D02*
X0135776Y0246885D01*
X0135776Y0245887D02*
X0192535Y0245887D01*
X0214072Y0234903D02*
X0135776Y0234903D01*
X0220004Y0234903D02*
X0347930Y0234903D01*
X0341776Y0293177D02*
X0340776Y0294177D01*
X0394776Y0347177D02*
X0394776Y0357177D01*
X0395776Y0358177D01*
X0437776Y0358177D01*
X0460776Y0335177D01*
X0494776Y0335177D01*
X0495776Y0334177D01*
X0581776Y0334177D01*
X0455776Y0334177D02*
X0455776Y0337177D01*
X0436776Y0356177D01*
X0408776Y0356177D01*
X0407776Y0355177D01*
X0407776Y0352177D01*
X0402776Y0347177D01*
D21*
X0544776Y0266177D02*
X0568776Y0290177D01*
X0634269Y0290177D01*
X0634269Y0279177D01*
X0576776Y0279177D01*
X0555776Y0258177D01*
X0464858Y0258177D01*
X0463857Y0258591D01*
X0461109Y0258591D01*
X0460109Y0258177D01*
X0330999Y0258177D01*
X0329999Y0258591D01*
X0327251Y0258591D01*
X0326251Y0258177D01*
X0197141Y0258177D01*
X0196141Y0258591D01*
X0193392Y0258591D01*
X0192392Y0258177D01*
X0105776Y0258177D01*
X0105776Y0266177D01*
X0544776Y0266177D01*
X0545642Y0267043D02*
X0564642Y0267043D01*
X0562244Y0264645D02*
X0105776Y0264645D01*
X0105776Y0262246D02*
X0559845Y0262246D01*
X0557447Y0259848D02*
X0105776Y0259848D01*
X0548041Y0269442D02*
X0567041Y0269442D01*
X0569439Y0271840D02*
X0550439Y0271840D01*
X0552838Y0274239D02*
X0571838Y0274239D01*
X0574236Y0276637D02*
X0555236Y0276637D01*
X0557635Y0279036D02*
X0576635Y0279036D01*
X0567229Y0288630D02*
X0634269Y0288630D01*
X0634269Y0286231D02*
X0564830Y0286231D01*
X0562432Y0283833D02*
X0634269Y0283833D01*
X0634269Y0281434D02*
X0560033Y0281434D01*
D22*
X0429776Y0264177D03*
X0425776Y0264177D03*
X0425776Y0260177D03*
X0429776Y0260177D03*
X0348776Y0324177D03*
X0345776Y0324177D03*
X0345776Y0327177D03*
X0345776Y0330177D03*
X0348776Y0330177D03*
X0348776Y0327177D03*
X0298776Y0265177D03*
X0293776Y0262177D03*
X0288776Y0259177D03*
X0283776Y0262177D03*
X0278776Y0259177D03*
X0278776Y0265177D03*
X0288776Y0265177D03*
X0298776Y0259177D03*
D23*
X0418776Y0112177D03*
D24*
X0233776Y0096177D03*
X0229776Y0096177D03*
X0229776Y0092177D03*
X0233776Y0092177D03*
X0233776Y0240177D03*
X0229776Y0240177D03*
X0229776Y0244177D03*
X0233776Y0244177D03*
D25*
X0581776Y0334177D03*
M02*
