G75*
%MOIN*%
%OFA0B0*%
%FSLAX25Y25*%
%IPPOS*%
%LPD*%
%AMOC8*
5,1,8,0,0,1.08239X$1,22.5*
%
%ADD10C,0.07480*%
%ADD11C,0.05906*%
%ADD12C,0.02953*%
D10*
X0014791Y0050030D03*
X0014791Y0078180D03*
D11*
X0018138Y0010956D02*
X0018138Y0005050D01*
X0028138Y0005050D02*
X0028138Y0010956D01*
X0038138Y0010956D02*
X0038138Y0005050D01*
X0048138Y0005050D02*
X0048138Y0010956D01*
X0058138Y0010956D02*
X0058138Y0005050D01*
X0068138Y0005050D02*
X0068138Y0010956D01*
X0078138Y0010956D02*
X0078138Y0005050D01*
X0088138Y0005050D02*
X0088138Y0010956D01*
X0098138Y0010956D02*
X0098138Y0005050D01*
X0108138Y0005050D02*
X0108138Y0010956D01*
X0118138Y0010956D02*
X0118138Y0005050D01*
X0128138Y0005050D02*
X0128138Y0010956D01*
X0138138Y0010956D02*
X0138138Y0005050D01*
X0148138Y0005050D02*
X0148138Y0010956D01*
X0158138Y0010956D02*
X0158138Y0005050D01*
X0168138Y0005050D02*
X0168138Y0010956D01*
X0178138Y0010956D02*
X0178138Y0005050D01*
X0188138Y0005050D02*
X0188138Y0010956D01*
X0198138Y0010956D02*
X0198138Y0005050D01*
X0208138Y0005050D02*
X0208138Y0010956D01*
X0218138Y0010956D02*
X0218138Y0005050D01*
X0218413Y0117255D02*
X0218413Y0123160D01*
X0208413Y0123160D02*
X0208413Y0117255D01*
X0198413Y0117255D02*
X0198413Y0123160D01*
X0188413Y0123160D02*
X0188413Y0117255D01*
X0178413Y0117255D02*
X0178413Y0123160D01*
X0168413Y0123160D02*
X0168413Y0117255D01*
X0158413Y0117255D02*
X0158413Y0123160D01*
X0148413Y0123160D02*
X0148413Y0117255D01*
X0138413Y0117255D02*
X0138413Y0123160D01*
X0128413Y0123160D02*
X0128413Y0117255D01*
X0118413Y0117255D02*
X0118413Y0123160D01*
X0108413Y0123160D02*
X0108413Y0117255D01*
X0098413Y0117255D02*
X0098413Y0123160D01*
X0088413Y0123160D02*
X0088413Y0117255D01*
X0078413Y0117255D02*
X0078413Y0123160D01*
X0068413Y0123160D02*
X0068413Y0117255D01*
X0058413Y0117255D02*
X0058413Y0123160D01*
X0048413Y0123160D02*
X0048413Y0117255D01*
X0038413Y0117255D02*
X0038413Y0123160D01*
X0028413Y0123160D02*
X0028413Y0117255D01*
X0018413Y0117255D02*
X0018413Y0123160D01*
D12*
X0030082Y0075050D03*
X0079740Y0053231D03*
X0097303Y0065050D03*
X0105539Y0070011D03*
X0105539Y0058200D03*
X0132771Y0028019D03*
X0207807Y0063369D03*
X0207870Y0073605D03*
X0208130Y0083251D03*
X0034082Y0025176D03*
X0021082Y0023987D03*
M02*
