G75*
%MOIN*%
%OFA0B0*%
%FSLAX25Y25*%
%IPPOS*%
%LPD*%
%AMOC8*
5,1,8,0,0,1.08239X$1,22.5*
%
%ADD10C,0.00000*%
%ADD11C,0.00400*%
%ADD12C,0.06000*%
%ADD13C,0.06496*%
%ADD14C,0.00039*%
%ADD15C,0.01200*%
%ADD16C,0.02362*%
%ADD17C,0.02953*%
D10*
X0018144Y0020744D02*
X0024050Y0020744D01*
X0026018Y0018776D01*
X0092948Y0018776D01*
X0094916Y0020744D01*
X0100822Y0020744D01*
X0101012Y0020746D01*
X0101202Y0020753D01*
X0101392Y0020765D01*
X0101582Y0020781D01*
X0101771Y0020801D01*
X0101960Y0020827D01*
X0102148Y0020856D01*
X0102335Y0020891D01*
X0102521Y0020930D01*
X0102706Y0020973D01*
X0102891Y0021021D01*
X0103074Y0021073D01*
X0103255Y0021129D01*
X0103435Y0021190D01*
X0103614Y0021256D01*
X0103791Y0021325D01*
X0103967Y0021399D01*
X0104140Y0021477D01*
X0104312Y0021560D01*
X0104481Y0021646D01*
X0104649Y0021736D01*
X0104814Y0021831D01*
X0104977Y0021929D01*
X0105137Y0022032D01*
X0105295Y0022138D01*
X0105450Y0022248D01*
X0105603Y0022361D01*
X0105753Y0022479D01*
X0105899Y0022600D01*
X0106043Y0022724D01*
X0106184Y0022852D01*
X0106322Y0022983D01*
X0106457Y0023118D01*
X0106588Y0023256D01*
X0106716Y0023397D01*
X0106840Y0023541D01*
X0106961Y0023687D01*
X0107079Y0023837D01*
X0107192Y0023990D01*
X0107302Y0024145D01*
X0107408Y0024303D01*
X0107511Y0024463D01*
X0107609Y0024626D01*
X0107704Y0024791D01*
X0107794Y0024959D01*
X0107880Y0025128D01*
X0107963Y0025300D01*
X0108041Y0025473D01*
X0108115Y0025649D01*
X0108184Y0025826D01*
X0108250Y0026005D01*
X0108311Y0026185D01*
X0108367Y0026366D01*
X0108419Y0026549D01*
X0108467Y0026734D01*
X0108510Y0026919D01*
X0108549Y0027105D01*
X0108584Y0027292D01*
X0108613Y0027480D01*
X0108639Y0027669D01*
X0108659Y0027858D01*
X0108675Y0028048D01*
X0108687Y0028238D01*
X0108694Y0028428D01*
X0108696Y0028618D01*
X0108696Y0190035D01*
X0108694Y0190225D01*
X0108687Y0190415D01*
X0108675Y0190605D01*
X0108659Y0190795D01*
X0108639Y0190984D01*
X0108613Y0191173D01*
X0108584Y0191361D01*
X0108549Y0191548D01*
X0108510Y0191734D01*
X0108467Y0191919D01*
X0108419Y0192104D01*
X0108367Y0192287D01*
X0108311Y0192468D01*
X0108250Y0192648D01*
X0108184Y0192827D01*
X0108115Y0193004D01*
X0108041Y0193180D01*
X0107963Y0193353D01*
X0107880Y0193525D01*
X0107794Y0193694D01*
X0107704Y0193862D01*
X0107609Y0194027D01*
X0107511Y0194190D01*
X0107408Y0194350D01*
X0107302Y0194508D01*
X0107192Y0194663D01*
X0107079Y0194816D01*
X0106961Y0194966D01*
X0106840Y0195112D01*
X0106716Y0195256D01*
X0106588Y0195397D01*
X0106457Y0195535D01*
X0106322Y0195670D01*
X0106184Y0195801D01*
X0106043Y0195929D01*
X0105899Y0196053D01*
X0105753Y0196174D01*
X0105603Y0196292D01*
X0105450Y0196405D01*
X0105295Y0196515D01*
X0105137Y0196621D01*
X0104977Y0196724D01*
X0104814Y0196822D01*
X0104649Y0196917D01*
X0104481Y0197007D01*
X0104312Y0197093D01*
X0104140Y0197176D01*
X0103967Y0197254D01*
X0103791Y0197328D01*
X0103614Y0197397D01*
X0103435Y0197463D01*
X0103255Y0197524D01*
X0103074Y0197580D01*
X0102891Y0197632D01*
X0102706Y0197680D01*
X0102521Y0197723D01*
X0102335Y0197762D01*
X0102148Y0197797D01*
X0101960Y0197826D01*
X0101771Y0197852D01*
X0101582Y0197872D01*
X0101392Y0197888D01*
X0101202Y0197900D01*
X0101012Y0197907D01*
X0100822Y0197909D01*
X0094916Y0197909D01*
X0092948Y0199878D01*
X0026018Y0199878D01*
X0024050Y0197909D01*
X0018144Y0197909D01*
X0017954Y0197907D01*
X0017764Y0197900D01*
X0017574Y0197888D01*
X0017384Y0197872D01*
X0017195Y0197852D01*
X0017006Y0197826D01*
X0016818Y0197797D01*
X0016631Y0197762D01*
X0016445Y0197723D01*
X0016260Y0197680D01*
X0016075Y0197632D01*
X0015892Y0197580D01*
X0015711Y0197524D01*
X0015531Y0197463D01*
X0015352Y0197397D01*
X0015175Y0197328D01*
X0014999Y0197254D01*
X0014826Y0197176D01*
X0014654Y0197093D01*
X0014485Y0197007D01*
X0014317Y0196917D01*
X0014152Y0196822D01*
X0013989Y0196724D01*
X0013829Y0196621D01*
X0013671Y0196515D01*
X0013516Y0196405D01*
X0013363Y0196292D01*
X0013213Y0196174D01*
X0013067Y0196053D01*
X0012923Y0195929D01*
X0012782Y0195801D01*
X0012644Y0195670D01*
X0012509Y0195535D01*
X0012378Y0195397D01*
X0012250Y0195256D01*
X0012126Y0195112D01*
X0012005Y0194966D01*
X0011887Y0194816D01*
X0011774Y0194663D01*
X0011664Y0194508D01*
X0011558Y0194350D01*
X0011455Y0194190D01*
X0011357Y0194027D01*
X0011262Y0193862D01*
X0011172Y0193694D01*
X0011086Y0193525D01*
X0011003Y0193353D01*
X0010925Y0193180D01*
X0010851Y0193004D01*
X0010782Y0192827D01*
X0010716Y0192648D01*
X0010655Y0192468D01*
X0010599Y0192287D01*
X0010547Y0192104D01*
X0010499Y0191919D01*
X0010456Y0191734D01*
X0010417Y0191548D01*
X0010382Y0191361D01*
X0010353Y0191173D01*
X0010327Y0190984D01*
X0010307Y0190795D01*
X0010291Y0190605D01*
X0010279Y0190415D01*
X0010272Y0190225D01*
X0010270Y0190035D01*
X0010270Y0028618D01*
X0010272Y0028428D01*
X0010279Y0028238D01*
X0010291Y0028048D01*
X0010307Y0027858D01*
X0010327Y0027669D01*
X0010353Y0027480D01*
X0010382Y0027292D01*
X0010417Y0027105D01*
X0010456Y0026919D01*
X0010499Y0026734D01*
X0010547Y0026549D01*
X0010599Y0026366D01*
X0010655Y0026185D01*
X0010716Y0026005D01*
X0010782Y0025826D01*
X0010851Y0025649D01*
X0010925Y0025473D01*
X0011003Y0025300D01*
X0011086Y0025128D01*
X0011172Y0024959D01*
X0011262Y0024791D01*
X0011357Y0024626D01*
X0011455Y0024463D01*
X0011558Y0024303D01*
X0011664Y0024145D01*
X0011774Y0023990D01*
X0011887Y0023837D01*
X0012005Y0023687D01*
X0012126Y0023541D01*
X0012250Y0023397D01*
X0012378Y0023256D01*
X0012509Y0023118D01*
X0012644Y0022983D01*
X0012782Y0022852D01*
X0012923Y0022724D01*
X0013067Y0022600D01*
X0013213Y0022479D01*
X0013363Y0022361D01*
X0013516Y0022248D01*
X0013671Y0022138D01*
X0013829Y0022032D01*
X0013989Y0021929D01*
X0014152Y0021831D01*
X0014317Y0021736D01*
X0014485Y0021646D01*
X0014654Y0021560D01*
X0014826Y0021477D01*
X0014999Y0021399D01*
X0015175Y0021325D01*
X0015352Y0021256D01*
X0015531Y0021190D01*
X0015711Y0021129D01*
X0015892Y0021073D01*
X0016075Y0021021D01*
X0016260Y0020973D01*
X0016445Y0020930D01*
X0016631Y0020891D01*
X0016818Y0020856D01*
X0017006Y0020827D01*
X0017195Y0020801D01*
X0017384Y0020781D01*
X0017574Y0020765D01*
X0017764Y0020753D01*
X0017954Y0020746D01*
X0018144Y0020744D01*
D11*
X0006133Y0032755D02*
X0006133Y0035157D01*
X0006133Y0032755D02*
X0003731Y0035157D01*
X0003131Y0035157D01*
X0002530Y0034557D01*
X0002530Y0033356D01*
X0003131Y0032755D01*
D12*
X0085026Y0099327D02*
X0091026Y0099327D01*
X0091026Y0109327D02*
X0085026Y0109327D01*
X0085026Y0119327D02*
X0091026Y0119327D01*
D13*
X0087042Y0188756D02*
X0087042Y0195252D01*
X0031924Y0195252D02*
X0031924Y0188756D01*
X0031924Y0029898D02*
X0031924Y0023402D01*
X0087042Y0023402D02*
X0087042Y0029898D01*
D14*
X0047081Y0052240D02*
X0047085Y0052544D01*
X0047096Y0052849D01*
X0047115Y0053152D01*
X0047141Y0053456D01*
X0047174Y0053758D01*
X0047215Y0054060D01*
X0047264Y0054360D01*
X0047319Y0054660D01*
X0047382Y0054957D01*
X0047453Y0055253D01*
X0047530Y0055548D01*
X0047615Y0055840D01*
X0047707Y0056130D01*
X0047806Y0056418D01*
X0047912Y0056703D01*
X0048025Y0056986D01*
X0048145Y0057266D01*
X0048272Y0057543D01*
X0048405Y0057816D01*
X0048545Y0058086D01*
X0048692Y0058353D01*
X0048845Y0058616D01*
X0049005Y0058875D01*
X0049171Y0059130D01*
X0049343Y0059381D01*
X0049522Y0059628D01*
X0049706Y0059870D01*
X0049896Y0060108D01*
X0050092Y0060341D01*
X0050294Y0060569D01*
X0050501Y0060792D01*
X0050713Y0061010D01*
X0050931Y0061222D01*
X0051154Y0061429D01*
X0051382Y0061631D01*
X0051615Y0061827D01*
X0051853Y0062017D01*
X0052095Y0062201D01*
X0052342Y0062380D01*
X0052593Y0062552D01*
X0052848Y0062718D01*
X0053107Y0062878D01*
X0053370Y0063031D01*
X0053637Y0063178D01*
X0053907Y0063318D01*
X0054180Y0063451D01*
X0054457Y0063578D01*
X0054737Y0063698D01*
X0055020Y0063811D01*
X0055305Y0063917D01*
X0055593Y0064016D01*
X0055883Y0064108D01*
X0056175Y0064193D01*
X0056470Y0064270D01*
X0056766Y0064341D01*
X0057063Y0064404D01*
X0057363Y0064459D01*
X0057663Y0064508D01*
X0057965Y0064549D01*
X0058267Y0064582D01*
X0058571Y0064608D01*
X0058874Y0064627D01*
X0059179Y0064638D01*
X0059483Y0064642D01*
X0059787Y0064638D01*
X0060092Y0064627D01*
X0060395Y0064608D01*
X0060699Y0064582D01*
X0061001Y0064549D01*
X0061303Y0064508D01*
X0061603Y0064459D01*
X0061903Y0064404D01*
X0062200Y0064341D01*
X0062496Y0064270D01*
X0062791Y0064193D01*
X0063083Y0064108D01*
X0063373Y0064016D01*
X0063661Y0063917D01*
X0063946Y0063811D01*
X0064229Y0063698D01*
X0064509Y0063578D01*
X0064786Y0063451D01*
X0065059Y0063318D01*
X0065329Y0063178D01*
X0065596Y0063031D01*
X0065859Y0062878D01*
X0066118Y0062718D01*
X0066373Y0062552D01*
X0066624Y0062380D01*
X0066871Y0062201D01*
X0067113Y0062017D01*
X0067351Y0061827D01*
X0067584Y0061631D01*
X0067812Y0061429D01*
X0068035Y0061222D01*
X0068253Y0061010D01*
X0068465Y0060792D01*
X0068672Y0060569D01*
X0068874Y0060341D01*
X0069070Y0060108D01*
X0069260Y0059870D01*
X0069444Y0059628D01*
X0069623Y0059381D01*
X0069795Y0059130D01*
X0069961Y0058875D01*
X0070121Y0058616D01*
X0070274Y0058353D01*
X0070421Y0058086D01*
X0070561Y0057816D01*
X0070694Y0057543D01*
X0070821Y0057266D01*
X0070941Y0056986D01*
X0071054Y0056703D01*
X0071160Y0056418D01*
X0071259Y0056130D01*
X0071351Y0055840D01*
X0071436Y0055548D01*
X0071513Y0055253D01*
X0071584Y0054957D01*
X0071647Y0054660D01*
X0071702Y0054360D01*
X0071751Y0054060D01*
X0071792Y0053758D01*
X0071825Y0053456D01*
X0071851Y0053152D01*
X0071870Y0052849D01*
X0071881Y0052544D01*
X0071885Y0052240D01*
X0071881Y0051936D01*
X0071870Y0051631D01*
X0071851Y0051328D01*
X0071825Y0051024D01*
X0071792Y0050722D01*
X0071751Y0050420D01*
X0071702Y0050120D01*
X0071647Y0049820D01*
X0071584Y0049523D01*
X0071513Y0049227D01*
X0071436Y0048932D01*
X0071351Y0048640D01*
X0071259Y0048350D01*
X0071160Y0048062D01*
X0071054Y0047777D01*
X0070941Y0047494D01*
X0070821Y0047214D01*
X0070694Y0046937D01*
X0070561Y0046664D01*
X0070421Y0046394D01*
X0070274Y0046127D01*
X0070121Y0045864D01*
X0069961Y0045605D01*
X0069795Y0045350D01*
X0069623Y0045099D01*
X0069444Y0044852D01*
X0069260Y0044610D01*
X0069070Y0044372D01*
X0068874Y0044139D01*
X0068672Y0043911D01*
X0068465Y0043688D01*
X0068253Y0043470D01*
X0068035Y0043258D01*
X0067812Y0043051D01*
X0067584Y0042849D01*
X0067351Y0042653D01*
X0067113Y0042463D01*
X0066871Y0042279D01*
X0066624Y0042100D01*
X0066373Y0041928D01*
X0066118Y0041762D01*
X0065859Y0041602D01*
X0065596Y0041449D01*
X0065329Y0041302D01*
X0065059Y0041162D01*
X0064786Y0041029D01*
X0064509Y0040902D01*
X0064229Y0040782D01*
X0063946Y0040669D01*
X0063661Y0040563D01*
X0063373Y0040464D01*
X0063083Y0040372D01*
X0062791Y0040287D01*
X0062496Y0040210D01*
X0062200Y0040139D01*
X0061903Y0040076D01*
X0061603Y0040021D01*
X0061303Y0039972D01*
X0061001Y0039931D01*
X0060699Y0039898D01*
X0060395Y0039872D01*
X0060092Y0039853D01*
X0059787Y0039842D01*
X0059483Y0039838D01*
X0059179Y0039842D01*
X0058874Y0039853D01*
X0058571Y0039872D01*
X0058267Y0039898D01*
X0057965Y0039931D01*
X0057663Y0039972D01*
X0057363Y0040021D01*
X0057063Y0040076D01*
X0056766Y0040139D01*
X0056470Y0040210D01*
X0056175Y0040287D01*
X0055883Y0040372D01*
X0055593Y0040464D01*
X0055305Y0040563D01*
X0055020Y0040669D01*
X0054737Y0040782D01*
X0054457Y0040902D01*
X0054180Y0041029D01*
X0053907Y0041162D01*
X0053637Y0041302D01*
X0053370Y0041449D01*
X0053107Y0041602D01*
X0052848Y0041762D01*
X0052593Y0041928D01*
X0052342Y0042100D01*
X0052095Y0042279D01*
X0051853Y0042463D01*
X0051615Y0042653D01*
X0051382Y0042849D01*
X0051154Y0043051D01*
X0050931Y0043258D01*
X0050713Y0043470D01*
X0050501Y0043688D01*
X0050294Y0043911D01*
X0050092Y0044139D01*
X0049896Y0044372D01*
X0049706Y0044610D01*
X0049522Y0044852D01*
X0049343Y0045099D01*
X0049171Y0045350D01*
X0049005Y0045605D01*
X0048845Y0045864D01*
X0048692Y0046127D01*
X0048545Y0046394D01*
X0048405Y0046664D01*
X0048272Y0046937D01*
X0048145Y0047214D01*
X0048025Y0047494D01*
X0047912Y0047777D01*
X0047806Y0048062D01*
X0047707Y0048350D01*
X0047615Y0048640D01*
X0047530Y0048932D01*
X0047453Y0049227D01*
X0047382Y0049523D01*
X0047319Y0049820D01*
X0047264Y0050120D01*
X0047215Y0050420D01*
X0047174Y0050722D01*
X0047141Y0051024D01*
X0047115Y0051328D01*
X0047096Y0051631D01*
X0047085Y0051936D01*
X0047081Y0052240D01*
X0047081Y0166413D02*
X0047085Y0166717D01*
X0047096Y0167022D01*
X0047115Y0167325D01*
X0047141Y0167629D01*
X0047174Y0167931D01*
X0047215Y0168233D01*
X0047264Y0168533D01*
X0047319Y0168833D01*
X0047382Y0169130D01*
X0047453Y0169426D01*
X0047530Y0169721D01*
X0047615Y0170013D01*
X0047707Y0170303D01*
X0047806Y0170591D01*
X0047912Y0170876D01*
X0048025Y0171159D01*
X0048145Y0171439D01*
X0048272Y0171716D01*
X0048405Y0171989D01*
X0048545Y0172259D01*
X0048692Y0172526D01*
X0048845Y0172789D01*
X0049005Y0173048D01*
X0049171Y0173303D01*
X0049343Y0173554D01*
X0049522Y0173801D01*
X0049706Y0174043D01*
X0049896Y0174281D01*
X0050092Y0174514D01*
X0050294Y0174742D01*
X0050501Y0174965D01*
X0050713Y0175183D01*
X0050931Y0175395D01*
X0051154Y0175602D01*
X0051382Y0175804D01*
X0051615Y0176000D01*
X0051853Y0176190D01*
X0052095Y0176374D01*
X0052342Y0176553D01*
X0052593Y0176725D01*
X0052848Y0176891D01*
X0053107Y0177051D01*
X0053370Y0177204D01*
X0053637Y0177351D01*
X0053907Y0177491D01*
X0054180Y0177624D01*
X0054457Y0177751D01*
X0054737Y0177871D01*
X0055020Y0177984D01*
X0055305Y0178090D01*
X0055593Y0178189D01*
X0055883Y0178281D01*
X0056175Y0178366D01*
X0056470Y0178443D01*
X0056766Y0178514D01*
X0057063Y0178577D01*
X0057363Y0178632D01*
X0057663Y0178681D01*
X0057965Y0178722D01*
X0058267Y0178755D01*
X0058571Y0178781D01*
X0058874Y0178800D01*
X0059179Y0178811D01*
X0059483Y0178815D01*
X0059787Y0178811D01*
X0060092Y0178800D01*
X0060395Y0178781D01*
X0060699Y0178755D01*
X0061001Y0178722D01*
X0061303Y0178681D01*
X0061603Y0178632D01*
X0061903Y0178577D01*
X0062200Y0178514D01*
X0062496Y0178443D01*
X0062791Y0178366D01*
X0063083Y0178281D01*
X0063373Y0178189D01*
X0063661Y0178090D01*
X0063946Y0177984D01*
X0064229Y0177871D01*
X0064509Y0177751D01*
X0064786Y0177624D01*
X0065059Y0177491D01*
X0065329Y0177351D01*
X0065596Y0177204D01*
X0065859Y0177051D01*
X0066118Y0176891D01*
X0066373Y0176725D01*
X0066624Y0176553D01*
X0066871Y0176374D01*
X0067113Y0176190D01*
X0067351Y0176000D01*
X0067584Y0175804D01*
X0067812Y0175602D01*
X0068035Y0175395D01*
X0068253Y0175183D01*
X0068465Y0174965D01*
X0068672Y0174742D01*
X0068874Y0174514D01*
X0069070Y0174281D01*
X0069260Y0174043D01*
X0069444Y0173801D01*
X0069623Y0173554D01*
X0069795Y0173303D01*
X0069961Y0173048D01*
X0070121Y0172789D01*
X0070274Y0172526D01*
X0070421Y0172259D01*
X0070561Y0171989D01*
X0070694Y0171716D01*
X0070821Y0171439D01*
X0070941Y0171159D01*
X0071054Y0170876D01*
X0071160Y0170591D01*
X0071259Y0170303D01*
X0071351Y0170013D01*
X0071436Y0169721D01*
X0071513Y0169426D01*
X0071584Y0169130D01*
X0071647Y0168833D01*
X0071702Y0168533D01*
X0071751Y0168233D01*
X0071792Y0167931D01*
X0071825Y0167629D01*
X0071851Y0167325D01*
X0071870Y0167022D01*
X0071881Y0166717D01*
X0071885Y0166413D01*
X0071881Y0166109D01*
X0071870Y0165804D01*
X0071851Y0165501D01*
X0071825Y0165197D01*
X0071792Y0164895D01*
X0071751Y0164593D01*
X0071702Y0164293D01*
X0071647Y0163993D01*
X0071584Y0163696D01*
X0071513Y0163400D01*
X0071436Y0163105D01*
X0071351Y0162813D01*
X0071259Y0162523D01*
X0071160Y0162235D01*
X0071054Y0161950D01*
X0070941Y0161667D01*
X0070821Y0161387D01*
X0070694Y0161110D01*
X0070561Y0160837D01*
X0070421Y0160567D01*
X0070274Y0160300D01*
X0070121Y0160037D01*
X0069961Y0159778D01*
X0069795Y0159523D01*
X0069623Y0159272D01*
X0069444Y0159025D01*
X0069260Y0158783D01*
X0069070Y0158545D01*
X0068874Y0158312D01*
X0068672Y0158084D01*
X0068465Y0157861D01*
X0068253Y0157643D01*
X0068035Y0157431D01*
X0067812Y0157224D01*
X0067584Y0157022D01*
X0067351Y0156826D01*
X0067113Y0156636D01*
X0066871Y0156452D01*
X0066624Y0156273D01*
X0066373Y0156101D01*
X0066118Y0155935D01*
X0065859Y0155775D01*
X0065596Y0155622D01*
X0065329Y0155475D01*
X0065059Y0155335D01*
X0064786Y0155202D01*
X0064509Y0155075D01*
X0064229Y0154955D01*
X0063946Y0154842D01*
X0063661Y0154736D01*
X0063373Y0154637D01*
X0063083Y0154545D01*
X0062791Y0154460D01*
X0062496Y0154383D01*
X0062200Y0154312D01*
X0061903Y0154249D01*
X0061603Y0154194D01*
X0061303Y0154145D01*
X0061001Y0154104D01*
X0060699Y0154071D01*
X0060395Y0154045D01*
X0060092Y0154026D01*
X0059787Y0154015D01*
X0059483Y0154011D01*
X0059179Y0154015D01*
X0058874Y0154026D01*
X0058571Y0154045D01*
X0058267Y0154071D01*
X0057965Y0154104D01*
X0057663Y0154145D01*
X0057363Y0154194D01*
X0057063Y0154249D01*
X0056766Y0154312D01*
X0056470Y0154383D01*
X0056175Y0154460D01*
X0055883Y0154545D01*
X0055593Y0154637D01*
X0055305Y0154736D01*
X0055020Y0154842D01*
X0054737Y0154955D01*
X0054457Y0155075D01*
X0054180Y0155202D01*
X0053907Y0155335D01*
X0053637Y0155475D01*
X0053370Y0155622D01*
X0053107Y0155775D01*
X0052848Y0155935D01*
X0052593Y0156101D01*
X0052342Y0156273D01*
X0052095Y0156452D01*
X0051853Y0156636D01*
X0051615Y0156826D01*
X0051382Y0157022D01*
X0051154Y0157224D01*
X0050931Y0157431D01*
X0050713Y0157643D01*
X0050501Y0157861D01*
X0050294Y0158084D01*
X0050092Y0158312D01*
X0049896Y0158545D01*
X0049706Y0158783D01*
X0049522Y0159025D01*
X0049343Y0159272D01*
X0049171Y0159523D01*
X0049005Y0159778D01*
X0048845Y0160037D01*
X0048692Y0160300D01*
X0048545Y0160567D01*
X0048405Y0160837D01*
X0048272Y0161110D01*
X0048145Y0161387D01*
X0048025Y0161667D01*
X0047912Y0161950D01*
X0047806Y0162235D01*
X0047707Y0162523D01*
X0047615Y0162813D01*
X0047530Y0163105D01*
X0047453Y0163400D01*
X0047382Y0163696D01*
X0047319Y0163993D01*
X0047264Y0164293D01*
X0047215Y0164593D01*
X0047174Y0164895D01*
X0047141Y0165197D01*
X0047115Y0165501D01*
X0047096Y0165804D01*
X0047085Y0166109D01*
X0047081Y0166413D01*
D15*
X0045668Y0166192D02*
X0011855Y0166192D01*
X0011855Y0164994D02*
X0045668Y0164994D01*
X0045668Y0164108D02*
X0047165Y0159748D01*
X0047165Y0159747D01*
X0049997Y0156109D01*
X0049997Y0156109D01*
X0049997Y0156109D01*
X0053857Y0153588D01*
X0058326Y0152456D01*
X0058326Y0152456D01*
X0062921Y0152836D01*
X0067143Y0154688D01*
X0067143Y0154688D01*
X0070535Y0157811D01*
X0072730Y0161866D01*
X0073488Y0166413D01*
X0072730Y0170961D01*
X0070535Y0175016D01*
X0067143Y0178138D01*
X0062921Y0179990D01*
X0058326Y0180371D01*
X0053857Y0179239D01*
X0049997Y0176718D01*
X0047165Y0173079D01*
X0045668Y0168719D01*
X0045668Y0164108D01*
X0045776Y0163795D02*
X0011855Y0163795D01*
X0011855Y0162597D02*
X0046187Y0162597D01*
X0046599Y0161398D02*
X0011855Y0161398D01*
X0011855Y0160200D02*
X0047010Y0160200D01*
X0047746Y0159001D02*
X0011855Y0159001D01*
X0011855Y0157803D02*
X0048679Y0157803D01*
X0049612Y0156604D02*
X0011855Y0156604D01*
X0011855Y0155406D02*
X0051074Y0155406D01*
X0052908Y0154207D02*
X0011855Y0154207D01*
X0011855Y0153009D02*
X0056142Y0153009D01*
X0053857Y0153588D02*
X0053857Y0153588D01*
X0062921Y0152836D02*
X0062921Y0152836D01*
X0063314Y0153009D02*
X0107111Y0153009D01*
X0107111Y0154207D02*
X0066046Y0154207D01*
X0067923Y0155406D02*
X0107111Y0155406D01*
X0107111Y0156604D02*
X0069224Y0156604D01*
X0070526Y0157803D02*
X0107111Y0157803D01*
X0107111Y0159001D02*
X0071179Y0159001D01*
X0070535Y0157811D02*
X0070535Y0157811D01*
X0071828Y0160200D02*
X0107111Y0160200D01*
X0107111Y0161398D02*
X0072477Y0161398D01*
X0072730Y0161866D02*
X0072730Y0161866D01*
X0072852Y0162597D02*
X0107111Y0162597D01*
X0107111Y0163795D02*
X0073052Y0163795D01*
X0073252Y0164994D02*
X0107111Y0164994D01*
X0107111Y0166192D02*
X0073452Y0166192D01*
X0073325Y0167391D02*
X0107111Y0167391D01*
X0107111Y0168590D02*
X0073125Y0168590D01*
X0072925Y0169788D02*
X0107111Y0169788D01*
X0107111Y0170987D02*
X0072716Y0170987D01*
X0072730Y0170961D02*
X0072730Y0170961D01*
X0072067Y0172185D02*
X0107111Y0172185D01*
X0107111Y0173384D02*
X0071419Y0173384D01*
X0070770Y0174582D02*
X0107111Y0174582D01*
X0107111Y0175781D02*
X0069704Y0175781D01*
X0070535Y0175016D02*
X0070535Y0175016D01*
X0070535Y0175016D01*
X0068402Y0176979D02*
X0107111Y0176979D01*
X0107111Y0178178D02*
X0067054Y0178178D01*
X0067143Y0178138D02*
X0067143Y0178138D01*
X0064321Y0179376D02*
X0107111Y0179376D01*
X0107111Y0180575D02*
X0011855Y0180575D01*
X0011855Y0181773D02*
X0107111Y0181773D01*
X0107111Y0182972D02*
X0011855Y0182972D01*
X0011855Y0184170D02*
X0107111Y0184170D01*
X0107111Y0185369D02*
X0089932Y0185369D01*
X0089556Y0184993D02*
X0087925Y0184317D01*
X0086159Y0184317D01*
X0084528Y0184993D01*
X0083279Y0186242D01*
X0082603Y0187873D01*
X0082603Y0196135D01*
X0083279Y0197766D01*
X0083807Y0198294D01*
X0035159Y0198294D01*
X0035687Y0197766D01*
X0036362Y0196135D01*
X0036362Y0187873D01*
X0035687Y0186242D01*
X0034438Y0184993D01*
X0032807Y0184317D01*
X0031041Y0184317D01*
X0029410Y0184993D01*
X0028161Y0186242D01*
X0027485Y0187873D01*
X0027485Y0196135D01*
X0028161Y0197766D01*
X0028689Y0198294D01*
X0026675Y0198294D01*
X0025634Y0197253D01*
X0024706Y0196325D01*
X0018144Y0196325D01*
X0017160Y0196248D01*
X0015289Y0195640D01*
X0013697Y0194483D01*
X0012540Y0192891D01*
X0011932Y0191019D01*
X0011855Y0190035D01*
X0011855Y0029274D01*
X0011855Y0028618D01*
X0011932Y0027634D01*
X0012540Y0025763D01*
X0013697Y0024171D01*
X0015289Y0023014D01*
X0017160Y0022406D01*
X0018144Y0022328D01*
X0024706Y0022328D01*
X0026675Y0020360D01*
X0028689Y0020360D01*
X0028161Y0020887D01*
X0027485Y0022519D01*
X0027485Y0030781D01*
X0028161Y0032412D01*
X0029410Y0033660D01*
X0031041Y0034336D01*
X0032807Y0034336D01*
X0034438Y0033660D01*
X0035687Y0032412D01*
X0036362Y0030781D01*
X0036362Y0022519D01*
X0035687Y0020887D01*
X0035159Y0020360D01*
X0083807Y0020360D01*
X0083279Y0020887D01*
X0082603Y0022519D01*
X0082603Y0030781D01*
X0083279Y0032412D01*
X0084528Y0033660D01*
X0086159Y0034336D01*
X0087925Y0034336D01*
X0089556Y0033660D01*
X0090805Y0032412D01*
X0091481Y0030781D01*
X0091481Y0022519D01*
X0090805Y0020887D01*
X0090277Y0020360D01*
X0092291Y0020360D01*
X0093332Y0021400D01*
X0094260Y0022328D01*
X0100822Y0022328D01*
X0101805Y0022406D01*
X0103677Y0023014D01*
X0105269Y0024171D01*
X0106426Y0025763D01*
X0107034Y0027634D01*
X0107111Y0028618D01*
X0107111Y0190035D01*
X0107034Y0191019D01*
X0106426Y0192891D01*
X0105269Y0194483D01*
X0103677Y0195640D01*
X0101805Y0196248D01*
X0100822Y0196325D01*
X0094260Y0196325D01*
X0092291Y0198294D01*
X0090277Y0198294D01*
X0090805Y0197766D01*
X0091481Y0196135D01*
X0091481Y0187873D01*
X0090805Y0186242D01*
X0089556Y0184993D01*
X0090940Y0186567D02*
X0107111Y0186567D01*
X0107111Y0187766D02*
X0091436Y0187766D01*
X0091481Y0188964D02*
X0107111Y0188964D01*
X0107101Y0190163D02*
X0091481Y0190163D01*
X0091481Y0191361D02*
X0106923Y0191361D01*
X0106533Y0192560D02*
X0091481Y0192560D01*
X0091481Y0193758D02*
X0105796Y0193758D01*
X0104617Y0194957D02*
X0091481Y0194957D01*
X0091472Y0196155D02*
X0102090Y0196155D01*
X0093231Y0197354D02*
X0090976Y0197354D01*
X0083108Y0197354D02*
X0035858Y0197354D01*
X0036354Y0196155D02*
X0082612Y0196155D01*
X0082603Y0194957D02*
X0036362Y0194957D01*
X0036362Y0193758D02*
X0082603Y0193758D01*
X0082603Y0192560D02*
X0036362Y0192560D01*
X0036362Y0191361D02*
X0082603Y0191361D01*
X0082603Y0190163D02*
X0036362Y0190163D01*
X0036362Y0188964D02*
X0082603Y0188964D01*
X0082648Y0187766D02*
X0036318Y0187766D01*
X0035822Y0186567D02*
X0083144Y0186567D01*
X0084152Y0185369D02*
X0034814Y0185369D01*
X0029034Y0185369D02*
X0011855Y0185369D01*
X0011855Y0186567D02*
X0028026Y0186567D01*
X0027530Y0187766D02*
X0011855Y0187766D01*
X0011855Y0188964D02*
X0027485Y0188964D01*
X0027485Y0190163D02*
X0011865Y0190163D01*
X0012043Y0191361D02*
X0027485Y0191361D01*
X0027485Y0192560D02*
X0012433Y0192560D01*
X0013170Y0193758D02*
X0027485Y0193758D01*
X0027485Y0194957D02*
X0014349Y0194957D01*
X0016876Y0196155D02*
X0027494Y0196155D01*
X0027990Y0197354D02*
X0025735Y0197354D01*
X0011855Y0179376D02*
X0054397Y0179376D01*
X0053857Y0179239D02*
X0053857Y0179239D01*
X0052232Y0178178D02*
X0011855Y0178178D01*
X0011855Y0176979D02*
X0050398Y0176979D01*
X0049997Y0176718D02*
X0049997Y0176718D01*
X0049268Y0175781D02*
X0011855Y0175781D01*
X0011855Y0174582D02*
X0048335Y0174582D01*
X0047402Y0173384D02*
X0011855Y0173384D01*
X0011855Y0172185D02*
X0046858Y0172185D01*
X0047165Y0173079D02*
X0047165Y0173079D01*
X0046447Y0170987D02*
X0011855Y0170987D01*
X0011855Y0169788D02*
X0046036Y0169788D01*
X0045668Y0168590D02*
X0011855Y0168590D01*
X0011855Y0167391D02*
X0045668Y0167391D01*
X0067815Y0143084D02*
X0067065Y0142334D01*
X0066659Y0141353D01*
X0066659Y0140292D01*
X0067065Y0139312D01*
X0067535Y0138842D01*
X0067535Y0124333D01*
X0068584Y0123284D01*
X0074332Y0117536D01*
X0081232Y0117536D01*
X0081474Y0116953D01*
X0082652Y0115774D01*
X0084193Y0115136D01*
X0091860Y0115136D01*
X0093400Y0115774D01*
X0094579Y0116953D01*
X0095217Y0118493D01*
X0095217Y0120160D01*
X0094579Y0121701D01*
X0093400Y0122879D01*
X0091860Y0123517D01*
X0084193Y0123517D01*
X0082652Y0122879D01*
X0081474Y0121701D01*
X0081232Y0121117D01*
X0075815Y0121117D01*
X0071116Y0125816D01*
X0071116Y0138842D01*
X0071586Y0139312D01*
X0071992Y0140292D01*
X0071992Y0141353D01*
X0071586Y0142334D01*
X0070836Y0143084D01*
X0069856Y0143490D01*
X0068795Y0143490D01*
X0067815Y0143084D01*
X0068628Y0143421D02*
X0011855Y0143421D01*
X0011855Y0144619D02*
X0107111Y0144619D01*
X0107111Y0143421D02*
X0070022Y0143421D01*
X0071632Y0142222D02*
X0107111Y0142222D01*
X0107111Y0141024D02*
X0071992Y0141024D01*
X0071799Y0139825D02*
X0107111Y0139825D01*
X0107111Y0138627D02*
X0071116Y0138627D01*
X0071116Y0137428D02*
X0107111Y0137428D01*
X0107111Y0136230D02*
X0071116Y0136230D01*
X0071116Y0135031D02*
X0107111Y0135031D01*
X0107111Y0133833D02*
X0071116Y0133833D01*
X0071116Y0132634D02*
X0107111Y0132634D01*
X0107111Y0131436D02*
X0071116Y0131436D01*
X0071116Y0130237D02*
X0107111Y0130237D01*
X0107111Y0129039D02*
X0071116Y0129039D01*
X0071116Y0127840D02*
X0107111Y0127840D01*
X0107111Y0126642D02*
X0071116Y0126642D01*
X0071489Y0125443D02*
X0107111Y0125443D01*
X0107111Y0124245D02*
X0072688Y0124245D01*
X0073886Y0123046D02*
X0083055Y0123046D01*
X0081621Y0121848D02*
X0075085Y0121848D01*
X0075073Y0119327D02*
X0069325Y0125075D01*
X0069325Y0140823D01*
X0066852Y0139825D02*
X0011855Y0139825D01*
X0011855Y0138627D02*
X0067535Y0138627D01*
X0067535Y0137428D02*
X0011855Y0137428D01*
X0011855Y0136230D02*
X0067535Y0136230D01*
X0067535Y0135031D02*
X0011855Y0135031D01*
X0011855Y0133833D02*
X0067535Y0133833D01*
X0067535Y0132634D02*
X0011855Y0132634D01*
X0011855Y0131436D02*
X0052434Y0131436D01*
X0052567Y0131633D02*
X0052285Y0131213D01*
X0052092Y0130745D01*
X0051993Y0130249D01*
X0051993Y0129996D01*
X0051993Y0129743D01*
X0052092Y0129247D01*
X0052285Y0128779D01*
X0052567Y0128359D01*
X0052924Y0128001D01*
X0053345Y0127720D01*
X0053812Y0127526D01*
X0054309Y0127428D01*
X0054562Y0127428D01*
X0054815Y0127428D01*
X0055311Y0127526D01*
X0055778Y0127720D01*
X0056199Y0128001D01*
X0056557Y0128359D01*
X0056838Y0128779D01*
X0057031Y0129247D01*
X0057130Y0129743D01*
X0057130Y0129996D01*
X0054562Y0129996D01*
X0054562Y0129996D01*
X0057130Y0129996D01*
X0057130Y0130249D01*
X0057031Y0130745D01*
X0056838Y0131213D01*
X0056557Y0131633D01*
X0056199Y0131991D01*
X0055778Y0132272D01*
X0055311Y0132466D01*
X0054815Y0132565D01*
X0054562Y0132565D01*
X0054562Y0129996D01*
X0054562Y0127428D01*
X0054562Y0129996D01*
X0054562Y0129996D01*
X0054562Y0129996D01*
X0054562Y0132565D01*
X0054309Y0132565D01*
X0053812Y0132466D01*
X0053345Y0132272D01*
X0052924Y0131991D01*
X0052567Y0131633D01*
X0051993Y0130237D02*
X0011855Y0130237D01*
X0011855Y0129039D02*
X0052178Y0129039D01*
X0051993Y0129996D02*
X0054562Y0129996D01*
X0054562Y0129996D01*
X0051993Y0129996D01*
X0053165Y0127840D02*
X0011855Y0127840D01*
X0011855Y0126642D02*
X0067535Y0126642D01*
X0067535Y0127840D02*
X0055958Y0127840D01*
X0054562Y0127840D02*
X0054562Y0127840D01*
X0054562Y0129039D02*
X0054562Y0129039D01*
X0054562Y0130237D02*
X0054562Y0130237D01*
X0054562Y0131436D02*
X0054562Y0131436D01*
X0056689Y0131436D02*
X0067535Y0131436D01*
X0067535Y0130237D02*
X0057130Y0130237D01*
X0056945Y0129039D02*
X0067535Y0129039D01*
X0067535Y0125443D02*
X0011855Y0125443D01*
X0011855Y0124245D02*
X0067623Y0124245D01*
X0068584Y0123284D02*
X0068584Y0123284D01*
X0068822Y0123046D02*
X0011855Y0123046D01*
X0011855Y0121848D02*
X0070020Y0121848D01*
X0071219Y0120649D02*
X0011855Y0120649D01*
X0011855Y0119451D02*
X0072417Y0119451D01*
X0073616Y0118252D02*
X0011855Y0118252D01*
X0011855Y0117054D02*
X0081432Y0117054D01*
X0082572Y0115855D02*
X0011855Y0115855D01*
X0011855Y0114656D02*
X0107111Y0114656D01*
X0107111Y0113458D02*
X0092003Y0113458D01*
X0091860Y0113517D02*
X0084193Y0113517D01*
X0082652Y0112879D01*
X0081474Y0111701D01*
X0080836Y0110160D01*
X0080836Y0108493D01*
X0081474Y0106953D01*
X0082652Y0105774D01*
X0084193Y0105136D01*
X0091860Y0105136D01*
X0093400Y0105774D01*
X0094579Y0106953D01*
X0095217Y0108493D01*
X0095217Y0110160D01*
X0094579Y0111701D01*
X0093400Y0112879D01*
X0091860Y0113517D01*
X0093481Y0115855D02*
X0107111Y0115855D01*
X0107111Y0117054D02*
X0094620Y0117054D01*
X0095117Y0118252D02*
X0107111Y0118252D01*
X0107111Y0119451D02*
X0095217Y0119451D01*
X0095014Y0120649D02*
X0107111Y0120649D01*
X0107111Y0121848D02*
X0094432Y0121848D01*
X0092997Y0123046D02*
X0107111Y0123046D01*
X0107111Y0112259D02*
X0094020Y0112259D01*
X0094844Y0111061D02*
X0107111Y0111061D01*
X0107111Y0109862D02*
X0095217Y0109862D01*
X0095217Y0108664D02*
X0107111Y0108664D01*
X0107111Y0107465D02*
X0094791Y0107465D01*
X0093893Y0106267D02*
X0107111Y0106267D01*
X0107111Y0105068D02*
X0011855Y0105068D01*
X0011855Y0103870D02*
X0107111Y0103870D01*
X0107111Y0102671D02*
X0093886Y0102671D01*
X0093884Y0102673D02*
X0093326Y0103079D01*
X0092710Y0103393D01*
X0092054Y0103606D01*
X0091372Y0103714D01*
X0088426Y0103714D01*
X0088426Y0099727D01*
X0087626Y0099727D01*
X0087626Y0103714D01*
X0084681Y0103714D01*
X0083999Y0103606D01*
X0083342Y0103393D01*
X0082727Y0103079D01*
X0082168Y0102673D01*
X0081680Y0102185D01*
X0081274Y0101626D01*
X0080960Y0101011D01*
X0080747Y0100354D01*
X0080648Y0099727D01*
X0087626Y0099727D01*
X0087626Y0098927D01*
X0080648Y0098927D01*
X0080747Y0098299D01*
X0080960Y0097643D01*
X0081274Y0097027D01*
X0081680Y0096469D01*
X0082168Y0095980D01*
X0082727Y0095574D01*
X0083342Y0095261D01*
X0083999Y0095047D01*
X0084681Y0094939D01*
X0087626Y0094939D01*
X0087626Y0098927D01*
X0088426Y0098927D01*
X0088426Y0094939D01*
X0091372Y0094939D01*
X0092054Y0095047D01*
X0092710Y0095261D01*
X0093326Y0095574D01*
X0093884Y0095980D01*
X0094373Y0096469D01*
X0094779Y0097027D01*
X0095092Y0097643D01*
X0095306Y0098299D01*
X0095405Y0098927D01*
X0088426Y0098927D01*
X0088426Y0099727D01*
X0095405Y0099727D01*
X0095306Y0100354D01*
X0095092Y0101011D01*
X0094779Y0101626D01*
X0094373Y0102185D01*
X0093884Y0102673D01*
X0094857Y0101473D02*
X0107111Y0101473D01*
X0107111Y0100274D02*
X0095318Y0100274D01*
X0095168Y0097877D02*
X0107111Y0097877D01*
X0107111Y0096679D02*
X0094526Y0096679D01*
X0093141Y0095480D02*
X0107111Y0095480D01*
X0107111Y0094282D02*
X0061727Y0094282D01*
X0061759Y0094331D02*
X0061953Y0094798D01*
X0062051Y0095294D01*
X0062051Y0095547D01*
X0059483Y0095547D01*
X0059483Y0092979D01*
X0059736Y0092979D01*
X0060232Y0093077D01*
X0060700Y0093271D01*
X0061120Y0093552D01*
X0061478Y0093910D01*
X0061759Y0094331D01*
X0062051Y0095480D02*
X0082911Y0095480D01*
X0081527Y0096679D02*
X0061794Y0096679D01*
X0061759Y0096764D02*
X0061478Y0097185D01*
X0061120Y0097542D01*
X0060700Y0097823D01*
X0060232Y0098017D01*
X0059736Y0098116D01*
X0059483Y0098116D01*
X0059483Y0095547D01*
X0059483Y0095547D01*
X0059483Y0095547D01*
X0059483Y0092979D01*
X0059230Y0092979D01*
X0058734Y0093077D01*
X0058266Y0093271D01*
X0057846Y0093552D01*
X0057488Y0093910D01*
X0057207Y0094331D01*
X0057013Y0094798D01*
X0056914Y0095294D01*
X0056914Y0095547D01*
X0059483Y0095547D01*
X0059483Y0095547D01*
X0062051Y0095547D01*
X0062051Y0095800D01*
X0061953Y0096296D01*
X0061759Y0096764D01*
X0060569Y0097877D02*
X0080884Y0097877D01*
X0080734Y0100274D02*
X0011855Y0100274D01*
X0011855Y0099076D02*
X0087626Y0099076D01*
X0088426Y0099076D02*
X0107111Y0099076D01*
X0107111Y0093083D02*
X0060246Y0093083D01*
X0059483Y0093083D02*
X0059483Y0093083D01*
X0058720Y0093083D02*
X0011855Y0093083D01*
X0011855Y0091885D02*
X0107111Y0091885D01*
X0107111Y0090686D02*
X0011855Y0090686D01*
X0011855Y0089488D02*
X0107111Y0089488D01*
X0107111Y0088289D02*
X0011855Y0088289D01*
X0011855Y0087091D02*
X0107111Y0087091D01*
X0107111Y0085892D02*
X0011855Y0085892D01*
X0011855Y0084694D02*
X0107111Y0084694D01*
X0107111Y0083495D02*
X0011855Y0083495D01*
X0011855Y0082297D02*
X0107111Y0082297D01*
X0107111Y0081098D02*
X0011855Y0081098D01*
X0011855Y0079900D02*
X0107111Y0079900D01*
X0107111Y0078701D02*
X0011855Y0078701D01*
X0011855Y0077503D02*
X0107111Y0077503D01*
X0107111Y0076304D02*
X0011855Y0076304D01*
X0011855Y0075106D02*
X0107111Y0075106D01*
X0107111Y0073907D02*
X0011855Y0073907D01*
X0011855Y0072709D02*
X0107111Y0072709D01*
X0107111Y0071510D02*
X0011855Y0071510D01*
X0011855Y0070312D02*
X0107111Y0070312D01*
X0107111Y0069113D02*
X0011855Y0069113D01*
X0011855Y0067915D02*
X0107111Y0067915D01*
X0107111Y0066716D02*
X0011855Y0066716D01*
X0011855Y0065518D02*
X0055640Y0065518D01*
X0053857Y0065066D02*
X0053857Y0065066D01*
X0049997Y0062544D01*
X0047165Y0058906D01*
X0045668Y0054545D01*
X0045668Y0049935D01*
X0047165Y0045574D01*
X0049997Y0041936D01*
X0049997Y0041936D01*
X0049997Y0041936D01*
X0053857Y0039414D01*
X0058326Y0038282D01*
X0058326Y0038282D01*
X0062921Y0038663D01*
X0067143Y0040515D01*
X0070535Y0043638D01*
X0072730Y0047693D01*
X0073488Y0052240D01*
X0072730Y0056788D01*
X0070535Y0060842D01*
X0070535Y0060843D01*
X0067143Y0063965D01*
X0062921Y0065817D01*
X0058326Y0066198D01*
X0053857Y0065066D01*
X0052714Y0064319D02*
X0011855Y0064319D01*
X0011855Y0063121D02*
X0050879Y0063121D01*
X0049997Y0062544D02*
X0049997Y0062544D01*
X0049997Y0062544D01*
X0049513Y0061922D02*
X0011855Y0061922D01*
X0011855Y0060723D02*
X0048580Y0060723D01*
X0047647Y0059525D02*
X0011855Y0059525D01*
X0011855Y0058326D02*
X0046966Y0058326D01*
X0047165Y0058906D02*
X0047165Y0058906D01*
X0046555Y0057128D02*
X0011855Y0057128D01*
X0011855Y0055929D02*
X0046144Y0055929D01*
X0045732Y0054731D02*
X0011855Y0054731D01*
X0011855Y0053532D02*
X0045668Y0053532D01*
X0045668Y0052334D02*
X0011855Y0052334D01*
X0011855Y0051135D02*
X0045668Y0051135D01*
X0045668Y0049937D02*
X0011855Y0049937D01*
X0011855Y0048738D02*
X0046079Y0048738D01*
X0046491Y0047540D02*
X0011855Y0047540D01*
X0011855Y0046341D02*
X0046902Y0046341D01*
X0047165Y0045574D02*
X0047165Y0045574D01*
X0047501Y0045143D02*
X0011855Y0045143D01*
X0011855Y0043944D02*
X0048434Y0043944D01*
X0049367Y0042746D02*
X0011855Y0042746D01*
X0011855Y0041547D02*
X0050592Y0041547D01*
X0052427Y0040349D02*
X0011855Y0040349D01*
X0011855Y0039150D02*
X0054899Y0039150D01*
X0053857Y0039414D02*
X0053857Y0039414D01*
X0062921Y0038663D02*
X0062921Y0038663D01*
X0064031Y0039150D02*
X0107111Y0039150D01*
X0107111Y0037952D02*
X0011855Y0037952D01*
X0011855Y0036753D02*
X0107111Y0036753D01*
X0107111Y0035555D02*
X0011855Y0035555D01*
X0011855Y0034356D02*
X0107111Y0034356D01*
X0107111Y0033158D02*
X0090059Y0033158D01*
X0090992Y0031959D02*
X0107111Y0031959D01*
X0107111Y0030761D02*
X0091481Y0030761D01*
X0091481Y0029562D02*
X0107111Y0029562D01*
X0107091Y0028364D02*
X0091481Y0028364D01*
X0091481Y0027165D02*
X0106881Y0027165D01*
X0106492Y0025967D02*
X0091481Y0025967D01*
X0091481Y0024768D02*
X0105703Y0024768D01*
X0104442Y0023570D02*
X0091481Y0023570D01*
X0091419Y0022371D02*
X0101365Y0022371D01*
X0093104Y0021173D02*
X0090923Y0021173D01*
X0083161Y0021173D02*
X0035805Y0021173D01*
X0036301Y0022371D02*
X0082665Y0022371D01*
X0082603Y0023570D02*
X0036362Y0023570D01*
X0036362Y0024768D02*
X0082603Y0024768D01*
X0082603Y0025967D02*
X0036362Y0025967D01*
X0036362Y0027165D02*
X0082603Y0027165D01*
X0082603Y0028364D02*
X0036362Y0028364D01*
X0036362Y0029562D02*
X0082603Y0029562D01*
X0082603Y0030761D02*
X0036362Y0030761D01*
X0035874Y0031959D02*
X0083092Y0031959D01*
X0084025Y0033158D02*
X0034941Y0033158D01*
X0028907Y0033158D02*
X0011855Y0033158D01*
X0011855Y0031959D02*
X0027974Y0031959D01*
X0027485Y0030761D02*
X0011855Y0030761D01*
X0011855Y0029562D02*
X0027485Y0029562D01*
X0027485Y0028364D02*
X0011875Y0028364D01*
X0012084Y0027165D02*
X0027485Y0027165D01*
X0027485Y0025967D02*
X0012474Y0025967D01*
X0013263Y0024768D02*
X0027485Y0024768D01*
X0027485Y0023570D02*
X0014524Y0023570D01*
X0017601Y0022371D02*
X0027546Y0022371D01*
X0028043Y0021173D02*
X0025862Y0021173D01*
X0066764Y0040349D02*
X0107111Y0040349D01*
X0107111Y0041547D02*
X0068264Y0041547D01*
X0067143Y0040515D02*
X0067143Y0040515D01*
X0069566Y0042746D02*
X0107111Y0042746D01*
X0107111Y0043944D02*
X0070701Y0043944D01*
X0070535Y0043638D02*
X0070535Y0043638D01*
X0071350Y0045143D02*
X0107111Y0045143D01*
X0107111Y0046341D02*
X0071998Y0046341D01*
X0072647Y0047540D02*
X0107111Y0047540D01*
X0107111Y0048738D02*
X0072904Y0048738D01*
X0072730Y0047693D02*
X0072730Y0047693D01*
X0073104Y0049937D02*
X0107111Y0049937D01*
X0107111Y0051135D02*
X0073304Y0051135D01*
X0073473Y0052334D02*
X0107111Y0052334D01*
X0107111Y0053532D02*
X0073273Y0053532D01*
X0073073Y0054731D02*
X0107111Y0054731D01*
X0107111Y0055929D02*
X0072873Y0055929D01*
X0072730Y0056788D02*
X0072730Y0056788D01*
X0072545Y0057128D02*
X0107111Y0057128D01*
X0107111Y0058326D02*
X0071897Y0058326D01*
X0071248Y0059525D02*
X0107111Y0059525D01*
X0107111Y0060723D02*
X0070600Y0060723D01*
X0069363Y0061922D02*
X0107111Y0061922D01*
X0107111Y0063121D02*
X0068061Y0063121D01*
X0067143Y0063965D02*
X0067143Y0063965D01*
X0066336Y0064319D02*
X0107111Y0064319D01*
X0107111Y0065518D02*
X0063604Y0065518D01*
X0062921Y0065817D02*
X0062921Y0065817D01*
X0058326Y0066198D02*
X0058326Y0066198D01*
X0057239Y0094282D02*
X0011855Y0094282D01*
X0011855Y0095480D02*
X0056914Y0095480D01*
X0056914Y0095547D02*
X0059483Y0095547D01*
X0059483Y0095547D01*
X0059483Y0098116D01*
X0059230Y0098116D01*
X0058734Y0098017D01*
X0058266Y0097823D01*
X0057846Y0097542D01*
X0057488Y0097185D01*
X0057207Y0096764D01*
X0057013Y0096296D01*
X0056914Y0095800D01*
X0056914Y0095547D01*
X0057172Y0096679D02*
X0011855Y0096679D01*
X0011855Y0097877D02*
X0058396Y0097877D01*
X0059483Y0097877D02*
X0059483Y0097877D01*
X0059483Y0096679D02*
X0059483Y0096679D01*
X0059483Y0095480D02*
X0059483Y0095480D01*
X0059483Y0094282D02*
X0059483Y0094282D01*
X0081196Y0101473D02*
X0011855Y0101473D01*
X0011855Y0102671D02*
X0082166Y0102671D01*
X0082160Y0106267D02*
X0011855Y0106267D01*
X0011855Y0107465D02*
X0081261Y0107465D01*
X0080836Y0108664D02*
X0011855Y0108664D01*
X0011855Y0109862D02*
X0080836Y0109862D01*
X0081209Y0111061D02*
X0011855Y0111061D01*
X0011855Y0112259D02*
X0082033Y0112259D01*
X0084049Y0113458D02*
X0011855Y0113458D01*
X0011855Y0141024D02*
X0066659Y0141024D01*
X0067018Y0142222D02*
X0011855Y0142222D01*
X0011855Y0145818D02*
X0107111Y0145818D01*
X0107111Y0147016D02*
X0011855Y0147016D01*
X0011855Y0148215D02*
X0107111Y0148215D01*
X0107111Y0149413D02*
X0011855Y0149413D01*
X0011855Y0150612D02*
X0107111Y0150612D01*
X0107111Y0151810D02*
X0011855Y0151810D01*
X0075073Y0119327D02*
X0088026Y0119327D01*
X0087626Y0102671D02*
X0088426Y0102671D01*
X0088426Y0101473D02*
X0087626Y0101473D01*
X0087626Y0100274D02*
X0088426Y0100274D01*
X0088426Y0097877D02*
X0087626Y0097877D01*
X0087626Y0096679D02*
X0088426Y0096679D01*
X0088426Y0095480D02*
X0087626Y0095480D01*
D16*
X0059483Y0095547D03*
X0054562Y0129996D03*
D17*
X0069325Y0140823D03*
M02*
