G75*
%MOIN*%
%OFA0B0*%
%FSLAX25Y25*%
%IPPOS*%
%LPD*%
%AMOC8*
5,1,8,0,0,1.08239X$1,22.5*
%
%ADD10C,0.00000*%
%ADD11C,0.00400*%
%ADD12R,0.03937X0.04331*%
%ADD13R,0.03150X0.03150*%
%ADD14C,0.06000*%
%ADD15C,0.06496*%
%ADD16C,0.00039*%
%ADD17R,0.03150X0.03150*%
%ADD18C,0.03937*%
%ADD19R,0.02200X0.05200*%
%ADD20C,0.01200*%
%ADD21C,0.02362*%
%ADD22C,0.02953*%
%ADD23C,0.01600*%
D10*
X0018144Y0020744D02*
X0024050Y0020744D01*
X0026018Y0018776D01*
X0092948Y0018776D01*
X0094916Y0020744D01*
X0100822Y0020744D01*
X0101012Y0020746D01*
X0101202Y0020753D01*
X0101392Y0020765D01*
X0101582Y0020781D01*
X0101771Y0020801D01*
X0101960Y0020827D01*
X0102148Y0020856D01*
X0102335Y0020891D01*
X0102521Y0020930D01*
X0102706Y0020973D01*
X0102891Y0021021D01*
X0103074Y0021073D01*
X0103255Y0021129D01*
X0103435Y0021190D01*
X0103614Y0021256D01*
X0103791Y0021325D01*
X0103967Y0021399D01*
X0104140Y0021477D01*
X0104312Y0021560D01*
X0104481Y0021646D01*
X0104649Y0021736D01*
X0104814Y0021831D01*
X0104977Y0021929D01*
X0105137Y0022032D01*
X0105295Y0022138D01*
X0105450Y0022248D01*
X0105603Y0022361D01*
X0105753Y0022479D01*
X0105899Y0022600D01*
X0106043Y0022724D01*
X0106184Y0022852D01*
X0106322Y0022983D01*
X0106457Y0023118D01*
X0106588Y0023256D01*
X0106716Y0023397D01*
X0106840Y0023541D01*
X0106961Y0023687D01*
X0107079Y0023837D01*
X0107192Y0023990D01*
X0107302Y0024145D01*
X0107408Y0024303D01*
X0107511Y0024463D01*
X0107609Y0024626D01*
X0107704Y0024791D01*
X0107794Y0024959D01*
X0107880Y0025128D01*
X0107963Y0025300D01*
X0108041Y0025473D01*
X0108115Y0025649D01*
X0108184Y0025826D01*
X0108250Y0026005D01*
X0108311Y0026185D01*
X0108367Y0026366D01*
X0108419Y0026549D01*
X0108467Y0026734D01*
X0108510Y0026919D01*
X0108549Y0027105D01*
X0108584Y0027292D01*
X0108613Y0027480D01*
X0108639Y0027669D01*
X0108659Y0027858D01*
X0108675Y0028048D01*
X0108687Y0028238D01*
X0108694Y0028428D01*
X0108696Y0028618D01*
X0108696Y0190035D01*
X0108694Y0190225D01*
X0108687Y0190415D01*
X0108675Y0190605D01*
X0108659Y0190795D01*
X0108639Y0190984D01*
X0108613Y0191173D01*
X0108584Y0191361D01*
X0108549Y0191548D01*
X0108510Y0191734D01*
X0108467Y0191919D01*
X0108419Y0192104D01*
X0108367Y0192287D01*
X0108311Y0192468D01*
X0108250Y0192648D01*
X0108184Y0192827D01*
X0108115Y0193004D01*
X0108041Y0193180D01*
X0107963Y0193353D01*
X0107880Y0193525D01*
X0107794Y0193694D01*
X0107704Y0193862D01*
X0107609Y0194027D01*
X0107511Y0194190D01*
X0107408Y0194350D01*
X0107302Y0194508D01*
X0107192Y0194663D01*
X0107079Y0194816D01*
X0106961Y0194966D01*
X0106840Y0195112D01*
X0106716Y0195256D01*
X0106588Y0195397D01*
X0106457Y0195535D01*
X0106322Y0195670D01*
X0106184Y0195801D01*
X0106043Y0195929D01*
X0105899Y0196053D01*
X0105753Y0196174D01*
X0105603Y0196292D01*
X0105450Y0196405D01*
X0105295Y0196515D01*
X0105137Y0196621D01*
X0104977Y0196724D01*
X0104814Y0196822D01*
X0104649Y0196917D01*
X0104481Y0197007D01*
X0104312Y0197093D01*
X0104140Y0197176D01*
X0103967Y0197254D01*
X0103791Y0197328D01*
X0103614Y0197397D01*
X0103435Y0197463D01*
X0103255Y0197524D01*
X0103074Y0197580D01*
X0102891Y0197632D01*
X0102706Y0197680D01*
X0102521Y0197723D01*
X0102335Y0197762D01*
X0102148Y0197797D01*
X0101960Y0197826D01*
X0101771Y0197852D01*
X0101582Y0197872D01*
X0101392Y0197888D01*
X0101202Y0197900D01*
X0101012Y0197907D01*
X0100822Y0197909D01*
X0094916Y0197909D01*
X0092948Y0199878D01*
X0026018Y0199878D01*
X0024050Y0197909D01*
X0018144Y0197909D01*
X0017954Y0197907D01*
X0017764Y0197900D01*
X0017574Y0197888D01*
X0017384Y0197872D01*
X0017195Y0197852D01*
X0017006Y0197826D01*
X0016818Y0197797D01*
X0016631Y0197762D01*
X0016445Y0197723D01*
X0016260Y0197680D01*
X0016075Y0197632D01*
X0015892Y0197580D01*
X0015711Y0197524D01*
X0015531Y0197463D01*
X0015352Y0197397D01*
X0015175Y0197328D01*
X0014999Y0197254D01*
X0014826Y0197176D01*
X0014654Y0197093D01*
X0014485Y0197007D01*
X0014317Y0196917D01*
X0014152Y0196822D01*
X0013989Y0196724D01*
X0013829Y0196621D01*
X0013671Y0196515D01*
X0013516Y0196405D01*
X0013363Y0196292D01*
X0013213Y0196174D01*
X0013067Y0196053D01*
X0012923Y0195929D01*
X0012782Y0195801D01*
X0012644Y0195670D01*
X0012509Y0195535D01*
X0012378Y0195397D01*
X0012250Y0195256D01*
X0012126Y0195112D01*
X0012005Y0194966D01*
X0011887Y0194816D01*
X0011774Y0194663D01*
X0011664Y0194508D01*
X0011558Y0194350D01*
X0011455Y0194190D01*
X0011357Y0194027D01*
X0011262Y0193862D01*
X0011172Y0193694D01*
X0011086Y0193525D01*
X0011003Y0193353D01*
X0010925Y0193180D01*
X0010851Y0193004D01*
X0010782Y0192827D01*
X0010716Y0192648D01*
X0010655Y0192468D01*
X0010599Y0192287D01*
X0010547Y0192104D01*
X0010499Y0191919D01*
X0010456Y0191734D01*
X0010417Y0191548D01*
X0010382Y0191361D01*
X0010353Y0191173D01*
X0010327Y0190984D01*
X0010307Y0190795D01*
X0010291Y0190605D01*
X0010279Y0190415D01*
X0010272Y0190225D01*
X0010270Y0190035D01*
X0010270Y0028618D01*
X0010272Y0028428D01*
X0010279Y0028238D01*
X0010291Y0028048D01*
X0010307Y0027858D01*
X0010327Y0027669D01*
X0010353Y0027480D01*
X0010382Y0027292D01*
X0010417Y0027105D01*
X0010456Y0026919D01*
X0010499Y0026734D01*
X0010547Y0026549D01*
X0010599Y0026366D01*
X0010655Y0026185D01*
X0010716Y0026005D01*
X0010782Y0025826D01*
X0010851Y0025649D01*
X0010925Y0025473D01*
X0011003Y0025300D01*
X0011086Y0025128D01*
X0011172Y0024959D01*
X0011262Y0024791D01*
X0011357Y0024626D01*
X0011455Y0024463D01*
X0011558Y0024303D01*
X0011664Y0024145D01*
X0011774Y0023990D01*
X0011887Y0023837D01*
X0012005Y0023687D01*
X0012126Y0023541D01*
X0012250Y0023397D01*
X0012378Y0023256D01*
X0012509Y0023118D01*
X0012644Y0022983D01*
X0012782Y0022852D01*
X0012923Y0022724D01*
X0013067Y0022600D01*
X0013213Y0022479D01*
X0013363Y0022361D01*
X0013516Y0022248D01*
X0013671Y0022138D01*
X0013829Y0022032D01*
X0013989Y0021929D01*
X0014152Y0021831D01*
X0014317Y0021736D01*
X0014485Y0021646D01*
X0014654Y0021560D01*
X0014826Y0021477D01*
X0014999Y0021399D01*
X0015175Y0021325D01*
X0015352Y0021256D01*
X0015531Y0021190D01*
X0015711Y0021129D01*
X0015892Y0021073D01*
X0016075Y0021021D01*
X0016260Y0020973D01*
X0016445Y0020930D01*
X0016631Y0020891D01*
X0016818Y0020856D01*
X0017006Y0020827D01*
X0017195Y0020801D01*
X0017384Y0020781D01*
X0017574Y0020765D01*
X0017764Y0020753D01*
X0017954Y0020746D01*
X0018144Y0020744D01*
D11*
X0006133Y0028818D02*
X0006133Y0031220D01*
X0006133Y0030019D02*
X0002530Y0030019D01*
X0003731Y0028818D01*
D12*
G36*
X0042322Y0089105D02*
X0039539Y0086322D01*
X0036478Y0089383D01*
X0039261Y0092166D01*
X0042322Y0089105D01*
G37*
G36*
X0047055Y0093838D02*
X0044272Y0091055D01*
X0041211Y0094116D01*
X0043994Y0096899D01*
X0047055Y0093838D01*
G37*
X0059483Y0091020D03*
X0059483Y0084327D03*
G36*
X0074972Y0096899D02*
X0077755Y0094116D01*
X0074694Y0091055D01*
X0071911Y0093838D01*
X0074972Y0096899D01*
G37*
G36*
X0079705Y0092166D02*
X0082488Y0089383D01*
X0079427Y0086322D01*
X0076644Y0089105D01*
X0079705Y0092166D01*
G37*
X0074640Y0109327D03*
X0067948Y0109327D03*
G36*
X0071911Y0124816D02*
X0074694Y0127599D01*
X0077755Y0124538D01*
X0074972Y0121755D01*
X0071911Y0124816D01*
G37*
G36*
X0076644Y0129549D02*
X0079427Y0132332D01*
X0082488Y0129271D01*
X0079705Y0126488D01*
X0076644Y0129549D01*
G37*
X0069719Y0145744D03*
X0063026Y0145744D03*
G36*
X0043994Y0121755D02*
X0041211Y0124538D01*
X0044272Y0127599D01*
X0047055Y0124816D01*
X0043994Y0121755D01*
G37*
G36*
X0039261Y0126488D02*
X0036478Y0129271D01*
X0039539Y0132332D01*
X0042322Y0129549D01*
X0039261Y0126488D01*
G37*
D13*
G36*
X0045325Y0121257D02*
X0047552Y0123484D01*
X0049779Y0121257D01*
X0047552Y0119030D01*
X0045325Y0121257D01*
G37*
G36*
X0049501Y0117081D02*
X0051728Y0119308D01*
X0053955Y0117081D01*
X0051728Y0114854D01*
X0049501Y0117081D01*
G37*
G36*
X0051728Y0099345D02*
X0049501Y0101572D01*
X0051728Y0103799D01*
X0053955Y0101572D01*
X0051728Y0099345D01*
G37*
G36*
X0047552Y0095169D02*
X0045325Y0097396D01*
X0047552Y0099623D01*
X0049779Y0097396D01*
X0047552Y0095169D01*
G37*
G36*
X0069465Y0101572D02*
X0067238Y0099345D01*
X0065011Y0101572D01*
X0067238Y0103799D01*
X0069465Y0101572D01*
G37*
G36*
X0073640Y0097396D02*
X0071413Y0095169D01*
X0069186Y0097396D01*
X0071413Y0099623D01*
X0073640Y0097396D01*
G37*
G36*
X0067238Y0119308D02*
X0069465Y0117081D01*
X0067238Y0114854D01*
X0065011Y0117081D01*
X0067238Y0119308D01*
G37*
G36*
X0071413Y0123484D02*
X0073640Y0121257D01*
X0071413Y0119030D01*
X0069186Y0121257D01*
X0071413Y0123484D01*
G37*
D14*
X0085026Y0119327D02*
X0091026Y0119327D01*
X0091026Y0109327D02*
X0085026Y0109327D01*
X0085026Y0099327D02*
X0091026Y0099327D01*
D15*
X0087042Y0029898D02*
X0087042Y0023402D01*
X0031924Y0023402D02*
X0031924Y0029898D01*
X0031924Y0188756D02*
X0031924Y0195252D01*
X0087042Y0195252D02*
X0087042Y0188756D01*
D16*
X0047081Y0166413D02*
X0047085Y0166717D01*
X0047096Y0167022D01*
X0047115Y0167325D01*
X0047141Y0167629D01*
X0047174Y0167931D01*
X0047215Y0168233D01*
X0047264Y0168533D01*
X0047319Y0168833D01*
X0047382Y0169130D01*
X0047453Y0169426D01*
X0047530Y0169721D01*
X0047615Y0170013D01*
X0047707Y0170303D01*
X0047806Y0170591D01*
X0047912Y0170876D01*
X0048025Y0171159D01*
X0048145Y0171439D01*
X0048272Y0171716D01*
X0048405Y0171989D01*
X0048545Y0172259D01*
X0048692Y0172526D01*
X0048845Y0172789D01*
X0049005Y0173048D01*
X0049171Y0173303D01*
X0049343Y0173554D01*
X0049522Y0173801D01*
X0049706Y0174043D01*
X0049896Y0174281D01*
X0050092Y0174514D01*
X0050294Y0174742D01*
X0050501Y0174965D01*
X0050713Y0175183D01*
X0050931Y0175395D01*
X0051154Y0175602D01*
X0051382Y0175804D01*
X0051615Y0176000D01*
X0051853Y0176190D01*
X0052095Y0176374D01*
X0052342Y0176553D01*
X0052593Y0176725D01*
X0052848Y0176891D01*
X0053107Y0177051D01*
X0053370Y0177204D01*
X0053637Y0177351D01*
X0053907Y0177491D01*
X0054180Y0177624D01*
X0054457Y0177751D01*
X0054737Y0177871D01*
X0055020Y0177984D01*
X0055305Y0178090D01*
X0055593Y0178189D01*
X0055883Y0178281D01*
X0056175Y0178366D01*
X0056470Y0178443D01*
X0056766Y0178514D01*
X0057063Y0178577D01*
X0057363Y0178632D01*
X0057663Y0178681D01*
X0057965Y0178722D01*
X0058267Y0178755D01*
X0058571Y0178781D01*
X0058874Y0178800D01*
X0059179Y0178811D01*
X0059483Y0178815D01*
X0059787Y0178811D01*
X0060092Y0178800D01*
X0060395Y0178781D01*
X0060699Y0178755D01*
X0061001Y0178722D01*
X0061303Y0178681D01*
X0061603Y0178632D01*
X0061903Y0178577D01*
X0062200Y0178514D01*
X0062496Y0178443D01*
X0062791Y0178366D01*
X0063083Y0178281D01*
X0063373Y0178189D01*
X0063661Y0178090D01*
X0063946Y0177984D01*
X0064229Y0177871D01*
X0064509Y0177751D01*
X0064786Y0177624D01*
X0065059Y0177491D01*
X0065329Y0177351D01*
X0065596Y0177204D01*
X0065859Y0177051D01*
X0066118Y0176891D01*
X0066373Y0176725D01*
X0066624Y0176553D01*
X0066871Y0176374D01*
X0067113Y0176190D01*
X0067351Y0176000D01*
X0067584Y0175804D01*
X0067812Y0175602D01*
X0068035Y0175395D01*
X0068253Y0175183D01*
X0068465Y0174965D01*
X0068672Y0174742D01*
X0068874Y0174514D01*
X0069070Y0174281D01*
X0069260Y0174043D01*
X0069444Y0173801D01*
X0069623Y0173554D01*
X0069795Y0173303D01*
X0069961Y0173048D01*
X0070121Y0172789D01*
X0070274Y0172526D01*
X0070421Y0172259D01*
X0070561Y0171989D01*
X0070694Y0171716D01*
X0070821Y0171439D01*
X0070941Y0171159D01*
X0071054Y0170876D01*
X0071160Y0170591D01*
X0071259Y0170303D01*
X0071351Y0170013D01*
X0071436Y0169721D01*
X0071513Y0169426D01*
X0071584Y0169130D01*
X0071647Y0168833D01*
X0071702Y0168533D01*
X0071751Y0168233D01*
X0071792Y0167931D01*
X0071825Y0167629D01*
X0071851Y0167325D01*
X0071870Y0167022D01*
X0071881Y0166717D01*
X0071885Y0166413D01*
X0071881Y0166109D01*
X0071870Y0165804D01*
X0071851Y0165501D01*
X0071825Y0165197D01*
X0071792Y0164895D01*
X0071751Y0164593D01*
X0071702Y0164293D01*
X0071647Y0163993D01*
X0071584Y0163696D01*
X0071513Y0163400D01*
X0071436Y0163105D01*
X0071351Y0162813D01*
X0071259Y0162523D01*
X0071160Y0162235D01*
X0071054Y0161950D01*
X0070941Y0161667D01*
X0070821Y0161387D01*
X0070694Y0161110D01*
X0070561Y0160837D01*
X0070421Y0160567D01*
X0070274Y0160300D01*
X0070121Y0160037D01*
X0069961Y0159778D01*
X0069795Y0159523D01*
X0069623Y0159272D01*
X0069444Y0159025D01*
X0069260Y0158783D01*
X0069070Y0158545D01*
X0068874Y0158312D01*
X0068672Y0158084D01*
X0068465Y0157861D01*
X0068253Y0157643D01*
X0068035Y0157431D01*
X0067812Y0157224D01*
X0067584Y0157022D01*
X0067351Y0156826D01*
X0067113Y0156636D01*
X0066871Y0156452D01*
X0066624Y0156273D01*
X0066373Y0156101D01*
X0066118Y0155935D01*
X0065859Y0155775D01*
X0065596Y0155622D01*
X0065329Y0155475D01*
X0065059Y0155335D01*
X0064786Y0155202D01*
X0064509Y0155075D01*
X0064229Y0154955D01*
X0063946Y0154842D01*
X0063661Y0154736D01*
X0063373Y0154637D01*
X0063083Y0154545D01*
X0062791Y0154460D01*
X0062496Y0154383D01*
X0062200Y0154312D01*
X0061903Y0154249D01*
X0061603Y0154194D01*
X0061303Y0154145D01*
X0061001Y0154104D01*
X0060699Y0154071D01*
X0060395Y0154045D01*
X0060092Y0154026D01*
X0059787Y0154015D01*
X0059483Y0154011D01*
X0059179Y0154015D01*
X0058874Y0154026D01*
X0058571Y0154045D01*
X0058267Y0154071D01*
X0057965Y0154104D01*
X0057663Y0154145D01*
X0057363Y0154194D01*
X0057063Y0154249D01*
X0056766Y0154312D01*
X0056470Y0154383D01*
X0056175Y0154460D01*
X0055883Y0154545D01*
X0055593Y0154637D01*
X0055305Y0154736D01*
X0055020Y0154842D01*
X0054737Y0154955D01*
X0054457Y0155075D01*
X0054180Y0155202D01*
X0053907Y0155335D01*
X0053637Y0155475D01*
X0053370Y0155622D01*
X0053107Y0155775D01*
X0052848Y0155935D01*
X0052593Y0156101D01*
X0052342Y0156273D01*
X0052095Y0156452D01*
X0051853Y0156636D01*
X0051615Y0156826D01*
X0051382Y0157022D01*
X0051154Y0157224D01*
X0050931Y0157431D01*
X0050713Y0157643D01*
X0050501Y0157861D01*
X0050294Y0158084D01*
X0050092Y0158312D01*
X0049896Y0158545D01*
X0049706Y0158783D01*
X0049522Y0159025D01*
X0049343Y0159272D01*
X0049171Y0159523D01*
X0049005Y0159778D01*
X0048845Y0160037D01*
X0048692Y0160300D01*
X0048545Y0160567D01*
X0048405Y0160837D01*
X0048272Y0161110D01*
X0048145Y0161387D01*
X0048025Y0161667D01*
X0047912Y0161950D01*
X0047806Y0162235D01*
X0047707Y0162523D01*
X0047615Y0162813D01*
X0047530Y0163105D01*
X0047453Y0163400D01*
X0047382Y0163696D01*
X0047319Y0163993D01*
X0047264Y0164293D01*
X0047215Y0164593D01*
X0047174Y0164895D01*
X0047141Y0165197D01*
X0047115Y0165501D01*
X0047096Y0165804D01*
X0047085Y0166109D01*
X0047081Y0166413D01*
X0047081Y0052240D02*
X0047085Y0052544D01*
X0047096Y0052849D01*
X0047115Y0053152D01*
X0047141Y0053456D01*
X0047174Y0053758D01*
X0047215Y0054060D01*
X0047264Y0054360D01*
X0047319Y0054660D01*
X0047382Y0054957D01*
X0047453Y0055253D01*
X0047530Y0055548D01*
X0047615Y0055840D01*
X0047707Y0056130D01*
X0047806Y0056418D01*
X0047912Y0056703D01*
X0048025Y0056986D01*
X0048145Y0057266D01*
X0048272Y0057543D01*
X0048405Y0057816D01*
X0048545Y0058086D01*
X0048692Y0058353D01*
X0048845Y0058616D01*
X0049005Y0058875D01*
X0049171Y0059130D01*
X0049343Y0059381D01*
X0049522Y0059628D01*
X0049706Y0059870D01*
X0049896Y0060108D01*
X0050092Y0060341D01*
X0050294Y0060569D01*
X0050501Y0060792D01*
X0050713Y0061010D01*
X0050931Y0061222D01*
X0051154Y0061429D01*
X0051382Y0061631D01*
X0051615Y0061827D01*
X0051853Y0062017D01*
X0052095Y0062201D01*
X0052342Y0062380D01*
X0052593Y0062552D01*
X0052848Y0062718D01*
X0053107Y0062878D01*
X0053370Y0063031D01*
X0053637Y0063178D01*
X0053907Y0063318D01*
X0054180Y0063451D01*
X0054457Y0063578D01*
X0054737Y0063698D01*
X0055020Y0063811D01*
X0055305Y0063917D01*
X0055593Y0064016D01*
X0055883Y0064108D01*
X0056175Y0064193D01*
X0056470Y0064270D01*
X0056766Y0064341D01*
X0057063Y0064404D01*
X0057363Y0064459D01*
X0057663Y0064508D01*
X0057965Y0064549D01*
X0058267Y0064582D01*
X0058571Y0064608D01*
X0058874Y0064627D01*
X0059179Y0064638D01*
X0059483Y0064642D01*
X0059787Y0064638D01*
X0060092Y0064627D01*
X0060395Y0064608D01*
X0060699Y0064582D01*
X0061001Y0064549D01*
X0061303Y0064508D01*
X0061603Y0064459D01*
X0061903Y0064404D01*
X0062200Y0064341D01*
X0062496Y0064270D01*
X0062791Y0064193D01*
X0063083Y0064108D01*
X0063373Y0064016D01*
X0063661Y0063917D01*
X0063946Y0063811D01*
X0064229Y0063698D01*
X0064509Y0063578D01*
X0064786Y0063451D01*
X0065059Y0063318D01*
X0065329Y0063178D01*
X0065596Y0063031D01*
X0065859Y0062878D01*
X0066118Y0062718D01*
X0066373Y0062552D01*
X0066624Y0062380D01*
X0066871Y0062201D01*
X0067113Y0062017D01*
X0067351Y0061827D01*
X0067584Y0061631D01*
X0067812Y0061429D01*
X0068035Y0061222D01*
X0068253Y0061010D01*
X0068465Y0060792D01*
X0068672Y0060569D01*
X0068874Y0060341D01*
X0069070Y0060108D01*
X0069260Y0059870D01*
X0069444Y0059628D01*
X0069623Y0059381D01*
X0069795Y0059130D01*
X0069961Y0058875D01*
X0070121Y0058616D01*
X0070274Y0058353D01*
X0070421Y0058086D01*
X0070561Y0057816D01*
X0070694Y0057543D01*
X0070821Y0057266D01*
X0070941Y0056986D01*
X0071054Y0056703D01*
X0071160Y0056418D01*
X0071259Y0056130D01*
X0071351Y0055840D01*
X0071436Y0055548D01*
X0071513Y0055253D01*
X0071584Y0054957D01*
X0071647Y0054660D01*
X0071702Y0054360D01*
X0071751Y0054060D01*
X0071792Y0053758D01*
X0071825Y0053456D01*
X0071851Y0053152D01*
X0071870Y0052849D01*
X0071881Y0052544D01*
X0071885Y0052240D01*
X0071881Y0051936D01*
X0071870Y0051631D01*
X0071851Y0051328D01*
X0071825Y0051024D01*
X0071792Y0050722D01*
X0071751Y0050420D01*
X0071702Y0050120D01*
X0071647Y0049820D01*
X0071584Y0049523D01*
X0071513Y0049227D01*
X0071436Y0048932D01*
X0071351Y0048640D01*
X0071259Y0048350D01*
X0071160Y0048062D01*
X0071054Y0047777D01*
X0070941Y0047494D01*
X0070821Y0047214D01*
X0070694Y0046937D01*
X0070561Y0046664D01*
X0070421Y0046394D01*
X0070274Y0046127D01*
X0070121Y0045864D01*
X0069961Y0045605D01*
X0069795Y0045350D01*
X0069623Y0045099D01*
X0069444Y0044852D01*
X0069260Y0044610D01*
X0069070Y0044372D01*
X0068874Y0044139D01*
X0068672Y0043911D01*
X0068465Y0043688D01*
X0068253Y0043470D01*
X0068035Y0043258D01*
X0067812Y0043051D01*
X0067584Y0042849D01*
X0067351Y0042653D01*
X0067113Y0042463D01*
X0066871Y0042279D01*
X0066624Y0042100D01*
X0066373Y0041928D01*
X0066118Y0041762D01*
X0065859Y0041602D01*
X0065596Y0041449D01*
X0065329Y0041302D01*
X0065059Y0041162D01*
X0064786Y0041029D01*
X0064509Y0040902D01*
X0064229Y0040782D01*
X0063946Y0040669D01*
X0063661Y0040563D01*
X0063373Y0040464D01*
X0063083Y0040372D01*
X0062791Y0040287D01*
X0062496Y0040210D01*
X0062200Y0040139D01*
X0061903Y0040076D01*
X0061603Y0040021D01*
X0061303Y0039972D01*
X0061001Y0039931D01*
X0060699Y0039898D01*
X0060395Y0039872D01*
X0060092Y0039853D01*
X0059787Y0039842D01*
X0059483Y0039838D01*
X0059179Y0039842D01*
X0058874Y0039853D01*
X0058571Y0039872D01*
X0058267Y0039898D01*
X0057965Y0039931D01*
X0057663Y0039972D01*
X0057363Y0040021D01*
X0057063Y0040076D01*
X0056766Y0040139D01*
X0056470Y0040210D01*
X0056175Y0040287D01*
X0055883Y0040372D01*
X0055593Y0040464D01*
X0055305Y0040563D01*
X0055020Y0040669D01*
X0054737Y0040782D01*
X0054457Y0040902D01*
X0054180Y0041029D01*
X0053907Y0041162D01*
X0053637Y0041302D01*
X0053370Y0041449D01*
X0053107Y0041602D01*
X0052848Y0041762D01*
X0052593Y0041928D01*
X0052342Y0042100D01*
X0052095Y0042279D01*
X0051853Y0042463D01*
X0051615Y0042653D01*
X0051382Y0042849D01*
X0051154Y0043051D01*
X0050931Y0043258D01*
X0050713Y0043470D01*
X0050501Y0043688D01*
X0050294Y0043911D01*
X0050092Y0044139D01*
X0049896Y0044372D01*
X0049706Y0044610D01*
X0049522Y0044852D01*
X0049343Y0045099D01*
X0049171Y0045350D01*
X0049005Y0045605D01*
X0048845Y0045864D01*
X0048692Y0046127D01*
X0048545Y0046394D01*
X0048405Y0046664D01*
X0048272Y0046937D01*
X0048145Y0047214D01*
X0048025Y0047494D01*
X0047912Y0047777D01*
X0047806Y0048062D01*
X0047707Y0048350D01*
X0047615Y0048640D01*
X0047530Y0048932D01*
X0047453Y0049227D01*
X0047382Y0049523D01*
X0047319Y0049820D01*
X0047264Y0050120D01*
X0047215Y0050420D01*
X0047174Y0050722D01*
X0047141Y0051024D01*
X0047115Y0051328D01*
X0047096Y0051631D01*
X0047085Y0051936D01*
X0047081Y0052240D01*
D17*
X0056530Y0109327D03*
X0062436Y0109327D03*
D18*
X0100822Y0028618D03*
X0018144Y0028618D03*
X0018144Y0190035D03*
X0100822Y0190035D03*
D19*
X0063183Y0136265D03*
X0055783Y0136265D03*
X0059483Y0127665D03*
D20*
X0057192Y0127840D02*
X0055760Y0127840D01*
X0055544Y0127624D02*
X0056933Y0129014D01*
X0056933Y0129835D01*
X0057192Y0130095D01*
X0057192Y0124571D01*
X0057492Y0124271D01*
X0057492Y0118991D01*
X0053729Y0118991D01*
X0052221Y0120499D01*
X0051235Y0120499D01*
X0049727Y0118991D01*
X0049197Y0118991D01*
X0050970Y0120764D01*
X0050970Y0121750D01*
X0048246Y0124474D01*
X0048246Y0125309D01*
X0044765Y0128791D01*
X0043779Y0128791D01*
X0040019Y0125031D01*
X0040019Y0124045D01*
X0043500Y0120563D01*
X0044336Y0120563D01*
X0047059Y0117840D01*
X0047850Y0117840D01*
X0047850Y0100814D01*
X0047059Y0100814D01*
X0044336Y0098090D01*
X0043500Y0098090D01*
X0040019Y0094609D01*
X0040019Y0093623D01*
X0043779Y0089863D01*
X0044765Y0089863D01*
X0048246Y0093344D01*
X0048246Y0094179D01*
X0050970Y0096903D01*
X0050970Y0097889D01*
X0049197Y0099662D01*
X0049727Y0099662D01*
X0051235Y0098155D01*
X0052221Y0098155D01*
X0053729Y0099662D01*
X0065237Y0099662D01*
X0066744Y0098155D01*
X0067731Y0098155D01*
X0069238Y0099662D01*
X0069768Y0099662D01*
X0067996Y0097889D01*
X0067996Y0096903D01*
X0070720Y0094179D01*
X0070720Y0093344D01*
X0074201Y0089863D01*
X0075187Y0089863D01*
X0078947Y0093623D01*
X0078947Y0094609D01*
X0075465Y0098090D01*
X0074630Y0098090D01*
X0071906Y0100814D01*
X0071116Y0100814D01*
X0071116Y0117840D01*
X0071906Y0117840D01*
X0074630Y0120563D01*
X0075465Y0120563D01*
X0078947Y0124045D01*
X0078947Y0125031D01*
X0075187Y0128791D01*
X0074201Y0128791D01*
X0070720Y0125309D01*
X0070720Y0124474D01*
X0067996Y0121750D01*
X0067996Y0120764D01*
X0069768Y0118991D01*
X0069238Y0118991D01*
X0067731Y0120499D01*
X0066744Y0120499D01*
X0065237Y0118991D01*
X0061473Y0118991D01*
X0061473Y0124271D01*
X0061773Y0124571D01*
X0061773Y0130758D01*
X0061076Y0131455D01*
X0057890Y0131455D01*
X0057573Y0131139D01*
X0057573Y0132671D01*
X0058073Y0133171D01*
X0058073Y0139358D01*
X0057376Y0140055D01*
X0054190Y0140055D01*
X0053492Y0139358D01*
X0053492Y0133171D01*
X0053992Y0132671D01*
X0053992Y0132368D01*
X0053579Y0132368D01*
X0052190Y0130978D01*
X0052190Y0129014D01*
X0053579Y0127624D01*
X0055544Y0127624D01*
X0057192Y0126642D02*
X0046914Y0126642D01*
X0045716Y0127840D02*
X0053364Y0127840D01*
X0052190Y0129039D02*
X0043623Y0129039D01*
X0043616Y0129013D02*
X0043711Y0129366D01*
X0043711Y0129731D01*
X0043616Y0130084D01*
X0043433Y0130401D01*
X0042184Y0131650D01*
X0039944Y0129410D01*
X0039400Y0129953D01*
X0038857Y0129410D01*
X0036755Y0131511D01*
X0035367Y0130122D01*
X0035184Y0129806D01*
X0035090Y0129453D01*
X0035090Y0129088D01*
X0035184Y0128735D01*
X0035367Y0128419D01*
X0036616Y0127169D01*
X0038857Y0129410D01*
X0039400Y0128866D01*
X0037160Y0126626D01*
X0038409Y0125376D01*
X0038725Y0125194D01*
X0039078Y0125099D01*
X0039444Y0125099D01*
X0039796Y0125194D01*
X0040113Y0125376D01*
X0041501Y0126765D01*
X0039400Y0128866D01*
X0039944Y0129410D01*
X0042045Y0127308D01*
X0043433Y0128697D01*
X0043616Y0129013D01*
X0043528Y0130237D02*
X0052190Y0130237D01*
X0052647Y0131436D02*
X0042398Y0131436D01*
X0041970Y0131436D02*
X0040883Y0131436D01*
X0041641Y0132193D02*
X0039400Y0129953D01*
X0037299Y0132054D01*
X0038687Y0133443D01*
X0039004Y0133626D01*
X0039357Y0133720D01*
X0039722Y0133720D01*
X0040075Y0133626D01*
X0040391Y0133443D01*
X0041641Y0132193D01*
X0041200Y0132634D02*
X0053992Y0132634D01*
X0053492Y0133833D02*
X0011855Y0133833D01*
X0011855Y0135031D02*
X0053492Y0135031D01*
X0053492Y0136230D02*
X0011855Y0136230D01*
X0011855Y0137428D02*
X0053492Y0137428D01*
X0053492Y0138627D02*
X0011855Y0138627D01*
X0011855Y0139825D02*
X0053960Y0139825D01*
X0057606Y0139825D02*
X0061360Y0139825D01*
X0061392Y0139858D02*
X0060892Y0139358D01*
X0060892Y0133171D01*
X0061590Y0132474D01*
X0064776Y0132474D01*
X0065473Y0133171D01*
X0065473Y0139358D01*
X0064973Y0139858D01*
X0064973Y0142388D01*
X0065488Y0142388D01*
X0066185Y0143086D01*
X0066185Y0148403D01*
X0065488Y0149100D01*
X0060565Y0149100D01*
X0059867Y0148403D01*
X0059867Y0143086D01*
X0060565Y0142388D01*
X0061392Y0142388D01*
X0061392Y0139858D01*
X0061392Y0141024D02*
X0011855Y0141024D01*
X0011855Y0142222D02*
X0061392Y0142222D01*
X0059867Y0143421D02*
X0011855Y0143421D01*
X0011855Y0144619D02*
X0059867Y0144619D01*
X0059867Y0145818D02*
X0011855Y0145818D01*
X0011855Y0147016D02*
X0059867Y0147016D01*
X0059867Y0148215D02*
X0011855Y0148215D01*
X0011855Y0149413D02*
X0107111Y0149413D01*
X0107111Y0148215D02*
X0072878Y0148215D01*
X0072878Y0148403D02*
X0072181Y0149100D01*
X0067258Y0149100D01*
X0066560Y0148403D01*
X0066560Y0143086D01*
X0067188Y0142457D01*
X0067065Y0142334D01*
X0066659Y0141353D01*
X0066659Y0140292D01*
X0067065Y0139312D01*
X0067815Y0138562D01*
X0068795Y0138156D01*
X0069856Y0138156D01*
X0070836Y0138562D01*
X0071586Y0139312D01*
X0071992Y0140292D01*
X0071992Y0141353D01*
X0071586Y0142334D01*
X0071532Y0142388D01*
X0072181Y0142388D01*
X0072878Y0143086D01*
X0072878Y0148403D01*
X0072878Y0147016D02*
X0107111Y0147016D01*
X0107111Y0145818D02*
X0072878Y0145818D01*
X0072878Y0144619D02*
X0107111Y0144619D01*
X0107111Y0143421D02*
X0072878Y0143421D01*
X0071632Y0142222D02*
X0107111Y0142222D01*
X0107111Y0141024D02*
X0071992Y0141024D01*
X0071799Y0139825D02*
X0107111Y0139825D01*
X0107111Y0138627D02*
X0070901Y0138627D01*
X0069325Y0140823D02*
X0069325Y0145350D01*
X0069719Y0145744D01*
X0066560Y0145818D02*
X0066185Y0145818D01*
X0066185Y0147016D02*
X0066560Y0147016D01*
X0066560Y0148215D02*
X0066185Y0148215D01*
X0066185Y0144619D02*
X0066560Y0144619D01*
X0066560Y0143421D02*
X0066185Y0143421D01*
X0067018Y0142222D02*
X0064973Y0142222D01*
X0064973Y0141024D02*
X0066659Y0141024D01*
X0066852Y0139825D02*
X0065006Y0139825D01*
X0065473Y0138627D02*
X0067750Y0138627D01*
X0065473Y0137428D02*
X0107111Y0137428D01*
X0107111Y0136230D02*
X0065473Y0136230D01*
X0065473Y0135031D02*
X0107111Y0135031D01*
X0107111Y0133833D02*
X0065473Y0133833D01*
X0064936Y0132634D02*
X0077766Y0132634D01*
X0077325Y0132193D02*
X0078575Y0133443D01*
X0078891Y0133626D01*
X0079244Y0133720D01*
X0079609Y0133720D01*
X0079962Y0133626D01*
X0080278Y0133443D01*
X0081667Y0132054D01*
X0079566Y0129953D01*
X0080109Y0129410D01*
X0082210Y0131511D01*
X0083599Y0130122D01*
X0083782Y0129806D01*
X0083876Y0129453D01*
X0083876Y0129088D01*
X0083782Y0128735D01*
X0083599Y0128419D01*
X0082350Y0127169D01*
X0080109Y0129410D01*
X0079566Y0128866D01*
X0081806Y0126626D01*
X0080557Y0125376D01*
X0080240Y0125194D01*
X0079888Y0125099D01*
X0079522Y0125099D01*
X0079169Y0125194D01*
X0078853Y0125376D01*
X0077465Y0126765D01*
X0079566Y0128866D01*
X0079022Y0129410D01*
X0076782Y0131650D01*
X0075533Y0130401D01*
X0075350Y0130084D01*
X0075255Y0129731D01*
X0075255Y0129366D01*
X0075350Y0129013D01*
X0075533Y0128697D01*
X0076921Y0127308D01*
X0079022Y0129410D01*
X0079566Y0129953D01*
X0077325Y0132193D01*
X0076996Y0131436D02*
X0078083Y0131436D01*
X0078195Y0130237D02*
X0079282Y0130237D01*
X0079850Y0130237D02*
X0080937Y0130237D01*
X0081048Y0131436D02*
X0082135Y0131436D01*
X0082286Y0131436D02*
X0107111Y0131436D01*
X0107111Y0132634D02*
X0081087Y0132634D01*
X0083484Y0130237D02*
X0107111Y0130237D01*
X0107111Y0129039D02*
X0083863Y0129039D01*
X0083021Y0127840D02*
X0107111Y0127840D01*
X0107111Y0126642D02*
X0081790Y0126642D01*
X0081679Y0127840D02*
X0080592Y0127840D01*
X0080480Y0129039D02*
X0079738Y0129039D01*
X0079393Y0129039D02*
X0078651Y0129039D01*
X0078540Y0127840D02*
X0077453Y0127840D01*
X0076389Y0127840D02*
X0076138Y0127840D01*
X0075343Y0129039D02*
X0061773Y0129039D01*
X0061773Y0130237D02*
X0075438Y0130237D01*
X0076567Y0131436D02*
X0061096Y0131436D01*
X0061430Y0132634D02*
X0057573Y0132634D01*
X0057573Y0131436D02*
X0057870Y0131436D01*
X0058073Y0133833D02*
X0060892Y0133833D01*
X0060892Y0135031D02*
X0058073Y0135031D01*
X0058073Y0136230D02*
X0060892Y0136230D01*
X0060892Y0137428D02*
X0058073Y0137428D01*
X0058073Y0138627D02*
X0060892Y0138627D01*
X0063183Y0136265D02*
X0063183Y0145587D01*
X0063026Y0145744D01*
X0062921Y0152836D02*
X0058326Y0152456D01*
X0058326Y0152456D01*
X0053857Y0153588D01*
X0053857Y0153588D01*
X0049997Y0156109D01*
X0049997Y0156109D01*
X0049997Y0156109D01*
X0047165Y0159747D01*
X0047165Y0159748D01*
X0045668Y0164108D01*
X0045668Y0168719D01*
X0047165Y0173079D01*
X0047165Y0173079D01*
X0049997Y0176718D01*
X0049997Y0176718D01*
X0049997Y0176718D01*
X0053857Y0179239D01*
X0058326Y0180371D01*
X0062921Y0179990D01*
X0067143Y0178138D01*
X0070535Y0175016D01*
X0070535Y0175016D01*
X0070535Y0175016D01*
X0072730Y0170961D01*
X0072730Y0170961D01*
X0073488Y0166413D01*
X0072730Y0161866D01*
X0070535Y0157811D01*
X0070535Y0157811D01*
X0067143Y0154688D01*
X0067143Y0154688D01*
X0062921Y0152836D01*
X0062921Y0152836D01*
X0063314Y0153009D02*
X0107111Y0153009D01*
X0107111Y0154207D02*
X0066046Y0154207D01*
X0067923Y0155406D02*
X0107111Y0155406D01*
X0107111Y0156604D02*
X0069224Y0156604D01*
X0070526Y0157803D02*
X0107111Y0157803D01*
X0107111Y0159001D02*
X0071179Y0159001D01*
X0071828Y0160200D02*
X0107111Y0160200D01*
X0107111Y0161398D02*
X0072477Y0161398D01*
X0072730Y0161866D02*
X0072730Y0161866D01*
X0072852Y0162597D02*
X0107111Y0162597D01*
X0107111Y0163795D02*
X0073052Y0163795D01*
X0073252Y0164994D02*
X0107111Y0164994D01*
X0107111Y0166192D02*
X0073452Y0166192D01*
X0073325Y0167391D02*
X0107111Y0167391D01*
X0107111Y0168590D02*
X0073125Y0168590D01*
X0072925Y0169788D02*
X0107111Y0169788D01*
X0107111Y0170987D02*
X0072716Y0170987D01*
X0072067Y0172185D02*
X0107111Y0172185D01*
X0107111Y0173384D02*
X0071419Y0173384D01*
X0070770Y0174582D02*
X0107111Y0174582D01*
X0107111Y0175781D02*
X0069704Y0175781D01*
X0068402Y0176979D02*
X0107111Y0176979D01*
X0107111Y0178178D02*
X0067054Y0178178D01*
X0064321Y0179376D02*
X0107111Y0179376D01*
X0107111Y0180575D02*
X0011855Y0180575D01*
X0011855Y0181773D02*
X0107111Y0181773D01*
X0107111Y0182972D02*
X0011855Y0182972D01*
X0011855Y0184170D02*
X0107111Y0184170D01*
X0107111Y0185369D02*
X0089932Y0185369D01*
X0089556Y0184993D02*
X0087925Y0184317D01*
X0086159Y0184317D01*
X0084528Y0184993D01*
X0083279Y0186242D01*
X0082603Y0187873D01*
X0082603Y0196135D01*
X0083279Y0197766D01*
X0083807Y0198294D01*
X0035159Y0198294D01*
X0035687Y0197766D01*
X0036362Y0196135D01*
X0036362Y0187873D01*
X0035687Y0186242D01*
X0034438Y0184993D01*
X0032807Y0184317D01*
X0031041Y0184317D01*
X0029410Y0184993D01*
X0028161Y0186242D01*
X0027485Y0187873D01*
X0027485Y0196135D01*
X0028161Y0197766D01*
X0028689Y0198294D01*
X0026675Y0198294D01*
X0025634Y0197253D01*
X0024706Y0196325D01*
X0018144Y0196325D01*
X0017160Y0196248D01*
X0015289Y0195640D01*
X0013697Y0194483D01*
X0012540Y0192891D01*
X0011932Y0191019D01*
X0011855Y0190035D01*
X0011855Y0029274D01*
X0011855Y0028618D01*
X0011932Y0027634D01*
X0012540Y0025763D01*
X0013697Y0024171D01*
X0015289Y0023014D01*
X0017160Y0022406D01*
X0018144Y0022328D01*
X0024706Y0022328D01*
X0026675Y0020360D01*
X0028689Y0020360D01*
X0028161Y0020887D01*
X0027485Y0022519D01*
X0027485Y0030781D01*
X0028161Y0032412D01*
X0029410Y0033660D01*
X0031041Y0034336D01*
X0032807Y0034336D01*
X0034438Y0033660D01*
X0035687Y0032412D01*
X0036362Y0030781D01*
X0036362Y0022519D01*
X0035687Y0020887D01*
X0035159Y0020360D01*
X0083807Y0020360D01*
X0083279Y0020887D01*
X0082603Y0022519D01*
X0082603Y0030781D01*
X0083279Y0032412D01*
X0084528Y0033660D01*
X0086159Y0034336D01*
X0087925Y0034336D01*
X0089556Y0033660D01*
X0090805Y0032412D01*
X0091481Y0030781D01*
X0091481Y0022519D01*
X0090805Y0020887D01*
X0090277Y0020360D01*
X0092291Y0020360D01*
X0093332Y0021400D01*
X0094260Y0022328D01*
X0100822Y0022328D01*
X0101805Y0022406D01*
X0103677Y0023014D01*
X0105269Y0024171D01*
X0106426Y0025763D01*
X0107034Y0027634D01*
X0107111Y0028618D01*
X0107111Y0190035D01*
X0107034Y0191019D01*
X0106426Y0192891D01*
X0105269Y0194483D01*
X0103677Y0195640D01*
X0101805Y0196248D01*
X0100822Y0196325D01*
X0094260Y0196325D01*
X0092291Y0198294D01*
X0090277Y0198294D01*
X0090805Y0197766D01*
X0091481Y0196135D01*
X0091481Y0187873D01*
X0090805Y0186242D01*
X0089556Y0184993D01*
X0090940Y0186567D02*
X0107111Y0186567D01*
X0107111Y0187766D02*
X0103019Y0187766D01*
X0102611Y0187357D02*
X0103500Y0188246D01*
X0103981Y0189407D01*
X0103981Y0190664D01*
X0103500Y0191825D01*
X0102611Y0192714D01*
X0101450Y0193194D01*
X0100193Y0193194D01*
X0099032Y0192714D01*
X0098143Y0191825D01*
X0097662Y0190664D01*
X0097662Y0189407D01*
X0098143Y0188246D01*
X0099032Y0187357D01*
X0100193Y0186876D01*
X0101450Y0186876D01*
X0102611Y0187357D01*
X0103797Y0188964D02*
X0107111Y0188964D01*
X0107101Y0190163D02*
X0103981Y0190163D01*
X0103692Y0191361D02*
X0106923Y0191361D01*
X0106533Y0192560D02*
X0102765Y0192560D01*
X0104617Y0194957D02*
X0091481Y0194957D01*
X0091472Y0196155D02*
X0102090Y0196155D01*
X0105796Y0193758D02*
X0091481Y0193758D01*
X0091481Y0192560D02*
X0098878Y0192560D01*
X0097951Y0191361D02*
X0091481Y0191361D01*
X0091481Y0190163D02*
X0097662Y0190163D01*
X0097846Y0188964D02*
X0091481Y0188964D01*
X0091436Y0187766D02*
X0098624Y0187766D01*
X0093231Y0197354D02*
X0090976Y0197354D01*
X0083108Y0197354D02*
X0035858Y0197354D01*
X0036354Y0196155D02*
X0082612Y0196155D01*
X0082603Y0194957D02*
X0036362Y0194957D01*
X0036362Y0193758D02*
X0082603Y0193758D01*
X0082603Y0192560D02*
X0036362Y0192560D01*
X0036362Y0191361D02*
X0082603Y0191361D01*
X0082603Y0190163D02*
X0036362Y0190163D01*
X0036362Y0188964D02*
X0082603Y0188964D01*
X0082648Y0187766D02*
X0036318Y0187766D01*
X0035822Y0186567D02*
X0083144Y0186567D01*
X0084152Y0185369D02*
X0034814Y0185369D01*
X0029034Y0185369D02*
X0011855Y0185369D01*
X0011855Y0186567D02*
X0028026Y0186567D01*
X0027530Y0187766D02*
X0020342Y0187766D01*
X0019934Y0187357D02*
X0020822Y0188246D01*
X0021303Y0189407D01*
X0021303Y0190664D01*
X0020822Y0191825D01*
X0019934Y0192714D01*
X0018773Y0193194D01*
X0017516Y0193194D01*
X0016355Y0192714D01*
X0015466Y0191825D01*
X0014985Y0190664D01*
X0014985Y0189407D01*
X0015466Y0188246D01*
X0016355Y0187357D01*
X0017516Y0186876D01*
X0018773Y0186876D01*
X0019934Y0187357D01*
X0021120Y0188964D02*
X0027485Y0188964D01*
X0027485Y0190163D02*
X0021303Y0190163D01*
X0021015Y0191361D02*
X0027485Y0191361D01*
X0027485Y0192560D02*
X0020088Y0192560D01*
X0016876Y0196155D02*
X0027494Y0196155D01*
X0027485Y0194957D02*
X0014349Y0194957D01*
X0013170Y0193758D02*
X0027485Y0193758D01*
X0027990Y0197354D02*
X0025735Y0197354D01*
X0016201Y0192560D02*
X0012433Y0192560D01*
X0012043Y0191361D02*
X0015274Y0191361D01*
X0014985Y0190163D02*
X0011865Y0190163D01*
X0011855Y0188964D02*
X0015169Y0188964D01*
X0015947Y0187766D02*
X0011855Y0187766D01*
X0011855Y0179376D02*
X0054397Y0179376D01*
X0052232Y0178178D02*
X0011855Y0178178D01*
X0011855Y0176979D02*
X0050398Y0176979D01*
X0049268Y0175781D02*
X0011855Y0175781D01*
X0011855Y0174582D02*
X0048335Y0174582D01*
X0047402Y0173384D02*
X0011855Y0173384D01*
X0011855Y0172185D02*
X0046858Y0172185D01*
X0046447Y0170987D02*
X0011855Y0170987D01*
X0011855Y0169788D02*
X0046036Y0169788D01*
X0045668Y0168590D02*
X0011855Y0168590D01*
X0011855Y0167391D02*
X0045668Y0167391D01*
X0045668Y0166192D02*
X0011855Y0166192D01*
X0011855Y0164994D02*
X0045668Y0164994D01*
X0045776Y0163795D02*
X0011855Y0163795D01*
X0011855Y0162597D02*
X0046187Y0162597D01*
X0046599Y0161398D02*
X0011855Y0161398D01*
X0011855Y0160200D02*
X0047010Y0160200D01*
X0047746Y0159001D02*
X0011855Y0159001D01*
X0011855Y0157803D02*
X0048679Y0157803D01*
X0049612Y0156604D02*
X0011855Y0156604D01*
X0011855Y0155406D02*
X0051074Y0155406D01*
X0052908Y0154207D02*
X0011855Y0154207D01*
X0011855Y0153009D02*
X0056142Y0153009D01*
X0055783Y0136265D02*
X0055783Y0131217D01*
X0054562Y0129996D01*
X0056933Y0129039D02*
X0057192Y0129039D01*
X0057192Y0125443D02*
X0048113Y0125443D01*
X0048476Y0124245D02*
X0057492Y0124245D01*
X0057492Y0123046D02*
X0049674Y0123046D01*
X0050873Y0121848D02*
X0057492Y0121848D01*
X0057492Y0120649D02*
X0050855Y0120649D01*
X0050187Y0119451D02*
X0049657Y0119451D01*
X0047552Y0121257D02*
X0044133Y0124677D01*
X0041630Y0126642D02*
X0041378Y0126642D01*
X0041513Y0127840D02*
X0040426Y0127840D01*
X0040314Y0129039D02*
X0039573Y0129039D01*
X0039228Y0129039D02*
X0038486Y0129039D01*
X0038374Y0127840D02*
X0037287Y0127840D01*
X0037176Y0126642D02*
X0011855Y0126642D01*
X0011855Y0127840D02*
X0035945Y0127840D01*
X0035103Y0129039D02*
X0011855Y0129039D01*
X0011855Y0130237D02*
X0035482Y0130237D01*
X0036680Y0131436D02*
X0011855Y0131436D01*
X0011855Y0132634D02*
X0037879Y0132634D01*
X0037917Y0131436D02*
X0036831Y0131436D01*
X0038029Y0130237D02*
X0039116Y0130237D01*
X0039684Y0130237D02*
X0040771Y0130237D01*
X0042577Y0127840D02*
X0042828Y0127840D01*
X0040431Y0125443D02*
X0040180Y0125443D01*
X0040019Y0124245D02*
X0011855Y0124245D01*
X0011855Y0125443D02*
X0038342Y0125443D01*
X0041018Y0123046D02*
X0011855Y0123046D01*
X0011855Y0121848D02*
X0042216Y0121848D01*
X0043415Y0120649D02*
X0011855Y0120649D01*
X0011855Y0119451D02*
X0045448Y0119451D01*
X0046647Y0118252D02*
X0011855Y0118252D01*
X0011855Y0117054D02*
X0047850Y0117054D01*
X0047850Y0115855D02*
X0011855Y0115855D01*
X0011855Y0114656D02*
X0047850Y0114656D01*
X0047850Y0113458D02*
X0011855Y0113458D01*
X0011855Y0112259D02*
X0047850Y0112259D01*
X0047850Y0111061D02*
X0011855Y0111061D01*
X0011855Y0109862D02*
X0047850Y0109862D01*
X0047850Y0108664D02*
X0011855Y0108664D01*
X0011855Y0107465D02*
X0047850Y0107465D01*
X0047850Y0106267D02*
X0011855Y0106267D01*
X0011855Y0105068D02*
X0047850Y0105068D01*
X0047850Y0103870D02*
X0011855Y0103870D01*
X0011855Y0102671D02*
X0047850Y0102671D01*
X0047850Y0101473D02*
X0011855Y0101473D01*
X0011855Y0100274D02*
X0046520Y0100274D01*
X0045321Y0099076D02*
X0011855Y0099076D01*
X0011855Y0097877D02*
X0043288Y0097877D01*
X0042089Y0096679D02*
X0011855Y0096679D01*
X0011855Y0095480D02*
X0040891Y0095480D01*
X0040019Y0094282D02*
X0011855Y0094282D01*
X0011855Y0093083D02*
X0038215Y0093083D01*
X0038409Y0093277D02*
X0037160Y0092028D01*
X0039400Y0089787D01*
X0038857Y0089244D01*
X0036616Y0091484D01*
X0035367Y0090235D01*
X0035184Y0089919D01*
X0035090Y0089566D01*
X0035090Y0089200D01*
X0035184Y0088848D01*
X0035367Y0088531D01*
X0036755Y0087143D01*
X0038857Y0089244D01*
X0039400Y0088700D01*
X0037299Y0086599D01*
X0038687Y0085211D01*
X0039004Y0085028D01*
X0039357Y0084933D01*
X0039722Y0084933D01*
X0040075Y0085028D01*
X0040391Y0085211D01*
X0041641Y0086460D01*
X0039400Y0088700D01*
X0039944Y0089244D01*
X0039400Y0089787D01*
X0041501Y0091889D01*
X0040113Y0093277D01*
X0039796Y0093460D01*
X0039444Y0093554D01*
X0039078Y0093554D01*
X0038725Y0093460D01*
X0038409Y0093277D01*
X0037303Y0091885D02*
X0011855Y0091885D01*
X0011855Y0090686D02*
X0035818Y0090686D01*
X0035090Y0089488D02*
X0011855Y0089488D01*
X0011855Y0088289D02*
X0035609Y0088289D01*
X0037902Y0088289D02*
X0038989Y0088289D01*
X0039811Y0088289D02*
X0040898Y0088289D01*
X0041010Y0087091D02*
X0042097Y0087091D01*
X0042184Y0087003D02*
X0043433Y0088253D01*
X0043616Y0088569D01*
X0043711Y0088922D01*
X0043711Y0089287D01*
X0043616Y0089640D01*
X0043433Y0089957D01*
X0042045Y0091345D01*
X0039944Y0089244D01*
X0042184Y0087003D01*
X0042271Y0087091D02*
X0056258Y0087091D01*
X0056222Y0087028D02*
X0056127Y0086675D01*
X0056127Y0084711D01*
X0059099Y0084711D01*
X0059099Y0083942D01*
X0059867Y0083942D01*
X0059867Y0080774D01*
X0061634Y0080774D01*
X0061987Y0080869D01*
X0062303Y0081051D01*
X0062562Y0081310D01*
X0062744Y0081626D01*
X0062839Y0081979D01*
X0062839Y0083942D01*
X0059867Y0083942D01*
X0059867Y0084711D01*
X0062839Y0084711D01*
X0062839Y0086675D01*
X0062744Y0087028D01*
X0062562Y0087344D01*
X0062303Y0087602D01*
X0062037Y0087756D01*
X0062642Y0088361D01*
X0062642Y0093678D01*
X0061945Y0094376D01*
X0061665Y0094376D01*
X0061855Y0094565D01*
X0061855Y0096530D01*
X0060465Y0097919D01*
X0058501Y0097919D01*
X0057111Y0096530D01*
X0057111Y0094565D01*
X0057301Y0094376D01*
X0057021Y0094376D01*
X0056324Y0093678D01*
X0056324Y0088361D01*
X0056929Y0087756D01*
X0056663Y0087602D01*
X0056404Y0087344D01*
X0056222Y0087028D01*
X0056127Y0085892D02*
X0041073Y0085892D01*
X0038006Y0085892D02*
X0011855Y0085892D01*
X0011855Y0084694D02*
X0059099Y0084694D01*
X0059099Y0083942D02*
X0056127Y0083942D01*
X0056127Y0081979D01*
X0056222Y0081626D01*
X0056404Y0081310D01*
X0056663Y0081051D01*
X0056979Y0080869D01*
X0057332Y0080774D01*
X0059099Y0080774D01*
X0059099Y0083942D01*
X0059099Y0083495D02*
X0059867Y0083495D01*
X0059867Y0082297D02*
X0059099Y0082297D01*
X0059099Y0081098D02*
X0059867Y0081098D01*
X0062350Y0081098D02*
X0107111Y0081098D01*
X0107111Y0079900D02*
X0011855Y0079900D01*
X0011855Y0081098D02*
X0056616Y0081098D01*
X0056127Y0082297D02*
X0011855Y0082297D01*
X0011855Y0083495D02*
X0056127Y0083495D01*
X0059867Y0084694D02*
X0107111Y0084694D01*
X0107111Y0085892D02*
X0080960Y0085892D01*
X0080278Y0085211D02*
X0081667Y0086599D01*
X0079566Y0088700D01*
X0080109Y0089244D01*
X0079566Y0089787D01*
X0081806Y0092028D01*
X0080557Y0093277D01*
X0080240Y0093460D01*
X0079888Y0093554D01*
X0079522Y0093554D01*
X0079169Y0093460D01*
X0078853Y0093277D01*
X0077465Y0091889D01*
X0079566Y0089787D01*
X0079022Y0089244D01*
X0076921Y0091345D01*
X0075533Y0089957D01*
X0075350Y0089640D01*
X0075255Y0089287D01*
X0075255Y0088922D01*
X0075350Y0088569D01*
X0075533Y0088253D01*
X0076782Y0087003D01*
X0079022Y0089244D01*
X0079566Y0088700D01*
X0077325Y0086460D01*
X0078575Y0085211D01*
X0078891Y0085028D01*
X0079244Y0084933D01*
X0079609Y0084933D01*
X0079962Y0085028D01*
X0080278Y0085211D01*
X0081175Y0087091D02*
X0107111Y0087091D01*
X0107111Y0088289D02*
X0083357Y0088289D01*
X0083599Y0088531D02*
X0083782Y0088848D01*
X0083876Y0089200D01*
X0083876Y0089566D01*
X0083782Y0089919D01*
X0083599Y0090235D01*
X0082350Y0091484D01*
X0080109Y0089244D01*
X0082210Y0087143D01*
X0083599Y0088531D01*
X0083876Y0089488D02*
X0107111Y0089488D01*
X0107111Y0090686D02*
X0083148Y0090686D01*
X0081552Y0090686D02*
X0080465Y0090686D01*
X0080353Y0089488D02*
X0079865Y0089488D01*
X0079266Y0089488D02*
X0078778Y0089488D01*
X0078667Y0090686D02*
X0077580Y0090686D01*
X0077468Y0091885D02*
X0077209Y0091885D01*
X0076262Y0090686D02*
X0076010Y0090686D01*
X0075309Y0089488D02*
X0062642Y0089488D01*
X0062642Y0090686D02*
X0073377Y0090686D01*
X0072179Y0091885D02*
X0062642Y0091885D01*
X0062642Y0093083D02*
X0070980Y0093083D01*
X0070617Y0094282D02*
X0062038Y0094282D01*
X0061855Y0095480D02*
X0069419Y0095480D01*
X0068220Y0096679D02*
X0061705Y0096679D01*
X0060507Y0097877D02*
X0067996Y0097877D01*
X0068652Y0099076D02*
X0069182Y0099076D01*
X0071413Y0097396D02*
X0074833Y0093977D01*
X0076877Y0096679D02*
X0081748Y0096679D01*
X0081474Y0096953D02*
X0082652Y0095774D01*
X0084193Y0095136D01*
X0091860Y0095136D01*
X0093400Y0095774D01*
X0094579Y0096953D01*
X0095217Y0098493D01*
X0095217Y0100160D01*
X0094579Y0101701D01*
X0093400Y0102879D01*
X0091860Y0103517D01*
X0084193Y0103517D01*
X0082652Y0102879D01*
X0081474Y0101701D01*
X0080836Y0100160D01*
X0080836Y0098493D01*
X0081474Y0096953D01*
X0081091Y0097877D02*
X0075678Y0097877D01*
X0073645Y0099076D02*
X0080836Y0099076D01*
X0080883Y0100274D02*
X0072446Y0100274D01*
X0071116Y0101473D02*
X0081379Y0101473D01*
X0082445Y0102671D02*
X0071116Y0102671D01*
X0071116Y0103870D02*
X0107111Y0103870D01*
X0107111Y0105068D02*
X0092118Y0105068D01*
X0092054Y0105047D02*
X0092710Y0105261D01*
X0093326Y0105574D01*
X0093884Y0105980D01*
X0094373Y0106469D01*
X0094779Y0107027D01*
X0095092Y0107643D01*
X0095306Y0108299D01*
X0095405Y0108927D01*
X0088426Y0108927D01*
X0088426Y0104939D01*
X0091372Y0104939D01*
X0092054Y0105047D01*
X0093608Y0102671D02*
X0107111Y0102671D01*
X0107111Y0101473D02*
X0094673Y0101473D01*
X0095170Y0100274D02*
X0107111Y0100274D01*
X0107111Y0099076D02*
X0095217Y0099076D01*
X0094962Y0097877D02*
X0107111Y0097877D01*
X0107111Y0096679D02*
X0094305Y0096679D01*
X0092691Y0095480D02*
X0107111Y0095480D01*
X0107111Y0094282D02*
X0078947Y0094282D01*
X0078659Y0093083D02*
X0078407Y0093083D01*
X0080751Y0093083D02*
X0107111Y0093083D01*
X0107111Y0091885D02*
X0081663Y0091885D01*
X0083362Y0095480D02*
X0078075Y0095480D01*
X0078068Y0088289D02*
X0079155Y0088289D01*
X0079977Y0088289D02*
X0081064Y0088289D01*
X0077956Y0087091D02*
X0076869Y0087091D01*
X0076695Y0087091D02*
X0062708Y0087091D01*
X0062839Y0085892D02*
X0077893Y0085892D01*
X0075511Y0088289D02*
X0062570Y0088289D01*
X0059483Y0091020D02*
X0059483Y0095547D01*
X0057111Y0095480D02*
X0049547Y0095480D01*
X0048349Y0094282D02*
X0056928Y0094282D01*
X0056324Y0093083D02*
X0047985Y0093083D01*
X0046787Y0091885D02*
X0056324Y0091885D01*
X0056324Y0090686D02*
X0045588Y0090686D01*
X0043657Y0089488D02*
X0056324Y0089488D01*
X0056396Y0088289D02*
X0043454Y0088289D01*
X0042955Y0090686D02*
X0042704Y0090686D01*
X0041386Y0090686D02*
X0040299Y0090686D01*
X0040187Y0089488D02*
X0039700Y0089488D01*
X0039100Y0089488D02*
X0038613Y0089488D01*
X0038501Y0090686D02*
X0037414Y0090686D01*
X0037790Y0087091D02*
X0011855Y0087091D01*
X0011855Y0078701D02*
X0107111Y0078701D01*
X0107111Y0077503D02*
X0011855Y0077503D01*
X0011855Y0076304D02*
X0107111Y0076304D01*
X0107111Y0075106D02*
X0011855Y0075106D01*
X0011855Y0073907D02*
X0107111Y0073907D01*
X0107111Y0072709D02*
X0011855Y0072709D01*
X0011855Y0071510D02*
X0107111Y0071510D01*
X0107111Y0070312D02*
X0011855Y0070312D01*
X0011855Y0069113D02*
X0107111Y0069113D01*
X0107111Y0067915D02*
X0011855Y0067915D01*
X0011855Y0066716D02*
X0107111Y0066716D01*
X0107111Y0065518D02*
X0063604Y0065518D01*
X0062921Y0065817D02*
X0058326Y0066198D01*
X0053857Y0065066D01*
X0049997Y0062544D01*
X0047165Y0058906D01*
X0045668Y0054545D01*
X0045668Y0049935D01*
X0047165Y0045574D01*
X0049997Y0041936D01*
X0049997Y0041936D01*
X0053857Y0039414D01*
X0058326Y0038282D01*
X0058326Y0038282D01*
X0062921Y0038663D01*
X0067143Y0040515D01*
X0070535Y0043638D01*
X0072730Y0047693D01*
X0073488Y0052240D01*
X0072730Y0056788D01*
X0070535Y0060842D01*
X0070535Y0060843D01*
X0067143Y0063965D01*
X0062921Y0065817D01*
X0062921Y0065817D01*
X0066336Y0064319D02*
X0107111Y0064319D01*
X0107111Y0063121D02*
X0068061Y0063121D01*
X0067143Y0063965D02*
X0067143Y0063965D01*
X0069363Y0061922D02*
X0107111Y0061922D01*
X0107111Y0060723D02*
X0070600Y0060723D01*
X0071248Y0059525D02*
X0107111Y0059525D01*
X0107111Y0058326D02*
X0071897Y0058326D01*
X0072545Y0057128D02*
X0107111Y0057128D01*
X0107111Y0055929D02*
X0072873Y0055929D01*
X0072730Y0056788D02*
X0072730Y0056788D01*
X0073073Y0054731D02*
X0107111Y0054731D01*
X0107111Y0053532D02*
X0073273Y0053532D01*
X0073473Y0052334D02*
X0107111Y0052334D01*
X0107111Y0051135D02*
X0073304Y0051135D01*
X0073104Y0049937D02*
X0107111Y0049937D01*
X0107111Y0048738D02*
X0072904Y0048738D01*
X0072730Y0047693D02*
X0072730Y0047693D01*
X0072647Y0047540D02*
X0107111Y0047540D01*
X0107111Y0046341D02*
X0071998Y0046341D01*
X0071350Y0045143D02*
X0107111Y0045143D01*
X0107111Y0043944D02*
X0070701Y0043944D01*
X0070535Y0043638D02*
X0070535Y0043638D01*
X0069566Y0042746D02*
X0107111Y0042746D01*
X0107111Y0041547D02*
X0068264Y0041547D01*
X0067143Y0040515D02*
X0067143Y0040515D01*
X0066764Y0040349D02*
X0107111Y0040349D01*
X0107111Y0039150D02*
X0064031Y0039150D01*
X0062921Y0038663D02*
X0062921Y0038663D01*
X0054899Y0039150D02*
X0011855Y0039150D01*
X0011855Y0037952D02*
X0107111Y0037952D01*
X0107111Y0036753D02*
X0011855Y0036753D01*
X0011855Y0035555D02*
X0107111Y0035555D01*
X0107111Y0034356D02*
X0011855Y0034356D01*
X0011855Y0033158D02*
X0028907Y0033158D01*
X0027974Y0031959D02*
X0011855Y0031959D01*
X0011855Y0030761D02*
X0015819Y0030761D01*
X0015466Y0030408D02*
X0014985Y0029246D01*
X0014985Y0027990D01*
X0015466Y0026829D01*
X0016355Y0025940D01*
X0017516Y0025459D01*
X0018773Y0025459D01*
X0019934Y0025940D01*
X0020822Y0026829D01*
X0021303Y0027990D01*
X0021303Y0029246D01*
X0020822Y0030408D01*
X0019934Y0031296D01*
X0018773Y0031777D01*
X0017516Y0031777D01*
X0016355Y0031296D01*
X0015466Y0030408D01*
X0015116Y0029562D02*
X0011855Y0029562D01*
X0011875Y0028364D02*
X0014985Y0028364D01*
X0015327Y0027165D02*
X0012084Y0027165D01*
X0012474Y0025967D02*
X0016328Y0025967D01*
X0014524Y0023570D02*
X0027485Y0023570D01*
X0027485Y0024768D02*
X0013263Y0024768D01*
X0017601Y0022371D02*
X0027546Y0022371D01*
X0028043Y0021173D02*
X0025862Y0021173D01*
X0027485Y0025967D02*
X0019960Y0025967D01*
X0020962Y0027165D02*
X0027485Y0027165D01*
X0027485Y0028364D02*
X0021303Y0028364D01*
X0021173Y0029562D02*
X0027485Y0029562D01*
X0027485Y0030761D02*
X0020469Y0030761D01*
X0011855Y0040349D02*
X0052427Y0040349D01*
X0053857Y0039414D02*
X0053857Y0039414D01*
X0050592Y0041547D02*
X0011855Y0041547D01*
X0011855Y0042746D02*
X0049367Y0042746D01*
X0048434Y0043944D02*
X0011855Y0043944D01*
X0011855Y0045143D02*
X0047501Y0045143D01*
X0047165Y0045574D02*
X0047165Y0045574D01*
X0046902Y0046341D02*
X0011855Y0046341D01*
X0011855Y0047540D02*
X0046491Y0047540D01*
X0046079Y0048738D02*
X0011855Y0048738D01*
X0011855Y0049937D02*
X0045668Y0049937D01*
X0045668Y0051135D02*
X0011855Y0051135D01*
X0011855Y0052334D02*
X0045668Y0052334D01*
X0045668Y0053532D02*
X0011855Y0053532D01*
X0011855Y0054731D02*
X0045732Y0054731D01*
X0046144Y0055929D02*
X0011855Y0055929D01*
X0011855Y0057128D02*
X0046555Y0057128D01*
X0046966Y0058326D02*
X0011855Y0058326D01*
X0011855Y0059525D02*
X0047647Y0059525D01*
X0047165Y0058906D02*
X0047165Y0058906D01*
X0048580Y0060723D02*
X0011855Y0060723D01*
X0011855Y0061922D02*
X0049513Y0061922D01*
X0049997Y0062544D02*
X0049997Y0062544D01*
X0049997Y0062544D01*
X0050879Y0063121D02*
X0011855Y0063121D01*
X0011855Y0064319D02*
X0052714Y0064319D01*
X0053857Y0065066D02*
X0053857Y0065066D01*
X0055640Y0065518D02*
X0011855Y0065518D01*
X0040307Y0093083D02*
X0040558Y0093083D01*
X0041497Y0091885D02*
X0041757Y0091885D01*
X0044133Y0093977D02*
X0047552Y0097396D01*
X0049784Y0099076D02*
X0050314Y0099076D01*
X0050970Y0097877D02*
X0058459Y0097877D01*
X0057260Y0096679D02*
X0050746Y0096679D01*
X0053143Y0099076D02*
X0065823Y0099076D01*
X0066972Y0101572D02*
X0065010Y0103534D01*
X0063900Y0102424D01*
X0063718Y0102108D01*
X0063623Y0101755D01*
X0063623Y0101453D01*
X0055343Y0101453D01*
X0055343Y0101755D01*
X0055248Y0102108D01*
X0055066Y0102424D01*
X0053955Y0103534D01*
X0051993Y0101572D01*
X0051728Y0101837D01*
X0051463Y0101572D01*
X0049640Y0103395D01*
X0049640Y0115259D01*
X0051463Y0117081D01*
X0051728Y0116816D01*
X0049766Y0114854D01*
X0050876Y0113744D01*
X0051193Y0113561D01*
X0051546Y0113467D01*
X0051911Y0113467D01*
X0052264Y0113561D01*
X0052580Y0113744D01*
X0053690Y0114854D01*
X0051728Y0116816D01*
X0051993Y0117081D01*
X0053955Y0115119D01*
X0055066Y0116229D01*
X0055248Y0116546D01*
X0055343Y0116899D01*
X0055343Y0117201D01*
X0063623Y0117201D01*
X0063623Y0116899D01*
X0063718Y0116546D01*
X0063900Y0116229D01*
X0065010Y0115119D01*
X0066972Y0117081D01*
X0067237Y0116816D01*
X0065275Y0114854D01*
X0066386Y0113744D01*
X0066702Y0113561D01*
X0067055Y0113467D01*
X0067420Y0113467D01*
X0067773Y0113561D01*
X0068089Y0113744D01*
X0069200Y0114854D01*
X0067238Y0116816D01*
X0067503Y0117081D01*
X0069325Y0115258D01*
X0069325Y0112683D01*
X0065486Y0112683D01*
X0064788Y0111985D01*
X0064788Y0111807D01*
X0064504Y0112092D01*
X0060368Y0112092D01*
X0059670Y0111395D01*
X0059670Y0107259D01*
X0060368Y0106561D01*
X0064504Y0106561D01*
X0064788Y0106846D01*
X0064788Y0106668D01*
X0065486Y0105971D01*
X0069325Y0105971D01*
X0069325Y0103395D01*
X0067503Y0101572D01*
X0067238Y0101837D01*
X0069200Y0103799D01*
X0068089Y0104909D01*
X0067773Y0105092D01*
X0067420Y0105187D01*
X0067055Y0105187D01*
X0066702Y0105092D01*
X0066386Y0104909D01*
X0065275Y0103799D01*
X0067237Y0101837D01*
X0066972Y0101572D01*
X0066403Y0102671D02*
X0065873Y0102671D01*
X0065346Y0103870D02*
X0053620Y0103870D01*
X0053690Y0103799D02*
X0052580Y0104909D01*
X0052264Y0105092D01*
X0051911Y0105187D01*
X0051546Y0105187D01*
X0051193Y0105092D01*
X0050876Y0104909D01*
X0049766Y0103799D01*
X0051728Y0101837D01*
X0053690Y0103799D01*
X0053093Y0102671D02*
X0052562Y0102671D01*
X0050894Y0102671D02*
X0050364Y0102671D01*
X0049837Y0103870D02*
X0049640Y0103870D01*
X0049640Y0105068D02*
X0051152Y0105068D01*
X0052305Y0105068D02*
X0066661Y0105068D01*
X0067814Y0105068D02*
X0069325Y0105068D01*
X0069325Y0103870D02*
X0069129Y0103870D01*
X0068602Y0102671D02*
X0068072Y0102671D01*
X0071116Y0105068D02*
X0083934Y0105068D01*
X0083999Y0105047D02*
X0084681Y0104939D01*
X0087626Y0104939D01*
X0087626Y0108927D01*
X0080648Y0108927D01*
X0080747Y0108299D01*
X0080960Y0107643D01*
X0081274Y0107027D01*
X0081680Y0106469D01*
X0082168Y0105980D01*
X0082727Y0105574D01*
X0083342Y0105261D01*
X0083999Y0105047D01*
X0081881Y0106267D02*
X0077677Y0106267D01*
X0077719Y0106310D02*
X0077902Y0106626D01*
X0077996Y0106979D01*
X0077996Y0108942D01*
X0075025Y0108942D01*
X0075025Y0105774D01*
X0076792Y0105774D01*
X0077144Y0105869D01*
X0077461Y0106051D01*
X0077719Y0106310D01*
X0077996Y0107465D02*
X0081051Y0107465D01*
X0080689Y0108664D02*
X0077996Y0108664D01*
X0077996Y0109711D02*
X0077996Y0111675D01*
X0077902Y0112028D01*
X0077719Y0112344D01*
X0077461Y0112602D01*
X0077144Y0112785D01*
X0076792Y0112880D01*
X0075025Y0112880D01*
X0075025Y0109711D01*
X0077996Y0109711D01*
X0077996Y0109862D02*
X0080669Y0109862D01*
X0080648Y0109727D02*
X0080747Y0110354D01*
X0080960Y0111011D01*
X0081274Y0111626D01*
X0081680Y0112185D01*
X0082168Y0112673D01*
X0082727Y0113079D01*
X0083342Y0113393D01*
X0083999Y0113606D01*
X0084681Y0113714D01*
X0087626Y0113714D01*
X0087626Y0109727D01*
X0088426Y0109727D01*
X0088426Y0113714D01*
X0091372Y0113714D01*
X0092054Y0113606D01*
X0092710Y0113393D01*
X0093326Y0113079D01*
X0093884Y0112673D01*
X0094373Y0112185D01*
X0094779Y0111626D01*
X0095092Y0111011D01*
X0095306Y0110354D01*
X0095405Y0109727D01*
X0088426Y0109727D01*
X0088426Y0108927D01*
X0087626Y0108927D01*
X0087626Y0109727D01*
X0080648Y0109727D01*
X0080986Y0111061D02*
X0077996Y0111061D01*
X0077768Y0112259D02*
X0081754Y0112259D01*
X0083543Y0113458D02*
X0071116Y0113458D01*
X0071820Y0112602D02*
X0071562Y0112344D01*
X0071379Y0112028D01*
X0071285Y0111675D01*
X0071285Y0109711D01*
X0074256Y0109711D01*
X0074256Y0108942D01*
X0075025Y0108942D01*
X0075025Y0109711D01*
X0074256Y0109711D01*
X0074256Y0112880D01*
X0072489Y0112880D01*
X0072136Y0112785D01*
X0071820Y0112602D01*
X0071513Y0112259D02*
X0071116Y0112259D01*
X0071116Y0111061D02*
X0071285Y0111061D01*
X0071285Y0109862D02*
X0071116Y0109862D01*
X0071285Y0108942D02*
X0071285Y0106979D01*
X0071379Y0106626D01*
X0071562Y0106310D01*
X0071820Y0106051D01*
X0072136Y0105869D01*
X0072489Y0105774D01*
X0074256Y0105774D01*
X0074256Y0108942D01*
X0071285Y0108942D01*
X0071285Y0108664D02*
X0071116Y0108664D01*
X0071116Y0107465D02*
X0071285Y0107465D01*
X0071116Y0106267D02*
X0071604Y0106267D01*
X0074256Y0106267D02*
X0075025Y0106267D01*
X0075025Y0107465D02*
X0074256Y0107465D01*
X0074256Y0108664D02*
X0075025Y0108664D01*
X0075025Y0109862D02*
X0074256Y0109862D01*
X0074256Y0111061D02*
X0075025Y0111061D01*
X0075025Y0112259D02*
X0074256Y0112259D01*
X0071116Y0114656D02*
X0107111Y0114656D01*
X0107111Y0113458D02*
X0092510Y0113458D01*
X0091860Y0115136D02*
X0093400Y0115774D01*
X0094579Y0116953D01*
X0095217Y0118493D01*
X0095217Y0120160D01*
X0094579Y0121701D01*
X0093400Y0122879D01*
X0091860Y0123517D01*
X0084193Y0123517D01*
X0082652Y0122879D01*
X0081474Y0121701D01*
X0080836Y0120160D01*
X0080836Y0118493D01*
X0081474Y0116953D01*
X0082652Y0115774D01*
X0084193Y0115136D01*
X0091860Y0115136D01*
X0093481Y0115855D02*
X0107111Y0115855D01*
X0107111Y0117054D02*
X0094620Y0117054D01*
X0095117Y0118252D02*
X0107111Y0118252D01*
X0107111Y0119451D02*
X0095217Y0119451D01*
X0095014Y0120649D02*
X0107111Y0120649D01*
X0107111Y0121848D02*
X0094432Y0121848D01*
X0092997Y0123046D02*
X0107111Y0123046D01*
X0107111Y0124245D02*
X0078947Y0124245D01*
X0078786Y0125443D02*
X0078535Y0125443D01*
X0077588Y0126642D02*
X0077336Y0126642D01*
X0074833Y0124677D02*
X0071413Y0121257D01*
X0069309Y0119451D02*
X0068779Y0119451D01*
X0068111Y0120649D02*
X0061473Y0120649D01*
X0061473Y0119451D02*
X0065696Y0119451D01*
X0066945Y0117054D02*
X0067000Y0117054D01*
X0067475Y0117054D02*
X0067530Y0117054D01*
X0068199Y0115855D02*
X0068729Y0115855D01*
X0069002Y0114656D02*
X0069325Y0114656D01*
X0069325Y0113458D02*
X0049640Y0113458D01*
X0049640Y0114656D02*
X0049964Y0114656D01*
X0050237Y0115855D02*
X0050767Y0115855D01*
X0051435Y0117054D02*
X0051491Y0117054D01*
X0051966Y0117054D02*
X0052021Y0117054D01*
X0052690Y0115855D02*
X0053220Y0115855D01*
X0053493Y0114656D02*
X0065473Y0114656D01*
X0065746Y0115855D02*
X0066276Y0115855D01*
X0064275Y0115855D02*
X0054691Y0115855D01*
X0055343Y0117054D02*
X0063623Y0117054D01*
X0065063Y0112259D02*
X0058398Y0112259D01*
X0058288Y0112289D02*
X0056718Y0112289D01*
X0056718Y0109514D01*
X0059492Y0109514D01*
X0059492Y0111084D01*
X0059398Y0111437D01*
X0059215Y0111753D01*
X0058957Y0112012D01*
X0058640Y0112194D01*
X0058288Y0112289D01*
X0056718Y0112259D02*
X0056343Y0112259D01*
X0056343Y0112289D02*
X0054773Y0112289D01*
X0054420Y0112194D01*
X0054103Y0112012D01*
X0053845Y0111753D01*
X0053663Y0111437D01*
X0053568Y0111084D01*
X0053568Y0109514D01*
X0056343Y0109514D01*
X0056343Y0112289D01*
X0056343Y0111061D02*
X0056718Y0111061D01*
X0056718Y0109862D02*
X0056343Y0109862D01*
X0056343Y0109514D02*
X0056718Y0109514D01*
X0056718Y0109139D01*
X0059492Y0109139D01*
X0059492Y0107569D01*
X0059398Y0107216D01*
X0059215Y0106900D01*
X0058957Y0106642D01*
X0058640Y0106459D01*
X0058288Y0106365D01*
X0056718Y0106365D01*
X0056718Y0109139D01*
X0056343Y0109139D01*
X0056343Y0106365D01*
X0054773Y0106365D01*
X0054420Y0106459D01*
X0054103Y0106642D01*
X0053845Y0106900D01*
X0053663Y0107216D01*
X0053568Y0107569D01*
X0053568Y0109139D01*
X0056343Y0109139D01*
X0056343Y0109514D01*
X0056343Y0108664D02*
X0056718Y0108664D01*
X0056718Y0107465D02*
X0056343Y0107465D01*
X0059465Y0107465D02*
X0059670Y0107465D01*
X0059670Y0108664D02*
X0059492Y0108664D01*
X0059492Y0109862D02*
X0059670Y0109862D01*
X0059670Y0111061D02*
X0059492Y0111061D01*
X0062436Y0109327D02*
X0067948Y0109327D01*
X0065190Y0106267D02*
X0049640Y0106267D01*
X0049640Y0107465D02*
X0053596Y0107465D01*
X0053568Y0108664D02*
X0049640Y0108664D01*
X0049640Y0109862D02*
X0053568Y0109862D01*
X0053568Y0111061D02*
X0049640Y0111061D01*
X0049640Y0112259D02*
X0054663Y0112259D01*
X0053270Y0119451D02*
X0057492Y0119451D01*
X0061473Y0121848D02*
X0068093Y0121848D01*
X0069291Y0123046D02*
X0061473Y0123046D01*
X0061473Y0124245D02*
X0070490Y0124245D01*
X0070853Y0125443D02*
X0061773Y0125443D01*
X0061773Y0126642D02*
X0072052Y0126642D01*
X0073250Y0127840D02*
X0061773Y0127840D01*
X0071116Y0117054D02*
X0081432Y0117054D01*
X0080936Y0118252D02*
X0072319Y0118252D01*
X0073517Y0119451D02*
X0080836Y0119451D01*
X0081038Y0120649D02*
X0075551Y0120649D01*
X0076750Y0121848D02*
X0081621Y0121848D01*
X0083055Y0123046D02*
X0077948Y0123046D01*
X0080624Y0125443D02*
X0107111Y0125443D01*
X0107111Y0112259D02*
X0094298Y0112259D01*
X0095067Y0111061D02*
X0107111Y0111061D01*
X0107111Y0109862D02*
X0095383Y0109862D01*
X0095363Y0108664D02*
X0107111Y0108664D01*
X0107111Y0107465D02*
X0095002Y0107465D01*
X0094171Y0106267D02*
X0107111Y0106267D01*
X0088426Y0106267D02*
X0087626Y0106267D01*
X0087626Y0107465D02*
X0088426Y0107465D01*
X0088426Y0108664D02*
X0087626Y0108664D01*
X0087626Y0109862D02*
X0088426Y0109862D01*
X0088426Y0111061D02*
X0087626Y0111061D01*
X0087626Y0112259D02*
X0088426Y0112259D01*
X0088426Y0113458D02*
X0087626Y0113458D01*
X0082572Y0115855D02*
X0071116Y0115855D01*
X0064148Y0102671D02*
X0054818Y0102671D01*
X0055343Y0101473D02*
X0063623Y0101473D01*
X0062839Y0083495D02*
X0107111Y0083495D01*
X0107111Y0082297D02*
X0062839Y0082297D01*
X0058326Y0066198D02*
X0058326Y0066198D01*
X0034941Y0033158D02*
X0084025Y0033158D01*
X0083092Y0031959D02*
X0035874Y0031959D01*
X0036362Y0030761D02*
X0082603Y0030761D01*
X0082603Y0029562D02*
X0036362Y0029562D01*
X0036362Y0028364D02*
X0082603Y0028364D01*
X0082603Y0027165D02*
X0036362Y0027165D01*
X0036362Y0025967D02*
X0082603Y0025967D01*
X0082603Y0024768D02*
X0036362Y0024768D01*
X0036362Y0023570D02*
X0082603Y0023570D01*
X0082665Y0022371D02*
X0036301Y0022371D01*
X0035805Y0021173D02*
X0083161Y0021173D01*
X0090923Y0021173D02*
X0093104Y0021173D01*
X0091419Y0022371D02*
X0101365Y0022371D01*
X0104442Y0023570D02*
X0091481Y0023570D01*
X0091481Y0024768D02*
X0105703Y0024768D01*
X0106492Y0025967D02*
X0102638Y0025967D01*
X0102611Y0025940D02*
X0103500Y0026829D01*
X0103981Y0027990D01*
X0103981Y0029246D01*
X0103500Y0030408D01*
X0102611Y0031296D01*
X0101450Y0031777D01*
X0100193Y0031777D01*
X0099032Y0031296D01*
X0098143Y0030408D01*
X0097662Y0029246D01*
X0097662Y0027990D01*
X0098143Y0026829D01*
X0099032Y0025940D01*
X0100193Y0025459D01*
X0101450Y0025459D01*
X0102611Y0025940D01*
X0103639Y0027165D02*
X0106881Y0027165D01*
X0107091Y0028364D02*
X0103981Y0028364D01*
X0103850Y0029562D02*
X0107111Y0029562D01*
X0107111Y0030761D02*
X0103146Y0030761D01*
X0107111Y0031959D02*
X0090992Y0031959D01*
X0091481Y0030761D02*
X0098497Y0030761D01*
X0097793Y0029562D02*
X0091481Y0029562D01*
X0091481Y0028364D02*
X0097662Y0028364D01*
X0098004Y0027165D02*
X0091481Y0027165D01*
X0091481Y0025967D02*
X0099005Y0025967D01*
X0107111Y0033158D02*
X0090059Y0033158D01*
X0088426Y0105068D02*
X0087626Y0105068D01*
X0107111Y0150612D02*
X0011855Y0150612D01*
X0011855Y0151810D02*
X0107111Y0151810D01*
D21*
X0059483Y0095547D03*
X0054562Y0129996D03*
D22*
X0069325Y0140823D03*
D23*
X0059483Y0127665D02*
X0059483Y0116217D01*
M02*
