G75*
%MOIN*%
%OFA0B0*%
%FSLAX25Y25*%
%IPPOS*%
%LPD*%
%AMOC8*
5,1,8,0,0,1.08239X$1,22.5*
%
%ADD10C,0.00000*%
%ADD11C,0.00200*%
%ADD12C,0.01200*%
%ADD13C,0.00500*%
%ADD14C,0.00300*%
%ADD15C,0.00400*%
%ADD16C,0.00800*%
D10*
X0333000Y0239748D02*
X0333000Y0485811D01*
X0333005Y0486192D01*
X0333018Y0486572D01*
X0333041Y0486952D01*
X0333074Y0487331D01*
X0333115Y0487709D01*
X0333165Y0488086D01*
X0333225Y0488462D01*
X0333293Y0488837D01*
X0333371Y0489209D01*
X0333458Y0489580D01*
X0333553Y0489948D01*
X0333658Y0490314D01*
X0333771Y0490677D01*
X0333893Y0491038D01*
X0334023Y0491395D01*
X0334163Y0491749D01*
X0334310Y0492100D01*
X0334467Y0492447D01*
X0334631Y0492790D01*
X0334804Y0493129D01*
X0334985Y0493464D01*
X0335174Y0493795D01*
X0335371Y0494120D01*
X0335575Y0494441D01*
X0335788Y0494757D01*
X0336008Y0495067D01*
X0336235Y0495373D01*
X0336470Y0495672D01*
X0336712Y0495966D01*
X0336960Y0496254D01*
X0337216Y0496536D01*
X0337479Y0496811D01*
X0337748Y0497080D01*
X0338023Y0497343D01*
X0338305Y0497599D01*
X0338593Y0497847D01*
X0338887Y0498089D01*
X0339186Y0498324D01*
X0339492Y0498551D01*
X0339802Y0498771D01*
X0340118Y0498984D01*
X0340439Y0499188D01*
X0340764Y0499385D01*
X0341095Y0499574D01*
X0341430Y0499755D01*
X0341769Y0499928D01*
X0342112Y0500092D01*
X0342459Y0500249D01*
X0342810Y0500396D01*
X0343164Y0500536D01*
X0343521Y0500666D01*
X0343882Y0500788D01*
X0344245Y0500901D01*
X0344611Y0501006D01*
X0344979Y0501101D01*
X0345350Y0501188D01*
X0345722Y0501266D01*
X0346097Y0501334D01*
X0346473Y0501394D01*
X0346850Y0501444D01*
X0347228Y0501485D01*
X0347607Y0501518D01*
X0347987Y0501541D01*
X0348367Y0501554D01*
X0348748Y0501559D01*
X0651898Y0501559D01*
X0652279Y0501554D01*
X0652659Y0501541D01*
X0653039Y0501518D01*
X0653418Y0501485D01*
X0653796Y0501444D01*
X0654173Y0501394D01*
X0654549Y0501334D01*
X0654924Y0501266D01*
X0655296Y0501188D01*
X0655667Y0501101D01*
X0656035Y0501006D01*
X0656401Y0500901D01*
X0656764Y0500788D01*
X0657125Y0500666D01*
X0657482Y0500536D01*
X0657836Y0500396D01*
X0658187Y0500249D01*
X0658534Y0500092D01*
X0658877Y0499928D01*
X0659216Y0499755D01*
X0659551Y0499574D01*
X0659882Y0499385D01*
X0660207Y0499188D01*
X0660528Y0498984D01*
X0660844Y0498771D01*
X0661154Y0498551D01*
X0661460Y0498324D01*
X0661759Y0498089D01*
X0662053Y0497847D01*
X0662341Y0497599D01*
X0662623Y0497343D01*
X0662898Y0497080D01*
X0663167Y0496811D01*
X0663430Y0496536D01*
X0663686Y0496254D01*
X0663934Y0495966D01*
X0664176Y0495672D01*
X0664411Y0495373D01*
X0664638Y0495067D01*
X0664858Y0494757D01*
X0665071Y0494441D01*
X0665275Y0494120D01*
X0665472Y0493795D01*
X0665661Y0493464D01*
X0665842Y0493129D01*
X0666015Y0492790D01*
X0666179Y0492447D01*
X0666336Y0492100D01*
X0666483Y0491749D01*
X0666623Y0491395D01*
X0666753Y0491038D01*
X0666875Y0490677D01*
X0666988Y0490314D01*
X0667093Y0489948D01*
X0667188Y0489580D01*
X0667275Y0489209D01*
X0667353Y0488837D01*
X0667421Y0488462D01*
X0667481Y0488086D01*
X0667531Y0487709D01*
X0667572Y0487331D01*
X0667605Y0486952D01*
X0667628Y0486572D01*
X0667641Y0486192D01*
X0667646Y0485811D01*
X0667646Y0400874D01*
X0667644Y0400684D01*
X0667637Y0400494D01*
X0667625Y0400304D01*
X0667609Y0400114D01*
X0667589Y0399925D01*
X0667563Y0399736D01*
X0667534Y0399548D01*
X0667499Y0399361D01*
X0667460Y0399175D01*
X0667417Y0398990D01*
X0667369Y0398805D01*
X0667317Y0398622D01*
X0667261Y0398441D01*
X0667200Y0398261D01*
X0667134Y0398082D01*
X0667065Y0397905D01*
X0666991Y0397729D01*
X0666913Y0397556D01*
X0666830Y0397384D01*
X0666744Y0397215D01*
X0666654Y0397047D01*
X0666559Y0396882D01*
X0666461Y0396719D01*
X0666358Y0396559D01*
X0666252Y0396401D01*
X0666142Y0396246D01*
X0666029Y0396093D01*
X0665911Y0395943D01*
X0665790Y0395797D01*
X0665666Y0395653D01*
X0665538Y0395512D01*
X0665407Y0395374D01*
X0665272Y0395239D01*
X0665134Y0395108D01*
X0664993Y0394980D01*
X0664849Y0394856D01*
X0664703Y0394735D01*
X0664553Y0394617D01*
X0664400Y0394504D01*
X0664245Y0394394D01*
X0664087Y0394288D01*
X0663927Y0394185D01*
X0663764Y0394087D01*
X0663599Y0393992D01*
X0663431Y0393902D01*
X0663262Y0393816D01*
X0663090Y0393733D01*
X0662917Y0393655D01*
X0662741Y0393581D01*
X0662564Y0393512D01*
X0662385Y0393446D01*
X0662205Y0393385D01*
X0662024Y0393329D01*
X0661841Y0393277D01*
X0661656Y0393229D01*
X0661471Y0393186D01*
X0661285Y0393147D01*
X0661098Y0393112D01*
X0660910Y0393083D01*
X0660721Y0393057D01*
X0660532Y0393037D01*
X0660342Y0393021D01*
X0660152Y0393009D01*
X0659962Y0393002D01*
X0659772Y0393000D01*
X0631000Y0393000D01*
X0631000Y0323000D01*
X0659772Y0323000D01*
X0659962Y0322998D01*
X0660152Y0322991D01*
X0660342Y0322979D01*
X0660532Y0322963D01*
X0660721Y0322943D01*
X0660910Y0322917D01*
X0661098Y0322888D01*
X0661285Y0322853D01*
X0661471Y0322814D01*
X0661656Y0322771D01*
X0661841Y0322723D01*
X0662024Y0322671D01*
X0662205Y0322615D01*
X0662385Y0322554D01*
X0662564Y0322488D01*
X0662741Y0322419D01*
X0662917Y0322345D01*
X0663090Y0322267D01*
X0663262Y0322184D01*
X0663431Y0322098D01*
X0663599Y0322008D01*
X0663764Y0321913D01*
X0663927Y0321815D01*
X0664087Y0321712D01*
X0664245Y0321606D01*
X0664400Y0321496D01*
X0664553Y0321383D01*
X0664703Y0321265D01*
X0664849Y0321144D01*
X0664993Y0321020D01*
X0665134Y0320892D01*
X0665272Y0320761D01*
X0665407Y0320626D01*
X0665538Y0320488D01*
X0665666Y0320347D01*
X0665790Y0320203D01*
X0665911Y0320057D01*
X0666029Y0319907D01*
X0666142Y0319754D01*
X0666252Y0319599D01*
X0666358Y0319441D01*
X0666461Y0319281D01*
X0666559Y0319118D01*
X0666654Y0318953D01*
X0666744Y0318785D01*
X0666830Y0318616D01*
X0666913Y0318444D01*
X0666991Y0318271D01*
X0667065Y0318095D01*
X0667134Y0317918D01*
X0667200Y0317739D01*
X0667261Y0317559D01*
X0667317Y0317378D01*
X0667369Y0317195D01*
X0667417Y0317010D01*
X0667460Y0316825D01*
X0667499Y0316639D01*
X0667534Y0316452D01*
X0667563Y0316264D01*
X0667589Y0316075D01*
X0667609Y0315886D01*
X0667625Y0315696D01*
X0667637Y0315506D01*
X0667644Y0315316D01*
X0667646Y0315126D01*
X0667646Y0239748D01*
X0667641Y0239367D01*
X0667628Y0238987D01*
X0667605Y0238607D01*
X0667572Y0238228D01*
X0667531Y0237850D01*
X0667481Y0237473D01*
X0667421Y0237097D01*
X0667353Y0236722D01*
X0667275Y0236350D01*
X0667188Y0235979D01*
X0667093Y0235611D01*
X0666988Y0235245D01*
X0666875Y0234882D01*
X0666753Y0234521D01*
X0666623Y0234164D01*
X0666483Y0233810D01*
X0666336Y0233459D01*
X0666179Y0233112D01*
X0666015Y0232769D01*
X0665842Y0232430D01*
X0665661Y0232095D01*
X0665472Y0231764D01*
X0665275Y0231439D01*
X0665071Y0231118D01*
X0664858Y0230802D01*
X0664638Y0230492D01*
X0664411Y0230186D01*
X0664176Y0229887D01*
X0663934Y0229593D01*
X0663686Y0229305D01*
X0663430Y0229023D01*
X0663167Y0228748D01*
X0662898Y0228479D01*
X0662623Y0228216D01*
X0662341Y0227960D01*
X0662053Y0227712D01*
X0661759Y0227470D01*
X0661460Y0227235D01*
X0661154Y0227008D01*
X0660844Y0226788D01*
X0660528Y0226575D01*
X0660207Y0226371D01*
X0659882Y0226174D01*
X0659551Y0225985D01*
X0659216Y0225804D01*
X0658877Y0225631D01*
X0658534Y0225467D01*
X0658187Y0225310D01*
X0657836Y0225163D01*
X0657482Y0225023D01*
X0657125Y0224893D01*
X0656764Y0224771D01*
X0656401Y0224658D01*
X0656035Y0224553D01*
X0655667Y0224458D01*
X0655296Y0224371D01*
X0654924Y0224293D01*
X0654549Y0224225D01*
X0654173Y0224165D01*
X0653796Y0224115D01*
X0653418Y0224074D01*
X0653039Y0224041D01*
X0652659Y0224018D01*
X0652279Y0224005D01*
X0651898Y0224000D01*
X0348748Y0224000D01*
X0348367Y0224005D01*
X0347987Y0224018D01*
X0347607Y0224041D01*
X0347228Y0224074D01*
X0346850Y0224115D01*
X0346473Y0224165D01*
X0346097Y0224225D01*
X0345722Y0224293D01*
X0345350Y0224371D01*
X0344979Y0224458D01*
X0344611Y0224553D01*
X0344245Y0224658D01*
X0343882Y0224771D01*
X0343521Y0224893D01*
X0343164Y0225023D01*
X0342810Y0225163D01*
X0342459Y0225310D01*
X0342112Y0225467D01*
X0341769Y0225631D01*
X0341430Y0225804D01*
X0341095Y0225985D01*
X0340764Y0226174D01*
X0340439Y0226371D01*
X0340118Y0226575D01*
X0339802Y0226788D01*
X0339492Y0227008D01*
X0339186Y0227235D01*
X0338887Y0227470D01*
X0338593Y0227712D01*
X0338305Y0227960D01*
X0338023Y0228216D01*
X0337748Y0228479D01*
X0337479Y0228748D01*
X0337216Y0229023D01*
X0336960Y0229305D01*
X0336712Y0229593D01*
X0336470Y0229887D01*
X0336235Y0230186D01*
X0336008Y0230492D01*
X0335788Y0230802D01*
X0335575Y0231118D01*
X0335371Y0231439D01*
X0335174Y0231764D01*
X0334985Y0232095D01*
X0334804Y0232430D01*
X0334631Y0232769D01*
X0334467Y0233112D01*
X0334310Y0233459D01*
X0334163Y0233810D01*
X0334023Y0234164D01*
X0333893Y0234521D01*
X0333771Y0234882D01*
X0333658Y0235245D01*
X0333553Y0235611D01*
X0333458Y0235979D01*
X0333371Y0236350D01*
X0333293Y0236722D01*
X0333225Y0237097D01*
X0333165Y0237473D01*
X0333115Y0237850D01*
X0333074Y0238228D01*
X0333041Y0238607D01*
X0333018Y0238987D01*
X0333005Y0239367D01*
X0333000Y0239748D01*
X0432724Y0244000D02*
X0432726Y0244088D01*
X0432732Y0244176D01*
X0432742Y0244264D01*
X0432756Y0244352D01*
X0432773Y0244438D01*
X0432795Y0244524D01*
X0432820Y0244608D01*
X0432850Y0244692D01*
X0432882Y0244774D01*
X0432919Y0244854D01*
X0432959Y0244933D01*
X0433003Y0245010D01*
X0433050Y0245085D01*
X0433100Y0245157D01*
X0433154Y0245228D01*
X0433210Y0245295D01*
X0433270Y0245361D01*
X0433332Y0245423D01*
X0433398Y0245483D01*
X0433465Y0245539D01*
X0433536Y0245593D01*
X0433608Y0245643D01*
X0433683Y0245690D01*
X0433760Y0245734D01*
X0433839Y0245774D01*
X0433919Y0245811D01*
X0434001Y0245843D01*
X0434085Y0245873D01*
X0434169Y0245898D01*
X0434255Y0245920D01*
X0434341Y0245937D01*
X0434429Y0245951D01*
X0434517Y0245961D01*
X0434605Y0245967D01*
X0434693Y0245969D01*
X0434781Y0245967D01*
X0434869Y0245961D01*
X0434957Y0245951D01*
X0435045Y0245937D01*
X0435131Y0245920D01*
X0435217Y0245898D01*
X0435301Y0245873D01*
X0435385Y0245843D01*
X0435467Y0245811D01*
X0435547Y0245774D01*
X0435626Y0245734D01*
X0435703Y0245690D01*
X0435778Y0245643D01*
X0435850Y0245593D01*
X0435921Y0245539D01*
X0435988Y0245483D01*
X0436054Y0245423D01*
X0436116Y0245361D01*
X0436176Y0245295D01*
X0436232Y0245228D01*
X0436286Y0245157D01*
X0436336Y0245085D01*
X0436383Y0245010D01*
X0436427Y0244933D01*
X0436467Y0244854D01*
X0436504Y0244774D01*
X0436536Y0244692D01*
X0436566Y0244608D01*
X0436591Y0244524D01*
X0436613Y0244438D01*
X0436630Y0244352D01*
X0436644Y0244264D01*
X0436654Y0244176D01*
X0436660Y0244088D01*
X0436662Y0244000D01*
X0436660Y0243912D01*
X0436654Y0243824D01*
X0436644Y0243736D01*
X0436630Y0243648D01*
X0436613Y0243562D01*
X0436591Y0243476D01*
X0436566Y0243392D01*
X0436536Y0243308D01*
X0436504Y0243226D01*
X0436467Y0243146D01*
X0436427Y0243067D01*
X0436383Y0242990D01*
X0436336Y0242915D01*
X0436286Y0242843D01*
X0436232Y0242772D01*
X0436176Y0242705D01*
X0436116Y0242639D01*
X0436054Y0242577D01*
X0435988Y0242517D01*
X0435921Y0242461D01*
X0435850Y0242407D01*
X0435778Y0242357D01*
X0435703Y0242310D01*
X0435626Y0242266D01*
X0435547Y0242226D01*
X0435467Y0242189D01*
X0435385Y0242157D01*
X0435301Y0242127D01*
X0435217Y0242102D01*
X0435131Y0242080D01*
X0435045Y0242063D01*
X0434957Y0242049D01*
X0434869Y0242039D01*
X0434781Y0242033D01*
X0434693Y0242031D01*
X0434605Y0242033D01*
X0434517Y0242039D01*
X0434429Y0242049D01*
X0434341Y0242063D01*
X0434255Y0242080D01*
X0434169Y0242102D01*
X0434085Y0242127D01*
X0434001Y0242157D01*
X0433919Y0242189D01*
X0433839Y0242226D01*
X0433760Y0242266D01*
X0433683Y0242310D01*
X0433608Y0242357D01*
X0433536Y0242407D01*
X0433465Y0242461D01*
X0433398Y0242517D01*
X0433332Y0242577D01*
X0433270Y0242639D01*
X0433210Y0242705D01*
X0433154Y0242772D01*
X0433100Y0242843D01*
X0433050Y0242915D01*
X0433003Y0242990D01*
X0432959Y0243067D01*
X0432919Y0243146D01*
X0432882Y0243226D01*
X0432850Y0243308D01*
X0432820Y0243392D01*
X0432795Y0243476D01*
X0432773Y0243562D01*
X0432756Y0243648D01*
X0432742Y0243736D01*
X0432732Y0243824D01*
X0432726Y0243912D01*
X0432724Y0244000D01*
X0519338Y0244000D02*
X0519340Y0244088D01*
X0519346Y0244176D01*
X0519356Y0244264D01*
X0519370Y0244352D01*
X0519387Y0244438D01*
X0519409Y0244524D01*
X0519434Y0244608D01*
X0519464Y0244692D01*
X0519496Y0244774D01*
X0519533Y0244854D01*
X0519573Y0244933D01*
X0519617Y0245010D01*
X0519664Y0245085D01*
X0519714Y0245157D01*
X0519768Y0245228D01*
X0519824Y0245295D01*
X0519884Y0245361D01*
X0519946Y0245423D01*
X0520012Y0245483D01*
X0520079Y0245539D01*
X0520150Y0245593D01*
X0520222Y0245643D01*
X0520297Y0245690D01*
X0520374Y0245734D01*
X0520453Y0245774D01*
X0520533Y0245811D01*
X0520615Y0245843D01*
X0520699Y0245873D01*
X0520783Y0245898D01*
X0520869Y0245920D01*
X0520955Y0245937D01*
X0521043Y0245951D01*
X0521131Y0245961D01*
X0521219Y0245967D01*
X0521307Y0245969D01*
X0521395Y0245967D01*
X0521483Y0245961D01*
X0521571Y0245951D01*
X0521659Y0245937D01*
X0521745Y0245920D01*
X0521831Y0245898D01*
X0521915Y0245873D01*
X0521999Y0245843D01*
X0522081Y0245811D01*
X0522161Y0245774D01*
X0522240Y0245734D01*
X0522317Y0245690D01*
X0522392Y0245643D01*
X0522464Y0245593D01*
X0522535Y0245539D01*
X0522602Y0245483D01*
X0522668Y0245423D01*
X0522730Y0245361D01*
X0522790Y0245295D01*
X0522846Y0245228D01*
X0522900Y0245157D01*
X0522950Y0245085D01*
X0522997Y0245010D01*
X0523041Y0244933D01*
X0523081Y0244854D01*
X0523118Y0244774D01*
X0523150Y0244692D01*
X0523180Y0244608D01*
X0523205Y0244524D01*
X0523227Y0244438D01*
X0523244Y0244352D01*
X0523258Y0244264D01*
X0523268Y0244176D01*
X0523274Y0244088D01*
X0523276Y0244000D01*
X0523274Y0243912D01*
X0523268Y0243824D01*
X0523258Y0243736D01*
X0523244Y0243648D01*
X0523227Y0243562D01*
X0523205Y0243476D01*
X0523180Y0243392D01*
X0523150Y0243308D01*
X0523118Y0243226D01*
X0523081Y0243146D01*
X0523041Y0243067D01*
X0522997Y0242990D01*
X0522950Y0242915D01*
X0522900Y0242843D01*
X0522846Y0242772D01*
X0522790Y0242705D01*
X0522730Y0242639D01*
X0522668Y0242577D01*
X0522602Y0242517D01*
X0522535Y0242461D01*
X0522464Y0242407D01*
X0522392Y0242357D01*
X0522317Y0242310D01*
X0522240Y0242266D01*
X0522161Y0242226D01*
X0522081Y0242189D01*
X0521999Y0242157D01*
X0521915Y0242127D01*
X0521831Y0242102D01*
X0521745Y0242080D01*
X0521659Y0242063D01*
X0521571Y0242049D01*
X0521483Y0242039D01*
X0521395Y0242033D01*
X0521307Y0242031D01*
X0521219Y0242033D01*
X0521131Y0242039D01*
X0521043Y0242049D01*
X0520955Y0242063D01*
X0520869Y0242080D01*
X0520783Y0242102D01*
X0520699Y0242127D01*
X0520615Y0242157D01*
X0520533Y0242189D01*
X0520453Y0242226D01*
X0520374Y0242266D01*
X0520297Y0242310D01*
X0520222Y0242357D01*
X0520150Y0242407D01*
X0520079Y0242461D01*
X0520012Y0242517D01*
X0519946Y0242577D01*
X0519884Y0242639D01*
X0519824Y0242705D01*
X0519768Y0242772D01*
X0519714Y0242843D01*
X0519664Y0242915D01*
X0519617Y0242990D01*
X0519573Y0243067D01*
X0519533Y0243146D01*
X0519496Y0243226D01*
X0519464Y0243308D01*
X0519434Y0243392D01*
X0519409Y0243476D01*
X0519387Y0243562D01*
X0519370Y0243648D01*
X0519356Y0243736D01*
X0519346Y0243824D01*
X0519340Y0243912D01*
X0519338Y0244000D01*
X0600602Y0336000D02*
X0600604Y0336160D01*
X0600610Y0336319D01*
X0600620Y0336478D01*
X0600634Y0336637D01*
X0600652Y0336796D01*
X0600673Y0336954D01*
X0600699Y0337111D01*
X0600729Y0337268D01*
X0600762Y0337424D01*
X0600800Y0337579D01*
X0600841Y0337733D01*
X0600886Y0337886D01*
X0600935Y0338038D01*
X0600988Y0338188D01*
X0601044Y0338337D01*
X0601104Y0338485D01*
X0601168Y0338631D01*
X0601236Y0338776D01*
X0601307Y0338919D01*
X0601381Y0339060D01*
X0601459Y0339199D01*
X0601541Y0339336D01*
X0601626Y0339471D01*
X0601714Y0339604D01*
X0601805Y0339735D01*
X0601900Y0339863D01*
X0601998Y0339989D01*
X0602099Y0340113D01*
X0602203Y0340233D01*
X0602310Y0340352D01*
X0602420Y0340467D01*
X0602533Y0340580D01*
X0602648Y0340690D01*
X0602767Y0340797D01*
X0602887Y0340901D01*
X0603011Y0341002D01*
X0603137Y0341100D01*
X0603265Y0341195D01*
X0603396Y0341286D01*
X0603529Y0341374D01*
X0603664Y0341459D01*
X0603801Y0341541D01*
X0603940Y0341619D01*
X0604081Y0341693D01*
X0604224Y0341764D01*
X0604369Y0341832D01*
X0604515Y0341896D01*
X0604663Y0341956D01*
X0604812Y0342012D01*
X0604962Y0342065D01*
X0605114Y0342114D01*
X0605267Y0342159D01*
X0605421Y0342200D01*
X0605576Y0342238D01*
X0605732Y0342271D01*
X0605889Y0342301D01*
X0606046Y0342327D01*
X0606204Y0342348D01*
X0606363Y0342366D01*
X0606522Y0342380D01*
X0606681Y0342390D01*
X0606840Y0342396D01*
X0607000Y0342398D01*
X0607160Y0342396D01*
X0607319Y0342390D01*
X0607478Y0342380D01*
X0607637Y0342366D01*
X0607796Y0342348D01*
X0607954Y0342327D01*
X0608111Y0342301D01*
X0608268Y0342271D01*
X0608424Y0342238D01*
X0608579Y0342200D01*
X0608733Y0342159D01*
X0608886Y0342114D01*
X0609038Y0342065D01*
X0609188Y0342012D01*
X0609337Y0341956D01*
X0609485Y0341896D01*
X0609631Y0341832D01*
X0609776Y0341764D01*
X0609919Y0341693D01*
X0610060Y0341619D01*
X0610199Y0341541D01*
X0610336Y0341459D01*
X0610471Y0341374D01*
X0610604Y0341286D01*
X0610735Y0341195D01*
X0610863Y0341100D01*
X0610989Y0341002D01*
X0611113Y0340901D01*
X0611233Y0340797D01*
X0611352Y0340690D01*
X0611467Y0340580D01*
X0611580Y0340467D01*
X0611690Y0340352D01*
X0611797Y0340233D01*
X0611901Y0340113D01*
X0612002Y0339989D01*
X0612100Y0339863D01*
X0612195Y0339735D01*
X0612286Y0339604D01*
X0612374Y0339471D01*
X0612459Y0339336D01*
X0612541Y0339199D01*
X0612619Y0339060D01*
X0612693Y0338919D01*
X0612764Y0338776D01*
X0612832Y0338631D01*
X0612896Y0338485D01*
X0612956Y0338337D01*
X0613012Y0338188D01*
X0613065Y0338038D01*
X0613114Y0337886D01*
X0613159Y0337733D01*
X0613200Y0337579D01*
X0613238Y0337424D01*
X0613271Y0337268D01*
X0613301Y0337111D01*
X0613327Y0336954D01*
X0613348Y0336796D01*
X0613366Y0336637D01*
X0613380Y0336478D01*
X0613390Y0336319D01*
X0613396Y0336160D01*
X0613398Y0336000D01*
X0613396Y0335840D01*
X0613390Y0335681D01*
X0613380Y0335522D01*
X0613366Y0335363D01*
X0613348Y0335204D01*
X0613327Y0335046D01*
X0613301Y0334889D01*
X0613271Y0334732D01*
X0613238Y0334576D01*
X0613200Y0334421D01*
X0613159Y0334267D01*
X0613114Y0334114D01*
X0613065Y0333962D01*
X0613012Y0333812D01*
X0612956Y0333663D01*
X0612896Y0333515D01*
X0612832Y0333369D01*
X0612764Y0333224D01*
X0612693Y0333081D01*
X0612619Y0332940D01*
X0612541Y0332801D01*
X0612459Y0332664D01*
X0612374Y0332529D01*
X0612286Y0332396D01*
X0612195Y0332265D01*
X0612100Y0332137D01*
X0612002Y0332011D01*
X0611901Y0331887D01*
X0611797Y0331767D01*
X0611690Y0331648D01*
X0611580Y0331533D01*
X0611467Y0331420D01*
X0611352Y0331310D01*
X0611233Y0331203D01*
X0611113Y0331099D01*
X0610989Y0330998D01*
X0610863Y0330900D01*
X0610735Y0330805D01*
X0610604Y0330714D01*
X0610471Y0330626D01*
X0610336Y0330541D01*
X0610199Y0330459D01*
X0610060Y0330381D01*
X0609919Y0330307D01*
X0609776Y0330236D01*
X0609631Y0330168D01*
X0609485Y0330104D01*
X0609337Y0330044D01*
X0609188Y0329988D01*
X0609038Y0329935D01*
X0608886Y0329886D01*
X0608733Y0329841D01*
X0608579Y0329800D01*
X0608424Y0329762D01*
X0608268Y0329729D01*
X0608111Y0329699D01*
X0607954Y0329673D01*
X0607796Y0329652D01*
X0607637Y0329634D01*
X0607478Y0329620D01*
X0607319Y0329610D01*
X0607160Y0329604D01*
X0607000Y0329602D01*
X0606840Y0329604D01*
X0606681Y0329610D01*
X0606522Y0329620D01*
X0606363Y0329634D01*
X0606204Y0329652D01*
X0606046Y0329673D01*
X0605889Y0329699D01*
X0605732Y0329729D01*
X0605576Y0329762D01*
X0605421Y0329800D01*
X0605267Y0329841D01*
X0605114Y0329886D01*
X0604962Y0329935D01*
X0604812Y0329988D01*
X0604663Y0330044D01*
X0604515Y0330104D01*
X0604369Y0330168D01*
X0604224Y0330236D01*
X0604081Y0330307D01*
X0603940Y0330381D01*
X0603801Y0330459D01*
X0603664Y0330541D01*
X0603529Y0330626D01*
X0603396Y0330714D01*
X0603265Y0330805D01*
X0603137Y0330900D01*
X0603011Y0330998D01*
X0602887Y0331099D01*
X0602767Y0331203D01*
X0602648Y0331310D01*
X0602533Y0331420D01*
X0602420Y0331533D01*
X0602310Y0331648D01*
X0602203Y0331767D01*
X0602099Y0331887D01*
X0601998Y0332011D01*
X0601900Y0332137D01*
X0601805Y0332265D01*
X0601714Y0332396D01*
X0601626Y0332529D01*
X0601541Y0332664D01*
X0601459Y0332801D01*
X0601381Y0332940D01*
X0601307Y0333081D01*
X0601236Y0333224D01*
X0601168Y0333369D01*
X0601104Y0333515D01*
X0601044Y0333663D01*
X0600988Y0333812D01*
X0600935Y0333962D01*
X0600886Y0334114D01*
X0600841Y0334267D01*
X0600800Y0334421D01*
X0600762Y0334576D01*
X0600729Y0334732D01*
X0600699Y0334889D01*
X0600673Y0335046D01*
X0600652Y0335204D01*
X0600634Y0335363D01*
X0600620Y0335522D01*
X0600610Y0335681D01*
X0600604Y0335840D01*
X0600602Y0336000D01*
X0600602Y0381000D02*
X0600604Y0381160D01*
X0600610Y0381319D01*
X0600620Y0381478D01*
X0600634Y0381637D01*
X0600652Y0381796D01*
X0600673Y0381954D01*
X0600699Y0382111D01*
X0600729Y0382268D01*
X0600762Y0382424D01*
X0600800Y0382579D01*
X0600841Y0382733D01*
X0600886Y0382886D01*
X0600935Y0383038D01*
X0600988Y0383188D01*
X0601044Y0383337D01*
X0601104Y0383485D01*
X0601168Y0383631D01*
X0601236Y0383776D01*
X0601307Y0383919D01*
X0601381Y0384060D01*
X0601459Y0384199D01*
X0601541Y0384336D01*
X0601626Y0384471D01*
X0601714Y0384604D01*
X0601805Y0384735D01*
X0601900Y0384863D01*
X0601998Y0384989D01*
X0602099Y0385113D01*
X0602203Y0385233D01*
X0602310Y0385352D01*
X0602420Y0385467D01*
X0602533Y0385580D01*
X0602648Y0385690D01*
X0602767Y0385797D01*
X0602887Y0385901D01*
X0603011Y0386002D01*
X0603137Y0386100D01*
X0603265Y0386195D01*
X0603396Y0386286D01*
X0603529Y0386374D01*
X0603664Y0386459D01*
X0603801Y0386541D01*
X0603940Y0386619D01*
X0604081Y0386693D01*
X0604224Y0386764D01*
X0604369Y0386832D01*
X0604515Y0386896D01*
X0604663Y0386956D01*
X0604812Y0387012D01*
X0604962Y0387065D01*
X0605114Y0387114D01*
X0605267Y0387159D01*
X0605421Y0387200D01*
X0605576Y0387238D01*
X0605732Y0387271D01*
X0605889Y0387301D01*
X0606046Y0387327D01*
X0606204Y0387348D01*
X0606363Y0387366D01*
X0606522Y0387380D01*
X0606681Y0387390D01*
X0606840Y0387396D01*
X0607000Y0387398D01*
X0607160Y0387396D01*
X0607319Y0387390D01*
X0607478Y0387380D01*
X0607637Y0387366D01*
X0607796Y0387348D01*
X0607954Y0387327D01*
X0608111Y0387301D01*
X0608268Y0387271D01*
X0608424Y0387238D01*
X0608579Y0387200D01*
X0608733Y0387159D01*
X0608886Y0387114D01*
X0609038Y0387065D01*
X0609188Y0387012D01*
X0609337Y0386956D01*
X0609485Y0386896D01*
X0609631Y0386832D01*
X0609776Y0386764D01*
X0609919Y0386693D01*
X0610060Y0386619D01*
X0610199Y0386541D01*
X0610336Y0386459D01*
X0610471Y0386374D01*
X0610604Y0386286D01*
X0610735Y0386195D01*
X0610863Y0386100D01*
X0610989Y0386002D01*
X0611113Y0385901D01*
X0611233Y0385797D01*
X0611352Y0385690D01*
X0611467Y0385580D01*
X0611580Y0385467D01*
X0611690Y0385352D01*
X0611797Y0385233D01*
X0611901Y0385113D01*
X0612002Y0384989D01*
X0612100Y0384863D01*
X0612195Y0384735D01*
X0612286Y0384604D01*
X0612374Y0384471D01*
X0612459Y0384336D01*
X0612541Y0384199D01*
X0612619Y0384060D01*
X0612693Y0383919D01*
X0612764Y0383776D01*
X0612832Y0383631D01*
X0612896Y0383485D01*
X0612956Y0383337D01*
X0613012Y0383188D01*
X0613065Y0383038D01*
X0613114Y0382886D01*
X0613159Y0382733D01*
X0613200Y0382579D01*
X0613238Y0382424D01*
X0613271Y0382268D01*
X0613301Y0382111D01*
X0613327Y0381954D01*
X0613348Y0381796D01*
X0613366Y0381637D01*
X0613380Y0381478D01*
X0613390Y0381319D01*
X0613396Y0381160D01*
X0613398Y0381000D01*
X0613396Y0380840D01*
X0613390Y0380681D01*
X0613380Y0380522D01*
X0613366Y0380363D01*
X0613348Y0380204D01*
X0613327Y0380046D01*
X0613301Y0379889D01*
X0613271Y0379732D01*
X0613238Y0379576D01*
X0613200Y0379421D01*
X0613159Y0379267D01*
X0613114Y0379114D01*
X0613065Y0378962D01*
X0613012Y0378812D01*
X0612956Y0378663D01*
X0612896Y0378515D01*
X0612832Y0378369D01*
X0612764Y0378224D01*
X0612693Y0378081D01*
X0612619Y0377940D01*
X0612541Y0377801D01*
X0612459Y0377664D01*
X0612374Y0377529D01*
X0612286Y0377396D01*
X0612195Y0377265D01*
X0612100Y0377137D01*
X0612002Y0377011D01*
X0611901Y0376887D01*
X0611797Y0376767D01*
X0611690Y0376648D01*
X0611580Y0376533D01*
X0611467Y0376420D01*
X0611352Y0376310D01*
X0611233Y0376203D01*
X0611113Y0376099D01*
X0610989Y0375998D01*
X0610863Y0375900D01*
X0610735Y0375805D01*
X0610604Y0375714D01*
X0610471Y0375626D01*
X0610336Y0375541D01*
X0610199Y0375459D01*
X0610060Y0375381D01*
X0609919Y0375307D01*
X0609776Y0375236D01*
X0609631Y0375168D01*
X0609485Y0375104D01*
X0609337Y0375044D01*
X0609188Y0374988D01*
X0609038Y0374935D01*
X0608886Y0374886D01*
X0608733Y0374841D01*
X0608579Y0374800D01*
X0608424Y0374762D01*
X0608268Y0374729D01*
X0608111Y0374699D01*
X0607954Y0374673D01*
X0607796Y0374652D01*
X0607637Y0374634D01*
X0607478Y0374620D01*
X0607319Y0374610D01*
X0607160Y0374604D01*
X0607000Y0374602D01*
X0606840Y0374604D01*
X0606681Y0374610D01*
X0606522Y0374620D01*
X0606363Y0374634D01*
X0606204Y0374652D01*
X0606046Y0374673D01*
X0605889Y0374699D01*
X0605732Y0374729D01*
X0605576Y0374762D01*
X0605421Y0374800D01*
X0605267Y0374841D01*
X0605114Y0374886D01*
X0604962Y0374935D01*
X0604812Y0374988D01*
X0604663Y0375044D01*
X0604515Y0375104D01*
X0604369Y0375168D01*
X0604224Y0375236D01*
X0604081Y0375307D01*
X0603940Y0375381D01*
X0603801Y0375459D01*
X0603664Y0375541D01*
X0603529Y0375626D01*
X0603396Y0375714D01*
X0603265Y0375805D01*
X0603137Y0375900D01*
X0603011Y0375998D01*
X0602887Y0376099D01*
X0602767Y0376203D01*
X0602648Y0376310D01*
X0602533Y0376420D01*
X0602420Y0376533D01*
X0602310Y0376648D01*
X0602203Y0376767D01*
X0602099Y0376887D01*
X0601998Y0377011D01*
X0601900Y0377137D01*
X0601805Y0377265D01*
X0601714Y0377396D01*
X0601626Y0377529D01*
X0601541Y0377664D01*
X0601459Y0377801D01*
X0601381Y0377940D01*
X0601307Y0378081D01*
X0601236Y0378224D01*
X0601168Y0378369D01*
X0601104Y0378515D01*
X0601044Y0378663D01*
X0600988Y0378812D01*
X0600935Y0378962D01*
X0600886Y0379114D01*
X0600841Y0379267D01*
X0600800Y0379421D01*
X0600762Y0379576D01*
X0600729Y0379732D01*
X0600699Y0379889D01*
X0600673Y0380046D01*
X0600652Y0380204D01*
X0600634Y0380363D01*
X0600620Y0380522D01*
X0600610Y0380681D01*
X0600604Y0380840D01*
X0600602Y0381000D01*
D11*
X0575900Y0403600D02*
X0575900Y0405802D01*
X0574799Y0405802D01*
X0574432Y0405435D01*
X0574432Y0404701D01*
X0574799Y0404334D01*
X0575900Y0404334D01*
X0575166Y0404334D02*
X0574432Y0403600D01*
X0573690Y0403600D02*
X0572222Y0405068D01*
X0572222Y0405435D01*
X0572589Y0405802D01*
X0573323Y0405802D01*
X0573690Y0405435D01*
X0573690Y0403600D02*
X0572222Y0403600D01*
X0571480Y0403967D02*
X0571113Y0403600D01*
X0570379Y0403600D01*
X0570012Y0403967D01*
X0570012Y0405435D01*
X0570379Y0405802D01*
X0571113Y0405802D01*
X0571480Y0405435D01*
X0571480Y0405068D01*
X0571113Y0404701D01*
X0570012Y0404701D01*
X0570379Y0409100D02*
X0571113Y0409100D01*
X0571480Y0409467D01*
X0571480Y0409834D01*
X0571113Y0410201D01*
X0570379Y0410201D01*
X0570012Y0409834D01*
X0570012Y0409467D01*
X0570379Y0409100D01*
X0570379Y0410201D02*
X0570012Y0410568D01*
X0570012Y0410935D01*
X0570379Y0411302D01*
X0571113Y0411302D01*
X0571480Y0410935D01*
X0571480Y0410568D01*
X0571113Y0410201D01*
X0572222Y0410568D02*
X0572222Y0410935D01*
X0572589Y0411302D01*
X0573323Y0411302D01*
X0573690Y0410935D01*
X0574432Y0410935D02*
X0574432Y0410201D01*
X0574799Y0409834D01*
X0575900Y0409834D01*
X0575166Y0409834D02*
X0574432Y0409100D01*
X0573690Y0409100D02*
X0572222Y0410568D01*
X0572222Y0409100D02*
X0573690Y0409100D01*
X0574432Y0410935D02*
X0574799Y0411302D01*
X0575900Y0411302D01*
X0575900Y0409100D01*
X0575900Y0414600D02*
X0575900Y0416802D01*
X0574799Y0416802D01*
X0574432Y0416435D01*
X0574432Y0415701D01*
X0574799Y0415334D01*
X0575900Y0415334D01*
X0575166Y0415334D02*
X0574432Y0414600D01*
X0573690Y0414600D02*
X0572222Y0416068D01*
X0572222Y0416435D01*
X0572589Y0416802D01*
X0573323Y0416802D01*
X0573690Y0416435D01*
X0573690Y0414600D02*
X0572222Y0414600D01*
X0571480Y0414967D02*
X0571113Y0414600D01*
X0570379Y0414600D01*
X0570012Y0414967D01*
X0570012Y0415701D01*
X0570379Y0416068D01*
X0570746Y0416068D01*
X0571480Y0415701D01*
X0571480Y0416802D01*
X0570012Y0416802D01*
X0570379Y0420100D02*
X0570012Y0420467D01*
X0570012Y0420834D01*
X0570379Y0421201D01*
X0571480Y0421201D01*
X0571480Y0420467D01*
X0571113Y0420100D01*
X0570379Y0420100D01*
X0571480Y0421201D02*
X0570746Y0421935D01*
X0570012Y0422302D01*
X0572222Y0421935D02*
X0572589Y0422302D01*
X0573323Y0422302D01*
X0573690Y0421935D01*
X0574432Y0421935D02*
X0574432Y0421201D01*
X0574799Y0420834D01*
X0575900Y0420834D01*
X0575166Y0420834D02*
X0574432Y0420100D01*
X0573690Y0420100D02*
X0572222Y0421568D01*
X0572222Y0421935D01*
X0572222Y0420100D02*
X0573690Y0420100D01*
X0574432Y0421935D02*
X0574799Y0422302D01*
X0575900Y0422302D01*
X0575900Y0420100D01*
X0575900Y0425600D02*
X0575900Y0427802D01*
X0574799Y0427802D01*
X0574432Y0427435D01*
X0574432Y0426701D01*
X0574799Y0426334D01*
X0575900Y0426334D01*
X0575166Y0426334D02*
X0574432Y0425600D01*
X0573690Y0425600D02*
X0572222Y0427068D01*
X0572222Y0427435D01*
X0572589Y0427802D01*
X0573323Y0427802D01*
X0573690Y0427435D01*
X0573690Y0425600D02*
X0572222Y0425600D01*
X0571480Y0425600D02*
X0571480Y0425967D01*
X0570012Y0427435D01*
X0570012Y0427802D01*
X0571480Y0427802D01*
X0570302Y0444600D02*
X0570302Y0445701D01*
X0569935Y0446068D01*
X0569201Y0446068D01*
X0568834Y0445701D01*
X0568834Y0444600D01*
X0568834Y0445334D02*
X0568100Y0446068D01*
X0569201Y0446810D02*
X0569201Y0448278D01*
X0569568Y0449020D02*
X0570302Y0449754D01*
X0568100Y0449754D01*
X0568100Y0449020D02*
X0568100Y0450488D01*
X0568100Y0447911D02*
X0570302Y0447911D01*
X0569201Y0446810D01*
X0568100Y0444600D02*
X0570302Y0444600D01*
X0563302Y0444600D02*
X0563302Y0445701D01*
X0562935Y0446068D01*
X0562201Y0446068D01*
X0561834Y0445701D01*
X0561834Y0444600D01*
X0561834Y0445334D02*
X0561100Y0446068D01*
X0561100Y0446810D02*
X0562568Y0448278D01*
X0562935Y0448278D01*
X0563302Y0447911D01*
X0563302Y0447177D01*
X0562935Y0446810D01*
X0561100Y0446810D02*
X0561100Y0448278D01*
X0561100Y0449020D02*
X0562568Y0450488D01*
X0562935Y0450488D01*
X0563302Y0450121D01*
X0563302Y0449387D01*
X0562935Y0449020D01*
X0561100Y0449020D02*
X0561100Y0450488D01*
X0561100Y0444600D02*
X0563302Y0444600D01*
X0585512Y0444467D02*
X0585879Y0444100D01*
X0586613Y0444100D01*
X0586980Y0444467D01*
X0587722Y0444100D02*
X0589190Y0444100D01*
X0588456Y0444100D02*
X0588456Y0446302D01*
X0589190Y0445568D01*
X0589932Y0445935D02*
X0590299Y0446302D01*
X0591033Y0446302D01*
X0591400Y0445935D01*
X0591400Y0444467D01*
X0591033Y0444100D01*
X0590299Y0444100D01*
X0589932Y0444467D01*
X0586980Y0445935D02*
X0586613Y0446302D01*
X0585879Y0446302D01*
X0585512Y0445935D01*
X0585512Y0445568D01*
X0585879Y0445201D01*
X0585512Y0444834D01*
X0585512Y0444467D01*
X0585879Y0445201D02*
X0586246Y0445201D01*
X0608512Y0446935D02*
X0609980Y0445467D01*
X0609980Y0445100D01*
X0610722Y0445100D02*
X0612190Y0445100D01*
X0611456Y0445100D02*
X0611456Y0447302D01*
X0612190Y0446568D01*
X0612932Y0446935D02*
X0613299Y0447302D01*
X0614033Y0447302D01*
X0614400Y0446935D01*
X0614400Y0445467D01*
X0614033Y0445100D01*
X0613299Y0445100D01*
X0612932Y0445467D01*
X0609980Y0447302D02*
X0608512Y0447302D01*
X0608512Y0446935D01*
X0612717Y0498600D02*
X0612717Y0498967D01*
X0611249Y0500435D01*
X0611249Y0500802D01*
X0612717Y0500802D01*
X0613456Y0500802D02*
X0614190Y0500802D01*
X0613823Y0500802D02*
X0613823Y0498600D01*
X0614190Y0498600D02*
X0613456Y0498600D01*
X0615666Y0499701D02*
X0616400Y0499701D01*
X0616400Y0500802D02*
X0614932Y0500802D01*
X0616400Y0500802D02*
X0616400Y0498600D01*
X0502435Y0372488D02*
X0502802Y0372121D01*
X0502802Y0371387D01*
X0502435Y0371020D01*
X0502435Y0370278D02*
X0502802Y0369911D01*
X0502802Y0369177D01*
X0502435Y0368810D01*
X0502435Y0368068D02*
X0502802Y0367701D01*
X0502802Y0366967D01*
X0502435Y0366600D01*
X0500967Y0366600D01*
X0500600Y0366967D01*
X0500600Y0367701D01*
X0500967Y0368068D01*
X0500600Y0368810D02*
X0502068Y0370278D01*
X0502435Y0370278D01*
X0500600Y0370278D02*
X0500600Y0368810D01*
X0499802Y0369177D02*
X0499435Y0368810D01*
X0499802Y0369177D02*
X0499802Y0369911D01*
X0499435Y0370278D01*
X0499068Y0370278D01*
X0497600Y0368810D01*
X0497600Y0370278D01*
X0498701Y0371020D02*
X0498701Y0372488D01*
X0499802Y0372121D02*
X0498701Y0371020D01*
X0497600Y0372121D02*
X0499802Y0372121D01*
X0500600Y0372488D02*
X0500600Y0371020D01*
X0502068Y0372488D01*
X0502435Y0372488D01*
X0499435Y0368068D02*
X0499802Y0367701D01*
X0499802Y0366967D01*
X0499435Y0366600D01*
X0497967Y0366600D01*
X0497600Y0366967D01*
X0497600Y0367701D01*
X0497967Y0368068D01*
X0509642Y0338902D02*
X0509642Y0338535D01*
X0511110Y0337067D01*
X0511110Y0336700D01*
X0512219Y0336700D02*
X0512219Y0338902D01*
X0513320Y0337801D01*
X0511852Y0337801D01*
X0511110Y0338902D02*
X0509642Y0338902D01*
X0514062Y0338535D02*
X0514062Y0337801D01*
X0514429Y0337434D01*
X0515530Y0337434D01*
X0515530Y0336700D02*
X0515530Y0338902D01*
X0514429Y0338902D01*
X0514062Y0338535D01*
X0514796Y0337434D02*
X0514062Y0336700D01*
X0514429Y0333902D02*
X0515163Y0333902D01*
X0515530Y0333535D01*
X0515530Y0332067D01*
X0515163Y0331700D01*
X0514429Y0331700D01*
X0514062Y0332067D01*
X0513320Y0332067D02*
X0512953Y0331700D01*
X0512219Y0331700D01*
X0511852Y0332067D01*
X0511852Y0332434D01*
X0512219Y0332801D01*
X0512586Y0332801D01*
X0512219Y0332801D02*
X0511852Y0333168D01*
X0511852Y0333535D01*
X0512219Y0333902D01*
X0512953Y0333902D01*
X0513320Y0333535D01*
X0514062Y0333535D02*
X0514429Y0333902D01*
X0511110Y0333168D02*
X0510376Y0333902D01*
X0510376Y0331700D01*
X0511110Y0331700D02*
X0509642Y0331700D01*
X0502902Y0328991D02*
X0502902Y0328257D01*
X0502535Y0327890D01*
X0502168Y0327890D01*
X0501801Y0328257D01*
X0501801Y0329358D01*
X0502535Y0329358D02*
X0502902Y0328991D01*
X0502535Y0329358D02*
X0501067Y0329358D01*
X0500700Y0328991D01*
X0500700Y0328257D01*
X0501067Y0327890D01*
X0501067Y0327148D02*
X0500700Y0326781D01*
X0500700Y0326047D01*
X0501067Y0325680D01*
X0500700Y0324938D02*
X0501434Y0324204D01*
X0501434Y0324571D02*
X0501434Y0323470D01*
X0500700Y0323470D02*
X0502902Y0323470D01*
X0502902Y0324571D01*
X0502535Y0324938D01*
X0501801Y0324938D01*
X0501434Y0324571D01*
X0502535Y0325680D02*
X0502902Y0326047D01*
X0502902Y0326781D01*
X0502535Y0327148D01*
X0502168Y0327148D01*
X0501801Y0326781D01*
X0501434Y0327148D01*
X0501067Y0327148D01*
X0501801Y0326781D02*
X0501801Y0326414D01*
X0491533Y0308302D02*
X0491900Y0307935D01*
X0491900Y0306467D01*
X0491533Y0306100D01*
X0490799Y0306100D01*
X0490432Y0306467D01*
X0489690Y0306467D02*
X0489323Y0306100D01*
X0488589Y0306100D01*
X0488222Y0306467D01*
X0488222Y0306834D01*
X0488589Y0307201D01*
X0488956Y0307201D01*
X0488589Y0307201D02*
X0488222Y0307568D01*
X0488222Y0307935D01*
X0488589Y0308302D01*
X0489323Y0308302D01*
X0489690Y0307935D01*
X0490432Y0307935D02*
X0490799Y0308302D01*
X0491533Y0308302D01*
X0487480Y0307201D02*
X0486012Y0307201D01*
X0486379Y0308302D02*
X0487480Y0307201D01*
X0486379Y0306100D02*
X0486379Y0308302D01*
X0501100Y0297310D02*
X0501467Y0297310D01*
X0502935Y0298778D01*
X0503302Y0298778D01*
X0503302Y0297310D01*
X0502935Y0296568D02*
X0502201Y0296568D01*
X0501834Y0296201D01*
X0501834Y0295100D01*
X0501834Y0295834D02*
X0501100Y0296568D01*
X0501100Y0295100D02*
X0503302Y0295100D01*
X0503302Y0296201D01*
X0502935Y0296568D01*
X0507100Y0296568D02*
X0507834Y0295834D01*
X0507834Y0296201D02*
X0507834Y0295100D01*
X0507100Y0295100D02*
X0509302Y0295100D01*
X0509302Y0296201D01*
X0508935Y0296568D01*
X0508201Y0296568D01*
X0507834Y0296201D01*
X0507834Y0297310D02*
X0508201Y0297677D01*
X0508201Y0298411D01*
X0507834Y0298778D01*
X0507467Y0298778D01*
X0507100Y0298411D01*
X0507100Y0297677D01*
X0507467Y0297310D01*
X0507834Y0297310D01*
X0508201Y0297677D02*
X0508568Y0297310D01*
X0508935Y0297310D01*
X0509302Y0297677D01*
X0509302Y0298411D01*
X0508935Y0298778D01*
X0508568Y0298778D01*
X0508201Y0298411D01*
X0513100Y0298411D02*
X0513100Y0297677D01*
X0513467Y0297310D01*
X0514201Y0297310D02*
X0514568Y0298044D01*
X0514568Y0298411D01*
X0514201Y0298778D01*
X0513467Y0298778D01*
X0513100Y0298411D01*
X0514201Y0297310D02*
X0515302Y0297310D01*
X0515302Y0298778D01*
X0514935Y0296568D02*
X0514201Y0296568D01*
X0513834Y0296201D01*
X0513834Y0295100D01*
X0513834Y0295834D02*
X0513100Y0296568D01*
X0513100Y0295100D02*
X0515302Y0295100D01*
X0515302Y0296201D01*
X0514935Y0296568D01*
X0519100Y0296568D02*
X0519834Y0295834D01*
X0519834Y0296201D02*
X0519834Y0295100D01*
X0519100Y0295100D02*
X0521302Y0295100D01*
X0521302Y0296201D01*
X0520935Y0296568D01*
X0520201Y0296568D01*
X0519834Y0296201D01*
X0520201Y0297310D02*
X0520201Y0298411D01*
X0519834Y0298778D01*
X0519467Y0298778D01*
X0519100Y0298411D01*
X0519100Y0297677D01*
X0519467Y0297310D01*
X0520201Y0297310D01*
X0520935Y0298044D01*
X0521302Y0298778D01*
X0544512Y0299967D02*
X0544879Y0299600D01*
X0545613Y0299600D01*
X0545980Y0299967D01*
X0544512Y0301435D01*
X0544512Y0299967D01*
X0544512Y0301435D02*
X0544879Y0301802D01*
X0545613Y0301802D01*
X0545980Y0301435D01*
X0545980Y0299967D01*
X0546722Y0299600D02*
X0548190Y0299600D01*
X0547456Y0299600D02*
X0547456Y0301802D01*
X0548190Y0301068D01*
X0548932Y0301435D02*
X0549299Y0301802D01*
X0550033Y0301802D01*
X0550400Y0301435D01*
X0550400Y0299967D01*
X0550033Y0299600D01*
X0549299Y0299600D01*
X0548932Y0299967D01*
X0576642Y0296535D02*
X0577009Y0296902D01*
X0577743Y0296902D01*
X0578110Y0296535D01*
X0576642Y0296535D02*
X0576642Y0296168D01*
X0578110Y0294700D01*
X0576642Y0294700D01*
X0578852Y0294700D02*
X0580320Y0294700D01*
X0579586Y0294700D02*
X0579586Y0296902D01*
X0580320Y0296168D01*
X0581062Y0296535D02*
X0581062Y0295801D01*
X0581429Y0295434D01*
X0582530Y0295434D01*
X0582530Y0294700D02*
X0582530Y0296902D01*
X0581429Y0296902D01*
X0581062Y0296535D01*
X0581796Y0295434D02*
X0581062Y0294700D01*
X0581429Y0286902D02*
X0581062Y0286535D01*
X0581062Y0285801D01*
X0581429Y0285434D01*
X0582530Y0285434D01*
X0582530Y0284700D02*
X0582530Y0286902D01*
X0581429Y0286902D01*
X0580320Y0286168D02*
X0579586Y0286902D01*
X0579586Y0284700D01*
X0580320Y0284700D02*
X0578852Y0284700D01*
X0578110Y0285801D02*
X0576642Y0285801D01*
X0577009Y0286902D02*
X0578110Y0285801D01*
X0577009Y0284700D02*
X0577009Y0286902D01*
X0581062Y0284700D02*
X0581796Y0285434D01*
X0582530Y0304700D02*
X0582530Y0306902D01*
X0581429Y0306902D01*
X0581062Y0306535D01*
X0581062Y0305801D01*
X0581429Y0305434D01*
X0582530Y0305434D01*
X0581796Y0305434D02*
X0581062Y0304700D01*
X0580320Y0304700D02*
X0578852Y0304700D01*
X0579586Y0304700D02*
X0579586Y0306902D01*
X0580320Y0306168D01*
X0578110Y0306535D02*
X0578110Y0305067D01*
X0576642Y0306535D01*
X0576642Y0305067D01*
X0577009Y0304700D01*
X0577743Y0304700D01*
X0578110Y0305067D01*
X0578110Y0306535D02*
X0577743Y0306902D01*
X0577009Y0306902D01*
X0576642Y0306535D01*
X0577009Y0314700D02*
X0576642Y0315067D01*
X0576642Y0316535D01*
X0577009Y0316902D01*
X0577743Y0316902D01*
X0578110Y0316535D01*
X0578110Y0316168D01*
X0577743Y0315801D01*
X0576642Y0315801D01*
X0577009Y0314700D02*
X0577743Y0314700D01*
X0578110Y0315067D01*
X0578852Y0314700D02*
X0579586Y0315434D01*
X0579219Y0315434D02*
X0580320Y0315434D01*
X0580320Y0314700D02*
X0580320Y0316902D01*
X0579219Y0316902D01*
X0578852Y0316535D01*
X0578852Y0315801D01*
X0579219Y0315434D01*
X0532603Y0331109D02*
X0532603Y0333311D01*
X0531869Y0332577D01*
X0531135Y0333311D01*
X0531135Y0331109D01*
X0530393Y0331109D02*
X0528925Y0331109D01*
X0529659Y0331109D02*
X0529659Y0333311D01*
X0530393Y0332577D01*
X0527533Y0327302D02*
X0527900Y0326935D01*
X0527900Y0325467D01*
X0527533Y0325100D01*
X0526799Y0325100D01*
X0526432Y0325467D01*
X0525690Y0325467D02*
X0525690Y0325834D01*
X0525323Y0326201D01*
X0524589Y0326201D01*
X0524222Y0325834D01*
X0524222Y0325467D01*
X0524589Y0325100D01*
X0525323Y0325100D01*
X0525690Y0325467D01*
X0525323Y0326201D02*
X0525690Y0326568D01*
X0525690Y0326935D01*
X0525323Y0327302D01*
X0524589Y0327302D01*
X0524222Y0326935D01*
X0524222Y0326568D01*
X0524589Y0326201D01*
X0526432Y0326935D02*
X0526799Y0327302D01*
X0527533Y0327302D01*
X0459900Y0297302D02*
X0458799Y0297302D01*
X0458432Y0296935D01*
X0458432Y0296201D01*
X0458799Y0295834D01*
X0459900Y0295834D01*
X0459166Y0295834D02*
X0458432Y0295100D01*
X0457690Y0295467D02*
X0457323Y0295100D01*
X0456589Y0295100D01*
X0456222Y0295467D01*
X0456222Y0296201D01*
X0456589Y0296568D01*
X0456956Y0296568D01*
X0457690Y0296201D01*
X0457690Y0297302D01*
X0456222Y0297302D01*
X0455480Y0296935D02*
X0455113Y0297302D01*
X0454379Y0297302D01*
X0454012Y0296935D01*
X0454012Y0296568D01*
X0454379Y0296201D01*
X0454012Y0295834D01*
X0454012Y0295467D01*
X0454379Y0295100D01*
X0455113Y0295100D01*
X0455480Y0295467D01*
X0454746Y0296201D02*
X0454379Y0296201D01*
X0459900Y0295100D02*
X0459900Y0297302D01*
X0394302Y0280044D02*
X0392100Y0280044D01*
X0392100Y0279310D02*
X0392100Y0280778D01*
X0393568Y0279310D02*
X0394302Y0280044D01*
X0393935Y0278568D02*
X0394302Y0278201D01*
X0394302Y0277100D01*
X0392100Y0277100D01*
X0392100Y0278201D01*
X0392467Y0278568D01*
X0393935Y0278568D01*
X0350400Y0268802D02*
X0348932Y0268802D01*
X0348190Y0268802D02*
X0347456Y0268802D01*
X0347823Y0268802D02*
X0347823Y0266600D01*
X0348190Y0266600D02*
X0347456Y0266600D01*
X0346717Y0266967D02*
X0346350Y0266600D01*
X0345616Y0266600D01*
X0345249Y0266967D01*
X0345249Y0267701D01*
X0345616Y0268068D01*
X0345983Y0268068D01*
X0346717Y0267701D01*
X0346717Y0268802D01*
X0345249Y0268802D01*
X0349666Y0267701D02*
X0350400Y0267701D01*
X0350400Y0266600D02*
X0350400Y0268802D01*
X0344102Y0356890D02*
X0344102Y0357991D01*
X0343735Y0358358D01*
X0343368Y0358358D01*
X0343001Y0357991D01*
X0343001Y0356890D01*
X0341900Y0356890D02*
X0344102Y0356890D01*
X0343001Y0357991D02*
X0342634Y0358358D01*
X0342267Y0358358D01*
X0341900Y0357991D01*
X0341900Y0356890D01*
X0341900Y0359100D02*
X0341900Y0360568D01*
X0341900Y0359834D02*
X0344102Y0359834D01*
X0343368Y0359100D01*
X0337535Y0385180D02*
X0336067Y0385180D01*
X0335700Y0385547D01*
X0335700Y0386281D01*
X0336067Y0386648D01*
X0336801Y0387390D02*
X0336801Y0388858D01*
X0337902Y0388491D02*
X0336801Y0387390D01*
X0337535Y0386648D02*
X0337902Y0386281D01*
X0337902Y0385547D01*
X0337535Y0385180D01*
X0337902Y0388491D02*
X0335700Y0388491D01*
X0350222Y0414600D02*
X0351690Y0414600D01*
X0350222Y0416068D01*
X0350222Y0416435D01*
X0350589Y0416802D01*
X0351323Y0416802D01*
X0351690Y0416435D01*
X0352432Y0416435D02*
X0352432Y0415701D01*
X0352799Y0415334D01*
X0353900Y0415334D01*
X0353166Y0415334D02*
X0352432Y0414600D01*
X0353900Y0414600D02*
X0353900Y0416802D01*
X0352799Y0416802D01*
X0352432Y0416435D01*
X0371722Y0414600D02*
X0373190Y0414600D01*
X0372456Y0414600D02*
X0372456Y0416802D01*
X0373190Y0416068D01*
X0373932Y0416435D02*
X0374299Y0416802D01*
X0375033Y0416802D01*
X0375400Y0416435D01*
X0375400Y0414967D01*
X0375033Y0414600D01*
X0374299Y0414600D01*
X0373932Y0414967D01*
X0374299Y0413802D02*
X0375033Y0413802D01*
X0375400Y0413435D01*
X0375400Y0411967D01*
X0375033Y0411600D01*
X0374299Y0411600D01*
X0373932Y0411967D01*
X0373190Y0411600D02*
X0371722Y0413068D01*
X0371722Y0413435D01*
X0372089Y0413802D01*
X0372823Y0413802D01*
X0373190Y0413435D01*
X0373932Y0413435D02*
X0374299Y0413802D01*
X0373190Y0411600D02*
X0371722Y0411600D01*
X0351033Y0440100D02*
X0350299Y0440100D01*
X0349932Y0440467D01*
X0349190Y0440100D02*
X0347722Y0440100D01*
X0348456Y0440100D02*
X0348456Y0442302D01*
X0349190Y0441568D01*
X0349932Y0441935D02*
X0350299Y0442302D01*
X0351033Y0442302D01*
X0351400Y0441935D01*
X0351400Y0440467D01*
X0351033Y0440100D01*
X0346980Y0441201D02*
X0345879Y0442302D01*
X0345879Y0440100D01*
X0345512Y0441201D02*
X0346980Y0441201D01*
X0348379Y0449600D02*
X0348379Y0451802D01*
X0349480Y0450701D01*
X0348012Y0450701D01*
X0350222Y0451068D02*
X0350222Y0451435D01*
X0350589Y0451802D01*
X0351323Y0451802D01*
X0351690Y0451435D01*
X0352432Y0451435D02*
X0352432Y0450701D01*
X0352799Y0450334D01*
X0353900Y0450334D01*
X0353166Y0450334D02*
X0352432Y0449600D01*
X0351690Y0449600D02*
X0350222Y0451068D01*
X0350222Y0449600D02*
X0351690Y0449600D01*
X0352432Y0451435D02*
X0352799Y0451802D01*
X0353900Y0451802D01*
X0353900Y0449600D01*
X0369512Y0446100D02*
X0370980Y0446100D01*
X0370246Y0446100D02*
X0370246Y0448302D01*
X0370980Y0447568D01*
X0371722Y0446100D02*
X0373190Y0446100D01*
X0372456Y0446100D02*
X0372456Y0448302D01*
X0373190Y0447568D01*
X0373932Y0447935D02*
X0374299Y0448302D01*
X0375033Y0448302D01*
X0375400Y0447935D01*
X0375400Y0446467D01*
X0375033Y0446100D01*
X0374299Y0446100D01*
X0373932Y0446467D01*
X0374299Y0449600D02*
X0373932Y0449967D01*
X0374299Y0449600D02*
X0375033Y0449600D01*
X0375400Y0449967D01*
X0375400Y0451435D01*
X0375033Y0451802D01*
X0374299Y0451802D01*
X0373932Y0451435D01*
X0373190Y0451435D02*
X0373190Y0451068D01*
X0372823Y0450701D01*
X0371722Y0450701D01*
X0371722Y0451435D02*
X0372089Y0451802D01*
X0372823Y0451802D01*
X0373190Y0451435D01*
X0371722Y0451435D02*
X0371722Y0449967D01*
X0372089Y0449600D01*
X0372823Y0449600D01*
X0373190Y0449967D01*
X0370400Y0496600D02*
X0370400Y0498802D01*
X0368932Y0498802D01*
X0368190Y0498802D02*
X0367456Y0498802D01*
X0367823Y0498802D02*
X0367823Y0496600D01*
X0368190Y0496600D02*
X0367456Y0496600D01*
X0366717Y0496967D02*
X0366350Y0496600D01*
X0365616Y0496600D01*
X0365249Y0496967D01*
X0365249Y0497334D01*
X0365616Y0497701D01*
X0366717Y0497701D01*
X0366717Y0496967D01*
X0366717Y0497701D02*
X0365983Y0498435D01*
X0365249Y0498802D01*
X0369666Y0497701D02*
X0370400Y0497701D01*
X0534642Y0250902D02*
X0536110Y0250902D01*
X0536110Y0249801D01*
X0535376Y0250168D01*
X0535009Y0250168D01*
X0534642Y0249801D01*
X0534642Y0249067D01*
X0535009Y0248700D01*
X0535743Y0248700D01*
X0536110Y0249067D01*
X0536852Y0249067D02*
X0536852Y0249434D01*
X0537219Y0249801D01*
X0537586Y0249801D01*
X0537219Y0249801D02*
X0536852Y0250168D01*
X0536852Y0250535D01*
X0537219Y0250902D01*
X0537953Y0250902D01*
X0538320Y0250535D01*
X0539062Y0250535D02*
X0539429Y0250902D01*
X0540163Y0250902D01*
X0540530Y0250535D01*
X0540530Y0249067D01*
X0540163Y0248700D01*
X0539429Y0248700D01*
X0539062Y0249067D01*
X0538320Y0249067D02*
X0537953Y0248700D01*
X0537219Y0248700D01*
X0536852Y0249067D01*
X0508900Y0236935D02*
X0508900Y0235467D01*
X0508533Y0235100D01*
X0507799Y0235100D01*
X0507432Y0235467D01*
X0506690Y0235467D02*
X0506323Y0235100D01*
X0505589Y0235100D01*
X0505222Y0235467D01*
X0505222Y0235834D01*
X0505589Y0236201D01*
X0505956Y0236201D01*
X0505589Y0236201D02*
X0505222Y0236568D01*
X0505222Y0236935D01*
X0505589Y0237302D01*
X0506323Y0237302D01*
X0506690Y0236935D01*
X0507432Y0236935D02*
X0507799Y0237302D01*
X0508533Y0237302D01*
X0508900Y0236935D01*
X0504480Y0236201D02*
X0503379Y0236201D01*
X0503012Y0235834D01*
X0503012Y0235467D01*
X0503379Y0235100D01*
X0504113Y0235100D01*
X0504480Y0235467D01*
X0504480Y0236201D01*
X0503746Y0236935D01*
X0503012Y0237302D01*
X0625249Y0235435D02*
X0625249Y0235068D01*
X0625616Y0234701D01*
X0626350Y0234701D01*
X0626717Y0235068D01*
X0626717Y0235435D01*
X0626350Y0235802D01*
X0625616Y0235802D01*
X0625249Y0235435D01*
X0625616Y0234701D02*
X0625249Y0234334D01*
X0625249Y0233967D01*
X0625616Y0233600D01*
X0626350Y0233600D01*
X0626717Y0233967D01*
X0626717Y0234334D01*
X0626350Y0234701D01*
X0627456Y0235802D02*
X0628190Y0235802D01*
X0627823Y0235802D02*
X0627823Y0233600D01*
X0628190Y0233600D02*
X0627456Y0233600D01*
X0629666Y0234701D02*
X0630400Y0234701D01*
X0630400Y0233600D02*
X0630400Y0235802D01*
X0628932Y0235802D01*
D12*
X0379750Y0344950D02*
X0367800Y0333000D01*
X0344200Y0333000D01*
X0344046Y0333002D01*
X0343893Y0333008D01*
X0343740Y0333018D01*
X0343587Y0333032D01*
X0343434Y0333049D01*
X0343282Y0333071D01*
X0343130Y0333097D01*
X0342980Y0333126D01*
X0342830Y0333160D01*
X0342681Y0333197D01*
X0342533Y0333238D01*
X0342386Y0333283D01*
X0342240Y0333331D01*
X0342096Y0333384D01*
X0341953Y0333440D01*
X0341811Y0333499D01*
X0341671Y0333563D01*
X0341533Y0333630D01*
X0341396Y0333700D01*
X0341262Y0333774D01*
X0341129Y0333851D01*
X0340998Y0333932D01*
X0340870Y0334016D01*
X0340743Y0334104D01*
X0340619Y0334194D01*
X0340498Y0334288D01*
X0340378Y0334385D01*
X0340262Y0334485D01*
X0340148Y0334588D01*
X0340036Y0334694D01*
X0339928Y0334802D01*
X0339822Y0334914D01*
X0339719Y0335028D01*
X0339619Y0335144D01*
X0339522Y0335264D01*
X0339429Y0335385D01*
X0339338Y0335509D01*
X0339251Y0335636D01*
X0339166Y0335764D01*
X0339086Y0335895D01*
X0339008Y0336028D01*
X0338934Y0336162D01*
X0338864Y0336299D01*
X0338797Y0336437D01*
X0338734Y0336577D01*
X0338674Y0336719D01*
X0338618Y0336862D01*
X0338566Y0337006D01*
X0338517Y0337152D01*
X0338472Y0337299D01*
X0338431Y0337447D01*
X0338394Y0337596D01*
X0338361Y0337746D01*
X0338331Y0337897D01*
X0338306Y0338048D01*
X0338284Y0338200D01*
X0338267Y0338353D01*
X0338253Y0338506D01*
X0338243Y0338659D01*
X0338237Y0338813D01*
X0338235Y0338966D01*
X0338237Y0339120D01*
X0338243Y0339273D01*
X0338253Y0339427D01*
X0338267Y0339580D01*
X0338285Y0339732D01*
X0338306Y0339884D01*
X0338332Y0340036D01*
X0338361Y0340186D01*
X0338395Y0340336D01*
X0338432Y0340485D01*
X0338473Y0340633D01*
X0338518Y0340780D01*
X0338567Y0340926D01*
X0338619Y0341071D01*
X0338675Y0341214D01*
X0338735Y0341355D01*
X0338798Y0341495D01*
X0338865Y0341633D01*
X0338936Y0341770D01*
X0339010Y0341904D01*
X0339087Y0342037D01*
X0339168Y0342168D01*
X0339252Y0342296D01*
X0339339Y0342423D01*
X0339430Y0342547D01*
X0339524Y0342668D01*
X0339621Y0342787D01*
X0339721Y0342904D01*
X0339824Y0343018D01*
X0339929Y0343130D01*
X0340038Y0343238D01*
X0340149Y0343344D01*
X0340264Y0343447D01*
X0340380Y0343547D01*
X0340500Y0343643D01*
X0340621Y0343737D01*
X0340745Y0343828D01*
X0340872Y0343915D01*
X0341000Y0343999D01*
X0341000Y0344000D02*
X0341347Y0344459D01*
X0341683Y0344927D01*
X0342007Y0345402D01*
X0342320Y0345885D01*
X0342621Y0346375D01*
X0342911Y0346873D01*
X0343188Y0347377D01*
X0343453Y0347888D01*
X0343705Y0348405D01*
X0343945Y0348929D01*
X0344173Y0349457D01*
X0344387Y0349991D01*
X0344589Y0350530D01*
X0344777Y0351074D01*
X0344953Y0351622D01*
X0345115Y0352175D01*
X0345264Y0352731D01*
X0345399Y0353290D01*
X0345521Y0353852D01*
X0345629Y0354418D01*
X0345724Y0354985D01*
X0345805Y0355555D01*
X0345872Y0356127D01*
X0345925Y0356700D01*
X0345965Y0357274D01*
X0345990Y0357849D01*
X0346002Y0358425D01*
X0346000Y0359000D01*
X0346002Y0359575D01*
X0345990Y0360151D01*
X0345965Y0360726D01*
X0345925Y0361300D01*
X0345872Y0361873D01*
X0345805Y0362445D01*
X0345724Y0363015D01*
X0345629Y0363582D01*
X0345521Y0364148D01*
X0345399Y0364710D01*
X0345264Y0365269D01*
X0345115Y0365825D01*
X0344953Y0366378D01*
X0344777Y0366926D01*
X0344589Y0367470D01*
X0344387Y0368009D01*
X0344173Y0368543D01*
X0343945Y0369071D01*
X0343705Y0369595D01*
X0343453Y0370112D01*
X0343188Y0370623D01*
X0342911Y0371127D01*
X0342621Y0371625D01*
X0342320Y0372115D01*
X0342007Y0372598D01*
X0341683Y0373073D01*
X0341347Y0373541D01*
X0341000Y0374000D01*
X0341000Y0374001D02*
X0340872Y0374085D01*
X0340745Y0374172D01*
X0340621Y0374263D01*
X0340500Y0374357D01*
X0340380Y0374453D01*
X0340264Y0374553D01*
X0340149Y0374656D01*
X0340038Y0374762D01*
X0339929Y0374870D01*
X0339824Y0374982D01*
X0339721Y0375096D01*
X0339621Y0375213D01*
X0339524Y0375332D01*
X0339430Y0375453D01*
X0339339Y0375577D01*
X0339252Y0375704D01*
X0339168Y0375832D01*
X0339087Y0375963D01*
X0339010Y0376096D01*
X0338936Y0376230D01*
X0338865Y0376367D01*
X0338798Y0376505D01*
X0338735Y0376645D01*
X0338675Y0376786D01*
X0338619Y0376929D01*
X0338567Y0377074D01*
X0338518Y0377220D01*
X0338473Y0377367D01*
X0338432Y0377515D01*
X0338395Y0377664D01*
X0338361Y0377814D01*
X0338332Y0377964D01*
X0338306Y0378116D01*
X0338285Y0378268D01*
X0338267Y0378420D01*
X0338253Y0378573D01*
X0338243Y0378727D01*
X0338237Y0378880D01*
X0338235Y0379034D01*
X0338237Y0379187D01*
X0338243Y0379341D01*
X0338253Y0379494D01*
X0338267Y0379647D01*
X0338284Y0379800D01*
X0338306Y0379952D01*
X0338331Y0380103D01*
X0338361Y0380254D01*
X0338394Y0380404D01*
X0338431Y0380553D01*
X0338472Y0380701D01*
X0338517Y0380848D01*
X0338566Y0380994D01*
X0338618Y0381138D01*
X0338674Y0381281D01*
X0338734Y0381423D01*
X0338797Y0381563D01*
X0338864Y0381701D01*
X0338934Y0381838D01*
X0339008Y0381972D01*
X0339086Y0382105D01*
X0339166Y0382236D01*
X0339251Y0382364D01*
X0339338Y0382491D01*
X0339429Y0382615D01*
X0339522Y0382736D01*
X0339619Y0382856D01*
X0339719Y0382972D01*
X0339822Y0383086D01*
X0339928Y0383198D01*
X0340036Y0383306D01*
X0340148Y0383412D01*
X0340262Y0383515D01*
X0340378Y0383615D01*
X0340498Y0383712D01*
X0340619Y0383806D01*
X0340743Y0383896D01*
X0340870Y0383984D01*
X0340998Y0384068D01*
X0341129Y0384149D01*
X0341262Y0384226D01*
X0341396Y0384300D01*
X0341533Y0384370D01*
X0341671Y0384437D01*
X0341811Y0384501D01*
X0341953Y0384560D01*
X0342096Y0384616D01*
X0342240Y0384669D01*
X0342386Y0384717D01*
X0342533Y0384762D01*
X0342681Y0384803D01*
X0342830Y0384840D01*
X0342980Y0384874D01*
X0343130Y0384903D01*
X0343282Y0384929D01*
X0343434Y0384951D01*
X0343587Y0384968D01*
X0343740Y0384982D01*
X0343893Y0384992D01*
X0344046Y0384998D01*
X0344200Y0385000D01*
X0367800Y0385000D01*
X0379750Y0373050D01*
X0379750Y0344950D01*
D13*
X0527496Y0337937D02*
X0527496Y0334000D01*
X0564504Y0334000D01*
X0564504Y0338724D01*
X0563323Y0334000D02*
X0528677Y0334000D01*
X0534188Y0339315D02*
X0534190Y0339403D01*
X0534196Y0339491D01*
X0534206Y0339579D01*
X0534220Y0339667D01*
X0534237Y0339753D01*
X0534259Y0339839D01*
X0534284Y0339923D01*
X0534314Y0340007D01*
X0534346Y0340089D01*
X0534383Y0340169D01*
X0534423Y0340248D01*
X0534467Y0340325D01*
X0534514Y0340400D01*
X0534564Y0340472D01*
X0534618Y0340543D01*
X0534674Y0340610D01*
X0534734Y0340676D01*
X0534796Y0340738D01*
X0534862Y0340798D01*
X0534929Y0340854D01*
X0535000Y0340908D01*
X0535072Y0340958D01*
X0535147Y0341005D01*
X0535224Y0341049D01*
X0535303Y0341089D01*
X0535383Y0341126D01*
X0535465Y0341158D01*
X0535549Y0341188D01*
X0535633Y0341213D01*
X0535719Y0341235D01*
X0535805Y0341252D01*
X0535893Y0341266D01*
X0535981Y0341276D01*
X0536069Y0341282D01*
X0536157Y0341284D01*
X0536245Y0341282D01*
X0536333Y0341276D01*
X0536421Y0341266D01*
X0536509Y0341252D01*
X0536595Y0341235D01*
X0536681Y0341213D01*
X0536765Y0341188D01*
X0536849Y0341158D01*
X0536931Y0341126D01*
X0537011Y0341089D01*
X0537090Y0341049D01*
X0537167Y0341005D01*
X0537242Y0340958D01*
X0537314Y0340908D01*
X0537385Y0340854D01*
X0537452Y0340798D01*
X0537518Y0340738D01*
X0537580Y0340676D01*
X0537640Y0340610D01*
X0537696Y0340543D01*
X0537750Y0340472D01*
X0537800Y0340400D01*
X0537847Y0340325D01*
X0537891Y0340248D01*
X0537931Y0340169D01*
X0537968Y0340089D01*
X0538000Y0340007D01*
X0538030Y0339923D01*
X0538055Y0339839D01*
X0538077Y0339753D01*
X0538094Y0339667D01*
X0538108Y0339579D01*
X0538118Y0339491D01*
X0538124Y0339403D01*
X0538126Y0339315D01*
X0538124Y0339227D01*
X0538118Y0339139D01*
X0538108Y0339051D01*
X0538094Y0338963D01*
X0538077Y0338877D01*
X0538055Y0338791D01*
X0538030Y0338707D01*
X0538000Y0338623D01*
X0537968Y0338541D01*
X0537931Y0338461D01*
X0537891Y0338382D01*
X0537847Y0338305D01*
X0537800Y0338230D01*
X0537750Y0338158D01*
X0537696Y0338087D01*
X0537640Y0338020D01*
X0537580Y0337954D01*
X0537518Y0337892D01*
X0537452Y0337832D01*
X0537385Y0337776D01*
X0537314Y0337722D01*
X0537242Y0337672D01*
X0537167Y0337625D01*
X0537090Y0337581D01*
X0537011Y0337541D01*
X0536931Y0337504D01*
X0536849Y0337472D01*
X0536765Y0337442D01*
X0536681Y0337417D01*
X0536595Y0337395D01*
X0536509Y0337378D01*
X0536421Y0337364D01*
X0536333Y0337354D01*
X0536245Y0337348D01*
X0536157Y0337346D01*
X0536069Y0337348D01*
X0535981Y0337354D01*
X0535893Y0337364D01*
X0535805Y0337378D01*
X0535719Y0337395D01*
X0535633Y0337417D01*
X0535549Y0337442D01*
X0535465Y0337472D01*
X0535383Y0337504D01*
X0535303Y0337541D01*
X0535224Y0337581D01*
X0535147Y0337625D01*
X0535072Y0337672D01*
X0535000Y0337722D01*
X0534929Y0337776D01*
X0534862Y0337832D01*
X0534796Y0337892D01*
X0534734Y0337954D01*
X0534674Y0338020D01*
X0534618Y0338087D01*
X0534564Y0338158D01*
X0534514Y0338230D01*
X0534467Y0338305D01*
X0534423Y0338382D01*
X0534383Y0338461D01*
X0534346Y0338541D01*
X0534314Y0338623D01*
X0534284Y0338707D01*
X0534259Y0338791D01*
X0534237Y0338877D01*
X0534220Y0338963D01*
X0534206Y0339051D01*
X0534196Y0339139D01*
X0534190Y0339227D01*
X0534188Y0339315D01*
X0527496Y0379276D02*
X0527496Y0384000D01*
X0564504Y0384000D01*
X0564504Y0380063D01*
X0563323Y0384000D02*
X0528677Y0384000D01*
X0636000Y0428000D02*
X0636000Y0433000D01*
X0636000Y0428000D02*
X0641000Y0428000D01*
X0651000Y0428000D02*
X0656000Y0428000D01*
X0656000Y0433000D01*
X0656000Y0443000D02*
X0656000Y0448000D01*
X0651000Y0448000D01*
X0641000Y0448000D02*
X0636000Y0448000D01*
X0636000Y0443000D01*
D14*
X0640388Y0450650D02*
X0642323Y0450650D01*
X0641356Y0450650D02*
X0641356Y0453552D01*
X0642323Y0452585D01*
X0650388Y0452585D02*
X0650388Y0453069D01*
X0650872Y0453552D01*
X0651840Y0453552D01*
X0652323Y0453069D01*
X0650388Y0452585D02*
X0652323Y0450650D01*
X0650388Y0450650D01*
X0656767Y0442985D02*
X0656150Y0442368D01*
X0656150Y0441133D01*
X0656767Y0440516D01*
X0659236Y0442985D01*
X0656767Y0442985D01*
X0656767Y0440516D02*
X0659236Y0440516D01*
X0659853Y0441133D01*
X0659853Y0442368D01*
X0659236Y0442985D01*
X0656150Y0439302D02*
X0656150Y0436833D01*
X0656150Y0438068D02*
X0659853Y0438068D01*
X0658619Y0436833D01*
X0659236Y0435619D02*
X0658002Y0435619D01*
X0657384Y0435002D01*
X0657384Y0433150D01*
X0656150Y0433150D02*
X0659853Y0433150D01*
X0659853Y0435002D01*
X0659236Y0435619D01*
X0650872Y0425352D02*
X0652323Y0423901D01*
X0650388Y0423901D01*
X0650872Y0422450D02*
X0650872Y0425352D01*
X0642323Y0424869D02*
X0641840Y0425352D01*
X0640872Y0425352D01*
X0640388Y0424869D01*
X0640388Y0424385D01*
X0640872Y0423901D01*
X0640388Y0423417D01*
X0640388Y0422934D01*
X0640872Y0422450D01*
X0641840Y0422450D01*
X0642323Y0422934D01*
X0641356Y0423901D02*
X0640872Y0423901D01*
D15*
X0390500Y0280900D02*
X0390500Y0263100D01*
X0375500Y0263100D02*
X0375500Y0280900D01*
D16*
X0383000Y0275268D02*
X0379063Y0271240D01*
X0386937Y0271240D01*
X0383000Y0275268D01*
M02*
