G75*
%MOIN*%
%OFA0B0*%
%FSLAX25Y25*%
%IPPOS*%
%LPD*%
%AMOC8*
5,1,8,0,0,1.08239X$1,22.5*
%
%ADD10C,0.00000*%
%ADD11C,0.11417*%
%ADD12C,0.03150*%
%ADD13C,0.01378*%
%ADD14C,0.04724*%
D10*
X0003081Y0005437D02*
X0003081Y0129453D01*
X0006034Y0129453D01*
X0006034Y0148154D01*
X0006036Y0148262D01*
X0006042Y0148370D01*
X0006052Y0148477D01*
X0006065Y0148584D01*
X0006083Y0148690D01*
X0006105Y0148796D01*
X0006130Y0148901D01*
X0006159Y0149005D01*
X0006192Y0149107D01*
X0006229Y0149209D01*
X0006269Y0149309D01*
X0006313Y0149407D01*
X0006361Y0149504D01*
X0006412Y0149599D01*
X0006466Y0149692D01*
X0006524Y0149783D01*
X0006585Y0149872D01*
X0006650Y0149959D01*
X0006717Y0150043D01*
X0006788Y0150125D01*
X0006861Y0150204D01*
X0006937Y0150280D01*
X0007016Y0150353D01*
X0007098Y0150424D01*
X0007182Y0150491D01*
X0007269Y0150556D01*
X0007358Y0150617D01*
X0007449Y0150675D01*
X0007542Y0150729D01*
X0007637Y0150780D01*
X0007734Y0150828D01*
X0007832Y0150872D01*
X0007932Y0150912D01*
X0008034Y0150949D01*
X0008136Y0150982D01*
X0008240Y0151011D01*
X0008345Y0151036D01*
X0008451Y0151058D01*
X0008557Y0151076D01*
X0008664Y0151089D01*
X0008771Y0151099D01*
X0008879Y0151105D01*
X0008987Y0151107D01*
X0008987Y0151106D02*
X0026704Y0151106D01*
X0026828Y0151104D01*
X0026951Y0151098D01*
X0027075Y0151089D01*
X0027197Y0151075D01*
X0027320Y0151058D01*
X0027442Y0151036D01*
X0027563Y0151011D01*
X0027683Y0150982D01*
X0027802Y0150950D01*
X0027921Y0150913D01*
X0028038Y0150873D01*
X0028153Y0150830D01*
X0028268Y0150782D01*
X0028380Y0150731D01*
X0028491Y0150677D01*
X0028601Y0150619D01*
X0028708Y0150558D01*
X0028814Y0150493D01*
X0028917Y0150425D01*
X0029018Y0150354D01*
X0029117Y0150280D01*
X0029214Y0150203D01*
X0029308Y0150122D01*
X0029399Y0150039D01*
X0029488Y0149953D01*
X0029574Y0149864D01*
X0029657Y0149773D01*
X0029738Y0149679D01*
X0029815Y0149582D01*
X0029889Y0149483D01*
X0029960Y0149382D01*
X0030028Y0149279D01*
X0030093Y0149173D01*
X0030154Y0149066D01*
X0030212Y0148956D01*
X0030266Y0148845D01*
X0030317Y0148733D01*
X0030365Y0148618D01*
X0030408Y0148503D01*
X0030448Y0148386D01*
X0030485Y0148267D01*
X0030517Y0148148D01*
X0030546Y0148028D01*
X0030571Y0147907D01*
X0030593Y0147785D01*
X0030610Y0147662D01*
X0030624Y0147540D01*
X0030633Y0147416D01*
X0030639Y0147293D01*
X0030641Y0147169D01*
X0030641Y0068429D01*
X0027688Y0068429D01*
X0027688Y0043823D01*
X0027690Y0043761D01*
X0027696Y0043700D01*
X0027705Y0043639D01*
X0027719Y0043578D01*
X0027736Y0043519D01*
X0027757Y0043461D01*
X0027782Y0043404D01*
X0027810Y0043349D01*
X0027841Y0043296D01*
X0027876Y0043245D01*
X0027914Y0043196D01*
X0027955Y0043149D01*
X0027998Y0043106D01*
X0028045Y0043065D01*
X0028094Y0043027D01*
X0028145Y0042992D01*
X0028198Y0042961D01*
X0028253Y0042933D01*
X0028310Y0042908D01*
X0028368Y0042887D01*
X0028427Y0042870D01*
X0028488Y0042856D01*
X0028549Y0042847D01*
X0028610Y0042841D01*
X0028672Y0042839D01*
X0029656Y0042839D01*
X0029656Y0042838D02*
X0029718Y0042836D01*
X0029779Y0042830D01*
X0029840Y0042821D01*
X0029901Y0042807D01*
X0029960Y0042790D01*
X0030018Y0042769D01*
X0030075Y0042744D01*
X0030130Y0042716D01*
X0030183Y0042685D01*
X0030234Y0042650D01*
X0030283Y0042612D01*
X0030330Y0042571D01*
X0030373Y0042528D01*
X0030414Y0042481D01*
X0030452Y0042432D01*
X0030487Y0042381D01*
X0030518Y0042328D01*
X0030546Y0042273D01*
X0030571Y0042216D01*
X0030592Y0042158D01*
X0030609Y0042099D01*
X0030623Y0042038D01*
X0030632Y0041977D01*
X0030638Y0041916D01*
X0030640Y0041854D01*
X0030641Y0041854D02*
X0030641Y0005437D01*
X0030639Y0005313D01*
X0030633Y0005190D01*
X0030624Y0005066D01*
X0030610Y0004944D01*
X0030593Y0004821D01*
X0030571Y0004699D01*
X0030546Y0004578D01*
X0030517Y0004458D01*
X0030485Y0004339D01*
X0030448Y0004220D01*
X0030408Y0004103D01*
X0030365Y0003988D01*
X0030317Y0003873D01*
X0030266Y0003761D01*
X0030212Y0003650D01*
X0030154Y0003540D01*
X0030093Y0003433D01*
X0030028Y0003327D01*
X0029960Y0003224D01*
X0029889Y0003123D01*
X0029815Y0003024D01*
X0029738Y0002927D01*
X0029657Y0002833D01*
X0029574Y0002742D01*
X0029488Y0002653D01*
X0029399Y0002567D01*
X0029308Y0002484D01*
X0029214Y0002403D01*
X0029117Y0002326D01*
X0029018Y0002252D01*
X0028917Y0002181D01*
X0028814Y0002113D01*
X0028708Y0002048D01*
X0028601Y0001987D01*
X0028491Y0001929D01*
X0028380Y0001875D01*
X0028268Y0001824D01*
X0028153Y0001776D01*
X0028038Y0001733D01*
X0027921Y0001693D01*
X0027802Y0001656D01*
X0027683Y0001624D01*
X0027563Y0001595D01*
X0027442Y0001570D01*
X0027320Y0001548D01*
X0027197Y0001531D01*
X0027075Y0001517D01*
X0026951Y0001508D01*
X0026828Y0001502D01*
X0026704Y0001500D01*
X0007019Y0001500D01*
X0006895Y0001502D01*
X0006772Y0001508D01*
X0006648Y0001517D01*
X0006526Y0001531D01*
X0006403Y0001548D01*
X0006281Y0001570D01*
X0006160Y0001595D01*
X0006040Y0001624D01*
X0005921Y0001656D01*
X0005802Y0001693D01*
X0005685Y0001733D01*
X0005570Y0001776D01*
X0005455Y0001824D01*
X0005343Y0001875D01*
X0005232Y0001929D01*
X0005122Y0001987D01*
X0005015Y0002048D01*
X0004909Y0002113D01*
X0004806Y0002181D01*
X0004705Y0002252D01*
X0004606Y0002326D01*
X0004509Y0002403D01*
X0004415Y0002484D01*
X0004324Y0002567D01*
X0004235Y0002653D01*
X0004149Y0002742D01*
X0004066Y0002833D01*
X0003985Y0002927D01*
X0003908Y0003024D01*
X0003834Y0003123D01*
X0003763Y0003224D01*
X0003695Y0003327D01*
X0003630Y0003433D01*
X0003569Y0003540D01*
X0003511Y0003650D01*
X0003457Y0003761D01*
X0003406Y0003873D01*
X0003358Y0003988D01*
X0003315Y0004103D01*
X0003275Y0004220D01*
X0003238Y0004339D01*
X0003206Y0004458D01*
X0003177Y0004578D01*
X0003152Y0004699D01*
X0003130Y0004821D01*
X0003113Y0004944D01*
X0003099Y0005066D01*
X0003090Y0005190D01*
X0003084Y0005313D01*
X0003082Y0005437D01*
X0005444Y0060555D02*
X0005446Y0060634D01*
X0005452Y0060713D01*
X0005462Y0060792D01*
X0005476Y0060870D01*
X0005493Y0060947D01*
X0005515Y0061023D01*
X0005540Y0061098D01*
X0005570Y0061171D01*
X0005602Y0061243D01*
X0005639Y0061314D01*
X0005679Y0061382D01*
X0005722Y0061448D01*
X0005768Y0061512D01*
X0005818Y0061574D01*
X0005871Y0061633D01*
X0005926Y0061689D01*
X0005985Y0061743D01*
X0006046Y0061793D01*
X0006109Y0061841D01*
X0006175Y0061885D01*
X0006243Y0061926D01*
X0006313Y0061963D01*
X0006384Y0061997D01*
X0006458Y0062027D01*
X0006532Y0062053D01*
X0006608Y0062075D01*
X0006685Y0062094D01*
X0006763Y0062109D01*
X0006841Y0062120D01*
X0006920Y0062127D01*
X0006999Y0062130D01*
X0007078Y0062129D01*
X0007157Y0062124D01*
X0007236Y0062115D01*
X0007314Y0062102D01*
X0007391Y0062085D01*
X0007468Y0062065D01*
X0007543Y0062040D01*
X0007617Y0062012D01*
X0007690Y0061980D01*
X0007760Y0061945D01*
X0007829Y0061906D01*
X0007896Y0061863D01*
X0007961Y0061817D01*
X0008023Y0061769D01*
X0008083Y0061717D01*
X0008140Y0061662D01*
X0008194Y0061604D01*
X0008245Y0061544D01*
X0008293Y0061481D01*
X0008338Y0061416D01*
X0008380Y0061348D01*
X0008418Y0061279D01*
X0008452Y0061208D01*
X0008483Y0061135D01*
X0008511Y0061060D01*
X0008534Y0060985D01*
X0008554Y0060908D01*
X0008570Y0060831D01*
X0008582Y0060752D01*
X0008590Y0060674D01*
X0008594Y0060595D01*
X0008594Y0060515D01*
X0008590Y0060436D01*
X0008582Y0060358D01*
X0008570Y0060279D01*
X0008554Y0060202D01*
X0008534Y0060125D01*
X0008511Y0060050D01*
X0008483Y0059975D01*
X0008452Y0059902D01*
X0008418Y0059831D01*
X0008380Y0059762D01*
X0008338Y0059694D01*
X0008293Y0059629D01*
X0008245Y0059566D01*
X0008194Y0059506D01*
X0008140Y0059448D01*
X0008083Y0059393D01*
X0008023Y0059341D01*
X0007961Y0059293D01*
X0007896Y0059247D01*
X0007829Y0059204D01*
X0007760Y0059165D01*
X0007690Y0059130D01*
X0007617Y0059098D01*
X0007543Y0059070D01*
X0007468Y0059045D01*
X0007391Y0059025D01*
X0007314Y0059008D01*
X0007236Y0058995D01*
X0007157Y0058986D01*
X0007078Y0058981D01*
X0006999Y0058980D01*
X0006920Y0058983D01*
X0006841Y0058990D01*
X0006763Y0059001D01*
X0006685Y0059016D01*
X0006608Y0059035D01*
X0006532Y0059057D01*
X0006458Y0059083D01*
X0006384Y0059113D01*
X0006313Y0059147D01*
X0006243Y0059184D01*
X0006175Y0059225D01*
X0006109Y0059269D01*
X0006046Y0059317D01*
X0005985Y0059367D01*
X0005926Y0059421D01*
X0005871Y0059477D01*
X0005818Y0059536D01*
X0005768Y0059598D01*
X0005722Y0059662D01*
X0005679Y0059728D01*
X0005639Y0059796D01*
X0005602Y0059867D01*
X0005570Y0059939D01*
X0005540Y0060012D01*
X0005515Y0060087D01*
X0005493Y0060163D01*
X0005476Y0060240D01*
X0005462Y0060318D01*
X0005452Y0060397D01*
X0005446Y0060476D01*
X0005444Y0060555D01*
X0004361Y0065476D02*
X0004363Y0065528D01*
X0004369Y0065580D01*
X0004379Y0065631D01*
X0004392Y0065681D01*
X0004410Y0065731D01*
X0004431Y0065778D01*
X0004455Y0065824D01*
X0004484Y0065868D01*
X0004515Y0065910D01*
X0004549Y0065949D01*
X0004586Y0065986D01*
X0004626Y0066019D01*
X0004669Y0066050D01*
X0004713Y0066077D01*
X0004759Y0066101D01*
X0004808Y0066121D01*
X0004857Y0066137D01*
X0004908Y0066150D01*
X0004959Y0066159D01*
X0005011Y0066164D01*
X0005063Y0066165D01*
X0005115Y0066162D01*
X0005167Y0066155D01*
X0005218Y0066144D01*
X0005268Y0066130D01*
X0005317Y0066111D01*
X0005364Y0066089D01*
X0005409Y0066064D01*
X0005453Y0066035D01*
X0005494Y0066003D01*
X0005533Y0065968D01*
X0005568Y0065930D01*
X0005601Y0065889D01*
X0005631Y0065847D01*
X0005657Y0065802D01*
X0005680Y0065755D01*
X0005699Y0065706D01*
X0005715Y0065656D01*
X0005727Y0065606D01*
X0005735Y0065554D01*
X0005739Y0065502D01*
X0005739Y0065450D01*
X0005735Y0065398D01*
X0005727Y0065346D01*
X0005715Y0065296D01*
X0005699Y0065246D01*
X0005680Y0065197D01*
X0005657Y0065150D01*
X0005631Y0065105D01*
X0005601Y0065063D01*
X0005568Y0065022D01*
X0005533Y0064984D01*
X0005494Y0064949D01*
X0005453Y0064917D01*
X0005409Y0064888D01*
X0005364Y0064863D01*
X0005317Y0064841D01*
X0005268Y0064822D01*
X0005218Y0064808D01*
X0005167Y0064797D01*
X0005115Y0064790D01*
X0005063Y0064787D01*
X0005011Y0064788D01*
X0004959Y0064793D01*
X0004908Y0064802D01*
X0004857Y0064815D01*
X0004808Y0064831D01*
X0004759Y0064851D01*
X0004713Y0064875D01*
X0004669Y0064902D01*
X0004626Y0064933D01*
X0004586Y0064966D01*
X0004549Y0065003D01*
X0004515Y0065042D01*
X0004484Y0065084D01*
X0004455Y0065128D01*
X0004431Y0065174D01*
X0004410Y0065221D01*
X0004392Y0065271D01*
X0004379Y0065321D01*
X0004369Y0065372D01*
X0004363Y0065424D01*
X0004361Y0065476D01*
X0004361Y0071382D02*
X0004363Y0071434D01*
X0004369Y0071486D01*
X0004379Y0071537D01*
X0004392Y0071587D01*
X0004410Y0071637D01*
X0004431Y0071684D01*
X0004455Y0071730D01*
X0004484Y0071774D01*
X0004515Y0071816D01*
X0004549Y0071855D01*
X0004586Y0071892D01*
X0004626Y0071925D01*
X0004669Y0071956D01*
X0004713Y0071983D01*
X0004759Y0072007D01*
X0004808Y0072027D01*
X0004857Y0072043D01*
X0004908Y0072056D01*
X0004959Y0072065D01*
X0005011Y0072070D01*
X0005063Y0072071D01*
X0005115Y0072068D01*
X0005167Y0072061D01*
X0005218Y0072050D01*
X0005268Y0072036D01*
X0005317Y0072017D01*
X0005364Y0071995D01*
X0005409Y0071970D01*
X0005453Y0071941D01*
X0005494Y0071909D01*
X0005533Y0071874D01*
X0005568Y0071836D01*
X0005601Y0071795D01*
X0005631Y0071753D01*
X0005657Y0071708D01*
X0005680Y0071661D01*
X0005699Y0071612D01*
X0005715Y0071562D01*
X0005727Y0071512D01*
X0005735Y0071460D01*
X0005739Y0071408D01*
X0005739Y0071356D01*
X0005735Y0071304D01*
X0005727Y0071252D01*
X0005715Y0071202D01*
X0005699Y0071152D01*
X0005680Y0071103D01*
X0005657Y0071056D01*
X0005631Y0071011D01*
X0005601Y0070969D01*
X0005568Y0070928D01*
X0005533Y0070890D01*
X0005494Y0070855D01*
X0005453Y0070823D01*
X0005409Y0070794D01*
X0005364Y0070769D01*
X0005317Y0070747D01*
X0005268Y0070728D01*
X0005218Y0070714D01*
X0005167Y0070703D01*
X0005115Y0070696D01*
X0005063Y0070693D01*
X0005011Y0070694D01*
X0004959Y0070699D01*
X0004908Y0070708D01*
X0004857Y0070721D01*
X0004808Y0070737D01*
X0004759Y0070757D01*
X0004713Y0070781D01*
X0004669Y0070808D01*
X0004626Y0070839D01*
X0004586Y0070872D01*
X0004549Y0070909D01*
X0004515Y0070948D01*
X0004484Y0070990D01*
X0004455Y0071034D01*
X0004431Y0071080D01*
X0004410Y0071127D01*
X0004392Y0071177D01*
X0004379Y0071227D01*
X0004369Y0071278D01*
X0004363Y0071330D01*
X0004361Y0071382D01*
X0007314Y0071382D02*
X0007316Y0071434D01*
X0007322Y0071486D01*
X0007332Y0071537D01*
X0007345Y0071587D01*
X0007363Y0071637D01*
X0007384Y0071684D01*
X0007408Y0071730D01*
X0007437Y0071774D01*
X0007468Y0071816D01*
X0007502Y0071855D01*
X0007539Y0071892D01*
X0007579Y0071925D01*
X0007622Y0071956D01*
X0007666Y0071983D01*
X0007712Y0072007D01*
X0007761Y0072027D01*
X0007810Y0072043D01*
X0007861Y0072056D01*
X0007912Y0072065D01*
X0007964Y0072070D01*
X0008016Y0072071D01*
X0008068Y0072068D01*
X0008120Y0072061D01*
X0008171Y0072050D01*
X0008221Y0072036D01*
X0008270Y0072017D01*
X0008317Y0071995D01*
X0008362Y0071970D01*
X0008406Y0071941D01*
X0008447Y0071909D01*
X0008486Y0071874D01*
X0008521Y0071836D01*
X0008554Y0071795D01*
X0008584Y0071753D01*
X0008610Y0071708D01*
X0008633Y0071661D01*
X0008652Y0071612D01*
X0008668Y0071562D01*
X0008680Y0071512D01*
X0008688Y0071460D01*
X0008692Y0071408D01*
X0008692Y0071356D01*
X0008688Y0071304D01*
X0008680Y0071252D01*
X0008668Y0071202D01*
X0008652Y0071152D01*
X0008633Y0071103D01*
X0008610Y0071056D01*
X0008584Y0071011D01*
X0008554Y0070969D01*
X0008521Y0070928D01*
X0008486Y0070890D01*
X0008447Y0070855D01*
X0008406Y0070823D01*
X0008362Y0070794D01*
X0008317Y0070769D01*
X0008270Y0070747D01*
X0008221Y0070728D01*
X0008171Y0070714D01*
X0008120Y0070703D01*
X0008068Y0070696D01*
X0008016Y0070693D01*
X0007964Y0070694D01*
X0007912Y0070699D01*
X0007861Y0070708D01*
X0007810Y0070721D01*
X0007761Y0070737D01*
X0007712Y0070757D01*
X0007666Y0070781D01*
X0007622Y0070808D01*
X0007579Y0070839D01*
X0007539Y0070872D01*
X0007502Y0070909D01*
X0007468Y0070948D01*
X0007437Y0070990D01*
X0007408Y0071034D01*
X0007384Y0071080D01*
X0007363Y0071127D01*
X0007345Y0071177D01*
X0007332Y0071227D01*
X0007322Y0071278D01*
X0007316Y0071330D01*
X0007314Y0071382D01*
X0007314Y0065476D02*
X0007316Y0065528D01*
X0007322Y0065580D01*
X0007332Y0065631D01*
X0007345Y0065681D01*
X0007363Y0065731D01*
X0007384Y0065778D01*
X0007408Y0065824D01*
X0007437Y0065868D01*
X0007468Y0065910D01*
X0007502Y0065949D01*
X0007539Y0065986D01*
X0007579Y0066019D01*
X0007622Y0066050D01*
X0007666Y0066077D01*
X0007712Y0066101D01*
X0007761Y0066121D01*
X0007810Y0066137D01*
X0007861Y0066150D01*
X0007912Y0066159D01*
X0007964Y0066164D01*
X0008016Y0066165D01*
X0008068Y0066162D01*
X0008120Y0066155D01*
X0008171Y0066144D01*
X0008221Y0066130D01*
X0008270Y0066111D01*
X0008317Y0066089D01*
X0008362Y0066064D01*
X0008406Y0066035D01*
X0008447Y0066003D01*
X0008486Y0065968D01*
X0008521Y0065930D01*
X0008554Y0065889D01*
X0008584Y0065847D01*
X0008610Y0065802D01*
X0008633Y0065755D01*
X0008652Y0065706D01*
X0008668Y0065656D01*
X0008680Y0065606D01*
X0008688Y0065554D01*
X0008692Y0065502D01*
X0008692Y0065450D01*
X0008688Y0065398D01*
X0008680Y0065346D01*
X0008668Y0065296D01*
X0008652Y0065246D01*
X0008633Y0065197D01*
X0008610Y0065150D01*
X0008584Y0065105D01*
X0008554Y0065063D01*
X0008521Y0065022D01*
X0008486Y0064984D01*
X0008447Y0064949D01*
X0008406Y0064917D01*
X0008362Y0064888D01*
X0008317Y0064863D01*
X0008270Y0064841D01*
X0008221Y0064822D01*
X0008171Y0064808D01*
X0008120Y0064797D01*
X0008068Y0064790D01*
X0008016Y0064787D01*
X0007964Y0064788D01*
X0007912Y0064793D01*
X0007861Y0064802D01*
X0007810Y0064815D01*
X0007761Y0064831D01*
X0007712Y0064851D01*
X0007666Y0064875D01*
X0007622Y0064902D01*
X0007579Y0064933D01*
X0007539Y0064966D01*
X0007502Y0065003D01*
X0007468Y0065042D01*
X0007437Y0065084D01*
X0007408Y0065128D01*
X0007384Y0065174D01*
X0007363Y0065221D01*
X0007345Y0065271D01*
X0007332Y0065321D01*
X0007322Y0065372D01*
X0007316Y0065424D01*
X0007314Y0065476D01*
X0010267Y0065476D02*
X0010269Y0065528D01*
X0010275Y0065580D01*
X0010285Y0065631D01*
X0010298Y0065681D01*
X0010316Y0065731D01*
X0010337Y0065778D01*
X0010361Y0065824D01*
X0010390Y0065868D01*
X0010421Y0065910D01*
X0010455Y0065949D01*
X0010492Y0065986D01*
X0010532Y0066019D01*
X0010575Y0066050D01*
X0010619Y0066077D01*
X0010665Y0066101D01*
X0010714Y0066121D01*
X0010763Y0066137D01*
X0010814Y0066150D01*
X0010865Y0066159D01*
X0010917Y0066164D01*
X0010969Y0066165D01*
X0011021Y0066162D01*
X0011073Y0066155D01*
X0011124Y0066144D01*
X0011174Y0066130D01*
X0011223Y0066111D01*
X0011270Y0066089D01*
X0011315Y0066064D01*
X0011359Y0066035D01*
X0011400Y0066003D01*
X0011439Y0065968D01*
X0011474Y0065930D01*
X0011507Y0065889D01*
X0011537Y0065847D01*
X0011563Y0065802D01*
X0011586Y0065755D01*
X0011605Y0065706D01*
X0011621Y0065656D01*
X0011633Y0065606D01*
X0011641Y0065554D01*
X0011645Y0065502D01*
X0011645Y0065450D01*
X0011641Y0065398D01*
X0011633Y0065346D01*
X0011621Y0065296D01*
X0011605Y0065246D01*
X0011586Y0065197D01*
X0011563Y0065150D01*
X0011537Y0065105D01*
X0011507Y0065063D01*
X0011474Y0065022D01*
X0011439Y0064984D01*
X0011400Y0064949D01*
X0011359Y0064917D01*
X0011315Y0064888D01*
X0011270Y0064863D01*
X0011223Y0064841D01*
X0011174Y0064822D01*
X0011124Y0064808D01*
X0011073Y0064797D01*
X0011021Y0064790D01*
X0010969Y0064787D01*
X0010917Y0064788D01*
X0010865Y0064793D01*
X0010814Y0064802D01*
X0010763Y0064815D01*
X0010714Y0064831D01*
X0010665Y0064851D01*
X0010619Y0064875D01*
X0010575Y0064902D01*
X0010532Y0064933D01*
X0010492Y0064966D01*
X0010455Y0065003D01*
X0010421Y0065042D01*
X0010390Y0065084D01*
X0010361Y0065128D01*
X0010337Y0065174D01*
X0010316Y0065221D01*
X0010298Y0065271D01*
X0010285Y0065321D01*
X0010275Y0065372D01*
X0010269Y0065424D01*
X0010267Y0065476D01*
X0010267Y0071382D02*
X0010269Y0071434D01*
X0010275Y0071486D01*
X0010285Y0071537D01*
X0010298Y0071587D01*
X0010316Y0071637D01*
X0010337Y0071684D01*
X0010361Y0071730D01*
X0010390Y0071774D01*
X0010421Y0071816D01*
X0010455Y0071855D01*
X0010492Y0071892D01*
X0010532Y0071925D01*
X0010575Y0071956D01*
X0010619Y0071983D01*
X0010665Y0072007D01*
X0010714Y0072027D01*
X0010763Y0072043D01*
X0010814Y0072056D01*
X0010865Y0072065D01*
X0010917Y0072070D01*
X0010969Y0072071D01*
X0011021Y0072068D01*
X0011073Y0072061D01*
X0011124Y0072050D01*
X0011174Y0072036D01*
X0011223Y0072017D01*
X0011270Y0071995D01*
X0011315Y0071970D01*
X0011359Y0071941D01*
X0011400Y0071909D01*
X0011439Y0071874D01*
X0011474Y0071836D01*
X0011507Y0071795D01*
X0011537Y0071753D01*
X0011563Y0071708D01*
X0011586Y0071661D01*
X0011605Y0071612D01*
X0011621Y0071562D01*
X0011633Y0071512D01*
X0011641Y0071460D01*
X0011645Y0071408D01*
X0011645Y0071356D01*
X0011641Y0071304D01*
X0011633Y0071252D01*
X0011621Y0071202D01*
X0011605Y0071152D01*
X0011586Y0071103D01*
X0011563Y0071056D01*
X0011537Y0071011D01*
X0011507Y0070969D01*
X0011474Y0070928D01*
X0011439Y0070890D01*
X0011400Y0070855D01*
X0011359Y0070823D01*
X0011315Y0070794D01*
X0011270Y0070769D01*
X0011223Y0070747D01*
X0011174Y0070728D01*
X0011124Y0070714D01*
X0011073Y0070703D01*
X0011021Y0070696D01*
X0010969Y0070693D01*
X0010917Y0070694D01*
X0010865Y0070699D01*
X0010814Y0070708D01*
X0010763Y0070721D01*
X0010714Y0070737D01*
X0010665Y0070757D01*
X0010619Y0070781D01*
X0010575Y0070808D01*
X0010532Y0070839D01*
X0010492Y0070872D01*
X0010455Y0070909D01*
X0010421Y0070948D01*
X0010390Y0070990D01*
X0010361Y0071034D01*
X0010337Y0071080D01*
X0010316Y0071127D01*
X0010298Y0071177D01*
X0010285Y0071227D01*
X0010275Y0071278D01*
X0010269Y0071330D01*
X0010267Y0071382D01*
X0013219Y0071382D02*
X0013221Y0071434D01*
X0013227Y0071486D01*
X0013237Y0071537D01*
X0013250Y0071587D01*
X0013268Y0071637D01*
X0013289Y0071684D01*
X0013313Y0071730D01*
X0013342Y0071774D01*
X0013373Y0071816D01*
X0013407Y0071855D01*
X0013444Y0071892D01*
X0013484Y0071925D01*
X0013527Y0071956D01*
X0013571Y0071983D01*
X0013617Y0072007D01*
X0013666Y0072027D01*
X0013715Y0072043D01*
X0013766Y0072056D01*
X0013817Y0072065D01*
X0013869Y0072070D01*
X0013921Y0072071D01*
X0013973Y0072068D01*
X0014025Y0072061D01*
X0014076Y0072050D01*
X0014126Y0072036D01*
X0014175Y0072017D01*
X0014222Y0071995D01*
X0014267Y0071970D01*
X0014311Y0071941D01*
X0014352Y0071909D01*
X0014391Y0071874D01*
X0014426Y0071836D01*
X0014459Y0071795D01*
X0014489Y0071753D01*
X0014515Y0071708D01*
X0014538Y0071661D01*
X0014557Y0071612D01*
X0014573Y0071562D01*
X0014585Y0071512D01*
X0014593Y0071460D01*
X0014597Y0071408D01*
X0014597Y0071356D01*
X0014593Y0071304D01*
X0014585Y0071252D01*
X0014573Y0071202D01*
X0014557Y0071152D01*
X0014538Y0071103D01*
X0014515Y0071056D01*
X0014489Y0071011D01*
X0014459Y0070969D01*
X0014426Y0070928D01*
X0014391Y0070890D01*
X0014352Y0070855D01*
X0014311Y0070823D01*
X0014267Y0070794D01*
X0014222Y0070769D01*
X0014175Y0070747D01*
X0014126Y0070728D01*
X0014076Y0070714D01*
X0014025Y0070703D01*
X0013973Y0070696D01*
X0013921Y0070693D01*
X0013869Y0070694D01*
X0013817Y0070699D01*
X0013766Y0070708D01*
X0013715Y0070721D01*
X0013666Y0070737D01*
X0013617Y0070757D01*
X0013571Y0070781D01*
X0013527Y0070808D01*
X0013484Y0070839D01*
X0013444Y0070872D01*
X0013407Y0070909D01*
X0013373Y0070948D01*
X0013342Y0070990D01*
X0013313Y0071034D01*
X0013289Y0071080D01*
X0013268Y0071127D01*
X0013250Y0071177D01*
X0013237Y0071227D01*
X0013227Y0071278D01*
X0013221Y0071330D01*
X0013219Y0071382D01*
X0013219Y0065476D02*
X0013221Y0065528D01*
X0013227Y0065580D01*
X0013237Y0065631D01*
X0013250Y0065681D01*
X0013268Y0065731D01*
X0013289Y0065778D01*
X0013313Y0065824D01*
X0013342Y0065868D01*
X0013373Y0065910D01*
X0013407Y0065949D01*
X0013444Y0065986D01*
X0013484Y0066019D01*
X0013527Y0066050D01*
X0013571Y0066077D01*
X0013617Y0066101D01*
X0013666Y0066121D01*
X0013715Y0066137D01*
X0013766Y0066150D01*
X0013817Y0066159D01*
X0013869Y0066164D01*
X0013921Y0066165D01*
X0013973Y0066162D01*
X0014025Y0066155D01*
X0014076Y0066144D01*
X0014126Y0066130D01*
X0014175Y0066111D01*
X0014222Y0066089D01*
X0014267Y0066064D01*
X0014311Y0066035D01*
X0014352Y0066003D01*
X0014391Y0065968D01*
X0014426Y0065930D01*
X0014459Y0065889D01*
X0014489Y0065847D01*
X0014515Y0065802D01*
X0014538Y0065755D01*
X0014557Y0065706D01*
X0014573Y0065656D01*
X0014585Y0065606D01*
X0014593Y0065554D01*
X0014597Y0065502D01*
X0014597Y0065450D01*
X0014593Y0065398D01*
X0014585Y0065346D01*
X0014573Y0065296D01*
X0014557Y0065246D01*
X0014538Y0065197D01*
X0014515Y0065150D01*
X0014489Y0065105D01*
X0014459Y0065063D01*
X0014426Y0065022D01*
X0014391Y0064984D01*
X0014352Y0064949D01*
X0014311Y0064917D01*
X0014267Y0064888D01*
X0014222Y0064863D01*
X0014175Y0064841D01*
X0014126Y0064822D01*
X0014076Y0064808D01*
X0014025Y0064797D01*
X0013973Y0064790D01*
X0013921Y0064787D01*
X0013869Y0064788D01*
X0013817Y0064793D01*
X0013766Y0064802D01*
X0013715Y0064815D01*
X0013666Y0064831D01*
X0013617Y0064851D01*
X0013571Y0064875D01*
X0013527Y0064902D01*
X0013484Y0064933D01*
X0013444Y0064966D01*
X0013407Y0065003D01*
X0013373Y0065042D01*
X0013342Y0065084D01*
X0013313Y0065128D01*
X0013289Y0065174D01*
X0013268Y0065221D01*
X0013250Y0065271D01*
X0013237Y0065321D01*
X0013227Y0065372D01*
X0013221Y0065424D01*
X0013219Y0065476D01*
X0016172Y0065476D02*
X0016174Y0065528D01*
X0016180Y0065580D01*
X0016190Y0065631D01*
X0016203Y0065681D01*
X0016221Y0065731D01*
X0016242Y0065778D01*
X0016266Y0065824D01*
X0016295Y0065868D01*
X0016326Y0065910D01*
X0016360Y0065949D01*
X0016397Y0065986D01*
X0016437Y0066019D01*
X0016480Y0066050D01*
X0016524Y0066077D01*
X0016570Y0066101D01*
X0016619Y0066121D01*
X0016668Y0066137D01*
X0016719Y0066150D01*
X0016770Y0066159D01*
X0016822Y0066164D01*
X0016874Y0066165D01*
X0016926Y0066162D01*
X0016978Y0066155D01*
X0017029Y0066144D01*
X0017079Y0066130D01*
X0017128Y0066111D01*
X0017175Y0066089D01*
X0017220Y0066064D01*
X0017264Y0066035D01*
X0017305Y0066003D01*
X0017344Y0065968D01*
X0017379Y0065930D01*
X0017412Y0065889D01*
X0017442Y0065847D01*
X0017468Y0065802D01*
X0017491Y0065755D01*
X0017510Y0065706D01*
X0017526Y0065656D01*
X0017538Y0065606D01*
X0017546Y0065554D01*
X0017550Y0065502D01*
X0017550Y0065450D01*
X0017546Y0065398D01*
X0017538Y0065346D01*
X0017526Y0065296D01*
X0017510Y0065246D01*
X0017491Y0065197D01*
X0017468Y0065150D01*
X0017442Y0065105D01*
X0017412Y0065063D01*
X0017379Y0065022D01*
X0017344Y0064984D01*
X0017305Y0064949D01*
X0017264Y0064917D01*
X0017220Y0064888D01*
X0017175Y0064863D01*
X0017128Y0064841D01*
X0017079Y0064822D01*
X0017029Y0064808D01*
X0016978Y0064797D01*
X0016926Y0064790D01*
X0016874Y0064787D01*
X0016822Y0064788D01*
X0016770Y0064793D01*
X0016719Y0064802D01*
X0016668Y0064815D01*
X0016619Y0064831D01*
X0016570Y0064851D01*
X0016524Y0064875D01*
X0016480Y0064902D01*
X0016437Y0064933D01*
X0016397Y0064966D01*
X0016360Y0065003D01*
X0016326Y0065042D01*
X0016295Y0065084D01*
X0016266Y0065128D01*
X0016242Y0065174D01*
X0016221Y0065221D01*
X0016203Y0065271D01*
X0016190Y0065321D01*
X0016180Y0065372D01*
X0016174Y0065424D01*
X0016172Y0065476D01*
X0016172Y0071382D02*
X0016174Y0071434D01*
X0016180Y0071486D01*
X0016190Y0071537D01*
X0016203Y0071587D01*
X0016221Y0071637D01*
X0016242Y0071684D01*
X0016266Y0071730D01*
X0016295Y0071774D01*
X0016326Y0071816D01*
X0016360Y0071855D01*
X0016397Y0071892D01*
X0016437Y0071925D01*
X0016480Y0071956D01*
X0016524Y0071983D01*
X0016570Y0072007D01*
X0016619Y0072027D01*
X0016668Y0072043D01*
X0016719Y0072056D01*
X0016770Y0072065D01*
X0016822Y0072070D01*
X0016874Y0072071D01*
X0016926Y0072068D01*
X0016978Y0072061D01*
X0017029Y0072050D01*
X0017079Y0072036D01*
X0017128Y0072017D01*
X0017175Y0071995D01*
X0017220Y0071970D01*
X0017264Y0071941D01*
X0017305Y0071909D01*
X0017344Y0071874D01*
X0017379Y0071836D01*
X0017412Y0071795D01*
X0017442Y0071753D01*
X0017468Y0071708D01*
X0017491Y0071661D01*
X0017510Y0071612D01*
X0017526Y0071562D01*
X0017538Y0071512D01*
X0017546Y0071460D01*
X0017550Y0071408D01*
X0017550Y0071356D01*
X0017546Y0071304D01*
X0017538Y0071252D01*
X0017526Y0071202D01*
X0017510Y0071152D01*
X0017491Y0071103D01*
X0017468Y0071056D01*
X0017442Y0071011D01*
X0017412Y0070969D01*
X0017379Y0070928D01*
X0017344Y0070890D01*
X0017305Y0070855D01*
X0017264Y0070823D01*
X0017220Y0070794D01*
X0017175Y0070769D01*
X0017128Y0070747D01*
X0017079Y0070728D01*
X0017029Y0070714D01*
X0016978Y0070703D01*
X0016926Y0070696D01*
X0016874Y0070693D01*
X0016822Y0070694D01*
X0016770Y0070699D01*
X0016719Y0070708D01*
X0016668Y0070721D01*
X0016619Y0070737D01*
X0016570Y0070757D01*
X0016524Y0070781D01*
X0016480Y0070808D01*
X0016437Y0070839D01*
X0016397Y0070872D01*
X0016360Y0070909D01*
X0016326Y0070948D01*
X0016295Y0070990D01*
X0016266Y0071034D01*
X0016242Y0071080D01*
X0016221Y0071127D01*
X0016203Y0071177D01*
X0016190Y0071227D01*
X0016180Y0071278D01*
X0016174Y0071330D01*
X0016172Y0071382D01*
X0019125Y0071382D02*
X0019127Y0071434D01*
X0019133Y0071486D01*
X0019143Y0071537D01*
X0019156Y0071587D01*
X0019174Y0071637D01*
X0019195Y0071684D01*
X0019219Y0071730D01*
X0019248Y0071774D01*
X0019279Y0071816D01*
X0019313Y0071855D01*
X0019350Y0071892D01*
X0019390Y0071925D01*
X0019433Y0071956D01*
X0019477Y0071983D01*
X0019523Y0072007D01*
X0019572Y0072027D01*
X0019621Y0072043D01*
X0019672Y0072056D01*
X0019723Y0072065D01*
X0019775Y0072070D01*
X0019827Y0072071D01*
X0019879Y0072068D01*
X0019931Y0072061D01*
X0019982Y0072050D01*
X0020032Y0072036D01*
X0020081Y0072017D01*
X0020128Y0071995D01*
X0020173Y0071970D01*
X0020217Y0071941D01*
X0020258Y0071909D01*
X0020297Y0071874D01*
X0020332Y0071836D01*
X0020365Y0071795D01*
X0020395Y0071753D01*
X0020421Y0071708D01*
X0020444Y0071661D01*
X0020463Y0071612D01*
X0020479Y0071562D01*
X0020491Y0071512D01*
X0020499Y0071460D01*
X0020503Y0071408D01*
X0020503Y0071356D01*
X0020499Y0071304D01*
X0020491Y0071252D01*
X0020479Y0071202D01*
X0020463Y0071152D01*
X0020444Y0071103D01*
X0020421Y0071056D01*
X0020395Y0071011D01*
X0020365Y0070969D01*
X0020332Y0070928D01*
X0020297Y0070890D01*
X0020258Y0070855D01*
X0020217Y0070823D01*
X0020173Y0070794D01*
X0020128Y0070769D01*
X0020081Y0070747D01*
X0020032Y0070728D01*
X0019982Y0070714D01*
X0019931Y0070703D01*
X0019879Y0070696D01*
X0019827Y0070693D01*
X0019775Y0070694D01*
X0019723Y0070699D01*
X0019672Y0070708D01*
X0019621Y0070721D01*
X0019572Y0070737D01*
X0019523Y0070757D01*
X0019477Y0070781D01*
X0019433Y0070808D01*
X0019390Y0070839D01*
X0019350Y0070872D01*
X0019313Y0070909D01*
X0019279Y0070948D01*
X0019248Y0070990D01*
X0019219Y0071034D01*
X0019195Y0071080D01*
X0019174Y0071127D01*
X0019156Y0071177D01*
X0019143Y0071227D01*
X0019133Y0071278D01*
X0019127Y0071330D01*
X0019125Y0071382D01*
X0019125Y0065476D02*
X0019127Y0065528D01*
X0019133Y0065580D01*
X0019143Y0065631D01*
X0019156Y0065681D01*
X0019174Y0065731D01*
X0019195Y0065778D01*
X0019219Y0065824D01*
X0019248Y0065868D01*
X0019279Y0065910D01*
X0019313Y0065949D01*
X0019350Y0065986D01*
X0019390Y0066019D01*
X0019433Y0066050D01*
X0019477Y0066077D01*
X0019523Y0066101D01*
X0019572Y0066121D01*
X0019621Y0066137D01*
X0019672Y0066150D01*
X0019723Y0066159D01*
X0019775Y0066164D01*
X0019827Y0066165D01*
X0019879Y0066162D01*
X0019931Y0066155D01*
X0019982Y0066144D01*
X0020032Y0066130D01*
X0020081Y0066111D01*
X0020128Y0066089D01*
X0020173Y0066064D01*
X0020217Y0066035D01*
X0020258Y0066003D01*
X0020297Y0065968D01*
X0020332Y0065930D01*
X0020365Y0065889D01*
X0020395Y0065847D01*
X0020421Y0065802D01*
X0020444Y0065755D01*
X0020463Y0065706D01*
X0020479Y0065656D01*
X0020491Y0065606D01*
X0020499Y0065554D01*
X0020503Y0065502D01*
X0020503Y0065450D01*
X0020499Y0065398D01*
X0020491Y0065346D01*
X0020479Y0065296D01*
X0020463Y0065246D01*
X0020444Y0065197D01*
X0020421Y0065150D01*
X0020395Y0065105D01*
X0020365Y0065063D01*
X0020332Y0065022D01*
X0020297Y0064984D01*
X0020258Y0064949D01*
X0020217Y0064917D01*
X0020173Y0064888D01*
X0020128Y0064863D01*
X0020081Y0064841D01*
X0020032Y0064822D01*
X0019982Y0064808D01*
X0019931Y0064797D01*
X0019879Y0064790D01*
X0019827Y0064787D01*
X0019775Y0064788D01*
X0019723Y0064793D01*
X0019672Y0064802D01*
X0019621Y0064815D01*
X0019572Y0064831D01*
X0019523Y0064851D01*
X0019477Y0064875D01*
X0019433Y0064902D01*
X0019390Y0064933D01*
X0019350Y0064966D01*
X0019313Y0065003D01*
X0019279Y0065042D01*
X0019248Y0065084D01*
X0019219Y0065128D01*
X0019195Y0065174D01*
X0019174Y0065221D01*
X0019156Y0065271D01*
X0019143Y0065321D01*
X0019133Y0065372D01*
X0019127Y0065424D01*
X0019125Y0065476D01*
X0022078Y0065476D02*
X0022080Y0065528D01*
X0022086Y0065580D01*
X0022096Y0065631D01*
X0022109Y0065681D01*
X0022127Y0065731D01*
X0022148Y0065778D01*
X0022172Y0065824D01*
X0022201Y0065868D01*
X0022232Y0065910D01*
X0022266Y0065949D01*
X0022303Y0065986D01*
X0022343Y0066019D01*
X0022386Y0066050D01*
X0022430Y0066077D01*
X0022476Y0066101D01*
X0022525Y0066121D01*
X0022574Y0066137D01*
X0022625Y0066150D01*
X0022676Y0066159D01*
X0022728Y0066164D01*
X0022780Y0066165D01*
X0022832Y0066162D01*
X0022884Y0066155D01*
X0022935Y0066144D01*
X0022985Y0066130D01*
X0023034Y0066111D01*
X0023081Y0066089D01*
X0023126Y0066064D01*
X0023170Y0066035D01*
X0023211Y0066003D01*
X0023250Y0065968D01*
X0023285Y0065930D01*
X0023318Y0065889D01*
X0023348Y0065847D01*
X0023374Y0065802D01*
X0023397Y0065755D01*
X0023416Y0065706D01*
X0023432Y0065656D01*
X0023444Y0065606D01*
X0023452Y0065554D01*
X0023456Y0065502D01*
X0023456Y0065450D01*
X0023452Y0065398D01*
X0023444Y0065346D01*
X0023432Y0065296D01*
X0023416Y0065246D01*
X0023397Y0065197D01*
X0023374Y0065150D01*
X0023348Y0065105D01*
X0023318Y0065063D01*
X0023285Y0065022D01*
X0023250Y0064984D01*
X0023211Y0064949D01*
X0023170Y0064917D01*
X0023126Y0064888D01*
X0023081Y0064863D01*
X0023034Y0064841D01*
X0022985Y0064822D01*
X0022935Y0064808D01*
X0022884Y0064797D01*
X0022832Y0064790D01*
X0022780Y0064787D01*
X0022728Y0064788D01*
X0022676Y0064793D01*
X0022625Y0064802D01*
X0022574Y0064815D01*
X0022525Y0064831D01*
X0022476Y0064851D01*
X0022430Y0064875D01*
X0022386Y0064902D01*
X0022343Y0064933D01*
X0022303Y0064966D01*
X0022266Y0065003D01*
X0022232Y0065042D01*
X0022201Y0065084D01*
X0022172Y0065128D01*
X0022148Y0065174D01*
X0022127Y0065221D01*
X0022109Y0065271D01*
X0022096Y0065321D01*
X0022086Y0065372D01*
X0022080Y0065424D01*
X0022078Y0065476D01*
X0022078Y0071382D02*
X0022080Y0071434D01*
X0022086Y0071486D01*
X0022096Y0071537D01*
X0022109Y0071587D01*
X0022127Y0071637D01*
X0022148Y0071684D01*
X0022172Y0071730D01*
X0022201Y0071774D01*
X0022232Y0071816D01*
X0022266Y0071855D01*
X0022303Y0071892D01*
X0022343Y0071925D01*
X0022386Y0071956D01*
X0022430Y0071983D01*
X0022476Y0072007D01*
X0022525Y0072027D01*
X0022574Y0072043D01*
X0022625Y0072056D01*
X0022676Y0072065D01*
X0022728Y0072070D01*
X0022780Y0072071D01*
X0022832Y0072068D01*
X0022884Y0072061D01*
X0022935Y0072050D01*
X0022985Y0072036D01*
X0023034Y0072017D01*
X0023081Y0071995D01*
X0023126Y0071970D01*
X0023170Y0071941D01*
X0023211Y0071909D01*
X0023250Y0071874D01*
X0023285Y0071836D01*
X0023318Y0071795D01*
X0023348Y0071753D01*
X0023374Y0071708D01*
X0023397Y0071661D01*
X0023416Y0071612D01*
X0023432Y0071562D01*
X0023444Y0071512D01*
X0023452Y0071460D01*
X0023456Y0071408D01*
X0023456Y0071356D01*
X0023452Y0071304D01*
X0023444Y0071252D01*
X0023432Y0071202D01*
X0023416Y0071152D01*
X0023397Y0071103D01*
X0023374Y0071056D01*
X0023348Y0071011D01*
X0023318Y0070969D01*
X0023285Y0070928D01*
X0023250Y0070890D01*
X0023211Y0070855D01*
X0023170Y0070823D01*
X0023126Y0070794D01*
X0023081Y0070769D01*
X0023034Y0070747D01*
X0022985Y0070728D01*
X0022935Y0070714D01*
X0022884Y0070703D01*
X0022832Y0070696D01*
X0022780Y0070693D01*
X0022728Y0070694D01*
X0022676Y0070699D01*
X0022625Y0070708D01*
X0022574Y0070721D01*
X0022525Y0070737D01*
X0022476Y0070757D01*
X0022430Y0070781D01*
X0022386Y0070808D01*
X0022343Y0070839D01*
X0022303Y0070872D01*
X0022266Y0070909D01*
X0022232Y0070948D01*
X0022201Y0070990D01*
X0022172Y0071034D01*
X0022148Y0071080D01*
X0022127Y0071127D01*
X0022109Y0071177D01*
X0022096Y0071227D01*
X0022086Y0071278D01*
X0022080Y0071330D01*
X0022078Y0071382D01*
X0024735Y0072366D02*
X0026704Y0072366D01*
X0025030Y0071382D02*
X0025032Y0071434D01*
X0025038Y0071486D01*
X0025048Y0071537D01*
X0025061Y0071587D01*
X0025079Y0071637D01*
X0025100Y0071684D01*
X0025124Y0071730D01*
X0025153Y0071774D01*
X0025184Y0071816D01*
X0025218Y0071855D01*
X0025255Y0071892D01*
X0025295Y0071925D01*
X0025338Y0071956D01*
X0025382Y0071983D01*
X0025428Y0072007D01*
X0025477Y0072027D01*
X0025526Y0072043D01*
X0025577Y0072056D01*
X0025628Y0072065D01*
X0025680Y0072070D01*
X0025732Y0072071D01*
X0025784Y0072068D01*
X0025836Y0072061D01*
X0025887Y0072050D01*
X0025937Y0072036D01*
X0025986Y0072017D01*
X0026033Y0071995D01*
X0026078Y0071970D01*
X0026122Y0071941D01*
X0026163Y0071909D01*
X0026202Y0071874D01*
X0026237Y0071836D01*
X0026270Y0071795D01*
X0026300Y0071753D01*
X0026326Y0071708D01*
X0026349Y0071661D01*
X0026368Y0071612D01*
X0026384Y0071562D01*
X0026396Y0071512D01*
X0026404Y0071460D01*
X0026408Y0071408D01*
X0026408Y0071356D01*
X0026404Y0071304D01*
X0026396Y0071252D01*
X0026384Y0071202D01*
X0026368Y0071152D01*
X0026349Y0071103D01*
X0026326Y0071056D01*
X0026300Y0071011D01*
X0026270Y0070969D01*
X0026237Y0070928D01*
X0026202Y0070890D01*
X0026163Y0070855D01*
X0026122Y0070823D01*
X0026078Y0070794D01*
X0026033Y0070769D01*
X0025986Y0070747D01*
X0025937Y0070728D01*
X0025887Y0070714D01*
X0025836Y0070703D01*
X0025784Y0070696D01*
X0025732Y0070693D01*
X0025680Y0070694D01*
X0025628Y0070699D01*
X0025577Y0070708D01*
X0025526Y0070721D01*
X0025477Y0070737D01*
X0025428Y0070757D01*
X0025382Y0070781D01*
X0025338Y0070808D01*
X0025295Y0070839D01*
X0025255Y0070872D01*
X0025218Y0070909D01*
X0025184Y0070948D01*
X0025153Y0070990D01*
X0025124Y0071034D01*
X0025100Y0071080D01*
X0025079Y0071127D01*
X0025061Y0071177D01*
X0025048Y0071227D01*
X0025038Y0071278D01*
X0025032Y0071330D01*
X0025030Y0071382D01*
X0025030Y0065476D02*
X0025032Y0065528D01*
X0025038Y0065580D01*
X0025048Y0065631D01*
X0025061Y0065681D01*
X0025079Y0065731D01*
X0025100Y0065778D01*
X0025124Y0065824D01*
X0025153Y0065868D01*
X0025184Y0065910D01*
X0025218Y0065949D01*
X0025255Y0065986D01*
X0025295Y0066019D01*
X0025338Y0066050D01*
X0025382Y0066077D01*
X0025428Y0066101D01*
X0025477Y0066121D01*
X0025526Y0066137D01*
X0025577Y0066150D01*
X0025628Y0066159D01*
X0025680Y0066164D01*
X0025732Y0066165D01*
X0025784Y0066162D01*
X0025836Y0066155D01*
X0025887Y0066144D01*
X0025937Y0066130D01*
X0025986Y0066111D01*
X0026033Y0066089D01*
X0026078Y0066064D01*
X0026122Y0066035D01*
X0026163Y0066003D01*
X0026202Y0065968D01*
X0026237Y0065930D01*
X0026270Y0065889D01*
X0026300Y0065847D01*
X0026326Y0065802D01*
X0026349Y0065755D01*
X0026368Y0065706D01*
X0026384Y0065656D01*
X0026396Y0065606D01*
X0026404Y0065554D01*
X0026408Y0065502D01*
X0026408Y0065450D01*
X0026404Y0065398D01*
X0026396Y0065346D01*
X0026384Y0065296D01*
X0026368Y0065246D01*
X0026349Y0065197D01*
X0026326Y0065150D01*
X0026300Y0065105D01*
X0026270Y0065063D01*
X0026237Y0065022D01*
X0026202Y0064984D01*
X0026163Y0064949D01*
X0026122Y0064917D01*
X0026078Y0064888D01*
X0026033Y0064863D01*
X0025986Y0064841D01*
X0025937Y0064822D01*
X0025887Y0064808D01*
X0025836Y0064797D01*
X0025784Y0064790D01*
X0025732Y0064787D01*
X0025680Y0064788D01*
X0025628Y0064793D01*
X0025577Y0064802D01*
X0025526Y0064815D01*
X0025477Y0064831D01*
X0025428Y0064851D01*
X0025382Y0064875D01*
X0025338Y0064902D01*
X0025295Y0064933D01*
X0025255Y0064966D01*
X0025218Y0065003D01*
X0025184Y0065042D01*
X0025153Y0065084D01*
X0025124Y0065128D01*
X0025100Y0065174D01*
X0025079Y0065221D01*
X0025061Y0065271D01*
X0025048Y0065321D01*
X0025038Y0065372D01*
X0025032Y0065424D01*
X0025030Y0065476D01*
X0023160Y0060555D02*
X0023162Y0060634D01*
X0023168Y0060713D01*
X0023178Y0060792D01*
X0023192Y0060870D01*
X0023209Y0060947D01*
X0023231Y0061023D01*
X0023256Y0061098D01*
X0023286Y0061171D01*
X0023318Y0061243D01*
X0023355Y0061314D01*
X0023395Y0061382D01*
X0023438Y0061448D01*
X0023484Y0061512D01*
X0023534Y0061574D01*
X0023587Y0061633D01*
X0023642Y0061689D01*
X0023701Y0061743D01*
X0023762Y0061793D01*
X0023825Y0061841D01*
X0023891Y0061885D01*
X0023959Y0061926D01*
X0024029Y0061963D01*
X0024100Y0061997D01*
X0024174Y0062027D01*
X0024248Y0062053D01*
X0024324Y0062075D01*
X0024401Y0062094D01*
X0024479Y0062109D01*
X0024557Y0062120D01*
X0024636Y0062127D01*
X0024715Y0062130D01*
X0024794Y0062129D01*
X0024873Y0062124D01*
X0024952Y0062115D01*
X0025030Y0062102D01*
X0025107Y0062085D01*
X0025184Y0062065D01*
X0025259Y0062040D01*
X0025333Y0062012D01*
X0025406Y0061980D01*
X0025476Y0061945D01*
X0025545Y0061906D01*
X0025612Y0061863D01*
X0025677Y0061817D01*
X0025739Y0061769D01*
X0025799Y0061717D01*
X0025856Y0061662D01*
X0025910Y0061604D01*
X0025961Y0061544D01*
X0026009Y0061481D01*
X0026054Y0061416D01*
X0026096Y0061348D01*
X0026134Y0061279D01*
X0026168Y0061208D01*
X0026199Y0061135D01*
X0026227Y0061060D01*
X0026250Y0060985D01*
X0026270Y0060908D01*
X0026286Y0060831D01*
X0026298Y0060752D01*
X0026306Y0060674D01*
X0026310Y0060595D01*
X0026310Y0060515D01*
X0026306Y0060436D01*
X0026298Y0060358D01*
X0026286Y0060279D01*
X0026270Y0060202D01*
X0026250Y0060125D01*
X0026227Y0060050D01*
X0026199Y0059975D01*
X0026168Y0059902D01*
X0026134Y0059831D01*
X0026096Y0059762D01*
X0026054Y0059694D01*
X0026009Y0059629D01*
X0025961Y0059566D01*
X0025910Y0059506D01*
X0025856Y0059448D01*
X0025799Y0059393D01*
X0025739Y0059341D01*
X0025677Y0059293D01*
X0025612Y0059247D01*
X0025545Y0059204D01*
X0025476Y0059165D01*
X0025406Y0059130D01*
X0025333Y0059098D01*
X0025259Y0059070D01*
X0025184Y0059045D01*
X0025107Y0059025D01*
X0025030Y0059008D01*
X0024952Y0058995D01*
X0024873Y0058986D01*
X0024794Y0058981D01*
X0024715Y0058980D01*
X0024636Y0058983D01*
X0024557Y0058990D01*
X0024479Y0059001D01*
X0024401Y0059016D01*
X0024324Y0059035D01*
X0024248Y0059057D01*
X0024174Y0059083D01*
X0024100Y0059113D01*
X0024029Y0059147D01*
X0023959Y0059184D01*
X0023891Y0059225D01*
X0023825Y0059269D01*
X0023762Y0059317D01*
X0023701Y0059367D01*
X0023642Y0059421D01*
X0023587Y0059477D01*
X0023534Y0059536D01*
X0023484Y0059598D01*
X0023438Y0059662D01*
X0023395Y0059728D01*
X0023355Y0059796D01*
X0023318Y0059867D01*
X0023286Y0059939D01*
X0023256Y0060012D01*
X0023231Y0060087D01*
X0023209Y0060163D01*
X0023192Y0060240D01*
X0023178Y0060318D01*
X0023168Y0060397D01*
X0023162Y0060476D01*
X0023160Y0060555D01*
X0027983Y0071382D02*
X0027985Y0071434D01*
X0027991Y0071486D01*
X0028001Y0071537D01*
X0028014Y0071587D01*
X0028032Y0071637D01*
X0028053Y0071684D01*
X0028077Y0071730D01*
X0028106Y0071774D01*
X0028137Y0071816D01*
X0028171Y0071855D01*
X0028208Y0071892D01*
X0028248Y0071925D01*
X0028291Y0071956D01*
X0028335Y0071983D01*
X0028381Y0072007D01*
X0028430Y0072027D01*
X0028479Y0072043D01*
X0028530Y0072056D01*
X0028581Y0072065D01*
X0028633Y0072070D01*
X0028685Y0072071D01*
X0028737Y0072068D01*
X0028789Y0072061D01*
X0028840Y0072050D01*
X0028890Y0072036D01*
X0028939Y0072017D01*
X0028986Y0071995D01*
X0029031Y0071970D01*
X0029075Y0071941D01*
X0029116Y0071909D01*
X0029155Y0071874D01*
X0029190Y0071836D01*
X0029223Y0071795D01*
X0029253Y0071753D01*
X0029279Y0071708D01*
X0029302Y0071661D01*
X0029321Y0071612D01*
X0029337Y0071562D01*
X0029349Y0071512D01*
X0029357Y0071460D01*
X0029361Y0071408D01*
X0029361Y0071356D01*
X0029357Y0071304D01*
X0029349Y0071252D01*
X0029337Y0071202D01*
X0029321Y0071152D01*
X0029302Y0071103D01*
X0029279Y0071056D01*
X0029253Y0071011D01*
X0029223Y0070969D01*
X0029190Y0070928D01*
X0029155Y0070890D01*
X0029116Y0070855D01*
X0029075Y0070823D01*
X0029031Y0070794D01*
X0028986Y0070769D01*
X0028939Y0070747D01*
X0028890Y0070728D01*
X0028840Y0070714D01*
X0028789Y0070703D01*
X0028737Y0070696D01*
X0028685Y0070693D01*
X0028633Y0070694D01*
X0028581Y0070699D01*
X0028530Y0070708D01*
X0028479Y0070721D01*
X0028430Y0070737D01*
X0028381Y0070757D01*
X0028335Y0070781D01*
X0028291Y0070808D01*
X0028248Y0070839D01*
X0028208Y0070872D01*
X0028171Y0070909D01*
X0028137Y0070948D01*
X0028106Y0070990D01*
X0028077Y0071034D01*
X0028053Y0071080D01*
X0028032Y0071127D01*
X0028014Y0071177D01*
X0028001Y0071227D01*
X0027991Y0071278D01*
X0027985Y0071330D01*
X0027983Y0071382D01*
X0011152Y0037917D02*
X0011154Y0038068D01*
X0011160Y0038218D01*
X0011170Y0038369D01*
X0011184Y0038519D01*
X0011202Y0038668D01*
X0011223Y0038818D01*
X0011249Y0038966D01*
X0011279Y0039114D01*
X0011312Y0039261D01*
X0011350Y0039407D01*
X0011391Y0039552D01*
X0011436Y0039696D01*
X0011485Y0039838D01*
X0011538Y0039979D01*
X0011594Y0040119D01*
X0011654Y0040257D01*
X0011717Y0040394D01*
X0011785Y0040529D01*
X0011855Y0040662D01*
X0011929Y0040793D01*
X0012007Y0040922D01*
X0012088Y0041049D01*
X0012172Y0041174D01*
X0012260Y0041297D01*
X0012351Y0041417D01*
X0012445Y0041535D01*
X0012542Y0041650D01*
X0012642Y0041763D01*
X0012745Y0041873D01*
X0012851Y0041980D01*
X0012960Y0042085D01*
X0013071Y0042186D01*
X0013185Y0042285D01*
X0013301Y0042380D01*
X0013421Y0042473D01*
X0013542Y0042562D01*
X0013666Y0042648D01*
X0013792Y0042731D01*
X0013920Y0042810D01*
X0014050Y0042886D01*
X0014182Y0042959D01*
X0014316Y0043027D01*
X0014452Y0043093D01*
X0014590Y0043155D01*
X0014729Y0043213D01*
X0014869Y0043267D01*
X0015011Y0043318D01*
X0015154Y0043365D01*
X0015299Y0043408D01*
X0015444Y0043447D01*
X0015591Y0043483D01*
X0015738Y0043514D01*
X0015886Y0043542D01*
X0016035Y0043566D01*
X0016184Y0043586D01*
X0016334Y0043602D01*
X0016484Y0043614D01*
X0016635Y0043622D01*
X0016786Y0043626D01*
X0016936Y0043626D01*
X0017087Y0043622D01*
X0017238Y0043614D01*
X0017388Y0043602D01*
X0017538Y0043586D01*
X0017687Y0043566D01*
X0017836Y0043542D01*
X0017984Y0043514D01*
X0018131Y0043483D01*
X0018278Y0043447D01*
X0018423Y0043408D01*
X0018568Y0043365D01*
X0018711Y0043318D01*
X0018853Y0043267D01*
X0018993Y0043213D01*
X0019132Y0043155D01*
X0019270Y0043093D01*
X0019406Y0043027D01*
X0019540Y0042959D01*
X0019672Y0042886D01*
X0019802Y0042810D01*
X0019930Y0042731D01*
X0020056Y0042648D01*
X0020180Y0042562D01*
X0020301Y0042473D01*
X0020421Y0042380D01*
X0020537Y0042285D01*
X0020651Y0042186D01*
X0020762Y0042085D01*
X0020871Y0041980D01*
X0020977Y0041873D01*
X0021080Y0041763D01*
X0021180Y0041650D01*
X0021277Y0041535D01*
X0021371Y0041417D01*
X0021462Y0041297D01*
X0021550Y0041174D01*
X0021634Y0041049D01*
X0021715Y0040922D01*
X0021793Y0040793D01*
X0021867Y0040662D01*
X0021937Y0040529D01*
X0022005Y0040394D01*
X0022068Y0040257D01*
X0022128Y0040119D01*
X0022184Y0039979D01*
X0022237Y0039838D01*
X0022286Y0039696D01*
X0022331Y0039552D01*
X0022372Y0039407D01*
X0022410Y0039261D01*
X0022443Y0039114D01*
X0022473Y0038966D01*
X0022499Y0038818D01*
X0022520Y0038668D01*
X0022538Y0038519D01*
X0022552Y0038369D01*
X0022562Y0038218D01*
X0022568Y0038068D01*
X0022570Y0037917D01*
X0022568Y0037766D01*
X0022562Y0037616D01*
X0022552Y0037465D01*
X0022538Y0037315D01*
X0022520Y0037166D01*
X0022499Y0037016D01*
X0022473Y0036868D01*
X0022443Y0036720D01*
X0022410Y0036573D01*
X0022372Y0036427D01*
X0022331Y0036282D01*
X0022286Y0036138D01*
X0022237Y0035996D01*
X0022184Y0035855D01*
X0022128Y0035715D01*
X0022068Y0035577D01*
X0022005Y0035440D01*
X0021937Y0035305D01*
X0021867Y0035172D01*
X0021793Y0035041D01*
X0021715Y0034912D01*
X0021634Y0034785D01*
X0021550Y0034660D01*
X0021462Y0034537D01*
X0021371Y0034417D01*
X0021277Y0034299D01*
X0021180Y0034184D01*
X0021080Y0034071D01*
X0020977Y0033961D01*
X0020871Y0033854D01*
X0020762Y0033749D01*
X0020651Y0033648D01*
X0020537Y0033549D01*
X0020421Y0033454D01*
X0020301Y0033361D01*
X0020180Y0033272D01*
X0020056Y0033186D01*
X0019930Y0033103D01*
X0019802Y0033024D01*
X0019672Y0032948D01*
X0019540Y0032875D01*
X0019406Y0032807D01*
X0019270Y0032741D01*
X0019132Y0032679D01*
X0018993Y0032621D01*
X0018853Y0032567D01*
X0018711Y0032516D01*
X0018568Y0032469D01*
X0018423Y0032426D01*
X0018278Y0032387D01*
X0018131Y0032351D01*
X0017984Y0032320D01*
X0017836Y0032292D01*
X0017687Y0032268D01*
X0017538Y0032248D01*
X0017388Y0032232D01*
X0017238Y0032220D01*
X0017087Y0032212D01*
X0016936Y0032208D01*
X0016786Y0032208D01*
X0016635Y0032212D01*
X0016484Y0032220D01*
X0016334Y0032232D01*
X0016184Y0032248D01*
X0016035Y0032268D01*
X0015886Y0032292D01*
X0015738Y0032320D01*
X0015591Y0032351D01*
X0015444Y0032387D01*
X0015299Y0032426D01*
X0015154Y0032469D01*
X0015011Y0032516D01*
X0014869Y0032567D01*
X0014729Y0032621D01*
X0014590Y0032679D01*
X0014452Y0032741D01*
X0014316Y0032807D01*
X0014182Y0032875D01*
X0014050Y0032948D01*
X0013920Y0033024D01*
X0013792Y0033103D01*
X0013666Y0033186D01*
X0013542Y0033272D01*
X0013421Y0033361D01*
X0013301Y0033454D01*
X0013185Y0033549D01*
X0013071Y0033648D01*
X0012960Y0033749D01*
X0012851Y0033854D01*
X0012745Y0033961D01*
X0012642Y0034071D01*
X0012542Y0034184D01*
X0012445Y0034299D01*
X0012351Y0034417D01*
X0012260Y0034537D01*
X0012172Y0034660D01*
X0012088Y0034785D01*
X0012007Y0034912D01*
X0011929Y0035041D01*
X0011855Y0035172D01*
X0011785Y0035305D01*
X0011717Y0035440D01*
X0011654Y0035577D01*
X0011594Y0035715D01*
X0011538Y0035855D01*
X0011485Y0035996D01*
X0011436Y0036138D01*
X0011391Y0036282D01*
X0011350Y0036427D01*
X0011312Y0036573D01*
X0011279Y0036720D01*
X0011249Y0036868D01*
X0011223Y0037016D01*
X0011202Y0037166D01*
X0011184Y0037315D01*
X0011170Y0037465D01*
X0011160Y0037616D01*
X0011154Y0037766D01*
X0011152Y0037917D01*
X0011152Y0123547D02*
X0011154Y0123698D01*
X0011160Y0123848D01*
X0011170Y0123999D01*
X0011184Y0124149D01*
X0011202Y0124298D01*
X0011223Y0124448D01*
X0011249Y0124596D01*
X0011279Y0124744D01*
X0011312Y0124891D01*
X0011350Y0125037D01*
X0011391Y0125182D01*
X0011436Y0125326D01*
X0011485Y0125468D01*
X0011538Y0125609D01*
X0011594Y0125749D01*
X0011654Y0125887D01*
X0011717Y0126024D01*
X0011785Y0126159D01*
X0011855Y0126292D01*
X0011929Y0126423D01*
X0012007Y0126552D01*
X0012088Y0126679D01*
X0012172Y0126804D01*
X0012260Y0126927D01*
X0012351Y0127047D01*
X0012445Y0127165D01*
X0012542Y0127280D01*
X0012642Y0127393D01*
X0012745Y0127503D01*
X0012851Y0127610D01*
X0012960Y0127715D01*
X0013071Y0127816D01*
X0013185Y0127915D01*
X0013301Y0128010D01*
X0013421Y0128103D01*
X0013542Y0128192D01*
X0013666Y0128278D01*
X0013792Y0128361D01*
X0013920Y0128440D01*
X0014050Y0128516D01*
X0014182Y0128589D01*
X0014316Y0128657D01*
X0014452Y0128723D01*
X0014590Y0128785D01*
X0014729Y0128843D01*
X0014869Y0128897D01*
X0015011Y0128948D01*
X0015154Y0128995D01*
X0015299Y0129038D01*
X0015444Y0129077D01*
X0015591Y0129113D01*
X0015738Y0129144D01*
X0015886Y0129172D01*
X0016035Y0129196D01*
X0016184Y0129216D01*
X0016334Y0129232D01*
X0016484Y0129244D01*
X0016635Y0129252D01*
X0016786Y0129256D01*
X0016936Y0129256D01*
X0017087Y0129252D01*
X0017238Y0129244D01*
X0017388Y0129232D01*
X0017538Y0129216D01*
X0017687Y0129196D01*
X0017836Y0129172D01*
X0017984Y0129144D01*
X0018131Y0129113D01*
X0018278Y0129077D01*
X0018423Y0129038D01*
X0018568Y0128995D01*
X0018711Y0128948D01*
X0018853Y0128897D01*
X0018993Y0128843D01*
X0019132Y0128785D01*
X0019270Y0128723D01*
X0019406Y0128657D01*
X0019540Y0128589D01*
X0019672Y0128516D01*
X0019802Y0128440D01*
X0019930Y0128361D01*
X0020056Y0128278D01*
X0020180Y0128192D01*
X0020301Y0128103D01*
X0020421Y0128010D01*
X0020537Y0127915D01*
X0020651Y0127816D01*
X0020762Y0127715D01*
X0020871Y0127610D01*
X0020977Y0127503D01*
X0021080Y0127393D01*
X0021180Y0127280D01*
X0021277Y0127165D01*
X0021371Y0127047D01*
X0021462Y0126927D01*
X0021550Y0126804D01*
X0021634Y0126679D01*
X0021715Y0126552D01*
X0021793Y0126423D01*
X0021867Y0126292D01*
X0021937Y0126159D01*
X0022005Y0126024D01*
X0022068Y0125887D01*
X0022128Y0125749D01*
X0022184Y0125609D01*
X0022237Y0125468D01*
X0022286Y0125326D01*
X0022331Y0125182D01*
X0022372Y0125037D01*
X0022410Y0124891D01*
X0022443Y0124744D01*
X0022473Y0124596D01*
X0022499Y0124448D01*
X0022520Y0124298D01*
X0022538Y0124149D01*
X0022552Y0123999D01*
X0022562Y0123848D01*
X0022568Y0123698D01*
X0022570Y0123547D01*
X0022568Y0123396D01*
X0022562Y0123246D01*
X0022552Y0123095D01*
X0022538Y0122945D01*
X0022520Y0122796D01*
X0022499Y0122646D01*
X0022473Y0122498D01*
X0022443Y0122350D01*
X0022410Y0122203D01*
X0022372Y0122057D01*
X0022331Y0121912D01*
X0022286Y0121768D01*
X0022237Y0121626D01*
X0022184Y0121485D01*
X0022128Y0121345D01*
X0022068Y0121207D01*
X0022005Y0121070D01*
X0021937Y0120935D01*
X0021867Y0120802D01*
X0021793Y0120671D01*
X0021715Y0120542D01*
X0021634Y0120415D01*
X0021550Y0120290D01*
X0021462Y0120167D01*
X0021371Y0120047D01*
X0021277Y0119929D01*
X0021180Y0119814D01*
X0021080Y0119701D01*
X0020977Y0119591D01*
X0020871Y0119484D01*
X0020762Y0119379D01*
X0020651Y0119278D01*
X0020537Y0119179D01*
X0020421Y0119084D01*
X0020301Y0118991D01*
X0020180Y0118902D01*
X0020056Y0118816D01*
X0019930Y0118733D01*
X0019802Y0118654D01*
X0019672Y0118578D01*
X0019540Y0118505D01*
X0019406Y0118437D01*
X0019270Y0118371D01*
X0019132Y0118309D01*
X0018993Y0118251D01*
X0018853Y0118197D01*
X0018711Y0118146D01*
X0018568Y0118099D01*
X0018423Y0118056D01*
X0018278Y0118017D01*
X0018131Y0117981D01*
X0017984Y0117950D01*
X0017836Y0117922D01*
X0017687Y0117898D01*
X0017538Y0117878D01*
X0017388Y0117862D01*
X0017238Y0117850D01*
X0017087Y0117842D01*
X0016936Y0117838D01*
X0016786Y0117838D01*
X0016635Y0117842D01*
X0016484Y0117850D01*
X0016334Y0117862D01*
X0016184Y0117878D01*
X0016035Y0117898D01*
X0015886Y0117922D01*
X0015738Y0117950D01*
X0015591Y0117981D01*
X0015444Y0118017D01*
X0015299Y0118056D01*
X0015154Y0118099D01*
X0015011Y0118146D01*
X0014869Y0118197D01*
X0014729Y0118251D01*
X0014590Y0118309D01*
X0014452Y0118371D01*
X0014316Y0118437D01*
X0014182Y0118505D01*
X0014050Y0118578D01*
X0013920Y0118654D01*
X0013792Y0118733D01*
X0013666Y0118816D01*
X0013542Y0118902D01*
X0013421Y0118991D01*
X0013301Y0119084D01*
X0013185Y0119179D01*
X0013071Y0119278D01*
X0012960Y0119379D01*
X0012851Y0119484D01*
X0012745Y0119591D01*
X0012642Y0119701D01*
X0012542Y0119814D01*
X0012445Y0119929D01*
X0012351Y0120047D01*
X0012260Y0120167D01*
X0012172Y0120290D01*
X0012088Y0120415D01*
X0012007Y0120542D01*
X0011929Y0120671D01*
X0011855Y0120802D01*
X0011785Y0120935D01*
X0011717Y0121070D01*
X0011654Y0121207D01*
X0011594Y0121345D01*
X0011538Y0121485D01*
X0011485Y0121626D01*
X0011436Y0121768D01*
X0011391Y0121912D01*
X0011350Y0122057D01*
X0011312Y0122203D01*
X0011279Y0122350D01*
X0011249Y0122498D01*
X0011223Y0122646D01*
X0011202Y0122796D01*
X0011184Y0122945D01*
X0011170Y0123095D01*
X0011160Y0123246D01*
X0011154Y0123396D01*
X0011152Y0123547D01*
X0007412Y0147169D02*
X0007414Y0147248D01*
X0007420Y0147327D01*
X0007430Y0147406D01*
X0007444Y0147484D01*
X0007461Y0147561D01*
X0007483Y0147637D01*
X0007508Y0147712D01*
X0007538Y0147785D01*
X0007570Y0147857D01*
X0007607Y0147928D01*
X0007647Y0147996D01*
X0007690Y0148062D01*
X0007736Y0148126D01*
X0007786Y0148188D01*
X0007839Y0148247D01*
X0007894Y0148303D01*
X0007953Y0148357D01*
X0008014Y0148407D01*
X0008077Y0148455D01*
X0008143Y0148499D01*
X0008211Y0148540D01*
X0008281Y0148577D01*
X0008352Y0148611D01*
X0008426Y0148641D01*
X0008500Y0148667D01*
X0008576Y0148689D01*
X0008653Y0148708D01*
X0008731Y0148723D01*
X0008809Y0148734D01*
X0008888Y0148741D01*
X0008967Y0148744D01*
X0009046Y0148743D01*
X0009125Y0148738D01*
X0009204Y0148729D01*
X0009282Y0148716D01*
X0009359Y0148699D01*
X0009436Y0148679D01*
X0009511Y0148654D01*
X0009585Y0148626D01*
X0009658Y0148594D01*
X0009728Y0148559D01*
X0009797Y0148520D01*
X0009864Y0148477D01*
X0009929Y0148431D01*
X0009991Y0148383D01*
X0010051Y0148331D01*
X0010108Y0148276D01*
X0010162Y0148218D01*
X0010213Y0148158D01*
X0010261Y0148095D01*
X0010306Y0148030D01*
X0010348Y0147962D01*
X0010386Y0147893D01*
X0010420Y0147822D01*
X0010451Y0147749D01*
X0010479Y0147674D01*
X0010502Y0147599D01*
X0010522Y0147522D01*
X0010538Y0147445D01*
X0010550Y0147366D01*
X0010558Y0147288D01*
X0010562Y0147209D01*
X0010562Y0147129D01*
X0010558Y0147050D01*
X0010550Y0146972D01*
X0010538Y0146893D01*
X0010522Y0146816D01*
X0010502Y0146739D01*
X0010479Y0146664D01*
X0010451Y0146589D01*
X0010420Y0146516D01*
X0010386Y0146445D01*
X0010348Y0146376D01*
X0010306Y0146308D01*
X0010261Y0146243D01*
X0010213Y0146180D01*
X0010162Y0146120D01*
X0010108Y0146062D01*
X0010051Y0146007D01*
X0009991Y0145955D01*
X0009929Y0145907D01*
X0009864Y0145861D01*
X0009797Y0145818D01*
X0009728Y0145779D01*
X0009658Y0145744D01*
X0009585Y0145712D01*
X0009511Y0145684D01*
X0009436Y0145659D01*
X0009359Y0145639D01*
X0009282Y0145622D01*
X0009204Y0145609D01*
X0009125Y0145600D01*
X0009046Y0145595D01*
X0008967Y0145594D01*
X0008888Y0145597D01*
X0008809Y0145604D01*
X0008731Y0145615D01*
X0008653Y0145630D01*
X0008576Y0145649D01*
X0008500Y0145671D01*
X0008426Y0145697D01*
X0008352Y0145727D01*
X0008281Y0145761D01*
X0008211Y0145798D01*
X0008143Y0145839D01*
X0008077Y0145883D01*
X0008014Y0145931D01*
X0007953Y0145981D01*
X0007894Y0146035D01*
X0007839Y0146091D01*
X0007786Y0146150D01*
X0007736Y0146212D01*
X0007690Y0146276D01*
X0007647Y0146342D01*
X0007607Y0146410D01*
X0007570Y0146481D01*
X0007538Y0146553D01*
X0007508Y0146626D01*
X0007483Y0146701D01*
X0007461Y0146777D01*
X0007444Y0146854D01*
X0007430Y0146932D01*
X0007420Y0147011D01*
X0007414Y0147090D01*
X0007412Y0147169D01*
X0023160Y0147169D02*
X0023162Y0147248D01*
X0023168Y0147327D01*
X0023178Y0147406D01*
X0023192Y0147484D01*
X0023209Y0147561D01*
X0023231Y0147637D01*
X0023256Y0147712D01*
X0023286Y0147785D01*
X0023318Y0147857D01*
X0023355Y0147928D01*
X0023395Y0147996D01*
X0023438Y0148062D01*
X0023484Y0148126D01*
X0023534Y0148188D01*
X0023587Y0148247D01*
X0023642Y0148303D01*
X0023701Y0148357D01*
X0023762Y0148407D01*
X0023825Y0148455D01*
X0023891Y0148499D01*
X0023959Y0148540D01*
X0024029Y0148577D01*
X0024100Y0148611D01*
X0024174Y0148641D01*
X0024248Y0148667D01*
X0024324Y0148689D01*
X0024401Y0148708D01*
X0024479Y0148723D01*
X0024557Y0148734D01*
X0024636Y0148741D01*
X0024715Y0148744D01*
X0024794Y0148743D01*
X0024873Y0148738D01*
X0024952Y0148729D01*
X0025030Y0148716D01*
X0025107Y0148699D01*
X0025184Y0148679D01*
X0025259Y0148654D01*
X0025333Y0148626D01*
X0025406Y0148594D01*
X0025476Y0148559D01*
X0025545Y0148520D01*
X0025612Y0148477D01*
X0025677Y0148431D01*
X0025739Y0148383D01*
X0025799Y0148331D01*
X0025856Y0148276D01*
X0025910Y0148218D01*
X0025961Y0148158D01*
X0026009Y0148095D01*
X0026054Y0148030D01*
X0026096Y0147962D01*
X0026134Y0147893D01*
X0026168Y0147822D01*
X0026199Y0147749D01*
X0026227Y0147674D01*
X0026250Y0147599D01*
X0026270Y0147522D01*
X0026286Y0147445D01*
X0026298Y0147366D01*
X0026306Y0147288D01*
X0026310Y0147209D01*
X0026310Y0147129D01*
X0026306Y0147050D01*
X0026298Y0146972D01*
X0026286Y0146893D01*
X0026270Y0146816D01*
X0026250Y0146739D01*
X0026227Y0146664D01*
X0026199Y0146589D01*
X0026168Y0146516D01*
X0026134Y0146445D01*
X0026096Y0146376D01*
X0026054Y0146308D01*
X0026009Y0146243D01*
X0025961Y0146180D01*
X0025910Y0146120D01*
X0025856Y0146062D01*
X0025799Y0146007D01*
X0025739Y0145955D01*
X0025677Y0145907D01*
X0025612Y0145861D01*
X0025545Y0145818D01*
X0025476Y0145779D01*
X0025406Y0145744D01*
X0025333Y0145712D01*
X0025259Y0145684D01*
X0025184Y0145659D01*
X0025107Y0145639D01*
X0025030Y0145622D01*
X0024952Y0145609D01*
X0024873Y0145600D01*
X0024794Y0145595D01*
X0024715Y0145594D01*
X0024636Y0145597D01*
X0024557Y0145604D01*
X0024479Y0145615D01*
X0024401Y0145630D01*
X0024324Y0145649D01*
X0024248Y0145671D01*
X0024174Y0145697D01*
X0024100Y0145727D01*
X0024029Y0145761D01*
X0023959Y0145798D01*
X0023891Y0145839D01*
X0023825Y0145883D01*
X0023762Y0145931D01*
X0023701Y0145981D01*
X0023642Y0146035D01*
X0023587Y0146091D01*
X0023534Y0146150D01*
X0023484Y0146212D01*
X0023438Y0146276D01*
X0023395Y0146342D01*
X0023355Y0146410D01*
X0023318Y0146481D01*
X0023286Y0146553D01*
X0023256Y0146626D01*
X0023231Y0146701D01*
X0023209Y0146777D01*
X0023192Y0146854D01*
X0023178Y0146932D01*
X0023168Y0147011D01*
X0023162Y0147090D01*
X0023160Y0147169D01*
D11*
X0016861Y0123547D03*
X0016861Y0037917D03*
D12*
X0024735Y0060555D03*
X0007019Y0060555D03*
X0008987Y0147169D03*
X0024735Y0147169D03*
D13*
X0025719Y0071382D03*
X0025719Y0065476D03*
X0022767Y0065476D03*
X0022767Y0071382D03*
X0019814Y0071382D03*
X0019814Y0065476D03*
X0016861Y0065476D03*
X0016861Y0071382D03*
X0013908Y0071382D03*
X0013908Y0065476D03*
X0010956Y0065476D03*
X0010956Y0071382D03*
X0008003Y0071382D03*
X0008003Y0065476D03*
X0005050Y0065476D03*
X0005050Y0071382D03*
X0028672Y0071382D03*
D14*
X0022767Y0077878D02*
X0022767Y0082602D01*
X0010956Y0082602D02*
X0010956Y0077878D01*
M02*
