G75*
%MOIN*%
%OFA0B0*%
%FSLAX25Y25*%
%IPPOS*%
%LPD*%
%AMOC8*
5,1,8,0,0,1.08239X$1,22.5*
%
%ADD10C,0.00000*%
%ADD11C,0.00500*%
%ADD12C,0.00300*%
D10*
X0332500Y0240748D02*
X0332500Y0486811D01*
X0332505Y0487192D01*
X0332518Y0487572D01*
X0332541Y0487952D01*
X0332574Y0488331D01*
X0332615Y0488709D01*
X0332665Y0489086D01*
X0332725Y0489462D01*
X0332793Y0489837D01*
X0332871Y0490209D01*
X0332958Y0490580D01*
X0333053Y0490948D01*
X0333158Y0491314D01*
X0333271Y0491677D01*
X0333393Y0492038D01*
X0333523Y0492395D01*
X0333663Y0492749D01*
X0333810Y0493100D01*
X0333967Y0493447D01*
X0334131Y0493790D01*
X0334304Y0494129D01*
X0334485Y0494464D01*
X0334674Y0494795D01*
X0334871Y0495120D01*
X0335075Y0495441D01*
X0335288Y0495757D01*
X0335508Y0496067D01*
X0335735Y0496373D01*
X0335970Y0496672D01*
X0336212Y0496966D01*
X0336460Y0497254D01*
X0336716Y0497536D01*
X0336979Y0497811D01*
X0337248Y0498080D01*
X0337523Y0498343D01*
X0337805Y0498599D01*
X0338093Y0498847D01*
X0338387Y0499089D01*
X0338686Y0499324D01*
X0338992Y0499551D01*
X0339302Y0499771D01*
X0339618Y0499984D01*
X0339939Y0500188D01*
X0340264Y0500385D01*
X0340595Y0500574D01*
X0340930Y0500755D01*
X0341269Y0500928D01*
X0341612Y0501092D01*
X0341959Y0501249D01*
X0342310Y0501396D01*
X0342664Y0501536D01*
X0343021Y0501666D01*
X0343382Y0501788D01*
X0343745Y0501901D01*
X0344111Y0502006D01*
X0344479Y0502101D01*
X0344850Y0502188D01*
X0345222Y0502266D01*
X0345597Y0502334D01*
X0345973Y0502394D01*
X0346350Y0502444D01*
X0346728Y0502485D01*
X0347107Y0502518D01*
X0347487Y0502541D01*
X0347867Y0502554D01*
X0348248Y0502559D01*
X0651398Y0502559D01*
X0651779Y0502554D01*
X0652159Y0502541D01*
X0652539Y0502518D01*
X0652918Y0502485D01*
X0653296Y0502444D01*
X0653673Y0502394D01*
X0654049Y0502334D01*
X0654424Y0502266D01*
X0654796Y0502188D01*
X0655167Y0502101D01*
X0655535Y0502006D01*
X0655901Y0501901D01*
X0656264Y0501788D01*
X0656625Y0501666D01*
X0656982Y0501536D01*
X0657336Y0501396D01*
X0657687Y0501249D01*
X0658034Y0501092D01*
X0658377Y0500928D01*
X0658716Y0500755D01*
X0659051Y0500574D01*
X0659382Y0500385D01*
X0659707Y0500188D01*
X0660028Y0499984D01*
X0660344Y0499771D01*
X0660654Y0499551D01*
X0660960Y0499324D01*
X0661259Y0499089D01*
X0661553Y0498847D01*
X0661841Y0498599D01*
X0662123Y0498343D01*
X0662398Y0498080D01*
X0662667Y0497811D01*
X0662930Y0497536D01*
X0663186Y0497254D01*
X0663434Y0496966D01*
X0663676Y0496672D01*
X0663911Y0496373D01*
X0664138Y0496067D01*
X0664358Y0495757D01*
X0664571Y0495441D01*
X0664775Y0495120D01*
X0664972Y0494795D01*
X0665161Y0494464D01*
X0665342Y0494129D01*
X0665515Y0493790D01*
X0665679Y0493447D01*
X0665836Y0493100D01*
X0665983Y0492749D01*
X0666123Y0492395D01*
X0666253Y0492038D01*
X0666375Y0491677D01*
X0666488Y0491314D01*
X0666593Y0490948D01*
X0666688Y0490580D01*
X0666775Y0490209D01*
X0666853Y0489837D01*
X0666921Y0489462D01*
X0666981Y0489086D01*
X0667031Y0488709D01*
X0667072Y0488331D01*
X0667105Y0487952D01*
X0667128Y0487572D01*
X0667141Y0487192D01*
X0667146Y0486811D01*
X0667146Y0401874D01*
X0667144Y0401684D01*
X0667137Y0401494D01*
X0667125Y0401304D01*
X0667109Y0401114D01*
X0667089Y0400925D01*
X0667063Y0400736D01*
X0667034Y0400548D01*
X0666999Y0400361D01*
X0666960Y0400175D01*
X0666917Y0399990D01*
X0666869Y0399805D01*
X0666817Y0399622D01*
X0666761Y0399441D01*
X0666700Y0399261D01*
X0666634Y0399082D01*
X0666565Y0398905D01*
X0666491Y0398729D01*
X0666413Y0398556D01*
X0666330Y0398384D01*
X0666244Y0398215D01*
X0666154Y0398047D01*
X0666059Y0397882D01*
X0665961Y0397719D01*
X0665858Y0397559D01*
X0665752Y0397401D01*
X0665642Y0397246D01*
X0665529Y0397093D01*
X0665411Y0396943D01*
X0665290Y0396797D01*
X0665166Y0396653D01*
X0665038Y0396512D01*
X0664907Y0396374D01*
X0664772Y0396239D01*
X0664634Y0396108D01*
X0664493Y0395980D01*
X0664349Y0395856D01*
X0664203Y0395735D01*
X0664053Y0395617D01*
X0663900Y0395504D01*
X0663745Y0395394D01*
X0663587Y0395288D01*
X0663427Y0395185D01*
X0663264Y0395087D01*
X0663099Y0394992D01*
X0662931Y0394902D01*
X0662762Y0394816D01*
X0662590Y0394733D01*
X0662417Y0394655D01*
X0662241Y0394581D01*
X0662064Y0394512D01*
X0661885Y0394446D01*
X0661705Y0394385D01*
X0661524Y0394329D01*
X0661341Y0394277D01*
X0661156Y0394229D01*
X0660971Y0394186D01*
X0660785Y0394147D01*
X0660598Y0394112D01*
X0660410Y0394083D01*
X0660221Y0394057D01*
X0660032Y0394037D01*
X0659842Y0394021D01*
X0659652Y0394009D01*
X0659462Y0394002D01*
X0659272Y0394000D01*
X0630500Y0394000D01*
X0630500Y0324000D01*
X0659272Y0324000D01*
X0659462Y0323998D01*
X0659652Y0323991D01*
X0659842Y0323979D01*
X0660032Y0323963D01*
X0660221Y0323943D01*
X0660410Y0323917D01*
X0660598Y0323888D01*
X0660785Y0323853D01*
X0660971Y0323814D01*
X0661156Y0323771D01*
X0661341Y0323723D01*
X0661524Y0323671D01*
X0661705Y0323615D01*
X0661885Y0323554D01*
X0662064Y0323488D01*
X0662241Y0323419D01*
X0662417Y0323345D01*
X0662590Y0323267D01*
X0662762Y0323184D01*
X0662931Y0323098D01*
X0663099Y0323008D01*
X0663264Y0322913D01*
X0663427Y0322815D01*
X0663587Y0322712D01*
X0663745Y0322606D01*
X0663900Y0322496D01*
X0664053Y0322383D01*
X0664203Y0322265D01*
X0664349Y0322144D01*
X0664493Y0322020D01*
X0664634Y0321892D01*
X0664772Y0321761D01*
X0664907Y0321626D01*
X0665038Y0321488D01*
X0665166Y0321347D01*
X0665290Y0321203D01*
X0665411Y0321057D01*
X0665529Y0320907D01*
X0665642Y0320754D01*
X0665752Y0320599D01*
X0665858Y0320441D01*
X0665961Y0320281D01*
X0666059Y0320118D01*
X0666154Y0319953D01*
X0666244Y0319785D01*
X0666330Y0319616D01*
X0666413Y0319444D01*
X0666491Y0319271D01*
X0666565Y0319095D01*
X0666634Y0318918D01*
X0666700Y0318739D01*
X0666761Y0318559D01*
X0666817Y0318378D01*
X0666869Y0318195D01*
X0666917Y0318010D01*
X0666960Y0317825D01*
X0666999Y0317639D01*
X0667034Y0317452D01*
X0667063Y0317264D01*
X0667089Y0317075D01*
X0667109Y0316886D01*
X0667125Y0316696D01*
X0667137Y0316506D01*
X0667144Y0316316D01*
X0667146Y0316126D01*
X0667146Y0240748D01*
X0667141Y0240367D01*
X0667128Y0239987D01*
X0667105Y0239607D01*
X0667072Y0239228D01*
X0667031Y0238850D01*
X0666981Y0238473D01*
X0666921Y0238097D01*
X0666853Y0237722D01*
X0666775Y0237350D01*
X0666688Y0236979D01*
X0666593Y0236611D01*
X0666488Y0236245D01*
X0666375Y0235882D01*
X0666253Y0235521D01*
X0666123Y0235164D01*
X0665983Y0234810D01*
X0665836Y0234459D01*
X0665679Y0234112D01*
X0665515Y0233769D01*
X0665342Y0233430D01*
X0665161Y0233095D01*
X0664972Y0232764D01*
X0664775Y0232439D01*
X0664571Y0232118D01*
X0664358Y0231802D01*
X0664138Y0231492D01*
X0663911Y0231186D01*
X0663676Y0230887D01*
X0663434Y0230593D01*
X0663186Y0230305D01*
X0662930Y0230023D01*
X0662667Y0229748D01*
X0662398Y0229479D01*
X0662123Y0229216D01*
X0661841Y0228960D01*
X0661553Y0228712D01*
X0661259Y0228470D01*
X0660960Y0228235D01*
X0660654Y0228008D01*
X0660344Y0227788D01*
X0660028Y0227575D01*
X0659707Y0227371D01*
X0659382Y0227174D01*
X0659051Y0226985D01*
X0658716Y0226804D01*
X0658377Y0226631D01*
X0658034Y0226467D01*
X0657687Y0226310D01*
X0657336Y0226163D01*
X0656982Y0226023D01*
X0656625Y0225893D01*
X0656264Y0225771D01*
X0655901Y0225658D01*
X0655535Y0225553D01*
X0655167Y0225458D01*
X0654796Y0225371D01*
X0654424Y0225293D01*
X0654049Y0225225D01*
X0653673Y0225165D01*
X0653296Y0225115D01*
X0652918Y0225074D01*
X0652539Y0225041D01*
X0652159Y0225018D01*
X0651779Y0225005D01*
X0651398Y0225000D01*
X0348248Y0225000D01*
X0347867Y0225005D01*
X0347487Y0225018D01*
X0347107Y0225041D01*
X0346728Y0225074D01*
X0346350Y0225115D01*
X0345973Y0225165D01*
X0345597Y0225225D01*
X0345222Y0225293D01*
X0344850Y0225371D01*
X0344479Y0225458D01*
X0344111Y0225553D01*
X0343745Y0225658D01*
X0343382Y0225771D01*
X0343021Y0225893D01*
X0342664Y0226023D01*
X0342310Y0226163D01*
X0341959Y0226310D01*
X0341612Y0226467D01*
X0341269Y0226631D01*
X0340930Y0226804D01*
X0340595Y0226985D01*
X0340264Y0227174D01*
X0339939Y0227371D01*
X0339618Y0227575D01*
X0339302Y0227788D01*
X0338992Y0228008D01*
X0338686Y0228235D01*
X0338387Y0228470D01*
X0338093Y0228712D01*
X0337805Y0228960D01*
X0337523Y0229216D01*
X0337248Y0229479D01*
X0336979Y0229748D01*
X0336716Y0230023D01*
X0336460Y0230305D01*
X0336212Y0230593D01*
X0335970Y0230887D01*
X0335735Y0231186D01*
X0335508Y0231492D01*
X0335288Y0231802D01*
X0335075Y0232118D01*
X0334871Y0232439D01*
X0334674Y0232764D01*
X0334485Y0233095D01*
X0334304Y0233430D01*
X0334131Y0233769D01*
X0333967Y0234112D01*
X0333810Y0234459D01*
X0333663Y0234810D01*
X0333523Y0235164D01*
X0333393Y0235521D01*
X0333271Y0235882D01*
X0333158Y0236245D01*
X0333053Y0236611D01*
X0332958Y0236979D01*
X0332871Y0237350D01*
X0332793Y0237722D01*
X0332725Y0238097D01*
X0332665Y0238473D01*
X0332615Y0238850D01*
X0332574Y0239228D01*
X0332541Y0239607D01*
X0332518Y0239987D01*
X0332505Y0240367D01*
X0332500Y0240748D01*
X0432224Y0245000D02*
X0432226Y0245088D01*
X0432232Y0245176D01*
X0432242Y0245264D01*
X0432256Y0245352D01*
X0432273Y0245438D01*
X0432295Y0245524D01*
X0432320Y0245608D01*
X0432350Y0245692D01*
X0432382Y0245774D01*
X0432419Y0245854D01*
X0432459Y0245933D01*
X0432503Y0246010D01*
X0432550Y0246085D01*
X0432600Y0246157D01*
X0432654Y0246228D01*
X0432710Y0246295D01*
X0432770Y0246361D01*
X0432832Y0246423D01*
X0432898Y0246483D01*
X0432965Y0246539D01*
X0433036Y0246593D01*
X0433108Y0246643D01*
X0433183Y0246690D01*
X0433260Y0246734D01*
X0433339Y0246774D01*
X0433419Y0246811D01*
X0433501Y0246843D01*
X0433585Y0246873D01*
X0433669Y0246898D01*
X0433755Y0246920D01*
X0433841Y0246937D01*
X0433929Y0246951D01*
X0434017Y0246961D01*
X0434105Y0246967D01*
X0434193Y0246969D01*
X0434281Y0246967D01*
X0434369Y0246961D01*
X0434457Y0246951D01*
X0434545Y0246937D01*
X0434631Y0246920D01*
X0434717Y0246898D01*
X0434801Y0246873D01*
X0434885Y0246843D01*
X0434967Y0246811D01*
X0435047Y0246774D01*
X0435126Y0246734D01*
X0435203Y0246690D01*
X0435278Y0246643D01*
X0435350Y0246593D01*
X0435421Y0246539D01*
X0435488Y0246483D01*
X0435554Y0246423D01*
X0435616Y0246361D01*
X0435676Y0246295D01*
X0435732Y0246228D01*
X0435786Y0246157D01*
X0435836Y0246085D01*
X0435883Y0246010D01*
X0435927Y0245933D01*
X0435967Y0245854D01*
X0436004Y0245774D01*
X0436036Y0245692D01*
X0436066Y0245608D01*
X0436091Y0245524D01*
X0436113Y0245438D01*
X0436130Y0245352D01*
X0436144Y0245264D01*
X0436154Y0245176D01*
X0436160Y0245088D01*
X0436162Y0245000D01*
X0436160Y0244912D01*
X0436154Y0244824D01*
X0436144Y0244736D01*
X0436130Y0244648D01*
X0436113Y0244562D01*
X0436091Y0244476D01*
X0436066Y0244392D01*
X0436036Y0244308D01*
X0436004Y0244226D01*
X0435967Y0244146D01*
X0435927Y0244067D01*
X0435883Y0243990D01*
X0435836Y0243915D01*
X0435786Y0243843D01*
X0435732Y0243772D01*
X0435676Y0243705D01*
X0435616Y0243639D01*
X0435554Y0243577D01*
X0435488Y0243517D01*
X0435421Y0243461D01*
X0435350Y0243407D01*
X0435278Y0243357D01*
X0435203Y0243310D01*
X0435126Y0243266D01*
X0435047Y0243226D01*
X0434967Y0243189D01*
X0434885Y0243157D01*
X0434801Y0243127D01*
X0434717Y0243102D01*
X0434631Y0243080D01*
X0434545Y0243063D01*
X0434457Y0243049D01*
X0434369Y0243039D01*
X0434281Y0243033D01*
X0434193Y0243031D01*
X0434105Y0243033D01*
X0434017Y0243039D01*
X0433929Y0243049D01*
X0433841Y0243063D01*
X0433755Y0243080D01*
X0433669Y0243102D01*
X0433585Y0243127D01*
X0433501Y0243157D01*
X0433419Y0243189D01*
X0433339Y0243226D01*
X0433260Y0243266D01*
X0433183Y0243310D01*
X0433108Y0243357D01*
X0433036Y0243407D01*
X0432965Y0243461D01*
X0432898Y0243517D01*
X0432832Y0243577D01*
X0432770Y0243639D01*
X0432710Y0243705D01*
X0432654Y0243772D01*
X0432600Y0243843D01*
X0432550Y0243915D01*
X0432503Y0243990D01*
X0432459Y0244067D01*
X0432419Y0244146D01*
X0432382Y0244226D01*
X0432350Y0244308D01*
X0432320Y0244392D01*
X0432295Y0244476D01*
X0432273Y0244562D01*
X0432256Y0244648D01*
X0432242Y0244736D01*
X0432232Y0244824D01*
X0432226Y0244912D01*
X0432224Y0245000D01*
X0518838Y0245000D02*
X0518840Y0245088D01*
X0518846Y0245176D01*
X0518856Y0245264D01*
X0518870Y0245352D01*
X0518887Y0245438D01*
X0518909Y0245524D01*
X0518934Y0245608D01*
X0518964Y0245692D01*
X0518996Y0245774D01*
X0519033Y0245854D01*
X0519073Y0245933D01*
X0519117Y0246010D01*
X0519164Y0246085D01*
X0519214Y0246157D01*
X0519268Y0246228D01*
X0519324Y0246295D01*
X0519384Y0246361D01*
X0519446Y0246423D01*
X0519512Y0246483D01*
X0519579Y0246539D01*
X0519650Y0246593D01*
X0519722Y0246643D01*
X0519797Y0246690D01*
X0519874Y0246734D01*
X0519953Y0246774D01*
X0520033Y0246811D01*
X0520115Y0246843D01*
X0520199Y0246873D01*
X0520283Y0246898D01*
X0520369Y0246920D01*
X0520455Y0246937D01*
X0520543Y0246951D01*
X0520631Y0246961D01*
X0520719Y0246967D01*
X0520807Y0246969D01*
X0520895Y0246967D01*
X0520983Y0246961D01*
X0521071Y0246951D01*
X0521159Y0246937D01*
X0521245Y0246920D01*
X0521331Y0246898D01*
X0521415Y0246873D01*
X0521499Y0246843D01*
X0521581Y0246811D01*
X0521661Y0246774D01*
X0521740Y0246734D01*
X0521817Y0246690D01*
X0521892Y0246643D01*
X0521964Y0246593D01*
X0522035Y0246539D01*
X0522102Y0246483D01*
X0522168Y0246423D01*
X0522230Y0246361D01*
X0522290Y0246295D01*
X0522346Y0246228D01*
X0522400Y0246157D01*
X0522450Y0246085D01*
X0522497Y0246010D01*
X0522541Y0245933D01*
X0522581Y0245854D01*
X0522618Y0245774D01*
X0522650Y0245692D01*
X0522680Y0245608D01*
X0522705Y0245524D01*
X0522727Y0245438D01*
X0522744Y0245352D01*
X0522758Y0245264D01*
X0522768Y0245176D01*
X0522774Y0245088D01*
X0522776Y0245000D01*
X0522774Y0244912D01*
X0522768Y0244824D01*
X0522758Y0244736D01*
X0522744Y0244648D01*
X0522727Y0244562D01*
X0522705Y0244476D01*
X0522680Y0244392D01*
X0522650Y0244308D01*
X0522618Y0244226D01*
X0522581Y0244146D01*
X0522541Y0244067D01*
X0522497Y0243990D01*
X0522450Y0243915D01*
X0522400Y0243843D01*
X0522346Y0243772D01*
X0522290Y0243705D01*
X0522230Y0243639D01*
X0522168Y0243577D01*
X0522102Y0243517D01*
X0522035Y0243461D01*
X0521964Y0243407D01*
X0521892Y0243357D01*
X0521817Y0243310D01*
X0521740Y0243266D01*
X0521661Y0243226D01*
X0521581Y0243189D01*
X0521499Y0243157D01*
X0521415Y0243127D01*
X0521331Y0243102D01*
X0521245Y0243080D01*
X0521159Y0243063D01*
X0521071Y0243049D01*
X0520983Y0243039D01*
X0520895Y0243033D01*
X0520807Y0243031D01*
X0520719Y0243033D01*
X0520631Y0243039D01*
X0520543Y0243049D01*
X0520455Y0243063D01*
X0520369Y0243080D01*
X0520283Y0243102D01*
X0520199Y0243127D01*
X0520115Y0243157D01*
X0520033Y0243189D01*
X0519953Y0243226D01*
X0519874Y0243266D01*
X0519797Y0243310D01*
X0519722Y0243357D01*
X0519650Y0243407D01*
X0519579Y0243461D01*
X0519512Y0243517D01*
X0519446Y0243577D01*
X0519384Y0243639D01*
X0519324Y0243705D01*
X0519268Y0243772D01*
X0519214Y0243843D01*
X0519164Y0243915D01*
X0519117Y0243990D01*
X0519073Y0244067D01*
X0519033Y0244146D01*
X0518996Y0244226D01*
X0518964Y0244308D01*
X0518934Y0244392D01*
X0518909Y0244476D01*
X0518887Y0244562D01*
X0518870Y0244648D01*
X0518856Y0244736D01*
X0518846Y0244824D01*
X0518840Y0244912D01*
X0518838Y0245000D01*
X0594508Y0336497D02*
X0594510Y0336658D01*
X0594516Y0336818D01*
X0594526Y0336979D01*
X0594540Y0337139D01*
X0594558Y0337298D01*
X0594579Y0337458D01*
X0594605Y0337616D01*
X0594635Y0337774D01*
X0594668Y0337931D01*
X0594706Y0338088D01*
X0594747Y0338243D01*
X0594792Y0338397D01*
X0594841Y0338550D01*
X0594894Y0338702D01*
X0594950Y0338852D01*
X0595010Y0339001D01*
X0595074Y0339149D01*
X0595141Y0339295D01*
X0595212Y0339439D01*
X0595287Y0339581D01*
X0595365Y0339722D01*
X0595446Y0339860D01*
X0595531Y0339997D01*
X0595620Y0340131D01*
X0595711Y0340263D01*
X0595806Y0340393D01*
X0595904Y0340520D01*
X0596005Y0340645D01*
X0596109Y0340768D01*
X0596216Y0340887D01*
X0596326Y0341004D01*
X0596439Y0341119D01*
X0596555Y0341230D01*
X0596673Y0341339D01*
X0596794Y0341444D01*
X0596918Y0341547D01*
X0597044Y0341647D01*
X0597173Y0341743D01*
X0597304Y0341836D01*
X0597437Y0341926D01*
X0597572Y0342013D01*
X0597710Y0342096D01*
X0597849Y0342175D01*
X0597991Y0342252D01*
X0598134Y0342325D01*
X0598279Y0342394D01*
X0598426Y0342459D01*
X0598574Y0342521D01*
X0598724Y0342580D01*
X0598875Y0342634D01*
X0599027Y0342685D01*
X0599181Y0342732D01*
X0599336Y0342775D01*
X0599491Y0342814D01*
X0599648Y0342850D01*
X0599806Y0342882D01*
X0599964Y0342909D01*
X0600123Y0342933D01*
X0600282Y0342953D01*
X0600442Y0342969D01*
X0600603Y0342981D01*
X0600763Y0342989D01*
X0600924Y0342993D01*
X0601084Y0342993D01*
X0601245Y0342989D01*
X0601405Y0342981D01*
X0601566Y0342969D01*
X0601726Y0342953D01*
X0601885Y0342933D01*
X0602044Y0342909D01*
X0602202Y0342882D01*
X0602360Y0342850D01*
X0602517Y0342814D01*
X0602672Y0342775D01*
X0602827Y0342732D01*
X0602981Y0342685D01*
X0603133Y0342634D01*
X0603284Y0342580D01*
X0603434Y0342521D01*
X0603582Y0342459D01*
X0603729Y0342394D01*
X0603874Y0342325D01*
X0604017Y0342252D01*
X0604159Y0342175D01*
X0604298Y0342096D01*
X0604436Y0342013D01*
X0604571Y0341926D01*
X0604704Y0341836D01*
X0604835Y0341743D01*
X0604964Y0341647D01*
X0605090Y0341547D01*
X0605214Y0341444D01*
X0605335Y0341339D01*
X0605453Y0341230D01*
X0605569Y0341119D01*
X0605682Y0341004D01*
X0605792Y0340887D01*
X0605899Y0340768D01*
X0606003Y0340645D01*
X0606104Y0340520D01*
X0606202Y0340393D01*
X0606297Y0340263D01*
X0606388Y0340131D01*
X0606477Y0339997D01*
X0606562Y0339860D01*
X0606643Y0339722D01*
X0606721Y0339581D01*
X0606796Y0339439D01*
X0606867Y0339295D01*
X0606934Y0339149D01*
X0606998Y0339001D01*
X0607058Y0338852D01*
X0607114Y0338702D01*
X0607167Y0338550D01*
X0607216Y0338397D01*
X0607261Y0338243D01*
X0607302Y0338088D01*
X0607340Y0337931D01*
X0607373Y0337774D01*
X0607403Y0337616D01*
X0607429Y0337458D01*
X0607450Y0337298D01*
X0607468Y0337139D01*
X0607482Y0336979D01*
X0607492Y0336818D01*
X0607498Y0336658D01*
X0607500Y0336497D01*
X0607498Y0336336D01*
X0607492Y0336176D01*
X0607482Y0336015D01*
X0607468Y0335855D01*
X0607450Y0335696D01*
X0607429Y0335536D01*
X0607403Y0335378D01*
X0607373Y0335220D01*
X0607340Y0335063D01*
X0607302Y0334906D01*
X0607261Y0334751D01*
X0607216Y0334597D01*
X0607167Y0334444D01*
X0607114Y0334292D01*
X0607058Y0334142D01*
X0606998Y0333993D01*
X0606934Y0333845D01*
X0606867Y0333699D01*
X0606796Y0333555D01*
X0606721Y0333413D01*
X0606643Y0333272D01*
X0606562Y0333134D01*
X0606477Y0332997D01*
X0606388Y0332863D01*
X0606297Y0332731D01*
X0606202Y0332601D01*
X0606104Y0332474D01*
X0606003Y0332349D01*
X0605899Y0332226D01*
X0605792Y0332107D01*
X0605682Y0331990D01*
X0605569Y0331875D01*
X0605453Y0331764D01*
X0605335Y0331655D01*
X0605214Y0331550D01*
X0605090Y0331447D01*
X0604964Y0331347D01*
X0604835Y0331251D01*
X0604704Y0331158D01*
X0604571Y0331068D01*
X0604436Y0330981D01*
X0604298Y0330898D01*
X0604159Y0330819D01*
X0604017Y0330742D01*
X0603874Y0330669D01*
X0603729Y0330600D01*
X0603582Y0330535D01*
X0603434Y0330473D01*
X0603284Y0330414D01*
X0603133Y0330360D01*
X0602981Y0330309D01*
X0602827Y0330262D01*
X0602672Y0330219D01*
X0602517Y0330180D01*
X0602360Y0330144D01*
X0602202Y0330112D01*
X0602044Y0330085D01*
X0601885Y0330061D01*
X0601726Y0330041D01*
X0601566Y0330025D01*
X0601405Y0330013D01*
X0601245Y0330005D01*
X0601084Y0330001D01*
X0600924Y0330001D01*
X0600763Y0330005D01*
X0600603Y0330013D01*
X0600442Y0330025D01*
X0600282Y0330041D01*
X0600123Y0330061D01*
X0599964Y0330085D01*
X0599806Y0330112D01*
X0599648Y0330144D01*
X0599491Y0330180D01*
X0599336Y0330219D01*
X0599181Y0330262D01*
X0599027Y0330309D01*
X0598875Y0330360D01*
X0598724Y0330414D01*
X0598574Y0330473D01*
X0598426Y0330535D01*
X0598279Y0330600D01*
X0598134Y0330669D01*
X0597991Y0330742D01*
X0597849Y0330819D01*
X0597710Y0330898D01*
X0597572Y0330981D01*
X0597437Y0331068D01*
X0597304Y0331158D01*
X0597173Y0331251D01*
X0597044Y0331347D01*
X0596918Y0331447D01*
X0596794Y0331550D01*
X0596673Y0331655D01*
X0596555Y0331764D01*
X0596439Y0331875D01*
X0596326Y0331990D01*
X0596216Y0332107D01*
X0596109Y0332226D01*
X0596005Y0332349D01*
X0595904Y0332474D01*
X0595806Y0332601D01*
X0595711Y0332731D01*
X0595620Y0332863D01*
X0595531Y0332997D01*
X0595446Y0333134D01*
X0595365Y0333272D01*
X0595287Y0333413D01*
X0595212Y0333555D01*
X0595141Y0333699D01*
X0595074Y0333845D01*
X0595010Y0333993D01*
X0594950Y0334142D01*
X0594894Y0334292D01*
X0594841Y0334444D01*
X0594792Y0334597D01*
X0594747Y0334751D01*
X0594706Y0334906D01*
X0594668Y0335063D01*
X0594635Y0335220D01*
X0594605Y0335378D01*
X0594579Y0335536D01*
X0594558Y0335696D01*
X0594540Y0335855D01*
X0594526Y0336015D01*
X0594516Y0336176D01*
X0594510Y0336336D01*
X0594508Y0336497D01*
X0594508Y0381497D02*
X0594510Y0381658D01*
X0594516Y0381818D01*
X0594526Y0381979D01*
X0594540Y0382139D01*
X0594558Y0382298D01*
X0594579Y0382458D01*
X0594605Y0382616D01*
X0594635Y0382774D01*
X0594668Y0382931D01*
X0594706Y0383088D01*
X0594747Y0383243D01*
X0594792Y0383397D01*
X0594841Y0383550D01*
X0594894Y0383702D01*
X0594950Y0383852D01*
X0595010Y0384001D01*
X0595074Y0384149D01*
X0595141Y0384295D01*
X0595212Y0384439D01*
X0595287Y0384581D01*
X0595365Y0384722D01*
X0595446Y0384860D01*
X0595531Y0384997D01*
X0595620Y0385131D01*
X0595711Y0385263D01*
X0595806Y0385393D01*
X0595904Y0385520D01*
X0596005Y0385645D01*
X0596109Y0385768D01*
X0596216Y0385887D01*
X0596326Y0386004D01*
X0596439Y0386119D01*
X0596555Y0386230D01*
X0596673Y0386339D01*
X0596794Y0386444D01*
X0596918Y0386547D01*
X0597044Y0386647D01*
X0597173Y0386743D01*
X0597304Y0386836D01*
X0597437Y0386926D01*
X0597572Y0387013D01*
X0597710Y0387096D01*
X0597849Y0387175D01*
X0597991Y0387252D01*
X0598134Y0387325D01*
X0598279Y0387394D01*
X0598426Y0387459D01*
X0598574Y0387521D01*
X0598724Y0387580D01*
X0598875Y0387634D01*
X0599027Y0387685D01*
X0599181Y0387732D01*
X0599336Y0387775D01*
X0599491Y0387814D01*
X0599648Y0387850D01*
X0599806Y0387882D01*
X0599964Y0387909D01*
X0600123Y0387933D01*
X0600282Y0387953D01*
X0600442Y0387969D01*
X0600603Y0387981D01*
X0600763Y0387989D01*
X0600924Y0387993D01*
X0601084Y0387993D01*
X0601245Y0387989D01*
X0601405Y0387981D01*
X0601566Y0387969D01*
X0601726Y0387953D01*
X0601885Y0387933D01*
X0602044Y0387909D01*
X0602202Y0387882D01*
X0602360Y0387850D01*
X0602517Y0387814D01*
X0602672Y0387775D01*
X0602827Y0387732D01*
X0602981Y0387685D01*
X0603133Y0387634D01*
X0603284Y0387580D01*
X0603434Y0387521D01*
X0603582Y0387459D01*
X0603729Y0387394D01*
X0603874Y0387325D01*
X0604017Y0387252D01*
X0604159Y0387175D01*
X0604298Y0387096D01*
X0604436Y0387013D01*
X0604571Y0386926D01*
X0604704Y0386836D01*
X0604835Y0386743D01*
X0604964Y0386647D01*
X0605090Y0386547D01*
X0605214Y0386444D01*
X0605335Y0386339D01*
X0605453Y0386230D01*
X0605569Y0386119D01*
X0605682Y0386004D01*
X0605792Y0385887D01*
X0605899Y0385768D01*
X0606003Y0385645D01*
X0606104Y0385520D01*
X0606202Y0385393D01*
X0606297Y0385263D01*
X0606388Y0385131D01*
X0606477Y0384997D01*
X0606562Y0384860D01*
X0606643Y0384722D01*
X0606721Y0384581D01*
X0606796Y0384439D01*
X0606867Y0384295D01*
X0606934Y0384149D01*
X0606998Y0384001D01*
X0607058Y0383852D01*
X0607114Y0383702D01*
X0607167Y0383550D01*
X0607216Y0383397D01*
X0607261Y0383243D01*
X0607302Y0383088D01*
X0607340Y0382931D01*
X0607373Y0382774D01*
X0607403Y0382616D01*
X0607429Y0382458D01*
X0607450Y0382298D01*
X0607468Y0382139D01*
X0607482Y0381979D01*
X0607492Y0381818D01*
X0607498Y0381658D01*
X0607500Y0381497D01*
X0607498Y0381336D01*
X0607492Y0381176D01*
X0607482Y0381015D01*
X0607468Y0380855D01*
X0607450Y0380696D01*
X0607429Y0380536D01*
X0607403Y0380378D01*
X0607373Y0380220D01*
X0607340Y0380063D01*
X0607302Y0379906D01*
X0607261Y0379751D01*
X0607216Y0379597D01*
X0607167Y0379444D01*
X0607114Y0379292D01*
X0607058Y0379142D01*
X0606998Y0378993D01*
X0606934Y0378845D01*
X0606867Y0378699D01*
X0606796Y0378555D01*
X0606721Y0378413D01*
X0606643Y0378272D01*
X0606562Y0378134D01*
X0606477Y0377997D01*
X0606388Y0377863D01*
X0606297Y0377731D01*
X0606202Y0377601D01*
X0606104Y0377474D01*
X0606003Y0377349D01*
X0605899Y0377226D01*
X0605792Y0377107D01*
X0605682Y0376990D01*
X0605569Y0376875D01*
X0605453Y0376764D01*
X0605335Y0376655D01*
X0605214Y0376550D01*
X0605090Y0376447D01*
X0604964Y0376347D01*
X0604835Y0376251D01*
X0604704Y0376158D01*
X0604571Y0376068D01*
X0604436Y0375981D01*
X0604298Y0375898D01*
X0604159Y0375819D01*
X0604017Y0375742D01*
X0603874Y0375669D01*
X0603729Y0375600D01*
X0603582Y0375535D01*
X0603434Y0375473D01*
X0603284Y0375414D01*
X0603133Y0375360D01*
X0602981Y0375309D01*
X0602827Y0375262D01*
X0602672Y0375219D01*
X0602517Y0375180D01*
X0602360Y0375144D01*
X0602202Y0375112D01*
X0602044Y0375085D01*
X0601885Y0375061D01*
X0601726Y0375041D01*
X0601566Y0375025D01*
X0601405Y0375013D01*
X0601245Y0375005D01*
X0601084Y0375001D01*
X0600924Y0375001D01*
X0600763Y0375005D01*
X0600603Y0375013D01*
X0600442Y0375025D01*
X0600282Y0375041D01*
X0600123Y0375061D01*
X0599964Y0375085D01*
X0599806Y0375112D01*
X0599648Y0375144D01*
X0599491Y0375180D01*
X0599336Y0375219D01*
X0599181Y0375262D01*
X0599027Y0375309D01*
X0598875Y0375360D01*
X0598724Y0375414D01*
X0598574Y0375473D01*
X0598426Y0375535D01*
X0598279Y0375600D01*
X0598134Y0375669D01*
X0597991Y0375742D01*
X0597849Y0375819D01*
X0597710Y0375898D01*
X0597572Y0375981D01*
X0597437Y0376068D01*
X0597304Y0376158D01*
X0597173Y0376251D01*
X0597044Y0376347D01*
X0596918Y0376447D01*
X0596794Y0376550D01*
X0596673Y0376655D01*
X0596555Y0376764D01*
X0596439Y0376875D01*
X0596326Y0376990D01*
X0596216Y0377107D01*
X0596109Y0377226D01*
X0596005Y0377349D01*
X0595904Y0377474D01*
X0595806Y0377601D01*
X0595711Y0377731D01*
X0595620Y0377863D01*
X0595531Y0377997D01*
X0595446Y0378134D01*
X0595365Y0378272D01*
X0595287Y0378413D01*
X0595212Y0378555D01*
X0595141Y0378699D01*
X0595074Y0378845D01*
X0595010Y0378993D01*
X0594950Y0379142D01*
X0594894Y0379292D01*
X0594841Y0379444D01*
X0594792Y0379597D01*
X0594747Y0379751D01*
X0594706Y0379906D01*
X0594668Y0380063D01*
X0594635Y0380220D01*
X0594605Y0380378D01*
X0594579Y0380536D01*
X0594558Y0380696D01*
X0594540Y0380855D01*
X0594526Y0381015D01*
X0594516Y0381176D01*
X0594510Y0381336D01*
X0594508Y0381497D01*
D11*
X0635500Y0429000D02*
X0635500Y0434000D01*
X0635500Y0429000D02*
X0640500Y0429000D01*
X0650500Y0429000D02*
X0655500Y0429000D01*
X0655500Y0434000D01*
X0655500Y0444000D02*
X0655500Y0449000D01*
X0650500Y0449000D01*
X0640500Y0449000D02*
X0635500Y0449000D01*
X0635500Y0444000D01*
X0379250Y0374050D02*
X0379250Y0345950D01*
X0367300Y0334000D01*
X0343700Y0334000D01*
X0343546Y0334002D01*
X0343393Y0334008D01*
X0343240Y0334018D01*
X0343087Y0334032D01*
X0342934Y0334049D01*
X0342782Y0334071D01*
X0342630Y0334097D01*
X0342480Y0334126D01*
X0342330Y0334160D01*
X0342181Y0334197D01*
X0342033Y0334238D01*
X0341886Y0334283D01*
X0341740Y0334331D01*
X0341596Y0334384D01*
X0341453Y0334440D01*
X0341311Y0334499D01*
X0341171Y0334563D01*
X0341033Y0334630D01*
X0340896Y0334700D01*
X0340762Y0334774D01*
X0340629Y0334851D01*
X0340498Y0334932D01*
X0340370Y0335016D01*
X0340243Y0335104D01*
X0340119Y0335194D01*
X0339998Y0335288D01*
X0339878Y0335385D01*
X0339762Y0335485D01*
X0339648Y0335588D01*
X0339536Y0335694D01*
X0339428Y0335802D01*
X0339322Y0335914D01*
X0339219Y0336028D01*
X0339119Y0336144D01*
X0339022Y0336264D01*
X0338929Y0336385D01*
X0338838Y0336509D01*
X0338751Y0336636D01*
X0338666Y0336764D01*
X0338586Y0336895D01*
X0338508Y0337028D01*
X0338434Y0337162D01*
X0338364Y0337299D01*
X0338297Y0337437D01*
X0338234Y0337577D01*
X0338174Y0337719D01*
X0338118Y0337862D01*
X0338066Y0338006D01*
X0338017Y0338152D01*
X0337972Y0338299D01*
X0337931Y0338447D01*
X0337894Y0338596D01*
X0337861Y0338746D01*
X0337831Y0338897D01*
X0337806Y0339048D01*
X0337784Y0339200D01*
X0337767Y0339353D01*
X0337753Y0339506D01*
X0337743Y0339659D01*
X0337737Y0339813D01*
X0337735Y0339966D01*
X0337737Y0340120D01*
X0337743Y0340273D01*
X0337753Y0340427D01*
X0337767Y0340580D01*
X0337785Y0340732D01*
X0337806Y0340884D01*
X0337832Y0341036D01*
X0337861Y0341186D01*
X0337895Y0341336D01*
X0337932Y0341485D01*
X0337973Y0341633D01*
X0338018Y0341780D01*
X0338067Y0341926D01*
X0338119Y0342071D01*
X0338175Y0342214D01*
X0338235Y0342355D01*
X0338298Y0342495D01*
X0338365Y0342633D01*
X0338436Y0342770D01*
X0338510Y0342904D01*
X0338587Y0343037D01*
X0338668Y0343168D01*
X0338752Y0343296D01*
X0338839Y0343423D01*
X0338930Y0343547D01*
X0339024Y0343668D01*
X0339121Y0343787D01*
X0339221Y0343904D01*
X0339324Y0344018D01*
X0339429Y0344130D01*
X0339538Y0344238D01*
X0339649Y0344344D01*
X0339764Y0344447D01*
X0339880Y0344547D01*
X0340000Y0344643D01*
X0340121Y0344737D01*
X0340245Y0344828D01*
X0340372Y0344915D01*
X0340500Y0344999D01*
X0340500Y0345000D02*
X0340847Y0345459D01*
X0341183Y0345927D01*
X0341507Y0346402D01*
X0341820Y0346885D01*
X0342121Y0347375D01*
X0342411Y0347873D01*
X0342688Y0348377D01*
X0342953Y0348888D01*
X0343205Y0349405D01*
X0343445Y0349929D01*
X0343673Y0350457D01*
X0343887Y0350991D01*
X0344089Y0351530D01*
X0344277Y0352074D01*
X0344453Y0352622D01*
X0344615Y0353175D01*
X0344764Y0353731D01*
X0344899Y0354290D01*
X0345021Y0354852D01*
X0345129Y0355418D01*
X0345224Y0355985D01*
X0345305Y0356555D01*
X0345372Y0357127D01*
X0345425Y0357700D01*
X0345465Y0358274D01*
X0345490Y0358849D01*
X0345502Y0359425D01*
X0345500Y0360000D01*
X0345502Y0360575D01*
X0345490Y0361151D01*
X0345465Y0361726D01*
X0345425Y0362300D01*
X0345372Y0362873D01*
X0345305Y0363445D01*
X0345224Y0364015D01*
X0345129Y0364582D01*
X0345021Y0365148D01*
X0344899Y0365710D01*
X0344764Y0366269D01*
X0344615Y0366825D01*
X0344453Y0367378D01*
X0344277Y0367926D01*
X0344089Y0368470D01*
X0343887Y0369009D01*
X0343673Y0369543D01*
X0343445Y0370071D01*
X0343205Y0370595D01*
X0342953Y0371112D01*
X0342688Y0371623D01*
X0342411Y0372127D01*
X0342121Y0372625D01*
X0341820Y0373115D01*
X0341507Y0373598D01*
X0341183Y0374073D01*
X0340847Y0374541D01*
X0340500Y0375000D01*
X0340500Y0375001D02*
X0340372Y0375085D01*
X0340245Y0375172D01*
X0340121Y0375263D01*
X0340000Y0375357D01*
X0339880Y0375453D01*
X0339764Y0375553D01*
X0339649Y0375656D01*
X0339538Y0375762D01*
X0339429Y0375870D01*
X0339324Y0375982D01*
X0339221Y0376096D01*
X0339121Y0376213D01*
X0339024Y0376332D01*
X0338930Y0376453D01*
X0338839Y0376577D01*
X0338752Y0376704D01*
X0338668Y0376832D01*
X0338587Y0376963D01*
X0338510Y0377096D01*
X0338436Y0377230D01*
X0338365Y0377367D01*
X0338298Y0377505D01*
X0338235Y0377645D01*
X0338175Y0377786D01*
X0338119Y0377929D01*
X0338067Y0378074D01*
X0338018Y0378220D01*
X0337973Y0378367D01*
X0337932Y0378515D01*
X0337895Y0378664D01*
X0337861Y0378814D01*
X0337832Y0378964D01*
X0337806Y0379116D01*
X0337785Y0379268D01*
X0337767Y0379420D01*
X0337753Y0379573D01*
X0337743Y0379727D01*
X0337737Y0379880D01*
X0337735Y0380034D01*
X0337737Y0380187D01*
X0337743Y0380341D01*
X0337753Y0380494D01*
X0337767Y0380647D01*
X0337784Y0380800D01*
X0337806Y0380952D01*
X0337831Y0381103D01*
X0337861Y0381254D01*
X0337894Y0381404D01*
X0337931Y0381553D01*
X0337972Y0381701D01*
X0338017Y0381848D01*
X0338066Y0381994D01*
X0338118Y0382138D01*
X0338174Y0382281D01*
X0338234Y0382423D01*
X0338297Y0382563D01*
X0338364Y0382701D01*
X0338434Y0382838D01*
X0338508Y0382972D01*
X0338586Y0383105D01*
X0338666Y0383236D01*
X0338751Y0383364D01*
X0338838Y0383491D01*
X0338929Y0383615D01*
X0339022Y0383736D01*
X0339119Y0383856D01*
X0339219Y0383972D01*
X0339322Y0384086D01*
X0339428Y0384198D01*
X0339536Y0384306D01*
X0339648Y0384412D01*
X0339762Y0384515D01*
X0339878Y0384615D01*
X0339998Y0384712D01*
X0340119Y0384806D01*
X0340243Y0384896D01*
X0340370Y0384984D01*
X0340498Y0385068D01*
X0340629Y0385149D01*
X0340762Y0385226D01*
X0340896Y0385300D01*
X0341033Y0385370D01*
X0341171Y0385437D01*
X0341311Y0385501D01*
X0341453Y0385560D01*
X0341596Y0385616D01*
X0341740Y0385669D01*
X0341886Y0385717D01*
X0342033Y0385762D01*
X0342181Y0385803D01*
X0342330Y0385840D01*
X0342480Y0385874D01*
X0342630Y0385903D01*
X0342782Y0385929D01*
X0342934Y0385951D01*
X0343087Y0385968D01*
X0343240Y0385982D01*
X0343393Y0385992D01*
X0343546Y0385998D01*
X0343700Y0386000D01*
X0367300Y0386000D01*
X0379250Y0374050D01*
D12*
X0639888Y0423934D02*
X0640372Y0423450D01*
X0641340Y0423450D01*
X0641823Y0423934D01*
X0640856Y0424901D02*
X0640372Y0424901D01*
X0639888Y0424417D01*
X0639888Y0423934D01*
X0640372Y0424901D02*
X0639888Y0425385D01*
X0639888Y0425869D01*
X0640372Y0426352D01*
X0641340Y0426352D01*
X0641823Y0425869D01*
X0649888Y0424901D02*
X0651823Y0424901D01*
X0650372Y0426352D01*
X0650372Y0423450D01*
X0655650Y0434150D02*
X0659353Y0434150D01*
X0659353Y0436002D01*
X0658736Y0436619D01*
X0657502Y0436619D01*
X0656884Y0436002D01*
X0656884Y0434150D01*
X0655650Y0437833D02*
X0655650Y0440302D01*
X0655650Y0439068D02*
X0659353Y0439068D01*
X0658119Y0437833D01*
X0658736Y0441516D02*
X0659353Y0442133D01*
X0659353Y0443368D01*
X0658736Y0443985D01*
X0656267Y0441516D01*
X0655650Y0442133D01*
X0655650Y0443368D01*
X0656267Y0443985D01*
X0658736Y0443985D01*
X0658736Y0441516D02*
X0656267Y0441516D01*
X0651823Y0451650D02*
X0649888Y0453585D01*
X0649888Y0454069D01*
X0650372Y0454552D01*
X0651340Y0454552D01*
X0651823Y0454069D01*
X0651823Y0451650D02*
X0649888Y0451650D01*
X0641823Y0451650D02*
X0639888Y0451650D01*
X0640856Y0451650D02*
X0640856Y0454552D01*
X0641823Y0453585D01*
M02*
