G75*
%MOIN*%
%OFA0B0*%
%FSLAX25Y25*%
%IPPOS*%
%LPD*%
%AMOC8*
5,1,8,0,0,1.08239X$1,22.5*
%
%ADD10C,0.01969*%
%ADD11C,0.06000*%
%ADD12C,0.04800*%
%ADD13C,0.07050*%
%ADD14C,0.06693*%
%ADD15C,0.05315*%
%ADD16C,0.09449*%
%ADD17C,0.12992*%
%ADD18R,0.03000X0.06500*%
%ADD19R,0.04331X0.03937*%
%ADD20R,0.07087X0.06299*%
%ADD21R,0.03937X0.04331*%
%ADD22R,0.06299X0.07087*%
%ADD23R,0.08600X0.02200*%
%ADD24R,0.05906X0.08268*%
%ADD25R,0.06000X0.06600*%
%ADD26C,0.02953*%
%ADD27C,0.03543*%
D10*
X0077174Y0176205D03*
X0079831Y0176205D03*
X0082489Y0176205D03*
X0082489Y0182110D03*
X0079831Y0182110D03*
X0077174Y0182110D03*
X0289772Y0182110D03*
X0292430Y0182110D03*
X0295087Y0182110D03*
X0295087Y0176205D03*
X0292430Y0176205D03*
X0289772Y0176205D03*
D11*
X0288769Y0170347D02*
X0288769Y0164347D01*
X0298769Y0164347D02*
X0298769Y0170347D01*
X0308769Y0170347D02*
X0308769Y0164347D01*
X0318769Y0164347D02*
X0318769Y0170347D01*
X0318769Y0188756D02*
X0318769Y0194756D01*
X0308769Y0194756D02*
X0308769Y0188756D01*
X0298769Y0188756D02*
X0298769Y0194756D01*
X0288769Y0194756D02*
X0288769Y0188756D01*
X0278769Y0188756D02*
X0278769Y0194756D01*
X0268769Y0194756D02*
X0268769Y0188756D01*
X0258769Y0188756D02*
X0258769Y0194756D01*
X0248769Y0194756D02*
X0248769Y0188756D01*
X0248769Y0170347D02*
X0248769Y0164347D01*
X0258769Y0164347D02*
X0258769Y0170347D01*
X0268769Y0170347D02*
X0268769Y0164347D01*
X0278769Y0164347D02*
X0278769Y0170347D01*
X0282937Y0249354D02*
X0288937Y0249354D01*
X0288937Y0259354D02*
X0282937Y0259354D01*
X0186839Y0325764D02*
X0186839Y0331764D01*
X0176839Y0331764D02*
X0176839Y0325764D01*
X0166839Y0325764D02*
X0166839Y0331764D01*
X0156839Y0331764D02*
X0156839Y0325764D01*
X0146839Y0325764D02*
X0146839Y0331764D01*
X0055272Y0261402D02*
X0049272Y0261402D01*
X0049272Y0251402D02*
X0055272Y0251402D01*
X0055272Y0241402D02*
X0049272Y0241402D01*
X0049272Y0231402D02*
X0055272Y0231402D01*
X0055272Y0221402D02*
X0049272Y0221402D01*
X0049272Y0211402D02*
X0055272Y0211402D01*
X0055272Y0201402D02*
X0049272Y0201402D01*
X0049272Y0191402D02*
X0055272Y0191402D01*
X0055272Y0166913D02*
X0049272Y0166913D01*
X0049272Y0156913D02*
X0055272Y0156913D01*
X0055272Y0146913D02*
X0049272Y0146913D01*
X0049272Y0136913D02*
X0055272Y0136913D01*
X0055272Y0126913D02*
X0049272Y0126913D01*
X0049272Y0116913D02*
X0055272Y0116913D01*
X0055272Y0106913D02*
X0049272Y0106913D01*
X0049272Y0096913D02*
X0055272Y0096913D01*
D12*
X0097765Y0100843D03*
X0107765Y0100843D03*
X0117765Y0100843D03*
X0127765Y0100843D03*
X0132765Y0110843D03*
X0122765Y0110843D03*
X0112765Y0110843D03*
X0102765Y0110843D03*
X0231623Y0100843D03*
X0241623Y0100843D03*
X0251623Y0100843D03*
X0261623Y0100843D03*
X0266623Y0110843D03*
X0256623Y0110843D03*
X0246623Y0110843D03*
X0236623Y0110843D03*
D13*
X0223123Y0051043D03*
X0089265Y0051043D03*
D14*
X0082095Y0092543D03*
X0092430Y0137819D03*
X0138099Y0137819D03*
X0148434Y0092543D03*
X0215954Y0092543D03*
X0226288Y0137819D03*
X0271957Y0137819D03*
X0282292Y0092543D03*
D15*
X0101662Y0273866D03*
X0091662Y0273866D03*
X0081662Y0273866D03*
X0071662Y0273866D03*
X0066662Y0283866D03*
X0076662Y0283866D03*
X0086662Y0283866D03*
X0096662Y0283866D03*
X0109069Y0322167D03*
X0099061Y0328149D03*
X0069258Y0322165D03*
X0059266Y0328151D03*
D16*
X0053158Y0296858D03*
X0115166Y0296858D03*
X0151682Y0131913D03*
X0151682Y0110260D03*
X0181209Y0110260D03*
X0181209Y0131913D03*
X0285540Y0131913D03*
X0285540Y0110260D03*
X0315068Y0110260D03*
X0315068Y0131913D03*
D17*
X0106662Y0308866D03*
X0061662Y0308866D03*
D18*
X0122568Y0082128D03*
X0127568Y0082128D03*
X0132568Y0082128D03*
X0137568Y0082128D03*
X0142568Y0082128D03*
X0147568Y0082128D03*
X0152568Y0082128D03*
X0157568Y0082128D03*
X0157568Y0048628D03*
X0152568Y0048628D03*
X0147568Y0048628D03*
X0142568Y0048628D03*
X0137568Y0048628D03*
X0132568Y0048628D03*
X0127568Y0048628D03*
X0122568Y0048628D03*
X0238158Y0048628D03*
X0243158Y0048628D03*
X0248158Y0048628D03*
X0253158Y0048628D03*
X0258158Y0048628D03*
X0263158Y0048628D03*
X0268158Y0048628D03*
X0273158Y0048628D03*
X0273158Y0082128D03*
X0268158Y0082128D03*
X0263158Y0082128D03*
X0258158Y0082128D03*
X0253158Y0082128D03*
X0248158Y0082128D03*
X0243158Y0082128D03*
X0238158Y0082128D03*
D19*
X0221839Y0072819D03*
X0216446Y0072662D03*
X0211328Y0072662D03*
X0206209Y0072662D03*
X0201091Y0072662D03*
X0195973Y0072662D03*
X0190855Y0072662D03*
X0190855Y0065969D03*
X0195973Y0065969D03*
X0201091Y0065969D03*
X0206209Y0065969D03*
X0211328Y0065969D03*
X0216446Y0065969D03*
X0221839Y0066126D03*
X0258965Y0150221D03*
X0258965Y0156913D03*
X0268808Y0156913D03*
X0268808Y0150221D03*
X0189379Y0200811D03*
X0182686Y0200811D03*
X0161131Y0200417D03*
X0154438Y0200417D03*
X0135540Y0200417D03*
X0128847Y0200417D03*
X0130816Y0258291D03*
X0124123Y0258291D03*
X0116643Y0258291D03*
X0109950Y0258291D03*
X0139477Y0259473D03*
X0146170Y0259473D03*
X0151426Y0259433D03*
X0158119Y0259433D03*
X0163296Y0259433D03*
X0169989Y0259433D03*
X0186721Y0257504D03*
X0193414Y0257504D03*
D20*
X0077784Y0040496D03*
X0077784Y0051520D03*
X0202942Y0049079D03*
X0202942Y0060102D03*
D21*
X0183920Y0049750D03*
X0183920Y0043057D03*
X0183984Y0036951D03*
X0183984Y0030258D03*
X0175976Y0027143D03*
X0169283Y0027143D03*
X0169283Y0035709D03*
X0175976Y0035709D03*
X0175976Y0044134D03*
X0169283Y0044134D03*
X0169283Y0052874D03*
X0175976Y0052874D03*
X0096957Y0060299D03*
X0096957Y0065772D03*
X0096957Y0070890D03*
X0096957Y0076008D03*
X0096957Y0081126D03*
X0096957Y0086244D03*
X0096957Y0091362D03*
X0090265Y0091362D03*
X0090265Y0086244D03*
X0090265Y0081126D03*
X0090265Y0076008D03*
X0090265Y0070890D03*
X0090265Y0065772D03*
X0090265Y0060299D03*
X0235343Y0188016D03*
X0235343Y0194709D03*
X0216682Y0220536D03*
X0209989Y0220536D03*
X0202706Y0220536D03*
X0202706Y0227228D03*
X0190068Y0227386D03*
X0190068Y0220693D03*
X0188099Y0243134D03*
X0188099Y0249827D03*
X0110540Y0249827D03*
X0110540Y0243134D03*
X0110540Y0236047D03*
X0110540Y0229354D03*
X0101091Y0218331D03*
X0101091Y0211638D03*
X0289138Y0055006D03*
X0295831Y0055006D03*
X0303877Y0052035D03*
X0303877Y0045342D03*
X0303877Y0039665D03*
X0303877Y0032973D03*
X0295716Y0029858D03*
X0289023Y0029858D03*
X0289038Y0038169D03*
X0295731Y0038169D03*
X0295716Y0046595D03*
X0289023Y0046595D03*
D22*
X0222863Y0040063D03*
X0211839Y0040063D03*
X0084556Y0078764D03*
X0073532Y0078764D03*
D23*
X0205571Y0189768D03*
X0205571Y0194768D03*
X0205571Y0199768D03*
X0205571Y0204768D03*
X0224171Y0204768D03*
X0224171Y0199768D03*
X0224171Y0194768D03*
X0224171Y0189768D03*
D24*
X0216839Y0213134D03*
X0202666Y0213134D03*
D25*
X0303532Y0222536D03*
X0303532Y0238536D03*
X0315737Y0301000D03*
X0315737Y0317000D03*
D26*
X0310540Y0293725D03*
X0314083Y0285457D03*
X0321170Y0285457D03*
X0291643Y0283095D03*
X0291643Y0276795D03*
X0262115Y0300417D03*
X0229831Y0322071D03*
X0216052Y0322071D03*
X0199910Y0322071D03*
X0217233Y0287032D03*
X0216839Y0263803D03*
X0196761Y0246087D03*
X0182194Y0249236D03*
X0178257Y0246087D03*
X0179438Y0229551D03*
X0195580Y0229945D03*
X0176682Y0201205D03*
X0184162Y0187819D03*
X0160934Y0205536D03*
X0135737Y0205142D03*
X0130619Y0205142D03*
X0146367Y0246087D03*
X0124320Y0249236D03*
X0105028Y0258291D03*
X0148729Y0267268D03*
X0162902Y0264591D03*
X0186131Y0269709D03*
X0194005Y0263803D03*
X0152666Y0291362D03*
X0134950Y0297268D03*
X0134556Y0322071D03*
X0216052Y0189787D03*
X0181406Y0120890D03*
X0152483Y0059571D03*
X0127483Y0059084D03*
X0097942Y0037721D03*
X0236879Y0037327D03*
X0243098Y0056377D03*
X0268198Y0056377D03*
X0316052Y0120890D03*
X0319438Y0206244D03*
X0307784Y0211441D03*
X0292036Y0330339D03*
D27*
X0308178Y0320890D03*
X0309438Y0238803D03*
M02*
