G75*
%MOIN*%
%OFA0B0*%
%FSLAX25Y25*%
%IPPOS*%
%LPD*%
%AMOC8*
5,1,8,0,0,1.08239X$1,22.5*
%
%ADD10C,0.06000*%
%ADD11C,0.04800*%
%ADD12C,0.07050*%
%ADD13C,0.05315*%
%ADD14C,0.09449*%
%ADD15R,0.03000X0.06500*%
%ADD16R,0.04331X0.03937*%
%ADD17R,0.07087X0.06299*%
%ADD18R,0.03937X0.04331*%
%ADD19R,0.06299X0.07087*%
%ADD20R,0.08600X0.02200*%
%ADD21R,0.05906X0.08268*%
%ADD22R,0.06000X0.06600*%
%ADD23C,0.02953*%
%ADD24C,0.01600*%
%ADD25C,0.02362*%
%ADD26C,0.00700*%
%ADD27C,0.00591*%
%ADD28C,0.03543*%
D10*
X0049272Y0096913D02*
X0055272Y0096913D01*
X0055272Y0106913D02*
X0049272Y0106913D01*
X0049272Y0116913D02*
X0055272Y0116913D01*
X0055272Y0126913D02*
X0049272Y0126913D01*
X0049272Y0136913D02*
X0055272Y0136913D01*
X0055272Y0146913D02*
X0049272Y0146913D01*
X0049272Y0156913D02*
X0055272Y0156913D01*
X0055272Y0166913D02*
X0049272Y0166913D01*
X0049272Y0191402D02*
X0055272Y0191402D01*
X0055272Y0201402D02*
X0049272Y0201402D01*
X0049272Y0211402D02*
X0055272Y0211402D01*
X0055272Y0221402D02*
X0049272Y0221402D01*
X0049272Y0231402D02*
X0055272Y0231402D01*
X0055272Y0241402D02*
X0049272Y0241402D01*
X0049272Y0251402D02*
X0055272Y0251402D01*
X0055272Y0261402D02*
X0049272Y0261402D01*
X0146839Y0325764D02*
X0146839Y0331764D01*
X0156839Y0331764D02*
X0156839Y0325764D01*
X0166839Y0325764D02*
X0166839Y0331764D01*
X0176839Y0331764D02*
X0176839Y0325764D01*
X0186839Y0325764D02*
X0186839Y0331764D01*
X0282937Y0259354D02*
X0288937Y0259354D01*
X0288937Y0249354D02*
X0282937Y0249354D01*
X0278769Y0194756D02*
X0278769Y0188756D01*
X0268769Y0188756D02*
X0268769Y0194756D01*
X0258769Y0194756D02*
X0258769Y0188756D01*
X0248769Y0188756D02*
X0248769Y0194756D01*
X0248769Y0170347D02*
X0248769Y0164347D01*
X0258769Y0164347D02*
X0258769Y0170347D01*
X0268769Y0170347D02*
X0268769Y0164347D01*
X0278769Y0164347D02*
X0278769Y0170347D01*
X0288769Y0170347D02*
X0288769Y0164347D01*
X0298769Y0164347D02*
X0298769Y0170347D01*
X0308769Y0170347D02*
X0308769Y0164347D01*
X0318769Y0164347D02*
X0318769Y0170347D01*
X0318769Y0188756D02*
X0318769Y0194756D01*
X0308769Y0194756D02*
X0308769Y0188756D01*
X0298769Y0188756D02*
X0298769Y0194756D01*
X0288769Y0194756D02*
X0288769Y0188756D01*
D11*
X0266623Y0110843D03*
X0256623Y0110843D03*
X0246623Y0110843D03*
X0236623Y0110843D03*
X0241623Y0100843D03*
X0231623Y0100843D03*
X0251623Y0100843D03*
X0261623Y0100843D03*
X0132765Y0110843D03*
X0122765Y0110843D03*
X0112765Y0110843D03*
X0102765Y0110843D03*
X0107765Y0100843D03*
X0117765Y0100843D03*
X0127765Y0100843D03*
X0097765Y0100843D03*
D12*
X0089265Y0051043D03*
X0223123Y0051043D03*
D13*
X0101662Y0273866D03*
X0091662Y0273866D03*
X0081662Y0273866D03*
X0071662Y0273866D03*
X0066662Y0283866D03*
X0076662Y0283866D03*
X0086662Y0283866D03*
X0096662Y0283866D03*
X0109069Y0322167D03*
X0099061Y0328149D03*
X0069258Y0322165D03*
X0059266Y0328151D03*
D14*
X0053158Y0296858D03*
X0115166Y0296858D03*
D15*
X0122568Y0082128D03*
X0127568Y0082128D03*
X0132568Y0082128D03*
X0137568Y0082128D03*
X0142568Y0082128D03*
X0147568Y0082128D03*
X0152568Y0082128D03*
X0157568Y0082128D03*
X0157568Y0048628D03*
X0152568Y0048628D03*
X0147568Y0048628D03*
X0142568Y0048628D03*
X0137568Y0048628D03*
X0132568Y0048628D03*
X0127568Y0048628D03*
X0122568Y0048628D03*
X0238158Y0048628D03*
X0243158Y0048628D03*
X0248158Y0048628D03*
X0253158Y0048628D03*
X0258158Y0048628D03*
X0263158Y0048628D03*
X0268158Y0048628D03*
X0273158Y0048628D03*
X0273158Y0082128D03*
X0268158Y0082128D03*
X0263158Y0082128D03*
X0258158Y0082128D03*
X0253158Y0082128D03*
X0248158Y0082128D03*
X0243158Y0082128D03*
X0238158Y0082128D03*
D16*
X0221839Y0072819D03*
X0216446Y0072662D03*
X0211328Y0072662D03*
X0206209Y0072662D03*
X0201091Y0072662D03*
X0195973Y0072662D03*
X0190855Y0072662D03*
X0190855Y0065969D03*
X0195973Y0065969D03*
X0201091Y0065969D03*
X0206209Y0065969D03*
X0211328Y0065969D03*
X0216446Y0065969D03*
X0221839Y0066126D03*
X0258965Y0150221D03*
X0258965Y0156913D03*
X0268808Y0156913D03*
X0268808Y0150221D03*
X0189379Y0200811D03*
X0182686Y0200811D03*
X0161131Y0200417D03*
X0154438Y0200417D03*
X0135540Y0200417D03*
X0128847Y0200417D03*
X0130816Y0258291D03*
X0124123Y0258291D03*
X0116643Y0258291D03*
X0109950Y0258291D03*
X0139477Y0259473D03*
X0146170Y0259473D03*
X0151426Y0259433D03*
X0158119Y0259433D03*
X0163296Y0259433D03*
X0169989Y0259433D03*
X0186721Y0257504D03*
X0193414Y0257504D03*
D17*
X0202942Y0060102D03*
X0202942Y0049079D03*
X0077784Y0051520D03*
X0077784Y0040496D03*
D18*
X0090265Y0060299D03*
X0090265Y0065772D03*
X0090265Y0070890D03*
X0090265Y0076008D03*
X0090265Y0081126D03*
X0090265Y0086244D03*
X0090265Y0091362D03*
X0096957Y0091362D03*
X0096957Y0086244D03*
X0096957Y0081126D03*
X0096957Y0076008D03*
X0096957Y0070890D03*
X0096957Y0065772D03*
X0096957Y0060299D03*
X0169283Y0052874D03*
X0175976Y0052874D03*
X0183920Y0049750D03*
X0183920Y0043057D03*
X0183984Y0036951D03*
X0183984Y0030258D03*
X0175976Y0027143D03*
X0169283Y0027143D03*
X0169283Y0035709D03*
X0175976Y0035709D03*
X0175976Y0044134D03*
X0169283Y0044134D03*
X0289023Y0046595D03*
X0295716Y0046595D03*
X0303877Y0045342D03*
X0303877Y0039665D03*
X0303877Y0032973D03*
X0295716Y0029858D03*
X0289023Y0029858D03*
X0289038Y0038169D03*
X0295731Y0038169D03*
X0303877Y0052035D03*
X0295831Y0055006D03*
X0289138Y0055006D03*
X0235343Y0188016D03*
X0235343Y0194709D03*
X0216682Y0220536D03*
X0209989Y0220536D03*
X0202706Y0220536D03*
X0202706Y0227228D03*
X0190068Y0227386D03*
X0190068Y0220693D03*
X0188099Y0243134D03*
X0188099Y0249827D03*
X0110540Y0249827D03*
X0110540Y0243134D03*
X0110540Y0236047D03*
X0110540Y0229354D03*
X0101091Y0218331D03*
X0101091Y0211638D03*
D19*
X0084556Y0078764D03*
X0073532Y0078764D03*
X0211839Y0040063D03*
X0222863Y0040063D03*
D20*
X0224171Y0189768D03*
X0224171Y0194768D03*
X0224171Y0199768D03*
X0224171Y0204768D03*
X0205571Y0204768D03*
X0205571Y0199768D03*
X0205571Y0194768D03*
X0205571Y0189768D03*
D21*
X0202666Y0213134D03*
X0216839Y0213134D03*
D22*
X0303532Y0222536D03*
X0303532Y0238536D03*
X0315737Y0301000D03*
X0315737Y0317000D03*
D23*
X0310540Y0293725D03*
X0314083Y0285457D03*
X0321170Y0285457D03*
X0291643Y0283095D03*
X0291643Y0276795D03*
X0262115Y0300417D03*
X0229831Y0322071D03*
X0216052Y0322071D03*
X0199910Y0322071D03*
X0217233Y0287032D03*
X0216839Y0263803D03*
X0196761Y0246087D03*
X0182194Y0249236D03*
X0178257Y0246087D03*
X0179438Y0229551D03*
X0195580Y0229945D03*
X0176682Y0201205D03*
X0184162Y0187819D03*
X0160934Y0205536D03*
X0135737Y0205142D03*
X0130619Y0205142D03*
X0146367Y0246087D03*
X0124320Y0249236D03*
X0105028Y0258291D03*
X0148729Y0267268D03*
X0162902Y0264591D03*
X0186131Y0269709D03*
X0194005Y0263803D03*
X0152666Y0291362D03*
X0134950Y0297268D03*
X0134556Y0322071D03*
X0216052Y0189787D03*
X0181406Y0120890D03*
X0152483Y0059571D03*
X0127483Y0059084D03*
X0097942Y0037721D03*
X0236879Y0037327D03*
X0243098Y0056377D03*
X0268198Y0056377D03*
X0316052Y0120890D03*
X0319438Y0206244D03*
X0307784Y0211441D03*
X0292036Y0330339D03*
D24*
X0046306Y0031920D02*
X0047276Y0028936D01*
X0049119Y0026398D01*
X0051657Y0024554D01*
X0054641Y0023585D01*
X0056209Y0023462D01*
X0316052Y0023462D01*
X0317620Y0023585D01*
X0320604Y0024554D01*
X0323142Y0026398D01*
X0324986Y0028936D01*
X0325955Y0031920D01*
X0326079Y0033488D01*
X0326079Y0163410D01*
X0325955Y0164978D01*
X0324986Y0167962D01*
X0323159Y0170476D01*
X0323159Y0163473D01*
X0322491Y0161859D01*
X0321256Y0160624D01*
X0319642Y0159956D01*
X0317895Y0159956D01*
X0316281Y0160624D01*
X0315046Y0161859D01*
X0314378Y0163473D01*
X0314378Y0171220D01*
X0315046Y0172834D01*
X0315649Y0173436D01*
X0311888Y0173436D01*
X0312491Y0172834D01*
X0313159Y0171220D01*
X0313159Y0163473D01*
X0312491Y0161859D01*
X0311256Y0160624D01*
X0309642Y0159956D01*
X0308486Y0159956D01*
X0308486Y0086246D01*
X0295276Y0073036D01*
X0294925Y0072189D01*
X0294202Y0071466D01*
X0293256Y0071074D01*
X0292233Y0071074D01*
X0291288Y0071466D01*
X0290565Y0072189D01*
X0290391Y0072609D01*
X0287974Y0070192D01*
X0287741Y0069959D01*
X0287523Y0069433D01*
X0286800Y0068710D01*
X0285855Y0068318D01*
X0284832Y0068318D01*
X0283887Y0068710D01*
X0283163Y0069433D01*
X0282828Y0070243D01*
X0280435Y0067850D01*
X0280435Y0067229D01*
X0280043Y0066284D01*
X0279320Y0065560D01*
X0278375Y0065169D01*
X0278282Y0065169D01*
X0278282Y0060385D01*
X0277345Y0059447D01*
X0275159Y0059447D01*
X0275159Y0053269D01*
X0275234Y0053269D01*
X0276049Y0052454D01*
X0276049Y0050629D01*
X0280808Y0050629D01*
X0285779Y0055599D01*
X0285779Y0057748D01*
X0286593Y0058562D01*
X0291682Y0058562D01*
X0292484Y0057760D01*
X0293286Y0058562D01*
X0298375Y0058562D01*
X0299190Y0057748D01*
X0299190Y0054109D01*
X0299523Y0053775D01*
X0300518Y0053775D01*
X0300518Y0054776D01*
X0301333Y0055591D01*
X0306422Y0055591D01*
X0307236Y0054776D01*
X0307236Y0049293D01*
X0306757Y0048814D01*
X0306820Y0048777D01*
X0307116Y0048482D01*
X0307325Y0048120D01*
X0307433Y0047716D01*
X0307433Y0045526D01*
X0304061Y0045526D01*
X0304061Y0045158D01*
X0304061Y0045157D02*
X0304061Y0039850D01*
X0303693Y0039850D01*
X0303693Y0043418D01*
X0303693Y0045157D01*
X0304061Y0045157D01*
X0304061Y0045158D02*
X0307433Y0045158D01*
X0307433Y0042967D01*
X0307325Y0042564D01*
X0307290Y0042504D01*
X0307325Y0042444D01*
X0307433Y0042040D01*
X0307433Y0039850D01*
X0304061Y0039850D01*
X0304061Y0039481D01*
X0307433Y0039481D01*
X0307433Y0037291D01*
X0307325Y0036887D01*
X0307116Y0036525D01*
X0306820Y0036230D01*
X0306757Y0036193D01*
X0307236Y0035714D01*
X0307236Y0030231D01*
X0306422Y0029417D01*
X0302783Y0029417D01*
X0301484Y0028118D01*
X0299075Y0028118D01*
X0299075Y0027117D01*
X0298260Y0026302D01*
X0293171Y0026302D01*
X0292369Y0027104D01*
X0291567Y0026302D01*
X0286478Y0026302D01*
X0285664Y0027117D01*
X0285664Y0028241D01*
X0282301Y0028241D01*
X0275984Y0034558D01*
X0243700Y0034558D01*
X0239674Y0038584D01*
X0239825Y0038221D01*
X0239943Y0037629D01*
X0239943Y0037327D01*
X0236879Y0037327D01*
X0236879Y0037327D01*
X0236879Y0037327D01*
X0236879Y0040391D01*
X0237180Y0040391D01*
X0237772Y0040273D01*
X0238136Y0040122D01*
X0237401Y0040858D01*
X0237401Y0040858D01*
X0236413Y0041845D01*
X0236413Y0043987D01*
X0236082Y0043987D01*
X0235268Y0044802D01*
X0235268Y0052454D01*
X0236082Y0053269D01*
X0236359Y0053269D01*
X0236359Y0059447D01*
X0221638Y0059447D01*
X0221572Y0059381D01*
X0220552Y0058362D01*
X0207876Y0058362D01*
X0207876Y0056377D01*
X0207061Y0055562D01*
X0198822Y0055562D01*
X0198008Y0056377D01*
X0198008Y0058126D01*
X0196433Y0058126D01*
X0195414Y0059145D01*
X0194233Y0060326D01*
X0194233Y0062610D01*
X0188114Y0062610D01*
X0187299Y0063424D01*
X0187299Y0068513D01*
X0188101Y0069315D01*
X0187299Y0070117D01*
X0187299Y0075206D01*
X0188114Y0076021D01*
X0189115Y0076021D01*
X0189115Y0079091D01*
X0190296Y0080272D01*
X0191315Y0081292D01*
X0203520Y0081292D01*
X0204863Y0082634D01*
X0204863Y0099170D01*
X0219823Y0114130D01*
X0219823Y0120823D01*
X0219964Y0120964D01*
X0219964Y0128639D01*
X0220901Y0129576D01*
X0230584Y0129576D01*
X0230006Y0132110D01*
X0230006Y0132110D01*
X0230612Y0134768D01*
X0230612Y0134768D01*
X0232312Y0136899D01*
X0232312Y0136899D01*
X0234768Y0138082D01*
X0263478Y0138082D01*
X0265934Y0136899D01*
X0265934Y0136899D01*
X0265934Y0136899D01*
X0267633Y0134768D01*
X0267633Y0134768D01*
X0268240Y0132110D01*
X0268240Y0132110D01*
X0267661Y0129576D01*
X0277345Y0129576D01*
X0278282Y0128639D01*
X0278282Y0095789D01*
X0279386Y0096893D01*
X0281272Y0097674D01*
X0283313Y0097674D01*
X0285198Y0096893D01*
X0286642Y0095450D01*
X0287423Y0093564D01*
X0287423Y0091523D01*
X0286642Y0089637D01*
X0285198Y0088194D01*
X0283313Y0087413D01*
X0281272Y0087413D01*
X0279386Y0088194D01*
X0278282Y0089298D01*
X0278282Y0070621D01*
X0299657Y0091996D01*
X0298847Y0092332D01*
X0298124Y0093055D01*
X0297732Y0094000D01*
X0297732Y0095023D01*
X0298124Y0095969D01*
X0298563Y0096408D01*
X0298563Y0114748D01*
X0298547Y0114709D01*
X0297824Y0113985D01*
X0296878Y0113594D01*
X0295855Y0113594D01*
X0294910Y0113985D01*
X0294187Y0114709D01*
X0293795Y0115654D01*
X0293795Y0116677D01*
X0294187Y0117622D01*
X0294626Y0118062D01*
X0294626Y0139460D01*
X0290689Y0143397D01*
X0290689Y0143475D01*
X0289763Y0144401D01*
X0260236Y0144401D01*
X0258322Y0146315D01*
X0258244Y0146315D01*
X0257698Y0146862D01*
X0256224Y0146862D01*
X0255409Y0147676D01*
X0255409Y0152765D01*
X0256211Y0153567D01*
X0255409Y0154369D01*
X0255409Y0159458D01*
X0256224Y0160273D01*
X0257028Y0160273D01*
X0257028Y0160315D01*
X0256281Y0160624D01*
X0255046Y0161859D01*
X0254378Y0163473D01*
X0254378Y0171220D01*
X0255046Y0172834D01*
X0255649Y0173436D01*
X0252166Y0173436D01*
X0252268Y0173335D01*
X0252692Y0172751D01*
X0253020Y0172108D01*
X0253243Y0171421D01*
X0253356Y0170708D01*
X0253356Y0167547D01*
X0248969Y0167547D01*
X0248969Y0167147D01*
X0253356Y0167147D01*
X0253356Y0163986D01*
X0253243Y0163272D01*
X0253020Y0162586D01*
X0252692Y0161942D01*
X0252268Y0161358D01*
X0251757Y0160847D01*
X0251173Y0160423D01*
X0250529Y0160095D01*
X0249843Y0159872D01*
X0249130Y0159759D01*
X0248969Y0159759D01*
X0248969Y0167146D01*
X0248568Y0167146D01*
X0248568Y0159759D01*
X0248407Y0159759D01*
X0247694Y0159872D01*
X0247008Y0160095D01*
X0246364Y0160423D01*
X0245780Y0160847D01*
X0245269Y0161358D01*
X0244845Y0161942D01*
X0244517Y0162586D01*
X0244294Y0163272D01*
X0244181Y0163986D01*
X0244181Y0167147D01*
X0248568Y0167147D01*
X0248568Y0167547D01*
X0244181Y0167547D01*
X0244181Y0170708D01*
X0244294Y0171421D01*
X0244517Y0172108D01*
X0244845Y0172751D01*
X0245269Y0173335D01*
X0245371Y0173436D01*
X0084731Y0173436D01*
X0084025Y0173844D01*
X0083040Y0173436D01*
X0081938Y0173436D01*
X0081160Y0173759D01*
X0080382Y0173436D01*
X0079281Y0173436D01*
X0078503Y0173759D01*
X0077725Y0173436D01*
X0076623Y0173436D01*
X0075638Y0173844D01*
X0074932Y0173436D01*
X0056209Y0173436D01*
X0054641Y0173313D01*
X0051657Y0172343D01*
X0050227Y0171304D01*
X0056146Y0171304D01*
X0057759Y0170636D01*
X0058995Y0169401D01*
X0059663Y0167787D01*
X0059663Y0166040D01*
X0058995Y0164426D01*
X0057759Y0163191D01*
X0056146Y0162523D01*
X0048399Y0162523D01*
X0046785Y0163191D01*
X0046211Y0163766D01*
X0046183Y0163410D01*
X0046183Y0160033D01*
X0046785Y0160636D01*
X0048399Y0161304D01*
X0056146Y0161304D01*
X0057759Y0160636D01*
X0058995Y0159401D01*
X0059663Y0157787D01*
X0059663Y0156040D01*
X0058995Y0154426D01*
X0058108Y0153540D01*
X0061887Y0149760D01*
X0061887Y0143855D01*
X0070942Y0134800D01*
X0070942Y0133358D01*
X0070887Y0133303D01*
X0070887Y0083895D01*
X0072757Y0083895D01*
X0072757Y0079539D01*
X0074307Y0079539D01*
X0074307Y0083895D01*
X0076891Y0083895D01*
X0077295Y0083786D01*
X0077657Y0083577D01*
X0077952Y0083282D01*
X0078161Y0082920D01*
X0078269Y0082516D01*
X0078269Y0079539D01*
X0074307Y0079539D01*
X0074307Y0077989D01*
X0074307Y0073633D01*
X0076891Y0073633D01*
X0077295Y0073741D01*
X0077657Y0073950D01*
X0077952Y0074246D01*
X0078161Y0074608D01*
X0078269Y0075012D01*
X0078269Y0077989D01*
X0074307Y0077989D01*
X0072757Y0077989D01*
X0072757Y0073633D01*
X0070887Y0073633D01*
X0070887Y0068904D01*
X0071382Y0068410D01*
X0071773Y0067464D01*
X0071773Y0066441D01*
X0071382Y0065496D01*
X0070658Y0064773D01*
X0069805Y0064419D01*
X0069805Y0063685D01*
X0069413Y0062740D01*
X0068690Y0062017D01*
X0068135Y0061787D01*
X0068230Y0061559D01*
X0068230Y0060536D01*
X0067838Y0059591D01*
X0067115Y0058867D01*
X0066857Y0058761D01*
X0067051Y0058567D01*
X0067443Y0057622D01*
X0067443Y0056599D01*
X0067051Y0055654D01*
X0066328Y0054930D01*
X0065382Y0054539D01*
X0064359Y0054539D01*
X0063414Y0054930D01*
X0062691Y0055654D01*
X0062299Y0056599D01*
X0062299Y0057220D01*
X0060374Y0059145D01*
X0060374Y0125173D01*
X0059304Y0125173D01*
X0058995Y0124426D01*
X0057759Y0123191D01*
X0056146Y0122523D01*
X0048399Y0122523D01*
X0046785Y0123191D01*
X0046183Y0123794D01*
X0046183Y0120033D01*
X0046785Y0120636D01*
X0048399Y0121304D01*
X0056146Y0121304D01*
X0057759Y0120636D01*
X0058995Y0119401D01*
X0059663Y0117787D01*
X0059663Y0116040D01*
X0058995Y0114426D01*
X0057759Y0113191D01*
X0056146Y0112523D01*
X0048399Y0112523D01*
X0046785Y0113191D01*
X0046183Y0113794D01*
X0046183Y0110033D01*
X0046785Y0110636D01*
X0048399Y0111304D01*
X0056146Y0111304D01*
X0057759Y0110636D01*
X0058995Y0109401D01*
X0059663Y0107787D01*
X0059663Y0106040D01*
X0058995Y0104426D01*
X0057759Y0103191D01*
X0056146Y0102523D01*
X0048399Y0102523D01*
X0046785Y0103191D01*
X0046183Y0103794D01*
X0046183Y0100311D01*
X0046284Y0100413D01*
X0046868Y0100837D01*
X0047511Y0101165D01*
X0048198Y0101388D01*
X0048911Y0101501D01*
X0052072Y0101501D01*
X0052072Y0097114D01*
X0052472Y0097114D01*
X0052472Y0101501D01*
X0055633Y0101501D01*
X0056347Y0101388D01*
X0057033Y0101165D01*
X0057677Y0100837D01*
X0058261Y0100413D01*
X0058772Y0099902D01*
X0059196Y0099318D01*
X0059524Y0098674D01*
X0059747Y0097988D01*
X0059860Y0097275D01*
X0059860Y0097113D01*
X0052473Y0097113D01*
X0052473Y0096713D01*
X0059860Y0096713D01*
X0059860Y0096552D01*
X0059747Y0095839D01*
X0059524Y0095153D01*
X0059196Y0094509D01*
X0058772Y0093925D01*
X0058261Y0093414D01*
X0057677Y0092990D01*
X0057033Y0092662D01*
X0056347Y0092439D01*
X0055633Y0092326D01*
X0052472Y0092326D01*
X0052472Y0096713D01*
X0052072Y0096713D01*
X0052072Y0092326D01*
X0048911Y0092326D01*
X0048198Y0092439D01*
X0047511Y0092662D01*
X0046868Y0092990D01*
X0046284Y0093414D01*
X0046183Y0093516D01*
X0046183Y0033488D01*
X0046306Y0031920D01*
X0046518Y0031268D02*
X0129590Y0031268D01*
X0131188Y0029670D02*
X0047037Y0029670D01*
X0047904Y0028071D02*
X0132787Y0028071D01*
X0134385Y0026473D02*
X0049065Y0026473D01*
X0051217Y0024874D02*
X0165924Y0024874D01*
X0165924Y0025330D02*
X0165924Y0024402D01*
X0166739Y0023587D01*
X0171828Y0023587D01*
X0172630Y0024389D01*
X0173432Y0023587D01*
X0178521Y0023587D01*
X0179335Y0024402D01*
X0179335Y0028041D01*
X0179812Y0028518D01*
X0180625Y0028518D01*
X0180625Y0027517D01*
X0181440Y0026702D01*
X0186529Y0026702D01*
X0187343Y0027517D01*
X0187343Y0033000D01*
X0186864Y0033479D01*
X0186927Y0033516D01*
X0187223Y0033811D01*
X0187432Y0034173D01*
X0187540Y0034577D01*
X0187540Y0036767D01*
X0184169Y0036767D01*
X0184169Y0037136D01*
X0187540Y0037136D01*
X0187540Y0039326D01*
X0187432Y0039729D01*
X0187241Y0040059D01*
X0187368Y0040279D01*
X0187476Y0040682D01*
X0187476Y0042873D01*
X0184105Y0042873D01*
X0184105Y0043241D01*
X0187476Y0043241D01*
X0187476Y0045431D01*
X0187368Y0045835D01*
X0187159Y0046197D01*
X0186864Y0046492D01*
X0186800Y0046529D01*
X0187280Y0047008D01*
X0187280Y0052491D01*
X0186465Y0053306D01*
X0182826Y0053306D01*
X0181517Y0054615D01*
X0179335Y0054615D01*
X0179335Y0055615D01*
X0178521Y0056430D01*
X0173432Y0056430D01*
X0172630Y0055628D01*
X0171828Y0056430D01*
X0166739Y0056430D01*
X0165924Y0055615D01*
X0165924Y0054520D01*
X0159308Y0054520D01*
X0159308Y0061573D01*
X0166364Y0061573D01*
X0167025Y0061571D01*
X0167027Y0061573D01*
X0167030Y0061573D01*
X0167496Y0062039D01*
X0167965Y0062506D01*
X0167965Y0062509D01*
X0167967Y0062511D01*
X0167967Y0063169D01*
X0168044Y0087942D01*
X0168046Y0087944D01*
X0168046Y0088606D01*
X0168048Y0089264D01*
X0168046Y0089266D01*
X0168046Y0089269D01*
X0167579Y0089736D01*
X0167113Y0090204D01*
X0167110Y0090204D01*
X0163171Y0094143D01*
X0155297Y0094143D01*
X0144424Y0105017D01*
X0144424Y0128639D01*
X0143486Y0129576D01*
X0133803Y0129576D01*
X0134381Y0132110D01*
X0134381Y0132110D01*
X0133775Y0134768D01*
X0132075Y0136899D01*
X0129620Y0138082D01*
X0100910Y0138082D01*
X0098454Y0136899D01*
X0098454Y0136899D01*
X0096754Y0134768D01*
X0096148Y0132110D01*
X0096726Y0129576D01*
X0095573Y0129576D01*
X0094919Y0129577D01*
X0094918Y0129576D01*
X0094917Y0129576D01*
X0094445Y0129105D01*
X0093980Y0128641D01*
X0093980Y0128640D01*
X0093980Y0128639D01*
X0093980Y0127970D01*
X0093939Y0094444D01*
X0093611Y0094116D01*
X0092809Y0094918D01*
X0087720Y0094918D01*
X0086974Y0094172D01*
X0086445Y0095450D01*
X0085002Y0096893D01*
X0083116Y0097674D01*
X0081075Y0097674D01*
X0079189Y0096893D01*
X0077746Y0095450D01*
X0076965Y0093564D01*
X0076965Y0091523D01*
X0077746Y0089637D01*
X0079189Y0088194D01*
X0081075Y0087413D01*
X0083116Y0087413D01*
X0085002Y0088194D01*
X0086445Y0089637D01*
X0086906Y0090749D01*
X0086906Y0087930D01*
X0085826Y0087930D01*
X0084645Y0086749D01*
X0083657Y0085761D01*
X0083657Y0083698D01*
X0080830Y0083698D01*
X0080016Y0082883D01*
X0080016Y0074645D01*
X0080830Y0073830D01*
X0082870Y0073830D01*
X0082870Y0071766D01*
X0084445Y0070192D01*
X0084445Y0060743D01*
X0085432Y0059755D01*
X0086574Y0058613D01*
X0086906Y0058613D01*
X0086906Y0057558D01*
X0087720Y0056743D01*
X0092809Y0056743D01*
X0093611Y0057545D01*
X0094413Y0056743D01*
X0099502Y0056743D01*
X0100317Y0057558D01*
X0100317Y0058613D01*
X0101829Y0058613D01*
X0104789Y0061573D01*
X0126003Y0061573D01*
X0125859Y0061514D01*
X0125053Y0060708D01*
X0124617Y0059654D01*
X0124617Y0058513D01*
X0125053Y0057460D01*
X0125377Y0057135D01*
X0125377Y0053154D01*
X0125068Y0052845D01*
X0124644Y0053269D01*
X0124254Y0053269D01*
X0124254Y0055376D01*
X0124531Y0055654D01*
X0124923Y0056599D01*
X0124923Y0057622D01*
X0124531Y0058567D01*
X0123808Y0059290D01*
X0122863Y0059682D01*
X0121840Y0059682D01*
X0120894Y0059290D01*
X0120171Y0058567D01*
X0119780Y0057622D01*
X0119780Y0056599D01*
X0120171Y0055654D01*
X0120882Y0054943D01*
X0120882Y0053269D01*
X0120492Y0053269D01*
X0119677Y0052454D01*
X0119677Y0044802D01*
X0120492Y0043987D01*
X0120611Y0043987D01*
X0120611Y0040248D01*
X0135528Y0025330D01*
X0165924Y0025330D01*
X0162799Y0031686D02*
X0136700Y0031686D01*
X0134308Y0034077D01*
X0134308Y0043987D01*
X0134644Y0043987D01*
X0135068Y0044412D01*
X0135492Y0043987D01*
X0139644Y0043987D01*
X0140068Y0044412D01*
X0140492Y0043987D01*
X0144644Y0043987D01*
X0145068Y0044412D01*
X0145492Y0043987D01*
X0146005Y0043987D01*
X0147662Y0042330D01*
X0165924Y0042330D01*
X0165924Y0041393D01*
X0166739Y0040578D01*
X0171828Y0040578D01*
X0172630Y0041380D01*
X0173432Y0040578D01*
X0178521Y0040578D01*
X0179335Y0041393D01*
X0179335Y0046875D01*
X0178521Y0047690D01*
X0177717Y0047690D01*
X0177717Y0049318D01*
X0178521Y0049318D01*
X0179335Y0050133D01*
X0179335Y0051134D01*
X0180075Y0051134D01*
X0180561Y0050647D01*
X0180561Y0047008D01*
X0181041Y0046529D01*
X0180977Y0046492D01*
X0180682Y0046197D01*
X0180473Y0045835D01*
X0180365Y0045431D01*
X0180365Y0043241D01*
X0183736Y0043241D01*
X0183736Y0042873D01*
X0180365Y0042873D01*
X0180365Y0040682D01*
X0180473Y0040279D01*
X0180663Y0039949D01*
X0180537Y0039729D01*
X0180428Y0039326D01*
X0180428Y0037136D01*
X0183800Y0037136D01*
X0183800Y0040704D01*
X0183736Y0040704D01*
X0183736Y0042872D01*
X0184105Y0042872D01*
X0184105Y0039304D01*
X0184169Y0039304D01*
X0184169Y0037136D01*
X0183800Y0037136D01*
X0183800Y0036767D01*
X0180428Y0036767D01*
X0180428Y0034577D01*
X0180537Y0034173D01*
X0180746Y0033811D01*
X0181041Y0033516D01*
X0181105Y0033479D01*
X0180625Y0033000D01*
X0180625Y0031999D01*
X0178370Y0031999D01*
X0177717Y0031345D01*
X0177717Y0032153D01*
X0178521Y0032153D01*
X0179335Y0032967D01*
X0179335Y0038450D01*
X0178521Y0039265D01*
X0173432Y0039265D01*
X0172630Y0038463D01*
X0171828Y0039265D01*
X0166739Y0039265D01*
X0165924Y0038450D01*
X0165924Y0034811D01*
X0162799Y0031686D01*
X0163980Y0032867D02*
X0135518Y0032867D01*
X0134308Y0034465D02*
X0165579Y0034465D01*
X0165924Y0036064D02*
X0134308Y0036064D01*
X0134308Y0037662D02*
X0165924Y0037662D01*
X0166735Y0039261D02*
X0134308Y0039261D01*
X0134308Y0040859D02*
X0166458Y0040859D01*
X0171832Y0039261D02*
X0173428Y0039261D01*
X0173151Y0040859D02*
X0172109Y0040859D01*
X0178525Y0039261D02*
X0180428Y0039261D01*
X0180428Y0037662D02*
X0179335Y0037662D01*
X0179335Y0036064D02*
X0180428Y0036064D01*
X0180458Y0034465D02*
X0179335Y0034465D01*
X0179235Y0032867D02*
X0180625Y0032867D01*
X0183800Y0037662D02*
X0184169Y0037662D01*
X0184169Y0039261D02*
X0183800Y0039261D01*
X0183736Y0040859D02*
X0184105Y0040859D01*
X0184105Y0042458D02*
X0183736Y0042458D01*
X0180365Y0042458D02*
X0179335Y0042458D01*
X0179335Y0044056D02*
X0180365Y0044056D01*
X0180425Y0045655D02*
X0179335Y0045655D01*
X0178957Y0047253D02*
X0180561Y0047253D01*
X0180561Y0048852D02*
X0177717Y0048852D01*
X0179335Y0050450D02*
X0180561Y0050450D01*
X0182484Y0053647D02*
X0198682Y0053647D01*
X0198786Y0053708D02*
X0198424Y0053499D01*
X0198128Y0053203D01*
X0197919Y0052841D01*
X0197811Y0052437D01*
X0197811Y0049854D01*
X0202167Y0049854D01*
X0202167Y0053816D01*
X0199189Y0053816D01*
X0198786Y0053708D01*
X0197811Y0052049D02*
X0187280Y0052049D01*
X0187280Y0050450D02*
X0197811Y0050450D01*
X0197811Y0048304D02*
X0197811Y0045720D01*
X0197919Y0045317D01*
X0198128Y0044955D01*
X0198424Y0044659D01*
X0198786Y0044450D01*
X0199189Y0044342D01*
X0202167Y0044342D01*
X0202167Y0048304D01*
X0203717Y0048304D01*
X0203717Y0049854D01*
X0208072Y0049854D01*
X0208072Y0052437D01*
X0207964Y0052841D01*
X0207755Y0053203D01*
X0207460Y0053499D01*
X0207098Y0053708D01*
X0206694Y0053816D01*
X0203717Y0053816D01*
X0203717Y0049854D01*
X0202167Y0049854D01*
X0202167Y0048304D01*
X0197811Y0048304D01*
X0197811Y0047253D02*
X0187280Y0047253D01*
X0187280Y0048852D02*
X0202167Y0048852D01*
X0203717Y0048852D02*
X0218710Y0048852D01*
X0218956Y0048259D02*
X0220338Y0046876D01*
X0220932Y0046630D01*
X0220932Y0044997D01*
X0219137Y0044997D01*
X0218323Y0044182D01*
X0218323Y0035944D01*
X0219137Y0035129D01*
X0226589Y0035129D01*
X0227403Y0035944D01*
X0227403Y0044182D01*
X0226589Y0044997D01*
X0225313Y0044997D01*
X0225313Y0046630D01*
X0225907Y0046876D01*
X0227290Y0048259D01*
X0228038Y0050066D01*
X0228038Y0052021D01*
X0227290Y0053828D01*
X0225907Y0055211D01*
X0224101Y0055959D01*
X0222145Y0055959D01*
X0220338Y0055211D01*
X0218956Y0053828D01*
X0218207Y0052021D01*
X0218207Y0050066D01*
X0218956Y0048259D01*
X0219961Y0047253D02*
X0208072Y0047253D01*
X0208072Y0048304D02*
X0208072Y0045720D01*
X0207964Y0045317D01*
X0207755Y0044955D01*
X0207460Y0044659D01*
X0207098Y0044450D01*
X0206694Y0044342D01*
X0203717Y0044342D01*
X0203717Y0048304D01*
X0208072Y0048304D01*
X0208072Y0050450D02*
X0218207Y0050450D01*
X0218219Y0052049D02*
X0208072Y0052049D01*
X0207202Y0053647D02*
X0218881Y0053647D01*
X0220424Y0055246D02*
X0179335Y0055246D01*
X0187485Y0063239D02*
X0167967Y0063239D01*
X0167972Y0064837D02*
X0187299Y0064837D01*
X0187299Y0066436D02*
X0167977Y0066436D01*
X0167982Y0068034D02*
X0187299Y0068034D01*
X0187784Y0069633D02*
X0167987Y0069633D01*
X0167992Y0071231D02*
X0187299Y0071231D01*
X0187299Y0072830D02*
X0167997Y0072830D01*
X0168002Y0074428D02*
X0187299Y0074428D01*
X0189115Y0076027D02*
X0168007Y0076027D01*
X0168012Y0077625D02*
X0189115Y0077625D01*
X0189247Y0079224D02*
X0168017Y0079224D01*
X0168022Y0080822D02*
X0190846Y0080822D01*
X0204649Y0082421D02*
X0168027Y0082421D01*
X0168031Y0084019D02*
X0204863Y0084019D01*
X0204863Y0085618D02*
X0168036Y0085618D01*
X0168041Y0087216D02*
X0204863Y0087216D01*
X0204863Y0088815D02*
X0168046Y0088815D01*
X0166902Y0090413D02*
X0204863Y0090413D01*
X0204863Y0092012D02*
X0165303Y0092012D01*
X0163705Y0093610D02*
X0204863Y0093610D01*
X0204863Y0095209D02*
X0154232Y0095209D01*
X0152633Y0096807D02*
X0204863Y0096807D01*
X0204863Y0098406D02*
X0151035Y0098406D01*
X0149436Y0100004D02*
X0205697Y0100004D01*
X0207296Y0101603D02*
X0147838Y0101603D01*
X0146239Y0103201D02*
X0208894Y0103201D01*
X0210493Y0104800D02*
X0184954Y0104800D01*
X0184896Y0104742D02*
X0186727Y0106573D01*
X0187718Y0108965D01*
X0187718Y0111555D01*
X0186727Y0113947D01*
X0184896Y0115778D01*
X0182504Y0116769D01*
X0179915Y0116769D01*
X0177523Y0115778D01*
X0175692Y0113947D01*
X0174701Y0111555D01*
X0174701Y0108965D01*
X0175692Y0106573D01*
X0177523Y0104742D01*
X0179915Y0103751D01*
X0182504Y0103751D01*
X0184896Y0104742D01*
X0186552Y0106398D02*
X0212091Y0106398D01*
X0213690Y0107997D02*
X0187317Y0107997D01*
X0187718Y0109595D02*
X0215288Y0109595D01*
X0216887Y0111194D02*
X0187718Y0111194D01*
X0187205Y0112792D02*
X0218485Y0112792D01*
X0219823Y0114391D02*
X0186283Y0114391D01*
X0184385Y0115989D02*
X0219823Y0115989D01*
X0219823Y0117588D02*
X0144424Y0117588D01*
X0144424Y0119186D02*
X0178860Y0119186D01*
X0179027Y0118937D02*
X0179453Y0118510D01*
X0179955Y0118175D01*
X0180513Y0117944D01*
X0181105Y0117826D01*
X0181406Y0117826D01*
X0181406Y0120890D01*
X0181406Y0120890D01*
X0178343Y0120890D01*
X0178343Y0121192D01*
X0178460Y0121784D01*
X0178691Y0122341D01*
X0179027Y0122843D01*
X0179453Y0123270D01*
X0179955Y0123605D01*
X0180513Y0123836D01*
X0181105Y0123954D01*
X0181406Y0123954D01*
X0181406Y0120890D01*
X0181406Y0120890D01*
X0178343Y0120890D01*
X0178343Y0120588D01*
X0178460Y0119996D01*
X0178691Y0119439D01*
X0179027Y0118937D01*
X0178343Y0120785D02*
X0144424Y0120785D01*
X0144424Y0122383D02*
X0178720Y0122383D01*
X0181406Y0122383D02*
X0181406Y0122383D01*
X0181406Y0120890D02*
X0181406Y0123954D01*
X0181708Y0123954D01*
X0182300Y0123836D01*
X0182858Y0123605D01*
X0183359Y0123270D01*
X0183786Y0122843D01*
X0184121Y0122341D01*
X0184352Y0121784D01*
X0184470Y0121192D01*
X0184470Y0120890D01*
X0181406Y0120890D01*
X0181406Y0120890D01*
X0181406Y0120890D01*
X0181406Y0117826D01*
X0181708Y0117826D01*
X0182300Y0117944D01*
X0182858Y0118175D01*
X0183359Y0118510D01*
X0183786Y0118937D01*
X0184121Y0119439D01*
X0184352Y0119996D01*
X0184470Y0120588D01*
X0184470Y0120890D01*
X0181406Y0120890D01*
X0181406Y0120785D02*
X0181406Y0120785D01*
X0181406Y0119186D02*
X0181406Y0119186D01*
X0183953Y0119186D02*
X0219823Y0119186D01*
X0219823Y0120785D02*
X0184470Y0120785D01*
X0184093Y0122383D02*
X0219964Y0122383D01*
X0219964Y0123982D02*
X0144424Y0123982D01*
X0144424Y0125580D02*
X0149963Y0125580D01*
X0150387Y0125405D02*
X0152977Y0125405D01*
X0155369Y0126396D01*
X0157200Y0128227D01*
X0158191Y0130619D01*
X0158191Y0133208D01*
X0157200Y0135600D01*
X0155369Y0137431D01*
X0152977Y0138422D01*
X0150387Y0138422D01*
X0147995Y0137431D01*
X0146164Y0135600D01*
X0145173Y0133208D01*
X0145173Y0130619D01*
X0146164Y0128227D01*
X0147995Y0126396D01*
X0150387Y0125405D01*
X0153401Y0125580D02*
X0179491Y0125580D01*
X0179915Y0125405D02*
X0177523Y0126396D01*
X0175692Y0128227D01*
X0174701Y0130619D01*
X0174701Y0133208D01*
X0175692Y0135600D01*
X0177523Y0137431D01*
X0179915Y0138422D01*
X0182504Y0138422D01*
X0184896Y0137431D01*
X0186727Y0135600D01*
X0187718Y0133208D01*
X0187718Y0130619D01*
X0186727Y0128227D01*
X0184896Y0126396D01*
X0182504Y0125405D01*
X0179915Y0125405D01*
X0182928Y0125580D02*
X0219964Y0125580D01*
X0219964Y0127179D02*
X0185680Y0127179D01*
X0186955Y0128778D02*
X0220102Y0128778D01*
X0223382Y0133469D02*
X0225268Y0132688D01*
X0227309Y0132688D01*
X0229195Y0133469D01*
X0230638Y0134913D01*
X0231419Y0136798D01*
X0231419Y0138840D01*
X0230638Y0140725D01*
X0229195Y0142169D01*
X0227309Y0142950D01*
X0225268Y0142950D01*
X0223382Y0142169D01*
X0221939Y0140725D01*
X0221157Y0138840D01*
X0221157Y0136798D01*
X0221939Y0134913D01*
X0223382Y0133469D01*
X0223278Y0133573D02*
X0187567Y0133573D01*
X0187718Y0131975D02*
X0230037Y0131975D01*
X0230340Y0133573D02*
X0229298Y0133573D01*
X0230745Y0135172D02*
X0230934Y0135172D01*
X0231407Y0136770D02*
X0232209Y0136770D01*
X0231419Y0138369D02*
X0266827Y0138369D01*
X0266827Y0138840D02*
X0266827Y0136798D01*
X0267608Y0134913D01*
X0269051Y0133469D01*
X0270937Y0132688D01*
X0272978Y0132688D01*
X0274864Y0133469D01*
X0276307Y0134913D01*
X0277088Y0136798D01*
X0277088Y0138840D01*
X0276307Y0140725D01*
X0274864Y0142169D01*
X0272978Y0142950D01*
X0270937Y0142950D01*
X0269051Y0142169D01*
X0267608Y0140725D01*
X0266827Y0138840D01*
X0267294Y0139967D02*
X0230952Y0139967D01*
X0229797Y0141566D02*
X0268448Y0141566D01*
X0266839Y0136770D02*
X0266036Y0136770D01*
X0267311Y0135172D02*
X0267501Y0135172D01*
X0267906Y0133573D02*
X0268947Y0133573D01*
X0268209Y0131975D02*
X0279031Y0131975D01*
X0279031Y0133208D02*
X0279031Y0130619D01*
X0280022Y0128227D01*
X0281853Y0126396D01*
X0284245Y0125405D01*
X0286835Y0125405D01*
X0289227Y0126396D01*
X0291058Y0128227D01*
X0292049Y0130619D01*
X0292049Y0133208D01*
X0291058Y0135600D01*
X0289227Y0137431D01*
X0286835Y0138422D01*
X0284245Y0138422D01*
X0281853Y0137431D01*
X0280022Y0135600D01*
X0279031Y0133208D01*
X0279183Y0133573D02*
X0274967Y0133573D01*
X0276414Y0135172D02*
X0279845Y0135172D01*
X0281192Y0136770D02*
X0277076Y0136770D01*
X0277088Y0138369D02*
X0284116Y0138369D01*
X0286964Y0138369D02*
X0294626Y0138369D01*
X0294626Y0136770D02*
X0289888Y0136770D01*
X0291236Y0135172D02*
X0294626Y0135172D01*
X0294626Y0133573D02*
X0291898Y0133573D01*
X0292049Y0131975D02*
X0294626Y0131975D01*
X0294626Y0130376D02*
X0291948Y0130376D01*
X0291286Y0128778D02*
X0294626Y0128778D01*
X0294626Y0127179D02*
X0290010Y0127179D01*
X0287259Y0125580D02*
X0294626Y0125580D01*
X0294626Y0123982D02*
X0278282Y0123982D01*
X0278282Y0125580D02*
X0283821Y0125580D01*
X0281070Y0127179D02*
X0278282Y0127179D01*
X0278144Y0128778D02*
X0279794Y0128778D01*
X0279132Y0130376D02*
X0267844Y0130376D01*
X0278282Y0122383D02*
X0294626Y0122383D01*
X0294626Y0120785D02*
X0278282Y0120785D01*
X0278282Y0119186D02*
X0294626Y0119186D01*
X0294173Y0117588D02*
X0278282Y0117588D01*
X0278282Y0115989D02*
X0282364Y0115989D01*
X0281853Y0115778D02*
X0280022Y0113947D01*
X0279031Y0111555D01*
X0279031Y0108965D01*
X0280022Y0106573D01*
X0281853Y0104742D01*
X0284245Y0103751D01*
X0286835Y0103751D01*
X0289227Y0104742D01*
X0291058Y0106573D01*
X0292049Y0108965D01*
X0292049Y0111555D01*
X0291058Y0113947D01*
X0289227Y0115778D01*
X0286835Y0116769D01*
X0284245Y0116769D01*
X0281853Y0115778D01*
X0280467Y0114391D02*
X0278282Y0114391D01*
X0278282Y0112792D02*
X0279544Y0112792D01*
X0279031Y0111194D02*
X0278282Y0111194D01*
X0278282Y0109595D02*
X0279031Y0109595D01*
X0279433Y0107997D02*
X0278282Y0107997D01*
X0278282Y0106398D02*
X0280197Y0106398D01*
X0281796Y0104800D02*
X0278282Y0104800D01*
X0278282Y0103201D02*
X0298563Y0103201D01*
X0298563Y0101603D02*
X0278282Y0101603D01*
X0278282Y0100004D02*
X0298563Y0100004D01*
X0298563Y0098406D02*
X0278282Y0098406D01*
X0278282Y0096807D02*
X0279300Y0096807D01*
X0285284Y0096807D02*
X0298563Y0096807D01*
X0297809Y0095209D02*
X0286742Y0095209D01*
X0287404Y0093610D02*
X0297894Y0093610D01*
X0299620Y0092012D02*
X0287423Y0092012D01*
X0286963Y0090413D02*
X0298074Y0090413D01*
X0296476Y0088815D02*
X0285819Y0088815D01*
X0278765Y0088815D02*
X0278282Y0088815D01*
X0278282Y0087216D02*
X0294877Y0087216D01*
X0293279Y0085618D02*
X0278282Y0085618D01*
X0278282Y0084019D02*
X0291680Y0084019D01*
X0290082Y0082421D02*
X0278282Y0082421D01*
X0278282Y0080822D02*
X0288483Y0080822D01*
X0286885Y0079224D02*
X0278282Y0079224D01*
X0278282Y0077625D02*
X0285286Y0077625D01*
X0283688Y0076027D02*
X0278282Y0076027D01*
X0278282Y0074428D02*
X0282089Y0074428D01*
X0280491Y0072830D02*
X0278282Y0072830D01*
X0278282Y0071231D02*
X0278892Y0071231D01*
X0280618Y0068034D02*
X0326079Y0068034D01*
X0326079Y0066436D02*
X0280106Y0066436D01*
X0278282Y0064837D02*
X0326079Y0064837D01*
X0326079Y0063239D02*
X0278282Y0063239D01*
X0278282Y0061640D02*
X0326079Y0061640D01*
X0326079Y0060042D02*
X0277939Y0060042D01*
X0275159Y0058443D02*
X0286474Y0058443D01*
X0285779Y0056845D02*
X0275159Y0056845D01*
X0275159Y0055246D02*
X0285426Y0055246D01*
X0283827Y0053647D02*
X0275159Y0053647D01*
X0276049Y0052049D02*
X0282229Y0052049D01*
X0284506Y0044913D02*
X0285664Y0044913D01*
X0285664Y0043854D01*
X0286478Y0043039D01*
X0291567Y0043039D01*
X0292369Y0043841D01*
X0293171Y0043039D01*
X0298260Y0043039D01*
X0299075Y0043854D01*
X0299075Y0049337D01*
X0298260Y0050151D01*
X0297456Y0050151D01*
X0297456Y0050919D01*
X0298081Y0050294D01*
X0300518Y0050294D01*
X0300518Y0049293D01*
X0300997Y0048814D01*
X0300934Y0048777D01*
X0300638Y0048482D01*
X0300429Y0048120D01*
X0300321Y0047716D01*
X0300321Y0045526D01*
X0303693Y0045526D01*
X0303693Y0045158D01*
X0300321Y0045158D01*
X0300321Y0042967D01*
X0300429Y0042564D01*
X0300464Y0042504D01*
X0300429Y0042444D01*
X0300321Y0042040D01*
X0300321Y0039850D01*
X0303693Y0039850D01*
X0303693Y0039481D01*
X0300321Y0039481D01*
X0300321Y0037291D01*
X0300429Y0036887D01*
X0300638Y0036525D01*
X0300934Y0036230D01*
X0300997Y0036193D01*
X0300518Y0035714D01*
X0300518Y0032075D01*
X0300042Y0031599D01*
X0299075Y0031599D01*
X0299075Y0032600D01*
X0298260Y0033414D01*
X0297471Y0033414D01*
X0297471Y0034613D01*
X0298275Y0034613D01*
X0299090Y0035428D01*
X0299090Y0040911D01*
X0298275Y0041725D01*
X0293186Y0041725D01*
X0292384Y0040923D01*
X0291582Y0041725D01*
X0286493Y0041725D01*
X0285679Y0040911D01*
X0285679Y0039899D01*
X0251790Y0039899D01*
X0249844Y0041844D01*
X0249844Y0043987D01*
X0250234Y0043987D01*
X0250658Y0044412D01*
X0251082Y0043987D01*
X0255234Y0043987D01*
X0255658Y0044412D01*
X0256082Y0043987D01*
X0260234Y0043987D01*
X0260658Y0044412D01*
X0261082Y0043987D01*
X0261427Y0043987D01*
X0262437Y0042977D01*
X0262437Y0042977D01*
X0263677Y0041737D01*
X0265119Y0041737D01*
X0265174Y0041791D01*
X0281385Y0041791D01*
X0284506Y0044913D01*
X0283650Y0044056D02*
X0285664Y0044056D01*
X0285679Y0040859D02*
X0250829Y0040859D01*
X0249844Y0042458D02*
X0262956Y0042458D01*
X0261013Y0044056D02*
X0260303Y0044056D01*
X0256013Y0044056D02*
X0255303Y0044056D01*
X0251013Y0044056D02*
X0250303Y0044056D01*
X0243158Y0048628D02*
X0243158Y0056317D01*
X0243098Y0056377D01*
X0236359Y0056845D02*
X0207876Y0056845D01*
X0203717Y0053647D02*
X0202167Y0053647D01*
X0202167Y0052049D02*
X0203717Y0052049D01*
X0203717Y0050450D02*
X0202167Y0050450D01*
X0202167Y0047253D02*
X0203717Y0047253D01*
X0203717Y0045655D02*
X0202167Y0045655D01*
X0197829Y0045655D02*
X0187416Y0045655D01*
X0187476Y0044056D02*
X0207167Y0044056D01*
X0207211Y0044219D02*
X0207102Y0043815D01*
X0207102Y0040838D01*
X0211064Y0040838D01*
X0211064Y0039288D01*
X0207102Y0039288D01*
X0207102Y0036311D01*
X0207211Y0035907D01*
X0207420Y0035545D01*
X0207715Y0035250D01*
X0208077Y0035041D01*
X0208481Y0034932D01*
X0211065Y0034932D01*
X0211065Y0039288D01*
X0212614Y0039288D01*
X0212614Y0034932D01*
X0215198Y0034932D01*
X0215602Y0035041D01*
X0215964Y0035250D01*
X0216259Y0035545D01*
X0216468Y0035907D01*
X0216576Y0036311D01*
X0216576Y0039288D01*
X0212614Y0039288D01*
X0212614Y0040838D01*
X0211065Y0040838D01*
X0211065Y0045194D01*
X0208481Y0045194D01*
X0208077Y0045086D01*
X0207715Y0044877D01*
X0207420Y0044581D01*
X0207211Y0044219D01*
X0208055Y0045655D02*
X0220932Y0045655D01*
X0218323Y0044056D02*
X0216512Y0044056D01*
X0216468Y0044219D02*
X0216259Y0044581D01*
X0215964Y0044877D01*
X0215602Y0045086D01*
X0215198Y0045194D01*
X0212614Y0045194D01*
X0212614Y0040838D01*
X0216576Y0040838D01*
X0216576Y0043815D01*
X0216468Y0044219D01*
X0216576Y0042458D02*
X0218323Y0042458D01*
X0218323Y0040859D02*
X0216576Y0040859D01*
X0216576Y0039261D02*
X0218323Y0039261D01*
X0218323Y0037662D02*
X0216576Y0037662D01*
X0216510Y0036064D02*
X0218323Y0036064D01*
X0212614Y0036064D02*
X0211065Y0036064D01*
X0211065Y0037662D02*
X0212614Y0037662D01*
X0212614Y0039261D02*
X0211065Y0039261D01*
X0211065Y0040859D02*
X0212614Y0040859D01*
X0212614Y0042458D02*
X0211065Y0042458D01*
X0211065Y0044056D02*
X0212614Y0044056D01*
X0207102Y0042458D02*
X0187476Y0042458D01*
X0187476Y0040859D02*
X0207102Y0040859D01*
X0207102Y0039261D02*
X0187540Y0039261D01*
X0187540Y0037662D02*
X0207102Y0037662D01*
X0207169Y0036064D02*
X0187540Y0036064D01*
X0187510Y0034465D02*
X0235781Y0034465D01*
X0235985Y0034381D02*
X0236577Y0034263D01*
X0236879Y0034263D01*
X0237180Y0034263D01*
X0237772Y0034381D01*
X0238330Y0034612D01*
X0238832Y0034947D01*
X0239259Y0035374D01*
X0239594Y0035876D01*
X0239825Y0036433D01*
X0239943Y0037025D01*
X0239943Y0037327D01*
X0236879Y0037327D01*
X0236879Y0034263D01*
X0236879Y0037327D01*
X0236879Y0037327D01*
X0236879Y0040391D01*
X0236577Y0040391D01*
X0235985Y0040273D01*
X0235427Y0040042D01*
X0234926Y0039707D01*
X0234499Y0039280D01*
X0234164Y0038778D01*
X0233933Y0038221D01*
X0233815Y0037629D01*
X0233815Y0037327D01*
X0236879Y0037327D01*
X0236879Y0037327D01*
X0233815Y0037327D01*
X0233815Y0037025D01*
X0233933Y0036433D01*
X0234164Y0035876D01*
X0234499Y0035374D01*
X0234926Y0034947D01*
X0235427Y0034612D01*
X0235985Y0034381D01*
X0236879Y0034465D02*
X0236879Y0034465D01*
X0237976Y0034465D02*
X0276077Y0034465D01*
X0277675Y0032867D02*
X0187343Y0032867D01*
X0187343Y0031268D02*
X0279274Y0031268D01*
X0280872Y0029670D02*
X0187343Y0029670D01*
X0187343Y0028071D02*
X0285664Y0028071D01*
X0286308Y0026473D02*
X0179335Y0026473D01*
X0179366Y0028071D02*
X0180625Y0028071D01*
X0179335Y0024874D02*
X0321044Y0024874D01*
X0323196Y0026473D02*
X0298431Y0026473D01*
X0299075Y0028071D02*
X0324358Y0028071D01*
X0325224Y0029670D02*
X0306675Y0029670D01*
X0307236Y0031268D02*
X0325744Y0031268D01*
X0326030Y0032867D02*
X0307236Y0032867D01*
X0307236Y0034465D02*
X0326079Y0034465D01*
X0326079Y0036064D02*
X0306886Y0036064D01*
X0307433Y0037662D02*
X0326079Y0037662D01*
X0326079Y0039261D02*
X0307433Y0039261D01*
X0307433Y0040859D02*
X0326079Y0040859D01*
X0326079Y0042458D02*
X0307317Y0042458D01*
X0307433Y0044056D02*
X0326079Y0044056D01*
X0326079Y0045655D02*
X0307433Y0045655D01*
X0307433Y0047253D02*
X0326079Y0047253D01*
X0326079Y0048852D02*
X0306795Y0048852D01*
X0307236Y0050450D02*
X0326079Y0050450D01*
X0326079Y0052049D02*
X0307236Y0052049D01*
X0307236Y0053647D02*
X0326079Y0053647D01*
X0326079Y0055246D02*
X0306766Y0055246D01*
X0300988Y0055246D02*
X0299190Y0055246D01*
X0299190Y0056845D02*
X0326079Y0056845D01*
X0326079Y0058443D02*
X0298494Y0058443D01*
X0293167Y0058443D02*
X0291802Y0058443D01*
X0297456Y0050450D02*
X0297925Y0050450D01*
X0299075Y0048852D02*
X0300960Y0048852D01*
X0300321Y0047253D02*
X0299075Y0047253D01*
X0299075Y0045655D02*
X0300321Y0045655D01*
X0300321Y0044056D02*
X0299075Y0044056D01*
X0300438Y0042458D02*
X0282051Y0042458D01*
X0268158Y0048628D02*
X0268158Y0056337D01*
X0268198Y0056377D01*
X0282217Y0069633D02*
X0283081Y0069633D01*
X0287606Y0069633D02*
X0326079Y0069633D01*
X0326079Y0071231D02*
X0293635Y0071231D01*
X0291854Y0071231D02*
X0289014Y0071231D01*
X0295190Y0072830D02*
X0326079Y0072830D01*
X0326079Y0074428D02*
X0296668Y0074428D01*
X0298266Y0076027D02*
X0326079Y0076027D01*
X0326079Y0077625D02*
X0299865Y0077625D01*
X0301463Y0079224D02*
X0326079Y0079224D01*
X0326079Y0080822D02*
X0303062Y0080822D01*
X0304660Y0082421D02*
X0326079Y0082421D01*
X0326079Y0084019D02*
X0306259Y0084019D01*
X0307857Y0085618D02*
X0326079Y0085618D01*
X0326079Y0087216D02*
X0308486Y0087216D01*
X0308486Y0088815D02*
X0326079Y0088815D01*
X0326079Y0090413D02*
X0308486Y0090413D01*
X0308486Y0092012D02*
X0326079Y0092012D01*
X0326079Y0093610D02*
X0308486Y0093610D01*
X0308486Y0095209D02*
X0326079Y0095209D01*
X0326079Y0096807D02*
X0308486Y0096807D01*
X0308486Y0098406D02*
X0326079Y0098406D01*
X0326079Y0100004D02*
X0308486Y0100004D01*
X0308486Y0101603D02*
X0326079Y0101603D01*
X0326079Y0103201D02*
X0308486Y0103201D01*
X0308486Y0104800D02*
X0311323Y0104800D01*
X0311381Y0104742D02*
X0313773Y0103751D01*
X0316362Y0103751D01*
X0318755Y0104742D01*
X0320585Y0106573D01*
X0321576Y0108965D01*
X0321576Y0111555D01*
X0320585Y0113947D01*
X0318755Y0115778D01*
X0316362Y0116769D01*
X0313773Y0116769D01*
X0311381Y0115778D01*
X0309550Y0113947D01*
X0308559Y0111555D01*
X0308559Y0108965D01*
X0309550Y0106573D01*
X0311381Y0104742D01*
X0309725Y0106398D02*
X0308486Y0106398D01*
X0308486Y0107997D02*
X0308960Y0107997D01*
X0308559Y0109595D02*
X0308486Y0109595D01*
X0308486Y0111194D02*
X0308559Y0111194D01*
X0308486Y0112792D02*
X0309072Y0112792D01*
X0308486Y0114391D02*
X0309994Y0114391D01*
X0308486Y0115989D02*
X0311892Y0115989D01*
X0314099Y0118510D02*
X0314601Y0118175D01*
X0315158Y0117944D01*
X0315750Y0117826D01*
X0316052Y0117826D01*
X0316354Y0117826D01*
X0316946Y0117944D01*
X0317503Y0118175D01*
X0318005Y0118510D01*
X0318432Y0118937D01*
X0318767Y0119439D01*
X0318998Y0119996D01*
X0319116Y0120588D01*
X0319116Y0120890D01*
X0319116Y0121192D01*
X0318998Y0121784D01*
X0318767Y0122341D01*
X0318432Y0122843D01*
X0318005Y0123270D01*
X0317503Y0123605D01*
X0316946Y0123836D01*
X0316354Y0123954D01*
X0316052Y0123954D01*
X0316052Y0120890D01*
X0316052Y0120890D01*
X0319116Y0120890D01*
X0316052Y0120890D01*
X0316052Y0120890D01*
X0316052Y0123954D01*
X0315750Y0123954D01*
X0315158Y0123836D01*
X0314601Y0123605D01*
X0314099Y0123270D01*
X0313672Y0122843D01*
X0313337Y0122341D01*
X0313106Y0121784D01*
X0312988Y0121192D01*
X0312988Y0120890D01*
X0316052Y0120890D01*
X0316052Y0120890D01*
X0316052Y0117826D01*
X0316052Y0120890D01*
X0316052Y0120890D01*
X0312988Y0120890D01*
X0312988Y0120588D01*
X0313106Y0119996D01*
X0313337Y0119439D01*
X0313672Y0118937D01*
X0314099Y0118510D01*
X0313505Y0119186D02*
X0308486Y0119186D01*
X0308486Y0117588D02*
X0326079Y0117588D01*
X0326079Y0119186D02*
X0318599Y0119186D01*
X0319116Y0120785D02*
X0326079Y0120785D01*
X0326079Y0122383D02*
X0318739Y0122383D01*
X0316052Y0122383D02*
X0316052Y0122383D01*
X0316052Y0120785D02*
X0316052Y0120785D01*
X0316052Y0119186D02*
X0316052Y0119186D01*
X0312988Y0120785D02*
X0308486Y0120785D01*
X0308486Y0122383D02*
X0313365Y0122383D01*
X0313773Y0125405D02*
X0316362Y0125405D01*
X0318755Y0126396D01*
X0320585Y0128227D01*
X0321576Y0130619D01*
X0321576Y0133208D01*
X0320585Y0135600D01*
X0318755Y0137431D01*
X0316362Y0138422D01*
X0313773Y0138422D01*
X0311381Y0137431D01*
X0309550Y0135600D01*
X0308559Y0133208D01*
X0308559Y0130619D01*
X0309550Y0128227D01*
X0311381Y0126396D01*
X0313773Y0125405D01*
X0313349Y0125580D02*
X0308486Y0125580D01*
X0308486Y0123982D02*
X0326079Y0123982D01*
X0326079Y0125580D02*
X0316786Y0125580D01*
X0319538Y0127179D02*
X0326079Y0127179D01*
X0326079Y0128778D02*
X0320814Y0128778D01*
X0321476Y0130376D02*
X0326079Y0130376D01*
X0326079Y0131975D02*
X0321576Y0131975D01*
X0321425Y0133573D02*
X0326079Y0133573D01*
X0326079Y0135172D02*
X0320763Y0135172D01*
X0319416Y0136770D02*
X0326079Y0136770D01*
X0326079Y0138369D02*
X0316492Y0138369D01*
X0313644Y0138369D02*
X0308486Y0138369D01*
X0308486Y0139967D02*
X0326079Y0139967D01*
X0326079Y0141566D02*
X0308486Y0141566D01*
X0308486Y0143164D02*
X0326079Y0143164D01*
X0326079Y0144763D02*
X0308486Y0144763D01*
X0308486Y0146361D02*
X0326079Y0146361D01*
X0326079Y0147960D02*
X0308486Y0147960D01*
X0308486Y0149558D02*
X0326079Y0149558D01*
X0326079Y0151157D02*
X0308486Y0151157D01*
X0308486Y0152755D02*
X0326079Y0152755D01*
X0326079Y0154354D02*
X0308486Y0154354D01*
X0308486Y0155952D02*
X0326079Y0155952D01*
X0326079Y0157551D02*
X0308486Y0157551D01*
X0308486Y0159149D02*
X0326079Y0159149D01*
X0326079Y0160748D02*
X0321379Y0160748D01*
X0322692Y0162346D02*
X0326079Y0162346D01*
X0326037Y0163945D02*
X0323159Y0163945D01*
X0323159Y0165543D02*
X0325772Y0165543D01*
X0325252Y0167142D02*
X0323159Y0167142D01*
X0323159Y0168740D02*
X0324420Y0168740D01*
X0323259Y0170339D02*
X0323159Y0170339D01*
X0314675Y0171937D02*
X0312862Y0171937D01*
X0313159Y0170339D02*
X0314378Y0170339D01*
X0314378Y0168740D02*
X0313159Y0168740D01*
X0313159Y0167142D02*
X0314378Y0167142D01*
X0314378Y0165543D02*
X0313159Y0165543D01*
X0313159Y0163945D02*
X0314378Y0163945D01*
X0314845Y0162346D02*
X0312692Y0162346D01*
X0311379Y0160748D02*
X0316158Y0160748D01*
X0294120Y0139967D02*
X0276621Y0139967D01*
X0275467Y0141566D02*
X0292521Y0141566D01*
X0290922Y0143164D02*
X0062578Y0143164D01*
X0061887Y0144763D02*
X0259874Y0144763D01*
X0258198Y0146361D02*
X0061887Y0146361D01*
X0061887Y0147960D02*
X0255409Y0147960D01*
X0255409Y0149558D02*
X0061887Y0149558D01*
X0060491Y0151157D02*
X0255409Y0151157D01*
X0255409Y0152755D02*
X0058892Y0152755D01*
X0058922Y0154354D02*
X0255425Y0154354D01*
X0255409Y0155952D02*
X0059627Y0155952D01*
X0059663Y0157551D02*
X0255409Y0157551D01*
X0255409Y0159149D02*
X0059099Y0159149D01*
X0057489Y0160748D02*
X0245917Y0160748D01*
X0244639Y0162346D02*
X0046183Y0162346D01*
X0046183Y0160748D02*
X0047056Y0160748D01*
X0058513Y0163945D02*
X0244188Y0163945D01*
X0244181Y0165543D02*
X0059457Y0165543D01*
X0059663Y0167142D02*
X0244181Y0167142D01*
X0244181Y0168740D02*
X0059268Y0168740D01*
X0058056Y0170339D02*
X0244181Y0170339D01*
X0244462Y0171937D02*
X0051098Y0171937D01*
X0054641Y0185002D02*
X0051657Y0185972D01*
X0050227Y0187011D01*
X0056146Y0187011D01*
X0057759Y0187680D01*
X0058995Y0188915D01*
X0059663Y0190528D01*
X0059663Y0192275D01*
X0058995Y0193889D01*
X0057759Y0195124D01*
X0056146Y0195792D01*
X0048399Y0195792D01*
X0046785Y0195124D01*
X0046211Y0194549D01*
X0046183Y0194906D01*
X0046183Y0198282D01*
X0046785Y0197680D01*
X0048399Y0197011D01*
X0056146Y0197011D01*
X0057759Y0197680D01*
X0058995Y0198915D01*
X0059663Y0200528D01*
X0059663Y0202275D01*
X0058995Y0203889D01*
X0058069Y0204814D01*
X0061632Y0208377D01*
X0075991Y0208377D01*
X0076481Y0207886D01*
X0077427Y0207495D01*
X0078450Y0207495D01*
X0079395Y0207886D01*
X0080118Y0208610D01*
X0080510Y0209555D01*
X0080510Y0210578D01*
X0080118Y0211523D01*
X0079395Y0212247D01*
X0078450Y0212638D01*
X0077777Y0212638D01*
X0077777Y0212838D01*
X0077386Y0213784D01*
X0076662Y0214507D01*
X0075717Y0214898D01*
X0074694Y0214898D01*
X0073749Y0214507D01*
X0073025Y0213784D01*
X0072672Y0212930D01*
X0059392Y0212930D01*
X0058995Y0213889D01*
X0057759Y0215124D01*
X0056146Y0215792D01*
X0048399Y0215792D01*
X0046785Y0215124D01*
X0046183Y0214521D01*
X0046183Y0218282D01*
X0046785Y0217680D01*
X0048399Y0217011D01*
X0056146Y0217011D01*
X0057759Y0217680D01*
X0058995Y0218915D01*
X0059663Y0220528D01*
X0059663Y0221321D01*
X0072640Y0234298D01*
X0072678Y0234298D01*
X0075140Y0236760D01*
X0075839Y0236760D01*
X0076784Y0237151D01*
X0077507Y0237874D01*
X0077899Y0238820D01*
X0077899Y0239843D01*
X0077507Y0240788D01*
X0076784Y0241511D01*
X0076744Y0241528D01*
X0076931Y0241715D01*
X0076958Y0241704D01*
X0077981Y0241704D01*
X0078926Y0242096D01*
X0079649Y0242819D01*
X0080041Y0243764D01*
X0080041Y0244787D01*
X0079649Y0245732D01*
X0078926Y0246456D01*
X0077981Y0246847D01*
X0076958Y0246847D01*
X0076013Y0246456D01*
X0075289Y0245732D01*
X0074898Y0244787D01*
X0074898Y0244450D01*
X0070792Y0240344D01*
X0070986Y0240811D01*
X0070986Y0241834D01*
X0070594Y0242780D01*
X0069871Y0243503D01*
X0068926Y0243895D01*
X0067903Y0243895D01*
X0066957Y0243503D01*
X0066518Y0243063D01*
X0059336Y0243063D01*
X0058995Y0243889D01*
X0057759Y0245124D01*
X0056146Y0245792D01*
X0048399Y0245792D01*
X0046785Y0245124D01*
X0046183Y0244521D01*
X0046183Y0248282D01*
X0046785Y0247680D01*
X0048399Y0247011D01*
X0056146Y0247011D01*
X0057759Y0247680D01*
X0058995Y0248915D01*
X0059320Y0249700D01*
X0064156Y0249700D01*
X0064595Y0249261D01*
X0065540Y0248869D01*
X0066563Y0248869D01*
X0067509Y0249261D01*
X0068232Y0249984D01*
X0068624Y0250930D01*
X0068624Y0251953D01*
X0068232Y0252898D01*
X0067509Y0253621D01*
X0066563Y0254013D01*
X0065540Y0254013D01*
X0064595Y0253621D01*
X0064156Y0253182D01*
X0059287Y0253182D01*
X0058995Y0253889D01*
X0057759Y0255124D01*
X0056146Y0255792D01*
X0048399Y0255792D01*
X0046785Y0255124D01*
X0046183Y0254521D01*
X0046183Y0258004D01*
X0046284Y0257903D01*
X0046868Y0257478D01*
X0047511Y0257150D01*
X0048198Y0256927D01*
X0048911Y0256814D01*
X0052072Y0256814D01*
X0052072Y0261202D01*
X0052472Y0261202D01*
X0052472Y0256814D01*
X0055633Y0256814D01*
X0056347Y0256927D01*
X0057033Y0257150D01*
X0057677Y0257478D01*
X0058261Y0257903D01*
X0058772Y0258413D01*
X0059196Y0258997D01*
X0059524Y0259641D01*
X0059747Y0260327D01*
X0059860Y0261041D01*
X0059860Y0261202D01*
X0052473Y0261202D01*
X0052473Y0261602D01*
X0059860Y0261602D01*
X0059860Y0261763D01*
X0059747Y0262476D01*
X0059524Y0263163D01*
X0059196Y0263806D01*
X0058772Y0264390D01*
X0058261Y0264901D01*
X0057677Y0265325D01*
X0057033Y0265653D01*
X0056347Y0265876D01*
X0055633Y0265989D01*
X0052472Y0265989D01*
X0052472Y0261602D01*
X0052072Y0261602D01*
X0052072Y0265989D01*
X0048911Y0265989D01*
X0048198Y0265876D01*
X0047511Y0265653D01*
X0046868Y0265325D01*
X0046284Y0264901D01*
X0046183Y0264799D01*
X0046183Y0266534D01*
X0104057Y0266534D01*
X0103953Y0266283D01*
X0103953Y0265260D01*
X0104344Y0264315D01*
X0104502Y0264158D01*
X0104344Y0264000D01*
X0103953Y0263055D01*
X0103953Y0262032D01*
X0104336Y0261108D01*
X0103404Y0260722D01*
X0102598Y0259915D01*
X0102161Y0258862D01*
X0102161Y0257721D01*
X0102598Y0256667D01*
X0103404Y0255861D01*
X0104458Y0255425D01*
X0105599Y0255425D01*
X0106394Y0255754D01*
X0106394Y0255747D01*
X0107208Y0254932D01*
X0112691Y0254932D01*
X0113170Y0255412D01*
X0113207Y0255348D01*
X0113502Y0255053D01*
X0113864Y0254844D01*
X0114268Y0254736D01*
X0116458Y0254736D01*
X0116458Y0258107D01*
X0116827Y0258107D01*
X0116827Y0258476D01*
X0116458Y0258476D01*
X0116458Y0261847D01*
X0114268Y0261847D01*
X0113864Y0261739D01*
X0113502Y0261530D01*
X0113207Y0261235D01*
X0113170Y0261171D01*
X0112691Y0261650D01*
X0109441Y0261650D01*
X0112369Y0264578D01*
X0112417Y0264460D01*
X0112720Y0264007D01*
X0113106Y0263621D01*
X0113559Y0263318D01*
X0114063Y0263110D01*
X0114598Y0263003D01*
X0114871Y0263003D01*
X0115144Y0263003D01*
X0115678Y0263110D01*
X0116182Y0263318D01*
X0116636Y0263621D01*
X0117021Y0264007D01*
X0117233Y0264324D01*
X0117445Y0264007D01*
X0117830Y0263621D01*
X0118284Y0263318D01*
X0118788Y0263110D01*
X0119323Y0263003D01*
X0119595Y0263003D01*
X0119595Y0265772D01*
X0119595Y0265772D01*
X0114871Y0265772D01*
X0114871Y0265772D01*
X0116827Y0265772D01*
X0119595Y0265772D01*
X0119595Y0265772D01*
X0124320Y0265772D01*
X0129438Y0265772D01*
X0132206Y0265772D01*
X0132206Y0266044D01*
X0132100Y0266579D01*
X0131891Y0267083D01*
X0131588Y0267537D01*
X0131203Y0267922D01*
X0130749Y0268225D01*
X0130245Y0268434D01*
X0129738Y0268535D01*
X0146151Y0268535D01*
X0145862Y0267838D01*
X0145862Y0267499D01*
X0143980Y0265616D01*
X0143980Y0262832D01*
X0143429Y0262832D01*
X0142949Y0262352D01*
X0142913Y0262416D01*
X0142617Y0262711D01*
X0142255Y0262920D01*
X0141852Y0263028D01*
X0139661Y0263028D01*
X0139661Y0259657D01*
X0139293Y0259657D01*
X0139293Y0263028D01*
X0137103Y0263028D01*
X0136699Y0262920D01*
X0136337Y0262711D01*
X0136042Y0262416D01*
X0135833Y0262054D01*
X0135724Y0261650D01*
X0135724Y0259657D01*
X0139293Y0259657D01*
X0139293Y0259288D01*
X0139661Y0259288D01*
X0139661Y0255917D01*
X0141852Y0255917D01*
X0142255Y0256025D01*
X0142617Y0256234D01*
X0142913Y0256529D01*
X0142949Y0256593D01*
X0143429Y0256113D01*
X0148426Y0256113D01*
X0148648Y0255985D01*
X0149052Y0255877D01*
X0151242Y0255877D01*
X0151242Y0259249D01*
X0151610Y0259249D01*
X0151610Y0255877D01*
X0153060Y0255877D01*
X0149004Y0251822D01*
X0148990Y0251894D01*
X0148781Y0252398D01*
X0148478Y0252852D01*
X0148092Y0253237D01*
X0147639Y0253540D01*
X0147135Y0253749D01*
X0146600Y0253855D01*
X0146328Y0253855D01*
X0146328Y0251087D01*
X0146327Y0251087D01*
X0146327Y0253855D01*
X0146055Y0253855D01*
X0145520Y0253749D01*
X0145016Y0253540D01*
X0144563Y0253237D01*
X0144438Y0253112D01*
X0144195Y0253355D01*
X0143741Y0253658D01*
X0143237Y0253867D01*
X0142703Y0253973D01*
X0142430Y0253973D01*
X0142430Y0251205D01*
X0142430Y0251205D01*
X0142430Y0253973D01*
X0142157Y0253973D01*
X0141622Y0253867D01*
X0141119Y0253658D01*
X0140665Y0253355D01*
X0140279Y0252970D01*
X0139977Y0252516D01*
X0139768Y0252012D01*
X0139661Y0251477D01*
X0139661Y0251205D01*
X0142430Y0251205D01*
X0142430Y0251205D01*
X0142430Y0248436D01*
X0142703Y0248436D01*
X0143237Y0248543D01*
X0143741Y0248751D01*
X0144195Y0249054D01*
X0144320Y0249179D01*
X0144563Y0248936D01*
X0145016Y0248633D01*
X0145020Y0248632D01*
X0144743Y0248517D01*
X0143936Y0247711D01*
X0143500Y0246657D01*
X0143500Y0245516D01*
X0143936Y0244463D01*
X0144743Y0243656D01*
X0145797Y0243220D01*
X0146937Y0243220D01*
X0147991Y0243656D01*
X0148797Y0244463D01*
X0149234Y0245516D01*
X0149234Y0245856D01*
X0159026Y0255648D01*
X0159452Y0256074D01*
X0160364Y0256074D01*
X0160518Y0255985D01*
X0160922Y0255877D01*
X0163112Y0255877D01*
X0163112Y0259249D01*
X0163480Y0259249D01*
X0163480Y0255877D01*
X0165670Y0255877D01*
X0166074Y0255985D01*
X0166436Y0256194D01*
X0166732Y0256490D01*
X0166768Y0256553D01*
X0167248Y0256074D01*
X0170035Y0256074D01*
X0167067Y0253107D01*
X0167067Y0242775D01*
X0166218Y0243127D01*
X0166218Y0246159D01*
X0166657Y0246598D01*
X0167049Y0247544D01*
X0167049Y0248567D01*
X0166657Y0249512D01*
X0165934Y0250235D01*
X0164989Y0250627D01*
X0163966Y0250627D01*
X0163020Y0250235D01*
X0162902Y0250117D01*
X0162784Y0250235D01*
X0161839Y0250627D01*
X0160816Y0250627D01*
X0159871Y0250235D01*
X0159556Y0249920D01*
X0159241Y0250235D01*
X0158296Y0250627D01*
X0157273Y0250627D01*
X0156328Y0250235D01*
X0155604Y0249512D01*
X0155213Y0248567D01*
X0155213Y0248273D01*
X0154438Y0247952D01*
X0153714Y0247228D01*
X0153323Y0246283D01*
X0153323Y0245260D01*
X0153714Y0244315D01*
X0154438Y0243592D01*
X0154863Y0243416D01*
X0154863Y0237492D01*
X0155882Y0236472D01*
X0156276Y0236078D01*
X0158312Y0236078D01*
X0157966Y0235732D01*
X0157575Y0234787D01*
X0157575Y0233764D01*
X0157966Y0232819D01*
X0158690Y0232096D01*
X0159635Y0231704D01*
X0159965Y0231704D01*
X0159937Y0231638D01*
X0159937Y0230615D01*
X0160329Y0229669D01*
X0161052Y0228946D01*
X0161997Y0228554D01*
X0163020Y0228554D01*
X0163134Y0228601D01*
X0163087Y0228488D01*
X0163087Y0227465D01*
X0163478Y0226520D01*
X0164202Y0225796D01*
X0165147Y0225405D01*
X0166170Y0225405D01*
X0166236Y0225432D01*
X0166236Y0224709D01*
X0166628Y0223764D01*
X0167067Y0223324D01*
X0167067Y0221350D01*
X0174504Y0213913D01*
X0174504Y0213292D01*
X0174895Y0212347D01*
X0175619Y0211623D01*
X0176564Y0211232D01*
X0177587Y0211232D01*
X0178532Y0211623D01*
X0179256Y0212347D01*
X0179647Y0213292D01*
X0179647Y0214315D01*
X0179256Y0215260D01*
X0178744Y0215772D01*
X0179256Y0216284D01*
X0179647Y0217229D01*
X0179647Y0218252D01*
X0179256Y0219197D01*
X0178532Y0219920D01*
X0177587Y0220312D01*
X0176965Y0220312D01*
X0174092Y0223186D01*
X0174092Y0223324D01*
X0174531Y0223764D01*
X0174923Y0224709D01*
X0174923Y0225732D01*
X0174531Y0226677D01*
X0173808Y0227401D01*
X0172863Y0227792D01*
X0171840Y0227792D01*
X0170894Y0227401D01*
X0170580Y0227086D01*
X0170265Y0227401D01*
X0169319Y0227792D01*
X0168296Y0227792D01*
X0168230Y0227765D01*
X0168230Y0228087D01*
X0171104Y0230960D01*
X0176918Y0230960D01*
X0176571Y0230122D01*
X0176571Y0228981D01*
X0177007Y0227927D01*
X0177814Y0227121D01*
X0178868Y0226684D01*
X0179207Y0226684D01*
X0180514Y0225377D01*
X0180449Y0225220D01*
X0180449Y0224197D01*
X0180840Y0223252D01*
X0181319Y0222773D01*
X0181319Y0215641D01*
X0182339Y0214622D01*
X0185567Y0211393D01*
X0198323Y0211393D01*
X0198323Y0208424D01*
X0199137Y0207610D01*
X0206195Y0207610D01*
X0207009Y0208424D01*
X0207009Y0217415D01*
X0207444Y0216980D01*
X0212496Y0216980D01*
X0212496Y0208424D01*
X0213311Y0207610D01*
X0220368Y0207610D01*
X0221183Y0208424D01*
X0221183Y0217844D01*
X0220368Y0218658D01*
X0220041Y0218658D01*
X0220041Y0223277D01*
X0219226Y0224091D01*
X0218872Y0224091D01*
X0218872Y0224317D01*
X0216330Y0226860D01*
X0215949Y0227780D01*
X0215225Y0228503D01*
X0214280Y0228895D01*
X0213257Y0228895D01*
X0212312Y0228503D01*
X0211588Y0227780D01*
X0211197Y0226834D01*
X0211197Y0225811D01*
X0211588Y0224866D01*
X0212312Y0224143D01*
X0212436Y0224091D01*
X0207444Y0224091D01*
X0206630Y0223277D01*
X0206630Y0222276D01*
X0206065Y0222276D01*
X0206065Y0223277D01*
X0205585Y0223756D01*
X0205649Y0223793D01*
X0205944Y0224088D01*
X0206153Y0224450D01*
X0206261Y0224854D01*
X0206261Y0227044D01*
X0202890Y0227044D01*
X0202890Y0227413D01*
X0206261Y0227413D01*
X0206261Y0229603D01*
X0206153Y0230007D01*
X0205944Y0230368D01*
X0205649Y0230664D01*
X0205287Y0230873D01*
X0204961Y0230960D01*
X0214150Y0230960D01*
X0217024Y0228087D01*
X0217024Y0227465D01*
X0217415Y0226520D01*
X0218139Y0225796D01*
X0219084Y0225405D01*
X0220107Y0225405D01*
X0221052Y0225796D01*
X0221775Y0226520D01*
X0222167Y0227465D01*
X0222167Y0228488D01*
X0221775Y0229433D01*
X0221657Y0229551D01*
X0221775Y0229669D01*
X0222167Y0230615D01*
X0222167Y0231638D01*
X0221775Y0232583D01*
X0221657Y0232701D01*
X0221775Y0232819D01*
X0222167Y0233764D01*
X0222167Y0234787D01*
X0221775Y0235732D01*
X0221460Y0236047D01*
X0221775Y0236362D01*
X0222167Y0237307D01*
X0222167Y0238331D01*
X0221775Y0239276D01*
X0221052Y0239999D01*
X0220107Y0240391D01*
X0219084Y0240391D01*
X0218139Y0239999D01*
X0217699Y0239560D01*
X0181013Y0239560D01*
X0181222Y0240063D01*
X0181222Y0241086D01*
X0180831Y0242032D01*
X0180107Y0242755D01*
X0179163Y0243146D01*
X0179708Y0243372D01*
X0180210Y0243707D01*
X0180636Y0244134D01*
X0180972Y0244635D01*
X0181203Y0245193D01*
X0181320Y0245785D01*
X0181320Y0246087D01*
X0181320Y0246388D01*
X0181297Y0246504D01*
X0181623Y0246369D01*
X0181766Y0246369D01*
X0184740Y0243395D01*
X0184740Y0240393D01*
X0185555Y0239578D01*
X0190644Y0239578D01*
X0191458Y0240393D01*
X0191458Y0245875D01*
X0190979Y0246355D01*
X0191042Y0246391D01*
X0191338Y0246687D01*
X0191547Y0247049D01*
X0191655Y0247453D01*
X0191655Y0249643D01*
X0188284Y0249643D01*
X0188284Y0250011D01*
X0191655Y0250011D01*
X0191655Y0252201D01*
X0191547Y0252605D01*
X0191338Y0252967D01*
X0191042Y0253262D01*
X0190680Y0253471D01*
X0190277Y0253580D01*
X0188283Y0253580D01*
X0188283Y0250011D01*
X0187915Y0250011D01*
X0187915Y0253580D01*
X0185922Y0253580D01*
X0185518Y0253471D01*
X0185156Y0253262D01*
X0184860Y0252967D01*
X0184651Y0252605D01*
X0184543Y0252201D01*
X0184543Y0250941D01*
X0183818Y0251667D01*
X0182764Y0252103D01*
X0181623Y0252103D01*
X0180940Y0251820D01*
X0183622Y0254503D01*
X0183980Y0254145D01*
X0189463Y0254145D01*
X0189942Y0254624D01*
X0189979Y0254561D01*
X0190274Y0254265D01*
X0190636Y0254056D01*
X0191040Y0253948D01*
X0193230Y0253948D01*
X0193230Y0257320D01*
X0193598Y0257320D01*
X0193598Y0253948D01*
X0195789Y0253948D01*
X0196192Y0254056D01*
X0196554Y0254265D01*
X0196850Y0254561D01*
X0197059Y0254923D01*
X0197167Y0255327D01*
X0197167Y0257320D01*
X0193598Y0257320D01*
X0193598Y0257688D01*
X0197167Y0257688D01*
X0197167Y0259682D01*
X0197059Y0260085D01*
X0196850Y0260447D01*
X0196554Y0260743D01*
X0196192Y0260952D01*
X0195789Y0261060D01*
X0194873Y0261060D01*
X0195629Y0261373D01*
X0196435Y0262179D01*
X0196872Y0263233D01*
X0196872Y0263572D01*
X0217464Y0284165D01*
X0217803Y0284165D01*
X0218857Y0284601D01*
X0219664Y0285408D01*
X0220100Y0286461D01*
X0220100Y0287602D01*
X0219664Y0288656D01*
X0218857Y0289462D01*
X0217803Y0289899D01*
X0216663Y0289899D01*
X0215609Y0289462D01*
X0214803Y0288656D01*
X0214366Y0287602D01*
X0214366Y0287263D01*
X0193774Y0266670D01*
X0193434Y0266670D01*
X0192381Y0266234D01*
X0192141Y0265994D01*
X0192113Y0265994D01*
X0190830Y0264711D01*
X0186982Y0260863D01*
X0184328Y0260863D01*
X0184328Y0267229D01*
X0184679Y0266994D01*
X0185237Y0266763D01*
X0185829Y0266645D01*
X0186131Y0266645D01*
X0186432Y0266645D01*
X0187024Y0266763D01*
X0187582Y0266994D01*
X0188084Y0267329D01*
X0188510Y0267756D01*
X0188846Y0268258D01*
X0189077Y0268815D01*
X0189194Y0269407D01*
X0189194Y0269709D01*
X0189194Y0270011D01*
X0189077Y0270602D01*
X0188846Y0271160D01*
X0188510Y0271662D01*
X0188084Y0272089D01*
X0187582Y0272424D01*
X0187024Y0272655D01*
X0186432Y0272773D01*
X0186131Y0272773D01*
X0186131Y0269709D01*
X0189194Y0269709D01*
X0186131Y0269709D01*
X0186131Y0269709D01*
X0186131Y0269709D01*
X0186131Y0272773D01*
X0185829Y0272773D01*
X0185237Y0272655D01*
X0184679Y0272424D01*
X0184328Y0272189D01*
X0184328Y0288679D01*
X0184768Y0289118D01*
X0185159Y0290063D01*
X0185159Y0291086D01*
X0184768Y0292032D01*
X0184044Y0292755D01*
X0183099Y0293147D01*
X0182076Y0293147D01*
X0181131Y0292755D01*
X0181013Y0292637D01*
X0180895Y0292755D01*
X0179949Y0293147D01*
X0178926Y0293147D01*
X0177981Y0292755D01*
X0177863Y0292637D01*
X0177745Y0292755D01*
X0176800Y0293147D01*
X0175777Y0293147D01*
X0174831Y0292755D01*
X0174517Y0292440D01*
X0174202Y0292755D01*
X0173256Y0293147D01*
X0172233Y0293147D01*
X0171288Y0292755D01*
X0170565Y0292032D01*
X0170173Y0291086D01*
X0170173Y0290063D01*
X0170565Y0289118D01*
X0171004Y0288679D01*
X0171004Y0282374D01*
X0172024Y0281354D01*
X0174548Y0278830D01*
X0174548Y0277079D01*
X0174392Y0277235D01*
X0173446Y0277626D01*
X0172747Y0277626D01*
X0171263Y0279111D01*
X0145627Y0279111D01*
X0145791Y0279276D01*
X0146183Y0280221D01*
X0146183Y0281244D01*
X0145791Y0282189D01*
X0145068Y0282913D01*
X0144123Y0283304D01*
X0143099Y0283304D01*
X0142154Y0282913D01*
X0141931Y0282689D01*
X0136059Y0282689D01*
X0135619Y0283129D01*
X0134847Y0283449D01*
X0135619Y0283769D01*
X0136059Y0284208D01*
X0144175Y0284208D01*
X0144615Y0283769D01*
X0145560Y0283377D01*
X0146583Y0283377D01*
X0147528Y0283769D01*
X0148252Y0284492D01*
X0148643Y0285437D01*
X0148643Y0286460D01*
X0148252Y0287406D01*
X0147528Y0288129D01*
X0146583Y0288521D01*
X0145560Y0288521D01*
X0144615Y0288129D01*
X0144175Y0287689D01*
X0136059Y0287689D01*
X0135619Y0288129D01*
X0134674Y0288521D01*
X0133651Y0288521D01*
X0132705Y0288129D01*
X0132266Y0287689D01*
X0124289Y0287689D01*
X0132307Y0295707D01*
X0132570Y0295315D01*
X0132997Y0294888D01*
X0133498Y0294553D01*
X0134056Y0294322D01*
X0134648Y0294204D01*
X0134950Y0294204D01*
X0135251Y0294204D01*
X0135843Y0294322D01*
X0136401Y0294553D01*
X0136903Y0294888D01*
X0137329Y0295315D01*
X0137665Y0295817D01*
X0137896Y0296374D01*
X0138013Y0296966D01*
X0138013Y0297268D01*
X0138013Y0297570D01*
X0137896Y0298161D01*
X0137665Y0298719D01*
X0137329Y0299221D01*
X0136987Y0299563D01*
X0137587Y0299812D01*
X0138311Y0300535D01*
X0138702Y0301481D01*
X0138702Y0302504D01*
X0138311Y0303449D01*
X0137587Y0304172D01*
X0137548Y0304189D01*
X0138565Y0304189D01*
X0139005Y0303749D01*
X0139950Y0303358D01*
X0140973Y0303358D01*
X0141918Y0303749D01*
X0142642Y0304473D01*
X0143033Y0305418D01*
X0143033Y0306441D01*
X0142642Y0307386D01*
X0141918Y0308109D01*
X0140973Y0308501D01*
X0139950Y0308501D01*
X0139005Y0308109D01*
X0138565Y0307670D01*
X0135803Y0307670D01*
X0134784Y0306650D01*
X0120802Y0292668D01*
X0120802Y0294484D01*
X0121281Y0295641D01*
X0121281Y0298074D01*
X0120802Y0299232D01*
X0120802Y0334854D01*
X0143720Y0334854D01*
X0143117Y0334251D01*
X0142449Y0332637D01*
X0142449Y0324891D01*
X0143117Y0323277D01*
X0144352Y0322042D01*
X0145966Y0321373D01*
X0147713Y0321373D01*
X0149326Y0322042D01*
X0150561Y0323277D01*
X0151230Y0324891D01*
X0151230Y0332637D01*
X0150561Y0334251D01*
X0149959Y0334854D01*
X0153720Y0334854D01*
X0153117Y0334251D01*
X0152449Y0332637D01*
X0152449Y0324891D01*
X0153117Y0323277D01*
X0154352Y0322042D01*
X0155966Y0321373D01*
X0157713Y0321373D01*
X0159326Y0322042D01*
X0160561Y0323277D01*
X0161230Y0324891D01*
X0161230Y0332637D01*
X0160561Y0334251D01*
X0159959Y0334854D01*
X0163720Y0334854D01*
X0163117Y0334251D01*
X0162449Y0332637D01*
X0162449Y0324891D01*
X0163117Y0323277D01*
X0164352Y0322042D01*
X0165966Y0321373D01*
X0167713Y0321373D01*
X0169326Y0322042D01*
X0170561Y0323277D01*
X0171230Y0324891D01*
X0171230Y0332637D01*
X0170561Y0334251D01*
X0169959Y0334854D01*
X0173720Y0334854D01*
X0173117Y0334251D01*
X0172449Y0332637D01*
X0172449Y0324891D01*
X0173117Y0323277D01*
X0174352Y0322042D01*
X0175966Y0321373D01*
X0177713Y0321373D01*
X0179326Y0322042D01*
X0180561Y0323277D01*
X0181230Y0324891D01*
X0181230Y0332637D01*
X0180561Y0334251D01*
X0179959Y0334854D01*
X0183442Y0334854D01*
X0183340Y0334752D01*
X0182916Y0334168D01*
X0182588Y0333525D01*
X0182365Y0332838D01*
X0182252Y0332125D01*
X0182252Y0328964D01*
X0186639Y0328964D01*
X0186639Y0328564D01*
X0182252Y0328564D01*
X0182252Y0325403D01*
X0182365Y0324690D01*
X0182588Y0324003D01*
X0182916Y0323360D01*
X0183340Y0322775D01*
X0183851Y0322265D01*
X0184435Y0321840D01*
X0185078Y0321513D01*
X0185765Y0321289D01*
X0186478Y0321176D01*
X0186639Y0321176D01*
X0186639Y0328564D01*
X0187039Y0328564D01*
X0187039Y0321176D01*
X0187200Y0321176D01*
X0187914Y0321289D01*
X0188600Y0321513D01*
X0189244Y0321840D01*
X0189828Y0322265D01*
X0190338Y0322775D01*
X0190763Y0323360D01*
X0191091Y0324003D01*
X0191314Y0324690D01*
X0191427Y0325403D01*
X0191427Y0328564D01*
X0187039Y0328564D01*
X0187039Y0328964D01*
X0191427Y0328964D01*
X0191427Y0332125D01*
X0191314Y0332838D01*
X0191091Y0333525D01*
X0190763Y0334168D01*
X0190338Y0334752D01*
X0190237Y0334854D01*
X0316052Y0334854D01*
X0317620Y0334730D01*
X0320604Y0333761D01*
X0323142Y0331917D01*
X0324986Y0329379D01*
X0325955Y0326395D01*
X0326079Y0324827D01*
X0326079Y0194906D01*
X0325955Y0193337D01*
X0324986Y0190354D01*
X0323142Y0187816D01*
X0323127Y0187804D01*
X0323159Y0187883D01*
X0323159Y0195629D01*
X0322491Y0197243D01*
X0321256Y0198478D01*
X0319642Y0199147D01*
X0317895Y0199147D01*
X0316281Y0198478D01*
X0315046Y0197243D01*
X0314378Y0195629D01*
X0314378Y0187883D01*
X0315046Y0186269D01*
X0316281Y0185034D01*
X0316559Y0184919D01*
X0316052Y0184879D01*
X0310881Y0184879D01*
X0311256Y0185034D01*
X0312491Y0186269D01*
X0313159Y0187883D01*
X0313159Y0195629D01*
X0312491Y0197243D01*
X0311256Y0198478D01*
X0309642Y0199147D01*
X0308367Y0199147D01*
X0304013Y0203501D01*
X0302993Y0204520D01*
X0287245Y0204520D01*
X0286296Y0205469D01*
X0286296Y0216690D01*
X0268938Y0234048D01*
X0243938Y0234048D01*
X0238426Y0239560D01*
X0237240Y0239560D01*
X0236800Y0239999D01*
X0235855Y0240391D01*
X0234832Y0240391D01*
X0233887Y0239999D01*
X0233163Y0239276D01*
X0232772Y0238331D01*
X0232772Y0237307D01*
X0233163Y0236362D01*
X0233478Y0236047D01*
X0233163Y0235732D01*
X0232772Y0234787D01*
X0232772Y0233764D01*
X0233163Y0232819D01*
X0233281Y0232701D01*
X0233163Y0232583D01*
X0232772Y0231638D01*
X0232772Y0230615D01*
X0233163Y0229669D01*
X0233887Y0228946D01*
X0234832Y0228554D01*
X0235855Y0228554D01*
X0236800Y0228946D01*
X0237240Y0229386D01*
X0239740Y0229386D01*
X0245414Y0223712D01*
X0246433Y0222693D01*
X0264150Y0222693D01*
X0277028Y0209815D01*
X0277028Y0198787D01*
X0276281Y0198478D01*
X0275046Y0197243D01*
X0274378Y0195629D01*
X0274378Y0187883D01*
X0275046Y0186269D01*
X0276281Y0185034D01*
X0276656Y0184879D01*
X0270881Y0184879D01*
X0271256Y0185034D01*
X0272491Y0186269D01*
X0273159Y0187883D01*
X0273159Y0195629D01*
X0272491Y0197243D01*
X0271256Y0198478D01*
X0269642Y0199147D01*
X0267895Y0199147D01*
X0266281Y0198478D01*
X0265395Y0197591D01*
X0255548Y0207438D01*
X0254529Y0208457D01*
X0252988Y0208457D01*
X0252548Y0208897D01*
X0251603Y0209288D01*
X0250580Y0209288D01*
X0249635Y0208897D01*
X0248911Y0208173D01*
X0248520Y0207228D01*
X0248520Y0206926D01*
X0247824Y0206926D01*
X0246879Y0206535D01*
X0246155Y0205811D01*
X0245764Y0204866D01*
X0245764Y0203843D01*
X0246155Y0202898D01*
X0246879Y0202174D01*
X0247824Y0201783D01*
X0248847Y0201783D01*
X0249677Y0202126D01*
X0254904Y0196899D01*
X0254378Y0195629D01*
X0254378Y0187883D01*
X0255046Y0186269D01*
X0256281Y0185034D01*
X0256656Y0184879D01*
X0251237Y0184879D01*
X0251757Y0185257D01*
X0252268Y0185768D01*
X0252692Y0186352D01*
X0253020Y0186995D01*
X0253243Y0187682D01*
X0253356Y0188395D01*
X0253356Y0191556D01*
X0248969Y0191556D01*
X0248969Y0191956D01*
X0253356Y0191956D01*
X0253356Y0195117D01*
X0253243Y0195830D01*
X0253020Y0196517D01*
X0252692Y0197160D01*
X0252268Y0197744D01*
X0251757Y0198255D01*
X0251173Y0198679D01*
X0250529Y0199007D01*
X0249843Y0199230D01*
X0249130Y0199343D01*
X0248969Y0199343D01*
X0248969Y0191956D01*
X0248568Y0191956D01*
X0248568Y0191556D01*
X0244181Y0191556D01*
X0244181Y0188395D01*
X0244294Y0187682D01*
X0244517Y0186995D01*
X0244845Y0186352D01*
X0245269Y0185768D01*
X0245780Y0185257D01*
X0246300Y0184879D01*
X0238307Y0184879D01*
X0238702Y0185274D01*
X0238702Y0190757D01*
X0238223Y0191237D01*
X0238286Y0191273D01*
X0238582Y0191569D01*
X0238791Y0191931D01*
X0238899Y0192334D01*
X0238899Y0194524D01*
X0235528Y0194524D01*
X0235528Y0194893D01*
X0238899Y0194893D01*
X0238899Y0197083D01*
X0238791Y0197487D01*
X0238582Y0197849D01*
X0238286Y0198144D01*
X0237925Y0198353D01*
X0237521Y0198462D01*
X0236636Y0198462D01*
X0242363Y0204189D01*
X0243383Y0205208D01*
X0243383Y0211513D01*
X0243823Y0211953D01*
X0244214Y0212898D01*
X0244214Y0213921D01*
X0243823Y0214866D01*
X0243099Y0215590D01*
X0242154Y0215981D01*
X0241131Y0215981D01*
X0240186Y0215590D01*
X0239462Y0214866D01*
X0239071Y0213921D01*
X0239071Y0212898D01*
X0239462Y0211953D01*
X0239902Y0211513D01*
X0239902Y0206650D01*
X0234760Y0201508D01*
X0229797Y0201508D01*
X0229047Y0202258D01*
X0219295Y0202258D01*
X0218480Y0201444D01*
X0218480Y0198092D01*
X0219237Y0197335D01*
X0218896Y0197138D01*
X0218601Y0196842D01*
X0218392Y0196481D01*
X0218283Y0196077D01*
X0218283Y0194768D01*
X0224171Y0194768D01*
X0230058Y0194768D01*
X0230058Y0196077D01*
X0229950Y0196481D01*
X0229741Y0196842D01*
X0229446Y0197138D01*
X0229105Y0197335D01*
X0229797Y0198027D01*
X0232283Y0198027D01*
X0232105Y0197849D01*
X0231896Y0197487D01*
X0231787Y0197083D01*
X0231787Y0194893D01*
X0235159Y0194893D01*
X0235159Y0194524D01*
X0231787Y0194524D01*
X0231787Y0192334D01*
X0231888Y0191958D01*
X0229347Y0191958D01*
X0229105Y0192201D01*
X0229446Y0192398D01*
X0229741Y0192693D01*
X0229950Y0193055D01*
X0230058Y0193459D01*
X0230058Y0194768D01*
X0224171Y0194768D01*
X0224171Y0194768D01*
X0224171Y0194768D01*
X0218283Y0194768D01*
X0218283Y0193459D01*
X0218392Y0193055D01*
X0218601Y0192693D01*
X0218896Y0192398D01*
X0219237Y0192201D01*
X0219015Y0191978D01*
X0217916Y0191978D01*
X0217676Y0192218D01*
X0216622Y0192654D01*
X0215482Y0192654D01*
X0214428Y0192218D01*
X0213622Y0191411D01*
X0213185Y0190358D01*
X0213185Y0189217D01*
X0213622Y0188164D01*
X0214428Y0187357D01*
X0215482Y0186921D01*
X0216622Y0186921D01*
X0217676Y0187357D01*
X0217916Y0187597D01*
X0218975Y0187597D01*
X0219295Y0187277D01*
X0229047Y0187277D01*
X0229347Y0187577D01*
X0231984Y0187577D01*
X0231984Y0185274D01*
X0232380Y0184879D01*
X0084731Y0184879D01*
X0084025Y0184471D01*
X0083040Y0184879D01*
X0081938Y0184879D01*
X0081160Y0184557D01*
X0080382Y0184879D01*
X0079281Y0184879D01*
X0078503Y0184557D01*
X0077725Y0184879D01*
X0076623Y0184879D01*
X0075638Y0184471D01*
X0074932Y0184879D01*
X0056209Y0184879D01*
X0054641Y0185002D01*
X0051173Y0186324D02*
X0066548Y0186324D01*
X0066234Y0186638D02*
X0066957Y0185914D01*
X0067903Y0185523D01*
X0068918Y0185523D01*
X0069150Y0185291D01*
X0173309Y0185291D01*
X0173414Y0185247D01*
X0174438Y0185247D01*
X0175383Y0185639D01*
X0176106Y0186362D01*
X0176498Y0187307D01*
X0176498Y0188331D01*
X0176106Y0189276D01*
X0175383Y0189999D01*
X0174438Y0190391D01*
X0173414Y0190391D01*
X0172469Y0189999D01*
X0171746Y0189276D01*
X0171537Y0188772D01*
X0170940Y0188772D01*
X0170986Y0188882D01*
X0170986Y0189905D01*
X0170594Y0190851D01*
X0169871Y0191574D01*
X0168926Y0191965D01*
X0167935Y0191965D01*
X0173860Y0197889D01*
X0174769Y0198798D01*
X0175231Y0198490D01*
X0175788Y0198259D01*
X0176380Y0198141D01*
X0176682Y0198141D01*
X0176984Y0198141D01*
X0177576Y0198259D01*
X0178133Y0198490D01*
X0178635Y0198825D01*
X0178933Y0199123D01*
X0178933Y0198634D01*
X0179041Y0198230D01*
X0179250Y0197868D01*
X0179546Y0197572D01*
X0179908Y0197363D01*
X0180311Y0197255D01*
X0182502Y0197255D01*
X0182502Y0200627D01*
X0182870Y0200627D01*
X0182870Y0197255D01*
X0185060Y0197255D01*
X0185464Y0197363D01*
X0185826Y0197572D01*
X0186121Y0197868D01*
X0186158Y0197931D01*
X0186637Y0197452D01*
X0187188Y0197452D01*
X0187188Y0193943D01*
X0183931Y0190686D01*
X0183592Y0190686D01*
X0182538Y0190249D01*
X0181732Y0189443D01*
X0181295Y0188389D01*
X0181295Y0187249D01*
X0181732Y0186195D01*
X0182538Y0185389D01*
X0183592Y0184952D01*
X0184732Y0184952D01*
X0185786Y0185389D01*
X0186593Y0186195D01*
X0187029Y0187249D01*
X0187029Y0187588D01*
X0191569Y0192128D01*
X0191569Y0197452D01*
X0192120Y0197452D01*
X0192935Y0198267D01*
X0192935Y0203356D01*
X0192120Y0204170D01*
X0186637Y0204170D01*
X0186158Y0203691D01*
X0186121Y0203754D01*
X0185826Y0204050D01*
X0185464Y0204259D01*
X0185060Y0204367D01*
X0182870Y0204367D01*
X0182870Y0200995D01*
X0182502Y0200995D01*
X0182502Y0204367D01*
X0180311Y0204367D01*
X0179908Y0204259D01*
X0179546Y0204050D01*
X0179250Y0203754D01*
X0179041Y0203392D01*
X0178996Y0203224D01*
X0178635Y0203585D01*
X0178133Y0203920D01*
X0177576Y0204151D01*
X0176984Y0204269D01*
X0176682Y0204269D01*
X0176682Y0201205D01*
X0176682Y0201205D01*
X0176682Y0204269D01*
X0176380Y0204269D01*
X0175788Y0204151D01*
X0175651Y0204094D01*
X0175710Y0204237D01*
X0175710Y0205260D01*
X0175319Y0206205D01*
X0174595Y0206928D01*
X0173650Y0207320D01*
X0172627Y0207320D01*
X0171682Y0206928D01*
X0171564Y0206810D01*
X0171446Y0206928D01*
X0170501Y0207320D01*
X0169477Y0207320D01*
X0168532Y0206928D01*
X0167809Y0206205D01*
X0167417Y0205260D01*
X0167417Y0204237D01*
X0167809Y0203291D01*
X0168248Y0202852D01*
X0168248Y0200745D01*
X0162181Y0194678D01*
X0073741Y0194678D01*
X0070986Y0197433D01*
X0070986Y0198055D01*
X0070594Y0199000D01*
X0069871Y0199724D01*
X0068926Y0200115D01*
X0067903Y0200115D01*
X0066957Y0199724D01*
X0066234Y0199000D01*
X0065843Y0198055D01*
X0065843Y0197032D01*
X0066234Y0196087D01*
X0066352Y0195969D01*
X0066234Y0195851D01*
X0065843Y0194905D01*
X0065843Y0193882D01*
X0066234Y0192937D01*
X0066352Y0192819D01*
X0066234Y0192701D01*
X0065843Y0191756D01*
X0065843Y0190733D01*
X0066234Y0189787D01*
X0066352Y0189669D01*
X0066234Y0189551D01*
X0065843Y0188606D01*
X0065843Y0187583D01*
X0066234Y0186638D01*
X0065843Y0187922D02*
X0058002Y0187922D01*
X0059246Y0189521D02*
X0066221Y0189521D01*
X0065843Y0191119D02*
X0059663Y0191119D01*
X0059480Y0192718D02*
X0066251Y0192718D01*
X0065843Y0194316D02*
X0058567Y0194316D01*
X0057359Y0197514D02*
X0065843Y0197514D01*
X0066299Y0195915D02*
X0046183Y0195915D01*
X0046183Y0197514D02*
X0047186Y0197514D01*
X0059076Y0199112D02*
X0066346Y0199112D01*
X0070482Y0199112D02*
X0125094Y0199112D01*
X0125094Y0198240D02*
X0125203Y0197836D01*
X0125412Y0197474D01*
X0125707Y0197179D01*
X0126069Y0196970D01*
X0126473Y0196862D01*
X0128663Y0196862D01*
X0128663Y0200233D01*
X0129031Y0200233D01*
X0129031Y0196862D01*
X0131222Y0196862D01*
X0131625Y0196970D01*
X0131987Y0197179D01*
X0132283Y0197474D01*
X0132319Y0197538D01*
X0132799Y0197058D01*
X0138281Y0197058D01*
X0139096Y0197873D01*
X0139096Y0202962D01*
X0138281Y0203776D01*
X0138275Y0203776D01*
X0138604Y0204572D01*
X0138604Y0205712D01*
X0138167Y0206766D01*
X0137361Y0207572D01*
X0136307Y0208009D01*
X0135167Y0208009D01*
X0134113Y0207572D01*
X0133307Y0206766D01*
X0133273Y0206684D01*
X0132999Y0207095D01*
X0132572Y0207522D01*
X0132070Y0207857D01*
X0131513Y0208088D01*
X0130921Y0208206D01*
X0130619Y0208206D01*
X0130619Y0205142D01*
X0130619Y0205142D01*
X0132870Y0205142D01*
X0132870Y0205142D01*
X0130619Y0205142D01*
X0130619Y0205142D01*
X0130619Y0208206D01*
X0130317Y0208206D01*
X0129725Y0208088D01*
X0129168Y0207857D01*
X0128666Y0207522D01*
X0128239Y0207095D01*
X0127904Y0206593D01*
X0127673Y0206035D01*
X0127555Y0205444D01*
X0127555Y0205142D01*
X0130619Y0205142D01*
X0131013Y0205142D01*
X0130619Y0205142D02*
X0127555Y0205142D01*
X0127555Y0204840D01*
X0127673Y0204248D01*
X0127787Y0203973D01*
X0126473Y0203973D01*
X0126069Y0203865D01*
X0125707Y0203656D01*
X0125412Y0203361D01*
X0125203Y0202999D01*
X0125094Y0202595D01*
X0125094Y0200602D01*
X0128663Y0200602D01*
X0128663Y0200233D01*
X0125094Y0200233D01*
X0125094Y0198240D01*
X0125389Y0197514D02*
X0070986Y0197514D01*
X0072504Y0195915D02*
X0163419Y0195915D01*
X0163872Y0197058D02*
X0158389Y0197058D01*
X0157910Y0197538D01*
X0157873Y0197474D01*
X0157578Y0197179D01*
X0157216Y0196970D01*
X0156812Y0196862D01*
X0154622Y0196862D01*
X0154622Y0200233D01*
X0154254Y0200233D01*
X0154254Y0196862D01*
X0152063Y0196862D01*
X0151660Y0196970D01*
X0151298Y0197179D01*
X0151002Y0197474D01*
X0150793Y0197836D01*
X0150685Y0198240D01*
X0150685Y0200233D01*
X0154253Y0200233D01*
X0154253Y0200602D01*
X0150685Y0200602D01*
X0150685Y0202595D01*
X0150793Y0202999D01*
X0151002Y0203361D01*
X0151298Y0203656D01*
X0151660Y0203865D01*
X0152063Y0203973D01*
X0154254Y0203973D01*
X0154254Y0200602D01*
X0154622Y0200602D01*
X0154622Y0203973D01*
X0156812Y0203973D01*
X0157216Y0203865D01*
X0157578Y0203656D01*
X0157873Y0203361D01*
X0157910Y0203297D01*
X0158389Y0203776D01*
X0158638Y0203776D01*
X0158503Y0203912D01*
X0158067Y0204965D01*
X0158067Y0206106D01*
X0158503Y0207160D01*
X0159310Y0207966D01*
X0160364Y0208402D01*
X0161504Y0208402D01*
X0162558Y0207966D01*
X0163364Y0207160D01*
X0163801Y0206106D01*
X0163801Y0204965D01*
X0163364Y0203912D01*
X0163321Y0203868D01*
X0163321Y0203776D01*
X0163872Y0203776D01*
X0164687Y0202962D01*
X0164687Y0197873D01*
X0163872Y0197058D01*
X0164327Y0197514D02*
X0165017Y0197514D01*
X0164687Y0199112D02*
X0166616Y0199112D01*
X0168214Y0200711D02*
X0164687Y0200711D01*
X0164687Y0202309D02*
X0168248Y0202309D01*
X0167554Y0203908D02*
X0163360Y0203908D01*
X0163801Y0205506D02*
X0167519Y0205506D01*
X0168958Y0207105D02*
X0163387Y0207105D01*
X0161131Y0205339D02*
X0160934Y0205536D01*
X0161131Y0205339D02*
X0161131Y0200417D01*
X0157934Y0197514D02*
X0157896Y0197514D01*
X0154622Y0197514D02*
X0154254Y0197514D01*
X0154254Y0199112D02*
X0154622Y0199112D01*
X0154622Y0200711D02*
X0154254Y0200711D01*
X0154254Y0202309D02*
X0154622Y0202309D01*
X0154622Y0203908D02*
X0154254Y0203908D01*
X0151818Y0203908D02*
X0149704Y0203908D01*
X0149647Y0203870D02*
X0150100Y0204172D01*
X0150486Y0204558D01*
X0150789Y0205012D01*
X0150998Y0205515D01*
X0151104Y0206050D01*
X0151104Y0206323D01*
X0151104Y0206596D01*
X0150998Y0207130D01*
X0150789Y0207634D01*
X0150486Y0208088D01*
X0150100Y0208473D01*
X0149647Y0208776D01*
X0149143Y0208985D01*
X0148608Y0209091D01*
X0148335Y0209091D01*
X0148063Y0209091D01*
X0147528Y0208985D01*
X0147024Y0208776D01*
X0146571Y0208473D01*
X0146185Y0208088D01*
X0145882Y0207634D01*
X0145673Y0207130D01*
X0145567Y0206596D01*
X0145567Y0206323D01*
X0148335Y0206323D01*
X0148335Y0206323D01*
X0145567Y0206323D01*
X0145567Y0206050D01*
X0145673Y0205515D01*
X0145882Y0205012D01*
X0146185Y0204558D01*
X0146571Y0204172D01*
X0147024Y0203870D01*
X0147528Y0203661D01*
X0148063Y0203554D01*
X0148335Y0203554D01*
X0148335Y0206323D01*
X0148335Y0209091D01*
X0148335Y0206323D01*
X0148335Y0206323D01*
X0148335Y0206323D01*
X0148335Y0203554D01*
X0148608Y0203554D01*
X0149143Y0203661D01*
X0149647Y0203870D01*
X0148335Y0203908D02*
X0148335Y0203908D01*
X0146967Y0203908D02*
X0138329Y0203908D01*
X0138604Y0205506D02*
X0145677Y0205506D01*
X0145668Y0207105D02*
X0137829Y0207105D01*
X0135737Y0205142D02*
X0135540Y0204945D01*
X0135540Y0200417D01*
X0139096Y0200711D02*
X0150685Y0200711D01*
X0150685Y0202309D02*
X0139096Y0202309D01*
X0139096Y0199112D02*
X0150685Y0199112D01*
X0150980Y0197514D02*
X0138737Y0197514D01*
X0132344Y0197514D02*
X0132305Y0197514D01*
X0129031Y0197514D02*
X0128663Y0197514D01*
X0128663Y0199112D02*
X0129031Y0199112D01*
X0125094Y0200711D02*
X0059663Y0200711D01*
X0059649Y0202309D02*
X0125094Y0202309D01*
X0126227Y0203908D02*
X0058976Y0203908D01*
X0058761Y0205506D02*
X0127568Y0205506D01*
X0128249Y0207105D02*
X0060359Y0207105D01*
X0059156Y0213499D02*
X0072907Y0213499D01*
X0077504Y0213499D02*
X0091584Y0213499D01*
X0091433Y0213134D02*
X0091433Y0212111D01*
X0091825Y0211165D01*
X0092548Y0210442D01*
X0093493Y0210050D01*
X0094115Y0210050D01*
X0094268Y0209897D01*
X0097732Y0209897D01*
X0097732Y0208897D01*
X0098547Y0208082D01*
X0103636Y0208082D01*
X0104450Y0208897D01*
X0104450Y0214379D01*
X0103971Y0214859D01*
X0104035Y0214895D01*
X0104330Y0215191D01*
X0104539Y0215553D01*
X0104647Y0215956D01*
X0104647Y0218147D01*
X0101276Y0218147D01*
X0101276Y0218515D01*
X0104647Y0218515D01*
X0104647Y0220705D01*
X0104539Y0221109D01*
X0104330Y0221471D01*
X0104035Y0221766D01*
X0103673Y0221975D01*
X0103269Y0222084D01*
X0101276Y0222084D01*
X0101276Y0218515D01*
X0100907Y0218515D01*
X0100907Y0218147D01*
X0097535Y0218147D01*
X0097535Y0215956D01*
X0097644Y0215553D01*
X0097853Y0215191D01*
X0098148Y0214895D01*
X0098212Y0214859D01*
X0097732Y0214379D01*
X0097732Y0213378D01*
X0096475Y0213378D01*
X0096192Y0214062D01*
X0096458Y0214460D01*
X0096667Y0214964D01*
X0096773Y0215499D01*
X0096773Y0215772D01*
X0096773Y0216044D01*
X0096667Y0216579D01*
X0096458Y0217083D01*
X0096155Y0217537D01*
X0095770Y0217922D01*
X0095316Y0218225D01*
X0094812Y0218434D01*
X0094277Y0218540D01*
X0094005Y0218540D01*
X0094005Y0215772D01*
X0096773Y0215772D01*
X0094005Y0215772D01*
X0094005Y0215772D01*
X0094005Y0215772D01*
X0094005Y0218540D01*
X0093732Y0218540D01*
X0093197Y0218434D01*
X0092693Y0218225D01*
X0092240Y0217922D01*
X0091854Y0217537D01*
X0091551Y0217083D01*
X0091343Y0216579D01*
X0091236Y0216044D01*
X0091236Y0215772D01*
X0094005Y0215772D01*
X0094005Y0215772D01*
X0091236Y0215772D01*
X0091236Y0215499D01*
X0091343Y0214964D01*
X0091551Y0214460D01*
X0091818Y0214062D01*
X0091433Y0213134D01*
X0091520Y0211900D02*
X0079742Y0211900D01*
X0080510Y0210302D02*
X0092887Y0210302D01*
X0096425Y0213499D02*
X0097732Y0213499D01*
X0097946Y0215097D02*
X0096693Y0215097D01*
X0096619Y0216696D02*
X0097535Y0216696D01*
X0097535Y0218515D02*
X0100907Y0218515D01*
X0100907Y0222084D01*
X0098914Y0222084D01*
X0098510Y0221975D01*
X0098148Y0221766D01*
X0097853Y0221471D01*
X0097644Y0221109D01*
X0097535Y0220705D01*
X0097535Y0218515D01*
X0097535Y0219893D02*
X0059400Y0219893D01*
X0059833Y0221491D02*
X0097873Y0221491D01*
X0100907Y0221491D02*
X0101276Y0221491D01*
X0101276Y0219893D02*
X0100907Y0219893D01*
X0100907Y0218294D02*
X0095150Y0218294D01*
X0094005Y0218294D02*
X0094005Y0218294D01*
X0092860Y0218294D02*
X0058374Y0218294D01*
X0057786Y0215097D02*
X0091316Y0215097D01*
X0091391Y0216696D02*
X0046183Y0216696D01*
X0046183Y0215097D02*
X0046759Y0215097D01*
X0061432Y0223090D02*
X0167067Y0223090D01*
X0167067Y0221491D02*
X0104310Y0221491D01*
X0104647Y0219893D02*
X0168525Y0219893D01*
X0170123Y0218294D02*
X0101276Y0218294D01*
X0104647Y0216696D02*
X0171722Y0216696D01*
X0173320Y0215097D02*
X0104236Y0215097D01*
X0104450Y0213499D02*
X0174504Y0213499D01*
X0175342Y0211900D02*
X0104450Y0211900D01*
X0104450Y0210302D02*
X0198323Y0210302D01*
X0198323Y0208703D02*
X0149756Y0208703D01*
X0148335Y0208703D02*
X0148335Y0208703D01*
X0146914Y0208703D02*
X0104257Y0208703D01*
X0097926Y0208703D02*
X0080157Y0208703D01*
X0094005Y0216696D02*
X0094005Y0216696D01*
X0107181Y0226613D02*
X0107996Y0225799D01*
X0113085Y0225799D01*
X0113899Y0226613D01*
X0113899Y0227170D01*
X0114359Y0226980D01*
X0115382Y0226980D01*
X0116328Y0227371D01*
X0117051Y0228095D01*
X0117443Y0229040D01*
X0117443Y0230063D01*
X0117051Y0231008D01*
X0116328Y0231731D01*
X0115382Y0232123D01*
X0114359Y0232123D01*
X0113899Y0231932D01*
X0113899Y0232096D01*
X0113420Y0232575D01*
X0113483Y0232612D01*
X0113779Y0232907D01*
X0113988Y0233269D01*
X0114096Y0233673D01*
X0114096Y0235863D01*
X0110724Y0235863D01*
X0110724Y0236232D01*
X0114096Y0236232D01*
X0114096Y0238422D01*
X0113988Y0238825D01*
X0113779Y0239187D01*
X0113483Y0239483D01*
X0113170Y0239664D01*
X0113899Y0240393D01*
X0113966Y0240365D01*
X0114989Y0240365D01*
X0115934Y0240757D01*
X0116657Y0241480D01*
X0117049Y0242426D01*
X0117049Y0243449D01*
X0116657Y0244394D01*
X0115934Y0245117D01*
X0114989Y0245509D01*
X0113966Y0245509D01*
X0113899Y0245481D01*
X0113899Y0245875D01*
X0113420Y0246355D01*
X0113483Y0246391D01*
X0113779Y0246687D01*
X0113988Y0247049D01*
X0114096Y0247453D01*
X0114096Y0249643D01*
X0110724Y0249643D01*
X0110724Y0250011D01*
X0110356Y0250011D01*
X0110356Y0249643D01*
X0106984Y0249643D01*
X0106984Y0247453D01*
X0107092Y0247049D01*
X0107301Y0246687D01*
X0107597Y0246391D01*
X0107660Y0246355D01*
X0107181Y0245875D01*
X0107181Y0240393D01*
X0107910Y0239664D01*
X0107597Y0239483D01*
X0107301Y0239187D01*
X0107092Y0238825D01*
X0106984Y0238422D01*
X0106984Y0236232D01*
X0110356Y0236232D01*
X0110356Y0235863D01*
X0106984Y0235863D01*
X0106984Y0233673D01*
X0107092Y0233269D01*
X0107301Y0232907D01*
X0107597Y0232612D01*
X0107660Y0232575D01*
X0107181Y0232096D01*
X0107181Y0226613D01*
X0107507Y0226287D02*
X0064629Y0226287D01*
X0066227Y0227885D02*
X0107181Y0227885D01*
X0107181Y0229484D02*
X0095884Y0229484D01*
X0095770Y0229369D02*
X0096155Y0229755D01*
X0096458Y0230208D01*
X0096667Y0230712D01*
X0096773Y0231247D01*
X0096773Y0231520D01*
X0096773Y0231792D01*
X0096667Y0232327D01*
X0096458Y0232831D01*
X0096155Y0233285D01*
X0095770Y0233670D01*
X0095316Y0233973D01*
X0094812Y0234182D01*
X0094277Y0234288D01*
X0094005Y0234288D01*
X0094005Y0231520D01*
X0096773Y0231520D01*
X0094005Y0231520D01*
X0094005Y0231520D01*
X0094005Y0231520D01*
X0094005Y0234288D01*
X0093732Y0234288D01*
X0093197Y0234182D01*
X0092693Y0233973D01*
X0092240Y0233670D01*
X0091854Y0233285D01*
X0091551Y0232831D01*
X0091343Y0232327D01*
X0091236Y0231792D01*
X0091236Y0231520D01*
X0094005Y0231520D01*
X0094005Y0228751D01*
X0094277Y0228751D01*
X0094812Y0228858D01*
X0095316Y0229066D01*
X0095770Y0229369D01*
X0094005Y0229484D02*
X0094005Y0229484D01*
X0094005Y0228751D02*
X0094005Y0231520D01*
X0094005Y0231520D01*
X0094005Y0231520D01*
X0091236Y0231520D01*
X0091236Y0231247D01*
X0091343Y0230712D01*
X0091551Y0230208D01*
X0091854Y0229755D01*
X0092240Y0229369D01*
X0092693Y0229066D01*
X0093197Y0228858D01*
X0093732Y0228751D01*
X0094005Y0228751D01*
X0092126Y0229484D02*
X0067826Y0229484D01*
X0069424Y0231082D02*
X0091269Y0231082D01*
X0091489Y0232681D02*
X0071023Y0232681D01*
X0072621Y0234279D02*
X0093687Y0234279D01*
X0094005Y0234279D02*
X0094005Y0234279D01*
X0094323Y0234279D02*
X0106984Y0234279D01*
X0107528Y0232681D02*
X0096520Y0232681D01*
X0096740Y0231082D02*
X0107181Y0231082D01*
X0110356Y0235878D02*
X0074258Y0235878D01*
X0077109Y0237476D02*
X0106984Y0237476D01*
X0107236Y0239075D02*
X0077899Y0239075D01*
X0077555Y0240673D02*
X0091662Y0240673D01*
X0091551Y0240838D02*
X0091854Y0240385D01*
X0092240Y0239999D01*
X0092693Y0239696D01*
X0093197Y0239488D01*
X0093732Y0239381D01*
X0094005Y0239381D01*
X0094277Y0239381D01*
X0094812Y0239488D01*
X0095316Y0239696D01*
X0095770Y0239999D01*
X0096155Y0240385D01*
X0096458Y0240838D01*
X0096667Y0241342D01*
X0096773Y0241877D01*
X0096773Y0242150D01*
X0096773Y0242422D01*
X0096667Y0242957D01*
X0096458Y0243461D01*
X0096155Y0243915D01*
X0095770Y0244300D01*
X0095316Y0244603D01*
X0095061Y0244709D01*
X0095316Y0244814D01*
X0095770Y0245117D01*
X0096155Y0245503D01*
X0096458Y0245956D01*
X0096667Y0246460D01*
X0096773Y0246995D01*
X0096773Y0247268D01*
X0096773Y0247540D01*
X0096667Y0248075D01*
X0096458Y0248579D01*
X0096155Y0249033D01*
X0095770Y0249418D01*
X0095316Y0249721D01*
X0094812Y0249930D01*
X0094277Y0250036D01*
X0094005Y0250036D01*
X0094005Y0247268D01*
X0096773Y0247268D01*
X0094005Y0247268D01*
X0094005Y0247268D01*
X0094005Y0247268D01*
X0094005Y0250036D01*
X0093732Y0250036D01*
X0093197Y0249930D01*
X0092693Y0249721D01*
X0092240Y0249418D01*
X0091854Y0249033D01*
X0091551Y0248579D01*
X0091343Y0248075D01*
X0091236Y0247540D01*
X0091236Y0247268D01*
X0094005Y0247268D01*
X0094005Y0242150D01*
X0094005Y0242150D01*
X0096773Y0242150D01*
X0094005Y0242150D01*
X0094005Y0242150D01*
X0094005Y0244918D01*
X0094005Y0247268D01*
X0094005Y0247268D01*
X0094005Y0247268D01*
X0091236Y0247268D01*
X0091236Y0246995D01*
X0091343Y0246460D01*
X0091551Y0245956D01*
X0091854Y0245503D01*
X0092240Y0245117D01*
X0092693Y0244814D01*
X0092948Y0244709D01*
X0092693Y0244603D01*
X0092240Y0244300D01*
X0091854Y0243915D01*
X0091551Y0243461D01*
X0091343Y0242957D01*
X0091236Y0242422D01*
X0091236Y0242150D01*
X0094005Y0242150D01*
X0094005Y0242150D01*
X0094005Y0239381D01*
X0094005Y0242150D01*
X0094005Y0242150D01*
X0091236Y0242150D01*
X0091236Y0241877D01*
X0091343Y0241342D01*
X0091551Y0240838D01*
X0091236Y0242272D02*
X0079102Y0242272D01*
X0080041Y0243870D02*
X0091825Y0243870D01*
X0091888Y0245469D02*
X0079759Y0245469D01*
X0075180Y0245469D02*
X0056926Y0245469D01*
X0056282Y0247067D02*
X0091236Y0247067D01*
X0091609Y0248666D02*
X0058746Y0248666D01*
X0059002Y0243870D02*
X0067844Y0243870D01*
X0068984Y0243870D02*
X0074318Y0243870D01*
X0072720Y0242272D02*
X0070805Y0242272D01*
X0070929Y0240673D02*
X0071121Y0240673D01*
X0068348Y0250264D02*
X0106984Y0250264D01*
X0106984Y0250011D02*
X0106984Y0252201D01*
X0107092Y0252605D01*
X0107301Y0252967D01*
X0107597Y0253262D01*
X0107959Y0253471D01*
X0108363Y0253580D01*
X0110356Y0253580D01*
X0110356Y0250011D01*
X0106984Y0250011D01*
X0106984Y0248666D02*
X0096400Y0248666D01*
X0096773Y0247067D02*
X0107087Y0247067D01*
X0107181Y0245469D02*
X0096121Y0245469D01*
X0096185Y0243870D02*
X0107181Y0243870D01*
X0107181Y0242272D02*
X0096773Y0242272D01*
X0096348Y0240673D02*
X0107181Y0240673D01*
X0110724Y0235878D02*
X0158112Y0235878D01*
X0157575Y0234279D02*
X0114096Y0234279D01*
X0113552Y0232681D02*
X0158105Y0232681D01*
X0159937Y0231082D02*
X0116977Y0231082D01*
X0117443Y0229484D02*
X0160514Y0229484D01*
X0163087Y0227885D02*
X0116842Y0227885D01*
X0113573Y0226287D02*
X0163711Y0226287D01*
X0166245Y0224688D02*
X0063030Y0224688D01*
X0047618Y0245469D02*
X0046183Y0245469D01*
X0046183Y0247067D02*
X0048263Y0247067D01*
X0046722Y0255060D02*
X0046183Y0255060D01*
X0046183Y0256658D02*
X0102607Y0256658D01*
X0102161Y0258257D02*
X0058615Y0258257D01*
X0059594Y0259855D02*
X0102573Y0259855D01*
X0104192Y0261454D02*
X0052473Y0261454D01*
X0052472Y0263052D02*
X0052072Y0263052D01*
X0052072Y0264651D02*
X0052472Y0264651D01*
X0058511Y0264651D02*
X0104205Y0264651D01*
X0103953Y0266249D02*
X0046183Y0266249D01*
X0052072Y0259855D02*
X0052472Y0259855D01*
X0052472Y0258257D02*
X0052072Y0258257D01*
X0057823Y0255060D02*
X0107081Y0255060D01*
X0107942Y0253461D02*
X0067668Y0253461D01*
X0068624Y0251863D02*
X0106984Y0251863D01*
X0110356Y0251863D02*
X0110724Y0251863D01*
X0110724Y0253461D02*
X0110356Y0253461D01*
X0110724Y0253580D02*
X0110724Y0250011D01*
X0114096Y0250011D01*
X0114096Y0252201D01*
X0113988Y0252605D01*
X0113779Y0252967D01*
X0113483Y0253262D01*
X0113121Y0253471D01*
X0112718Y0253580D01*
X0110724Y0253580D01*
X0113139Y0253461D02*
X0121932Y0253461D01*
X0121932Y0254932D02*
X0121932Y0250903D01*
X0121889Y0250860D01*
X0121453Y0249807D01*
X0121453Y0248666D01*
X0114096Y0248666D01*
X0114096Y0250264D02*
X0121642Y0250264D01*
X0121453Y0248666D02*
X0121889Y0247612D01*
X0122696Y0246806D01*
X0123749Y0246369D01*
X0124890Y0246369D01*
X0125944Y0246806D01*
X0126750Y0247612D01*
X0127187Y0248666D01*
X0127187Y0249807D01*
X0126750Y0250860D01*
X0126313Y0251297D01*
X0126313Y0254932D01*
X0126864Y0254932D01*
X0127344Y0255412D01*
X0127380Y0255348D01*
X0127676Y0255053D01*
X0128038Y0254844D01*
X0128441Y0254736D01*
X0130631Y0254736D01*
X0130631Y0258107D01*
X0131000Y0258107D01*
X0131000Y0254736D01*
X0133190Y0254736D01*
X0133594Y0254844D01*
X0133956Y0255053D01*
X0134251Y0255348D01*
X0134460Y0255710D01*
X0134568Y0256114D01*
X0134568Y0258107D01*
X0131000Y0258107D01*
X0131000Y0258476D01*
X0130631Y0258476D01*
X0130631Y0261847D01*
X0128441Y0261847D01*
X0128038Y0261739D01*
X0127676Y0261530D01*
X0127380Y0261235D01*
X0127344Y0261171D01*
X0126864Y0261650D01*
X0121381Y0261650D01*
X0120567Y0260836D01*
X0120567Y0255747D01*
X0121381Y0254932D01*
X0121932Y0254932D01*
X0121254Y0255060D02*
X0119790Y0255060D01*
X0119783Y0255053D02*
X0120078Y0255348D01*
X0120287Y0255710D01*
X0120395Y0256114D01*
X0120395Y0258107D01*
X0116827Y0258107D01*
X0116827Y0254736D01*
X0119017Y0254736D01*
X0119421Y0254844D01*
X0119783Y0255053D01*
X0120395Y0256658D02*
X0120567Y0256658D01*
X0120567Y0258257D02*
X0116827Y0258257D01*
X0116827Y0258476D02*
X0120395Y0258476D01*
X0120395Y0260469D01*
X0120287Y0260873D01*
X0120078Y0261235D01*
X0119783Y0261530D01*
X0119421Y0261739D01*
X0119017Y0261847D01*
X0116827Y0261847D01*
X0116827Y0258476D01*
X0116827Y0259855D02*
X0116458Y0259855D01*
X0116458Y0261454D02*
X0116827Y0261454D01*
X0115391Y0263052D02*
X0119075Y0263052D01*
X0119595Y0263052D02*
X0119595Y0263052D01*
X0119595Y0263003D02*
X0119868Y0263003D01*
X0120403Y0263110D01*
X0120907Y0263318D01*
X0121360Y0263621D01*
X0121746Y0264007D01*
X0121957Y0264324D01*
X0122169Y0264007D01*
X0122555Y0263621D01*
X0123008Y0263318D01*
X0123512Y0263110D01*
X0124047Y0263003D01*
X0124320Y0263003D01*
X0124592Y0263003D01*
X0125127Y0263110D01*
X0125631Y0263318D01*
X0126084Y0263621D01*
X0126470Y0264007D01*
X0126773Y0264460D01*
X0126879Y0264715D01*
X0126984Y0264460D01*
X0127287Y0264007D01*
X0127673Y0263621D01*
X0128126Y0263318D01*
X0128630Y0263110D01*
X0129165Y0263003D01*
X0129438Y0263003D01*
X0129710Y0263003D01*
X0130245Y0263110D01*
X0130749Y0263318D01*
X0131203Y0263621D01*
X0131588Y0264007D01*
X0131891Y0264460D01*
X0132100Y0264964D01*
X0132206Y0265499D01*
X0132206Y0265772D01*
X0129438Y0265772D01*
X0129438Y0265772D01*
X0129438Y0265772D01*
X0129438Y0263003D01*
X0129438Y0265772D01*
X0129438Y0265772D01*
X0127088Y0265772D01*
X0124320Y0265772D01*
X0124320Y0265772D01*
X0124320Y0263003D01*
X0124320Y0265772D01*
X0124320Y0265772D01*
X0124320Y0265772D01*
X0121551Y0265772D01*
X0119595Y0265772D01*
X0119595Y0265772D01*
X0119595Y0263003D01*
X0120115Y0263052D02*
X0123800Y0263052D01*
X0124320Y0263052D02*
X0124320Y0263052D01*
X0124840Y0263052D02*
X0128918Y0263052D01*
X0129438Y0263052D02*
X0129438Y0263052D01*
X0129958Y0263052D02*
X0143980Y0263052D01*
X0143980Y0264651D02*
X0131970Y0264651D01*
X0132166Y0266249D02*
X0144613Y0266249D01*
X0145866Y0267848D02*
X0131277Y0267848D01*
X0129438Y0264651D02*
X0129438Y0264651D01*
X0126905Y0264651D02*
X0126852Y0264651D01*
X0124320Y0264651D02*
X0124320Y0264651D01*
X0127061Y0261454D02*
X0127599Y0261454D01*
X0130631Y0261454D02*
X0131000Y0261454D01*
X0131000Y0261847D02*
X0133190Y0261847D01*
X0133594Y0261739D01*
X0133956Y0261530D01*
X0134251Y0261235D01*
X0134460Y0260873D01*
X0134568Y0260469D01*
X0134568Y0258476D01*
X0131000Y0258476D01*
X0131000Y0261847D01*
X0131000Y0259855D02*
X0130631Y0259855D01*
X0131000Y0258257D02*
X0135724Y0258257D01*
X0135724Y0257295D02*
X0135724Y0259288D01*
X0139293Y0259288D01*
X0139293Y0255917D01*
X0137103Y0255917D01*
X0136699Y0256025D01*
X0136337Y0256234D01*
X0136042Y0256529D01*
X0135833Y0256891D01*
X0135724Y0257295D01*
X0135967Y0256658D02*
X0134568Y0256658D01*
X0133963Y0255060D02*
X0152242Y0255060D01*
X0151610Y0256658D02*
X0151242Y0256658D01*
X0151242Y0258257D02*
X0151610Y0258257D01*
X0151610Y0259617D02*
X0151242Y0259617D01*
X0151242Y0262989D01*
X0149052Y0262989D01*
X0148648Y0262881D01*
X0148563Y0262832D01*
X0148361Y0262832D01*
X0148361Y0263801D01*
X0148960Y0264401D01*
X0149299Y0264401D01*
X0150353Y0264837D01*
X0151160Y0265644D01*
X0151596Y0266698D01*
X0151596Y0267838D01*
X0151307Y0268535D01*
X0157878Y0268535D01*
X0157370Y0268434D01*
X0156867Y0268225D01*
X0156413Y0267922D01*
X0156028Y0267537D01*
X0155725Y0267083D01*
X0155516Y0266579D01*
X0155409Y0266044D01*
X0155409Y0265772D01*
X0158178Y0265772D01*
X0158178Y0265772D01*
X0155409Y0265772D01*
X0155409Y0265499D01*
X0155516Y0264964D01*
X0155725Y0264460D01*
X0156028Y0264007D01*
X0156413Y0263621D01*
X0156867Y0263318D01*
X0157370Y0263110D01*
X0157905Y0263003D01*
X0158178Y0263003D01*
X0158451Y0263003D01*
X0158985Y0263110D01*
X0159489Y0263318D01*
X0159943Y0263621D01*
X0160125Y0263804D01*
X0160472Y0262967D01*
X0160549Y0262889D01*
X0160518Y0262881D01*
X0160364Y0262792D01*
X0155378Y0262792D01*
X0154898Y0262313D01*
X0154862Y0262376D01*
X0154566Y0262672D01*
X0154204Y0262881D01*
X0153800Y0262989D01*
X0151610Y0262989D01*
X0151610Y0259617D01*
X0151610Y0259855D02*
X0151242Y0259855D01*
X0151242Y0261454D02*
X0151610Y0261454D01*
X0148361Y0263052D02*
X0157658Y0263052D01*
X0158178Y0263052D02*
X0158178Y0263052D01*
X0158178Y0263003D02*
X0158178Y0265772D01*
X0158178Y0265772D01*
X0158178Y0263003D01*
X0158698Y0263052D02*
X0160436Y0263052D01*
X0158178Y0264651D02*
X0158178Y0264651D01*
X0155646Y0264651D02*
X0149903Y0264651D01*
X0151410Y0266249D02*
X0155450Y0266249D01*
X0156339Y0267848D02*
X0151592Y0267848D01*
X0148729Y0267268D02*
X0146170Y0264709D01*
X0146170Y0259473D01*
X0146327Y0253461D02*
X0146328Y0253461D01*
X0147757Y0253461D02*
X0150644Y0253461D01*
X0149045Y0251863D02*
X0148996Y0251863D01*
X0146328Y0251863D02*
X0146327Y0251863D01*
X0144898Y0253461D02*
X0144036Y0253461D01*
X0142430Y0253461D02*
X0142430Y0253461D01*
X0142430Y0251863D02*
X0142430Y0251863D01*
X0142430Y0251205D02*
X0139661Y0251205D01*
X0139661Y0250932D01*
X0139768Y0250397D01*
X0139977Y0249893D01*
X0140279Y0249440D01*
X0140665Y0249054D01*
X0141119Y0248751D01*
X0141622Y0248543D01*
X0142157Y0248436D01*
X0142430Y0248436D01*
X0142430Y0251205D01*
X0142430Y0251205D01*
X0142430Y0250264D02*
X0142430Y0250264D01*
X0142430Y0248666D02*
X0142430Y0248666D01*
X0143535Y0248666D02*
X0144967Y0248666D01*
X0143670Y0247067D02*
X0126205Y0247067D01*
X0127187Y0248666D02*
X0141325Y0248666D01*
X0139823Y0250264D02*
X0126997Y0250264D01*
X0126313Y0251863D02*
X0139738Y0251863D01*
X0140824Y0253461D02*
X0126313Y0253461D01*
X0126992Y0255060D02*
X0127668Y0255060D01*
X0130631Y0255060D02*
X0131000Y0255060D01*
X0131000Y0256658D02*
X0130631Y0256658D01*
X0134568Y0259855D02*
X0135724Y0259855D01*
X0135724Y0261454D02*
X0134032Y0261454D01*
X0139293Y0261454D02*
X0139661Y0261454D01*
X0139661Y0259855D02*
X0139293Y0259855D01*
X0139293Y0258257D02*
X0139661Y0258257D01*
X0139661Y0256658D02*
X0139293Y0256658D01*
X0143520Y0245469D02*
X0115085Y0245469D01*
X0113993Y0247067D02*
X0122434Y0247067D01*
X0124320Y0249236D02*
X0124123Y0249433D01*
X0124123Y0258291D01*
X0120567Y0259855D02*
X0120395Y0259855D01*
X0119859Y0261454D02*
X0121185Y0261454D01*
X0119595Y0264651D02*
X0119595Y0264651D01*
X0114871Y0264651D02*
X0114871Y0264651D01*
X0114871Y0265772D02*
X0114871Y0263003D01*
X0114871Y0265772D01*
X0114871Y0265772D01*
X0114871Y0263052D02*
X0114871Y0263052D01*
X0114351Y0263052D02*
X0110843Y0263052D01*
X0112887Y0261454D02*
X0113426Y0261454D01*
X0109950Y0258291D02*
X0105028Y0258291D01*
X0103953Y0263052D02*
X0059560Y0263052D01*
X0059172Y0253461D02*
X0064435Y0253461D01*
X0081662Y0273866D02*
X0091662Y0273866D01*
X0091662Y0265791D01*
X0091643Y0265772D01*
X0091662Y0273866D02*
X0086662Y0278866D01*
X0086662Y0283866D01*
X0112818Y0255060D02*
X0113495Y0255060D01*
X0116458Y0255060D02*
X0116827Y0255060D01*
X0116827Y0256658D02*
X0116458Y0256658D01*
X0114096Y0251863D02*
X0121932Y0251863D01*
X0116874Y0243870D02*
X0144529Y0243870D01*
X0146367Y0246087D02*
X0158119Y0257839D01*
X0158119Y0259433D01*
X0158438Y0255060D02*
X0169020Y0255060D01*
X0167422Y0253461D02*
X0156840Y0253461D01*
X0155241Y0251863D02*
X0167067Y0251863D01*
X0167067Y0250264D02*
X0165864Y0250264D01*
X0167008Y0248666D02*
X0167067Y0248666D01*
X0167067Y0247067D02*
X0166852Y0247067D01*
X0167067Y0245469D02*
X0166218Y0245469D01*
X0166218Y0243870D02*
X0167067Y0243870D01*
X0163091Y0250264D02*
X0162714Y0250264D01*
X0159941Y0250264D02*
X0159171Y0250264D01*
X0156398Y0250264D02*
X0153642Y0250264D01*
X0152044Y0248666D02*
X0155254Y0248666D01*
X0153648Y0247067D02*
X0150445Y0247067D01*
X0149214Y0245469D02*
X0153323Y0245469D01*
X0154159Y0243870D02*
X0148205Y0243870D01*
X0154863Y0242272D02*
X0116985Y0242272D01*
X0115732Y0240673D02*
X0154863Y0240673D01*
X0154863Y0239075D02*
X0113844Y0239075D01*
X0113899Y0240393D02*
X0113899Y0240393D01*
X0114096Y0237476D02*
X0154878Y0237476D01*
X0168230Y0227885D02*
X0177049Y0227885D01*
X0176571Y0229484D02*
X0169627Y0229484D01*
X0174693Y0226287D02*
X0179604Y0226287D01*
X0180449Y0224688D02*
X0174914Y0224688D01*
X0174188Y0223090D02*
X0181003Y0223090D01*
X0181319Y0221491D02*
X0175786Y0221491D01*
X0178560Y0219893D02*
X0181319Y0219893D01*
X0181319Y0218294D02*
X0179630Y0218294D01*
X0179426Y0216696D02*
X0181319Y0216696D01*
X0181863Y0215097D02*
X0179323Y0215097D01*
X0179647Y0213499D02*
X0183462Y0213499D01*
X0185061Y0211900D02*
X0178809Y0211900D01*
X0174170Y0207105D02*
X0200263Y0207105D01*
X0200296Y0207138D02*
X0200001Y0206842D01*
X0199792Y0206481D01*
X0199683Y0206077D01*
X0199683Y0204768D01*
X0205571Y0204768D01*
X0205571Y0204768D01*
X0205571Y0207455D01*
X0210080Y0207455D01*
X0210484Y0207347D01*
X0210846Y0207138D01*
X0211141Y0206842D01*
X0211350Y0206481D01*
X0211458Y0206077D01*
X0211458Y0204768D01*
X0205571Y0204768D01*
X0205571Y0204768D01*
X0205571Y0207455D01*
X0201062Y0207455D01*
X0200658Y0207347D01*
X0200296Y0207138D01*
X0199683Y0205506D02*
X0175608Y0205506D01*
X0176682Y0203908D02*
X0176682Y0203908D01*
X0178152Y0203908D02*
X0179403Y0203908D01*
X0182502Y0203908D02*
X0182870Y0203908D01*
X0182870Y0202309D02*
X0182502Y0202309D01*
X0182502Y0199112D02*
X0182870Y0199112D01*
X0182870Y0197514D02*
X0182502Y0197514D01*
X0179648Y0197514D02*
X0173484Y0197514D01*
X0171885Y0195915D02*
X0187188Y0195915D01*
X0187188Y0194316D02*
X0170287Y0194316D01*
X0168688Y0192718D02*
X0185963Y0192718D01*
X0184365Y0191119D02*
X0170325Y0191119D01*
X0170986Y0189521D02*
X0171991Y0189521D01*
X0175861Y0189521D02*
X0181810Y0189521D01*
X0181295Y0187922D02*
X0176498Y0187922D01*
X0176068Y0186324D02*
X0181678Y0186324D01*
X0184162Y0187819D02*
X0189379Y0193036D01*
X0189379Y0200811D01*
X0192935Y0200711D02*
X0199683Y0200711D01*
X0199683Y0201077D02*
X0199683Y0199768D01*
X0205571Y0199768D01*
X0205571Y0199768D01*
X0205571Y0202080D01*
X0205571Y0204768D01*
X0211458Y0204768D01*
X0211458Y0203459D01*
X0211350Y0203055D01*
X0211141Y0202693D01*
X0210846Y0202398D01*
X0210621Y0202268D01*
X0210846Y0202138D01*
X0211141Y0201842D01*
X0211350Y0201481D01*
X0211458Y0201077D01*
X0211458Y0199768D01*
X0205571Y0199768D01*
X0205571Y0199768D01*
X0205571Y0204768D01*
X0205571Y0204768D01*
X0205571Y0204768D01*
X0199683Y0204768D01*
X0199683Y0203459D01*
X0199792Y0203055D01*
X0200001Y0202693D01*
X0200296Y0202398D01*
X0200521Y0202268D01*
X0200296Y0202138D01*
X0200001Y0201842D01*
X0199792Y0201481D01*
X0199683Y0201077D01*
X0199683Y0199768D02*
X0199683Y0198459D01*
X0199792Y0198055D01*
X0200001Y0197693D01*
X0200296Y0197398D01*
X0200521Y0197268D01*
X0200296Y0197138D01*
X0200001Y0196842D01*
X0199792Y0196481D01*
X0199683Y0196077D01*
X0199683Y0194768D01*
X0205571Y0194768D01*
X0205571Y0194768D01*
X0205571Y0197080D01*
X0205571Y0199768D01*
X0211458Y0199768D01*
X0211458Y0198459D01*
X0211350Y0198055D01*
X0211141Y0197693D01*
X0210846Y0197398D01*
X0210621Y0197268D01*
X0210846Y0197138D01*
X0211141Y0196842D01*
X0211350Y0196481D01*
X0211458Y0196077D01*
X0211458Y0194768D01*
X0205571Y0194768D01*
X0205571Y0194768D01*
X0205571Y0199768D01*
X0205571Y0199768D01*
X0205571Y0199768D01*
X0199683Y0199768D01*
X0199683Y0199112D02*
X0192935Y0199112D01*
X0192182Y0197514D02*
X0200180Y0197514D01*
X0199683Y0195915D02*
X0191569Y0195915D01*
X0191569Y0194316D02*
X0199683Y0194316D01*
X0199683Y0194768D02*
X0199683Y0193459D01*
X0199792Y0193055D01*
X0200001Y0192693D01*
X0200296Y0192398D01*
X0200521Y0192268D01*
X0200296Y0192138D01*
X0200001Y0191842D01*
X0199792Y0191481D01*
X0199683Y0191077D01*
X0199683Y0189768D01*
X0205571Y0189768D01*
X0205571Y0189768D01*
X0205571Y0192080D01*
X0205571Y0194768D01*
X0211458Y0194768D01*
X0211458Y0193459D01*
X0211350Y0193055D01*
X0211141Y0192693D01*
X0210846Y0192398D01*
X0210621Y0192268D01*
X0210846Y0192138D01*
X0211141Y0191842D01*
X0211350Y0191481D01*
X0211458Y0191077D01*
X0211458Y0189768D01*
X0205571Y0189768D01*
X0205571Y0189768D01*
X0205571Y0194768D01*
X0205571Y0194768D01*
X0205571Y0194768D01*
X0199683Y0194768D01*
X0199986Y0192718D02*
X0191569Y0192718D01*
X0190561Y0191119D02*
X0199695Y0191119D01*
X0199683Y0189768D02*
X0199683Y0188459D01*
X0199792Y0188055D01*
X0200001Y0187693D01*
X0200296Y0187398D01*
X0200658Y0187189D01*
X0201062Y0187080D01*
X0205571Y0187080D01*
X0210080Y0187080D01*
X0210484Y0187189D01*
X0210846Y0187398D01*
X0211141Y0187693D01*
X0211350Y0188055D01*
X0211458Y0188459D01*
X0211458Y0189768D01*
X0205571Y0189768D01*
X0205571Y0189768D01*
X0205571Y0187080D01*
X0205571Y0189768D01*
X0205571Y0189768D01*
X0199683Y0189768D01*
X0199683Y0189521D02*
X0188962Y0189521D01*
X0187364Y0187922D02*
X0199868Y0187922D01*
X0205571Y0187922D02*
X0205571Y0187922D01*
X0205571Y0189521D02*
X0205571Y0189521D01*
X0205571Y0191119D02*
X0205571Y0191119D01*
X0205571Y0192718D02*
X0205571Y0192718D01*
X0205571Y0194316D02*
X0205571Y0194316D01*
X0205571Y0195915D02*
X0205571Y0195915D01*
X0205571Y0197514D02*
X0205571Y0197514D01*
X0205571Y0199112D02*
X0205571Y0199112D01*
X0205571Y0200711D02*
X0205571Y0200711D01*
X0205571Y0202309D02*
X0205571Y0202309D01*
X0205571Y0203908D02*
X0205571Y0203908D01*
X0205571Y0205506D02*
X0205571Y0205506D01*
X0205571Y0207105D02*
X0205571Y0207105D01*
X0207009Y0208703D02*
X0212496Y0208703D01*
X0212496Y0210302D02*
X0207009Y0210302D01*
X0207009Y0211900D02*
X0212496Y0211900D01*
X0212496Y0213499D02*
X0207009Y0213499D01*
X0207009Y0215097D02*
X0212496Y0215097D01*
X0212496Y0216696D02*
X0207009Y0216696D01*
X0206630Y0223090D02*
X0206065Y0223090D01*
X0206217Y0224688D02*
X0211766Y0224688D01*
X0211197Y0226287D02*
X0206261Y0226287D01*
X0206261Y0227885D02*
X0211694Y0227885D01*
X0213769Y0226323D02*
X0216682Y0223410D01*
X0216682Y0220536D01*
X0216721Y0220496D01*
X0216721Y0213134D01*
X0221183Y0213499D02*
X0235571Y0213499D01*
X0235571Y0215097D02*
X0221183Y0215097D01*
X0221183Y0216696D02*
X0235571Y0216696D01*
X0235571Y0218294D02*
X0220732Y0218294D01*
X0220041Y0219893D02*
X0233491Y0219893D01*
X0233163Y0220221D02*
X0233887Y0219497D01*
X0234832Y0219106D01*
X0235453Y0219106D01*
X0235571Y0218988D01*
X0235571Y0207438D01*
X0234642Y0206508D01*
X0229797Y0206508D01*
X0229047Y0207258D01*
X0219295Y0207258D01*
X0218480Y0206444D01*
X0218480Y0203092D01*
X0219295Y0202277D01*
X0229047Y0202277D01*
X0229797Y0203027D01*
X0236084Y0203027D01*
X0238033Y0204976D01*
X0239052Y0205996D01*
X0239052Y0220430D01*
X0237915Y0221567D01*
X0237915Y0222189D01*
X0237523Y0223134D01*
X0236800Y0223857D01*
X0235855Y0224249D01*
X0234832Y0224249D01*
X0233887Y0223857D01*
X0233163Y0223134D01*
X0232772Y0222189D01*
X0232772Y0221166D01*
X0233163Y0220221D01*
X0232772Y0221491D02*
X0220041Y0221491D01*
X0220041Y0223090D02*
X0233145Y0223090D01*
X0237542Y0223090D02*
X0246036Y0223090D01*
X0244438Y0224688D02*
X0218501Y0224688D01*
X0217648Y0226287D02*
X0216903Y0226287D01*
X0217024Y0227885D02*
X0215843Y0227885D01*
X0215627Y0229484D02*
X0206261Y0229484D01*
X0202521Y0227413D02*
X0202521Y0227044D01*
X0199150Y0227044D01*
X0199150Y0224854D01*
X0199258Y0224450D01*
X0199467Y0224088D01*
X0199762Y0223793D01*
X0199826Y0223756D01*
X0199346Y0223277D01*
X0199346Y0218658D01*
X0199137Y0218658D01*
X0198323Y0217844D01*
X0198323Y0214874D01*
X0187009Y0214874D01*
X0184800Y0217083D01*
X0184800Y0222852D01*
X0185201Y0223252D01*
X0185592Y0224197D01*
X0185592Y0225195D01*
X0186709Y0225195D01*
X0186709Y0224645D01*
X0187188Y0224165D01*
X0187125Y0224129D01*
X0186829Y0223833D01*
X0186620Y0223471D01*
X0186512Y0223067D01*
X0186512Y0220877D01*
X0189883Y0220877D01*
X0189883Y0220509D01*
X0186512Y0220509D01*
X0186512Y0218319D01*
X0186620Y0217915D01*
X0186829Y0217553D01*
X0187125Y0217257D01*
X0187486Y0217048D01*
X0187890Y0216940D01*
X0189883Y0216940D01*
X0189883Y0220509D01*
X0190252Y0220509D01*
X0190252Y0220877D01*
X0193624Y0220877D01*
X0193624Y0223067D01*
X0193515Y0223471D01*
X0193306Y0223833D01*
X0193011Y0224129D01*
X0192947Y0224165D01*
X0193427Y0224645D01*
X0193427Y0227765D01*
X0193626Y0227565D01*
X0194128Y0227230D01*
X0194686Y0226999D01*
X0195278Y0226881D01*
X0195579Y0226881D01*
X0195579Y0229945D01*
X0195580Y0229945D01*
X0198643Y0229945D01*
X0198643Y0230247D01*
X0198526Y0230839D01*
X0198475Y0230960D01*
X0200450Y0230960D01*
X0200124Y0230873D01*
X0199762Y0230664D01*
X0199467Y0230368D01*
X0199258Y0230007D01*
X0199150Y0229603D01*
X0199150Y0227413D01*
X0202521Y0227413D01*
X0199150Y0227885D02*
X0197853Y0227885D01*
X0197959Y0227992D02*
X0198295Y0228494D01*
X0198526Y0229051D01*
X0198643Y0229643D01*
X0198643Y0229945D01*
X0195580Y0229945D01*
X0195580Y0229945D01*
X0195580Y0226881D01*
X0195881Y0226881D01*
X0196473Y0226999D01*
X0197031Y0227230D01*
X0197533Y0227565D01*
X0197959Y0227992D01*
X0198612Y0229484D02*
X0199150Y0229484D01*
X0199150Y0226287D02*
X0193427Y0226287D01*
X0193427Y0224688D02*
X0199194Y0224688D01*
X0199346Y0223090D02*
X0193618Y0223090D01*
X0193624Y0221491D02*
X0199346Y0221491D01*
X0199346Y0219893D02*
X0193624Y0219893D01*
X0193624Y0220509D02*
X0190252Y0220509D01*
X0190252Y0216940D01*
X0192245Y0216940D01*
X0192649Y0217048D01*
X0193011Y0217257D01*
X0193306Y0217553D01*
X0193515Y0217915D01*
X0193624Y0218319D01*
X0193624Y0220509D01*
X0193617Y0218294D02*
X0198773Y0218294D01*
X0198323Y0216696D02*
X0185188Y0216696D01*
X0184800Y0218294D02*
X0186518Y0218294D01*
X0186512Y0219893D02*
X0184800Y0219893D01*
X0184800Y0221491D02*
X0186512Y0221491D01*
X0186518Y0223090D02*
X0185038Y0223090D01*
X0185592Y0224688D02*
X0186709Y0224688D01*
X0190068Y0227386D02*
X0181603Y0227386D01*
X0179438Y0229551D01*
X0181222Y0240673D02*
X0184740Y0240673D01*
X0184740Y0242272D02*
X0180590Y0242272D01*
X0180373Y0243870D02*
X0184265Y0243870D01*
X0182666Y0245469D02*
X0181258Y0245469D01*
X0181320Y0246087D02*
X0178257Y0246087D01*
X0181320Y0246087D01*
X0178257Y0246087D02*
X0178257Y0246087D01*
X0182194Y0249039D02*
X0188099Y0243134D01*
X0191458Y0243870D02*
X0194644Y0243870D01*
X0194808Y0243707D02*
X0195309Y0243372D01*
X0195867Y0243141D01*
X0196459Y0243023D01*
X0196761Y0243023D01*
X0197062Y0243023D01*
X0197654Y0243141D01*
X0198212Y0243372D01*
X0198714Y0243707D01*
X0199140Y0244134D01*
X0199476Y0244635D01*
X0199707Y0245193D01*
X0199824Y0245785D01*
X0199824Y0246087D01*
X0199824Y0246388D01*
X0199707Y0246980D01*
X0199476Y0247538D01*
X0199140Y0248040D01*
X0198714Y0248466D01*
X0198212Y0248802D01*
X0197654Y0249033D01*
X0197062Y0249150D01*
X0196761Y0249150D01*
X0196761Y0246087D01*
X0199824Y0246087D01*
X0196761Y0246087D01*
X0196761Y0246087D01*
X0196761Y0246087D01*
X0196761Y0249150D01*
X0196459Y0249150D01*
X0195867Y0249033D01*
X0195309Y0248802D01*
X0194808Y0248466D01*
X0194381Y0248040D01*
X0194046Y0247538D01*
X0193815Y0246980D01*
X0193697Y0246388D01*
X0193697Y0246087D01*
X0196760Y0246087D01*
X0196760Y0246087D01*
X0193697Y0246087D01*
X0193697Y0245785D01*
X0193815Y0245193D01*
X0194046Y0244635D01*
X0194381Y0244134D01*
X0194808Y0243707D01*
X0196761Y0243870D02*
X0196761Y0243870D01*
X0196761Y0243023D02*
X0196761Y0246087D01*
X0196761Y0246087D01*
X0196761Y0243023D01*
X0198877Y0243870D02*
X0311893Y0243870D01*
X0311893Y0242272D02*
X0307923Y0242272D01*
X0307923Y0242412D02*
X0307108Y0243226D01*
X0299956Y0243226D01*
X0299142Y0242412D01*
X0299142Y0234660D01*
X0299956Y0233845D01*
X0307108Y0233845D01*
X0307923Y0234660D01*
X0307923Y0236008D01*
X0308809Y0235641D01*
X0310067Y0235641D01*
X0311229Y0236122D01*
X0311893Y0236786D01*
X0311893Y0217466D01*
X0308623Y0214197D01*
X0308355Y0214308D01*
X0308015Y0214308D01*
X0305723Y0216600D01*
X0305723Y0217845D01*
X0307108Y0217845D01*
X0307923Y0218660D01*
X0307923Y0226412D01*
X0307108Y0227226D01*
X0299956Y0227226D01*
X0299142Y0226412D01*
X0299142Y0218660D01*
X0299956Y0217845D01*
X0301342Y0217845D01*
X0301342Y0214786D01*
X0302625Y0213502D01*
X0304917Y0211210D01*
X0304917Y0210871D01*
X0305354Y0209817D01*
X0306160Y0209011D01*
X0307214Y0208574D01*
X0308355Y0208574D01*
X0309408Y0209011D01*
X0309648Y0209250D01*
X0309873Y0209250D01*
X0316274Y0215652D01*
X0316274Y0283593D01*
X0316514Y0283833D01*
X0318570Y0283833D01*
X0318455Y0284006D02*
X0318790Y0283504D01*
X0319217Y0283077D01*
X0319719Y0282742D01*
X0320276Y0282511D01*
X0320868Y0282393D01*
X0321170Y0282393D01*
X0321170Y0285457D01*
X0321170Y0288521D01*
X0320868Y0288521D01*
X0320276Y0288403D01*
X0319719Y0288172D01*
X0319217Y0287837D01*
X0318790Y0287410D01*
X0318455Y0286908D01*
X0318224Y0286350D01*
X0318106Y0285759D01*
X0318106Y0285457D01*
X0321170Y0285457D01*
X0321170Y0285457D01*
X0321170Y0288521D01*
X0321472Y0288521D01*
X0322064Y0288403D01*
X0322621Y0288172D01*
X0323123Y0287837D01*
X0323550Y0287410D01*
X0323885Y0286908D01*
X0324116Y0286350D01*
X0324234Y0285759D01*
X0324234Y0285457D01*
X0321170Y0285457D01*
X0321170Y0285457D01*
X0321170Y0285457D01*
X0318106Y0285457D01*
X0318106Y0285155D01*
X0318224Y0284563D01*
X0318455Y0284006D01*
X0318106Y0285432D02*
X0317156Y0285432D01*
X0316950Y0285226D02*
X0317928Y0286203D01*
X0317928Y0296310D01*
X0319313Y0296310D01*
X0320128Y0297124D01*
X0320128Y0304876D01*
X0319313Y0305691D01*
X0312161Y0305691D01*
X0311346Y0304876D01*
X0311346Y0297124D01*
X0312111Y0296360D01*
X0311991Y0296440D01*
X0311434Y0296671D01*
X0310842Y0296788D01*
X0310540Y0296788D01*
X0310238Y0296788D01*
X0309646Y0296671D01*
X0309089Y0296440D01*
X0308587Y0296104D01*
X0308160Y0295678D01*
X0307825Y0295176D01*
X0307594Y0294618D01*
X0307476Y0294026D01*
X0307476Y0293725D01*
X0310540Y0293725D01*
X0310540Y0296788D01*
X0310540Y0293725D01*
X0310540Y0293725D01*
X0310540Y0293724D01*
X0310540Y0293724D01*
X0310540Y0290661D01*
X0310238Y0290661D01*
X0309646Y0290778D01*
X0309089Y0291009D01*
X0308587Y0291345D01*
X0308160Y0291771D01*
X0307825Y0292273D01*
X0307594Y0292831D01*
X0307476Y0293423D01*
X0307476Y0293724D01*
X0310540Y0293724D01*
X0310540Y0290661D01*
X0310842Y0290661D01*
X0311434Y0290778D01*
X0311991Y0291009D01*
X0312493Y0291345D01*
X0312920Y0291771D01*
X0313255Y0292273D01*
X0313486Y0292831D01*
X0313546Y0293134D01*
X0313546Y0288324D01*
X0313513Y0288324D01*
X0312459Y0287887D01*
X0311653Y0287081D01*
X0311217Y0286027D01*
X0311217Y0284887D01*
X0311653Y0283833D01*
X0294619Y0283833D01*
X0294589Y0283988D02*
X0294358Y0284546D01*
X0294022Y0285048D01*
X0293596Y0285474D01*
X0293094Y0285810D01*
X0292536Y0286041D01*
X0291944Y0286158D01*
X0291643Y0286158D01*
X0291643Y0283095D01*
X0294706Y0283095D01*
X0294706Y0283396D01*
X0294589Y0283988D01*
X0294706Y0283095D02*
X0291643Y0283095D01*
X0291643Y0283095D01*
X0291642Y0283095D01*
X0291642Y0283095D01*
X0288579Y0283095D01*
X0288579Y0283396D01*
X0288696Y0283988D01*
X0288927Y0284546D01*
X0289263Y0285048D01*
X0289689Y0285474D01*
X0290191Y0285810D01*
X0290749Y0286041D01*
X0291341Y0286158D01*
X0291642Y0286158D01*
X0291642Y0283095D01*
X0288579Y0283095D01*
X0288579Y0282793D01*
X0288696Y0282201D01*
X0288927Y0281643D01*
X0289263Y0281142D01*
X0289689Y0280715D01*
X0290191Y0280380D01*
X0290749Y0280149D01*
X0291341Y0280031D01*
X0291642Y0280031D01*
X0291642Y0283094D01*
X0291643Y0283094D01*
X0291643Y0280031D01*
X0291944Y0280031D01*
X0292536Y0280149D01*
X0293094Y0280380D01*
X0293596Y0280715D01*
X0294022Y0281142D01*
X0294358Y0281643D01*
X0294589Y0282201D01*
X0294706Y0282793D01*
X0294706Y0283095D01*
X0294595Y0282235D02*
X0311893Y0282235D01*
X0311893Y0283593D02*
X0311893Y0240820D01*
X0311229Y0241484D01*
X0310067Y0241965D01*
X0308809Y0241965D01*
X0307923Y0241598D01*
X0307923Y0242412D01*
X0309438Y0238803D02*
X0303800Y0238803D01*
X0303532Y0238536D01*
X0307923Y0235878D02*
X0308237Y0235878D01*
X0307543Y0234279D02*
X0311893Y0234279D01*
X0311893Y0232681D02*
X0270305Y0232681D01*
X0271904Y0231082D02*
X0311893Y0231082D01*
X0311893Y0229484D02*
X0273502Y0229484D01*
X0275101Y0227885D02*
X0311893Y0227885D01*
X0311893Y0226287D02*
X0307923Y0226287D01*
X0307923Y0224688D02*
X0311893Y0224688D01*
X0311893Y0223090D02*
X0307923Y0223090D01*
X0307923Y0221491D02*
X0311893Y0221491D01*
X0311893Y0219893D02*
X0307923Y0219893D01*
X0307557Y0218294D02*
X0311893Y0218294D01*
X0311122Y0216696D02*
X0305723Y0216696D01*
X0307226Y0215097D02*
X0309524Y0215097D01*
X0308965Y0211441D02*
X0314083Y0216559D01*
X0314083Y0285457D01*
X0315737Y0287110D01*
X0315737Y0301000D01*
X0311346Y0301417D02*
X0265017Y0301417D01*
X0265061Y0301311D02*
X0264830Y0301869D01*
X0264495Y0302370D01*
X0264068Y0302797D01*
X0263566Y0303132D01*
X0263009Y0303363D01*
X0262417Y0303481D01*
X0262115Y0303481D01*
X0262115Y0300418D01*
X0262115Y0300418D01*
X0262115Y0303481D01*
X0261813Y0303481D01*
X0261221Y0303363D01*
X0260664Y0303132D01*
X0260162Y0302797D01*
X0259735Y0302370D01*
X0259400Y0301869D01*
X0259169Y0301311D01*
X0259051Y0300719D01*
X0259051Y0300417D01*
X0259051Y0300116D01*
X0259169Y0299524D01*
X0259400Y0298966D01*
X0259735Y0298464D01*
X0260162Y0298038D01*
X0260664Y0297702D01*
X0261221Y0297471D01*
X0261813Y0297354D01*
X0262115Y0297354D01*
X0262417Y0297354D01*
X0263009Y0297471D01*
X0263566Y0297702D01*
X0264068Y0298038D01*
X0264495Y0298464D01*
X0264830Y0298966D01*
X0265061Y0299524D01*
X0265179Y0300116D01*
X0265179Y0300417D01*
X0262115Y0300417D01*
X0262115Y0297354D01*
X0262115Y0300417D01*
X0262115Y0300417D01*
X0262115Y0300417D01*
X0259051Y0300417D01*
X0262115Y0300417D01*
X0262115Y0300417D01*
X0265179Y0300417D01*
X0265179Y0300719D01*
X0265061Y0301311D01*
X0265120Y0299818D02*
X0311346Y0299818D01*
X0311346Y0298220D02*
X0264250Y0298220D01*
X0262115Y0298220D02*
X0262115Y0298220D01*
X0262115Y0299818D02*
X0262115Y0299818D01*
X0262115Y0301417D02*
X0262115Y0301417D01*
X0262115Y0303015D02*
X0262115Y0303015D01*
X0263742Y0303015D02*
X0311346Y0303015D01*
X0311346Y0304614D02*
X0142700Y0304614D01*
X0143033Y0306212D02*
X0326079Y0306212D01*
X0326079Y0304614D02*
X0320128Y0304614D01*
X0320128Y0303015D02*
X0326079Y0303015D01*
X0326079Y0301417D02*
X0320128Y0301417D01*
X0320128Y0299818D02*
X0326079Y0299818D01*
X0326079Y0298220D02*
X0320128Y0298220D01*
X0319625Y0296621D02*
X0326079Y0296621D01*
X0326079Y0295023D02*
X0317928Y0295023D01*
X0317928Y0293424D02*
X0326079Y0293424D01*
X0326079Y0291826D02*
X0317928Y0291826D01*
X0317928Y0290227D02*
X0326079Y0290227D01*
X0326079Y0288629D02*
X0317928Y0288629D01*
X0317928Y0287030D02*
X0318537Y0287030D01*
X0316950Y0285226D02*
X0316950Y0284887D01*
X0316514Y0283833D01*
X0316274Y0282235D02*
X0326079Y0282235D01*
X0326079Y0283833D02*
X0323770Y0283833D01*
X0323885Y0284006D02*
X0324116Y0284563D01*
X0324234Y0285155D01*
X0324234Y0285457D01*
X0321170Y0285457D01*
X0321170Y0285457D01*
X0321170Y0282393D01*
X0321472Y0282393D01*
X0322064Y0282511D01*
X0322621Y0282742D01*
X0323123Y0283077D01*
X0323550Y0283504D01*
X0323885Y0284006D01*
X0324234Y0285432D02*
X0326079Y0285432D01*
X0326079Y0287030D02*
X0323804Y0287030D01*
X0321170Y0287030D02*
X0321170Y0287030D01*
X0321170Y0285432D02*
X0321170Y0285432D01*
X0321170Y0283833D02*
X0321170Y0283833D01*
X0316274Y0280636D02*
X0326079Y0280636D01*
X0326079Y0279038D02*
X0316274Y0279038D01*
X0316274Y0277439D02*
X0326079Y0277439D01*
X0326079Y0275841D02*
X0316274Y0275841D01*
X0316274Y0274242D02*
X0326079Y0274242D01*
X0326079Y0272644D02*
X0316274Y0272644D01*
X0316274Y0271045D02*
X0326079Y0271045D01*
X0326079Y0269447D02*
X0316274Y0269447D01*
X0316274Y0267848D02*
X0326079Y0267848D01*
X0326079Y0266249D02*
X0316274Y0266249D01*
X0316274Y0264651D02*
X0326079Y0264651D01*
X0326079Y0263052D02*
X0316274Y0263052D01*
X0316274Y0261454D02*
X0326079Y0261454D01*
X0326079Y0259855D02*
X0316274Y0259855D01*
X0316274Y0258257D02*
X0326079Y0258257D01*
X0326079Y0256658D02*
X0316274Y0256658D01*
X0316274Y0255060D02*
X0326079Y0255060D01*
X0326079Y0253461D02*
X0316274Y0253461D01*
X0316274Y0251863D02*
X0326079Y0251863D01*
X0326079Y0250264D02*
X0316274Y0250264D01*
X0316274Y0248666D02*
X0326079Y0248666D01*
X0326079Y0247067D02*
X0316274Y0247067D01*
X0316274Y0245469D02*
X0326079Y0245469D01*
X0326079Y0243870D02*
X0316274Y0243870D01*
X0316274Y0242272D02*
X0326079Y0242272D01*
X0326079Y0240673D02*
X0316274Y0240673D01*
X0316274Y0239075D02*
X0326079Y0239075D01*
X0326079Y0237476D02*
X0316274Y0237476D01*
X0316274Y0235878D02*
X0326079Y0235878D01*
X0326079Y0234279D02*
X0316274Y0234279D01*
X0316274Y0232681D02*
X0326079Y0232681D01*
X0326079Y0231082D02*
X0316274Y0231082D01*
X0316274Y0229484D02*
X0326079Y0229484D01*
X0326079Y0227885D02*
X0316274Y0227885D01*
X0316274Y0226287D02*
X0326079Y0226287D01*
X0326079Y0224688D02*
X0316274Y0224688D01*
X0316274Y0223090D02*
X0326079Y0223090D01*
X0326079Y0221491D02*
X0316274Y0221491D01*
X0316274Y0219893D02*
X0326079Y0219893D01*
X0326079Y0218294D02*
X0316274Y0218294D01*
X0316274Y0216696D02*
X0326079Y0216696D01*
X0326079Y0215097D02*
X0315719Y0215097D01*
X0314121Y0213499D02*
X0326079Y0213499D01*
X0326079Y0211900D02*
X0312522Y0211900D01*
X0310924Y0210302D02*
X0326079Y0210302D01*
X0326079Y0208703D02*
X0321272Y0208703D01*
X0321391Y0208624D02*
X0320889Y0208959D01*
X0320331Y0209190D01*
X0319740Y0209308D01*
X0319438Y0209308D01*
X0319438Y0206244D01*
X0319438Y0206244D01*
X0322502Y0206244D01*
X0322502Y0205942D01*
X0322384Y0205351D01*
X0322153Y0204793D01*
X0321818Y0204291D01*
X0321391Y0203864D01*
X0320889Y0203529D01*
X0320331Y0203298D01*
X0319740Y0203180D01*
X0319438Y0203180D01*
X0319438Y0206244D01*
X0319438Y0206244D01*
X0322502Y0206244D01*
X0322502Y0206546D01*
X0322384Y0207138D01*
X0322153Y0207695D01*
X0321818Y0208197D01*
X0321391Y0208624D01*
X0322390Y0207105D02*
X0326079Y0207105D01*
X0326079Y0205506D02*
X0322415Y0205506D01*
X0321434Y0203908D02*
X0326079Y0203908D01*
X0326079Y0202309D02*
X0305205Y0202309D01*
X0306803Y0200711D02*
X0326079Y0200711D01*
X0326079Y0199112D02*
X0319725Y0199112D01*
X0317812Y0199112D02*
X0309725Y0199112D01*
X0312220Y0197514D02*
X0315317Y0197514D01*
X0314496Y0195915D02*
X0313041Y0195915D01*
X0313159Y0194316D02*
X0314378Y0194316D01*
X0314378Y0192718D02*
X0313159Y0192718D01*
X0313159Y0191119D02*
X0314378Y0191119D01*
X0314378Y0189521D02*
X0313159Y0189521D01*
X0313159Y0187922D02*
X0314378Y0187922D01*
X0315024Y0186324D02*
X0312513Y0186324D01*
X0323159Y0187922D02*
X0323220Y0187922D01*
X0323159Y0189521D02*
X0324381Y0189521D01*
X0325235Y0191119D02*
X0323159Y0191119D01*
X0323159Y0192718D02*
X0325754Y0192718D01*
X0326032Y0194316D02*
X0323159Y0194316D01*
X0323041Y0195915D02*
X0326079Y0195915D01*
X0326079Y0197514D02*
X0322220Y0197514D01*
X0319438Y0203180D02*
X0319136Y0203180D01*
X0318544Y0203298D01*
X0317987Y0203529D01*
X0317485Y0203864D01*
X0317058Y0204291D01*
X0316723Y0204793D01*
X0316492Y0205351D01*
X0316374Y0205942D01*
X0316374Y0206244D01*
X0319438Y0206244D01*
X0319438Y0203180D01*
X0319438Y0203908D02*
X0319438Y0203908D01*
X0319438Y0205506D02*
X0319438Y0205506D01*
X0319438Y0206244D02*
X0319438Y0206244D01*
X0319438Y0206244D01*
X0316374Y0206244D01*
X0316374Y0206546D01*
X0316492Y0207138D01*
X0316723Y0207695D01*
X0317058Y0208197D01*
X0317485Y0208624D01*
X0317987Y0208959D01*
X0318544Y0209190D01*
X0319136Y0209308D01*
X0319438Y0209308D01*
X0319438Y0206244D01*
X0319438Y0207105D02*
X0319438Y0207105D01*
X0319438Y0208703D02*
X0319438Y0208703D01*
X0317603Y0208703D02*
X0308666Y0208703D01*
X0306903Y0208703D02*
X0286296Y0208703D01*
X0286296Y0207105D02*
X0316485Y0207105D01*
X0316461Y0205506D02*
X0286296Y0205506D01*
X0286296Y0210302D02*
X0305153Y0210302D01*
X0304227Y0211900D02*
X0286296Y0211900D01*
X0286296Y0213499D02*
X0302629Y0213499D01*
X0301342Y0215097D02*
X0286296Y0215097D01*
X0286290Y0216696D02*
X0301342Y0216696D01*
X0303532Y0215693D02*
X0303532Y0222536D01*
X0299507Y0218294D02*
X0284692Y0218294D01*
X0283093Y0219893D02*
X0299142Y0219893D01*
X0299142Y0221491D02*
X0281495Y0221491D01*
X0279896Y0223090D02*
X0299142Y0223090D01*
X0299142Y0224688D02*
X0278298Y0224688D01*
X0276699Y0226287D02*
X0299142Y0226287D01*
X0299522Y0234279D02*
X0243707Y0234279D01*
X0242108Y0235878D02*
X0299142Y0235878D01*
X0299142Y0237476D02*
X0240510Y0237476D01*
X0238911Y0239075D02*
X0299142Y0239075D01*
X0299142Y0240673D02*
X0191458Y0240673D01*
X0191458Y0242272D02*
X0299142Y0242272D01*
X0292860Y0246950D02*
X0292436Y0246366D01*
X0291925Y0245855D01*
X0291341Y0245431D01*
X0290698Y0245103D01*
X0290011Y0244880D01*
X0289298Y0244767D01*
X0286137Y0244767D01*
X0286137Y0249154D01*
X0285737Y0249154D01*
X0285737Y0244767D01*
X0282576Y0244767D01*
X0281863Y0244880D01*
X0281176Y0245103D01*
X0280533Y0245431D01*
X0279949Y0245855D01*
X0279438Y0246366D01*
X0279014Y0246950D01*
X0278686Y0247593D01*
X0278463Y0248280D01*
X0278350Y0248993D01*
X0278350Y0249154D01*
X0285737Y0249154D01*
X0285737Y0249554D01*
X0278350Y0249554D01*
X0278350Y0249715D01*
X0278463Y0250429D01*
X0278686Y0251115D01*
X0279014Y0251759D01*
X0279438Y0252343D01*
X0279949Y0252853D01*
X0280533Y0253278D01*
X0281176Y0253606D01*
X0281863Y0253829D01*
X0282576Y0253942D01*
X0285737Y0253942D01*
X0285737Y0249555D01*
X0286137Y0249555D01*
X0286137Y0253942D01*
X0289298Y0253942D01*
X0290011Y0253829D01*
X0290698Y0253606D01*
X0291341Y0253278D01*
X0291925Y0252853D01*
X0292436Y0252343D01*
X0292860Y0251759D01*
X0293188Y0251115D01*
X0293411Y0250429D01*
X0293524Y0249715D01*
X0293524Y0249554D01*
X0286137Y0249554D01*
X0286137Y0249154D01*
X0293524Y0249154D01*
X0293524Y0248993D01*
X0293411Y0248280D01*
X0293188Y0247593D01*
X0292860Y0246950D01*
X0292920Y0247067D02*
X0311893Y0247067D01*
X0311893Y0245469D02*
X0291394Y0245469D01*
X0293473Y0248666D02*
X0311893Y0248666D01*
X0311893Y0250264D02*
X0293437Y0250264D01*
X0292785Y0251863D02*
X0311893Y0251863D01*
X0311893Y0253461D02*
X0290981Y0253461D01*
X0290042Y0255060D02*
X0311893Y0255060D01*
X0311893Y0256658D02*
X0292450Y0256658D01*
X0292659Y0256867D02*
X0293328Y0258481D01*
X0293328Y0260228D01*
X0292659Y0261841D01*
X0291424Y0263077D01*
X0289810Y0263745D01*
X0282064Y0263745D01*
X0280450Y0263077D01*
X0279215Y0261841D01*
X0278546Y0260228D01*
X0278546Y0258481D01*
X0279215Y0256867D01*
X0280450Y0255632D01*
X0282064Y0254964D01*
X0289810Y0254964D01*
X0291424Y0255632D01*
X0292659Y0256867D01*
X0293235Y0258257D02*
X0311893Y0258257D01*
X0311893Y0259855D02*
X0293328Y0259855D01*
X0292820Y0261454D02*
X0311893Y0261454D01*
X0311893Y0263052D02*
X0291448Y0263052D01*
X0291341Y0273732D02*
X0290749Y0273849D01*
X0290191Y0274080D01*
X0289689Y0274416D01*
X0289263Y0274842D01*
X0288927Y0275344D01*
X0288696Y0275902D01*
X0288579Y0276494D01*
X0288579Y0276795D01*
X0291642Y0276795D01*
X0291642Y0276795D01*
X0291643Y0276795D01*
X0291643Y0276795D01*
X0294706Y0276795D01*
X0294706Y0276494D01*
X0294589Y0275902D01*
X0294358Y0275344D01*
X0294022Y0274842D01*
X0293596Y0274416D01*
X0293094Y0274080D01*
X0292536Y0273849D01*
X0291944Y0273732D01*
X0291643Y0273732D01*
X0291643Y0276795D01*
X0294706Y0276795D01*
X0294706Y0277097D01*
X0294589Y0277689D01*
X0294358Y0278247D01*
X0294022Y0278748D01*
X0293596Y0279175D01*
X0293094Y0279510D01*
X0292536Y0279741D01*
X0291944Y0279859D01*
X0291643Y0279859D01*
X0291643Y0276795D01*
X0291642Y0276795D02*
X0291642Y0273732D01*
X0291341Y0273732D01*
X0291642Y0274242D02*
X0291643Y0274242D01*
X0291642Y0275841D02*
X0291643Y0275841D01*
X0291643Y0276402D02*
X0291643Y0276795D01*
X0291642Y0276795D01*
X0288579Y0276795D01*
X0288579Y0277097D01*
X0288696Y0277689D01*
X0288927Y0278247D01*
X0289263Y0278748D01*
X0289689Y0279175D01*
X0290191Y0279510D01*
X0290749Y0279741D01*
X0291341Y0279859D01*
X0291642Y0279859D01*
X0291642Y0276795D01*
X0291642Y0277439D02*
X0291643Y0277439D01*
X0291642Y0279038D02*
X0291643Y0279038D01*
X0291642Y0280636D02*
X0291643Y0280636D01*
X0291642Y0282235D02*
X0291643Y0282235D01*
X0291642Y0283833D02*
X0291643Y0283833D01*
X0291642Y0285432D02*
X0291643Y0285432D01*
X0293638Y0285432D02*
X0311217Y0285432D01*
X0311632Y0287030D02*
X0220100Y0287030D01*
X0219675Y0288629D02*
X0313546Y0288629D01*
X0313546Y0290227D02*
X0185159Y0290227D01*
X0184853Y0291826D02*
X0308124Y0291826D01*
X0307476Y0293424D02*
X0154937Y0293424D01*
X0155046Y0293315D02*
X0154619Y0293742D01*
X0154117Y0294077D01*
X0153560Y0294308D01*
X0152968Y0294426D01*
X0152666Y0294426D01*
X0152364Y0294426D01*
X0151772Y0294308D01*
X0151215Y0294077D01*
X0150713Y0293742D01*
X0150286Y0293315D01*
X0149951Y0292814D01*
X0149720Y0292256D01*
X0149602Y0291664D01*
X0149602Y0291362D01*
X0149602Y0291061D01*
X0149720Y0290469D01*
X0149951Y0289911D01*
X0150286Y0289409D01*
X0150713Y0288983D01*
X0151215Y0288647D01*
X0151772Y0288416D01*
X0152364Y0288299D01*
X0152666Y0288299D01*
X0152666Y0291362D01*
X0152666Y0291362D01*
X0149602Y0291362D01*
X0152666Y0291362D01*
X0152666Y0291362D01*
X0152666Y0288299D01*
X0152968Y0288299D01*
X0153560Y0288416D01*
X0154117Y0288647D01*
X0154619Y0288983D01*
X0155046Y0289409D01*
X0155381Y0289911D01*
X0155612Y0290469D01*
X0155730Y0291061D01*
X0155730Y0291362D01*
X0152666Y0291362D01*
X0152666Y0291362D01*
X0152666Y0294426D01*
X0152666Y0291362D01*
X0152666Y0291362D01*
X0155730Y0291362D01*
X0155730Y0291664D01*
X0155612Y0292256D01*
X0155381Y0292814D01*
X0155046Y0293315D01*
X0155698Y0291826D02*
X0170479Y0291826D01*
X0170173Y0290227D02*
X0155512Y0290227D01*
X0154073Y0288629D02*
X0171004Y0288629D01*
X0171004Y0287030D02*
X0148407Y0287030D01*
X0148641Y0285432D02*
X0171004Y0285432D01*
X0171004Y0283833D02*
X0147593Y0283833D01*
X0145746Y0282235D02*
X0171143Y0282235D01*
X0172742Y0280636D02*
X0146183Y0280636D01*
X0144551Y0283833D02*
X0135683Y0283833D01*
X0128426Y0291826D02*
X0149635Y0291826D01*
X0149820Y0290227D02*
X0126827Y0290227D01*
X0125229Y0288629D02*
X0151260Y0288629D01*
X0152666Y0288629D02*
X0152666Y0288629D01*
X0152666Y0290227D02*
X0152666Y0290227D01*
X0152666Y0291826D02*
X0152666Y0291826D01*
X0152666Y0293424D02*
X0152666Y0293424D01*
X0150395Y0293424D02*
X0130024Y0293424D01*
X0131623Y0295023D02*
X0132862Y0295023D01*
X0134950Y0295023D02*
X0134950Y0295023D01*
X0134950Y0294204D02*
X0134950Y0297268D01*
X0138013Y0297268D01*
X0134950Y0297268D01*
X0134950Y0297268D01*
X0134950Y0297268D01*
X0134950Y0294204D01*
X0137037Y0295023D02*
X0307762Y0295023D01*
X0309527Y0296621D02*
X0137945Y0296621D01*
X0137872Y0298220D02*
X0259980Y0298220D01*
X0259110Y0299818D02*
X0137594Y0299818D01*
X0138676Y0301417D02*
X0259213Y0301417D01*
X0260488Y0303015D02*
X0138490Y0303015D01*
X0138706Y0307811D02*
X0120802Y0307811D01*
X0120802Y0309409D02*
X0326079Y0309409D01*
X0326079Y0307811D02*
X0142217Y0307811D01*
X0134346Y0306212D02*
X0120802Y0306212D01*
X0120802Y0304614D02*
X0132747Y0304614D01*
X0131149Y0303015D02*
X0120802Y0303015D01*
X0120802Y0301417D02*
X0129550Y0301417D01*
X0127952Y0299818D02*
X0120802Y0299818D01*
X0121221Y0298220D02*
X0126353Y0298220D01*
X0124755Y0296621D02*
X0121281Y0296621D01*
X0121025Y0295023D02*
X0123156Y0295023D01*
X0121558Y0293424D02*
X0120802Y0293424D01*
X0134950Y0296621D02*
X0134950Y0296621D01*
X0120802Y0311008D02*
X0326079Y0311008D01*
X0326079Y0312606D02*
X0319610Y0312606D01*
X0319313Y0312310D02*
X0320128Y0313124D01*
X0320128Y0320876D01*
X0319313Y0321691D01*
X0314144Y0321691D01*
X0314038Y0321797D01*
X0312755Y0323080D01*
X0310459Y0323080D01*
X0309969Y0323571D01*
X0308807Y0324052D01*
X0307549Y0324052D01*
X0306387Y0323571D01*
X0305497Y0322681D01*
X0305016Y0321519D01*
X0305016Y0320261D01*
X0305497Y0319099D01*
X0306387Y0318209D01*
X0307549Y0317728D01*
X0308807Y0317728D01*
X0309969Y0318209D01*
X0310459Y0318699D01*
X0310940Y0318699D01*
X0311346Y0318293D01*
X0311346Y0313124D01*
X0312161Y0312310D01*
X0319313Y0312310D01*
X0320128Y0314205D02*
X0326079Y0314205D01*
X0326079Y0315803D02*
X0320128Y0315803D01*
X0320128Y0317402D02*
X0326079Y0317402D01*
X0326079Y0319000D02*
X0320128Y0319000D01*
X0320128Y0320599D02*
X0326079Y0320599D01*
X0326079Y0322197D02*
X0313638Y0322197D01*
X0311847Y0320890D02*
X0308178Y0320890D01*
X0309425Y0323796D02*
X0326079Y0323796D01*
X0326034Y0325394D02*
X0191425Y0325394D01*
X0191427Y0326993D02*
X0325761Y0326993D01*
X0325242Y0328591D02*
X0294554Y0328591D01*
X0294416Y0328386D02*
X0294751Y0328887D01*
X0294982Y0329445D01*
X0295100Y0330037D01*
X0295100Y0330339D01*
X0295100Y0330640D01*
X0294982Y0331232D01*
X0294751Y0331790D01*
X0294416Y0332292D01*
X0293989Y0332718D01*
X0293487Y0333054D01*
X0292930Y0333285D01*
X0292338Y0333402D01*
X0292036Y0333402D01*
X0291734Y0333402D01*
X0291143Y0333285D01*
X0290585Y0333054D01*
X0290083Y0332718D01*
X0289656Y0332292D01*
X0289321Y0331790D01*
X0289090Y0331232D01*
X0288972Y0330640D01*
X0288972Y0330339D01*
X0292036Y0330339D01*
X0292036Y0333402D01*
X0292036Y0330339D01*
X0292036Y0330339D01*
X0292036Y0330339D01*
X0288972Y0330339D01*
X0288972Y0330037D01*
X0289090Y0329445D01*
X0289321Y0328887D01*
X0289656Y0328386D01*
X0290083Y0327959D01*
X0290585Y0327624D01*
X0291143Y0327393D01*
X0291734Y0327275D01*
X0292036Y0327275D01*
X0292036Y0330339D01*
X0295100Y0330339D01*
X0292036Y0330339D01*
X0292036Y0330339D01*
X0292036Y0330339D01*
X0292036Y0327275D01*
X0292338Y0327275D01*
X0292930Y0327393D01*
X0293487Y0327624D01*
X0293989Y0327959D01*
X0294416Y0328386D01*
X0295100Y0330190D02*
X0324397Y0330190D01*
X0323235Y0331788D02*
X0294752Y0331788D01*
X0292036Y0331788D02*
X0292036Y0331788D01*
X0292036Y0330190D02*
X0292036Y0330190D01*
X0292036Y0328591D02*
X0292036Y0328591D01*
X0289519Y0328591D02*
X0187039Y0328591D01*
X0186639Y0328591D02*
X0181230Y0328591D01*
X0181230Y0326993D02*
X0182252Y0326993D01*
X0182253Y0325394D02*
X0181230Y0325394D01*
X0180776Y0323796D02*
X0182694Y0323796D01*
X0183944Y0322197D02*
X0179482Y0322197D01*
X0174197Y0322197D02*
X0169482Y0322197D01*
X0170776Y0323796D02*
X0172902Y0323796D01*
X0172449Y0325394D02*
X0171230Y0325394D01*
X0171230Y0326993D02*
X0172449Y0326993D01*
X0172449Y0328591D02*
X0171230Y0328591D01*
X0171230Y0330190D02*
X0172449Y0330190D01*
X0172449Y0331788D02*
X0171230Y0331788D01*
X0170919Y0333387D02*
X0172759Y0333387D01*
X0180919Y0333387D02*
X0182543Y0333387D01*
X0182252Y0331788D02*
X0181230Y0331788D01*
X0181230Y0330190D02*
X0182252Y0330190D01*
X0186639Y0326993D02*
X0187039Y0326993D01*
X0187039Y0325394D02*
X0186639Y0325394D01*
X0186639Y0323796D02*
X0187039Y0323796D01*
X0187039Y0322197D02*
X0186639Y0322197D01*
X0189735Y0322197D02*
X0196846Y0322197D01*
X0196846Y0322071D02*
X0199910Y0322071D01*
X0199910Y0322071D01*
X0196846Y0322071D01*
X0196846Y0322373D01*
X0196964Y0322965D01*
X0197195Y0323522D01*
X0197530Y0324024D01*
X0197957Y0324451D01*
X0198459Y0324786D01*
X0199017Y0325017D01*
X0199608Y0325135D01*
X0199910Y0325135D01*
X0199910Y0322071D01*
X0199910Y0322071D01*
X0199910Y0322071D01*
X0199910Y0319007D01*
X0199608Y0319007D01*
X0199017Y0319125D01*
X0198459Y0319356D01*
X0197957Y0319691D01*
X0197530Y0320118D01*
X0197195Y0320620D01*
X0196964Y0321177D01*
X0196846Y0321769D01*
X0196846Y0322071D01*
X0197209Y0320599D02*
X0137257Y0320599D01*
X0137271Y0320620D02*
X0137502Y0321177D01*
X0137620Y0321769D01*
X0137620Y0322071D01*
X0137620Y0322373D01*
X0137502Y0322965D01*
X0137271Y0323522D01*
X0136936Y0324024D01*
X0136509Y0324451D01*
X0136007Y0324786D01*
X0135450Y0325017D01*
X0134858Y0325135D01*
X0134556Y0325135D01*
X0134556Y0322071D01*
X0137620Y0322071D01*
X0134556Y0322071D01*
X0134556Y0322071D01*
X0134556Y0322071D01*
X0134556Y0319007D01*
X0134858Y0319007D01*
X0135450Y0319125D01*
X0136007Y0319356D01*
X0136509Y0319691D01*
X0136936Y0320118D01*
X0137271Y0320620D01*
X0137620Y0322197D02*
X0144197Y0322197D01*
X0142902Y0323796D02*
X0137088Y0323796D01*
X0134556Y0323796D02*
X0134556Y0323796D01*
X0134556Y0325135D02*
X0134254Y0325135D01*
X0133662Y0325017D01*
X0133105Y0324786D01*
X0132603Y0324451D01*
X0132176Y0324024D01*
X0131841Y0323522D01*
X0131610Y0322965D01*
X0131492Y0322373D01*
X0131492Y0322071D01*
X0134556Y0322071D01*
X0134556Y0322071D01*
X0134556Y0325135D01*
X0132024Y0323796D02*
X0120802Y0323796D01*
X0120802Y0325394D02*
X0142449Y0325394D01*
X0142449Y0326993D02*
X0120802Y0326993D01*
X0120802Y0328591D02*
X0142449Y0328591D01*
X0142449Y0330190D02*
X0120802Y0330190D01*
X0120802Y0331788D02*
X0142449Y0331788D01*
X0142759Y0333387D02*
X0120802Y0333387D01*
X0120802Y0322197D02*
X0131492Y0322197D01*
X0131492Y0322071D02*
X0131492Y0321769D01*
X0131610Y0321177D01*
X0131841Y0320620D01*
X0132176Y0320118D01*
X0132603Y0319691D01*
X0133105Y0319356D01*
X0133662Y0319125D01*
X0134254Y0319007D01*
X0134556Y0319007D01*
X0134556Y0322071D01*
X0134556Y0322071D01*
X0131492Y0322071D01*
X0131855Y0320599D02*
X0120802Y0320599D01*
X0120802Y0319000D02*
X0305595Y0319000D01*
X0305016Y0320599D02*
X0232533Y0320599D01*
X0232547Y0320620D02*
X0232778Y0321177D01*
X0232895Y0321769D01*
X0232895Y0322071D01*
X0232895Y0322373D01*
X0232778Y0322965D01*
X0232547Y0323522D01*
X0232211Y0324024D01*
X0231785Y0324451D01*
X0231283Y0324786D01*
X0230725Y0325017D01*
X0230133Y0325135D01*
X0229832Y0325135D01*
X0229832Y0322071D01*
X0232895Y0322071D01*
X0229832Y0322071D01*
X0229832Y0322071D01*
X0229831Y0322071D01*
X0229831Y0322071D01*
X0226768Y0322071D01*
X0226768Y0322373D01*
X0226885Y0322965D01*
X0227116Y0323522D01*
X0227452Y0324024D01*
X0227878Y0324451D01*
X0228380Y0324786D01*
X0228938Y0325017D01*
X0229530Y0325135D01*
X0229831Y0325135D01*
X0229831Y0322071D01*
X0226768Y0322071D01*
X0226768Y0321769D01*
X0226885Y0321177D01*
X0227116Y0320620D01*
X0227452Y0320118D01*
X0227878Y0319691D01*
X0228380Y0319356D01*
X0228938Y0319125D01*
X0229530Y0319007D01*
X0229831Y0319007D01*
X0229831Y0322071D01*
X0229832Y0322071D01*
X0229832Y0319007D01*
X0230133Y0319007D01*
X0230725Y0319125D01*
X0231283Y0319356D01*
X0231785Y0319691D01*
X0232211Y0320118D01*
X0232547Y0320620D01*
X0232895Y0322197D02*
X0305297Y0322197D01*
X0306931Y0323796D02*
X0232364Y0323796D01*
X0229832Y0323796D02*
X0229831Y0323796D01*
X0229438Y0322858D02*
X0229831Y0322465D01*
X0229831Y0322071D01*
X0229831Y0322197D02*
X0229832Y0322197D01*
X0229831Y0320599D02*
X0229832Y0320599D01*
X0227130Y0320599D02*
X0218753Y0320599D01*
X0218767Y0320620D02*
X0218998Y0321177D01*
X0219116Y0321769D01*
X0219116Y0322071D01*
X0219116Y0322373D01*
X0218998Y0322965D01*
X0218767Y0323522D01*
X0218432Y0324024D01*
X0218005Y0324451D01*
X0217503Y0324786D01*
X0216946Y0325017D01*
X0216354Y0325135D01*
X0216052Y0325135D01*
X0216052Y0322071D01*
X0216052Y0322465D01*
X0215658Y0322858D01*
X0216052Y0322197D02*
X0216052Y0322197D01*
X0216052Y0322071D02*
X0216052Y0325135D01*
X0215750Y0325135D01*
X0215158Y0325017D01*
X0214601Y0324786D01*
X0214099Y0324451D01*
X0213672Y0324024D01*
X0213337Y0323522D01*
X0213106Y0322965D01*
X0212988Y0322373D01*
X0212988Y0322071D01*
X0216052Y0322071D01*
X0219116Y0322071D01*
X0216052Y0322071D01*
X0216052Y0322071D01*
X0216052Y0322071D01*
X0216052Y0319007D01*
X0216354Y0319007D01*
X0216946Y0319125D01*
X0217503Y0319356D01*
X0218005Y0319691D01*
X0218432Y0320118D01*
X0218767Y0320620D01*
X0219116Y0322197D02*
X0226768Y0322197D01*
X0227299Y0323796D02*
X0218584Y0323796D01*
X0216052Y0323796D02*
X0216052Y0323796D01*
X0216052Y0322071D02*
X0216052Y0322071D01*
X0216052Y0322071D01*
X0216052Y0319007D01*
X0215750Y0319007D01*
X0215158Y0319125D01*
X0214601Y0319356D01*
X0214099Y0319691D01*
X0213672Y0320118D01*
X0213337Y0320620D01*
X0213106Y0321177D01*
X0212988Y0321769D01*
X0212988Y0322071D01*
X0216052Y0322071D01*
X0216052Y0320599D02*
X0216052Y0320599D01*
X0213351Y0320599D02*
X0202611Y0320599D01*
X0202625Y0320620D02*
X0202856Y0321177D01*
X0202974Y0321769D01*
X0202974Y0322071D01*
X0202974Y0322373D01*
X0202856Y0322965D01*
X0202625Y0323522D01*
X0202290Y0324024D01*
X0201863Y0324451D01*
X0201361Y0324786D01*
X0200804Y0325017D01*
X0200212Y0325135D01*
X0199910Y0325135D01*
X0199910Y0322071D01*
X0199910Y0319007D01*
X0200212Y0319007D01*
X0200804Y0319125D01*
X0201361Y0319356D01*
X0201863Y0319691D01*
X0202290Y0320118D01*
X0202625Y0320620D01*
X0202974Y0322071D02*
X0199910Y0322071D01*
X0202974Y0322071D01*
X0202974Y0322197D02*
X0212988Y0322197D01*
X0213520Y0323796D02*
X0202442Y0323796D01*
X0199910Y0323796D02*
X0199910Y0323796D01*
X0199910Y0322197D02*
X0199910Y0322197D01*
X0199910Y0322071D02*
X0199910Y0322071D01*
X0199910Y0320599D02*
X0199910Y0320599D01*
X0197378Y0323796D02*
X0190985Y0323796D01*
X0191427Y0330190D02*
X0288972Y0330190D01*
X0289321Y0331788D02*
X0191427Y0331788D01*
X0191135Y0333387D02*
X0291657Y0333387D01*
X0292036Y0333387D02*
X0292036Y0333387D01*
X0292416Y0333387D02*
X0321119Y0333387D01*
X0311847Y0320890D02*
X0315737Y0317000D01*
X0311346Y0317402D02*
X0120802Y0317402D01*
X0120802Y0315803D02*
X0311346Y0315803D01*
X0311346Y0314205D02*
X0120802Y0314205D01*
X0120802Y0312606D02*
X0311864Y0312606D01*
X0311849Y0296621D02*
X0311553Y0296621D01*
X0310540Y0296621D02*
X0310540Y0296621D01*
X0310540Y0295023D02*
X0310540Y0295023D01*
X0310540Y0293725D02*
X0310146Y0293331D01*
X0310540Y0293424D02*
X0310540Y0293424D01*
X0310540Y0291826D02*
X0310540Y0291826D01*
X0312956Y0291826D02*
X0313546Y0291826D01*
X0311653Y0283833D02*
X0311893Y0283593D01*
X0311893Y0280636D02*
X0293478Y0280636D01*
X0293733Y0279038D02*
X0311893Y0279038D01*
X0311893Y0277439D02*
X0294638Y0277439D01*
X0294563Y0275841D02*
X0311893Y0275841D01*
X0311893Y0274242D02*
X0293336Y0274242D01*
X0289949Y0274242D02*
X0207541Y0274242D01*
X0205943Y0272644D02*
X0311893Y0272644D01*
X0311893Y0271045D02*
X0204344Y0271045D01*
X0202746Y0269447D02*
X0311893Y0269447D01*
X0311893Y0267848D02*
X0201147Y0267848D01*
X0199549Y0266249D02*
X0214986Y0266249D01*
X0214886Y0266183D02*
X0214460Y0265756D01*
X0214124Y0265254D01*
X0213893Y0264697D01*
X0213776Y0264105D01*
X0213776Y0263803D01*
X0213776Y0263501D01*
X0213893Y0262910D01*
X0214124Y0262352D01*
X0214460Y0261850D01*
X0214886Y0261423D01*
X0215388Y0261088D01*
X0215946Y0260857D01*
X0216538Y0260739D01*
X0216839Y0260739D01*
X0216839Y0263803D01*
X0213776Y0263803D01*
X0216839Y0263803D01*
X0216839Y0263803D01*
X0216839Y0263803D01*
X0216839Y0260739D01*
X0217141Y0260739D01*
X0217733Y0260857D01*
X0218291Y0261088D01*
X0218792Y0261423D01*
X0219219Y0261850D01*
X0219554Y0262352D01*
X0219785Y0262910D01*
X0219903Y0263501D01*
X0219903Y0263803D01*
X0216839Y0263803D01*
X0216839Y0266867D01*
X0216538Y0266867D01*
X0215946Y0266749D01*
X0215388Y0266518D01*
X0214886Y0266183D01*
X0213884Y0264651D02*
X0197950Y0264651D01*
X0196797Y0263052D02*
X0213865Y0263052D01*
X0214856Y0261454D02*
X0195710Y0261454D01*
X0197120Y0259855D02*
X0278546Y0259855D01*
X0278639Y0258257D02*
X0197167Y0258257D01*
X0197167Y0256658D02*
X0279424Y0256658D01*
X0281832Y0255060D02*
X0197095Y0255060D01*
X0193598Y0255060D02*
X0193230Y0255060D01*
X0193230Y0256658D02*
X0193598Y0256658D01*
X0190698Y0253461D02*
X0280893Y0253461D01*
X0279089Y0251863D02*
X0191655Y0251863D01*
X0191655Y0250264D02*
X0278437Y0250264D01*
X0278401Y0248666D02*
X0198415Y0248666D01*
X0196761Y0248666D02*
X0196761Y0248666D01*
X0196761Y0247067D02*
X0196761Y0247067D01*
X0196761Y0245469D02*
X0196761Y0245469D01*
X0199762Y0245469D02*
X0280480Y0245469D01*
X0278954Y0247067D02*
X0199671Y0247067D01*
X0195106Y0248666D02*
X0191655Y0248666D01*
X0191552Y0247067D02*
X0193851Y0247067D01*
X0193760Y0245469D02*
X0191458Y0245469D01*
X0188283Y0250264D02*
X0187915Y0250264D01*
X0187915Y0251863D02*
X0188283Y0251863D01*
X0188283Y0253461D02*
X0187915Y0253461D01*
X0185501Y0253461D02*
X0182581Y0253461D01*
X0183344Y0251863D02*
X0184543Y0251863D01*
X0181043Y0251863D02*
X0180983Y0251863D01*
X0182194Y0249236D02*
X0182194Y0249039D01*
X0186721Y0257504D02*
X0193020Y0263803D01*
X0194005Y0263803D01*
X0217233Y0287032D01*
X0214791Y0288629D02*
X0184328Y0288629D01*
X0184328Y0287030D02*
X0214134Y0287030D01*
X0212535Y0285432D02*
X0184328Y0285432D01*
X0184328Y0283833D02*
X0210937Y0283833D01*
X0209338Y0282235D02*
X0184328Y0282235D01*
X0184328Y0280636D02*
X0207740Y0280636D01*
X0206141Y0279038D02*
X0184328Y0279038D01*
X0184328Y0277439D02*
X0204543Y0277439D01*
X0202944Y0275841D02*
X0184328Y0275841D01*
X0184328Y0274242D02*
X0201346Y0274242D01*
X0199747Y0272644D02*
X0187052Y0272644D01*
X0186131Y0272644D02*
X0186131Y0272644D01*
X0185210Y0272644D02*
X0184328Y0272644D01*
X0186131Y0271045D02*
X0186131Y0271045D01*
X0186131Y0269709D02*
X0186131Y0266645D01*
X0186131Y0269709D01*
X0186131Y0269709D01*
X0186131Y0269447D02*
X0186131Y0269447D01*
X0186131Y0267848D02*
X0186131Y0267848D01*
X0184328Y0266249D02*
X0192419Y0266249D01*
X0190770Y0264651D02*
X0184328Y0264651D01*
X0184328Y0263052D02*
X0189172Y0263052D01*
X0187573Y0261454D02*
X0184328Y0261454D01*
X0188572Y0267848D02*
X0194952Y0267848D01*
X0196550Y0269447D02*
X0189194Y0269447D01*
X0188893Y0271045D02*
X0198149Y0271045D01*
X0209140Y0275841D02*
X0288722Y0275841D01*
X0288647Y0277439D02*
X0210738Y0277439D01*
X0212337Y0279038D02*
X0289552Y0279038D01*
X0289807Y0280636D02*
X0213935Y0280636D01*
X0215534Y0282235D02*
X0288690Y0282235D01*
X0288666Y0283833D02*
X0217132Y0283833D01*
X0219673Y0285432D02*
X0289647Y0285432D01*
X0280426Y0263052D02*
X0219814Y0263052D01*
X0219903Y0263803D02*
X0219903Y0264105D01*
X0219785Y0264697D01*
X0219554Y0265254D01*
X0219219Y0265756D01*
X0218792Y0266183D01*
X0218291Y0266518D01*
X0217733Y0266749D01*
X0217141Y0266867D01*
X0216839Y0266867D01*
X0216839Y0263803D01*
X0216839Y0263803D01*
X0216839Y0263803D01*
X0219903Y0263803D01*
X0219795Y0264651D02*
X0311893Y0264651D01*
X0311893Y0266249D02*
X0218693Y0266249D01*
X0216839Y0266249D02*
X0216839Y0266249D01*
X0216839Y0264651D02*
X0216839Y0264651D01*
X0216839Y0263052D02*
X0216839Y0263052D01*
X0216839Y0261454D02*
X0216839Y0261454D01*
X0218823Y0261454D02*
X0279054Y0261454D01*
X0285737Y0253461D02*
X0286137Y0253461D01*
X0286137Y0251863D02*
X0285737Y0251863D01*
X0285737Y0250264D02*
X0286137Y0250264D01*
X0286137Y0248666D02*
X0285737Y0248666D01*
X0285737Y0247067D02*
X0286137Y0247067D01*
X0286137Y0245469D02*
X0285737Y0245469D01*
X0309438Y0238803D02*
X0309517Y0238803D01*
X0310638Y0235878D02*
X0311893Y0235878D01*
X0303532Y0215693D02*
X0307784Y0211441D01*
X0308965Y0211441D01*
X0303606Y0203908D02*
X0317442Y0203908D01*
X0277028Y0203908D02*
X0259078Y0203908D01*
X0257480Y0205506D02*
X0277028Y0205506D01*
X0277028Y0207105D02*
X0255881Y0207105D01*
X0252742Y0208703D02*
X0277028Y0208703D01*
X0276541Y0210302D02*
X0243383Y0210302D01*
X0243383Y0208703D02*
X0249441Y0208703D01*
X0248520Y0207105D02*
X0243383Y0207105D01*
X0243383Y0205506D02*
X0246029Y0205506D01*
X0245764Y0203908D02*
X0242082Y0203908D01*
X0240484Y0202309D02*
X0246744Y0202309D01*
X0247694Y0199230D02*
X0247008Y0199007D01*
X0246364Y0198679D01*
X0245780Y0198255D01*
X0245269Y0197744D01*
X0244845Y0197160D01*
X0244517Y0196517D01*
X0244294Y0195830D01*
X0244181Y0195117D01*
X0244181Y0191956D01*
X0248568Y0191956D01*
X0248568Y0199343D01*
X0248407Y0199343D01*
X0247694Y0199230D01*
X0247330Y0199112D02*
X0237287Y0199112D01*
X0238776Y0197514D02*
X0245102Y0197514D01*
X0244322Y0195915D02*
X0238899Y0195915D01*
X0238899Y0194316D02*
X0244181Y0194316D01*
X0244181Y0192718D02*
X0238899Y0192718D01*
X0238340Y0191119D02*
X0244181Y0191119D01*
X0244181Y0189521D02*
X0238702Y0189521D01*
X0238702Y0187922D02*
X0244256Y0187922D01*
X0244865Y0186324D02*
X0238702Y0186324D01*
X0235343Y0188016D02*
X0233591Y0189768D01*
X0224171Y0189768D01*
X0224151Y0189787D01*
X0216052Y0189787D01*
X0213863Y0187922D02*
X0211273Y0187922D01*
X0211458Y0189521D02*
X0213185Y0189521D01*
X0213501Y0191119D02*
X0211447Y0191119D01*
X0211155Y0192718D02*
X0218586Y0192718D01*
X0218283Y0194316D02*
X0211458Y0194316D01*
X0211458Y0195915D02*
X0218283Y0195915D01*
X0219059Y0197514D02*
X0210961Y0197514D01*
X0211458Y0199112D02*
X0218480Y0199112D01*
X0218480Y0200711D02*
X0211458Y0200711D01*
X0210692Y0202309D02*
X0219263Y0202309D01*
X0218480Y0203908D02*
X0211458Y0203908D01*
X0211458Y0205506D02*
X0218480Y0205506D01*
X0219141Y0207105D02*
X0210879Y0207105D01*
X0200450Y0202309D02*
X0192935Y0202309D01*
X0192383Y0203908D02*
X0199683Y0203908D01*
X0198323Y0215097D02*
X0186787Y0215097D01*
X0189883Y0218294D02*
X0190252Y0218294D01*
X0190252Y0219893D02*
X0189883Y0219893D01*
X0195579Y0227885D02*
X0195580Y0227885D01*
X0195579Y0229484D02*
X0195580Y0229484D01*
X0221725Y0229484D02*
X0233349Y0229484D01*
X0232772Y0231082D02*
X0222167Y0231082D01*
X0221677Y0232681D02*
X0233261Y0232681D01*
X0232772Y0234279D02*
X0222167Y0234279D01*
X0221630Y0235878D02*
X0233309Y0235878D01*
X0232772Y0237476D02*
X0222167Y0237476D01*
X0221859Y0239075D02*
X0233080Y0239075D01*
X0241241Y0227885D02*
X0222167Y0227885D01*
X0221542Y0226287D02*
X0242839Y0226287D01*
X0237991Y0221491D02*
X0265351Y0221491D01*
X0266950Y0219893D02*
X0239052Y0219893D01*
X0239052Y0218294D02*
X0268548Y0218294D01*
X0270147Y0216696D02*
X0239052Y0216696D01*
X0239052Y0215097D02*
X0239693Y0215097D01*
X0239071Y0213499D02*
X0239052Y0213499D01*
X0239052Y0211900D02*
X0239515Y0211900D01*
X0239902Y0210302D02*
X0239052Y0210302D01*
X0239052Y0208703D02*
X0239902Y0208703D01*
X0239902Y0207105D02*
X0239052Y0207105D01*
X0238758Y0205506D02*
X0238563Y0205506D01*
X0237159Y0203908D02*
X0236964Y0203908D01*
X0235561Y0202309D02*
X0229079Y0202309D01*
X0229283Y0197514D02*
X0231911Y0197514D01*
X0231787Y0195915D02*
X0230058Y0195915D01*
X0230058Y0194316D02*
X0231787Y0194316D01*
X0231787Y0192718D02*
X0229755Y0192718D01*
X0231984Y0186324D02*
X0186646Y0186324D01*
X0186576Y0197514D02*
X0185724Y0197514D01*
X0185968Y0203908D02*
X0186375Y0203908D01*
X0178933Y0199112D02*
X0178922Y0199112D01*
X0176682Y0199112D02*
X0176682Y0199112D01*
X0176682Y0198141D02*
X0176682Y0201205D01*
X0176682Y0201205D01*
X0176682Y0198141D01*
X0176682Y0200711D02*
X0176682Y0200711D01*
X0176682Y0202309D02*
X0176682Y0202309D01*
X0172108Y0207105D02*
X0171020Y0207105D01*
X0158481Y0207105D02*
X0151003Y0207105D01*
X0151104Y0206323D02*
X0148336Y0206323D01*
X0148336Y0206323D01*
X0151104Y0206323D01*
X0150994Y0205506D02*
X0158067Y0205506D01*
X0158507Y0203908D02*
X0157058Y0203908D01*
X0148335Y0205506D02*
X0148335Y0205506D01*
X0148335Y0207105D02*
X0148335Y0207105D01*
X0133645Y0207105D02*
X0132989Y0207105D01*
X0130619Y0207105D02*
X0130619Y0207105D01*
X0130619Y0205506D02*
X0130619Y0205506D01*
X0130619Y0205142D02*
X0130619Y0205142D01*
X0094005Y0231082D02*
X0094005Y0231082D01*
X0094005Y0232681D02*
X0094005Y0232681D01*
X0094005Y0240673D02*
X0094005Y0240673D01*
X0094005Y0242272D02*
X0094005Y0242272D01*
X0094005Y0243870D02*
X0094005Y0243870D01*
X0094005Y0245469D02*
X0094005Y0245469D01*
X0094005Y0247067D02*
X0094005Y0247067D01*
X0094005Y0248666D02*
X0094005Y0248666D01*
X0110356Y0250264D02*
X0110724Y0250264D01*
X0163112Y0256658D02*
X0163480Y0256658D01*
X0163480Y0258257D02*
X0163112Y0258257D01*
X0162902Y0264591D02*
X0164831Y0264591D01*
X0169989Y0259433D01*
X0173898Y0277439D02*
X0174548Y0277439D01*
X0174340Y0279038D02*
X0171336Y0279038D01*
X0164197Y0322197D02*
X0159482Y0322197D01*
X0160776Y0323796D02*
X0162902Y0323796D01*
X0162449Y0325394D02*
X0161230Y0325394D01*
X0161230Y0326993D02*
X0162449Y0326993D01*
X0162449Y0328591D02*
X0161230Y0328591D01*
X0161230Y0330190D02*
X0162449Y0330190D01*
X0162449Y0331788D02*
X0161230Y0331788D01*
X0160919Y0333387D02*
X0162759Y0333387D01*
X0152759Y0333387D02*
X0150919Y0333387D01*
X0151230Y0331788D02*
X0152449Y0331788D01*
X0152449Y0330190D02*
X0151230Y0330190D01*
X0151230Y0328591D02*
X0152449Y0328591D01*
X0152449Y0326993D02*
X0151230Y0326993D01*
X0151230Y0325394D02*
X0152449Y0325394D01*
X0152902Y0323796D02*
X0150776Y0323796D01*
X0149482Y0322197D02*
X0154197Y0322197D01*
X0134556Y0322197D02*
X0134556Y0322197D01*
X0134556Y0320599D02*
X0134556Y0320599D01*
X0243592Y0215097D02*
X0271745Y0215097D01*
X0273344Y0213499D02*
X0244214Y0213499D01*
X0243770Y0211900D02*
X0274942Y0211900D01*
X0277028Y0202309D02*
X0260677Y0202309D01*
X0262275Y0200711D02*
X0277028Y0200711D01*
X0277028Y0199112D02*
X0269725Y0199112D01*
X0267812Y0199112D02*
X0263874Y0199112D01*
X0272220Y0197514D02*
X0275317Y0197514D01*
X0274496Y0195915D02*
X0273041Y0195915D01*
X0273159Y0194316D02*
X0274378Y0194316D01*
X0274378Y0192718D02*
X0273159Y0192718D01*
X0273159Y0191119D02*
X0274378Y0191119D01*
X0274378Y0189521D02*
X0273159Y0189521D01*
X0273159Y0187922D02*
X0274378Y0187922D01*
X0275024Y0186324D02*
X0272513Y0186324D01*
X0255024Y0186324D02*
X0252672Y0186324D01*
X0253281Y0187922D02*
X0254378Y0187922D01*
X0254378Y0189521D02*
X0253356Y0189521D01*
X0253356Y0191119D02*
X0254378Y0191119D01*
X0254378Y0192718D02*
X0253356Y0192718D01*
X0253356Y0194316D02*
X0254378Y0194316D01*
X0254496Y0195915D02*
X0253215Y0195915D01*
X0252435Y0197514D02*
X0254290Y0197514D01*
X0252691Y0199112D02*
X0250207Y0199112D01*
X0248969Y0199112D02*
X0248568Y0199112D01*
X0248568Y0197514D02*
X0248969Y0197514D01*
X0248969Y0195915D02*
X0248568Y0195915D01*
X0248568Y0194316D02*
X0248969Y0194316D01*
X0248969Y0192718D02*
X0248568Y0192718D01*
X0251093Y0200711D02*
X0238885Y0200711D01*
X0235238Y0207105D02*
X0229201Y0207105D01*
X0235571Y0208703D02*
X0221183Y0208703D01*
X0221183Y0210302D02*
X0235571Y0210302D01*
X0235571Y0211900D02*
X0221183Y0211900D01*
X0253075Y0171937D02*
X0254675Y0171937D01*
X0254378Y0170339D02*
X0253356Y0170339D01*
X0253356Y0168740D02*
X0254378Y0168740D01*
X0254378Y0167142D02*
X0253356Y0167142D01*
X0253356Y0165543D02*
X0254378Y0165543D01*
X0254378Y0163945D02*
X0253349Y0163945D01*
X0252898Y0162346D02*
X0254845Y0162346D01*
X0256158Y0160748D02*
X0251620Y0160748D01*
X0248969Y0160748D02*
X0248568Y0160748D01*
X0248568Y0162346D02*
X0248969Y0162346D01*
X0248969Y0163945D02*
X0248568Y0163945D01*
X0248568Y0165543D02*
X0248969Y0165543D01*
X0248969Y0167142D02*
X0248568Y0167142D01*
X0222779Y0141566D02*
X0141609Y0141566D01*
X0141006Y0142169D02*
X0139120Y0142950D01*
X0137079Y0142950D01*
X0135193Y0142169D01*
X0133750Y0140725D01*
X0132969Y0138840D01*
X0132969Y0136798D01*
X0133750Y0134913D01*
X0135193Y0133469D01*
X0137079Y0132688D01*
X0139120Y0132688D01*
X0141006Y0133469D01*
X0142449Y0134913D01*
X0143230Y0136798D01*
X0143230Y0138840D01*
X0142449Y0140725D01*
X0141006Y0142169D01*
X0142763Y0139967D02*
X0221625Y0139967D01*
X0221157Y0138369D02*
X0182633Y0138369D01*
X0179786Y0138369D02*
X0153106Y0138369D01*
X0150258Y0138369D02*
X0143230Y0138369D01*
X0143218Y0136770D02*
X0147334Y0136770D01*
X0145987Y0135172D02*
X0142556Y0135172D01*
X0141109Y0133573D02*
X0145324Y0133573D01*
X0145173Y0131975D02*
X0134351Y0131975D01*
X0134048Y0133573D02*
X0135089Y0133573D01*
X0133775Y0134768D02*
X0133775Y0134768D01*
X0133642Y0135172D02*
X0133453Y0135172D01*
X0132980Y0136770D02*
X0132178Y0136770D01*
X0132969Y0138369D02*
X0097561Y0138369D01*
X0097561Y0138840D02*
X0096780Y0140725D01*
X0095336Y0142169D01*
X0093450Y0142950D01*
X0091409Y0142950D01*
X0089524Y0142169D01*
X0088080Y0140725D01*
X0087299Y0138840D01*
X0087299Y0136798D01*
X0088080Y0134913D01*
X0089524Y0133469D01*
X0091409Y0132688D01*
X0093450Y0132688D01*
X0095336Y0133469D01*
X0096780Y0134913D01*
X0097561Y0136798D01*
X0097561Y0138840D01*
X0097094Y0139967D02*
X0133436Y0139967D01*
X0134590Y0141566D02*
X0095939Y0141566D01*
X0097549Y0136770D02*
X0098351Y0136770D01*
X0097076Y0135172D02*
X0096887Y0135172D01*
X0096754Y0134768D02*
X0096754Y0134768D01*
X0096481Y0133573D02*
X0095440Y0133573D01*
X0096148Y0132110D02*
X0096148Y0132110D01*
X0096179Y0131975D02*
X0070887Y0131975D01*
X0070887Y0130376D02*
X0096543Y0130376D01*
X0094117Y0128778D02*
X0070887Y0128778D01*
X0070887Y0127179D02*
X0093979Y0127179D01*
X0093977Y0125580D02*
X0070887Y0125580D01*
X0070887Y0123982D02*
X0093975Y0123982D01*
X0093973Y0122383D02*
X0070887Y0122383D01*
X0070887Y0120785D02*
X0093971Y0120785D01*
X0093969Y0119186D02*
X0070887Y0119186D01*
X0070887Y0117588D02*
X0093967Y0117588D01*
X0093965Y0115989D02*
X0070887Y0115989D01*
X0070887Y0114391D02*
X0093963Y0114391D01*
X0093961Y0112792D02*
X0070887Y0112792D01*
X0070887Y0111194D02*
X0093959Y0111194D01*
X0093957Y0109595D02*
X0070887Y0109595D01*
X0070887Y0107997D02*
X0093955Y0107997D01*
X0093953Y0106398D02*
X0070887Y0106398D01*
X0070887Y0104800D02*
X0093951Y0104800D01*
X0093949Y0103201D02*
X0070887Y0103201D01*
X0070887Y0101603D02*
X0093948Y0101603D01*
X0093946Y0100004D02*
X0070887Y0100004D01*
X0070887Y0098406D02*
X0093944Y0098406D01*
X0093942Y0096807D02*
X0085087Y0096807D01*
X0086545Y0095209D02*
X0093940Y0095209D01*
X0086906Y0090413D02*
X0086766Y0090413D01*
X0086906Y0088815D02*
X0085623Y0088815D01*
X0085112Y0087216D02*
X0070887Y0087216D01*
X0070887Y0085618D02*
X0083657Y0085618D01*
X0083657Y0084019D02*
X0070887Y0084019D01*
X0072757Y0082421D02*
X0074307Y0082421D01*
X0074307Y0080822D02*
X0072757Y0080822D01*
X0074307Y0079224D02*
X0080016Y0079224D01*
X0080016Y0080822D02*
X0078269Y0080822D01*
X0078269Y0082421D02*
X0080016Y0082421D01*
X0080016Y0077625D02*
X0078269Y0077625D01*
X0078269Y0076027D02*
X0080016Y0076027D01*
X0080232Y0074428D02*
X0078057Y0074428D01*
X0074307Y0074428D02*
X0072757Y0074428D01*
X0072757Y0076027D02*
X0074307Y0076027D01*
X0074307Y0077625D02*
X0072757Y0077625D01*
X0070887Y0072830D02*
X0082870Y0072830D01*
X0083405Y0071231D02*
X0070887Y0071231D01*
X0070887Y0069633D02*
X0084445Y0069633D01*
X0084445Y0068034D02*
X0071537Y0068034D01*
X0071771Y0066436D02*
X0084445Y0066436D01*
X0084445Y0064837D02*
X0070723Y0064837D01*
X0069620Y0063239D02*
X0084445Y0063239D01*
X0084445Y0061640D02*
X0068196Y0061640D01*
X0068025Y0060042D02*
X0085146Y0060042D01*
X0086906Y0058443D02*
X0067102Y0058443D01*
X0067443Y0056845D02*
X0087619Y0056845D01*
X0088287Y0055959D02*
X0086480Y0055211D01*
X0085097Y0053828D01*
X0084851Y0053234D01*
X0082718Y0053234D01*
X0082718Y0055245D01*
X0081904Y0056060D01*
X0073665Y0056060D01*
X0072850Y0055245D01*
X0072850Y0047794D01*
X0073665Y0046980D01*
X0081904Y0046980D01*
X0082718Y0047794D01*
X0082718Y0048853D01*
X0084851Y0048853D01*
X0085097Y0048259D01*
X0086480Y0046876D01*
X0088287Y0046128D01*
X0090242Y0046128D01*
X0092049Y0046876D01*
X0093432Y0048259D01*
X0094180Y0050066D01*
X0094180Y0052021D01*
X0093432Y0053828D01*
X0092049Y0055211D01*
X0090242Y0055959D01*
X0088287Y0055959D01*
X0086566Y0055246D02*
X0082717Y0055246D01*
X0082718Y0053647D02*
X0085023Y0053647D01*
X0084852Y0048852D02*
X0082718Y0048852D01*
X0082177Y0047253D02*
X0086103Y0047253D01*
X0082598Y0044620D02*
X0082302Y0044916D01*
X0081940Y0045125D01*
X0081537Y0045233D01*
X0078559Y0045233D01*
X0078559Y0041271D01*
X0077009Y0041271D01*
X0077009Y0039721D01*
X0072654Y0039721D01*
X0072654Y0037138D01*
X0072762Y0036734D01*
X0072971Y0036372D01*
X0073266Y0036076D01*
X0073628Y0035867D01*
X0074032Y0035759D01*
X0077009Y0035759D01*
X0077009Y0039721D01*
X0078559Y0039721D01*
X0078559Y0035759D01*
X0081537Y0035759D01*
X0081940Y0035867D01*
X0082302Y0036076D01*
X0082598Y0036372D01*
X0082807Y0036734D01*
X0082915Y0037138D01*
X0082915Y0039721D01*
X0078559Y0039721D01*
X0078559Y0041271D01*
X0082915Y0041271D01*
X0082915Y0043855D01*
X0082807Y0044258D01*
X0082598Y0044620D01*
X0082861Y0044056D02*
X0120423Y0044056D01*
X0120611Y0042458D02*
X0082915Y0042458D01*
X0082915Y0039261D02*
X0095286Y0039261D01*
X0095227Y0039172D02*
X0094996Y0038614D01*
X0094878Y0038022D01*
X0094878Y0037721D01*
X0097942Y0037721D01*
X0097942Y0037721D01*
X0097942Y0040784D01*
X0098243Y0040784D01*
X0098835Y0040667D01*
X0099393Y0040436D01*
X0099895Y0040100D01*
X0100322Y0039674D01*
X0100657Y0039172D01*
X0100888Y0038614D01*
X0101005Y0038022D01*
X0101005Y0037721D01*
X0097942Y0037721D01*
X0097942Y0037720D01*
X0097942Y0034657D01*
X0098243Y0034657D01*
X0098835Y0034775D01*
X0099393Y0035005D01*
X0099895Y0035341D01*
X0100322Y0035768D01*
X0100657Y0036269D01*
X0100888Y0036827D01*
X0101005Y0037419D01*
X0101005Y0037720D01*
X0097942Y0037720D01*
X0097942Y0037720D01*
X0097942Y0034657D01*
X0097640Y0034657D01*
X0097048Y0034775D01*
X0096490Y0035005D01*
X0095989Y0035341D01*
X0095562Y0035768D01*
X0095227Y0036269D01*
X0094996Y0036827D01*
X0094878Y0037419D01*
X0094878Y0037720D01*
X0097942Y0037720D01*
X0097942Y0037721D01*
X0097942Y0040784D01*
X0097640Y0040784D01*
X0097048Y0040667D01*
X0096490Y0040436D01*
X0095989Y0040100D01*
X0095562Y0039674D01*
X0095227Y0039172D01*
X0094878Y0037662D02*
X0082915Y0037662D01*
X0082281Y0036064D02*
X0095364Y0036064D01*
X0097942Y0036064D02*
X0097942Y0036064D01*
X0097942Y0037662D02*
X0097942Y0037662D01*
X0097942Y0039261D02*
X0097942Y0039261D01*
X0100597Y0039261D02*
X0121597Y0039261D01*
X0120611Y0040859D02*
X0078559Y0040859D01*
X0077009Y0040859D02*
X0046183Y0040859D01*
X0046183Y0039261D02*
X0072654Y0039261D01*
X0072654Y0037662D02*
X0046183Y0037662D01*
X0046183Y0036064D02*
X0073288Y0036064D01*
X0077009Y0036064D02*
X0078559Y0036064D01*
X0078559Y0037662D02*
X0077009Y0037662D01*
X0077009Y0039261D02*
X0078559Y0039261D01*
X0077009Y0041271D02*
X0072654Y0041271D01*
X0072654Y0043855D01*
X0072762Y0044258D01*
X0072971Y0044620D01*
X0073266Y0044916D01*
X0073628Y0045125D01*
X0074032Y0045233D01*
X0077009Y0045233D01*
X0077009Y0041271D01*
X0077009Y0042458D02*
X0078559Y0042458D01*
X0078559Y0044056D02*
X0077009Y0044056D01*
X0072708Y0044056D02*
X0046183Y0044056D01*
X0046183Y0042458D02*
X0072654Y0042458D01*
X0073391Y0047253D02*
X0046183Y0047253D01*
X0046183Y0045655D02*
X0119677Y0045655D01*
X0119677Y0047253D02*
X0092426Y0047253D01*
X0093677Y0048852D02*
X0119677Y0048852D01*
X0119677Y0050450D02*
X0094180Y0050450D01*
X0094169Y0052049D02*
X0119677Y0052049D01*
X0120882Y0053647D02*
X0093506Y0053647D01*
X0091964Y0055246D02*
X0120579Y0055246D01*
X0119780Y0056845D02*
X0099603Y0056845D01*
X0100317Y0058443D02*
X0120120Y0058443D01*
X0124583Y0058443D02*
X0124646Y0058443D01*
X0124777Y0060042D02*
X0103257Y0060042D01*
X0094312Y0056845D02*
X0092910Y0056845D01*
X0089265Y0051043D02*
X0078261Y0051043D01*
X0077784Y0051520D01*
X0072850Y0052049D02*
X0046183Y0052049D01*
X0046183Y0053647D02*
X0072850Y0053647D01*
X0072851Y0055246D02*
X0066643Y0055246D01*
X0063098Y0055246D02*
X0046183Y0055246D01*
X0046183Y0056845D02*
X0062299Y0056845D01*
X0061077Y0058443D02*
X0046183Y0058443D01*
X0046183Y0060042D02*
X0060374Y0060042D01*
X0060374Y0061640D02*
X0046183Y0061640D01*
X0046183Y0063239D02*
X0060374Y0063239D01*
X0060374Y0064837D02*
X0046183Y0064837D01*
X0046183Y0066436D02*
X0060374Y0066436D01*
X0060374Y0068034D02*
X0046183Y0068034D01*
X0046183Y0069633D02*
X0060374Y0069633D01*
X0060374Y0071231D02*
X0046183Y0071231D01*
X0046183Y0072830D02*
X0060374Y0072830D01*
X0060374Y0074428D02*
X0046183Y0074428D01*
X0046183Y0076027D02*
X0060374Y0076027D01*
X0060374Y0077625D02*
X0046183Y0077625D01*
X0046183Y0079224D02*
X0060374Y0079224D01*
X0060374Y0080822D02*
X0046183Y0080822D01*
X0046183Y0082421D02*
X0060374Y0082421D01*
X0060374Y0084019D02*
X0046183Y0084019D01*
X0046183Y0085618D02*
X0060374Y0085618D01*
X0060374Y0087216D02*
X0046183Y0087216D01*
X0046183Y0088815D02*
X0060374Y0088815D01*
X0060374Y0090413D02*
X0046183Y0090413D01*
X0046183Y0092012D02*
X0060374Y0092012D01*
X0060374Y0093610D02*
X0058457Y0093610D01*
X0059542Y0095209D02*
X0060374Y0095209D01*
X0060374Y0096807D02*
X0052473Y0096807D01*
X0052472Y0095209D02*
X0052072Y0095209D01*
X0052072Y0093610D02*
X0052472Y0093610D01*
X0052472Y0098406D02*
X0052072Y0098406D01*
X0052072Y0100004D02*
X0052472Y0100004D01*
X0057769Y0103201D02*
X0060374Y0103201D01*
X0060374Y0101603D02*
X0046183Y0101603D01*
X0046183Y0103201D02*
X0046775Y0103201D01*
X0046183Y0111194D02*
X0048133Y0111194D01*
X0047749Y0112792D02*
X0046183Y0112792D01*
X0046183Y0120785D02*
X0047146Y0120785D01*
X0046183Y0122383D02*
X0060374Y0122383D01*
X0060374Y0120785D02*
X0057399Y0120785D01*
X0059083Y0119186D02*
X0060374Y0119186D01*
X0060374Y0117588D02*
X0059663Y0117588D01*
X0059642Y0115989D02*
X0060374Y0115989D01*
X0060374Y0114391D02*
X0058959Y0114391D01*
X0060374Y0112792D02*
X0056796Y0112792D01*
X0056412Y0111194D02*
X0060374Y0111194D01*
X0060374Y0109595D02*
X0058800Y0109595D01*
X0059576Y0107997D02*
X0060374Y0107997D01*
X0060374Y0106398D02*
X0059663Y0106398D01*
X0059149Y0104800D02*
X0060374Y0104800D01*
X0060374Y0100004D02*
X0058669Y0100004D01*
X0059611Y0098406D02*
X0060374Y0098406D01*
X0070887Y0096807D02*
X0079103Y0096807D01*
X0077646Y0095209D02*
X0070887Y0095209D01*
X0070887Y0093610D02*
X0076984Y0093610D01*
X0076965Y0092012D02*
X0070887Y0092012D01*
X0070887Y0090413D02*
X0077424Y0090413D01*
X0078568Y0088815D02*
X0070887Y0088815D01*
X0060374Y0123982D02*
X0058550Y0123982D01*
X0070942Y0133573D02*
X0089420Y0133573D01*
X0087973Y0135172D02*
X0070570Y0135172D01*
X0068972Y0136770D02*
X0087311Y0136770D01*
X0087299Y0138369D02*
X0067373Y0138369D01*
X0065775Y0139967D02*
X0087766Y0139967D01*
X0088921Y0141566D02*
X0064176Y0141566D01*
X0075104Y0173536D02*
X0076383Y0173536D01*
X0077965Y0173536D02*
X0079041Y0173536D01*
X0080622Y0173536D02*
X0081698Y0173536D01*
X0083280Y0173536D02*
X0084559Y0173536D01*
X0084466Y0184725D02*
X0083410Y0184725D01*
X0081568Y0184725D02*
X0080753Y0184725D01*
X0078910Y0184725D02*
X0078095Y0184725D01*
X0076253Y0184725D02*
X0075197Y0184725D01*
X0133986Y0130376D02*
X0145274Y0130376D01*
X0145936Y0128778D02*
X0144285Y0128778D01*
X0144424Y0127179D02*
X0147212Y0127179D01*
X0156152Y0127179D02*
X0176739Y0127179D01*
X0175463Y0128778D02*
X0157428Y0128778D01*
X0158090Y0130376D02*
X0174801Y0130376D01*
X0174701Y0131975D02*
X0158191Y0131975D01*
X0158039Y0133573D02*
X0174852Y0133573D01*
X0175514Y0135172D02*
X0157377Y0135172D01*
X0156030Y0136770D02*
X0176861Y0136770D01*
X0185557Y0136770D02*
X0221169Y0136770D01*
X0221831Y0135172D02*
X0186905Y0135172D01*
X0187618Y0130376D02*
X0230402Y0130376D01*
X0178034Y0115989D02*
X0154858Y0115989D01*
X0155369Y0115778D02*
X0152977Y0116769D01*
X0150387Y0116769D01*
X0147995Y0115778D01*
X0146164Y0113947D01*
X0145173Y0111555D01*
X0145173Y0108965D01*
X0146164Y0106573D01*
X0147995Y0104742D01*
X0150387Y0103751D01*
X0152977Y0103751D01*
X0155369Y0104742D01*
X0157200Y0106573D01*
X0158191Y0108965D01*
X0158191Y0111555D01*
X0157200Y0113947D01*
X0155369Y0115778D01*
X0156756Y0114391D02*
X0176136Y0114391D01*
X0175214Y0112792D02*
X0157678Y0112792D01*
X0158191Y0111194D02*
X0174701Y0111194D01*
X0174701Y0109595D02*
X0158191Y0109595D01*
X0157789Y0107997D02*
X0175102Y0107997D01*
X0175866Y0106398D02*
X0157025Y0106398D01*
X0155426Y0104800D02*
X0177465Y0104800D01*
X0147937Y0104800D02*
X0144641Y0104800D01*
X0144424Y0106398D02*
X0146339Y0106398D01*
X0145574Y0107997D02*
X0144424Y0107997D01*
X0144424Y0109595D02*
X0145173Y0109595D01*
X0145173Y0111194D02*
X0144424Y0111194D01*
X0144424Y0112792D02*
X0145686Y0112792D01*
X0146608Y0114391D02*
X0144424Y0114391D01*
X0144424Y0115989D02*
X0148506Y0115989D01*
X0167096Y0061640D02*
X0194233Y0061640D01*
X0194518Y0060042D02*
X0159308Y0060042D01*
X0159308Y0058443D02*
X0196116Y0058443D01*
X0198008Y0056845D02*
X0159308Y0056845D01*
X0159308Y0055246D02*
X0165924Y0055246D01*
X0152483Y0059571D02*
X0152483Y0048712D01*
X0152568Y0048628D01*
X0147534Y0042458D02*
X0134308Y0042458D01*
X0134713Y0044056D02*
X0135423Y0044056D01*
X0139713Y0044056D02*
X0140423Y0044056D01*
X0144713Y0044056D02*
X0145423Y0044056D01*
X0127991Y0032867D02*
X0046232Y0032867D01*
X0046183Y0034465D02*
X0126393Y0034465D01*
X0124794Y0036064D02*
X0100520Y0036064D01*
X0101005Y0037662D02*
X0123196Y0037662D01*
X0127568Y0048628D02*
X0127568Y0058999D01*
X0127483Y0059084D01*
X0125377Y0056845D02*
X0124923Y0056845D01*
X0125377Y0055246D02*
X0124254Y0055246D01*
X0124254Y0053647D02*
X0125377Y0053647D01*
X0072850Y0050450D02*
X0046183Y0050450D01*
X0046183Y0048852D02*
X0072850Y0048852D01*
X0178802Y0040859D02*
X0180365Y0040859D01*
X0222863Y0040063D02*
X0223123Y0040323D01*
X0223123Y0051043D01*
X0226284Y0047253D02*
X0235268Y0047253D01*
X0235268Y0045655D02*
X0225313Y0045655D01*
X0227403Y0044056D02*
X0236013Y0044056D01*
X0236413Y0042458D02*
X0227403Y0042458D01*
X0227403Y0040859D02*
X0237399Y0040859D01*
X0236879Y0039261D02*
X0236879Y0039261D01*
X0236879Y0037662D02*
X0236879Y0037662D01*
X0236879Y0036064D02*
X0236879Y0036064D01*
X0239672Y0036064D02*
X0242195Y0036064D01*
X0240596Y0037662D02*
X0239936Y0037662D01*
X0234486Y0039261D02*
X0227403Y0039261D01*
X0227403Y0037662D02*
X0233822Y0037662D01*
X0234086Y0036064D02*
X0227403Y0036064D01*
X0227536Y0048852D02*
X0235268Y0048852D01*
X0235268Y0050450D02*
X0228038Y0050450D01*
X0228027Y0052049D02*
X0235268Y0052049D01*
X0236359Y0053647D02*
X0227365Y0053647D01*
X0225822Y0055246D02*
X0236359Y0055246D01*
X0236359Y0058443D02*
X0220634Y0058443D01*
X0289285Y0104800D02*
X0298563Y0104800D01*
X0298563Y0106398D02*
X0290883Y0106398D01*
X0291648Y0107997D02*
X0298563Y0107997D01*
X0298563Y0109595D02*
X0292049Y0109595D01*
X0292049Y0111194D02*
X0298563Y0111194D01*
X0298563Y0112792D02*
X0291536Y0112792D01*
X0290614Y0114391D02*
X0294505Y0114391D01*
X0293795Y0115989D02*
X0288716Y0115989D01*
X0298229Y0114391D02*
X0298563Y0114391D01*
X0308486Y0127179D02*
X0310598Y0127179D01*
X0309322Y0128778D02*
X0308486Y0128778D01*
X0308486Y0130376D02*
X0308660Y0130376D01*
X0308559Y0131975D02*
X0308486Y0131975D01*
X0308486Y0133573D02*
X0308710Y0133573D01*
X0308486Y0135172D02*
X0309372Y0135172D01*
X0308486Y0136770D02*
X0310720Y0136770D01*
X0318243Y0115989D02*
X0326079Y0115989D01*
X0326079Y0114391D02*
X0320141Y0114391D01*
X0321064Y0112792D02*
X0326079Y0112792D01*
X0326079Y0111194D02*
X0321576Y0111194D01*
X0321576Y0109595D02*
X0326079Y0109595D01*
X0326079Y0107997D02*
X0321175Y0107997D01*
X0320411Y0106398D02*
X0326079Y0106398D01*
X0326079Y0104800D02*
X0318812Y0104800D01*
X0304061Y0044056D02*
X0303693Y0044056D01*
X0303693Y0042458D02*
X0304061Y0042458D01*
X0304061Y0040859D02*
X0303693Y0040859D01*
X0300321Y0040859D02*
X0299090Y0040859D01*
X0299090Y0039261D02*
X0300321Y0039261D01*
X0300321Y0037662D02*
X0299090Y0037662D01*
X0299090Y0036064D02*
X0300868Y0036064D01*
X0300518Y0034465D02*
X0297471Y0034465D01*
X0298808Y0032867D02*
X0300518Y0032867D01*
X0293001Y0026473D02*
X0291738Y0026473D01*
D25*
X0277863Y0067740D03*
X0273139Y0070890D03*
X0263296Y0073646D03*
X0247942Y0067740D03*
X0238099Y0074039D03*
X0242798Y0091677D03*
X0248298Y0095677D03*
X0256898Y0095477D03*
X0263098Y0095277D03*
X0273098Y0091577D03*
X0292745Y0073646D03*
X0285343Y0070890D03*
X0300304Y0094512D03*
X0296367Y0116165D03*
X0266446Y0123646D03*
X0261721Y0119709D03*
X0251485Y0116165D03*
X0246761Y0120496D03*
X0228257Y0119709D03*
X0228257Y0122858D03*
X0228257Y0126795D03*
X0228257Y0116165D03*
X0295186Y0148449D03*
X0248335Y0204354D03*
X0251091Y0206717D03*
X0241643Y0213410D03*
X0235343Y0221677D03*
X0235343Y0231126D03*
X0235343Y0234276D03*
X0235343Y0237819D03*
X0219595Y0237819D03*
X0219595Y0234276D03*
X0219595Y0231126D03*
X0219595Y0227976D03*
X0213769Y0226323D03*
X0183020Y0224709D03*
X0177076Y0217740D03*
X0177076Y0213803D03*
X0173139Y0204748D03*
X0169989Y0204748D03*
X0168414Y0189394D03*
X0173926Y0187819D03*
X0148335Y0206323D03*
X0165658Y0227976D03*
X0168808Y0225221D03*
X0172351Y0225221D03*
X0162509Y0231126D03*
X0160146Y0234276D03*
X0158965Y0240575D03*
X0162509Y0240575D03*
X0165658Y0240575D03*
X0168808Y0240575D03*
X0172351Y0240575D03*
X0175501Y0240575D03*
X0178650Y0240575D03*
X0164477Y0248055D03*
X0161328Y0248055D03*
X0157784Y0248055D03*
X0155894Y0245772D03*
X0146328Y0251087D03*
X0142430Y0251205D03*
X0129438Y0265772D03*
X0124320Y0265772D03*
X0119595Y0265772D03*
X0114871Y0265772D03*
X0106524Y0265772D03*
X0106524Y0262543D03*
X0113296Y0274453D03*
X0113257Y0277445D03*
X0134162Y0280949D03*
X0134162Y0285949D03*
X0143611Y0280732D03*
X0146072Y0285949D03*
X0136131Y0301992D03*
X0140461Y0305929D03*
X0172745Y0290575D03*
X0176288Y0290575D03*
X0179438Y0290575D03*
X0182587Y0290575D03*
X0172935Y0275055D03*
X0171740Y0272169D03*
X0170482Y0268902D03*
X0168039Y0265791D03*
X0158178Y0265772D03*
X0114477Y0242937D03*
X0114871Y0229551D03*
X0094005Y0231520D03*
X0094005Y0242150D03*
X0094005Y0247268D03*
X0077469Y0244276D03*
X0075327Y0239331D03*
X0068414Y0241323D03*
X0066052Y0251441D03*
X0062115Y0269315D03*
X0094005Y0215772D03*
X0094005Y0212622D03*
X0077938Y0210067D03*
X0075206Y0212327D03*
X0068414Y0197543D03*
X0068414Y0194394D03*
X0068414Y0191244D03*
X0068414Y0188095D03*
X0134950Y0100811D03*
X0128053Y0090234D03*
X0122627Y0094748D03*
X0147548Y0068921D03*
X0156997Y0066165D03*
X0156997Y0087425D03*
X0132587Y0063016D03*
X0122351Y0057110D03*
X0069202Y0066953D03*
X0067233Y0064197D03*
X0065658Y0061047D03*
X0064871Y0057110D03*
X0247548Y0227976D03*
D26*
X0265265Y0227976D01*
X0280619Y0212622D01*
X0280619Y0199906D01*
X0288769Y0191756D01*
X0298769Y0191756D02*
X0298769Y0196441D01*
X0294398Y0200811D01*
X0284556Y0200811D01*
X0282587Y0202780D01*
X0282587Y0214591D01*
X0266839Y0230339D01*
X0243217Y0230339D01*
X0239280Y0234276D01*
X0235343Y0234276D01*
X0235343Y0231126D02*
X0240461Y0231126D01*
X0247154Y0224433D01*
X0264871Y0224433D01*
X0278769Y0210536D01*
X0278769Y0191756D01*
X0268769Y0191756D02*
X0253808Y0206717D01*
X0251091Y0206717D01*
X0249910Y0204354D02*
X0258769Y0195496D01*
X0258769Y0191756D01*
X0249910Y0204354D02*
X0248335Y0204354D01*
X0241643Y0205929D02*
X0241643Y0213410D01*
X0237312Y0219709D02*
X0237312Y0206717D01*
X0235363Y0204768D01*
X0224171Y0204768D01*
X0224171Y0199768D02*
X0235481Y0199768D01*
X0241643Y0205929D01*
X0237312Y0219709D02*
X0235343Y0221677D01*
X0243217Y0232307D02*
X0268217Y0232307D01*
X0284556Y0215969D01*
X0284556Y0204748D01*
X0286524Y0202780D01*
X0302272Y0202780D01*
X0308769Y0196284D01*
X0308769Y0191756D01*
X0288769Y0167347D02*
X0288769Y0163134D01*
X0296367Y0155536D01*
X0301091Y0155536D01*
X0303454Y0153173D01*
X0303454Y0093331D01*
X0277863Y0067740D01*
X0268158Y0077937D02*
X0266898Y0076677D01*
X0244498Y0076677D01*
X0225698Y0076677D01*
X0221839Y0072819D01*
X0221367Y0077583D02*
X0217627Y0077583D01*
X0216446Y0076402D01*
X0216446Y0072662D01*
X0215658Y0069315D02*
X0211721Y0069315D01*
X0211328Y0069709D01*
X0211328Y0072662D01*
X0211721Y0069315D02*
X0206997Y0069315D01*
X0206209Y0068528D01*
X0206209Y0065969D01*
X0201091Y0065969D02*
X0201091Y0068134D01*
X0199910Y0069315D01*
X0195973Y0069315D01*
X0195973Y0072662D01*
X0195973Y0069315D02*
X0192036Y0069315D01*
X0190855Y0068134D01*
X0190855Y0065969D01*
X0195973Y0065969D02*
X0195973Y0061047D01*
X0197154Y0059866D01*
X0202706Y0059866D01*
X0202942Y0060102D01*
X0208965Y0060102D01*
X0210383Y0060102D01*
X0219831Y0060102D01*
X0221839Y0062110D01*
X0221839Y0066126D01*
X0216446Y0065969D02*
X0216446Y0068528D01*
X0215658Y0069315D01*
X0211328Y0065969D02*
X0211328Y0061047D01*
X0210383Y0060102D01*
X0206209Y0072662D02*
X0206209Y0074827D01*
X0210540Y0079158D01*
X0218414Y0079158D01*
X0225501Y0086244D01*
X0225501Y0117740D01*
X0227469Y0119709D01*
X0228257Y0119709D01*
X0228257Y0122858D02*
X0223926Y0118528D01*
X0223926Y0111835D01*
X0209359Y0097268D01*
X0209359Y0080929D01*
X0205619Y0077189D01*
X0202666Y0077189D01*
X0201091Y0075614D01*
X0201091Y0072662D01*
X0204241Y0079551D02*
X0206603Y0081913D01*
X0206603Y0098449D01*
X0221564Y0113410D01*
X0221564Y0120102D01*
X0228257Y0126795D01*
X0228257Y0116165D02*
X0228257Y0084473D01*
X0221367Y0077583D01*
X0238099Y0074039D02*
X0238099Y0050262D01*
X0238158Y0050203D01*
X0247942Y0050419D02*
X0248158Y0050203D01*
X0248158Y0048628D01*
X0247942Y0050419D02*
X0247942Y0067740D01*
X0244498Y0076677D02*
X0243198Y0077977D01*
X0243198Y0082088D01*
X0243158Y0082128D01*
X0243198Y0082088D02*
X0243198Y0083663D01*
X0238158Y0082128D02*
X0238158Y0090517D01*
X0237398Y0091277D01*
X0237398Y0110068D01*
X0236623Y0110843D01*
X0246623Y0110843D02*
X0246761Y0110981D01*
X0246761Y0120496D01*
X0251485Y0116165D02*
X0251485Y0100981D01*
X0251623Y0100843D01*
X0248298Y0095677D02*
X0248158Y0095537D01*
X0248158Y0082128D01*
X0242798Y0091677D02*
X0242798Y0099668D01*
X0241623Y0100843D01*
X0256898Y0095477D02*
X0256898Y0110568D01*
X0256623Y0110843D01*
X0266446Y0111021D02*
X0266623Y0110843D01*
X0266446Y0111021D02*
X0266446Y0123646D01*
X0261721Y0119709D02*
X0261721Y0100942D01*
X0261623Y0100843D01*
X0263098Y0095277D02*
X0263158Y0095217D01*
X0263158Y0082128D01*
X0268158Y0082128D02*
X0268158Y0077937D01*
X0273158Y0082128D02*
X0273158Y0091517D01*
X0273098Y0091577D01*
X0263296Y0073646D02*
X0263296Y0048766D01*
X0263158Y0048628D02*
X0263158Y0044717D01*
X0264398Y0043477D01*
X0288991Y0046627D02*
X0289023Y0046595D01*
X0295716Y0046595D02*
X0295716Y0054891D01*
X0295831Y0055006D01*
X0298802Y0052035D01*
X0303877Y0052035D01*
X0289138Y0055006D02*
X0288958Y0054827D01*
X0288880Y0038327D02*
X0289038Y0038169D01*
X0295731Y0038169D02*
X0295731Y0029873D01*
X0295716Y0029858D01*
X0300763Y0029858D01*
X0303877Y0032973D01*
X0289023Y0029858D02*
X0288954Y0029927D01*
X0292745Y0073646D02*
X0292911Y0073646D01*
X0300304Y0094512D02*
X0300304Y0151599D01*
X0298335Y0153567D01*
X0288493Y0153567D01*
X0278769Y0163291D01*
X0278769Y0167347D01*
X0268769Y0167347D02*
X0268769Y0156953D01*
X0268808Y0156913D01*
X0258965Y0156913D02*
X0258769Y0157110D01*
X0258769Y0167347D01*
X0258965Y0150221D02*
X0258965Y0148055D01*
X0292430Y0144118D02*
X0296367Y0140181D01*
X0296367Y0116165D01*
X0204241Y0079551D02*
X0192036Y0079551D01*
X0190855Y0078370D01*
X0190855Y0072662D01*
X0180796Y0052874D02*
X0175976Y0052874D01*
X0175976Y0044134D01*
X0169283Y0044134D02*
X0169220Y0044071D01*
X0148383Y0044071D01*
X0147548Y0044906D01*
X0147548Y0048608D01*
X0147548Y0068921D01*
X0156997Y0066165D02*
X0157568Y0065595D01*
X0157568Y0053173D01*
X0157961Y0052780D01*
X0169189Y0052780D01*
X0169283Y0052874D01*
X0180796Y0052874D02*
X0183920Y0049750D01*
X0175976Y0035709D02*
X0175976Y0027143D01*
X0179091Y0030258D01*
X0183984Y0030258D01*
X0177691Y0028858D02*
X0175976Y0027143D01*
X0169283Y0027143D02*
X0169211Y0027071D01*
X0136249Y0027071D01*
X0122351Y0040969D01*
X0122351Y0048412D01*
X0122568Y0048628D01*
X0122568Y0056894D02*
X0122351Y0057110D01*
X0132587Y0063016D02*
X0132587Y0048648D01*
X0132568Y0048628D01*
X0132568Y0033356D01*
X0135979Y0029945D01*
X0163520Y0029945D01*
X0169283Y0035709D01*
X0157568Y0048628D02*
X0157568Y0053173D01*
X0147568Y0048628D02*
X0147548Y0048608D01*
X0157568Y0082128D02*
X0157568Y0086854D01*
X0156997Y0087425D01*
X0132587Y0087425D02*
X0132587Y0082148D01*
X0132568Y0082128D01*
X0132587Y0087425D02*
X0129779Y0090234D01*
X0128053Y0090234D01*
X0122627Y0094748D02*
X0122568Y0094689D01*
X0122568Y0082128D01*
X0103847Y0081913D02*
X0103847Y0101992D01*
X0106603Y0104748D01*
X0126669Y0104748D01*
X0132765Y0110843D01*
X0112765Y0110843D02*
X0110336Y0110843D01*
X0101879Y0102386D01*
X0101879Y0092937D01*
X0067233Y0064197D02*
X0066446Y0064984D01*
X0066446Y0132740D01*
X0052272Y0146913D01*
X0060146Y0149039D02*
X0060146Y0143134D01*
X0069202Y0134079D01*
X0064083Y0128370D02*
X0055540Y0136913D01*
X0052272Y0136913D01*
X0052272Y0126913D02*
X0061209Y0126913D01*
X0062115Y0126008D01*
X0062115Y0059866D01*
X0064871Y0057110D01*
X0065658Y0061047D02*
X0064083Y0062622D01*
X0064083Y0128370D01*
X0060146Y0149039D02*
X0052272Y0156913D01*
X0069871Y0187032D02*
X0068808Y0188095D01*
X0068414Y0188095D01*
X0069871Y0187032D02*
X0173139Y0187032D01*
X0173926Y0187819D01*
X0168414Y0189394D02*
X0168020Y0189000D01*
X0071052Y0189000D01*
X0068808Y0191244D01*
X0068414Y0191244D01*
X0068414Y0194394D02*
X0071839Y0190969D01*
X0164477Y0190969D01*
X0173139Y0199630D01*
X0173139Y0204748D01*
X0169989Y0204748D02*
X0169989Y0200024D01*
X0162902Y0192937D01*
X0073020Y0192937D01*
X0068414Y0197543D01*
X0094005Y0212622D02*
X0094989Y0211638D01*
X0101091Y0211638D01*
X0110540Y0229354D02*
X0110737Y0229551D01*
X0114871Y0229551D01*
X0114477Y0242937D02*
X0110737Y0242937D01*
X0110540Y0243134D01*
X0108746Y0280949D02*
X0134162Y0280949D01*
X0143611Y0280949D01*
X0143611Y0280732D01*
X0143395Y0280949D01*
X0146072Y0285949D02*
X0134162Y0285949D01*
X0098746Y0285949D01*
X0096662Y0283866D01*
X0075894Y0288606D02*
X0122745Y0288606D01*
X0136131Y0301992D01*
X0136524Y0305929D02*
X0140461Y0305929D01*
X0136524Y0305929D02*
X0120776Y0290181D01*
X0072978Y0290181D01*
X0066662Y0283866D01*
X0071662Y0284374D02*
X0071662Y0273866D01*
X0062115Y0269315D02*
X0062115Y0291362D01*
X0098902Y0328149D01*
X0099061Y0328149D01*
X0075894Y0288606D02*
X0071662Y0284374D01*
X0066052Y0251441D02*
X0052312Y0251441D01*
X0052272Y0251402D01*
X0052272Y0241402D02*
X0052351Y0241323D01*
X0068414Y0241323D01*
X0155894Y0245772D02*
X0156603Y0245063D01*
X0156603Y0238213D01*
X0156997Y0237819D01*
X0219595Y0237819D01*
X0217627Y0236244D02*
X0219595Y0234276D01*
X0217627Y0236244D02*
X0162115Y0236244D01*
X0160146Y0234276D01*
X0162509Y0231126D02*
X0165658Y0234276D01*
X0216446Y0234276D01*
X0219595Y0231126D01*
X0219595Y0227976D02*
X0214871Y0232701D01*
X0170383Y0232701D01*
X0165658Y0227976D01*
X0168808Y0225221D02*
X0168808Y0222071D01*
X0177076Y0213803D01*
X0183060Y0216362D02*
X0183060Y0224669D01*
X0183020Y0224709D01*
X0177076Y0217740D02*
X0172351Y0222465D01*
X0172351Y0225221D01*
X0183060Y0216362D02*
X0186288Y0213134D01*
X0202666Y0213134D01*
X0202706Y0213173D01*
X0202706Y0220536D01*
X0209989Y0220536D01*
X0216721Y0213134D02*
X0216839Y0213134D01*
X0237706Y0237819D02*
X0243217Y0232307D01*
X0237706Y0237819D02*
X0235343Y0237819D01*
X0182587Y0255929D02*
X0174320Y0247662D01*
X0174320Y0244906D01*
X0178650Y0240575D01*
X0175501Y0240575D02*
X0172351Y0243725D01*
X0172351Y0248843D01*
X0180225Y0256717D01*
X0180225Y0283488D01*
X0179438Y0284276D01*
X0179438Y0290575D01*
X0182587Y0290575D02*
X0182587Y0255929D01*
X0178257Y0257898D02*
X0178257Y0281520D01*
X0176288Y0283488D01*
X0176288Y0290575D01*
X0172745Y0290575D02*
X0172745Y0283095D01*
X0176288Y0279551D01*
X0176288Y0259866D01*
X0168808Y0252386D01*
X0168808Y0240575D01*
X0170383Y0242543D02*
X0172351Y0240575D01*
X0170383Y0242543D02*
X0170383Y0250024D01*
X0178257Y0257898D01*
X0164477Y0248055D02*
X0164477Y0241756D01*
X0165658Y0240575D01*
X0162509Y0240575D02*
X0162509Y0246874D01*
X0161328Y0248055D01*
X0160540Y0245299D02*
X0160540Y0242150D01*
X0158965Y0240575D01*
X0160540Y0245299D02*
X0157784Y0248055D01*
D27*
X0168039Y0265791D02*
X0168039Y0266099D01*
X0163918Y0270221D01*
X0115627Y0270221D01*
X0107950Y0262543D01*
X0106524Y0262543D01*
X0106524Y0265772D02*
X0109508Y0265772D01*
X0115138Y0271402D01*
X0168344Y0271402D01*
X0170482Y0269264D01*
X0170482Y0268902D01*
X0171740Y0272169D02*
X0167665Y0276244D01*
X0115087Y0276244D01*
X0113296Y0274453D01*
X0113276Y0277425D02*
X0170564Y0277425D01*
X0172935Y0275055D01*
X0113276Y0277425D02*
X0113257Y0277445D01*
X0108746Y0280949D02*
X0101662Y0273866D01*
X0077469Y0244276D02*
X0077108Y0244276D01*
X0069076Y0236244D01*
X0055422Y0236244D01*
X0052272Y0233095D01*
X0052272Y0231402D01*
X0052272Y0221402D02*
X0057360Y0221402D01*
X0071942Y0235984D01*
X0071980Y0235984D01*
X0075327Y0239331D01*
X0075206Y0212327D02*
X0074123Y0211244D01*
X0052430Y0211244D01*
X0052272Y0211402D01*
X0060934Y0210063D02*
X0077935Y0210063D01*
X0077938Y0210067D01*
X0060934Y0210063D02*
X0052272Y0201402D01*
X0069202Y0134079D02*
X0069202Y0066953D01*
X0084556Y0072465D02*
X0086131Y0070890D01*
X0086131Y0061441D01*
X0087272Y0060299D01*
X0090265Y0060299D01*
X0090265Y0065772D02*
X0092824Y0065772D01*
X0093611Y0066559D01*
X0093611Y0070890D01*
X0096957Y0070890D01*
X0093611Y0070890D02*
X0093611Y0075221D01*
X0092824Y0076008D01*
X0090265Y0076008D01*
X0090265Y0070890D02*
X0086131Y0070890D01*
X0084556Y0072465D02*
X0084556Y0078764D01*
X0085343Y0079551D01*
X0085343Y0085063D01*
X0086524Y0086244D01*
X0090265Y0086244D01*
X0093611Y0086244D02*
X0093611Y0081913D01*
X0092824Y0081126D01*
X0090265Y0081126D01*
X0093611Y0086244D02*
X0096957Y0086244D01*
X0097154Y0086244D01*
X0093611Y0086244D02*
X0093611Y0090575D01*
X0092824Y0091362D01*
X0090265Y0091362D01*
X0096957Y0091362D02*
X0100304Y0091362D01*
X0101879Y0092937D01*
X0106209Y0089288D02*
X0106209Y0077189D01*
X0105028Y0076008D01*
X0096957Y0076008D01*
X0096957Y0081126D02*
X0103060Y0081126D01*
X0103847Y0081913D01*
X0107784Y0088213D02*
X0107784Y0070102D01*
X0103454Y0065772D01*
X0096957Y0065772D01*
X0096957Y0060299D02*
X0101131Y0060299D01*
X0116839Y0076008D01*
X0125894Y0076008D01*
X0127568Y0077681D01*
X0127568Y0082128D01*
X0125894Y0076008D02*
X0149910Y0076008D01*
X0152568Y0078665D01*
X0152568Y0082128D01*
X0147568Y0082128D02*
X0147568Y0085831D01*
X0134950Y0098449D01*
X0134950Y0100811D01*
X0127765Y0100843D02*
X0124189Y0097268D01*
X0116839Y0097268D01*
X0107784Y0088213D01*
X0106209Y0089288D02*
X0117765Y0100843D01*
X0122568Y0056894D02*
X0122568Y0048628D01*
X0238099Y0048569D02*
X0238099Y0042543D01*
X0244398Y0036244D01*
X0276682Y0036244D01*
X0282999Y0029927D01*
X0288954Y0029927D01*
X0289038Y0038169D02*
X0288994Y0038213D01*
X0251091Y0038213D01*
X0248158Y0041146D01*
X0248158Y0048628D01*
X0238158Y0048628D02*
X0238099Y0048569D01*
X0238158Y0048628D02*
X0238158Y0050203D01*
X0263158Y0048628D02*
X0263296Y0048766D01*
X0264398Y0043477D02*
X0280687Y0043477D01*
X0283808Y0046599D01*
X0289020Y0046599D01*
X0289023Y0046595D01*
X0281507Y0048943D02*
X0287570Y0055006D01*
X0289138Y0055006D01*
X0281507Y0048943D02*
X0273473Y0048943D01*
X0273158Y0048628D01*
X0273473Y0048943D02*
X0273473Y0070555D01*
X0273139Y0070890D01*
X0285343Y0070890D02*
X0286288Y0070890D01*
X0291564Y0076165D01*
X0293760Y0076165D01*
X0305619Y0088024D01*
X0305619Y0153961D01*
X0298769Y0160811D01*
X0298769Y0167347D01*
X0306800Y0165378D02*
X0308769Y0167347D01*
X0306800Y0165378D02*
X0306800Y0086944D01*
X0293501Y0073646D01*
X0292911Y0073646D01*
X0292430Y0144118D02*
X0290461Y0146087D01*
X0260934Y0146087D01*
X0258965Y0148055D01*
X0268808Y0150221D02*
X0293414Y0150221D01*
X0295186Y0148449D01*
D28*
X0309438Y0238803D03*
X0308178Y0320890D03*
M02*
