%
M48
M72
T01C0.01378
T02C0.01969
T03C0.02362
T04C0.03200
T05C0.03543
T06C0.04000
T07C0.04700
T08C0.06299
T09C0.06693
T10C0.09449
T11C0.12992
%
T01
X64871Y57110
X65658Y61047
X67233Y64197
X69202Y66953
X122351Y57110
X132587Y63016
X147548Y68921
X156997Y66165
X156997Y87425
X134950Y100811
X128053Y90234
X122627Y94748
X173926Y187819
X168414Y189394
X169989Y204748
X173139Y204748
X177076Y213803
X177076Y217740
X172351Y225221
X168808Y225221
X165658Y227976
X162509Y231126
X160146Y234276
X158965Y240575
X162509Y240575
X165658Y240575
X168808Y240575
X172351Y240575
X175501Y240575
X178650Y240575
X164477Y248055
X161328Y248055
X157784Y248055
X155894Y245772
X146328Y251087
X142430Y251205
X129438Y265772
X124320Y265772
X119595Y265772
X114871Y265772
X106524Y265772
X106524Y262543
X113296Y274453
X113257Y277445
X134162Y280949
X134162Y285949
X143611Y280732
X146072Y285949
X136131Y301992
X140461Y305929
X172745Y290575
X176288Y290575
X179438Y290575
X182587Y290575
X172935Y275055
X171740Y272169
X170482Y268902
X168039Y265791
X158178Y265772
X183020Y224709
X213769Y226323
X219595Y227976
X219595Y231126
X219595Y234276
X219595Y237819
X235343Y237819
X235343Y234276
X235343Y231126
X235343Y221677
X241643Y213410
X248335Y204354
X251091Y206717
X247548Y227976
X295186Y148449
X266446Y123646
X261721Y119709
X251485Y116165
X246761Y120496
X228257Y119709
X228257Y122858
X228257Y126795
X228257Y116165
X248298Y95677
X242798Y91677
X256898Y95477
X263098Y95277
X273098Y91577
X263296Y73646
X273139Y70890
X277863Y67740
X285343Y70890
X292745Y73646
X300304Y94512
X296367Y116165
X247942Y67740
X238099Y74039
X148335Y206323
X114871Y229551
X114477Y242937
X94005Y242150
X94005Y247268
X77469Y244276
X75327Y239331
X68414Y241323
X66052Y251441
X62115Y269315
X94005Y231520
X94005Y215772
X94005Y212622
X77938Y210067
X75206Y212327
X68414Y197543
X68414Y194394
X68414Y191244
X68414Y188095
T02
X77174Y182110
X79831Y182110
X82489Y182110
X82489Y176205
X79831Y176205
X77174Y176205
X130619Y205142
X135737Y205142
X160934Y205536
X176682Y201205
X184162Y187819
X216052Y189787
X195580Y229945
X196761Y246087
X182194Y249236
X178257Y246087
X179438Y229551
X146367Y246087
X124320Y249236
X105028Y258291
X148729Y267268
X162902Y264591
X186131Y269709
X194005Y263803
X216839Y263803
X217233Y287032
X216052Y322071
X229831Y322071
X199910Y322071
X152666Y291362
X134950Y297268
X134556Y322071
X262115Y300417
X291643Y283095
X291643Y276795
X314083Y285457
X321170Y285457
X310540Y293725
X292036Y330339
X307784Y211441
X319438Y206244
X295087Y182110
X292430Y182110
X289772Y182110
X289772Y176205
X292430Y176205
X295087Y176205
X316052Y120890
X268198Y56377
X243098Y56377
X236879Y37327
X152483Y59571
X127483Y59084
X97942Y37721
X181406Y120890
T03
X309438Y238803
X308178Y320890
T04
X266623Y110843
X256623Y110843
X246623Y110843
X236623Y110843
X241623Y100843
X231623Y100843
X251623Y100843
X261623Y100843
X132765Y110843
X122765Y110843
X112765Y110843
X102765Y110843
X107765Y100843
X117765Y100843
X127765Y100843
X97765Y100843
T05
X101662Y273866
X91662Y273866
X81662Y273866
X71662Y273866
X66662Y283866
X76662Y283866
X86662Y283866
X96662Y283866
X109069Y322167
X99061Y328149
X69258Y322165
X59266Y328151
T06
X52272Y261402
X52272Y251402
X52272Y241402
X52272Y231402
X52272Y221402
X52272Y211402
X52272Y201402
X52272Y191402
X52272Y166913
X52272Y156913
X52272Y146913
X52272Y136913
X52272Y126913
X52272Y116913
X52272Y106913
X52272Y96913
X248769Y167347
X258769Y167347
X268769Y167347
X278769Y167347
X288769Y167347
X298769Y167347
X308769Y167347
X318769Y167347
X318769Y191756
X308769Y191756
X298769Y191756
X288769Y191756
X278769Y191756
X268769Y191756
X258769Y191756
X248769Y191756
X285937Y249354
X285937Y259354
X186839Y328764
X176839Y328764
X166839Y328764
X156839Y328764
X146839Y328764
T07
X89265Y51043
X223123Y51043
T08
X115166Y296858
X53158Y296858
T09
X92430Y137819
X138099Y137819
X148434Y92543
X82095Y92543
X215954Y92543
X226288Y137819
X271957Y137819
X282292Y92543
T10
X285540Y110260
X285540Y131913
X315068Y131913
X315068Y110260
X181209Y110260
X181209Y131913
X151682Y131913
X151682Y110260
T11
X106662Y308866
X61662Y308866
M30
