G75*
%MOIN*%
%OFA0B0*%
%FSLAX25Y25*%
%IPPOS*%
%LPD*%
%AMOC8*
5,1,8,0,0,1.08239X$1,22.5*
%
%ADD10C,0.00000*%
%ADD11C,0.06000*%
%ADD12R,0.03150X0.03150*%
%ADD13R,0.08000X0.02600*%
%ADD14R,0.03937X0.04331*%
%ADD15R,0.04331X0.03937*%
%ADD16C,0.09449*%
%ADD17C,0.07087*%
%ADD18C,0.06791*%
%ADD19R,0.06791X0.06791*%
%ADD20R,0.12008X0.05984*%
%ADD21C,0.03937*%
%ADD22C,0.02400*%
%ADD23C,0.02756*%
%ADD24C,0.05000*%
%ADD25C,0.03200*%
%ADD26C,0.01600*%
%ADD27C,0.03543*%
%ADD28C,0.02559*%
%ADD29C,0.00800*%
%ADD30C,0.01000*%
D10*
X0075587Y0051177D02*
X0681886Y0051177D01*
X0682171Y0051180D01*
X0682457Y0051191D01*
X0682742Y0051208D01*
X0683026Y0051232D01*
X0683310Y0051263D01*
X0683593Y0051301D01*
X0683874Y0051346D01*
X0684155Y0051397D01*
X0684435Y0051455D01*
X0684713Y0051520D01*
X0684989Y0051592D01*
X0685263Y0051670D01*
X0685536Y0051755D01*
X0685806Y0051847D01*
X0686074Y0051945D01*
X0686340Y0052049D01*
X0686603Y0052160D01*
X0686863Y0052277D01*
X0687121Y0052400D01*
X0687375Y0052530D01*
X0687626Y0052666D01*
X0687874Y0052807D01*
X0688118Y0052955D01*
X0688359Y0053108D01*
X0688595Y0053268D01*
X0688828Y0053433D01*
X0689057Y0053603D01*
X0689282Y0053779D01*
X0689502Y0053961D01*
X0689718Y0054147D01*
X0689929Y0054339D01*
X0690136Y0054536D01*
X0690338Y0054738D01*
X0690535Y0054945D01*
X0690727Y0055156D01*
X0690913Y0055372D01*
X0691095Y0055592D01*
X0691271Y0055817D01*
X0691441Y0056046D01*
X0691606Y0056279D01*
X0691766Y0056515D01*
X0691919Y0056756D01*
X0692067Y0057000D01*
X0692208Y0057248D01*
X0692344Y0057499D01*
X0692474Y0057753D01*
X0692597Y0058011D01*
X0692714Y0058271D01*
X0692825Y0058534D01*
X0692929Y0058800D01*
X0693027Y0059068D01*
X0693119Y0059338D01*
X0693204Y0059611D01*
X0693282Y0059885D01*
X0693354Y0060161D01*
X0693419Y0060439D01*
X0693477Y0060719D01*
X0693528Y0061000D01*
X0693573Y0061281D01*
X0693611Y0061564D01*
X0693642Y0061848D01*
X0693666Y0062132D01*
X0693683Y0062417D01*
X0693694Y0062703D01*
X0693697Y0062988D01*
X0693698Y0062988D02*
X0693698Y0163382D01*
X0693697Y0163382D02*
X0693694Y0163667D01*
X0693683Y0163953D01*
X0693666Y0164238D01*
X0693642Y0164522D01*
X0693611Y0164806D01*
X0693573Y0165089D01*
X0693528Y0165370D01*
X0693477Y0165651D01*
X0693419Y0165931D01*
X0693354Y0166209D01*
X0693282Y0166485D01*
X0693204Y0166759D01*
X0693119Y0167032D01*
X0693027Y0167302D01*
X0692929Y0167570D01*
X0692825Y0167836D01*
X0692714Y0168099D01*
X0692597Y0168359D01*
X0692474Y0168617D01*
X0692344Y0168871D01*
X0692208Y0169122D01*
X0692067Y0169370D01*
X0691919Y0169614D01*
X0691766Y0169855D01*
X0691606Y0170091D01*
X0691441Y0170324D01*
X0691271Y0170553D01*
X0691095Y0170778D01*
X0690913Y0170998D01*
X0690727Y0171214D01*
X0690535Y0171425D01*
X0690338Y0171632D01*
X0690136Y0171834D01*
X0689929Y0172031D01*
X0689718Y0172223D01*
X0689502Y0172409D01*
X0689282Y0172591D01*
X0689057Y0172767D01*
X0688828Y0172937D01*
X0688595Y0173102D01*
X0688359Y0173262D01*
X0688118Y0173415D01*
X0687874Y0173563D01*
X0687626Y0173704D01*
X0687375Y0173840D01*
X0687121Y0173970D01*
X0686863Y0174093D01*
X0686603Y0174210D01*
X0686340Y0174321D01*
X0686074Y0174425D01*
X0685806Y0174523D01*
X0685536Y0174615D01*
X0685263Y0174700D01*
X0684989Y0174778D01*
X0684713Y0174850D01*
X0684435Y0174915D01*
X0684155Y0174973D01*
X0683874Y0175024D01*
X0683593Y0175069D01*
X0683310Y0175107D01*
X0683026Y0175138D01*
X0682742Y0175162D01*
X0682457Y0175179D01*
X0682171Y0175190D01*
X0681886Y0175193D01*
X0075587Y0175193D01*
X0075302Y0175190D01*
X0075016Y0175179D01*
X0074731Y0175162D01*
X0074447Y0175138D01*
X0074163Y0175107D01*
X0073880Y0175069D01*
X0073599Y0175024D01*
X0073318Y0174973D01*
X0073038Y0174915D01*
X0072760Y0174850D01*
X0072484Y0174778D01*
X0072210Y0174700D01*
X0071937Y0174615D01*
X0071667Y0174523D01*
X0071399Y0174425D01*
X0071133Y0174321D01*
X0070870Y0174210D01*
X0070610Y0174093D01*
X0070352Y0173970D01*
X0070098Y0173840D01*
X0069847Y0173704D01*
X0069599Y0173563D01*
X0069355Y0173415D01*
X0069114Y0173262D01*
X0068878Y0173102D01*
X0068645Y0172937D01*
X0068416Y0172767D01*
X0068191Y0172591D01*
X0067971Y0172409D01*
X0067755Y0172223D01*
X0067544Y0172031D01*
X0067337Y0171834D01*
X0067135Y0171632D01*
X0066938Y0171425D01*
X0066746Y0171214D01*
X0066560Y0170998D01*
X0066378Y0170778D01*
X0066202Y0170553D01*
X0066032Y0170324D01*
X0065867Y0170091D01*
X0065707Y0169855D01*
X0065554Y0169614D01*
X0065406Y0169370D01*
X0065265Y0169122D01*
X0065129Y0168871D01*
X0064999Y0168617D01*
X0064876Y0168359D01*
X0064759Y0168099D01*
X0064648Y0167836D01*
X0064544Y0167570D01*
X0064446Y0167302D01*
X0064354Y0167032D01*
X0064269Y0166759D01*
X0064191Y0166485D01*
X0064119Y0166209D01*
X0064054Y0165931D01*
X0063996Y0165651D01*
X0063945Y0165370D01*
X0063900Y0165089D01*
X0063862Y0164806D01*
X0063831Y0164522D01*
X0063807Y0164238D01*
X0063790Y0163953D01*
X0063779Y0163667D01*
X0063776Y0163382D01*
X0063776Y0062988D01*
X0063779Y0062703D01*
X0063790Y0062417D01*
X0063807Y0062132D01*
X0063831Y0061848D01*
X0063862Y0061564D01*
X0063900Y0061281D01*
X0063945Y0061000D01*
X0063996Y0060719D01*
X0064054Y0060439D01*
X0064119Y0060161D01*
X0064191Y0059885D01*
X0064269Y0059611D01*
X0064354Y0059338D01*
X0064446Y0059068D01*
X0064544Y0058800D01*
X0064648Y0058534D01*
X0064759Y0058271D01*
X0064876Y0058011D01*
X0064999Y0057753D01*
X0065129Y0057499D01*
X0065265Y0057248D01*
X0065406Y0057000D01*
X0065554Y0056756D01*
X0065707Y0056515D01*
X0065867Y0056279D01*
X0066032Y0056046D01*
X0066202Y0055817D01*
X0066378Y0055592D01*
X0066560Y0055372D01*
X0066746Y0055156D01*
X0066938Y0054945D01*
X0067135Y0054738D01*
X0067337Y0054536D01*
X0067544Y0054339D01*
X0067755Y0054147D01*
X0067971Y0053961D01*
X0068191Y0053779D01*
X0068416Y0053603D01*
X0068645Y0053433D01*
X0068878Y0053268D01*
X0069114Y0053108D01*
X0069355Y0052955D01*
X0069599Y0052807D01*
X0069847Y0052666D01*
X0070098Y0052530D01*
X0070352Y0052400D01*
X0070610Y0052277D01*
X0070870Y0052160D01*
X0071133Y0052049D01*
X0071399Y0051945D01*
X0071667Y0051847D01*
X0071937Y0051755D01*
X0072210Y0051670D01*
X0072484Y0051592D01*
X0072760Y0051520D01*
X0073038Y0051455D01*
X0073318Y0051397D01*
X0073599Y0051346D01*
X0073880Y0051301D01*
X0074163Y0051263D01*
X0074447Y0051232D01*
X0074731Y0051208D01*
X0075016Y0051191D01*
X0075302Y0051180D01*
X0075587Y0051177D01*
X0309754Y0064631D02*
X0309756Y0064748D01*
X0309762Y0064865D01*
X0309772Y0064982D01*
X0309786Y0065098D01*
X0309804Y0065214D01*
X0309825Y0065329D01*
X0309851Y0065444D01*
X0309881Y0065557D01*
X0309914Y0065669D01*
X0309951Y0065780D01*
X0309992Y0065890D01*
X0310037Y0065998D01*
X0310085Y0066105D01*
X0310137Y0066210D01*
X0310192Y0066314D01*
X0310251Y0066415D01*
X0310313Y0066514D01*
X0310379Y0066611D01*
X0310448Y0066706D01*
X0310520Y0066798D01*
X0310595Y0066888D01*
X0310673Y0066976D01*
X0310754Y0067060D01*
X0310838Y0067142D01*
X0310925Y0067221D01*
X0311014Y0067297D01*
X0311106Y0067370D01*
X0311200Y0067439D01*
X0311296Y0067506D01*
X0311395Y0067569D01*
X0311496Y0067629D01*
X0311599Y0067685D01*
X0311703Y0067738D01*
X0311810Y0067787D01*
X0311918Y0067832D01*
X0312027Y0067874D01*
X0312138Y0067912D01*
X0312250Y0067946D01*
X0312363Y0067977D01*
X0312477Y0068004D01*
X0312592Y0068026D01*
X0312708Y0068045D01*
X0312824Y0068060D01*
X0312941Y0068071D01*
X0313058Y0068078D01*
X0313175Y0068081D01*
X0313292Y0068080D01*
X0313409Y0068075D01*
X0313526Y0068066D01*
X0313642Y0068053D01*
X0313758Y0068036D01*
X0313873Y0068015D01*
X0313988Y0067991D01*
X0314102Y0067962D01*
X0314214Y0067930D01*
X0314326Y0067894D01*
X0314436Y0067854D01*
X0314545Y0067810D01*
X0314652Y0067763D01*
X0314757Y0067712D01*
X0314861Y0067657D01*
X0314963Y0067599D01*
X0315062Y0067538D01*
X0315160Y0067473D01*
X0315255Y0067405D01*
X0315348Y0067334D01*
X0315439Y0067259D01*
X0315527Y0067182D01*
X0315612Y0067101D01*
X0315695Y0067018D01*
X0315774Y0066932D01*
X0315851Y0066844D01*
X0315925Y0066752D01*
X0315995Y0066659D01*
X0316062Y0066563D01*
X0316126Y0066465D01*
X0316187Y0066364D01*
X0316244Y0066262D01*
X0316298Y0066158D01*
X0316348Y0066052D01*
X0316394Y0065944D01*
X0316437Y0065835D01*
X0316476Y0065725D01*
X0316511Y0065613D01*
X0316543Y0065500D01*
X0316570Y0065386D01*
X0316594Y0065272D01*
X0316614Y0065156D01*
X0316630Y0065040D01*
X0316642Y0064924D01*
X0316650Y0064807D01*
X0316654Y0064690D01*
X0316654Y0064572D01*
X0316650Y0064455D01*
X0316642Y0064338D01*
X0316630Y0064222D01*
X0316614Y0064106D01*
X0316594Y0063990D01*
X0316570Y0063876D01*
X0316543Y0063762D01*
X0316511Y0063649D01*
X0316476Y0063537D01*
X0316437Y0063427D01*
X0316394Y0063318D01*
X0316348Y0063210D01*
X0316298Y0063104D01*
X0316244Y0063000D01*
X0316187Y0062898D01*
X0316126Y0062797D01*
X0316062Y0062699D01*
X0315995Y0062603D01*
X0315925Y0062510D01*
X0315851Y0062418D01*
X0315774Y0062330D01*
X0315695Y0062244D01*
X0315612Y0062161D01*
X0315527Y0062080D01*
X0315439Y0062003D01*
X0315348Y0061928D01*
X0315255Y0061857D01*
X0315160Y0061789D01*
X0315062Y0061724D01*
X0314963Y0061663D01*
X0314861Y0061605D01*
X0314757Y0061550D01*
X0314652Y0061499D01*
X0314545Y0061452D01*
X0314436Y0061408D01*
X0314326Y0061368D01*
X0314214Y0061332D01*
X0314102Y0061300D01*
X0313988Y0061271D01*
X0313873Y0061247D01*
X0313758Y0061226D01*
X0313642Y0061209D01*
X0313526Y0061196D01*
X0313409Y0061187D01*
X0313292Y0061182D01*
X0313175Y0061181D01*
X0313058Y0061184D01*
X0312941Y0061191D01*
X0312824Y0061202D01*
X0312708Y0061217D01*
X0312592Y0061236D01*
X0312477Y0061258D01*
X0312363Y0061285D01*
X0312250Y0061316D01*
X0312138Y0061350D01*
X0312027Y0061388D01*
X0311918Y0061430D01*
X0311810Y0061475D01*
X0311703Y0061524D01*
X0311599Y0061577D01*
X0311496Y0061633D01*
X0311395Y0061693D01*
X0311296Y0061756D01*
X0311200Y0061823D01*
X0311106Y0061892D01*
X0311014Y0061965D01*
X0310925Y0062041D01*
X0310838Y0062120D01*
X0310754Y0062202D01*
X0310673Y0062286D01*
X0310595Y0062374D01*
X0310520Y0062464D01*
X0310448Y0062556D01*
X0310379Y0062651D01*
X0310313Y0062748D01*
X0310251Y0062847D01*
X0310192Y0062948D01*
X0310137Y0063052D01*
X0310085Y0063157D01*
X0310037Y0063264D01*
X0309992Y0063372D01*
X0309951Y0063482D01*
X0309914Y0063593D01*
X0309881Y0063705D01*
X0309851Y0063818D01*
X0309825Y0063933D01*
X0309804Y0064048D01*
X0309786Y0064164D01*
X0309772Y0064280D01*
X0309762Y0064397D01*
X0309756Y0064514D01*
X0309754Y0064631D01*
X0369954Y0064631D02*
X0369956Y0064748D01*
X0369962Y0064865D01*
X0369972Y0064982D01*
X0369986Y0065098D01*
X0370004Y0065214D01*
X0370025Y0065329D01*
X0370051Y0065444D01*
X0370081Y0065557D01*
X0370114Y0065669D01*
X0370151Y0065780D01*
X0370192Y0065890D01*
X0370237Y0065998D01*
X0370285Y0066105D01*
X0370337Y0066210D01*
X0370392Y0066314D01*
X0370451Y0066415D01*
X0370513Y0066514D01*
X0370579Y0066611D01*
X0370648Y0066706D01*
X0370720Y0066798D01*
X0370795Y0066888D01*
X0370873Y0066976D01*
X0370954Y0067060D01*
X0371038Y0067142D01*
X0371125Y0067221D01*
X0371214Y0067297D01*
X0371306Y0067370D01*
X0371400Y0067439D01*
X0371496Y0067506D01*
X0371595Y0067569D01*
X0371696Y0067629D01*
X0371799Y0067685D01*
X0371903Y0067738D01*
X0372010Y0067787D01*
X0372118Y0067832D01*
X0372227Y0067874D01*
X0372338Y0067912D01*
X0372450Y0067946D01*
X0372563Y0067977D01*
X0372677Y0068004D01*
X0372792Y0068026D01*
X0372908Y0068045D01*
X0373024Y0068060D01*
X0373141Y0068071D01*
X0373258Y0068078D01*
X0373375Y0068081D01*
X0373492Y0068080D01*
X0373609Y0068075D01*
X0373726Y0068066D01*
X0373842Y0068053D01*
X0373958Y0068036D01*
X0374073Y0068015D01*
X0374188Y0067991D01*
X0374302Y0067962D01*
X0374414Y0067930D01*
X0374526Y0067894D01*
X0374636Y0067854D01*
X0374745Y0067810D01*
X0374852Y0067763D01*
X0374957Y0067712D01*
X0375061Y0067657D01*
X0375163Y0067599D01*
X0375262Y0067538D01*
X0375360Y0067473D01*
X0375455Y0067405D01*
X0375548Y0067334D01*
X0375639Y0067259D01*
X0375727Y0067182D01*
X0375812Y0067101D01*
X0375895Y0067018D01*
X0375974Y0066932D01*
X0376051Y0066844D01*
X0376125Y0066752D01*
X0376195Y0066659D01*
X0376262Y0066563D01*
X0376326Y0066465D01*
X0376387Y0066364D01*
X0376444Y0066262D01*
X0376498Y0066158D01*
X0376548Y0066052D01*
X0376594Y0065944D01*
X0376637Y0065835D01*
X0376676Y0065725D01*
X0376711Y0065613D01*
X0376743Y0065500D01*
X0376770Y0065386D01*
X0376794Y0065272D01*
X0376814Y0065156D01*
X0376830Y0065040D01*
X0376842Y0064924D01*
X0376850Y0064807D01*
X0376854Y0064690D01*
X0376854Y0064572D01*
X0376850Y0064455D01*
X0376842Y0064338D01*
X0376830Y0064222D01*
X0376814Y0064106D01*
X0376794Y0063990D01*
X0376770Y0063876D01*
X0376743Y0063762D01*
X0376711Y0063649D01*
X0376676Y0063537D01*
X0376637Y0063427D01*
X0376594Y0063318D01*
X0376548Y0063210D01*
X0376498Y0063104D01*
X0376444Y0063000D01*
X0376387Y0062898D01*
X0376326Y0062797D01*
X0376262Y0062699D01*
X0376195Y0062603D01*
X0376125Y0062510D01*
X0376051Y0062418D01*
X0375974Y0062330D01*
X0375895Y0062244D01*
X0375812Y0062161D01*
X0375727Y0062080D01*
X0375639Y0062003D01*
X0375548Y0061928D01*
X0375455Y0061857D01*
X0375360Y0061789D01*
X0375262Y0061724D01*
X0375163Y0061663D01*
X0375061Y0061605D01*
X0374957Y0061550D01*
X0374852Y0061499D01*
X0374745Y0061452D01*
X0374636Y0061408D01*
X0374526Y0061368D01*
X0374414Y0061332D01*
X0374302Y0061300D01*
X0374188Y0061271D01*
X0374073Y0061247D01*
X0373958Y0061226D01*
X0373842Y0061209D01*
X0373726Y0061196D01*
X0373609Y0061187D01*
X0373492Y0061182D01*
X0373375Y0061181D01*
X0373258Y0061184D01*
X0373141Y0061191D01*
X0373024Y0061202D01*
X0372908Y0061217D01*
X0372792Y0061236D01*
X0372677Y0061258D01*
X0372563Y0061285D01*
X0372450Y0061316D01*
X0372338Y0061350D01*
X0372227Y0061388D01*
X0372118Y0061430D01*
X0372010Y0061475D01*
X0371903Y0061524D01*
X0371799Y0061577D01*
X0371696Y0061633D01*
X0371595Y0061693D01*
X0371496Y0061756D01*
X0371400Y0061823D01*
X0371306Y0061892D01*
X0371214Y0061965D01*
X0371125Y0062041D01*
X0371038Y0062120D01*
X0370954Y0062202D01*
X0370873Y0062286D01*
X0370795Y0062374D01*
X0370720Y0062464D01*
X0370648Y0062556D01*
X0370579Y0062651D01*
X0370513Y0062748D01*
X0370451Y0062847D01*
X0370392Y0062948D01*
X0370337Y0063052D01*
X0370285Y0063157D01*
X0370237Y0063264D01*
X0370192Y0063372D01*
X0370151Y0063482D01*
X0370114Y0063593D01*
X0370081Y0063705D01*
X0370051Y0063818D01*
X0370025Y0063933D01*
X0370004Y0064048D01*
X0369986Y0064164D01*
X0369972Y0064280D01*
X0369962Y0064397D01*
X0369956Y0064514D01*
X0369954Y0064631D01*
X0404327Y0153539D02*
X0404329Y0153627D01*
X0404335Y0153715D01*
X0404345Y0153803D01*
X0404359Y0153891D01*
X0404376Y0153977D01*
X0404398Y0154063D01*
X0404423Y0154147D01*
X0404453Y0154231D01*
X0404485Y0154313D01*
X0404522Y0154393D01*
X0404562Y0154472D01*
X0404606Y0154549D01*
X0404653Y0154624D01*
X0404703Y0154696D01*
X0404757Y0154767D01*
X0404813Y0154834D01*
X0404873Y0154900D01*
X0404935Y0154962D01*
X0405001Y0155022D01*
X0405068Y0155078D01*
X0405139Y0155132D01*
X0405211Y0155182D01*
X0405286Y0155229D01*
X0405363Y0155273D01*
X0405442Y0155313D01*
X0405522Y0155350D01*
X0405604Y0155382D01*
X0405688Y0155412D01*
X0405772Y0155437D01*
X0405858Y0155459D01*
X0405944Y0155476D01*
X0406032Y0155490D01*
X0406120Y0155500D01*
X0406208Y0155506D01*
X0406296Y0155508D01*
X0406384Y0155506D01*
X0406472Y0155500D01*
X0406560Y0155490D01*
X0406648Y0155476D01*
X0406734Y0155459D01*
X0406820Y0155437D01*
X0406904Y0155412D01*
X0406988Y0155382D01*
X0407070Y0155350D01*
X0407150Y0155313D01*
X0407229Y0155273D01*
X0407306Y0155229D01*
X0407381Y0155182D01*
X0407453Y0155132D01*
X0407524Y0155078D01*
X0407591Y0155022D01*
X0407657Y0154962D01*
X0407719Y0154900D01*
X0407779Y0154834D01*
X0407835Y0154767D01*
X0407889Y0154696D01*
X0407939Y0154624D01*
X0407986Y0154549D01*
X0408030Y0154472D01*
X0408070Y0154393D01*
X0408107Y0154313D01*
X0408139Y0154231D01*
X0408169Y0154147D01*
X0408194Y0154063D01*
X0408216Y0153977D01*
X0408233Y0153891D01*
X0408247Y0153803D01*
X0408257Y0153715D01*
X0408263Y0153627D01*
X0408265Y0153539D01*
X0408263Y0153451D01*
X0408257Y0153363D01*
X0408247Y0153275D01*
X0408233Y0153187D01*
X0408216Y0153101D01*
X0408194Y0153015D01*
X0408169Y0152931D01*
X0408139Y0152847D01*
X0408107Y0152765D01*
X0408070Y0152685D01*
X0408030Y0152606D01*
X0407986Y0152529D01*
X0407939Y0152454D01*
X0407889Y0152382D01*
X0407835Y0152311D01*
X0407779Y0152244D01*
X0407719Y0152178D01*
X0407657Y0152116D01*
X0407591Y0152056D01*
X0407524Y0152000D01*
X0407453Y0151946D01*
X0407381Y0151896D01*
X0407306Y0151849D01*
X0407229Y0151805D01*
X0407150Y0151765D01*
X0407070Y0151728D01*
X0406988Y0151696D01*
X0406904Y0151666D01*
X0406820Y0151641D01*
X0406734Y0151619D01*
X0406648Y0151602D01*
X0406560Y0151588D01*
X0406472Y0151578D01*
X0406384Y0151572D01*
X0406296Y0151570D01*
X0406208Y0151572D01*
X0406120Y0151578D01*
X0406032Y0151588D01*
X0405944Y0151602D01*
X0405858Y0151619D01*
X0405772Y0151641D01*
X0405688Y0151666D01*
X0405604Y0151696D01*
X0405522Y0151728D01*
X0405442Y0151765D01*
X0405363Y0151805D01*
X0405286Y0151849D01*
X0405211Y0151896D01*
X0405139Y0151946D01*
X0405068Y0152000D01*
X0405001Y0152056D01*
X0404935Y0152116D01*
X0404873Y0152178D01*
X0404813Y0152244D01*
X0404757Y0152311D01*
X0404703Y0152382D01*
X0404653Y0152454D01*
X0404606Y0152529D01*
X0404562Y0152606D01*
X0404522Y0152685D01*
X0404485Y0152765D01*
X0404453Y0152847D01*
X0404423Y0152931D01*
X0404398Y0153015D01*
X0404376Y0153101D01*
X0404359Y0153187D01*
X0404345Y0153275D01*
X0404335Y0153363D01*
X0404329Y0153451D01*
X0404327Y0153539D01*
X0317713Y0153539D02*
X0317715Y0153627D01*
X0317721Y0153715D01*
X0317731Y0153803D01*
X0317745Y0153891D01*
X0317762Y0153977D01*
X0317784Y0154063D01*
X0317809Y0154147D01*
X0317839Y0154231D01*
X0317871Y0154313D01*
X0317908Y0154393D01*
X0317948Y0154472D01*
X0317992Y0154549D01*
X0318039Y0154624D01*
X0318089Y0154696D01*
X0318143Y0154767D01*
X0318199Y0154834D01*
X0318259Y0154900D01*
X0318321Y0154962D01*
X0318387Y0155022D01*
X0318454Y0155078D01*
X0318525Y0155132D01*
X0318597Y0155182D01*
X0318672Y0155229D01*
X0318749Y0155273D01*
X0318828Y0155313D01*
X0318908Y0155350D01*
X0318990Y0155382D01*
X0319074Y0155412D01*
X0319158Y0155437D01*
X0319244Y0155459D01*
X0319330Y0155476D01*
X0319418Y0155490D01*
X0319506Y0155500D01*
X0319594Y0155506D01*
X0319682Y0155508D01*
X0319770Y0155506D01*
X0319858Y0155500D01*
X0319946Y0155490D01*
X0320034Y0155476D01*
X0320120Y0155459D01*
X0320206Y0155437D01*
X0320290Y0155412D01*
X0320374Y0155382D01*
X0320456Y0155350D01*
X0320536Y0155313D01*
X0320615Y0155273D01*
X0320692Y0155229D01*
X0320767Y0155182D01*
X0320839Y0155132D01*
X0320910Y0155078D01*
X0320977Y0155022D01*
X0321043Y0154962D01*
X0321105Y0154900D01*
X0321165Y0154834D01*
X0321221Y0154767D01*
X0321275Y0154696D01*
X0321325Y0154624D01*
X0321372Y0154549D01*
X0321416Y0154472D01*
X0321456Y0154393D01*
X0321493Y0154313D01*
X0321525Y0154231D01*
X0321555Y0154147D01*
X0321580Y0154063D01*
X0321602Y0153977D01*
X0321619Y0153891D01*
X0321633Y0153803D01*
X0321643Y0153715D01*
X0321649Y0153627D01*
X0321651Y0153539D01*
X0321649Y0153451D01*
X0321643Y0153363D01*
X0321633Y0153275D01*
X0321619Y0153187D01*
X0321602Y0153101D01*
X0321580Y0153015D01*
X0321555Y0152931D01*
X0321525Y0152847D01*
X0321493Y0152765D01*
X0321456Y0152685D01*
X0321416Y0152606D01*
X0321372Y0152529D01*
X0321325Y0152454D01*
X0321275Y0152382D01*
X0321221Y0152311D01*
X0321165Y0152244D01*
X0321105Y0152178D01*
X0321043Y0152116D01*
X0320977Y0152056D01*
X0320910Y0152000D01*
X0320839Y0151946D01*
X0320767Y0151896D01*
X0320692Y0151849D01*
X0320615Y0151805D01*
X0320536Y0151765D01*
X0320456Y0151728D01*
X0320374Y0151696D01*
X0320290Y0151666D01*
X0320206Y0151641D01*
X0320120Y0151619D01*
X0320034Y0151602D01*
X0319946Y0151588D01*
X0319858Y0151578D01*
X0319770Y0151572D01*
X0319682Y0151570D01*
X0319594Y0151572D01*
X0319506Y0151578D01*
X0319418Y0151588D01*
X0319330Y0151602D01*
X0319244Y0151619D01*
X0319158Y0151641D01*
X0319074Y0151666D01*
X0318990Y0151696D01*
X0318908Y0151728D01*
X0318828Y0151765D01*
X0318749Y0151805D01*
X0318672Y0151849D01*
X0318597Y0151896D01*
X0318525Y0151946D01*
X0318454Y0152000D01*
X0318387Y0152056D01*
X0318321Y0152116D01*
X0318259Y0152178D01*
X0318199Y0152244D01*
X0318143Y0152311D01*
X0318089Y0152382D01*
X0318039Y0152454D01*
X0317992Y0152529D01*
X0317948Y0152606D01*
X0317908Y0152685D01*
X0317871Y0152765D01*
X0317839Y0152847D01*
X0317809Y0152931D01*
X0317784Y0153015D01*
X0317762Y0153101D01*
X0317745Y0153187D01*
X0317731Y0153275D01*
X0317721Y0153363D01*
X0317715Y0153451D01*
X0317713Y0153539D01*
D11*
X0270627Y0156539D02*
X0270627Y0150539D01*
X0260627Y0150539D02*
X0260627Y0156539D01*
X0250627Y0156539D02*
X0250627Y0150539D01*
X0207635Y0150539D02*
X0207635Y0156539D01*
X0197635Y0156539D02*
X0197635Y0150539D01*
X0187635Y0150539D02*
X0187635Y0156539D01*
X0590272Y0157524D02*
X0590272Y0151524D01*
X0600272Y0151524D02*
X0600272Y0157524D01*
D12*
X0548028Y0156492D03*
X0548028Y0150587D03*
X0678934Y0153539D03*
X0684839Y0153539D03*
X0414170Y0150587D03*
X0414170Y0156492D03*
X0283264Y0153539D03*
X0277359Y0153539D03*
X0149406Y0153539D03*
X0143501Y0153539D03*
X0143501Y0136315D03*
X0143501Y0131394D03*
X0149406Y0131394D03*
X0149406Y0136315D03*
D13*
X0551676Y0135449D03*
X0551676Y0130449D03*
X0551676Y0125449D03*
X0551676Y0120449D03*
X0575876Y0120449D03*
X0575876Y0125449D03*
X0575876Y0130449D03*
X0575876Y0135449D03*
X0576860Y0098047D03*
X0576860Y0093047D03*
X0576860Y0088047D03*
X0576860Y0083047D03*
X0552660Y0083047D03*
X0552660Y0088047D03*
X0552660Y0093047D03*
X0552660Y0098047D03*
D14*
X0678540Y0147634D03*
X0685233Y0147634D03*
X0283658Y0147634D03*
X0276965Y0147634D03*
X0149800Y0147634D03*
X0149800Y0141728D03*
X0143107Y0141728D03*
X0143107Y0147634D03*
X0143107Y0125980D03*
X0149800Y0125980D03*
D15*
X0178540Y0111217D03*
X0185233Y0111217D03*
X0312398Y0111217D03*
X0319091Y0111217D03*
X0420075Y0150193D03*
X0420075Y0156886D03*
X0527359Y0156886D03*
X0533264Y0156886D03*
X0539170Y0156886D03*
X0539170Y0150193D03*
X0533264Y0150193D03*
X0527359Y0150193D03*
X0554918Y0150193D03*
X0554918Y0156886D03*
X0541138Y0118500D03*
X0541138Y0111807D03*
X0585430Y0114563D03*
X0585430Y0107870D03*
X0588383Y0079130D03*
X0588383Y0072437D03*
X0588383Y0066335D03*
X0581493Y0066335D03*
X0581493Y0059642D03*
X0588383Y0059642D03*
D16*
X0511847Y0114169D03*
X0481847Y0114169D03*
X0377989Y0114169D03*
X0347989Y0114169D03*
X0244131Y0114169D03*
X0214131Y0114169D03*
X0110272Y0114169D03*
X0080272Y0114169D03*
D17*
X0095272Y0096650D03*
X0127753Y0074169D03*
X0193698Y0102358D03*
X0229131Y0096650D03*
X0261611Y0074169D03*
X0327556Y0102358D03*
X0362989Y0096650D03*
X0395469Y0074169D03*
X0406296Y0102358D03*
X0410233Y0136807D03*
X0496847Y0096650D03*
X0529327Y0074169D03*
X0618205Y0104169D03*
X0630705Y0096669D03*
X0643205Y0104169D03*
X0645705Y0116669D03*
X0615705Y0119169D03*
X0655705Y0139169D03*
X0663205Y0141669D03*
X0670705Y0144169D03*
X0663205Y0074169D03*
D18*
X0299997Y0074720D03*
X0299997Y0084720D03*
X0299997Y0094720D03*
X0166138Y0094720D03*
X0166138Y0084720D03*
X0166138Y0074720D03*
D19*
X0166138Y0064720D03*
X0299997Y0064720D03*
D20*
X0315745Y0094898D03*
X0315745Y0103913D03*
X0181886Y0103913D03*
X0181886Y0094898D03*
D21*
X0075587Y0062988D03*
X0075587Y0165350D03*
X0681886Y0165350D03*
X0681886Y0062988D03*
D22*
X0071217Y0054411D02*
X0068780Y0056181D01*
X0067010Y0058618D01*
X0066079Y0061482D01*
X0065960Y0062988D01*
X0065960Y0163382D01*
X0066079Y0164888D01*
X0067010Y0167752D01*
X0068780Y0170189D01*
X0071217Y0171959D01*
X0074081Y0172890D01*
X0075587Y0173009D01*
X0165743Y0173009D01*
X0165049Y0172315D01*
X0164500Y0170989D01*
X0164500Y0166742D01*
X0163903Y0166989D01*
X0162468Y0166989D01*
X0161142Y0166440D01*
X0160128Y0165425D01*
X0159579Y0164099D01*
X0159579Y0149695D01*
X0158743Y0150041D01*
X0153775Y0150041D01*
X0153775Y0150218D01*
X0153996Y0150174D01*
X0154327Y0150174D01*
X0154327Y0153539D01*
X0150962Y0153539D01*
X0149406Y0153539D01*
X0149406Y0153539D01*
X0149406Y0157102D01*
X0147570Y0157102D01*
X0147064Y0156966D01*
X0146611Y0156704D01*
X0146467Y0156561D01*
X0145907Y0157121D01*
X0141094Y0157121D01*
X0139919Y0155946D01*
X0139919Y0151418D01*
X0139131Y0150631D01*
X0139131Y0138732D01*
X0139919Y0137944D01*
X0139919Y0133909D01*
X0139973Y0133854D01*
X0139919Y0133800D01*
X0139919Y0129764D01*
X0139131Y0128977D01*
X0139131Y0122984D01*
X0140307Y0121808D01*
X0144353Y0121808D01*
X0144413Y0121664D01*
X0145397Y0120680D01*
X0146074Y0120003D01*
X0146959Y0119636D01*
X0153822Y0119636D01*
X0154707Y0120003D01*
X0156001Y0121297D01*
X0156462Y0120182D01*
X0157387Y0119257D01*
X0158595Y0118757D01*
X0159579Y0118757D01*
X0159579Y0110742D01*
X0152254Y0103417D01*
X0151705Y0102092D01*
X0151705Y0074830D01*
X0152254Y0073504D01*
X0153268Y0072489D01*
X0153268Y0072489D01*
X0160736Y0065022D01*
X0160736Y0060493D01*
X0161911Y0059318D01*
X0170365Y0059318D01*
X0171541Y0060493D01*
X0171541Y0068948D01*
X0170365Y0070123D01*
X0169158Y0070123D01*
X0169199Y0070140D01*
X0170719Y0071660D01*
X0171541Y0073646D01*
X0171541Y0075795D01*
X0170719Y0077781D01*
X0169199Y0079301D01*
X0168179Y0079723D01*
X0168205Y0079732D01*
X0168960Y0080116D01*
X0169645Y0080614D01*
X0170244Y0081214D01*
X0170742Y0081899D01*
X0171127Y0082654D01*
X0171389Y0083460D01*
X0171522Y0084297D01*
X0171522Y0084720D01*
X0166139Y0084720D01*
X0166139Y0084721D01*
X0171521Y0084721D01*
X0171522Y0085144D01*
X0171389Y0085981D01*
X0171127Y0086787D01*
X0170742Y0087542D01*
X0170244Y0088227D01*
X0169645Y0088826D01*
X0168960Y0089324D01*
X0168205Y0089709D01*
X0168179Y0089718D01*
X0169199Y0090140D01*
X0169272Y0090213D01*
X0174736Y0090213D01*
X0175051Y0089898D01*
X0188722Y0089898D01*
X0189897Y0091074D01*
X0189897Y0098309D01*
X0190553Y0097653D01*
X0192593Y0096808D01*
X0194802Y0096808D01*
X0196842Y0097653D01*
X0198403Y0099214D01*
X0199248Y0101254D01*
X0199248Y0103462D01*
X0198403Y0105502D01*
X0196842Y0107064D01*
X0194802Y0107909D01*
X0194275Y0107909D01*
X0193039Y0108420D01*
X0189405Y0108420D01*
X0189405Y0114016D01*
X0188230Y0115192D01*
X0182236Y0115192D01*
X0181858Y0114814D01*
X0181472Y0115037D01*
X0180967Y0115172D01*
X0178540Y0115172D01*
X0178540Y0111217D01*
X0178540Y0115172D01*
X0176113Y0115172D01*
X0175608Y0115037D01*
X0175154Y0114775D01*
X0174784Y0114405D01*
X0174523Y0113952D01*
X0174387Y0113447D01*
X0174387Y0111217D01*
X0178540Y0111217D01*
X0178540Y0111217D01*
X0178540Y0111216D01*
X0174387Y0111216D01*
X0174387Y0108986D01*
X0174523Y0108481D01*
X0174558Y0108420D01*
X0173875Y0107737D01*
X0173875Y0100090D01*
X0174560Y0099405D01*
X0174382Y0099228D01*
X0169272Y0099228D01*
X0169199Y0099301D01*
X0167213Y0100123D01*
X0166052Y0100123D01*
X0170150Y0104222D01*
X0171165Y0105236D01*
X0171714Y0106562D01*
X0171714Y0170989D01*
X0171165Y0172315D01*
X0170471Y0173009D01*
X0185185Y0173009D01*
X0184431Y0172255D01*
X0183856Y0170866D01*
X0183856Y0169363D01*
X0184027Y0168948D01*
X0184027Y0160013D01*
X0183390Y0159376D01*
X0182627Y0157535D01*
X0182627Y0149543D01*
X0183390Y0147703D01*
X0184798Y0146295D01*
X0186639Y0145532D01*
X0188630Y0145532D01*
X0190471Y0146295D01*
X0191879Y0147703D01*
X0192635Y0149526D01*
X0193390Y0147703D01*
X0194798Y0146295D01*
X0196639Y0145532D01*
X0198630Y0145532D01*
X0200471Y0146295D01*
X0201879Y0147703D01*
X0202634Y0149526D01*
X0203390Y0147703D01*
X0204798Y0146295D01*
X0204827Y0146282D01*
X0204827Y0144949D01*
X0205255Y0143918D01*
X0206044Y0143128D01*
X0209133Y0140040D01*
X0209612Y0138882D01*
X0210537Y0137958D01*
X0211745Y0137457D01*
X0213052Y0137457D01*
X0214260Y0137958D01*
X0215185Y0138882D01*
X0215685Y0140090D01*
X0215685Y0141398D01*
X0215185Y0142606D01*
X0214260Y0143530D01*
X0213102Y0144010D01*
X0210644Y0146468D01*
X0211879Y0147703D01*
X0212642Y0149543D01*
X0212642Y0157535D01*
X0211879Y0159376D01*
X0210471Y0160784D01*
X0208630Y0161546D01*
X0206639Y0161546D01*
X0204798Y0160784D01*
X0203390Y0159376D01*
X0202634Y0157552D01*
X0201879Y0159376D01*
X0200471Y0160784D01*
X0198630Y0161546D01*
X0196639Y0161546D01*
X0194798Y0160784D01*
X0193390Y0159376D01*
X0192635Y0157552D01*
X0191879Y0159376D01*
X0191242Y0160013D01*
X0191242Y0168948D01*
X0191413Y0169363D01*
X0191413Y0170866D01*
X0190838Y0172255D01*
X0190084Y0173009D01*
X0248177Y0173009D01*
X0247423Y0172255D01*
X0246848Y0170866D01*
X0246848Y0169363D01*
X0247020Y0168948D01*
X0247020Y0160013D01*
X0246382Y0159376D01*
X0245620Y0157535D01*
X0245620Y0149543D01*
X0246382Y0147703D01*
X0247790Y0146295D01*
X0249631Y0145532D01*
X0251623Y0145532D01*
X0253463Y0146295D01*
X0254871Y0147703D01*
X0255627Y0149526D01*
X0256382Y0147703D01*
X0257790Y0146295D01*
X0259631Y0145532D01*
X0261623Y0145532D01*
X0263463Y0146295D01*
X0264871Y0147703D01*
X0265627Y0149526D01*
X0266382Y0147703D01*
X0267790Y0146295D01*
X0267820Y0146282D01*
X0267820Y0145934D01*
X0268247Y0144902D01*
X0269037Y0144112D01*
X0270156Y0142993D01*
X0270636Y0141835D01*
X0271560Y0140911D01*
X0272768Y0140410D01*
X0274076Y0140410D01*
X0275284Y0140911D01*
X0276208Y0141835D01*
X0276709Y0143043D01*
X0276709Y0143461D01*
X0279765Y0143461D01*
X0280312Y0144008D01*
X0280857Y0143462D01*
X0280857Y0116410D01*
X0280478Y0116031D01*
X0279978Y0114823D01*
X0279978Y0113516D01*
X0280478Y0112308D01*
X0281403Y0111383D01*
X0282611Y0110883D01*
X0283918Y0110883D01*
X0285126Y0111383D01*
X0286051Y0112308D01*
X0286551Y0113516D01*
X0286551Y0114823D01*
X0286051Y0116031D01*
X0285672Y0116410D01*
X0285672Y0143461D01*
X0286458Y0143461D01*
X0287634Y0144637D01*
X0287634Y0150218D01*
X0287854Y0150174D01*
X0288186Y0150174D01*
X0288517Y0150174D01*
X0289167Y0150303D01*
X0289780Y0150557D01*
X0290300Y0150905D01*
X0290300Y0113364D01*
X0282853Y0105917D01*
X0282426Y0104885D01*
X0282426Y0068335D01*
X0282853Y0067304D01*
X0283643Y0066514D01*
X0284920Y0065237D01*
X0285399Y0064079D01*
X0286324Y0063155D01*
X0287532Y0062654D01*
X0288839Y0062654D01*
X0290047Y0063155D01*
X0290972Y0064079D01*
X0291472Y0065287D01*
X0291472Y0065427D01*
X0294222Y0062677D01*
X0294594Y0062305D01*
X0294594Y0060493D01*
X0295770Y0059318D01*
X0304224Y0059318D01*
X0305399Y0060493D01*
X0305399Y0068948D01*
X0304224Y0070123D01*
X0303016Y0070123D01*
X0303057Y0070140D01*
X0304577Y0071660D01*
X0305399Y0073646D01*
X0305399Y0075795D01*
X0304577Y0077781D01*
X0303057Y0079301D01*
X0302037Y0079723D01*
X0302063Y0079732D01*
X0302818Y0080116D01*
X0303504Y0080614D01*
X0304103Y0081214D01*
X0304601Y0081899D01*
X0304985Y0082654D01*
X0305247Y0083460D01*
X0305380Y0084297D01*
X0305380Y0084720D01*
X0299997Y0084720D01*
X0299997Y0084721D01*
X0305380Y0084721D01*
X0305380Y0085144D01*
X0305247Y0085981D01*
X0304985Y0086787D01*
X0304601Y0087542D01*
X0304103Y0088227D01*
X0303504Y0088826D01*
X0302818Y0089324D01*
X0302063Y0089709D01*
X0302037Y0089718D01*
X0303057Y0090140D01*
X0303130Y0090213D01*
X0308594Y0090213D01*
X0308909Y0089898D01*
X0322580Y0089898D01*
X0323756Y0091074D01*
X0323756Y0098309D01*
X0324412Y0097653D01*
X0326452Y0096808D01*
X0328660Y0096808D01*
X0330700Y0097653D01*
X0332261Y0099214D01*
X0333106Y0101254D01*
X0333106Y0103462D01*
X0332261Y0105502D01*
X0330831Y0106933D01*
X0331161Y0106867D01*
X0331493Y0106867D01*
X0331824Y0106867D01*
X0332474Y0106996D01*
X0333087Y0107250D01*
X0333638Y0107618D01*
X0334107Y0108087D01*
X0334475Y0108638D01*
X0334729Y0109251D01*
X0334858Y0109901D01*
X0334858Y0110232D01*
X0331493Y0110232D01*
X0331493Y0110232D01*
X0331493Y0106867D01*
X0331493Y0110232D01*
X0331493Y0110232D01*
X0334858Y0110232D01*
X0334858Y0110564D01*
X0334729Y0111214D01*
X0334475Y0111826D01*
X0334107Y0112378D01*
X0333638Y0112846D01*
X0333087Y0113215D01*
X0332474Y0113468D01*
X0331824Y0113598D01*
X0331493Y0113598D01*
X0331493Y0110232D01*
X0328127Y0110232D01*
X0328127Y0109901D01*
X0328257Y0109251D01*
X0328510Y0108638D01*
X0328879Y0108087D01*
X0329338Y0107628D01*
X0328660Y0107909D01*
X0328133Y0107909D01*
X0326897Y0108420D01*
X0323264Y0108420D01*
X0323264Y0114016D01*
X0322088Y0115192D01*
X0316094Y0115192D01*
X0315717Y0114814D01*
X0315331Y0115037D01*
X0314825Y0115172D01*
X0312398Y0115172D01*
X0309971Y0115172D01*
X0309466Y0115037D01*
X0309013Y0114775D01*
X0308643Y0114405D01*
X0308381Y0113952D01*
X0308246Y0113447D01*
X0308246Y0111217D01*
X0312398Y0111217D01*
X0312398Y0115172D01*
X0312398Y0111217D01*
X0312398Y0111217D01*
X0312398Y0111216D01*
X0308246Y0111216D01*
X0308246Y0108986D01*
X0308381Y0108481D01*
X0308416Y0108420D01*
X0307734Y0107737D01*
X0307734Y0100090D01*
X0308418Y0099405D01*
X0308240Y0099228D01*
X0303130Y0099228D01*
X0303057Y0099301D01*
X0301071Y0100123D01*
X0299910Y0100123D01*
X0305023Y0105236D01*
X0305572Y0106562D01*
X0305572Y0161032D01*
X0306009Y0160596D01*
X0307217Y0160095D01*
X0308524Y0160095D01*
X0309682Y0160575D01*
X0321224Y0160575D01*
X0322256Y0161002D01*
X0324204Y0162950D01*
X0324292Y0162950D01*
X0325536Y0163465D01*
X0326488Y0164417D01*
X0327004Y0165661D01*
X0327004Y0167008D01*
X0326521Y0168174D01*
X0327886Y0166809D01*
X0327886Y0166516D01*
X0327714Y0166102D01*
X0327714Y0164599D01*
X0328289Y0163210D01*
X0329352Y0162147D01*
X0330741Y0161572D01*
X0332244Y0161572D01*
X0333633Y0162147D01*
X0334696Y0163210D01*
X0335272Y0164599D01*
X0335272Y0166102D01*
X0335100Y0166516D01*
X0335100Y0169021D01*
X0334551Y0170346D01*
X0333536Y0171361D01*
X0331888Y0173009D01*
X0681886Y0173009D01*
X0683392Y0172890D01*
X0686257Y0171959D01*
X0688694Y0170189D01*
X0690464Y0167752D01*
X0691395Y0164888D01*
X0691513Y0163382D01*
X0691513Y0062988D01*
X0691395Y0061482D01*
X0690464Y0058618D01*
X0688694Y0056181D01*
X0686257Y0054411D01*
X0683392Y0053480D01*
X0681886Y0053361D01*
X0075587Y0053361D01*
X0074081Y0053480D01*
X0071217Y0054411D01*
X0069065Y0055974D02*
X0578295Y0055974D01*
X0578107Y0056083D02*
X0578560Y0055821D01*
X0579066Y0055686D01*
X0581493Y0055686D01*
X0583920Y0055686D01*
X0584425Y0055821D01*
X0584878Y0056083D01*
X0584924Y0056128D01*
X0585386Y0055666D01*
X0591379Y0055666D01*
X0592548Y0056835D01*
X0594453Y0056835D01*
X0595484Y0057262D01*
X0598673Y0060451D01*
X0599463Y0061241D01*
X0599890Y0062272D01*
X0599890Y0067071D01*
X0599953Y0067134D01*
X0600468Y0068378D01*
X0600468Y0069725D01*
X0600342Y0070030D01*
X0606952Y0070030D01*
X0607837Y0070396D01*
X0608514Y0071073D01*
X0628864Y0091424D01*
X0629601Y0091119D01*
X0631809Y0091119D01*
X0633849Y0091964D01*
X0635411Y0093525D01*
X0636256Y0095565D01*
X0636256Y0097773D01*
X0635411Y0099813D01*
X0633849Y0101375D01*
X0631809Y0102220D01*
X0629601Y0102220D01*
X0627561Y0101375D01*
X0626000Y0099813D01*
X0625155Y0097773D01*
X0625155Y0095565D01*
X0625460Y0094828D01*
X0605476Y0074844D01*
X0592555Y0074844D01*
X0592555Y0075237D01*
X0592008Y0075783D01*
X0592555Y0076330D01*
X0592555Y0081930D01*
X0591379Y0083105D01*
X0590790Y0083105D01*
X0590790Y0085121D01*
X0590423Y0086005D01*
X0589746Y0086682D01*
X0586341Y0090088D01*
X0585456Y0090454D01*
X0582592Y0090454D01*
X0582499Y0090547D01*
X0582868Y0090916D01*
X0582868Y0095179D01*
X0582499Y0095547D01*
X0582868Y0095916D01*
X0582868Y0100179D01*
X0581692Y0101354D01*
X0580363Y0101354D01*
X0580363Y0104743D01*
X0580759Y0105139D01*
X0581257Y0106342D01*
X0581257Y0105070D01*
X0582433Y0103894D01*
X0588427Y0103894D01*
X0589602Y0105070D01*
X0589602Y0105463D01*
X0611105Y0105463D01*
X0611990Y0105829D01*
X0612667Y0106507D01*
X0613986Y0107825D01*
X0614012Y0107825D01*
X0613500Y0107313D01*
X0612655Y0105273D01*
X0612655Y0103065D01*
X0613500Y0101025D01*
X0615061Y0099464D01*
X0617101Y0098619D01*
X0619309Y0098619D01*
X0621349Y0099464D01*
X0622911Y0101025D01*
X0623756Y0103065D01*
X0623756Y0105273D01*
X0622911Y0107313D01*
X0622399Y0107825D01*
X0636145Y0107825D01*
X0637960Y0106010D01*
X0637655Y0105273D01*
X0637655Y0103065D01*
X0638500Y0101025D01*
X0640061Y0099464D01*
X0642101Y0098619D01*
X0644309Y0098619D01*
X0646349Y0099464D01*
X0647911Y0101025D01*
X0648756Y0103065D01*
X0648756Y0105273D01*
X0647911Y0107313D01*
X0646349Y0108875D01*
X0644309Y0109720D01*
X0642101Y0109720D01*
X0641364Y0109414D01*
X0638506Y0112273D01*
X0637621Y0112639D01*
X0612510Y0112639D01*
X0611625Y0112273D01*
X0610948Y0111596D01*
X0610948Y0111596D01*
X0609630Y0110277D01*
X0589602Y0110277D01*
X0589602Y0110670D01*
X0589056Y0111217D01*
X0589602Y0111763D01*
X0589602Y0117363D01*
X0588427Y0118539D01*
X0587837Y0118539D01*
X0587837Y0123506D01*
X0587470Y0124391D01*
X0586793Y0125068D01*
X0584372Y0127489D01*
X0583487Y0127856D01*
X0581608Y0127856D01*
X0581492Y0127972D01*
X0581728Y0128382D01*
X0581864Y0128887D01*
X0581864Y0130449D01*
X0581864Y0132010D01*
X0581728Y0132516D01*
X0581492Y0132926D01*
X0581883Y0133317D01*
X0581883Y0137580D01*
X0580708Y0138756D01*
X0571045Y0138756D01*
X0569869Y0137580D01*
X0569869Y0133317D01*
X0570261Y0132926D01*
X0570024Y0132516D01*
X0569889Y0132010D01*
X0569889Y0130449D01*
X0575876Y0130449D01*
X0575876Y0130449D01*
X0569889Y0130449D01*
X0569889Y0128887D01*
X0570024Y0128382D01*
X0570261Y0127972D01*
X0569869Y0127580D01*
X0569869Y0123317D01*
X0570238Y0122949D01*
X0569869Y0122580D01*
X0569869Y0118317D01*
X0571045Y0117142D01*
X0580708Y0117142D01*
X0581883Y0118317D01*
X0581883Y0122580D01*
X0581515Y0122949D01*
X0581608Y0123042D01*
X0582011Y0123042D01*
X0583023Y0122030D01*
X0583023Y0118539D01*
X0582433Y0118539D01*
X0581257Y0117363D01*
X0581257Y0111763D01*
X0581804Y0111217D01*
X0581257Y0110670D01*
X0581257Y0108217D01*
X0580759Y0109420D01*
X0579696Y0110483D01*
X0578307Y0111058D01*
X0576804Y0111058D01*
X0575415Y0110483D01*
X0574352Y0109420D01*
X0573777Y0108031D01*
X0573777Y0106528D01*
X0574352Y0105139D01*
X0574749Y0104743D01*
X0574749Y0101354D01*
X0572029Y0101354D01*
X0570853Y0100179D01*
X0570853Y0095916D01*
X0571222Y0095547D01*
X0570853Y0095179D01*
X0570853Y0090916D01*
X0571222Y0090547D01*
X0570853Y0090179D01*
X0570853Y0085916D01*
X0571245Y0085524D01*
X0571009Y0085114D01*
X0570873Y0084609D01*
X0570873Y0083047D01*
X0570873Y0081486D01*
X0571009Y0080980D01*
X0571270Y0080527D01*
X0571640Y0080157D01*
X0572093Y0079895D01*
X0572599Y0079760D01*
X0576860Y0079760D01*
X0576860Y0083047D01*
X0570873Y0083047D01*
X0576860Y0083047D01*
X0576860Y0083047D01*
X0576861Y0083047D01*
X0576861Y0083047D01*
X0582848Y0083047D01*
X0582848Y0081486D01*
X0582712Y0080980D01*
X0582451Y0080527D01*
X0582081Y0080157D01*
X0581628Y0079895D01*
X0581122Y0079760D01*
X0576861Y0079760D01*
X0576861Y0083047D01*
X0582848Y0083047D01*
X0582848Y0084609D01*
X0582712Y0085114D01*
X0582476Y0085524D01*
X0582592Y0085640D01*
X0583980Y0085640D01*
X0585975Y0083645D01*
X0585975Y0083105D01*
X0585386Y0083105D01*
X0584210Y0081930D01*
X0584210Y0076330D01*
X0584757Y0075783D01*
X0584210Y0075237D01*
X0584210Y0070310D01*
X0578496Y0070310D01*
X0577320Y0069135D01*
X0577320Y0063535D01*
X0577881Y0062974D01*
X0577737Y0062831D01*
X0577475Y0062377D01*
X0577340Y0061872D01*
X0577340Y0059642D01*
X0581493Y0059642D01*
X0581493Y0059642D01*
X0581493Y0055686D01*
X0581493Y0059642D01*
X0581493Y0059642D01*
X0577340Y0059642D01*
X0577340Y0057412D01*
X0577475Y0056906D01*
X0577737Y0056453D01*
X0578107Y0056083D01*
X0577340Y0058373D02*
X0067188Y0058373D01*
X0066310Y0060771D02*
X0072202Y0060771D01*
X0072217Y0060736D02*
X0073335Y0059618D01*
X0074796Y0059013D01*
X0076378Y0059013D01*
X0077839Y0059618D01*
X0078958Y0060736D01*
X0079563Y0062197D01*
X0079563Y0063779D01*
X0078958Y0065240D01*
X0077839Y0066359D01*
X0076378Y0066964D01*
X0074796Y0066964D01*
X0073335Y0066359D01*
X0072217Y0065240D01*
X0071612Y0063779D01*
X0071612Y0062197D01*
X0072217Y0060736D01*
X0071612Y0063170D02*
X0065960Y0063170D01*
X0065960Y0065568D02*
X0072545Y0065568D01*
X0078630Y0065568D02*
X0160189Y0065568D01*
X0160736Y0063170D02*
X0079563Y0063170D01*
X0078972Y0060771D02*
X0160736Y0060771D01*
X0157791Y0067967D02*
X0065960Y0067967D01*
X0065960Y0070365D02*
X0123707Y0070365D01*
X0123047Y0071025D02*
X0124609Y0069464D01*
X0126649Y0068619D01*
X0128857Y0068619D01*
X0130897Y0069464D01*
X0132458Y0071025D01*
X0133303Y0073065D01*
X0133303Y0075273D01*
X0132458Y0077313D01*
X0130897Y0078875D01*
X0128857Y0079720D01*
X0126649Y0079720D01*
X0124609Y0078875D01*
X0123047Y0077313D01*
X0122202Y0075273D01*
X0122202Y0073065D01*
X0123047Y0071025D01*
X0122327Y0072764D02*
X0065960Y0072764D01*
X0065960Y0075162D02*
X0122202Y0075162D01*
X0123295Y0077561D02*
X0065960Y0077561D01*
X0065960Y0079959D02*
X0151705Y0079959D01*
X0151705Y0077561D02*
X0132211Y0077561D01*
X0133303Y0075162D02*
X0151705Y0075162D01*
X0152994Y0072764D02*
X0133178Y0072764D01*
X0131798Y0070365D02*
X0155392Y0070365D01*
X0169424Y0070365D02*
X0257565Y0070365D01*
X0256905Y0071025D02*
X0258467Y0069464D01*
X0260507Y0068619D01*
X0262715Y0068619D01*
X0264755Y0069464D01*
X0266316Y0071025D01*
X0267161Y0073065D01*
X0267161Y0075273D01*
X0266316Y0077313D01*
X0264755Y0078875D01*
X0262715Y0079720D01*
X0260507Y0079720D01*
X0258467Y0078875D01*
X0256905Y0077313D01*
X0256060Y0075273D01*
X0256060Y0073065D01*
X0256905Y0071025D01*
X0256185Y0072764D02*
X0171176Y0072764D01*
X0171541Y0075162D02*
X0256060Y0075162D01*
X0257153Y0077561D02*
X0170810Y0077561D01*
X0168651Y0079959D02*
X0282426Y0079959D01*
X0282426Y0077561D02*
X0266069Y0077561D01*
X0267161Y0075162D02*
X0282426Y0075162D01*
X0282426Y0072764D02*
X0267036Y0072764D01*
X0265656Y0070365D02*
X0282426Y0070365D01*
X0282579Y0067967D02*
X0171541Y0067967D01*
X0171541Y0065568D02*
X0284589Y0065568D01*
X0286309Y0063170D02*
X0171541Y0063170D01*
X0171541Y0060771D02*
X0294594Y0060771D01*
X0294222Y0062677D02*
X0294222Y0062677D01*
X0293730Y0063170D02*
X0290062Y0063170D01*
X0303282Y0070365D02*
X0334454Y0070365D01*
X0334612Y0069985D02*
X0335537Y0069060D01*
X0336745Y0068560D01*
X0338052Y0068560D01*
X0339260Y0069060D01*
X0340185Y0069985D01*
X0340685Y0071193D01*
X0340685Y0071729D01*
X0342392Y0073436D01*
X0342758Y0074320D01*
X0342758Y0085292D01*
X0343849Y0085292D01*
X0343849Y0065229D01*
X0343470Y0064850D01*
X0342970Y0063642D01*
X0342970Y0062334D01*
X0343470Y0061126D01*
X0344395Y0060202D01*
X0345603Y0059702D01*
X0346910Y0059702D01*
X0348118Y0060202D01*
X0349043Y0061126D01*
X0349543Y0062334D01*
X0349543Y0063642D01*
X0349043Y0064850D01*
X0348664Y0065229D01*
X0348664Y0092503D01*
X0350739Y0094579D01*
X0350739Y0089835D01*
X0350360Y0089456D01*
X0349860Y0088248D01*
X0349860Y0086941D01*
X0350360Y0085733D01*
X0351285Y0084808D01*
X0352493Y0084308D01*
X0353692Y0084308D01*
X0353692Y0065229D01*
X0353313Y0064850D01*
X0352812Y0063642D01*
X0352812Y0062334D01*
X0353313Y0061126D01*
X0354237Y0060202D01*
X0355445Y0059702D01*
X0356753Y0059702D01*
X0357961Y0060202D01*
X0358885Y0061126D01*
X0359386Y0062334D01*
X0359386Y0063642D01*
X0358885Y0064850D01*
X0358506Y0065229D01*
X0358506Y0069508D01*
X0358720Y0069465D01*
X0359052Y0069465D01*
X0359383Y0069465D01*
X0360033Y0069595D01*
X0360646Y0069848D01*
X0361197Y0070217D01*
X0361666Y0070685D01*
X0362034Y0071237D01*
X0362288Y0071849D01*
X0362417Y0072499D01*
X0362417Y0072831D01*
X0362417Y0073162D01*
X0362288Y0073812D01*
X0362034Y0074425D01*
X0361666Y0074976D01*
X0361197Y0075445D01*
X0360646Y0075813D01*
X0360033Y0076067D01*
X0359383Y0076196D01*
X0359052Y0076196D01*
X0359052Y0072831D01*
X0359052Y0072831D01*
X0362417Y0072831D01*
X0359052Y0072831D01*
X0359052Y0072831D01*
X0359052Y0076196D01*
X0358720Y0076196D01*
X0358506Y0076153D01*
X0358506Y0093283D01*
X0359845Y0091944D01*
X0361885Y0091099D01*
X0363319Y0091099D01*
X0363319Y0067192D01*
X0363868Y0065866D01*
X0364883Y0064852D01*
X0366208Y0064302D01*
X0367643Y0064302D01*
X0367770Y0064355D01*
X0367770Y0063510D01*
X0368627Y0061439D01*
X0370212Y0059854D01*
X0372283Y0058996D01*
X0374525Y0058996D01*
X0376595Y0059854D01*
X0378180Y0061439D01*
X0379038Y0063510D01*
X0379038Y0065751D01*
X0378180Y0067822D01*
X0376595Y0069407D01*
X0374525Y0070265D01*
X0372283Y0070265D01*
X0370533Y0069540D01*
X0370533Y0093430D01*
X0369984Y0094756D01*
X0368539Y0096200D01*
X0368539Y0097754D01*
X0367694Y0099794D01*
X0366133Y0101355D01*
X0364215Y0102149D01*
X0365029Y0102963D01*
X0365396Y0103848D01*
X0365396Y0106946D01*
X0366595Y0106946D01*
X0367803Y0107446D01*
X0368728Y0108371D01*
X0369228Y0109579D01*
X0369228Y0110115D01*
X0370935Y0111822D01*
X0371301Y0112706D01*
X0371301Y0113544D01*
X0371392Y0112857D01*
X0371620Y0112007D01*
X0371956Y0111194D01*
X0372396Y0110432D01*
X0372932Y0109734D01*
X0373554Y0109112D01*
X0374252Y0108577D01*
X0375014Y0108137D01*
X0375827Y0107800D01*
X0376677Y0107572D01*
X0377549Y0107457D01*
X0377614Y0107457D01*
X0377614Y0113794D01*
X0378364Y0113794D01*
X0378364Y0107457D01*
X0378429Y0107457D01*
X0379301Y0107572D01*
X0380151Y0107800D01*
X0380964Y0108137D01*
X0381726Y0108577D01*
X0382424Y0109112D01*
X0383046Y0109734D01*
X0383581Y0110432D01*
X0384021Y0111194D01*
X0384358Y0112007D01*
X0384586Y0112857D01*
X0384701Y0113729D01*
X0384701Y0113794D01*
X0378364Y0113794D01*
X0378364Y0114544D01*
X0384701Y0114544D01*
X0384701Y0114609D01*
X0384586Y0115482D01*
X0384358Y0116331D01*
X0384021Y0117144D01*
X0383581Y0117906D01*
X0383046Y0118604D01*
X0382424Y0119226D01*
X0381726Y0119762D01*
X0380964Y0120202D01*
X0380151Y0120539D01*
X0379301Y0120766D01*
X0378429Y0120881D01*
X0378364Y0120881D01*
X0378364Y0114544D01*
X0377614Y0114544D01*
X0377614Y0120881D01*
X0377549Y0120881D01*
X0376677Y0120766D01*
X0375827Y0120539D01*
X0375014Y0120202D01*
X0374252Y0119762D01*
X0373554Y0119226D01*
X0372932Y0118604D01*
X0372396Y0117906D01*
X0371956Y0117144D01*
X0371620Y0116331D01*
X0371392Y0115482D01*
X0371301Y0114794D01*
X0371301Y0130889D01*
X0372281Y0131869D01*
X0372725Y0132052D01*
X0373649Y0132977D01*
X0374149Y0134185D01*
X0374149Y0135492D01*
X0373649Y0136700D01*
X0372725Y0137625D01*
X0371517Y0138125D01*
X0370209Y0138125D01*
X0369001Y0137625D01*
X0368894Y0137518D01*
X0368788Y0137625D01*
X0367580Y0138125D01*
X0366272Y0138125D01*
X0365064Y0137625D01*
X0364957Y0137518D01*
X0364851Y0137625D01*
X0363643Y0138125D01*
X0362335Y0138125D01*
X0361127Y0137625D01*
X0361020Y0137518D01*
X0360914Y0137625D01*
X0359706Y0138125D01*
X0358398Y0138125D01*
X0357190Y0137625D01*
X0356266Y0136700D01*
X0355765Y0135492D01*
X0355765Y0134185D01*
X0356266Y0132977D01*
X0357190Y0132052D01*
X0358398Y0131552D01*
X0358613Y0131552D01*
X0358613Y0126870D01*
X0350527Y0134956D01*
X0350527Y0135492D01*
X0350027Y0136700D01*
X0349103Y0137625D01*
X0347895Y0138125D01*
X0346587Y0138125D01*
X0345379Y0137625D01*
X0345272Y0137518D01*
X0345166Y0137625D01*
X0343958Y0138125D01*
X0342650Y0138125D01*
X0341442Y0137625D01*
X0340518Y0136700D01*
X0340017Y0135492D01*
X0340017Y0134185D01*
X0340518Y0132977D01*
X0341442Y0132052D01*
X0342650Y0131552D01*
X0343186Y0131552D01*
X0347767Y0126972D01*
X0347348Y0126798D01*
X0346423Y0125874D01*
X0345923Y0124666D01*
X0345923Y0123358D01*
X0346423Y0122150D01*
X0346802Y0121771D01*
X0346802Y0120901D01*
X0346650Y0120901D01*
X0344176Y0119876D01*
X0342282Y0117982D01*
X0341257Y0115508D01*
X0341257Y0112830D01*
X0342282Y0110356D01*
X0344176Y0108463D01*
X0346650Y0107438D01*
X0346907Y0107438D01*
X0346907Y0106626D01*
X0346969Y0106475D01*
X0335358Y0094863D01*
X0334991Y0093979D01*
X0334991Y0078024D01*
X0334612Y0077645D01*
X0334112Y0076437D01*
X0334112Y0075130D01*
X0334612Y0073922D01*
X0334719Y0073815D01*
X0334612Y0073708D01*
X0334112Y0072500D01*
X0334112Y0071193D01*
X0334612Y0069985D01*
X0334221Y0072764D02*
X0305034Y0072764D01*
X0305399Y0075162D02*
X0334112Y0075162D01*
X0334577Y0077561D02*
X0304668Y0077561D01*
X0302510Y0079959D02*
X0334991Y0079959D01*
X0334991Y0082358D02*
X0304834Y0082358D01*
X0305380Y0084756D02*
X0334991Y0084756D01*
X0334991Y0087155D02*
X0304798Y0087155D01*
X0302369Y0089553D02*
X0334991Y0089553D01*
X0334991Y0091952D02*
X0323756Y0091952D01*
X0323756Y0094350D02*
X0335145Y0094350D01*
X0337243Y0096749D02*
X0323756Y0096749D01*
X0332194Y0099147D02*
X0339642Y0099147D01*
X0342040Y0101546D02*
X0333106Y0101546D01*
X0332906Y0103944D02*
X0344439Y0103944D01*
X0346837Y0106343D02*
X0331421Y0106343D01*
X0331493Y0108741D02*
X0331493Y0108741D01*
X0331493Y0110232D02*
X0331493Y0110232D01*
X0331493Y0110232D01*
X0328127Y0110232D01*
X0328127Y0110564D01*
X0328257Y0111214D01*
X0328510Y0111826D01*
X0328879Y0112378D01*
X0329347Y0112846D01*
X0329899Y0113215D01*
X0330511Y0113468D01*
X0331161Y0113598D01*
X0331493Y0113598D01*
X0331493Y0110232D01*
X0331493Y0111140D02*
X0331493Y0111140D01*
X0331493Y0113538D02*
X0331493Y0113538D01*
X0332122Y0113538D02*
X0341257Y0113538D01*
X0341435Y0115937D02*
X0305572Y0115937D01*
X0305572Y0118335D02*
X0342635Y0118335D01*
X0346247Y0120734D02*
X0305572Y0120734D01*
X0305572Y0123133D02*
X0346016Y0123133D01*
X0346281Y0125531D02*
X0305572Y0125531D01*
X0305572Y0127930D02*
X0346809Y0127930D01*
X0344410Y0130328D02*
X0305572Y0130328D01*
X0305572Y0132727D02*
X0340768Y0132727D01*
X0340017Y0135125D02*
X0305572Y0135125D01*
X0305572Y0137524D02*
X0341341Y0137524D01*
X0345267Y0137524D02*
X0345278Y0137524D01*
X0349204Y0137524D02*
X0357089Y0137524D01*
X0355765Y0135125D02*
X0350527Y0135125D01*
X0352757Y0132727D02*
X0356516Y0132727D01*
X0355155Y0130328D02*
X0358613Y0130328D01*
X0358613Y0127930D02*
X0357554Y0127930D01*
X0371301Y0127930D02*
X0405726Y0127930D01*
X0404504Y0129272D02*
X0403953Y0128903D01*
X0403341Y0128650D01*
X0402690Y0128520D01*
X0402359Y0128520D01*
X0402359Y0131886D01*
X0402359Y0131886D01*
X0402359Y0135251D01*
X0402690Y0135251D01*
X0403341Y0135122D01*
X0403953Y0134868D01*
X0404504Y0134500D01*
X0404973Y0134031D01*
X0405341Y0133480D01*
X0405595Y0132867D01*
X0405724Y0132217D01*
X0405724Y0131886D01*
X0402359Y0131886D01*
X0402359Y0131886D01*
X0402359Y0135251D01*
X0402027Y0135251D01*
X0401377Y0135122D01*
X0400765Y0134868D01*
X0400390Y0134618D01*
X0400016Y0134868D01*
X0399404Y0135122D01*
X0398753Y0135251D01*
X0398422Y0135251D01*
X0398422Y0131886D01*
X0398422Y0131886D01*
X0401787Y0131886D01*
X0402359Y0131886D01*
X0405724Y0131886D01*
X0405724Y0131554D01*
X0405595Y0130904D01*
X0405341Y0130292D01*
X0404973Y0129741D01*
X0404504Y0129272D01*
X0405356Y0130328D02*
X0405726Y0130328D01*
X0405726Y0132727D02*
X0405623Y0132727D01*
X0405726Y0133465D02*
X0405726Y0108162D01*
X0405472Y0107909D01*
X0405192Y0107909D01*
X0403152Y0107064D01*
X0401591Y0105502D01*
X0400746Y0103462D01*
X0400746Y0101254D01*
X0401591Y0099214D01*
X0403152Y0097653D01*
X0405192Y0096808D01*
X0407400Y0096808D01*
X0409440Y0097653D01*
X0411001Y0099214D01*
X0411846Y0101254D01*
X0411846Y0101535D01*
X0414054Y0103742D01*
X0414740Y0105399D01*
X0414740Y0133465D01*
X0414938Y0133663D01*
X0415783Y0135703D01*
X0415783Y0137911D01*
X0414938Y0139951D01*
X0414584Y0140306D01*
X0416850Y0140306D01*
X0417229Y0139926D01*
X0418437Y0139426D01*
X0419745Y0139426D01*
X0420953Y0139926D01*
X0421877Y0140851D01*
X0422378Y0142059D01*
X0422378Y0143366D01*
X0421877Y0144574D01*
X0420953Y0145499D01*
X0419745Y0145999D01*
X0419425Y0145999D01*
X0419425Y0146217D01*
X0423072Y0146217D01*
X0424248Y0147393D01*
X0424248Y0152993D01*
X0423701Y0153539D01*
X0424248Y0154086D01*
X0424248Y0159345D01*
X0424890Y0159611D01*
X0425814Y0160536D01*
X0426315Y0161744D01*
X0426315Y0163051D01*
X0425814Y0164259D01*
X0424890Y0165184D01*
X0423682Y0165684D01*
X0423362Y0165684D01*
X0423362Y0166004D01*
X0422862Y0167212D01*
X0421937Y0168137D01*
X0420729Y0168637D01*
X0419422Y0168637D01*
X0418214Y0168137D01*
X0417835Y0167757D01*
X0383179Y0167757D01*
X0382295Y0167391D01*
X0381617Y0166714D01*
X0379604Y0164700D01*
X0379067Y0164700D01*
X0377859Y0164200D01*
X0376935Y0163275D01*
X0376435Y0162067D01*
X0376435Y0160760D01*
X0376935Y0159552D01*
X0377859Y0158627D01*
X0379067Y0158127D01*
X0380267Y0158127D01*
X0380267Y0157749D01*
X0379888Y0157370D01*
X0379387Y0156162D01*
X0379387Y0154854D01*
X0379888Y0153646D01*
X0380812Y0152722D01*
X0382020Y0152221D01*
X0383328Y0152221D01*
X0384510Y0152711D01*
X0384309Y0152225D01*
X0384309Y0150917D01*
X0384809Y0149709D01*
X0385733Y0148785D01*
X0386941Y0148284D01*
X0388249Y0148284D01*
X0389457Y0148785D01*
X0389693Y0149021D01*
X0397366Y0141349D01*
X0398043Y0140672D01*
X0398927Y0140306D01*
X0399036Y0140306D01*
X0398994Y0140091D01*
X0398994Y0139760D01*
X0402359Y0139760D01*
X0402359Y0139760D01*
X0402359Y0136394D01*
X0402690Y0136394D01*
X0403341Y0136524D01*
X0403953Y0136777D01*
X0404504Y0137146D01*
X0404683Y0137324D01*
X0404683Y0135703D01*
X0405528Y0133663D01*
X0405726Y0133465D01*
X0404922Y0135125D02*
X0403324Y0135125D01*
X0402359Y0135125D02*
X0402359Y0135125D01*
X0401393Y0135125D02*
X0399387Y0135125D01*
X0398422Y0135125D02*
X0398422Y0135125D01*
X0398422Y0135251D02*
X0398090Y0135251D01*
X0397440Y0135122D01*
X0396828Y0134868D01*
X0396277Y0134500D01*
X0395808Y0134031D01*
X0395440Y0133480D01*
X0395186Y0132867D01*
X0395057Y0132217D01*
X0395057Y0131886D01*
X0398422Y0131886D01*
X0398422Y0131886D01*
X0398422Y0135251D01*
X0397456Y0135125D02*
X0374149Y0135125D01*
X0373399Y0132727D02*
X0395158Y0132727D01*
X0395057Y0131886D02*
X0395057Y0131554D01*
X0395186Y0130904D01*
X0395440Y0130292D01*
X0395808Y0129741D01*
X0396277Y0129272D01*
X0396828Y0128903D01*
X0397440Y0128650D01*
X0398090Y0128520D01*
X0398422Y0128520D01*
X0398753Y0128520D01*
X0399404Y0128650D01*
X0400016Y0128903D01*
X0400390Y0129154D01*
X0400765Y0128903D01*
X0401377Y0128650D01*
X0402027Y0128520D01*
X0402359Y0128520D01*
X0402359Y0131886D01*
X0402359Y0131886D01*
X0402359Y0131886D01*
X0398422Y0131886D01*
X0398422Y0131886D01*
X0398422Y0128520D01*
X0398422Y0131886D01*
X0398422Y0131886D01*
X0395057Y0131886D01*
X0395425Y0130328D02*
X0371301Y0130328D01*
X0371301Y0125531D02*
X0405726Y0125531D01*
X0405726Y0123133D02*
X0371301Y0123133D01*
X0371301Y0120734D02*
X0376556Y0120734D01*
X0377614Y0120734D02*
X0378364Y0120734D01*
X0379421Y0120734D02*
X0405726Y0120734D01*
X0405726Y0118335D02*
X0383252Y0118335D01*
X0384464Y0115937D02*
X0405726Y0115937D01*
X0405726Y0113538D02*
X0384676Y0113538D01*
X0383990Y0111140D02*
X0405726Y0111140D01*
X0405726Y0108741D02*
X0381940Y0108741D01*
X0378364Y0108741D02*
X0377614Y0108741D01*
X0377614Y0111140D02*
X0378364Y0111140D01*
X0378364Y0113538D02*
X0377614Y0113538D01*
X0377614Y0115937D02*
X0378364Y0115937D01*
X0378364Y0118335D02*
X0377614Y0118335D01*
X0372726Y0118335D02*
X0371301Y0118335D01*
X0371301Y0115937D02*
X0371514Y0115937D01*
X0371301Y0113538D02*
X0371302Y0113538D01*
X0371988Y0111140D02*
X0370253Y0111140D01*
X0368881Y0108741D02*
X0374037Y0108741D01*
X0365396Y0106343D02*
X0402431Y0106343D01*
X0400945Y0103944D02*
X0365396Y0103944D01*
X0365672Y0101546D02*
X0400746Y0101546D01*
X0401657Y0099147D02*
X0367962Y0099147D01*
X0368539Y0096749D02*
X0491297Y0096749D01*
X0491297Y0097754D02*
X0491297Y0095546D01*
X0492142Y0093506D01*
X0493703Y0091944D01*
X0495743Y0091099D01*
X0497951Y0091099D01*
X0499991Y0091944D01*
X0501552Y0093506D01*
X0502397Y0095546D01*
X0502397Y0097754D01*
X0501552Y0099794D01*
X0499991Y0101355D01*
X0497951Y0102200D01*
X0495743Y0102200D01*
X0493703Y0101355D01*
X0492142Y0099794D01*
X0491297Y0097754D01*
X0491874Y0099147D02*
X0410934Y0099147D01*
X0411858Y0101546D02*
X0494164Y0101546D01*
X0499530Y0101546D02*
X0538731Y0101546D01*
X0538731Y0103944D02*
X0414138Y0103944D01*
X0414740Y0106343D02*
X0538731Y0106343D01*
X0538731Y0107831D02*
X0538731Y0091053D01*
X0539098Y0090168D01*
X0542582Y0086684D01*
X0543259Y0086007D01*
X0544144Y0085640D01*
X0546929Y0085640D01*
X0547022Y0085547D01*
X0546653Y0085179D01*
X0546653Y0080916D01*
X0547829Y0079740D01*
X0557492Y0079740D01*
X0558668Y0080916D01*
X0558668Y0085179D01*
X0558299Y0085547D01*
X0558668Y0085916D01*
X0558668Y0090179D01*
X0558606Y0090240D01*
X0562898Y0090240D01*
X0563929Y0090668D01*
X0565366Y0092105D01*
X0566156Y0092894D01*
X0566583Y0093926D01*
X0566583Y0133286D01*
X0566980Y0133682D01*
X0567555Y0135071D01*
X0567555Y0136574D01*
X0566980Y0137963D01*
X0566583Y0138360D01*
X0566583Y0159019D01*
X0566156Y0160051D01*
X0558697Y0167510D01*
X0558697Y0168071D01*
X0558121Y0169459D01*
X0557058Y0170522D01*
X0555670Y0171098D01*
X0554166Y0171098D01*
X0552777Y0170522D01*
X0551715Y0169459D01*
X0551139Y0168071D01*
X0551139Y0166567D01*
X0551462Y0165789D01*
X0547316Y0165789D01*
X0546937Y0166168D01*
X0545729Y0166668D01*
X0544422Y0166668D01*
X0543214Y0166168D01*
X0542289Y0165244D01*
X0541789Y0164036D01*
X0541789Y0162728D01*
X0542289Y0161520D01*
X0543214Y0160596D01*
X0544422Y0160095D01*
X0545729Y0160095D01*
X0546937Y0160596D01*
X0547316Y0160975D01*
X0551952Y0160975D01*
X0552066Y0160861D01*
X0551921Y0160861D01*
X0550756Y0159696D01*
X0550370Y0159919D01*
X0549865Y0160054D01*
X0548028Y0160054D01*
X0546192Y0160054D01*
X0545686Y0159919D01*
X0545233Y0159657D01*
X0544863Y0159287D01*
X0544601Y0158834D01*
X0544466Y0158329D01*
X0544466Y0156492D01*
X0544466Y0154656D01*
X0544601Y0154150D01*
X0544863Y0153697D01*
X0545007Y0153553D01*
X0544446Y0152993D01*
X0544446Y0148180D01*
X0545622Y0147005D01*
X0550434Y0147005D01*
X0550784Y0147354D01*
X0551921Y0146217D01*
X0557915Y0146217D01*
X0559090Y0147393D01*
X0559090Y0152993D01*
X0558544Y0153539D01*
X0559090Y0154086D01*
X0559090Y0159177D01*
X0560969Y0157298D01*
X0560969Y0138360D01*
X0560573Y0137963D01*
X0559998Y0136574D01*
X0559998Y0135071D01*
X0560573Y0133682D01*
X0560969Y0133286D01*
X0560969Y0125175D01*
X0559051Y0123256D01*
X0557622Y0123256D01*
X0557683Y0123317D01*
X0557683Y0127580D01*
X0557315Y0127949D01*
X0557683Y0128317D01*
X0557683Y0132580D01*
X0557315Y0132949D01*
X0557683Y0133317D01*
X0557683Y0137580D01*
X0556832Y0138431D01*
X0557058Y0138525D01*
X0558121Y0139588D01*
X0558697Y0140977D01*
X0558697Y0142480D01*
X0558121Y0143869D01*
X0557058Y0144932D01*
X0555670Y0145507D01*
X0554166Y0145507D01*
X0552777Y0144932D01*
X0551715Y0143869D01*
X0551139Y0142480D01*
X0551139Y0141919D01*
X0549297Y0140077D01*
X0548869Y0139045D01*
X0548869Y0138756D01*
X0546845Y0138756D01*
X0545669Y0137580D01*
X0545669Y0133317D01*
X0546038Y0132949D01*
X0545945Y0132856D01*
X0538651Y0132856D01*
X0535672Y0135836D01*
X0535672Y0146217D01*
X0536363Y0146217D01*
X0536363Y0146091D01*
X0536375Y0146061D01*
X0536375Y0144914D01*
X0536951Y0143525D01*
X0538014Y0142462D01*
X0539403Y0141887D01*
X0540906Y0141887D01*
X0542295Y0142462D01*
X0543358Y0143525D01*
X0543933Y0144914D01*
X0543933Y0146417D01*
X0543358Y0147806D01*
X0543342Y0147821D01*
X0543342Y0152993D01*
X0542796Y0153539D01*
X0543342Y0154086D01*
X0543342Y0159686D01*
X0542167Y0160861D01*
X0535806Y0160861D01*
X0535502Y0161596D01*
X0531630Y0165468D01*
X0531630Y0166004D01*
X0531129Y0167212D01*
X0530205Y0168137D01*
X0528997Y0168637D01*
X0527689Y0168637D01*
X0526481Y0168137D01*
X0525557Y0167212D01*
X0525057Y0166004D01*
X0525057Y0164697D01*
X0525557Y0163489D01*
X0526481Y0162564D01*
X0527689Y0162064D01*
X0528226Y0162064D01*
X0529428Y0160861D01*
X0524362Y0160861D01*
X0523186Y0159686D01*
X0523186Y0154086D01*
X0523733Y0153539D01*
X0523186Y0152993D01*
X0523186Y0147393D01*
X0524362Y0146217D01*
X0524552Y0146217D01*
X0524552Y0145249D01*
X0524155Y0144853D01*
X0523580Y0143464D01*
X0523580Y0141961D01*
X0524155Y0140572D01*
X0525218Y0139509D01*
X0526607Y0138934D01*
X0528111Y0138934D01*
X0529499Y0139509D01*
X0530562Y0140572D01*
X0530857Y0141284D01*
X0530857Y0134360D01*
X0531224Y0133475D01*
X0531901Y0132798D01*
X0536291Y0128408D01*
X0537175Y0128042D01*
X0545945Y0128042D01*
X0546038Y0127949D01*
X0545669Y0127580D01*
X0545669Y0123317D01*
X0546038Y0122949D01*
X0545669Y0122580D01*
X0545669Y0118317D01*
X0546845Y0117142D01*
X0556508Y0117142D01*
X0557008Y0117642D01*
X0560772Y0117642D01*
X0560969Y0117724D01*
X0560969Y0095854D01*
X0558606Y0095854D01*
X0558668Y0095916D01*
X0558668Y0100179D01*
X0557492Y0101354D01*
X0547829Y0101354D01*
X0546653Y0100179D01*
X0546653Y0095916D01*
X0547022Y0095547D01*
X0546653Y0095179D01*
X0546653Y0090916D01*
X0547022Y0090547D01*
X0546929Y0090454D01*
X0545620Y0090454D01*
X0543546Y0092529D01*
X0543546Y0107831D01*
X0544135Y0107831D01*
X0545311Y0109007D01*
X0545311Y0114607D01*
X0544764Y0115154D01*
X0545311Y0115700D01*
X0545311Y0121300D01*
X0544135Y0122476D01*
X0538142Y0122476D01*
X0536966Y0121300D01*
X0536966Y0120907D01*
X0531899Y0120907D01*
X0522876Y0129930D01*
X0522876Y0163109D01*
X0523255Y0163489D01*
X0523756Y0164697D01*
X0523756Y0166004D01*
X0523255Y0167212D01*
X0522331Y0168137D01*
X0521123Y0168637D01*
X0519815Y0168637D01*
X0518607Y0168137D01*
X0517683Y0167212D01*
X0517183Y0166004D01*
X0517183Y0164697D01*
X0517683Y0163489D01*
X0518062Y0163109D01*
X0518062Y0128454D01*
X0518429Y0127570D01*
X0528862Y0117136D01*
X0529539Y0116459D01*
X0530423Y0116093D01*
X0536966Y0116093D01*
X0536966Y0115700D01*
X0537513Y0115154D01*
X0536966Y0114607D01*
X0536966Y0109007D01*
X0538142Y0107831D01*
X0538731Y0107831D01*
X0537232Y0108741D02*
X0515799Y0108741D01*
X0515584Y0108577D02*
X0516282Y0109112D01*
X0516904Y0109734D01*
X0517440Y0110432D01*
X0517880Y0111194D01*
X0518216Y0112007D01*
X0518444Y0112857D01*
X0518559Y0113729D01*
X0518559Y0113794D01*
X0512222Y0113794D01*
X0512222Y0107457D01*
X0512287Y0107457D01*
X0513159Y0107572D01*
X0514009Y0107800D01*
X0514822Y0108137D01*
X0515584Y0108577D01*
X0512222Y0108741D02*
X0511472Y0108741D01*
X0511472Y0107457D02*
X0511472Y0113794D01*
X0512222Y0113794D01*
X0512222Y0114544D01*
X0518559Y0114544D01*
X0518559Y0114609D01*
X0518444Y0115482D01*
X0518216Y0116331D01*
X0517880Y0117144D01*
X0517440Y0117906D01*
X0516904Y0118604D01*
X0516282Y0119226D01*
X0515584Y0119762D01*
X0514822Y0120202D01*
X0514009Y0120539D01*
X0513159Y0120766D01*
X0512287Y0120881D01*
X0512222Y0120881D01*
X0512222Y0114544D01*
X0511472Y0114544D01*
X0511472Y0113794D01*
X0505135Y0113794D01*
X0505135Y0113729D01*
X0505250Y0112857D01*
X0505478Y0112007D01*
X0505815Y0111194D01*
X0506254Y0110432D01*
X0506790Y0109734D01*
X0507412Y0109112D01*
X0508110Y0108577D01*
X0508872Y0108137D01*
X0509685Y0107800D01*
X0510535Y0107572D01*
X0511407Y0107457D01*
X0511472Y0107457D01*
X0511472Y0111140D02*
X0512222Y0111140D01*
X0512222Y0113538D02*
X0511472Y0113538D01*
X0511472Y0114544D02*
X0505135Y0114544D01*
X0505135Y0114609D01*
X0505250Y0115482D01*
X0505478Y0116331D01*
X0505815Y0117144D01*
X0506254Y0117906D01*
X0506790Y0118604D01*
X0507412Y0119226D01*
X0508110Y0119762D01*
X0508872Y0120202D01*
X0509685Y0120539D01*
X0510535Y0120766D01*
X0511407Y0120881D01*
X0511472Y0120881D01*
X0511472Y0114544D01*
X0511472Y0115937D02*
X0512222Y0115937D01*
X0512222Y0118335D02*
X0511472Y0118335D01*
X0511472Y0120734D02*
X0512222Y0120734D01*
X0513280Y0120734D02*
X0525264Y0120734D01*
X0522866Y0123133D02*
X0484490Y0123133D01*
X0484490Y0125531D02*
X0520467Y0125531D01*
X0518279Y0127930D02*
X0484490Y0127930D01*
X0484490Y0130328D02*
X0518062Y0130328D01*
X0518062Y0132727D02*
X0484490Y0132727D01*
X0484490Y0135125D02*
X0518062Y0135125D01*
X0518062Y0137524D02*
X0484490Y0137524D01*
X0484490Y0139922D02*
X0518062Y0139922D01*
X0518062Y0142321D02*
X0484443Y0142321D01*
X0484490Y0142207D02*
X0484386Y0142460D01*
X0484386Y0143366D01*
X0483885Y0144574D01*
X0483506Y0144953D01*
X0483506Y0151298D01*
X0483885Y0151678D01*
X0484386Y0152886D01*
X0484386Y0154193D01*
X0483885Y0155401D01*
X0482961Y0156326D01*
X0481753Y0156826D01*
X0480445Y0156826D01*
X0479237Y0156326D01*
X0478313Y0155401D01*
X0477812Y0154193D01*
X0477812Y0152886D01*
X0478313Y0151678D01*
X0478692Y0151298D01*
X0478692Y0144953D01*
X0478313Y0144574D01*
X0477812Y0143366D01*
X0477812Y0142059D01*
X0478313Y0140851D01*
X0479237Y0139926D01*
X0479676Y0139745D01*
X0479676Y0120556D01*
X0478034Y0119876D01*
X0476140Y0117982D01*
X0475116Y0115508D01*
X0475116Y0112830D01*
X0476140Y0110356D01*
X0478034Y0108463D01*
X0480508Y0107438D01*
X0483186Y0107438D01*
X0485660Y0108463D01*
X0487554Y0110356D01*
X0488579Y0112830D01*
X0488579Y0115508D01*
X0487554Y0117982D01*
X0485660Y0119876D01*
X0484490Y0120361D01*
X0484490Y0142207D01*
X0483741Y0144719D02*
X0518062Y0144719D01*
X0518062Y0147118D02*
X0483506Y0147118D01*
X0483506Y0149516D02*
X0518062Y0149516D01*
X0518062Y0151915D02*
X0483983Y0151915D01*
X0484336Y0154313D02*
X0518062Y0154313D01*
X0518062Y0156712D02*
X0482029Y0156712D01*
X0480169Y0156712D02*
X0433197Y0156712D01*
X0433154Y0156495D02*
X0433283Y0157145D01*
X0433283Y0157476D01*
X0429918Y0157476D01*
X0429918Y0154111D01*
X0430249Y0154111D01*
X0430900Y0154240D01*
X0431512Y0154494D01*
X0432063Y0154862D01*
X0432532Y0155331D01*
X0432900Y0155882D01*
X0433154Y0156495D01*
X0433283Y0157476D02*
X0433283Y0157808D01*
X0433154Y0158458D01*
X0432900Y0159070D01*
X0432532Y0159622D01*
X0432063Y0160090D01*
X0431512Y0160459D01*
X0430900Y0160712D01*
X0430249Y0160842D01*
X0429918Y0160842D01*
X0429918Y0157477D01*
X0429918Y0160842D01*
X0429587Y0160842D01*
X0428936Y0160712D01*
X0428324Y0160459D01*
X0427773Y0160090D01*
X0427304Y0159622D01*
X0426936Y0159070D01*
X0426682Y0158458D01*
X0426553Y0157808D01*
X0426553Y0157476D01*
X0426553Y0157145D01*
X0426682Y0156495D01*
X0426936Y0155882D01*
X0427304Y0155331D01*
X0427773Y0154862D01*
X0428324Y0154494D01*
X0428936Y0154240D01*
X0429587Y0154111D01*
X0429918Y0154111D01*
X0429918Y0157476D01*
X0429918Y0157476D01*
X0429918Y0157476D01*
X0426553Y0157476D01*
X0429918Y0157476D01*
X0429918Y0157476D01*
X0433283Y0157476D01*
X0432874Y0159110D02*
X0518062Y0159110D01*
X0518062Y0161509D02*
X0426217Y0161509D01*
X0425960Y0163907D02*
X0517510Y0163907D01*
X0517307Y0166306D02*
X0423237Y0166306D01*
X0424248Y0159110D02*
X0426962Y0159110D01*
X0426639Y0156712D02*
X0424248Y0156712D01*
X0424248Y0154313D02*
X0428761Y0154313D01*
X0429918Y0154313D02*
X0429918Y0154313D01*
X0431075Y0154313D02*
X0477862Y0154313D01*
X0478215Y0151915D02*
X0424248Y0151915D01*
X0424248Y0149516D02*
X0478692Y0149516D01*
X0478692Y0147118D02*
X0423972Y0147118D01*
X0421733Y0144719D02*
X0478458Y0144719D01*
X0477812Y0142321D02*
X0422378Y0142321D01*
X0420943Y0139922D02*
X0479248Y0139922D01*
X0479676Y0137524D02*
X0415783Y0137524D01*
X0415544Y0135125D02*
X0479676Y0135125D01*
X0479676Y0132727D02*
X0414740Y0132727D01*
X0414740Y0130328D02*
X0479676Y0130328D01*
X0479676Y0127930D02*
X0414740Y0127930D01*
X0414740Y0125531D02*
X0479676Y0125531D01*
X0479676Y0123133D02*
X0414740Y0123133D01*
X0414740Y0120734D02*
X0479676Y0120734D01*
X0476494Y0118335D02*
X0414740Y0118335D01*
X0414740Y0115937D02*
X0475293Y0115937D01*
X0475116Y0113538D02*
X0414740Y0113538D01*
X0414740Y0111140D02*
X0475816Y0111140D01*
X0477755Y0108741D02*
X0414740Y0108741D01*
X0402359Y0130328D02*
X0402359Y0130328D01*
X0402359Y0132727D02*
X0402359Y0132727D01*
X0402359Y0136394D02*
X0402359Y0139760D01*
X0402359Y0139760D01*
X0398994Y0139760D01*
X0398994Y0139428D01*
X0399123Y0138778D01*
X0399377Y0138166D01*
X0399745Y0137615D01*
X0400214Y0137146D01*
X0400765Y0136777D01*
X0401377Y0136524D01*
X0402027Y0136394D01*
X0402359Y0136394D01*
X0402359Y0137524D02*
X0402359Y0137524D01*
X0399836Y0137524D02*
X0372826Y0137524D01*
X0368900Y0137524D02*
X0368889Y0137524D01*
X0364963Y0137524D02*
X0364952Y0137524D01*
X0361026Y0137524D02*
X0361015Y0137524D01*
X0385002Y0149516D02*
X0320820Y0149516D01*
X0320508Y0149387D02*
X0322034Y0150019D01*
X0323202Y0151187D01*
X0323834Y0152713D01*
X0323834Y0154365D01*
X0323202Y0155892D01*
X0322034Y0157060D01*
X0320508Y0157692D01*
X0318856Y0157692D01*
X0317329Y0157060D01*
X0316161Y0155892D01*
X0315529Y0154365D01*
X0315529Y0152713D01*
X0316161Y0151187D01*
X0317329Y0150019D01*
X0318856Y0149387D01*
X0320508Y0149387D01*
X0318543Y0149516D02*
X0305572Y0149516D01*
X0305572Y0147118D02*
X0391597Y0147118D01*
X0393996Y0144719D02*
X0305572Y0144719D01*
X0305572Y0142321D02*
X0396394Y0142321D01*
X0398994Y0139922D02*
X0305572Y0139922D01*
X0305572Y0151915D02*
X0315860Y0151915D01*
X0315529Y0154313D02*
X0305572Y0154313D01*
X0305572Y0156712D02*
X0316981Y0156712D01*
X0322382Y0156712D02*
X0379615Y0156712D01*
X0379611Y0154313D02*
X0323834Y0154313D01*
X0323504Y0151915D02*
X0384309Y0151915D01*
X0391764Y0156712D02*
X0392570Y0156712D01*
X0392623Y0156659D02*
X0393831Y0156158D01*
X0395139Y0156158D01*
X0396347Y0156659D01*
X0397271Y0157583D01*
X0397772Y0158791D01*
X0397772Y0159006D01*
X0399350Y0159006D01*
X0399123Y0158458D01*
X0398994Y0157808D01*
X0398994Y0157476D01*
X0398994Y0157145D01*
X0399123Y0156495D01*
X0399377Y0155882D01*
X0399745Y0155331D01*
X0400214Y0154862D01*
X0400765Y0154494D01*
X0401377Y0154240D01*
X0402027Y0154111D01*
X0402143Y0154111D01*
X0402143Y0152713D01*
X0402446Y0151983D01*
X0402359Y0151983D01*
X0402359Y0148618D01*
X0402359Y0148618D01*
X0405724Y0148618D01*
X0405724Y0148287D01*
X0405595Y0147636D01*
X0405368Y0147088D01*
X0411680Y0147088D01*
X0410588Y0148180D01*
X0410588Y0152993D01*
X0411149Y0153553D01*
X0411005Y0153697D01*
X0410743Y0154150D01*
X0410608Y0154656D01*
X0410608Y0156492D01*
X0414170Y0156492D01*
X0414170Y0156492D01*
X0410608Y0156492D01*
X0410608Y0158329D01*
X0410743Y0158834D01*
X0410843Y0159006D01*
X0405368Y0159006D01*
X0405595Y0158458D01*
X0405724Y0157808D01*
X0405724Y0157692D01*
X0407122Y0157692D01*
X0408648Y0157060D01*
X0409816Y0155892D01*
X0410449Y0154365D01*
X0410449Y0152713D01*
X0409816Y0151187D01*
X0408648Y0150019D01*
X0407122Y0149387D01*
X0405637Y0149387D01*
X0405724Y0148950D01*
X0405724Y0148618D01*
X0402359Y0148618D01*
X0402359Y0148618D01*
X0402359Y0151983D01*
X0402027Y0151983D01*
X0401377Y0151854D01*
X0400765Y0151600D01*
X0400214Y0151232D01*
X0399745Y0150763D01*
X0399377Y0150212D01*
X0399123Y0149600D01*
X0399082Y0149394D01*
X0390927Y0157548D01*
X0390042Y0157915D01*
X0389836Y0157915D01*
X0389457Y0158294D01*
X0388249Y0158794D01*
X0386941Y0158794D01*
X0385733Y0158294D01*
X0385134Y0157695D01*
X0385081Y0157749D01*
X0385081Y0159432D01*
X0386624Y0160975D01*
X0391561Y0160975D01*
X0391198Y0160099D01*
X0391198Y0158791D01*
X0391699Y0157583D01*
X0392623Y0156659D01*
X0394162Y0154313D02*
X0401202Y0154313D01*
X0401682Y0151915D02*
X0396561Y0151915D01*
X0398960Y0149516D02*
X0399106Y0149516D01*
X0402359Y0149516D02*
X0402359Y0149516D01*
X0402359Y0151915D02*
X0402359Y0151915D01*
X0407435Y0149516D02*
X0410588Y0149516D01*
X0410588Y0151915D02*
X0410118Y0151915D01*
X0410449Y0154313D02*
X0410700Y0154313D01*
X0410608Y0156712D02*
X0408996Y0156712D01*
X0402359Y0157476D02*
X0398994Y0157476D01*
X0402359Y0157476D01*
X0402359Y0157476D01*
X0399080Y0156712D02*
X0396400Y0156712D01*
X0391198Y0159110D02*
X0385081Y0159110D01*
X0377376Y0159110D02*
X0305572Y0159110D01*
X0301444Y0168946D02*
X0301232Y0169459D01*
X0300169Y0170522D01*
X0298780Y0171098D01*
X0297277Y0171098D01*
X0295888Y0170522D01*
X0294825Y0169459D01*
X0294653Y0169045D01*
X0293986Y0168378D01*
X0293437Y0167052D01*
X0293437Y0165684D01*
X0292453Y0165684D01*
X0291245Y0165184D01*
X0290321Y0164259D01*
X0289820Y0163051D01*
X0289820Y0161744D01*
X0290300Y0160586D01*
X0290300Y0156174D01*
X0289780Y0156522D01*
X0289167Y0156775D01*
X0288517Y0156905D01*
X0288186Y0156905D01*
X0288186Y0153539D01*
X0288186Y0150174D01*
X0288186Y0153539D01*
X0288186Y0153539D01*
X0286827Y0153539D01*
X0283265Y0153539D01*
X0283265Y0153539D01*
X0288186Y0153539D01*
X0288186Y0153539D01*
X0288186Y0153539D01*
X0288186Y0156905D01*
X0287854Y0156905D01*
X0287204Y0156775D01*
X0286592Y0156522D01*
X0286382Y0156382D01*
X0286060Y0156704D01*
X0285606Y0156966D01*
X0285101Y0157102D01*
X0283264Y0157102D01*
X0281428Y0157102D01*
X0280923Y0156966D01*
X0280469Y0156704D01*
X0280326Y0156561D01*
X0279765Y0157121D01*
X0275634Y0157121D01*
X0275634Y0157535D01*
X0274871Y0159376D01*
X0273463Y0160784D01*
X0271623Y0161546D01*
X0269631Y0161546D01*
X0267790Y0160784D01*
X0266382Y0159376D01*
X0265627Y0157552D01*
X0264871Y0159376D01*
X0263463Y0160784D01*
X0261623Y0161546D01*
X0259631Y0161546D01*
X0257790Y0160784D01*
X0256382Y0159376D01*
X0255627Y0157552D01*
X0254871Y0159376D01*
X0254234Y0160013D01*
X0254234Y0168948D01*
X0254405Y0169363D01*
X0254405Y0170866D01*
X0253830Y0172255D01*
X0253076Y0173009D01*
X0305507Y0173009D01*
X0301444Y0168946D01*
X0303601Y0171103D02*
X0254307Y0171103D01*
X0254234Y0168704D02*
X0294312Y0168704D01*
X0293437Y0166306D02*
X0254234Y0166306D01*
X0254234Y0163907D02*
X0290175Y0163907D01*
X0289918Y0161509D02*
X0271714Y0161509D01*
X0269540Y0161509D02*
X0261714Y0161509D01*
X0259540Y0161509D02*
X0254234Y0161509D01*
X0254981Y0159110D02*
X0256272Y0159110D01*
X0264981Y0159110D02*
X0266272Y0159110D01*
X0274981Y0159110D02*
X0290300Y0159110D01*
X0290300Y0156712D02*
X0289321Y0156712D01*
X0288186Y0156712D02*
X0288186Y0156712D01*
X0287050Y0156712D02*
X0286047Y0156712D01*
X0283264Y0156712D02*
X0283264Y0156712D01*
X0283264Y0157102D02*
X0283264Y0153539D01*
X0283264Y0153539D01*
X0283264Y0157102D01*
X0283264Y0154313D02*
X0283264Y0154313D01*
X0280482Y0156712D02*
X0280175Y0156712D01*
X0288186Y0154313D02*
X0288186Y0154313D01*
X0288186Y0151915D02*
X0288186Y0151915D01*
X0287634Y0149516D02*
X0290300Y0149516D01*
X0290300Y0147118D02*
X0287634Y0147118D01*
X0287634Y0144719D02*
X0290300Y0144719D01*
X0290300Y0142321D02*
X0285672Y0142321D01*
X0285672Y0139922D02*
X0290300Y0139922D01*
X0290300Y0137524D02*
X0285672Y0137524D01*
X0285672Y0135125D02*
X0290300Y0135125D01*
X0290300Y0132727D02*
X0285672Y0132727D01*
X0285672Y0130328D02*
X0290300Y0130328D01*
X0290300Y0127930D02*
X0285672Y0127930D01*
X0285672Y0125531D02*
X0290300Y0125531D01*
X0290300Y0123133D02*
X0285672Y0123133D01*
X0285672Y0120734D02*
X0290300Y0120734D01*
X0290300Y0118335D02*
X0285672Y0118335D01*
X0286090Y0115937D02*
X0290300Y0115937D01*
X0290300Y0113538D02*
X0286551Y0113538D01*
X0288076Y0111140D02*
X0284539Y0111140D01*
X0281990Y0111140D02*
X0250132Y0111140D01*
X0250163Y0111194D02*
X0250500Y0112007D01*
X0250728Y0112857D01*
X0250842Y0113729D01*
X0250842Y0113794D01*
X0244505Y0113794D01*
X0244505Y0107457D01*
X0244570Y0107457D01*
X0245443Y0107572D01*
X0246293Y0107800D01*
X0247105Y0108137D01*
X0247867Y0108577D01*
X0248565Y0109112D01*
X0249188Y0109734D01*
X0249723Y0110432D01*
X0250163Y0111194D01*
X0250817Y0113538D02*
X0279978Y0113538D01*
X0280439Y0115937D02*
X0250605Y0115937D01*
X0250500Y0116331D02*
X0250163Y0117144D01*
X0249723Y0117906D01*
X0249188Y0118604D01*
X0248565Y0119226D01*
X0247867Y0119762D01*
X0247105Y0120202D01*
X0246293Y0120539D01*
X0245443Y0120766D01*
X0244570Y0120881D01*
X0244505Y0120881D01*
X0244505Y0114544D01*
X0243756Y0114544D01*
X0243756Y0120881D01*
X0243691Y0120881D01*
X0242818Y0120766D01*
X0241968Y0120539D01*
X0241156Y0120202D01*
X0240394Y0119762D01*
X0239696Y0119226D01*
X0239074Y0118604D01*
X0238538Y0117906D01*
X0238098Y0117144D01*
X0237761Y0116331D01*
X0237534Y0115482D01*
X0237419Y0114609D01*
X0237419Y0114544D01*
X0243756Y0114544D01*
X0243756Y0113794D01*
X0244505Y0113794D01*
X0244505Y0114544D01*
X0250842Y0114544D01*
X0250842Y0114609D01*
X0250728Y0115482D01*
X0250500Y0116331D01*
X0249394Y0118335D02*
X0280857Y0118335D01*
X0280857Y0120734D02*
X0245563Y0120734D01*
X0244505Y0120734D02*
X0243756Y0120734D01*
X0242698Y0120734D02*
X0215872Y0120734D01*
X0215470Y0120901D02*
X0212792Y0120901D01*
X0210317Y0119876D01*
X0208424Y0117982D01*
X0207399Y0115508D01*
X0207399Y0112830D01*
X0208424Y0110356D01*
X0210317Y0108463D01*
X0212792Y0107438D01*
X0215470Y0107438D01*
X0217944Y0108463D01*
X0219837Y0110356D01*
X0220862Y0112830D01*
X0220862Y0115508D01*
X0219837Y0117982D01*
X0217944Y0119876D01*
X0215470Y0120901D01*
X0212389Y0120734D02*
X0171714Y0120734D01*
X0171714Y0123133D02*
X0280857Y0123133D01*
X0280857Y0125531D02*
X0171714Y0125531D01*
X0171714Y0127930D02*
X0280857Y0127930D01*
X0280857Y0130328D02*
X0171714Y0130328D01*
X0171714Y0132727D02*
X0280857Y0132727D01*
X0280857Y0135125D02*
X0171714Y0135125D01*
X0171714Y0137524D02*
X0211585Y0137524D01*
X0213212Y0137524D02*
X0280857Y0137524D01*
X0280857Y0139922D02*
X0215615Y0139922D01*
X0215303Y0142321D02*
X0270435Y0142321D01*
X0268430Y0144719D02*
X0212393Y0144719D01*
X0211294Y0147118D02*
X0246967Y0147118D01*
X0245631Y0149516D02*
X0212630Y0149516D01*
X0212642Y0151915D02*
X0245620Y0151915D01*
X0245620Y0154313D02*
X0212642Y0154313D01*
X0212642Y0156712D02*
X0245620Y0156712D01*
X0246272Y0159110D02*
X0211989Y0159110D01*
X0208722Y0161509D02*
X0247020Y0161509D01*
X0247020Y0163907D02*
X0191242Y0163907D01*
X0191242Y0161509D02*
X0196547Y0161509D01*
X0198722Y0161509D02*
X0206547Y0161509D01*
X0203280Y0159110D02*
X0201989Y0159110D01*
X0193280Y0159110D02*
X0191989Y0159110D01*
X0184027Y0161509D02*
X0171714Y0161509D01*
X0171714Y0163907D02*
X0184027Y0163907D01*
X0184027Y0166306D02*
X0171714Y0166306D01*
X0171714Y0168704D02*
X0184027Y0168704D01*
X0183954Y0171103D02*
X0171667Y0171103D01*
X0164547Y0171103D02*
X0070038Y0171103D01*
X0067701Y0168704D02*
X0073319Y0168704D01*
X0073335Y0168721D02*
X0072217Y0167602D01*
X0071612Y0166141D01*
X0071612Y0164560D01*
X0072217Y0163098D01*
X0073335Y0161980D01*
X0074796Y0161375D01*
X0076378Y0161375D01*
X0077839Y0161980D01*
X0078958Y0163098D01*
X0079563Y0164560D01*
X0079563Y0166141D01*
X0078958Y0167602D01*
X0077839Y0168721D01*
X0076378Y0169326D01*
X0074796Y0169326D01*
X0073335Y0168721D01*
X0071680Y0166306D02*
X0066540Y0166306D01*
X0066002Y0163907D02*
X0071882Y0163907D01*
X0074473Y0161509D02*
X0065960Y0161509D01*
X0065960Y0159110D02*
X0159579Y0159110D01*
X0159579Y0156712D02*
X0155463Y0156712D01*
X0155309Y0156775D02*
X0154659Y0156905D01*
X0154327Y0156905D01*
X0153996Y0156905D01*
X0153346Y0156775D01*
X0152733Y0156522D01*
X0152524Y0156382D01*
X0152201Y0156704D01*
X0151748Y0156966D01*
X0151243Y0157102D01*
X0149406Y0157102D01*
X0149406Y0153539D01*
X0149406Y0153539D01*
X0154327Y0153539D01*
X0154327Y0153539D01*
X0154327Y0153539D01*
X0154327Y0150174D01*
X0154659Y0150174D01*
X0155309Y0150303D01*
X0155922Y0150557D01*
X0156473Y0150925D01*
X0156941Y0151394D01*
X0157310Y0151945D01*
X0157563Y0152558D01*
X0157693Y0153208D01*
X0157693Y0153539D01*
X0154328Y0153539D01*
X0154328Y0153539D01*
X0157693Y0153539D01*
X0157693Y0153871D01*
X0157563Y0154521D01*
X0157310Y0155133D01*
X0156941Y0155685D01*
X0156473Y0156153D01*
X0155922Y0156522D01*
X0155309Y0156775D01*
X0154327Y0156712D02*
X0154327Y0156712D01*
X0154327Y0156905D02*
X0154327Y0153539D01*
X0154327Y0153539D01*
X0154327Y0156905D01*
X0153192Y0156712D02*
X0152189Y0156712D01*
X0149406Y0156712D02*
X0149406Y0156712D01*
X0149406Y0154313D02*
X0149406Y0154313D01*
X0146624Y0156712D02*
X0146316Y0156712D01*
X0140685Y0156712D02*
X0065960Y0156712D01*
X0065960Y0154313D02*
X0139919Y0154313D01*
X0139919Y0151915D02*
X0065960Y0151915D01*
X0065960Y0149516D02*
X0139131Y0149516D01*
X0139131Y0147118D02*
X0065960Y0147118D01*
X0065960Y0144719D02*
X0139131Y0144719D01*
X0139131Y0142321D02*
X0065960Y0142321D01*
X0065960Y0139922D02*
X0139131Y0139922D01*
X0139919Y0137524D02*
X0065960Y0137524D01*
X0065960Y0135125D02*
X0139919Y0135125D01*
X0139919Y0132727D02*
X0065960Y0132727D01*
X0065960Y0130328D02*
X0139919Y0130328D01*
X0139131Y0127930D02*
X0065960Y0127930D01*
X0065960Y0125531D02*
X0139131Y0125531D01*
X0139131Y0123133D02*
X0065960Y0123133D01*
X0065960Y0120734D02*
X0078531Y0120734D01*
X0078933Y0120901D02*
X0076459Y0119876D01*
X0074566Y0117982D01*
X0073541Y0115508D01*
X0073541Y0112830D01*
X0074566Y0110356D01*
X0076459Y0108463D01*
X0078933Y0107438D01*
X0081611Y0107438D01*
X0084085Y0108463D01*
X0085979Y0110356D01*
X0087004Y0112830D01*
X0087004Y0115508D01*
X0085979Y0117982D01*
X0084085Y0119876D01*
X0081611Y0120901D01*
X0078933Y0120901D01*
X0082014Y0120734D02*
X0108840Y0120734D01*
X0108960Y0120766D02*
X0108110Y0120539D01*
X0107297Y0120202D01*
X0106535Y0119762D01*
X0105837Y0119226D01*
X0105215Y0118604D01*
X0104680Y0117906D01*
X0104240Y0117144D01*
X0103903Y0116331D01*
X0103675Y0115482D01*
X0103560Y0114609D01*
X0103560Y0114544D01*
X0109897Y0114544D01*
X0109897Y0113794D01*
X0103560Y0113794D01*
X0103560Y0113729D01*
X0103675Y0112857D01*
X0103903Y0112007D01*
X0104240Y0111194D01*
X0104680Y0110432D01*
X0105215Y0109734D01*
X0105837Y0109112D01*
X0106535Y0108577D01*
X0107297Y0108137D01*
X0108110Y0107800D01*
X0108960Y0107572D01*
X0109832Y0107457D01*
X0109897Y0107457D01*
X0109897Y0113794D01*
X0110647Y0113794D01*
X0110647Y0107457D01*
X0110712Y0107457D01*
X0111585Y0107572D01*
X0112434Y0107800D01*
X0113247Y0108137D01*
X0114009Y0108577D01*
X0114707Y0109112D01*
X0115329Y0109734D01*
X0115865Y0110432D01*
X0116305Y0111194D01*
X0116642Y0112007D01*
X0116869Y0112857D01*
X0116984Y0113729D01*
X0116984Y0113794D01*
X0110647Y0113794D01*
X0110647Y0114544D01*
X0109897Y0114544D01*
X0109897Y0120881D01*
X0109832Y0120881D01*
X0108960Y0120766D01*
X0109897Y0120734D02*
X0110647Y0120734D01*
X0110647Y0120881D02*
X0110712Y0120881D01*
X0111585Y0120766D01*
X0112434Y0120539D01*
X0113247Y0120202D01*
X0114009Y0119762D01*
X0114707Y0119226D01*
X0115329Y0118604D01*
X0115865Y0117906D01*
X0116305Y0117144D01*
X0116642Y0116331D01*
X0116869Y0115482D01*
X0116984Y0114609D01*
X0116984Y0114544D01*
X0110647Y0114544D01*
X0110647Y0120881D01*
X0111705Y0120734D02*
X0145343Y0120734D01*
X0155438Y0120734D02*
X0156234Y0120734D01*
X0159579Y0118335D02*
X0115536Y0118335D01*
X0116747Y0115937D02*
X0159579Y0115937D01*
X0159579Y0113538D02*
X0116959Y0113538D01*
X0116273Y0111140D02*
X0159579Y0111140D01*
X0157578Y0108741D02*
X0114224Y0108741D01*
X0110647Y0108741D02*
X0109897Y0108741D01*
X0109897Y0111140D02*
X0110647Y0111140D01*
X0110647Y0113538D02*
X0109897Y0113538D01*
X0109897Y0115937D02*
X0110647Y0115937D01*
X0110647Y0118335D02*
X0109897Y0118335D01*
X0105009Y0118335D02*
X0085626Y0118335D01*
X0086826Y0115937D02*
X0103797Y0115937D01*
X0103586Y0113538D02*
X0087004Y0113538D01*
X0086304Y0111140D02*
X0104271Y0111140D01*
X0106321Y0108741D02*
X0084364Y0108741D01*
X0076180Y0108741D02*
X0065960Y0108741D01*
X0065960Y0106343D02*
X0155179Y0106343D01*
X0152781Y0103944D02*
X0065960Y0103944D01*
X0065960Y0101546D02*
X0092589Y0101546D01*
X0092128Y0101355D02*
X0090567Y0099794D01*
X0089722Y0097754D01*
X0089722Y0095546D01*
X0090567Y0093506D01*
X0092128Y0091944D01*
X0094168Y0091099D01*
X0096376Y0091099D01*
X0098416Y0091944D01*
X0099978Y0093506D01*
X0100823Y0095546D01*
X0100823Y0097754D01*
X0099978Y0099794D01*
X0098416Y0101355D01*
X0096376Y0102200D01*
X0094168Y0102200D01*
X0092128Y0101355D01*
X0090299Y0099147D02*
X0065960Y0099147D01*
X0065960Y0096749D02*
X0089722Y0096749D01*
X0090217Y0094350D02*
X0065960Y0094350D01*
X0065960Y0091952D02*
X0092121Y0091952D01*
X0093678Y0089593D02*
X0093127Y0089224D01*
X0092658Y0088756D01*
X0092290Y0088204D01*
X0092036Y0087592D01*
X0091907Y0086942D01*
X0091907Y0086610D01*
X0091907Y0086279D01*
X0092036Y0085629D01*
X0092290Y0085016D01*
X0092658Y0084465D01*
X0093127Y0083996D01*
X0093678Y0083628D01*
X0094291Y0083374D01*
X0094941Y0083245D01*
X0095272Y0083245D01*
X0095272Y0086610D01*
X0091907Y0086610D01*
X0095272Y0086610D01*
X0095272Y0086610D01*
X0095272Y0086610D01*
X0095272Y0083245D01*
X0095604Y0083245D01*
X0096254Y0083374D01*
X0096866Y0083628D01*
X0097418Y0083996D01*
X0097886Y0084465D01*
X0098255Y0085016D01*
X0098508Y0085629D01*
X0098638Y0086279D01*
X0098638Y0086610D01*
X0095272Y0086610D01*
X0095272Y0089976D01*
X0094941Y0089976D01*
X0094291Y0089846D01*
X0093678Y0089593D01*
X0093620Y0089553D02*
X0065960Y0089553D01*
X0065960Y0087155D02*
X0091949Y0087155D01*
X0092464Y0084756D02*
X0065960Y0084756D01*
X0065960Y0082358D02*
X0151705Y0082358D01*
X0151705Y0084756D02*
X0098081Y0084756D01*
X0098638Y0086610D02*
X0098638Y0086942D01*
X0098508Y0087592D01*
X0098255Y0088204D01*
X0097886Y0088756D01*
X0097418Y0089224D01*
X0096866Y0089593D01*
X0096254Y0089846D01*
X0095604Y0089976D01*
X0095272Y0089976D01*
X0095272Y0086610D01*
X0095272Y0086610D01*
X0095272Y0086610D01*
X0098638Y0086610D01*
X0098595Y0087155D02*
X0151705Y0087155D01*
X0151705Y0089553D02*
X0096925Y0089553D01*
X0095272Y0089553D02*
X0095272Y0089553D01*
X0095272Y0087155D02*
X0095272Y0087155D01*
X0095272Y0084756D02*
X0095272Y0084756D01*
X0098424Y0091952D02*
X0151705Y0091952D01*
X0151705Y0094350D02*
X0100328Y0094350D01*
X0100823Y0096749D02*
X0151705Y0096749D01*
X0151705Y0099147D02*
X0100245Y0099147D01*
X0097955Y0101546D02*
X0151705Y0101546D01*
X0167475Y0101546D02*
X0173875Y0101546D01*
X0173875Y0103944D02*
X0169873Y0103944D01*
X0171623Y0106343D02*
X0173875Y0106343D01*
X0174453Y0108741D02*
X0171714Y0108741D01*
X0171714Y0111140D02*
X0174387Y0111140D01*
X0174412Y0113538D02*
X0171714Y0113538D01*
X0171714Y0115937D02*
X0207577Y0115937D01*
X0207399Y0113538D02*
X0189405Y0113538D01*
X0189405Y0111140D02*
X0208099Y0111140D01*
X0210039Y0108741D02*
X0189405Y0108741D01*
X0197562Y0106343D02*
X0283279Y0106343D01*
X0282426Y0103944D02*
X0199048Y0103944D01*
X0199248Y0101546D02*
X0226447Y0101546D01*
X0225987Y0101355D02*
X0224425Y0099794D01*
X0223580Y0097754D01*
X0223580Y0095546D01*
X0224425Y0093506D01*
X0225987Y0091944D01*
X0228027Y0091099D01*
X0230235Y0091099D01*
X0232275Y0091944D01*
X0233836Y0093506D01*
X0234681Y0095546D01*
X0234681Y0097754D01*
X0233836Y0099794D01*
X0232275Y0101355D01*
X0230235Y0102200D01*
X0228027Y0102200D01*
X0225987Y0101355D01*
X0224157Y0099147D02*
X0198336Y0099147D01*
X0189897Y0096749D02*
X0223580Y0096749D01*
X0224075Y0094350D02*
X0189897Y0094350D01*
X0189897Y0091952D02*
X0225979Y0091952D01*
X0227536Y0089593D02*
X0226985Y0089224D01*
X0226517Y0088756D01*
X0226148Y0088204D01*
X0225895Y0087592D01*
X0225765Y0086942D01*
X0225765Y0086610D01*
X0225765Y0086279D01*
X0225895Y0085629D01*
X0226148Y0085016D01*
X0226517Y0084465D01*
X0226985Y0083996D01*
X0227536Y0083628D01*
X0228149Y0083374D01*
X0228799Y0083245D01*
X0229130Y0083245D01*
X0229130Y0086610D01*
X0225765Y0086610D01*
X0229130Y0086610D01*
X0229130Y0086610D01*
X0229131Y0086610D01*
X0229131Y0086610D01*
X0232496Y0086610D01*
X0232496Y0086279D01*
X0232367Y0085629D01*
X0232113Y0085016D01*
X0231745Y0084465D01*
X0231276Y0083996D01*
X0230725Y0083628D01*
X0230112Y0083374D01*
X0229462Y0083245D01*
X0229131Y0083245D01*
X0229131Y0086610D01*
X0232496Y0086610D01*
X0232496Y0086942D01*
X0232367Y0087592D01*
X0232113Y0088204D01*
X0231745Y0088756D01*
X0231276Y0089224D01*
X0230725Y0089593D01*
X0230112Y0089846D01*
X0229462Y0089976D01*
X0229131Y0089976D01*
X0229131Y0086610D01*
X0229130Y0086610D01*
X0229130Y0089976D01*
X0228799Y0089976D01*
X0228149Y0089846D01*
X0227536Y0089593D01*
X0227478Y0089553D02*
X0168511Y0089553D01*
X0170940Y0087155D02*
X0225808Y0087155D01*
X0226322Y0084756D02*
X0171521Y0084756D01*
X0170976Y0082358D02*
X0282426Y0082358D01*
X0282426Y0084756D02*
X0231939Y0084756D01*
X0232454Y0087155D02*
X0282426Y0087155D01*
X0282426Y0089553D02*
X0230783Y0089553D01*
X0229131Y0089553D02*
X0229130Y0089553D01*
X0229130Y0087155D02*
X0229131Y0087155D01*
X0229130Y0084756D02*
X0229131Y0084756D01*
X0232282Y0091952D02*
X0282426Y0091952D01*
X0282426Y0094350D02*
X0234186Y0094350D01*
X0234681Y0096749D02*
X0282426Y0096749D01*
X0282426Y0099147D02*
X0234104Y0099147D01*
X0231814Y0101546D02*
X0282426Y0101546D01*
X0285678Y0108741D02*
X0248082Y0108741D01*
X0244505Y0108741D02*
X0243756Y0108741D01*
X0243756Y0107457D02*
X0243756Y0113794D01*
X0237419Y0113794D01*
X0237419Y0113729D01*
X0237534Y0112857D01*
X0237761Y0112007D01*
X0238098Y0111194D01*
X0238538Y0110432D01*
X0239074Y0109734D01*
X0239696Y0109112D01*
X0240394Y0108577D01*
X0241156Y0108137D01*
X0241968Y0107800D01*
X0242818Y0107572D01*
X0243691Y0107457D01*
X0243756Y0107457D01*
X0243756Y0111140D02*
X0244505Y0111140D01*
X0244505Y0113538D02*
X0243756Y0113538D01*
X0243756Y0115937D02*
X0244505Y0115937D01*
X0244505Y0118335D02*
X0243756Y0118335D01*
X0238867Y0118335D02*
X0219484Y0118335D01*
X0220684Y0115937D02*
X0237656Y0115937D01*
X0237444Y0113538D02*
X0220862Y0113538D01*
X0220162Y0111140D02*
X0238129Y0111140D01*
X0240179Y0108741D02*
X0218222Y0108741D01*
X0208777Y0118335D02*
X0171714Y0118335D01*
X0178540Y0113538D02*
X0178540Y0113538D01*
X0171714Y0139922D02*
X0209181Y0139922D01*
X0206852Y0142321D02*
X0171714Y0142321D01*
X0171714Y0144719D02*
X0204923Y0144719D01*
X0203975Y0147118D02*
X0201294Y0147118D01*
X0202630Y0149516D02*
X0202639Y0149516D01*
X0193975Y0147118D02*
X0191294Y0147118D01*
X0192630Y0149516D02*
X0192639Y0149516D01*
X0183975Y0147118D02*
X0171714Y0147118D01*
X0171714Y0149516D02*
X0182639Y0149516D01*
X0182627Y0151915D02*
X0171714Y0151915D01*
X0171714Y0154313D02*
X0182627Y0154313D01*
X0182627Y0156712D02*
X0171714Y0156712D01*
X0171714Y0159110D02*
X0183280Y0159110D01*
X0191242Y0166306D02*
X0247020Y0166306D01*
X0247020Y0168704D02*
X0191242Y0168704D01*
X0191315Y0171103D02*
X0246946Y0171103D01*
X0255622Y0149516D02*
X0255631Y0149516D01*
X0256967Y0147118D02*
X0254286Y0147118D01*
X0264286Y0147118D02*
X0266967Y0147118D01*
X0265631Y0149516D02*
X0265622Y0149516D01*
X0276409Y0142321D02*
X0280857Y0142321D01*
X0322763Y0161509D02*
X0376435Y0161509D01*
X0377567Y0163907D02*
X0334985Y0163907D01*
X0335187Y0166306D02*
X0381209Y0166306D01*
X0405380Y0147118D02*
X0411651Y0147118D01*
X0414950Y0139922D02*
X0417240Y0139922D01*
X0398422Y0132727D02*
X0398422Y0132727D01*
X0398422Y0130328D02*
X0398422Y0130328D01*
X0429918Y0156712D02*
X0429918Y0156712D01*
X0429918Y0157477D02*
X0429918Y0157477D01*
X0429918Y0159110D02*
X0429918Y0159110D01*
X0484490Y0120734D02*
X0510414Y0120734D01*
X0506584Y0118335D02*
X0487201Y0118335D01*
X0488401Y0115937D02*
X0505372Y0115937D01*
X0505160Y0113538D02*
X0488579Y0113538D01*
X0487878Y0111140D02*
X0505846Y0111140D01*
X0507895Y0108741D02*
X0485939Y0108741D01*
X0501820Y0099147D02*
X0538731Y0099147D01*
X0538731Y0096749D02*
X0502397Y0096749D01*
X0501902Y0094350D02*
X0538731Y0094350D01*
X0538731Y0091952D02*
X0499999Y0091952D01*
X0498441Y0089593D02*
X0497829Y0089846D01*
X0497179Y0089976D01*
X0496847Y0089976D01*
X0496516Y0089976D01*
X0495865Y0089846D01*
X0495253Y0089593D01*
X0494702Y0089224D01*
X0494233Y0088756D01*
X0493865Y0088204D01*
X0493611Y0087592D01*
X0493482Y0086942D01*
X0493482Y0086610D01*
X0493482Y0086279D01*
X0493611Y0085629D01*
X0493865Y0085016D01*
X0494233Y0084465D01*
X0494702Y0083996D01*
X0495253Y0083628D01*
X0495865Y0083374D01*
X0496516Y0083245D01*
X0496847Y0083245D01*
X0496847Y0086610D01*
X0496847Y0086610D01*
X0493482Y0086610D01*
X0496847Y0086610D01*
X0496847Y0086610D01*
X0496847Y0083245D01*
X0497179Y0083245D01*
X0497829Y0083374D01*
X0498441Y0083628D01*
X0498992Y0083996D01*
X0499461Y0084465D01*
X0499829Y0085016D01*
X0500083Y0085629D01*
X0500212Y0086279D01*
X0500212Y0086610D01*
X0496847Y0086610D01*
X0496847Y0086610D01*
X0500212Y0086610D01*
X0500212Y0086942D01*
X0500083Y0087592D01*
X0499829Y0088204D01*
X0499461Y0088756D01*
X0498992Y0089224D01*
X0498441Y0089593D01*
X0498500Y0089553D02*
X0539712Y0089553D01*
X0542111Y0087155D02*
X0500170Y0087155D01*
X0499656Y0084756D02*
X0546653Y0084756D01*
X0546653Y0082358D02*
X0370533Y0082358D01*
X0370533Y0084756D02*
X0494038Y0084756D01*
X0493524Y0087155D02*
X0370533Y0087155D01*
X0370533Y0089553D02*
X0495194Y0089553D01*
X0496847Y0089553D02*
X0496847Y0089553D01*
X0496847Y0089976D02*
X0496847Y0086610D01*
X0496847Y0086610D01*
X0496847Y0089976D01*
X0496847Y0087155D02*
X0496847Y0087155D01*
X0496847Y0084756D02*
X0496847Y0084756D01*
X0493695Y0091952D02*
X0370533Y0091952D01*
X0370152Y0094350D02*
X0491792Y0094350D01*
X0517848Y0111140D02*
X0536966Y0111140D01*
X0536966Y0113538D02*
X0518534Y0113538D01*
X0518322Y0115937D02*
X0536966Y0115937D01*
X0545311Y0115937D02*
X0560969Y0115937D01*
X0560969Y0113538D02*
X0545311Y0113538D01*
X0545311Y0111140D02*
X0560969Y0111140D01*
X0560969Y0108741D02*
X0545045Y0108741D01*
X0543546Y0106343D02*
X0560969Y0106343D01*
X0560969Y0103944D02*
X0543546Y0103944D01*
X0543546Y0101546D02*
X0560969Y0101546D01*
X0560969Y0099147D02*
X0558668Y0099147D01*
X0558668Y0096749D02*
X0560969Y0096749D01*
X0566583Y0096749D02*
X0570853Y0096749D01*
X0570853Y0099147D02*
X0566583Y0099147D01*
X0566583Y0101546D02*
X0574749Y0101546D01*
X0574749Y0103944D02*
X0566583Y0103944D01*
X0566583Y0106343D02*
X0573854Y0106343D01*
X0574071Y0108741D02*
X0566583Y0108741D01*
X0566583Y0111140D02*
X0581727Y0111140D01*
X0581257Y0113538D02*
X0566583Y0113538D01*
X0566583Y0115937D02*
X0581257Y0115937D01*
X0581883Y0118335D02*
X0582230Y0118335D01*
X0581883Y0120734D02*
X0583023Y0120734D01*
X0587837Y0120734D02*
X0610346Y0120734D01*
X0610155Y0120273D02*
X0610155Y0118065D01*
X0611000Y0116025D01*
X0612561Y0114464D01*
X0614601Y0113619D01*
X0616809Y0113619D01*
X0618849Y0114464D01*
X0620411Y0116025D01*
X0621256Y0118065D01*
X0621256Y0118346D01*
X0621731Y0118821D01*
X0622417Y0120477D01*
X0622417Y0144593D01*
X0621731Y0146250D01*
X0610904Y0157077D01*
X0609636Y0158345D01*
X0607980Y0159031D01*
X0605068Y0159031D01*
X0604517Y0160360D01*
X0603109Y0161768D01*
X0601268Y0162531D01*
X0599276Y0162531D01*
X0597436Y0161768D01*
X0596027Y0160360D01*
X0595265Y0158520D01*
X0595265Y0150528D01*
X0596027Y0148687D01*
X0597436Y0147279D01*
X0599276Y0146517D01*
X0601268Y0146517D01*
X0603109Y0147279D01*
X0604517Y0148687D01*
X0605068Y0150017D01*
X0605216Y0150017D01*
X0613403Y0141830D01*
X0613403Y0124223D01*
X0612561Y0123875D01*
X0611000Y0122313D01*
X0610155Y0120273D01*
X0610155Y0118335D02*
X0588630Y0118335D01*
X0589602Y0115937D02*
X0611088Y0115937D01*
X0610492Y0111140D02*
X0589132Y0111140D01*
X0589602Y0113538D02*
X0641144Y0113538D01*
X0640975Y0113771D02*
X0641487Y0113066D01*
X0642102Y0112451D01*
X0642807Y0111939D01*
X0643582Y0111544D01*
X0644410Y0111275D01*
X0645270Y0111139D01*
X0645705Y0111139D01*
X0645705Y0116669D01*
X0640175Y0116669D01*
X0640175Y0116234D01*
X0640311Y0115374D01*
X0640580Y0114546D01*
X0640975Y0113771D01*
X0640222Y0115937D02*
X0620322Y0115937D01*
X0621256Y0118335D02*
X0640431Y0118335D01*
X0640311Y0117964D02*
X0640175Y0117105D01*
X0640175Y0116669D01*
X0645705Y0116669D01*
X0645705Y0116669D01*
X0645705Y0116669D01*
X0645705Y0111139D01*
X0646141Y0111139D01*
X0647000Y0111275D01*
X0647828Y0111544D01*
X0648604Y0111939D01*
X0649308Y0112451D01*
X0649924Y0113066D01*
X0650436Y0113771D01*
X0650831Y0114546D01*
X0651100Y0115374D01*
X0651236Y0116234D01*
X0651236Y0116669D01*
X0645705Y0116669D01*
X0645705Y0122200D01*
X0645270Y0122200D01*
X0644410Y0122064D01*
X0643582Y0121795D01*
X0642807Y0121400D01*
X0642102Y0120888D01*
X0641487Y0120272D01*
X0640975Y0119568D01*
X0640580Y0118792D01*
X0640311Y0117964D01*
X0641948Y0120734D02*
X0622417Y0120734D01*
X0622417Y0123133D02*
X0691513Y0123133D01*
X0691513Y0125531D02*
X0622417Y0125531D01*
X0622417Y0127930D02*
X0681458Y0127930D01*
X0681009Y0128115D02*
X0682217Y0127615D01*
X0683524Y0127615D01*
X0684732Y0128115D01*
X0685657Y0129040D01*
X0686157Y0130248D01*
X0686157Y0130784D01*
X0686203Y0130829D01*
X0686880Y0131507D01*
X0687246Y0132391D01*
X0687246Y0143461D01*
X0688033Y0143461D01*
X0689209Y0144637D01*
X0689209Y0150631D01*
X0688345Y0151494D01*
X0688401Y0151703D01*
X0688401Y0153539D01*
X0684839Y0153539D01*
X0684839Y0153539D01*
X0684839Y0159445D01*
X0684839Y0159445D01*
X0681474Y0159445D01*
X0681474Y0159776D01*
X0681603Y0160427D01*
X0681857Y0161039D01*
X0682081Y0161375D01*
X0681096Y0161375D01*
X0679634Y0161980D01*
X0678516Y0163098D01*
X0677911Y0164560D01*
X0677911Y0166141D01*
X0678516Y0167602D01*
X0679634Y0168721D01*
X0681096Y0169326D01*
X0682677Y0169326D01*
X0684138Y0168721D01*
X0685257Y0167602D01*
X0685862Y0166141D01*
X0685862Y0164560D01*
X0685257Y0163098D01*
X0684969Y0162810D01*
X0685171Y0162810D01*
X0685821Y0162681D01*
X0686433Y0162427D01*
X0686985Y0162059D01*
X0687453Y0161590D01*
X0687822Y0161039D01*
X0688075Y0160427D01*
X0688205Y0159776D01*
X0688205Y0159445D01*
X0684839Y0159445D01*
X0681474Y0159445D01*
X0681474Y0159113D01*
X0681603Y0158463D01*
X0681857Y0157851D01*
X0682225Y0157300D01*
X0682546Y0156979D01*
X0682497Y0156966D01*
X0682044Y0156704D01*
X0681900Y0156561D01*
X0681340Y0157121D01*
X0676528Y0157121D01*
X0675352Y0155946D01*
X0675352Y0151418D01*
X0674564Y0150631D01*
X0674564Y0148160D01*
X0673849Y0148875D01*
X0671809Y0149720D01*
X0669601Y0149720D01*
X0667561Y0148875D01*
X0666000Y0147313D01*
X0665719Y0146636D01*
X0664309Y0147220D01*
X0662101Y0147220D01*
X0660061Y0146375D01*
X0658500Y0144813D01*
X0658219Y0144136D01*
X0656809Y0144720D01*
X0654601Y0144720D01*
X0652561Y0143875D01*
X0651000Y0142313D01*
X0650155Y0140273D01*
X0650155Y0138065D01*
X0651000Y0136025D01*
X0652561Y0134464D01*
X0654601Y0133619D01*
X0656809Y0133619D01*
X0658849Y0134464D01*
X0660411Y0136025D01*
X0660691Y0136703D01*
X0662101Y0136119D01*
X0664309Y0136119D01*
X0666349Y0136964D01*
X0667911Y0138525D01*
X0668191Y0139203D01*
X0669601Y0138619D01*
X0671809Y0138619D01*
X0673849Y0139464D01*
X0675411Y0141025D01*
X0676256Y0143065D01*
X0676256Y0143461D01*
X0681340Y0143461D01*
X0681886Y0144008D01*
X0682432Y0143462D01*
X0682432Y0134188D01*
X0682217Y0134188D01*
X0681009Y0133688D01*
X0680084Y0132763D01*
X0679584Y0131555D01*
X0679584Y0130248D01*
X0680084Y0129040D01*
X0681009Y0128115D01*
X0679584Y0130328D02*
X0622417Y0130328D01*
X0622417Y0132727D02*
X0680069Y0132727D01*
X0682432Y0135125D02*
X0659511Y0135125D01*
X0651900Y0135125D02*
X0622417Y0135125D01*
X0622417Y0137524D02*
X0650379Y0137524D01*
X0650155Y0139922D02*
X0622417Y0139922D01*
X0622417Y0142321D02*
X0651007Y0142321D01*
X0654600Y0144719D02*
X0622365Y0144719D01*
X0620863Y0147118D02*
X0661855Y0147118D01*
X0664556Y0147118D02*
X0665919Y0147118D01*
X0669110Y0149516D02*
X0618465Y0149516D01*
X0616066Y0151915D02*
X0675352Y0151915D01*
X0675352Y0154313D02*
X0613668Y0154313D01*
X0611269Y0156712D02*
X0676118Y0156712D01*
X0681749Y0156712D02*
X0682057Y0156712D01*
X0681475Y0159110D02*
X0605035Y0159110D01*
X0603368Y0161509D02*
X0680772Y0161509D01*
X0678181Y0163907D02*
X0562299Y0163907D01*
X0559901Y0166306D02*
X0677979Y0166306D01*
X0679618Y0168704D02*
X0558434Y0168704D01*
X0551402Y0168704D02*
X0335100Y0168704D01*
X0333794Y0171103D02*
X0687436Y0171103D01*
X0689772Y0168704D02*
X0684155Y0168704D01*
X0685794Y0166306D02*
X0690934Y0166306D01*
X0691472Y0163907D02*
X0685592Y0163907D01*
X0687508Y0161509D02*
X0691513Y0161509D01*
X0691513Y0159110D02*
X0688204Y0159110D01*
X0688205Y0159113D02*
X0688205Y0159445D01*
X0684839Y0159445D01*
X0684839Y0159445D01*
X0684839Y0159445D01*
X0684839Y0157102D01*
X0684839Y0153539D01*
X0684839Y0153539D01*
X0688401Y0153539D01*
X0688401Y0155376D01*
X0688266Y0155881D01*
X0688004Y0156334D01*
X0687634Y0156704D01*
X0687181Y0156966D01*
X0687133Y0156979D01*
X0687453Y0157300D01*
X0687822Y0157851D01*
X0688075Y0158463D01*
X0688205Y0159113D01*
X0687622Y0156712D02*
X0691513Y0156712D01*
X0691513Y0154313D02*
X0688401Y0154313D01*
X0688401Y0151915D02*
X0691513Y0151915D01*
X0691513Y0149516D02*
X0689209Y0149516D01*
X0689209Y0147118D02*
X0691513Y0147118D01*
X0691513Y0144719D02*
X0689209Y0144719D01*
X0687246Y0142321D02*
X0691513Y0142321D01*
X0691513Y0139922D02*
X0687246Y0139922D01*
X0687246Y0137524D02*
X0691513Y0137524D01*
X0691513Y0135125D02*
X0687246Y0135125D01*
X0687246Y0132727D02*
X0691513Y0132727D01*
X0691513Y0130328D02*
X0686157Y0130328D01*
X0686203Y0130829D02*
X0686203Y0130829D01*
X0684284Y0127930D02*
X0691513Y0127930D01*
X0691513Y0120734D02*
X0649462Y0120734D01*
X0649308Y0120888D02*
X0648604Y0121400D01*
X0647828Y0121795D01*
X0647000Y0122064D01*
X0646141Y0122200D01*
X0645705Y0122200D01*
X0645705Y0116669D01*
X0645705Y0116669D01*
X0645705Y0116669D01*
X0651236Y0116669D01*
X0651236Y0117105D01*
X0651100Y0117964D01*
X0650831Y0118792D01*
X0650436Y0119568D01*
X0649924Y0120272D01*
X0649308Y0120888D01*
X0650979Y0118335D02*
X0691513Y0118335D01*
X0691513Y0115937D02*
X0651189Y0115937D01*
X0650267Y0113538D02*
X0691513Y0113538D01*
X0691513Y0111140D02*
X0646149Y0111140D01*
X0645705Y0111140D02*
X0645705Y0111140D01*
X0645261Y0111140D02*
X0639639Y0111140D01*
X0637628Y0106343D02*
X0623313Y0106343D01*
X0623756Y0103944D02*
X0637655Y0103944D01*
X0638284Y0101546D02*
X0633436Y0101546D01*
X0635687Y0099147D02*
X0640825Y0099147D01*
X0645585Y0099147D02*
X0691513Y0099147D01*
X0691513Y0096749D02*
X0636256Y0096749D01*
X0635753Y0094350D02*
X0691513Y0094350D01*
X0691513Y0091952D02*
X0633820Y0091952D01*
X0632299Y0089593D02*
X0631687Y0089846D01*
X0631037Y0089976D01*
X0630705Y0089976D01*
X0630374Y0089976D01*
X0629724Y0089846D01*
X0629111Y0089593D01*
X0628560Y0089224D01*
X0628091Y0088756D01*
X0627723Y0088204D01*
X0627469Y0087592D01*
X0627340Y0086942D01*
X0627340Y0086610D01*
X0627340Y0086279D01*
X0627469Y0085629D01*
X0627723Y0085016D01*
X0628091Y0084465D01*
X0628560Y0083996D01*
X0629111Y0083628D01*
X0629724Y0083374D01*
X0630374Y0083245D01*
X0630705Y0083245D01*
X0630705Y0086610D01*
X0627340Y0086610D01*
X0630705Y0086610D01*
X0630705Y0086610D01*
X0630705Y0086610D01*
X0630705Y0083245D01*
X0631037Y0083245D01*
X0631687Y0083374D01*
X0632299Y0083628D01*
X0632851Y0083996D01*
X0633319Y0084465D01*
X0633688Y0085016D01*
X0633941Y0085629D01*
X0634071Y0086279D01*
X0634071Y0086610D01*
X0630705Y0086610D01*
X0630705Y0089976D01*
X0630705Y0086610D01*
X0630705Y0086610D01*
X0630705Y0086610D01*
X0634071Y0086610D01*
X0634071Y0086942D01*
X0633941Y0087592D01*
X0633688Y0088204D01*
X0633319Y0088756D01*
X0632851Y0089224D01*
X0632299Y0089593D01*
X0632358Y0089553D02*
X0691513Y0089553D01*
X0691513Y0087155D02*
X0634028Y0087155D01*
X0633514Y0084756D02*
X0691513Y0084756D01*
X0691513Y0082358D02*
X0619798Y0082358D01*
X0622197Y0084756D02*
X0627897Y0084756D01*
X0627382Y0087155D02*
X0624595Y0087155D01*
X0626994Y0089553D02*
X0629053Y0089553D01*
X0630705Y0089553D02*
X0630705Y0089553D01*
X0630705Y0087155D02*
X0630705Y0087155D01*
X0630705Y0084756D02*
X0630705Y0084756D01*
X0622584Y0091952D02*
X0582868Y0091952D01*
X0582868Y0094350D02*
X0624982Y0094350D01*
X0625155Y0096749D02*
X0582868Y0096749D01*
X0582868Y0099147D02*
X0615825Y0099147D01*
X0613284Y0101546D02*
X0580363Y0101546D01*
X0580363Y0103944D02*
X0582383Y0103944D01*
X0581257Y0108741D02*
X0581040Y0108741D01*
X0588476Y0103944D02*
X0612655Y0103944D01*
X0612504Y0106343D02*
X0613098Y0106343D01*
X0612667Y0106507D02*
X0612667Y0106507D01*
X0620585Y0099147D02*
X0625724Y0099147D01*
X0627975Y0101546D02*
X0623126Y0101546D01*
X0620185Y0089553D02*
X0586875Y0089553D01*
X0589274Y0087155D02*
X0617787Y0087155D01*
X0615388Y0084756D02*
X0590790Y0084756D01*
X0592127Y0082358D02*
X0612990Y0082358D01*
X0610591Y0079959D02*
X0592555Y0079959D01*
X0592555Y0077561D02*
X0608193Y0077561D01*
X0605794Y0075162D02*
X0592555Y0075162D01*
X0584210Y0075162D02*
X0534878Y0075162D01*
X0534878Y0075273D02*
X0534033Y0077313D01*
X0532471Y0078875D01*
X0530431Y0079720D01*
X0528223Y0079720D01*
X0526183Y0078875D01*
X0524622Y0077313D01*
X0523777Y0075273D01*
X0523777Y0073065D01*
X0524622Y0071025D01*
X0526183Y0069464D01*
X0528223Y0068619D01*
X0530431Y0068619D01*
X0532471Y0069464D01*
X0534033Y0071025D01*
X0534878Y0073065D01*
X0534878Y0075273D01*
X0534753Y0072764D02*
X0584210Y0072764D01*
X0584210Y0070365D02*
X0533373Y0070365D01*
X0533785Y0077561D02*
X0584210Y0077561D01*
X0584210Y0079959D02*
X0581738Y0079959D01*
X0582848Y0082358D02*
X0584638Y0082358D01*
X0584864Y0084756D02*
X0582808Y0084756D01*
X0576861Y0082358D02*
X0576860Y0082358D01*
X0576860Y0079959D02*
X0576861Y0079959D01*
X0571982Y0079959D02*
X0557711Y0079959D01*
X0558668Y0082358D02*
X0570873Y0082358D01*
X0570913Y0084756D02*
X0558668Y0084756D01*
X0558668Y0087155D02*
X0570853Y0087155D01*
X0570853Y0089553D02*
X0558668Y0089553D01*
X0565214Y0091952D02*
X0570853Y0091952D01*
X0570853Y0094350D02*
X0566583Y0094350D01*
X0546653Y0094350D02*
X0543546Y0094350D01*
X0543546Y0096749D02*
X0546653Y0096749D01*
X0546653Y0099147D02*
X0543546Y0099147D01*
X0544122Y0091952D02*
X0546653Y0091952D01*
X0547610Y0079959D02*
X0370533Y0079959D01*
X0370533Y0077561D02*
X0391011Y0077561D01*
X0390764Y0077313D02*
X0389919Y0075273D01*
X0389919Y0073065D01*
X0390764Y0071025D01*
X0392325Y0069464D01*
X0394365Y0068619D01*
X0396573Y0068619D01*
X0398613Y0069464D01*
X0400175Y0071025D01*
X0401020Y0073065D01*
X0401020Y0075273D01*
X0400175Y0077313D01*
X0398613Y0078875D01*
X0396573Y0079720D01*
X0394365Y0079720D01*
X0392325Y0078875D01*
X0390764Y0077313D01*
X0389919Y0075162D02*
X0370533Y0075162D01*
X0370533Y0072764D02*
X0390044Y0072764D01*
X0391424Y0070365D02*
X0370533Y0070365D01*
X0363319Y0070365D02*
X0361346Y0070365D01*
X0359052Y0070365D02*
X0359052Y0070365D01*
X0359052Y0069465D02*
X0359052Y0072831D01*
X0359052Y0072831D01*
X0359052Y0069465D01*
X0358506Y0067967D02*
X0363319Y0067967D01*
X0364166Y0065568D02*
X0358506Y0065568D01*
X0359386Y0063170D02*
X0367910Y0063170D01*
X0369295Y0060771D02*
X0358530Y0060771D01*
X0353668Y0060771D02*
X0348688Y0060771D01*
X0349543Y0063170D02*
X0352812Y0063170D01*
X0353692Y0065568D02*
X0348664Y0065568D01*
X0348664Y0067967D02*
X0353692Y0067967D01*
X0353692Y0070365D02*
X0348664Y0070365D01*
X0348664Y0072764D02*
X0353692Y0072764D01*
X0353692Y0075162D02*
X0348664Y0075162D01*
X0348664Y0077561D02*
X0353692Y0077561D01*
X0353692Y0079959D02*
X0348664Y0079959D01*
X0348664Y0082358D02*
X0353692Y0082358D01*
X0351410Y0084756D02*
X0348664Y0084756D01*
X0348664Y0087155D02*
X0349860Y0087155D01*
X0350457Y0089553D02*
X0348664Y0089553D01*
X0348664Y0091952D02*
X0350739Y0091952D01*
X0350739Y0094350D02*
X0350511Y0094350D01*
X0358506Y0091952D02*
X0359837Y0091952D01*
X0358506Y0089553D02*
X0363319Y0089553D01*
X0363319Y0087155D02*
X0358506Y0087155D01*
X0358506Y0084756D02*
X0363319Y0084756D01*
X0363319Y0082358D02*
X0358506Y0082358D01*
X0358506Y0079959D02*
X0363319Y0079959D01*
X0363319Y0077561D02*
X0358506Y0077561D01*
X0359052Y0075162D02*
X0359052Y0075162D01*
X0359052Y0072764D02*
X0359052Y0072764D01*
X0362417Y0072764D02*
X0363319Y0072764D01*
X0363319Y0075162D02*
X0361480Y0075162D01*
X0343849Y0075162D02*
X0342758Y0075162D01*
X0342758Y0077561D02*
X0343849Y0077561D01*
X0343849Y0079959D02*
X0342758Y0079959D01*
X0342758Y0082358D02*
X0343849Y0082358D01*
X0343849Y0084756D02*
X0342758Y0084756D01*
X0341720Y0072764D02*
X0343849Y0072764D01*
X0343849Y0070365D02*
X0340342Y0070365D01*
X0343849Y0067967D02*
X0317836Y0067967D01*
X0317980Y0067822D02*
X0316395Y0069407D01*
X0314325Y0070265D01*
X0312083Y0070265D01*
X0310012Y0069407D01*
X0308427Y0067822D01*
X0307570Y0065751D01*
X0307570Y0063510D01*
X0308427Y0061439D01*
X0310012Y0059854D01*
X0312083Y0058996D01*
X0314325Y0058996D01*
X0316395Y0059854D01*
X0317980Y0061439D01*
X0318838Y0063510D01*
X0318838Y0065751D01*
X0317980Y0067822D01*
X0318838Y0065568D02*
X0343849Y0065568D01*
X0342970Y0063170D02*
X0318697Y0063170D01*
X0317312Y0060771D02*
X0343826Y0060771D01*
X0377512Y0060771D02*
X0577340Y0060771D01*
X0577685Y0063170D02*
X0378897Y0063170D01*
X0379038Y0065568D02*
X0577320Y0065568D01*
X0577320Y0067967D02*
X0378036Y0067967D01*
X0399515Y0070365D02*
X0525282Y0070365D01*
X0523902Y0072764D02*
X0400895Y0072764D01*
X0401020Y0075162D02*
X0523777Y0075162D01*
X0524869Y0077561D02*
X0399927Y0077561D01*
X0343897Y0108741D02*
X0334518Y0108741D01*
X0334744Y0111140D02*
X0341958Y0111140D01*
X0330864Y0113538D02*
X0323264Y0113538D01*
X0323264Y0111140D02*
X0328242Y0111140D01*
X0328468Y0108741D02*
X0323264Y0108741D01*
X0312398Y0113538D02*
X0312398Y0113538D01*
X0308270Y0113538D02*
X0305572Y0113538D01*
X0305572Y0111140D02*
X0308246Y0111140D01*
X0308311Y0108741D02*
X0305572Y0108741D01*
X0305482Y0106343D02*
X0307734Y0106343D01*
X0307734Y0103944D02*
X0303731Y0103944D01*
X0301333Y0101546D02*
X0307734Y0101546D01*
X0308572Y0067967D02*
X0305399Y0067967D01*
X0305399Y0065568D02*
X0307570Y0065568D01*
X0307710Y0063170D02*
X0305399Y0063170D01*
X0305399Y0060771D02*
X0309095Y0060771D01*
X0159579Y0151915D02*
X0157289Y0151915D01*
X0157605Y0154313D02*
X0159579Y0154313D01*
X0154327Y0154313D02*
X0154327Y0154313D01*
X0154327Y0151915D02*
X0154327Y0151915D01*
X0159579Y0161509D02*
X0076701Y0161509D01*
X0079293Y0163907D02*
X0159579Y0163907D01*
X0161008Y0166306D02*
X0079495Y0166306D01*
X0077856Y0168704D02*
X0164500Y0168704D01*
X0074919Y0118335D02*
X0065960Y0118335D01*
X0065960Y0115937D02*
X0073718Y0115937D01*
X0073541Y0113538D02*
X0065960Y0113538D01*
X0065960Y0111140D02*
X0074241Y0111140D01*
X0073787Y0053576D02*
X0683687Y0053576D01*
X0688409Y0055974D02*
X0591687Y0055974D01*
X0596595Y0058373D02*
X0690286Y0058373D01*
X0691164Y0060771D02*
X0685271Y0060771D01*
X0685257Y0060736D02*
X0685862Y0062197D01*
X0685862Y0063779D01*
X0685257Y0065240D01*
X0684138Y0066359D01*
X0682677Y0066964D01*
X0681096Y0066964D01*
X0679634Y0066359D01*
X0678516Y0065240D01*
X0677911Y0063779D01*
X0677911Y0062197D01*
X0678516Y0060736D01*
X0679634Y0059618D01*
X0681096Y0059013D01*
X0682677Y0059013D01*
X0684138Y0059618D01*
X0685257Y0060736D01*
X0685862Y0063170D02*
X0691513Y0063170D01*
X0691513Y0065568D02*
X0684929Y0065568D01*
X0678844Y0065568D02*
X0599890Y0065568D01*
X0599890Y0063170D02*
X0677911Y0063170D01*
X0678502Y0060771D02*
X0598994Y0060771D01*
X0600298Y0067967D02*
X0691513Y0067967D01*
X0691513Y0070365D02*
X0667251Y0070365D01*
X0667911Y0071025D02*
X0668756Y0073065D01*
X0668756Y0075273D01*
X0667911Y0077313D01*
X0666349Y0078875D01*
X0664309Y0079720D01*
X0662101Y0079720D01*
X0660061Y0078875D01*
X0658500Y0077313D01*
X0657655Y0075273D01*
X0657655Y0073065D01*
X0658500Y0071025D01*
X0660061Y0069464D01*
X0662101Y0068619D01*
X0664309Y0068619D01*
X0666349Y0069464D01*
X0667911Y0071025D01*
X0668631Y0072764D02*
X0691513Y0072764D01*
X0691513Y0075162D02*
X0668756Y0075162D01*
X0667663Y0077561D02*
X0691513Y0077561D01*
X0691513Y0079959D02*
X0617400Y0079959D01*
X0615001Y0077561D02*
X0658747Y0077561D01*
X0657655Y0075162D02*
X0612602Y0075162D01*
X0610204Y0072764D02*
X0657780Y0072764D01*
X0659160Y0070365D02*
X0607761Y0070365D01*
X0585078Y0055974D02*
X0584690Y0055974D01*
X0581493Y0055974D02*
X0581493Y0055974D01*
X0581493Y0058373D02*
X0581493Y0058373D01*
X0648126Y0101546D02*
X0691513Y0101546D01*
X0691513Y0103944D02*
X0648756Y0103944D01*
X0648313Y0106343D02*
X0691513Y0106343D01*
X0691513Y0108741D02*
X0646483Y0108741D01*
X0645705Y0113538D02*
X0645705Y0113538D01*
X0645705Y0115937D02*
X0645705Y0115937D01*
X0645705Y0118335D02*
X0645705Y0118335D01*
X0645705Y0120734D02*
X0645705Y0120734D01*
X0666909Y0137524D02*
X0682432Y0137524D01*
X0682432Y0139922D02*
X0674308Y0139922D01*
X0675947Y0142321D02*
X0682432Y0142321D01*
X0674564Y0149516D02*
X0672301Y0149516D01*
X0658461Y0144719D02*
X0656811Y0144719D01*
X0684839Y0154313D02*
X0684839Y0154313D01*
X0684839Y0156712D02*
X0684839Y0156712D01*
X0684839Y0159110D02*
X0684839Y0159110D01*
X0612912Y0142321D02*
X0566583Y0142321D01*
X0566583Y0144719D02*
X0610514Y0144719D01*
X0608115Y0147118D02*
X0602719Y0147118D01*
X0604860Y0149516D02*
X0605717Y0149516D01*
X0597825Y0147118D02*
X0592611Y0147118D01*
X0592886Y0147258D02*
X0593521Y0147719D01*
X0594076Y0148275D01*
X0594538Y0148910D01*
X0594894Y0149609D01*
X0595137Y0150356D01*
X0595260Y0151131D01*
X0595260Y0154524D01*
X0595260Y0157916D01*
X0595137Y0158692D01*
X0594894Y0159438D01*
X0594538Y0160138D01*
X0594076Y0160773D01*
X0593521Y0161328D01*
X0592886Y0161789D01*
X0592187Y0162146D01*
X0591440Y0162388D01*
X0590665Y0162511D01*
X0590272Y0162511D01*
X0589880Y0162511D01*
X0589104Y0162388D01*
X0588358Y0162146D01*
X0587658Y0161789D01*
X0587023Y0161328D01*
X0586468Y0160773D01*
X0586007Y0160138D01*
X0585650Y0159438D01*
X0585408Y0158692D01*
X0585285Y0157916D01*
X0585285Y0154524D01*
X0590272Y0154524D01*
X0590272Y0162511D01*
X0590272Y0154524D01*
X0590272Y0154524D01*
X0590272Y0154524D01*
X0585285Y0154524D01*
X0585285Y0151131D01*
X0585408Y0150356D01*
X0585650Y0149609D01*
X0586007Y0148910D01*
X0586468Y0148275D01*
X0587023Y0147719D01*
X0587658Y0147258D01*
X0588358Y0146902D01*
X0589104Y0146659D01*
X0589880Y0146536D01*
X0590272Y0146536D01*
X0590272Y0154523D01*
X0590272Y0154523D01*
X0590272Y0146536D01*
X0590665Y0146536D01*
X0591440Y0146659D01*
X0592187Y0146902D01*
X0592886Y0147258D01*
X0590272Y0147118D02*
X0590272Y0147118D01*
X0587934Y0147118D02*
X0566583Y0147118D01*
X0566583Y0149516D02*
X0585698Y0149516D01*
X0585285Y0151915D02*
X0566583Y0151915D01*
X0566583Y0154313D02*
X0585285Y0154313D01*
X0585285Y0156712D02*
X0566583Y0156712D01*
X0566546Y0159110D02*
X0585544Y0159110D01*
X0587272Y0161509D02*
X0564698Y0161509D01*
X0559157Y0159110D02*
X0559090Y0159110D01*
X0559090Y0156712D02*
X0560969Y0156712D01*
X0560969Y0154313D02*
X0559090Y0154313D01*
X0559090Y0151915D02*
X0560969Y0151915D01*
X0560969Y0149516D02*
X0559090Y0149516D01*
X0558815Y0147118D02*
X0560969Y0147118D01*
X0560969Y0144719D02*
X0557271Y0144719D01*
X0558697Y0142321D02*
X0560969Y0142321D01*
X0560969Y0139922D02*
X0558260Y0139922D01*
X0557683Y0137524D02*
X0560391Y0137524D01*
X0559998Y0135125D02*
X0557683Y0135125D01*
X0557537Y0132727D02*
X0560969Y0132727D01*
X0560969Y0130328D02*
X0557683Y0130328D01*
X0557334Y0127930D02*
X0560969Y0127930D01*
X0560969Y0125531D02*
X0557683Y0125531D01*
X0566583Y0125531D02*
X0569869Y0125531D01*
X0570054Y0123133D02*
X0566583Y0123133D01*
X0566583Y0120734D02*
X0569869Y0120734D01*
X0569869Y0118335D02*
X0566583Y0118335D01*
X0566583Y0127930D02*
X0570219Y0127930D01*
X0569889Y0130328D02*
X0566583Y0130328D01*
X0566583Y0132727D02*
X0570146Y0132727D01*
X0569869Y0135125D02*
X0567555Y0135125D01*
X0567162Y0137524D02*
X0569869Y0137524D01*
X0566583Y0139922D02*
X0613403Y0139922D01*
X0613403Y0137524D02*
X0581883Y0137524D01*
X0581883Y0135125D02*
X0613403Y0135125D01*
X0613403Y0132727D02*
X0581607Y0132727D01*
X0581864Y0130449D02*
X0575876Y0130449D01*
X0575876Y0130449D01*
X0581864Y0130449D01*
X0581864Y0130328D02*
X0613403Y0130328D01*
X0613403Y0127930D02*
X0581534Y0127930D01*
X0586330Y0125531D02*
X0613403Y0125531D01*
X0611819Y0123133D02*
X0587837Y0123133D01*
X0551139Y0142321D02*
X0541954Y0142321D01*
X0543852Y0144719D02*
X0552565Y0144719D01*
X0551021Y0147118D02*
X0550547Y0147118D01*
X0545509Y0147118D02*
X0543643Y0147118D01*
X0543342Y0149516D02*
X0544446Y0149516D01*
X0544446Y0151915D02*
X0543342Y0151915D01*
X0543342Y0154313D02*
X0544558Y0154313D01*
X0544466Y0156492D02*
X0548028Y0156492D01*
X0548028Y0156492D01*
X0544466Y0156492D01*
X0544466Y0156712D02*
X0543342Y0156712D01*
X0543342Y0159110D02*
X0544761Y0159110D01*
X0548028Y0159110D02*
X0548028Y0159110D01*
X0548028Y0160054D02*
X0548028Y0156492D01*
X0548028Y0156492D01*
X0548028Y0160054D01*
X0548028Y0156712D02*
X0548028Y0156712D01*
X0542301Y0161509D02*
X0535538Y0161509D01*
X0533190Y0163907D02*
X0541789Y0163907D01*
X0543546Y0166306D02*
X0531505Y0166306D01*
X0525181Y0166306D02*
X0523631Y0166306D01*
X0523429Y0163907D02*
X0525384Y0163907D01*
X0522876Y0161509D02*
X0528781Y0161509D01*
X0523186Y0159110D02*
X0522876Y0159110D01*
X0522876Y0156712D02*
X0523186Y0156712D01*
X0523186Y0154313D02*
X0522876Y0154313D01*
X0522876Y0151915D02*
X0523186Y0151915D01*
X0523186Y0149516D02*
X0522876Y0149516D01*
X0522876Y0147118D02*
X0523462Y0147118D01*
X0522876Y0144719D02*
X0524100Y0144719D01*
X0523580Y0142321D02*
X0522876Y0142321D01*
X0522876Y0139922D02*
X0524805Y0139922D01*
X0522876Y0137524D02*
X0530857Y0137524D01*
X0530857Y0139922D02*
X0529912Y0139922D01*
X0530857Y0135125D02*
X0522876Y0135125D01*
X0522876Y0132727D02*
X0531972Y0132727D01*
X0534371Y0130328D02*
X0522876Y0130328D01*
X0524877Y0127930D02*
X0546019Y0127930D01*
X0545669Y0125531D02*
X0527275Y0125531D01*
X0529674Y0123133D02*
X0545854Y0123133D01*
X0545669Y0120734D02*
X0545311Y0120734D01*
X0545311Y0118335D02*
X0545669Y0118335D01*
X0527663Y0118335D02*
X0517110Y0118335D01*
X0536382Y0135125D02*
X0545669Y0135125D01*
X0545669Y0137524D02*
X0535672Y0137524D01*
X0535672Y0139922D02*
X0549232Y0139922D01*
X0538355Y0142321D02*
X0535672Y0142321D01*
X0535672Y0144719D02*
X0536456Y0144719D01*
X0546605Y0166306D02*
X0551248Y0166306D01*
X0590272Y0161509D02*
X0590272Y0161509D01*
X0590272Y0159110D02*
X0590272Y0159110D01*
X0590272Y0156712D02*
X0590272Y0156712D01*
X0590272Y0154524D02*
X0595260Y0154524D01*
X0590272Y0154524D01*
X0590272Y0154524D01*
X0590272Y0154313D02*
X0590272Y0154313D01*
X0590272Y0151915D02*
X0590272Y0151915D01*
X0590272Y0149516D02*
X0590272Y0149516D01*
X0594847Y0149516D02*
X0595684Y0149516D01*
X0595265Y0151915D02*
X0595260Y0151915D01*
X0595260Y0154313D02*
X0595265Y0154313D01*
X0595260Y0156712D02*
X0595265Y0156712D01*
X0595510Y0159110D02*
X0595001Y0159110D01*
X0593272Y0161509D02*
X0597176Y0161509D01*
X0328000Y0163907D02*
X0325978Y0163907D01*
X0327004Y0166306D02*
X0327798Y0166306D01*
D23*
X0323619Y0166335D03*
X0288186Y0153539D03*
X0331493Y0110232D03*
X0359052Y0072831D03*
X0366926Y0067909D03*
X0398422Y0131886D03*
X0402359Y0131886D03*
X0402359Y0139760D03*
X0402359Y0148618D03*
X0402359Y0157476D03*
X0429918Y0157476D03*
X0496847Y0086610D03*
X0597083Y0069051D03*
X0630705Y0086610D03*
X0684839Y0159445D03*
X0229131Y0086610D03*
X0154327Y0153539D03*
X0163186Y0163382D03*
X0168107Y0170272D03*
X0095272Y0086610D03*
D24*
X0166138Y0094720D02*
X0181709Y0094720D01*
X0181886Y0094898D01*
X0181886Y0103913D02*
X0185823Y0103913D01*
X0192142Y0103913D01*
X0193698Y0102358D01*
X0299997Y0094720D02*
X0315568Y0094720D01*
X0315745Y0103913D02*
X0317713Y0103913D01*
X0326001Y0103913D01*
X0327556Y0102358D01*
X0406296Y0102358D02*
X0410233Y0106295D01*
X0410233Y0136807D01*
X0600272Y0154524D02*
X0607083Y0154524D01*
X0617910Y0143697D01*
X0617910Y0121374D01*
X0615705Y0119169D01*
D25*
X0366926Y0092713D02*
X0366926Y0067909D01*
X0366926Y0092713D02*
X0362989Y0096650D01*
X0319091Y0105291D02*
X0317713Y0103913D01*
X0319091Y0105291D02*
X0319091Y0111217D01*
X0301965Y0107280D02*
X0294091Y0099406D01*
X0294091Y0077752D01*
X0297044Y0074799D01*
X0299918Y0074799D01*
X0299997Y0074720D01*
X0297280Y0064720D02*
X0289170Y0072831D01*
X0289170Y0101374D01*
X0297044Y0109248D01*
X0297044Y0166335D01*
X0298028Y0167319D01*
X0301965Y0164366D02*
X0309839Y0172240D01*
X0327556Y0172240D01*
X0331493Y0168303D01*
X0331493Y0165350D01*
X0301965Y0164366D02*
X0301965Y0107280D01*
X0315568Y0094720D02*
X0315745Y0094898D01*
X0299997Y0064720D02*
X0297280Y0064720D01*
X0185823Y0103913D02*
X0184839Y0104898D01*
X0184839Y0105311D01*
X0185233Y0105705D01*
X0185233Y0111217D01*
X0168107Y0107280D02*
X0168107Y0170272D01*
X0163186Y0163382D02*
X0163186Y0133854D01*
X0163186Y0109248D01*
X0155312Y0101374D01*
X0155312Y0075547D01*
X0166138Y0064720D01*
X0166138Y0074720D02*
X0163264Y0074720D01*
X0160233Y0077752D01*
X0160233Y0099406D01*
X0168107Y0107280D01*
X0187635Y0153539D02*
X0187635Y0170114D01*
X0250627Y0170114D02*
X0250627Y0153539D01*
D26*
X0270627Y0153539D02*
X0270627Y0146492D01*
X0273422Y0143697D01*
X0293107Y0162398D02*
X0293107Y0112201D01*
X0285233Y0104327D01*
X0285233Y0068894D01*
X0288186Y0065941D01*
X0212398Y0140744D02*
X0207635Y0145508D01*
X0207635Y0153539D01*
X0154327Y0133854D02*
X0151867Y0136315D01*
X0149406Y0136315D01*
X0149406Y0131394D02*
X0151867Y0131394D01*
X0154327Y0133854D01*
X0307871Y0163382D02*
X0320666Y0163382D01*
X0323619Y0166335D01*
X0527359Y0150193D02*
X0527359Y0142713D01*
X0539170Y0146650D02*
X0540154Y0145665D01*
X0539170Y0146650D02*
X0539170Y0150193D01*
X0551676Y0138487D02*
X0554918Y0141728D01*
X0551676Y0138487D02*
X0551676Y0135449D01*
X0563776Y0135823D02*
X0563776Y0158461D01*
X0554918Y0167319D01*
X0563776Y0135823D02*
X0563776Y0124012D01*
X0560213Y0120449D01*
X0551676Y0120449D01*
X0563776Y0124012D02*
X0563776Y0094484D01*
X0562339Y0093047D01*
X0552660Y0093047D01*
X0576860Y0098047D02*
X0577556Y0098743D01*
X0577556Y0107280D01*
X0597083Y0069051D02*
X0597083Y0062831D01*
X0593894Y0059642D01*
X0588383Y0059642D01*
D27*
X0577556Y0107280D03*
X0563776Y0135823D03*
X0554918Y0141728D03*
X0540154Y0145665D03*
X0527359Y0142713D03*
X0554918Y0167319D03*
X0331493Y0165350D03*
X0309839Y0172240D03*
X0298028Y0167319D03*
X0250627Y0170114D03*
X0187635Y0170114D03*
X0163186Y0133854D03*
X0154327Y0133854D03*
D28*
X0154327Y0127949D03*
X0156296Y0124996D03*
X0159249Y0122043D03*
X0212398Y0140744D03*
X0273422Y0143697D03*
X0293107Y0162398D03*
X0307871Y0163382D03*
X0343304Y0134839D03*
X0347241Y0134839D03*
X0359052Y0134839D03*
X0362989Y0134839D03*
X0366926Y0134839D03*
X0370863Y0134839D03*
X0387595Y0151571D03*
X0387595Y0155508D03*
X0382674Y0155508D03*
X0379721Y0161413D03*
X0394485Y0159445D03*
X0416138Y0145665D03*
X0419091Y0142713D03*
X0423028Y0162398D03*
X0420075Y0165350D03*
X0481099Y0153539D03*
X0481099Y0142713D03*
X0520469Y0165350D03*
X0528343Y0165350D03*
X0545075Y0163382D03*
X0682871Y0130902D03*
X0365942Y0114169D03*
X0365942Y0110232D03*
X0354131Y0110232D03*
X0350194Y0107280D03*
X0349209Y0124012D03*
X0343304Y0088579D03*
X0353146Y0087594D03*
X0337398Y0075783D03*
X0337398Y0071846D03*
X0346257Y0062988D03*
X0356099Y0062988D03*
X0288186Y0065941D03*
X0283264Y0114169D03*
D29*
X0283264Y0147240D01*
X0283658Y0147634D01*
X0277359Y0147634D02*
X0277359Y0153539D01*
X0277359Y0147634D02*
X0276965Y0147634D01*
X0343304Y0134839D02*
X0357083Y0121059D01*
X0357083Y0107280D01*
X0344288Y0094484D01*
X0344288Y0089563D01*
X0343304Y0088579D01*
X0346257Y0093500D02*
X0359052Y0106295D01*
X0359052Y0123028D01*
X0347241Y0134839D01*
X0359052Y0134839D02*
X0361020Y0132870D01*
X0361020Y0105311D01*
X0353146Y0097437D01*
X0353146Y0087594D01*
X0346257Y0093500D02*
X0346257Y0062988D01*
X0356099Y0062988D02*
X0356099Y0097437D01*
X0362989Y0104327D01*
X0362989Y0134839D01*
X0366926Y0134839D02*
X0366926Y0115154D01*
X0365942Y0114169D01*
X0368894Y0113185D02*
X0365942Y0110232D01*
X0368894Y0113185D02*
X0368894Y0131886D01*
X0370863Y0133854D01*
X0370863Y0134839D01*
X0387595Y0151571D02*
X0390548Y0151571D01*
X0399406Y0142713D01*
X0419091Y0142713D01*
X0416138Y0145665D02*
X0414170Y0145665D01*
X0413186Y0144681D01*
X0400390Y0144681D01*
X0389564Y0155508D01*
X0387595Y0155508D01*
X0382674Y0155508D02*
X0382674Y0160429D01*
X0385627Y0163382D01*
X0418107Y0163382D01*
X0419091Y0162398D01*
X0423028Y0162398D01*
X0420075Y0165350D02*
X0383658Y0165350D01*
X0379721Y0161413D01*
X0394485Y0159445D02*
X0396453Y0161413D01*
X0417123Y0161413D01*
X0420075Y0158461D01*
X0420075Y0156886D01*
X0420075Y0150193D02*
X0414564Y0150193D01*
X0414170Y0150587D01*
X0349209Y0124012D02*
X0349209Y0115390D01*
X0347989Y0114169D01*
X0350194Y0107280D02*
X0350194Y0106295D01*
X0337398Y0093500D01*
X0337398Y0075783D01*
X0340351Y0074799D02*
X0337398Y0071846D01*
X0340351Y0074799D02*
X0340351Y0093500D01*
X0354131Y0107280D01*
X0354131Y0110232D01*
X0481847Y0114169D02*
X0482083Y0114406D01*
X0482083Y0141728D01*
X0481099Y0142713D01*
X0481099Y0153539D01*
X0520469Y0165350D02*
X0520469Y0128933D01*
X0530902Y0118500D01*
X0541138Y0118500D01*
X0541138Y0111807D02*
X0541138Y0091531D01*
X0544623Y0088047D01*
X0552660Y0088047D01*
X0576860Y0088047D02*
X0584977Y0088047D01*
X0588383Y0084642D01*
X0588383Y0079130D01*
X0588383Y0072437D02*
X0606473Y0072437D01*
X0630705Y0096669D01*
X0643205Y0104169D02*
X0637142Y0110232D01*
X0612989Y0110232D01*
X0610627Y0107870D01*
X0585430Y0107870D01*
X0585430Y0114563D02*
X0585430Y0123028D01*
X0583009Y0125449D01*
X0575876Y0125449D01*
X0551676Y0130449D02*
X0537654Y0130449D01*
X0533264Y0134839D01*
X0533264Y0150193D01*
X0533264Y0156886D02*
X0539170Y0156886D01*
X0533461Y0157083D02*
X0533461Y0160232D01*
X0528343Y0165350D01*
X0527359Y0156886D02*
X0533264Y0156886D01*
X0545075Y0163382D02*
X0552949Y0163382D01*
X0554918Y0161413D01*
X0554918Y0156886D01*
X0678540Y0147634D02*
X0678589Y0147685D01*
X0678634Y0147738D01*
X0678677Y0147794D01*
X0678717Y0147852D01*
X0678754Y0147912D01*
X0678788Y0147974D01*
X0678818Y0148037D01*
X0678845Y0148102D01*
X0678868Y0148169D01*
X0678888Y0148236D01*
X0678905Y0148305D01*
X0678917Y0148374D01*
X0678927Y0148444D01*
X0678932Y0148514D01*
X0678934Y0148584D01*
X0678934Y0153539D01*
X0685233Y0147634D02*
X0685233Y0146059D01*
X0684839Y0145665D01*
X0684839Y0132870D01*
X0682871Y0130902D01*
X0588383Y0072437D02*
X0588383Y0066335D01*
X0581493Y0066335D01*
X0159249Y0122043D02*
X0159249Y0146650D01*
X0158264Y0147634D01*
X0149800Y0147634D01*
X0149800Y0141728D02*
X0146453Y0138382D01*
X0146453Y0123028D01*
X0147438Y0122043D01*
X0153343Y0122043D01*
X0156296Y0124996D01*
X0154327Y0127949D02*
X0152359Y0125980D01*
X0149800Y0125980D01*
X0143501Y0126374D02*
X0143501Y0131394D01*
X0143501Y0136315D02*
X0143501Y0141335D01*
X0143107Y0141728D01*
X0143107Y0147634D02*
X0143501Y0148028D01*
X0143501Y0153539D01*
X0143501Y0126374D02*
X0143107Y0125980D01*
D30*
X0533264Y0156886D02*
X0533461Y0157083D01*
X0548028Y0150587D02*
X0548422Y0150193D01*
X0554918Y0150193D01*
M02*
