G75*
%MOIN*%
%OFA0B0*%
%FSLAX25Y25*%
%IPPOS*%
%LPD*%
%AMOC8*
5,1,8,0,0,1.08239X$1,22.5*
%
%ADD10C,0.00000*%
%ADD11C,0.23622*%
%ADD12C,0.08250*%
%ADD13C,0.10000*%
%ADD14C,0.06000*%
%ADD15C,0.03200*%
D10*
X0359331Y0253031D02*
X0611299Y0253031D01*
X0611299Y0253032D02*
X0611584Y0253035D01*
X0611870Y0253046D01*
X0612155Y0253063D01*
X0612439Y0253087D01*
X0612723Y0253118D01*
X0613006Y0253156D01*
X0613287Y0253201D01*
X0613568Y0253252D01*
X0613848Y0253310D01*
X0614126Y0253375D01*
X0614402Y0253447D01*
X0614676Y0253525D01*
X0614949Y0253610D01*
X0615219Y0253702D01*
X0615487Y0253800D01*
X0615753Y0253904D01*
X0616016Y0254015D01*
X0616276Y0254132D01*
X0616534Y0254255D01*
X0616788Y0254385D01*
X0617039Y0254521D01*
X0617287Y0254662D01*
X0617531Y0254810D01*
X0617772Y0254963D01*
X0618008Y0255123D01*
X0618241Y0255288D01*
X0618470Y0255458D01*
X0618695Y0255634D01*
X0618915Y0255816D01*
X0619131Y0256002D01*
X0619342Y0256194D01*
X0619549Y0256391D01*
X0619751Y0256593D01*
X0619948Y0256800D01*
X0620140Y0257011D01*
X0620326Y0257227D01*
X0620508Y0257447D01*
X0620684Y0257672D01*
X0620854Y0257901D01*
X0621019Y0258134D01*
X0621179Y0258370D01*
X0621332Y0258611D01*
X0621480Y0258855D01*
X0621621Y0259103D01*
X0621757Y0259354D01*
X0621887Y0259608D01*
X0622010Y0259866D01*
X0622127Y0260126D01*
X0622238Y0260389D01*
X0622342Y0260655D01*
X0622440Y0260923D01*
X0622532Y0261193D01*
X0622617Y0261466D01*
X0622695Y0261740D01*
X0622767Y0262016D01*
X0622832Y0262294D01*
X0622890Y0262574D01*
X0622941Y0262855D01*
X0622986Y0263136D01*
X0623024Y0263419D01*
X0623055Y0263703D01*
X0623079Y0263987D01*
X0623096Y0264272D01*
X0623107Y0264558D01*
X0623110Y0264843D01*
X0623110Y0359331D01*
X0623107Y0359616D01*
X0623096Y0359902D01*
X0623079Y0360187D01*
X0623055Y0360471D01*
X0623024Y0360755D01*
X0622986Y0361038D01*
X0622941Y0361319D01*
X0622890Y0361600D01*
X0622832Y0361880D01*
X0622767Y0362158D01*
X0622695Y0362434D01*
X0622617Y0362708D01*
X0622532Y0362981D01*
X0622440Y0363251D01*
X0622342Y0363519D01*
X0622238Y0363785D01*
X0622127Y0364048D01*
X0622010Y0364308D01*
X0621887Y0364566D01*
X0621757Y0364820D01*
X0621621Y0365071D01*
X0621480Y0365319D01*
X0621332Y0365563D01*
X0621179Y0365804D01*
X0621019Y0366040D01*
X0620854Y0366273D01*
X0620684Y0366502D01*
X0620508Y0366727D01*
X0620326Y0366947D01*
X0620140Y0367163D01*
X0619948Y0367374D01*
X0619751Y0367581D01*
X0619549Y0367783D01*
X0619342Y0367980D01*
X0619131Y0368172D01*
X0618915Y0368358D01*
X0618695Y0368540D01*
X0618470Y0368716D01*
X0618241Y0368886D01*
X0618008Y0369051D01*
X0617772Y0369211D01*
X0617531Y0369364D01*
X0617287Y0369512D01*
X0617039Y0369653D01*
X0616788Y0369789D01*
X0616534Y0369919D01*
X0616276Y0370042D01*
X0616016Y0370159D01*
X0615753Y0370270D01*
X0615487Y0370374D01*
X0615219Y0370472D01*
X0614949Y0370564D01*
X0614676Y0370649D01*
X0614402Y0370727D01*
X0614126Y0370799D01*
X0613848Y0370864D01*
X0613568Y0370922D01*
X0613287Y0370973D01*
X0613006Y0371018D01*
X0612723Y0371056D01*
X0612439Y0371087D01*
X0612155Y0371111D01*
X0611870Y0371128D01*
X0611584Y0371139D01*
X0611299Y0371142D01*
X0359331Y0371142D01*
X0359046Y0371139D01*
X0358760Y0371128D01*
X0358475Y0371111D01*
X0358191Y0371087D01*
X0357907Y0371056D01*
X0357624Y0371018D01*
X0357343Y0370973D01*
X0357062Y0370922D01*
X0356782Y0370864D01*
X0356504Y0370799D01*
X0356228Y0370727D01*
X0355954Y0370649D01*
X0355681Y0370564D01*
X0355411Y0370472D01*
X0355143Y0370374D01*
X0354877Y0370270D01*
X0354614Y0370159D01*
X0354354Y0370042D01*
X0354096Y0369919D01*
X0353842Y0369789D01*
X0353591Y0369653D01*
X0353343Y0369512D01*
X0353099Y0369364D01*
X0352858Y0369211D01*
X0352622Y0369051D01*
X0352389Y0368886D01*
X0352160Y0368716D01*
X0351935Y0368540D01*
X0351715Y0368358D01*
X0351499Y0368172D01*
X0351288Y0367980D01*
X0351081Y0367783D01*
X0350879Y0367581D01*
X0350682Y0367374D01*
X0350490Y0367163D01*
X0350304Y0366947D01*
X0350122Y0366727D01*
X0349946Y0366502D01*
X0349776Y0366273D01*
X0349611Y0366040D01*
X0349451Y0365804D01*
X0349298Y0365563D01*
X0349150Y0365319D01*
X0349009Y0365071D01*
X0348873Y0364820D01*
X0348743Y0364566D01*
X0348620Y0364308D01*
X0348503Y0364048D01*
X0348392Y0363785D01*
X0348288Y0363519D01*
X0348190Y0363251D01*
X0348098Y0362981D01*
X0348013Y0362708D01*
X0347935Y0362434D01*
X0347863Y0362158D01*
X0347798Y0361880D01*
X0347740Y0361600D01*
X0347689Y0361319D01*
X0347644Y0361038D01*
X0347606Y0360755D01*
X0347575Y0360471D01*
X0347551Y0360187D01*
X0347534Y0359902D01*
X0347523Y0359616D01*
X0347520Y0359331D01*
X0347520Y0264843D01*
X0347523Y0264558D01*
X0347534Y0264272D01*
X0347551Y0263987D01*
X0347575Y0263703D01*
X0347606Y0263419D01*
X0347644Y0263136D01*
X0347689Y0262855D01*
X0347740Y0262574D01*
X0347798Y0262294D01*
X0347863Y0262016D01*
X0347935Y0261740D01*
X0348013Y0261466D01*
X0348098Y0261193D01*
X0348190Y0260923D01*
X0348288Y0260655D01*
X0348392Y0260389D01*
X0348503Y0260126D01*
X0348620Y0259866D01*
X0348743Y0259608D01*
X0348873Y0259354D01*
X0349009Y0259103D01*
X0349150Y0258855D01*
X0349298Y0258611D01*
X0349451Y0258370D01*
X0349611Y0258134D01*
X0349776Y0257901D01*
X0349946Y0257672D01*
X0350122Y0257447D01*
X0350304Y0257227D01*
X0350490Y0257011D01*
X0350682Y0256800D01*
X0350879Y0256593D01*
X0351081Y0256391D01*
X0351288Y0256194D01*
X0351499Y0256002D01*
X0351715Y0255816D01*
X0351935Y0255634D01*
X0352160Y0255458D01*
X0352389Y0255288D01*
X0352622Y0255123D01*
X0352858Y0254963D01*
X0353099Y0254810D01*
X0353343Y0254662D01*
X0353591Y0254521D01*
X0353842Y0254385D01*
X0354096Y0254255D01*
X0354354Y0254132D01*
X0354614Y0254015D01*
X0354877Y0253904D01*
X0355143Y0253800D01*
X0355411Y0253702D01*
X0355681Y0253610D01*
X0355954Y0253525D01*
X0356228Y0253447D01*
X0356504Y0253375D01*
X0356782Y0253310D01*
X0357062Y0253252D01*
X0357343Y0253201D01*
X0357624Y0253156D01*
X0357907Y0253118D01*
X0358191Y0253087D01*
X0358475Y0253063D01*
X0358760Y0253046D01*
X0359046Y0253035D01*
X0359331Y0253032D01*
D11*
X0406575Y0312087D03*
X0564055Y0312087D03*
D12*
X0379519Y0308465D02*
X0371269Y0308465D01*
X0371269Y0288465D02*
X0379519Y0288465D01*
X0379519Y0268465D02*
X0371269Y0268465D01*
X0371269Y0336339D02*
X0379519Y0336339D01*
X0379519Y0356339D02*
X0371269Y0356339D01*
D13*
X0444961Y0338465D03*
X0461102Y0338465D03*
X0485906Y0338465D03*
X0510906Y0338465D03*
X0510906Y0286496D03*
X0485906Y0286496D03*
X0461102Y0286496D03*
X0444961Y0286496D03*
D14*
X0600425Y0286339D02*
X0606425Y0286339D01*
X0606425Y0296339D02*
X0600425Y0296339D01*
X0600425Y0306339D02*
X0606425Y0306339D01*
X0606425Y0317835D02*
X0600425Y0317835D01*
X0600425Y0327835D02*
X0606425Y0327835D01*
X0606425Y0337835D02*
X0600425Y0337835D01*
D15*
X0602795Y0338465D02*
X0603425Y0337835D01*
X0602795Y0338465D02*
X0510906Y0338465D01*
X0516466Y0332994D02*
X0597063Y0332994D01*
X0597140Y0332918D02*
X0597340Y0332835D01*
X0597140Y0332752D01*
X0595508Y0331120D01*
X0594625Y0328988D01*
X0594625Y0326681D01*
X0595508Y0324549D01*
X0597140Y0322918D01*
X0597340Y0322835D01*
X0597140Y0322752D01*
X0595508Y0321120D01*
X0594625Y0318988D01*
X0594625Y0316681D01*
X0595508Y0314549D01*
X0597140Y0312918D01*
X0599146Y0312087D01*
X0597140Y0311256D01*
X0596623Y0310739D01*
X0592865Y0310739D01*
X0591248Y0310069D01*
X0590010Y0308831D01*
X0572075Y0290896D01*
X0517526Y0290896D01*
X0517518Y0290914D01*
X0515324Y0293109D01*
X0512457Y0294296D01*
X0509354Y0294296D01*
X0506487Y0293109D01*
X0504293Y0290914D01*
X0503106Y0288048D01*
X0503106Y0284945D01*
X0504293Y0282078D01*
X0506487Y0279884D01*
X0509354Y0278696D01*
X0512457Y0278696D01*
X0515324Y0279884D01*
X0517518Y0282078D01*
X0517526Y0282096D01*
X0574773Y0282096D01*
X0576390Y0282766D01*
X0595563Y0301939D01*
X0596623Y0301939D01*
X0597140Y0301422D01*
X0597340Y0301339D01*
X0597140Y0301256D01*
X0595508Y0299624D01*
X0594771Y0297844D01*
X0574044Y0277117D01*
X0491075Y0277117D01*
X0490305Y0277886D01*
X0490305Y0279876D01*
X0490324Y0279884D01*
X0492518Y0282078D01*
X0493705Y0284945D01*
X0493705Y0288048D01*
X0492518Y0290914D01*
X0490324Y0293109D01*
X0487457Y0294296D01*
X0484354Y0294296D01*
X0481487Y0293109D01*
X0479293Y0290914D01*
X0478106Y0288048D01*
X0478106Y0284945D01*
X0479293Y0282078D01*
X0481487Y0279884D01*
X0481506Y0279876D01*
X0481506Y0275188D01*
X0482175Y0273571D01*
X0485522Y0270224D01*
X0486760Y0268986D01*
X0488377Y0268317D01*
X0576741Y0268317D01*
X0578359Y0268986D01*
X0594625Y0285253D01*
X0594625Y0285185D01*
X0595508Y0283053D01*
X0597140Y0281422D01*
X0599271Y0280539D01*
X0607579Y0280539D01*
X0609711Y0281422D01*
X0611342Y0283053D01*
X0612225Y0285185D01*
X0612225Y0287492D01*
X0611342Y0289624D01*
X0609711Y0291256D01*
X0609510Y0291339D01*
X0609711Y0291422D01*
X0611342Y0293053D01*
X0612225Y0295185D01*
X0612225Y0297492D01*
X0611342Y0299624D01*
X0609711Y0301256D01*
X0609510Y0301339D01*
X0609711Y0301422D01*
X0611342Y0303053D01*
X0612225Y0305185D01*
X0612225Y0307492D01*
X0611342Y0309624D01*
X0609711Y0311256D01*
X0607704Y0312087D01*
X0609711Y0312918D01*
X0611342Y0314549D01*
X0612225Y0316681D01*
X0612225Y0318988D01*
X0611342Y0321120D01*
X0609711Y0322752D01*
X0609510Y0322835D01*
X0609711Y0322918D01*
X0610228Y0323435D01*
X0612174Y0323435D01*
X0613792Y0324105D01*
X0615029Y0325342D01*
X0617510Y0327823D01*
X0617510Y0264842D01*
X0617457Y0264032D01*
X0617037Y0262466D01*
X0616227Y0261061D01*
X0615080Y0259915D01*
X0613676Y0259104D01*
X0612110Y0258685D01*
X0611299Y0258631D01*
X0359331Y0258631D01*
X0358520Y0258685D01*
X0356954Y0259104D01*
X0355550Y0259915D01*
X0354403Y0261061D01*
X0353592Y0262466D01*
X0353173Y0264032D01*
X0353120Y0264843D01*
X0353120Y0359331D01*
X0353173Y0360141D01*
X0353592Y0361708D01*
X0353592Y0361708D01*
X0354403Y0363112D01*
X0355550Y0364258D01*
X0356954Y0365069D01*
X0358520Y0365489D01*
X0359331Y0365542D01*
X0611299Y0365542D01*
X0612110Y0365489D01*
X0613676Y0365069D01*
X0615080Y0364258D01*
X0616227Y0363112D01*
X0617037Y0361708D01*
X0617457Y0360141D01*
X0617510Y0359331D01*
X0617510Y0347531D01*
X0609855Y0355187D01*
X0608237Y0355857D01*
X0488377Y0355857D01*
X0486760Y0355187D01*
X0485522Y0353949D01*
X0482175Y0350603D01*
X0481506Y0348985D01*
X0481506Y0345085D01*
X0481487Y0345077D01*
X0479293Y0342883D01*
X0478106Y0340016D01*
X0478106Y0336913D01*
X0479293Y0334046D01*
X0481487Y0331852D01*
X0484354Y0330665D01*
X0487457Y0330665D01*
X0490324Y0331852D01*
X0492518Y0334046D01*
X0493705Y0336913D01*
X0493705Y0340016D01*
X0492518Y0342883D01*
X0490324Y0345077D01*
X0490305Y0345085D01*
X0490305Y0346288D01*
X0491075Y0347057D01*
X0605540Y0347057D01*
X0610836Y0341760D01*
X0610836Y0341626D01*
X0609711Y0342752D01*
X0607579Y0343635D01*
X0599271Y0343635D01*
X0597412Y0342865D01*
X0517526Y0342865D01*
X0517518Y0342883D01*
X0515324Y0345077D01*
X0512457Y0346265D01*
X0509354Y0346265D01*
X0506487Y0345077D01*
X0504293Y0342883D01*
X0503106Y0340016D01*
X0503106Y0336913D01*
X0504293Y0334046D01*
X0506487Y0331852D01*
X0509354Y0330665D01*
X0512457Y0330665D01*
X0515324Y0331852D01*
X0517518Y0334046D01*
X0517526Y0334065D01*
X0595993Y0334065D01*
X0597140Y0332918D01*
X0594960Y0329796D02*
X0381819Y0329796D01*
X0380896Y0329414D02*
X0383441Y0330468D01*
X0385389Y0332416D01*
X0386444Y0334961D01*
X0386444Y0337716D01*
X0385389Y0340261D01*
X0383441Y0342209D01*
X0380896Y0343264D01*
X0369891Y0343264D01*
X0367346Y0342209D01*
X0365398Y0340261D01*
X0364344Y0337716D01*
X0364344Y0334961D01*
X0365398Y0332416D01*
X0367346Y0330468D01*
X0369891Y0329414D01*
X0380896Y0329414D01*
X0385629Y0332994D02*
X0439400Y0332994D01*
X0438348Y0334046D02*
X0440542Y0331852D01*
X0443409Y0330665D01*
X0446512Y0330665D01*
X0449379Y0331852D01*
X0451573Y0334046D01*
X0452761Y0336913D01*
X0452761Y0340016D01*
X0451573Y0342883D01*
X0449379Y0345077D01*
X0446512Y0346265D01*
X0443409Y0346265D01*
X0440542Y0345077D01*
X0438348Y0342883D01*
X0437161Y0340016D01*
X0437161Y0336913D01*
X0438348Y0334046D01*
X0437459Y0336193D02*
X0386444Y0336193D01*
X0385750Y0339391D02*
X0437161Y0339391D01*
X0438227Y0342590D02*
X0382523Y0342590D01*
X0380834Y0349729D02*
X0381685Y0349957D01*
X0382499Y0350294D01*
X0383263Y0350735D01*
X0383962Y0351272D01*
X0384586Y0351895D01*
X0385122Y0352594D01*
X0385563Y0353358D01*
X0385900Y0354172D01*
X0386129Y0355024D01*
X0386244Y0355898D01*
X0386244Y0356339D01*
X0386244Y0356779D01*
X0386129Y0357653D01*
X0385900Y0358505D01*
X0385563Y0359319D01*
X0385122Y0360083D01*
X0384586Y0360782D01*
X0383962Y0361406D01*
X0383263Y0361942D01*
X0382499Y0362383D01*
X0381685Y0362720D01*
X0380834Y0362948D01*
X0379959Y0363064D01*
X0375394Y0363064D01*
X0375394Y0356339D01*
X0375394Y0356339D01*
X0386244Y0356339D01*
X0375394Y0356339D01*
X0375394Y0356339D01*
X0375394Y0363064D01*
X0370828Y0363064D01*
X0369954Y0362948D01*
X0369102Y0362720D01*
X0368288Y0362383D01*
X0367524Y0361942D01*
X0366825Y0361406D01*
X0366202Y0360782D01*
X0365665Y0360083D01*
X0365224Y0359319D01*
X0364887Y0358505D01*
X0364659Y0357653D01*
X0364544Y0356779D01*
X0364544Y0356339D01*
X0375394Y0356339D01*
X0375394Y0356339D01*
X0375394Y0356338D02*
X0375394Y0349614D01*
X0379959Y0349614D01*
X0380834Y0349729D01*
X0384808Y0352185D02*
X0483758Y0352185D01*
X0481506Y0348987D02*
X0353120Y0348987D01*
X0353120Y0352185D02*
X0365979Y0352185D01*
X0366202Y0351895D02*
X0366825Y0351272D01*
X0367524Y0350735D01*
X0368288Y0350294D01*
X0369102Y0349957D01*
X0369954Y0349729D01*
X0370828Y0349614D01*
X0375394Y0349614D01*
X0375394Y0356338D01*
X0375394Y0356338D01*
X0375394Y0356339D02*
X0364544Y0356339D01*
X0364544Y0355898D01*
X0364659Y0355024D01*
X0364887Y0354172D01*
X0365224Y0353358D01*
X0365665Y0352594D01*
X0366202Y0351895D01*
X0364611Y0355384D02*
X0353120Y0355384D01*
X0353120Y0358582D02*
X0364919Y0358582D01*
X0367314Y0361781D02*
X0353635Y0361781D01*
X0356799Y0364979D02*
X0613831Y0364979D01*
X0616995Y0361781D02*
X0383473Y0361781D01*
X0385868Y0358582D02*
X0617510Y0358582D01*
X0617510Y0355384D02*
X0609379Y0355384D01*
X0607362Y0351457D02*
X0615236Y0343583D01*
X0615236Y0331772D01*
X0611299Y0327835D01*
X0603425Y0327835D01*
X0596659Y0323399D02*
X0573406Y0323399D01*
X0573026Y0323778D02*
X0569695Y0325702D01*
X0565979Y0326698D01*
X0562132Y0326698D01*
X0558415Y0325702D01*
X0555084Y0323778D01*
X0552363Y0321058D01*
X0550440Y0317726D01*
X0549444Y0314010D01*
X0549444Y0310163D01*
X0550440Y0306447D01*
X0552363Y0303115D01*
X0555084Y0300395D01*
X0558415Y0298471D01*
X0562132Y0297476D01*
X0565979Y0297476D01*
X0569695Y0298471D01*
X0573026Y0300395D01*
X0575747Y0303115D01*
X0577670Y0306447D01*
X0578666Y0310163D01*
X0578666Y0314010D01*
X0577670Y0317726D01*
X0575747Y0321058D01*
X0573026Y0323778D01*
X0576242Y0320200D02*
X0595127Y0320200D01*
X0594625Y0317002D02*
X0577865Y0317002D01*
X0578666Y0313803D02*
X0596254Y0313803D01*
X0592542Y0310605D02*
X0578666Y0310605D01*
X0577927Y0307406D02*
X0588585Y0307406D01*
X0585387Y0304208D02*
X0576378Y0304208D01*
X0573641Y0301009D02*
X0582188Y0301009D01*
X0578990Y0297811D02*
X0567229Y0297811D01*
X0560881Y0297811D02*
X0409749Y0297811D01*
X0408498Y0297476D02*
X0412214Y0298471D01*
X0415546Y0300395D01*
X0418267Y0303115D01*
X0420190Y0306447D01*
X0421186Y0310163D01*
X0421186Y0314010D01*
X0420190Y0317726D01*
X0418267Y0321058D01*
X0415546Y0323778D01*
X0412214Y0325702D01*
X0408498Y0326698D01*
X0404651Y0326698D01*
X0400935Y0325702D01*
X0397603Y0323778D01*
X0394883Y0321058D01*
X0392959Y0317726D01*
X0391964Y0314010D01*
X0391964Y0310163D01*
X0392959Y0306447D01*
X0394883Y0303115D01*
X0397603Y0300395D01*
X0400935Y0298471D01*
X0404651Y0297476D01*
X0408498Y0297476D01*
X0403401Y0297811D02*
X0353120Y0297811D01*
X0353120Y0301009D02*
X0396989Y0301009D01*
X0394252Y0304208D02*
X0384729Y0304208D01*
X0384586Y0304021D02*
X0385122Y0304720D01*
X0385563Y0305484D01*
X0385900Y0306298D01*
X0386129Y0307150D01*
X0386244Y0308024D01*
X0386244Y0308464D01*
X0375394Y0308464D01*
X0375394Y0301740D01*
X0379959Y0301740D01*
X0380834Y0301855D01*
X0381685Y0302083D01*
X0382499Y0302420D01*
X0383263Y0302861D01*
X0383962Y0303398D01*
X0384586Y0304021D01*
X0386162Y0307406D02*
X0392702Y0307406D01*
X0391964Y0310605D02*
X0385907Y0310605D01*
X0385900Y0310631D02*
X0385563Y0311445D01*
X0385122Y0312209D01*
X0384586Y0312908D01*
X0383962Y0313532D01*
X0383263Y0314068D01*
X0382499Y0314509D01*
X0381685Y0314846D01*
X0380834Y0315074D01*
X0379959Y0315190D01*
X0375394Y0315190D01*
X0375394Y0308465D01*
X0375394Y0308465D01*
X0386244Y0308465D01*
X0386244Y0308905D01*
X0386129Y0309779D01*
X0385900Y0310631D01*
X0383608Y0313803D02*
X0391964Y0313803D01*
X0392765Y0317002D02*
X0353120Y0317002D01*
X0353120Y0320200D02*
X0394388Y0320200D01*
X0397224Y0323399D02*
X0353120Y0323399D01*
X0353120Y0326597D02*
X0404277Y0326597D01*
X0408873Y0326597D02*
X0561757Y0326597D01*
X0566353Y0326597D02*
X0594660Y0326597D01*
X0610192Y0323399D02*
X0617510Y0323399D01*
X0617510Y0326597D02*
X0616284Y0326597D01*
X0617510Y0320200D02*
X0611723Y0320200D01*
X0612225Y0317002D02*
X0617510Y0317002D01*
X0617510Y0313803D02*
X0610596Y0313803D01*
X0610362Y0310605D02*
X0617510Y0310605D01*
X0617510Y0307406D02*
X0612225Y0307406D01*
X0611820Y0304208D02*
X0617510Y0304208D01*
X0617510Y0301009D02*
X0609957Y0301009D01*
X0612093Y0297811D02*
X0617510Y0297811D01*
X0617510Y0294612D02*
X0611988Y0294612D01*
X0609691Y0291414D02*
X0617510Y0291414D01*
X0617510Y0288215D02*
X0611926Y0288215D01*
X0612155Y0285017D02*
X0617510Y0285017D01*
X0617510Y0281818D02*
X0610107Y0281818D01*
X0617510Y0278620D02*
X0587992Y0278620D01*
X0591190Y0281818D02*
X0596743Y0281818D01*
X0594695Y0285017D02*
X0594389Y0285017D01*
X0588341Y0291414D02*
X0585038Y0291414D01*
X0585142Y0288215D02*
X0581839Y0288215D01*
X0581944Y0285017D02*
X0578641Y0285017D01*
X0578745Y0281818D02*
X0517258Y0281818D01*
X0510906Y0286496D02*
X0573898Y0286496D01*
X0593740Y0306339D01*
X0603425Y0306339D01*
X0596893Y0301009D02*
X0594633Y0301009D01*
X0594738Y0297811D02*
X0591435Y0297811D01*
X0591539Y0294612D02*
X0588236Y0294612D01*
X0575791Y0294612D02*
X0382773Y0294612D01*
X0383441Y0294335D02*
X0380896Y0295390D01*
X0369891Y0295390D01*
X0367346Y0294335D01*
X0365398Y0292387D01*
X0364344Y0289842D01*
X0364344Y0287087D01*
X0365398Y0284542D01*
X0367346Y0282594D01*
X0369891Y0281540D01*
X0380896Y0281540D01*
X0383441Y0282594D01*
X0384912Y0284065D01*
X0437525Y0284065D01*
X0438348Y0282078D01*
X0440542Y0279884D01*
X0443409Y0278696D01*
X0446512Y0278696D01*
X0449379Y0279884D01*
X0451573Y0282078D01*
X0452761Y0284945D01*
X0452761Y0288048D01*
X0451573Y0290914D01*
X0449379Y0293109D01*
X0446512Y0294296D01*
X0443409Y0294296D01*
X0440542Y0293109D01*
X0440298Y0292865D01*
X0384912Y0292865D01*
X0383441Y0294335D01*
X0375394Y0288465D02*
X0442992Y0288465D01*
X0444961Y0286496D01*
X0451074Y0291414D02*
X0455296Y0291414D01*
X0455376Y0291518D02*
X0454770Y0290727D01*
X0454272Y0289865D01*
X0453890Y0288944D01*
X0453632Y0287982D01*
X0453502Y0286994D01*
X0453502Y0286496D01*
X0453502Y0285998D01*
X0453632Y0285010D01*
X0453890Y0284048D01*
X0454272Y0283127D01*
X0454770Y0282265D01*
X0455376Y0281474D01*
X0456081Y0280770D01*
X0456871Y0280163D01*
X0457734Y0279665D01*
X0458654Y0279284D01*
X0459616Y0279026D01*
X0460604Y0278896D01*
X0461102Y0278896D01*
X0461102Y0286496D01*
X0453502Y0286496D01*
X0461102Y0286496D01*
X0461102Y0286496D01*
X0461102Y0286496D01*
X0461102Y0294096D01*
X0460604Y0294096D01*
X0459616Y0293966D01*
X0458654Y0293708D01*
X0457734Y0293327D01*
X0456871Y0292829D01*
X0456081Y0292222D01*
X0455376Y0291518D01*
X0453695Y0288215D02*
X0452691Y0288215D01*
X0452761Y0285017D02*
X0453632Y0285017D01*
X0455112Y0281818D02*
X0451314Y0281818D01*
X0461102Y0281818D02*
X0461102Y0281818D01*
X0461102Y0278896D02*
X0461600Y0278896D01*
X0462588Y0279026D01*
X0463551Y0279284D01*
X0464471Y0279665D01*
X0465334Y0280163D01*
X0466124Y0280770D01*
X0466829Y0281474D01*
X0467435Y0282265D01*
X0467933Y0283127D01*
X0468314Y0284048D01*
X0468572Y0285010D01*
X0468702Y0285998D01*
X0468702Y0286496D01*
X0461102Y0286496D01*
X0461102Y0286496D01*
X0461102Y0278896D01*
X0461102Y0285017D02*
X0461102Y0285017D01*
X0461102Y0286496D02*
X0461102Y0286496D01*
X0461102Y0294096D01*
X0461600Y0294096D01*
X0462588Y0293966D01*
X0463551Y0293708D01*
X0464471Y0293327D01*
X0465334Y0292829D01*
X0466124Y0292222D01*
X0466829Y0291518D01*
X0467435Y0290727D01*
X0467933Y0289865D01*
X0468314Y0288944D01*
X0468572Y0287982D01*
X0468702Y0286994D01*
X0468702Y0286496D01*
X0461102Y0286496D01*
X0461102Y0288215D02*
X0461102Y0288215D01*
X0461102Y0291414D02*
X0461102Y0291414D01*
X0466909Y0291414D02*
X0479792Y0291414D01*
X0478175Y0288215D02*
X0468510Y0288215D01*
X0468573Y0285017D02*
X0478106Y0285017D01*
X0479553Y0281818D02*
X0467092Y0281818D01*
X0481506Y0278620D02*
X0353120Y0278620D01*
X0353120Y0281818D02*
X0369219Y0281818D01*
X0365201Y0285017D02*
X0353120Y0285017D01*
X0353120Y0288215D02*
X0364344Y0288215D01*
X0364995Y0291414D02*
X0353120Y0291414D01*
X0353120Y0294612D02*
X0368014Y0294612D01*
X0369954Y0301855D02*
X0370828Y0301740D01*
X0375394Y0301740D01*
X0375394Y0308464D01*
X0375394Y0308464D01*
X0375394Y0308465D01*
X0375394Y0315190D01*
X0370828Y0315190D01*
X0369954Y0315074D01*
X0369102Y0314846D01*
X0368288Y0314509D01*
X0367524Y0314068D01*
X0366825Y0313532D01*
X0366202Y0312908D01*
X0365665Y0312209D01*
X0365224Y0311445D01*
X0364887Y0310631D01*
X0364659Y0309779D01*
X0364544Y0308905D01*
X0364544Y0308465D01*
X0375394Y0308465D01*
X0375394Y0308464D01*
X0364544Y0308464D01*
X0364544Y0308024D01*
X0364659Y0307150D01*
X0364887Y0306298D01*
X0365224Y0305484D01*
X0365665Y0304720D01*
X0366202Y0304021D01*
X0366825Y0303398D01*
X0367524Y0302861D01*
X0368288Y0302420D01*
X0369102Y0302083D01*
X0369954Y0301855D01*
X0366058Y0304208D02*
X0353120Y0304208D01*
X0353120Y0307406D02*
X0364625Y0307406D01*
X0364880Y0310605D02*
X0353120Y0310605D01*
X0353120Y0313803D02*
X0367179Y0313803D01*
X0375394Y0313803D02*
X0375394Y0313803D01*
X0375394Y0310605D02*
X0375394Y0310605D01*
X0375394Y0307406D02*
X0375394Y0307406D01*
X0375394Y0304208D02*
X0375394Y0304208D01*
X0381569Y0281818D02*
X0438608Y0281818D01*
X0416160Y0301009D02*
X0554469Y0301009D01*
X0551733Y0304208D02*
X0418897Y0304208D01*
X0420447Y0307406D02*
X0550183Y0307406D01*
X0549444Y0310605D02*
X0421186Y0310605D01*
X0421186Y0313803D02*
X0549444Y0313803D01*
X0550246Y0317002D02*
X0420384Y0317002D01*
X0418762Y0320200D02*
X0551868Y0320200D01*
X0554704Y0323399D02*
X0415926Y0323399D01*
X0442259Y0345788D02*
X0353120Y0345788D01*
X0353120Y0342590D02*
X0368265Y0342590D01*
X0365038Y0339391D02*
X0353120Y0339391D01*
X0353120Y0336193D02*
X0364344Y0336193D01*
X0365158Y0332994D02*
X0353120Y0332994D01*
X0353120Y0329796D02*
X0368969Y0329796D01*
X0375394Y0352185D02*
X0375394Y0352185D01*
X0375394Y0355384D02*
X0375394Y0355384D01*
X0375394Y0358582D02*
X0375394Y0358582D01*
X0375394Y0361781D02*
X0375394Y0361781D01*
X0386176Y0355384D02*
X0487235Y0355384D01*
X0489252Y0351457D02*
X0607362Y0351457D01*
X0612856Y0352185D02*
X0617510Y0352185D01*
X0617510Y0348987D02*
X0616055Y0348987D01*
X0610007Y0342590D02*
X0609872Y0342590D01*
X0606808Y0345788D02*
X0513607Y0345788D01*
X0508204Y0345788D02*
X0490305Y0345788D01*
X0492639Y0342590D02*
X0504172Y0342590D01*
X0503106Y0339391D02*
X0493705Y0339391D01*
X0493407Y0336193D02*
X0503404Y0336193D01*
X0505345Y0332994D02*
X0491466Y0332994D01*
X0485906Y0338465D02*
X0485906Y0348110D01*
X0489252Y0351457D01*
X0481506Y0345788D02*
X0463134Y0345788D01*
X0463551Y0345677D02*
X0462588Y0345935D01*
X0461600Y0346065D01*
X0461102Y0346065D01*
X0460604Y0346065D01*
X0459616Y0345935D01*
X0458654Y0345677D01*
X0457734Y0345295D01*
X0456871Y0344797D01*
X0456081Y0344191D01*
X0455376Y0343486D01*
X0454770Y0342696D01*
X0454272Y0341833D01*
X0453890Y0340913D01*
X0453632Y0339950D01*
X0453502Y0338963D01*
X0453502Y0338465D01*
X0461102Y0338465D01*
X0461102Y0346065D01*
X0461102Y0338465D01*
X0461102Y0338465D01*
X0461102Y0338464D01*
X0461102Y0338464D01*
X0461102Y0330865D01*
X0460604Y0330865D01*
X0459616Y0330995D01*
X0458654Y0331252D01*
X0457734Y0331634D01*
X0456871Y0332132D01*
X0456081Y0332738D01*
X0455376Y0333443D01*
X0454770Y0334233D01*
X0454272Y0335096D01*
X0453890Y0336016D01*
X0453632Y0336979D01*
X0453502Y0337966D01*
X0453502Y0338464D01*
X0461102Y0338464D01*
X0461102Y0330865D01*
X0461600Y0330865D01*
X0462588Y0330995D01*
X0463551Y0331252D01*
X0464471Y0331634D01*
X0465334Y0332132D01*
X0466124Y0332738D01*
X0466829Y0333443D01*
X0467435Y0334233D01*
X0467933Y0335096D01*
X0468314Y0336016D01*
X0468572Y0336979D01*
X0468702Y0337966D01*
X0468702Y0338464D01*
X0461102Y0338464D01*
X0461102Y0338465D01*
X0468702Y0338465D01*
X0468702Y0338963D01*
X0468572Y0339950D01*
X0468314Y0340913D01*
X0467933Y0341833D01*
X0467435Y0342696D01*
X0466829Y0343486D01*
X0466124Y0344191D01*
X0465334Y0344797D01*
X0464471Y0345295D01*
X0463551Y0345677D01*
X0461102Y0345788D02*
X0461102Y0345788D01*
X0459071Y0345788D02*
X0447662Y0345788D01*
X0451695Y0342590D02*
X0454708Y0342590D01*
X0453559Y0339391D02*
X0452761Y0339391D01*
X0452462Y0336193D02*
X0453843Y0336193D01*
X0455825Y0332994D02*
X0450521Y0332994D01*
X0461102Y0332994D02*
X0461102Y0332994D01*
X0461102Y0336193D02*
X0461102Y0336193D01*
X0461102Y0339391D02*
X0461102Y0339391D01*
X0461102Y0342590D02*
X0461102Y0342590D01*
X0467496Y0342590D02*
X0479172Y0342590D01*
X0478106Y0339391D02*
X0468646Y0339391D01*
X0468362Y0336193D02*
X0478404Y0336193D01*
X0480345Y0332994D02*
X0466380Y0332994D01*
X0492019Y0291414D02*
X0504792Y0291414D01*
X0503175Y0288215D02*
X0493636Y0288215D01*
X0493705Y0285017D02*
X0503106Y0285017D01*
X0504553Y0281818D02*
X0492258Y0281818D01*
X0490305Y0278620D02*
X0575547Y0278620D01*
X0575866Y0272717D02*
X0599488Y0296339D01*
X0603425Y0296339D01*
X0617510Y0275421D02*
X0584793Y0275421D01*
X0581595Y0272223D02*
X0617510Y0272223D01*
X0617510Y0269024D02*
X0578396Y0269024D01*
X0575866Y0272717D02*
X0489252Y0272717D01*
X0485906Y0276063D01*
X0485906Y0286496D01*
X0481506Y0275421D02*
X0353120Y0275421D01*
X0353120Y0272223D02*
X0365330Y0272223D01*
X0365398Y0272387D02*
X0364344Y0269842D01*
X0364344Y0267087D01*
X0365398Y0264542D01*
X0367346Y0262594D01*
X0369891Y0261540D01*
X0380896Y0261540D01*
X0383441Y0262594D01*
X0385389Y0264542D01*
X0386444Y0267087D01*
X0386444Y0269842D01*
X0385389Y0272387D01*
X0383441Y0274335D01*
X0380896Y0275390D01*
X0369891Y0275390D01*
X0367346Y0274335D01*
X0365398Y0272387D01*
X0364344Y0269024D02*
X0353120Y0269024D01*
X0353120Y0265826D02*
X0364866Y0265826D01*
X0367313Y0262627D02*
X0353549Y0262627D01*
X0356392Y0259429D02*
X0614238Y0259429D01*
X0617081Y0262627D02*
X0383475Y0262627D01*
X0385921Y0265826D02*
X0617510Y0265826D01*
X0572593Y0291414D02*
X0517019Y0291414D01*
X0486722Y0269024D02*
X0386444Y0269024D01*
X0385458Y0272223D02*
X0483523Y0272223D01*
M02*
