G75*
%MOIN*%
%OFA0B0*%
%FSLAX25Y25*%
%IPPOS*%
%LPD*%
%AMOC8*
5,1,8,0,0,1.08239X$1,22.5*
%
%ADD10C,0.00000*%
%ADD11OC8,0.06300*%
%ADD12C,0.06000*%
%ADD13C,0.09449*%
%ADD14C,0.07087*%
%ADD15C,0.06791*%
%ADD16R,0.06791X0.06791*%
%ADD17C,0.03937*%
%ADD18R,0.06300X0.04600*%
%ADD19C,0.01600*%
%ADD20C,0.02559*%
%ADD21C,0.01000*%
%ADD22R,0.02559X0.02559*%
%ADD23R,0.03600X0.03600*%
%ADD24C,0.03200*%
%ADD25R,0.03543X0.03543*%
%ADD26C,0.03543*%
%ADD27C,0.00800*%
D10*
X0193698Y0086610D02*
X0193698Y0204720D01*
X0193697Y0204720D02*
X0193694Y0205005D01*
X0193683Y0205291D01*
X0193666Y0205576D01*
X0193642Y0205860D01*
X0193611Y0206144D01*
X0193573Y0206427D01*
X0193528Y0206708D01*
X0193477Y0206989D01*
X0193419Y0207269D01*
X0193354Y0207547D01*
X0193282Y0207823D01*
X0193204Y0208097D01*
X0193119Y0208370D01*
X0193027Y0208640D01*
X0192929Y0208908D01*
X0192825Y0209174D01*
X0192714Y0209437D01*
X0192597Y0209697D01*
X0192474Y0209955D01*
X0192344Y0210209D01*
X0192208Y0210460D01*
X0192067Y0210708D01*
X0191919Y0210952D01*
X0191766Y0211193D01*
X0191606Y0211429D01*
X0191441Y0211662D01*
X0191271Y0211891D01*
X0191095Y0212116D01*
X0190913Y0212336D01*
X0190727Y0212552D01*
X0190535Y0212763D01*
X0190338Y0212970D01*
X0190136Y0213172D01*
X0189929Y0213369D01*
X0189718Y0213561D01*
X0189502Y0213747D01*
X0189282Y0213929D01*
X0189057Y0214105D01*
X0188828Y0214275D01*
X0188595Y0214440D01*
X0188359Y0214600D01*
X0188118Y0214753D01*
X0187874Y0214901D01*
X0187626Y0215042D01*
X0187375Y0215178D01*
X0187121Y0215308D01*
X0186863Y0215431D01*
X0186603Y0215548D01*
X0186340Y0215659D01*
X0186074Y0215763D01*
X0185806Y0215861D01*
X0185536Y0215953D01*
X0185263Y0216038D01*
X0184989Y0216116D01*
X0184713Y0216188D01*
X0184435Y0216253D01*
X0184155Y0216311D01*
X0183874Y0216362D01*
X0183593Y0216407D01*
X0183310Y0216445D01*
X0183026Y0216476D01*
X0182742Y0216500D01*
X0182457Y0216517D01*
X0182171Y0216528D01*
X0181886Y0216531D01*
X0059839Y0216531D01*
X0059839Y0216532D02*
X0059554Y0216535D01*
X0059268Y0216546D01*
X0058983Y0216563D01*
X0058699Y0216587D01*
X0058415Y0216618D01*
X0058132Y0216656D01*
X0057851Y0216701D01*
X0057570Y0216752D01*
X0057290Y0216810D01*
X0057012Y0216875D01*
X0056736Y0216947D01*
X0056462Y0217025D01*
X0056189Y0217110D01*
X0055919Y0217202D01*
X0055651Y0217300D01*
X0055385Y0217404D01*
X0055122Y0217515D01*
X0054862Y0217632D01*
X0054604Y0217755D01*
X0054350Y0217885D01*
X0054099Y0218021D01*
X0053851Y0218162D01*
X0053607Y0218310D01*
X0053366Y0218463D01*
X0053130Y0218623D01*
X0052897Y0218788D01*
X0052668Y0218958D01*
X0052443Y0219134D01*
X0052223Y0219316D01*
X0052007Y0219502D01*
X0051796Y0219694D01*
X0051589Y0219891D01*
X0051387Y0220093D01*
X0051190Y0220300D01*
X0050998Y0220511D01*
X0050812Y0220727D01*
X0050630Y0220947D01*
X0050454Y0221172D01*
X0050284Y0221401D01*
X0050119Y0221634D01*
X0049959Y0221870D01*
X0049806Y0222111D01*
X0049658Y0222355D01*
X0049517Y0222603D01*
X0049381Y0222854D01*
X0049251Y0223108D01*
X0049128Y0223366D01*
X0049011Y0223626D01*
X0048900Y0223889D01*
X0048796Y0224155D01*
X0048698Y0224423D01*
X0048606Y0224693D01*
X0048521Y0224966D01*
X0048443Y0225240D01*
X0048371Y0225516D01*
X0048306Y0225794D01*
X0048248Y0226074D01*
X0048197Y0226355D01*
X0048152Y0226636D01*
X0048114Y0226919D01*
X0048083Y0227203D01*
X0048059Y0227487D01*
X0048042Y0227772D01*
X0048031Y0228058D01*
X0048028Y0228343D01*
X0048028Y0328736D01*
X0048031Y0329021D01*
X0048042Y0329307D01*
X0048059Y0329592D01*
X0048083Y0329876D01*
X0048114Y0330160D01*
X0048152Y0330443D01*
X0048197Y0330724D01*
X0048248Y0331005D01*
X0048306Y0331285D01*
X0048371Y0331563D01*
X0048443Y0331839D01*
X0048521Y0332113D01*
X0048606Y0332386D01*
X0048698Y0332656D01*
X0048796Y0332924D01*
X0048900Y0333190D01*
X0049011Y0333453D01*
X0049128Y0333713D01*
X0049251Y0333971D01*
X0049381Y0334225D01*
X0049517Y0334476D01*
X0049658Y0334724D01*
X0049806Y0334968D01*
X0049959Y0335209D01*
X0050119Y0335445D01*
X0050284Y0335678D01*
X0050454Y0335907D01*
X0050630Y0336132D01*
X0050812Y0336352D01*
X0050998Y0336568D01*
X0051190Y0336779D01*
X0051387Y0336986D01*
X0051589Y0337188D01*
X0051796Y0337385D01*
X0052007Y0337577D01*
X0052223Y0337763D01*
X0052443Y0337945D01*
X0052668Y0338121D01*
X0052897Y0338291D01*
X0053130Y0338456D01*
X0053366Y0338616D01*
X0053607Y0338769D01*
X0053851Y0338917D01*
X0054099Y0339058D01*
X0054350Y0339194D01*
X0054604Y0339324D01*
X0054862Y0339447D01*
X0055122Y0339564D01*
X0055385Y0339675D01*
X0055651Y0339779D01*
X0055919Y0339877D01*
X0056189Y0339969D01*
X0056462Y0340054D01*
X0056736Y0340132D01*
X0057012Y0340204D01*
X0057290Y0340269D01*
X0057570Y0340327D01*
X0057851Y0340378D01*
X0058132Y0340423D01*
X0058415Y0340461D01*
X0058699Y0340492D01*
X0058983Y0340516D01*
X0059268Y0340533D01*
X0059554Y0340544D01*
X0059839Y0340547D01*
X0289199Y0340547D01*
X0297551Y0344007D02*
X0316222Y0362678D01*
X0324574Y0366138D02*
X0432900Y0366138D01*
X0441251Y0362678D02*
X0459923Y0344007D01*
X0468275Y0340547D02*
X0685823Y0340547D01*
X0686108Y0340544D01*
X0686394Y0340533D01*
X0686679Y0340516D01*
X0686963Y0340492D01*
X0687247Y0340461D01*
X0687530Y0340423D01*
X0687811Y0340378D01*
X0688092Y0340327D01*
X0688372Y0340269D01*
X0688650Y0340204D01*
X0688926Y0340132D01*
X0689200Y0340054D01*
X0689473Y0339969D01*
X0689743Y0339877D01*
X0690011Y0339779D01*
X0690277Y0339675D01*
X0690540Y0339564D01*
X0690800Y0339447D01*
X0691058Y0339324D01*
X0691312Y0339194D01*
X0691563Y0339058D01*
X0691811Y0338917D01*
X0692055Y0338769D01*
X0692296Y0338616D01*
X0692532Y0338456D01*
X0692765Y0338291D01*
X0692994Y0338121D01*
X0693219Y0337945D01*
X0693439Y0337763D01*
X0693655Y0337577D01*
X0693866Y0337385D01*
X0694073Y0337188D01*
X0694275Y0336986D01*
X0694472Y0336779D01*
X0694664Y0336568D01*
X0694850Y0336352D01*
X0695032Y0336132D01*
X0695208Y0335907D01*
X0695378Y0335678D01*
X0695543Y0335445D01*
X0695703Y0335209D01*
X0695856Y0334968D01*
X0696004Y0334724D01*
X0696145Y0334476D01*
X0696281Y0334225D01*
X0696411Y0333971D01*
X0696534Y0333713D01*
X0696651Y0333453D01*
X0696762Y0333190D01*
X0696866Y0332924D01*
X0696964Y0332656D01*
X0697056Y0332386D01*
X0697141Y0332113D01*
X0697219Y0331839D01*
X0697291Y0331563D01*
X0697356Y0331285D01*
X0697414Y0331005D01*
X0697465Y0330724D01*
X0697510Y0330443D01*
X0697548Y0330160D01*
X0697579Y0329876D01*
X0697603Y0329592D01*
X0697620Y0329307D01*
X0697631Y0329021D01*
X0697634Y0328736D01*
X0697635Y0328736D02*
X0697635Y0228343D01*
X0697634Y0228343D02*
X0697631Y0228058D01*
X0697620Y0227772D01*
X0697603Y0227487D01*
X0697579Y0227203D01*
X0697548Y0226919D01*
X0697510Y0226636D01*
X0697465Y0226355D01*
X0697414Y0226074D01*
X0697356Y0225794D01*
X0697291Y0225516D01*
X0697219Y0225240D01*
X0697141Y0224966D01*
X0697056Y0224693D01*
X0696964Y0224423D01*
X0696866Y0224155D01*
X0696762Y0223889D01*
X0696651Y0223626D01*
X0696534Y0223366D01*
X0696411Y0223108D01*
X0696281Y0222854D01*
X0696145Y0222603D01*
X0696004Y0222355D01*
X0695856Y0222111D01*
X0695703Y0221870D01*
X0695543Y0221634D01*
X0695378Y0221401D01*
X0695208Y0221172D01*
X0695032Y0220947D01*
X0694850Y0220727D01*
X0694664Y0220511D01*
X0694472Y0220300D01*
X0694275Y0220093D01*
X0694073Y0219891D01*
X0693866Y0219694D01*
X0693655Y0219502D01*
X0693439Y0219316D01*
X0693219Y0219134D01*
X0692994Y0218958D01*
X0692765Y0218788D01*
X0692532Y0218623D01*
X0692296Y0218463D01*
X0692055Y0218310D01*
X0691811Y0218162D01*
X0691563Y0218021D01*
X0691312Y0217885D01*
X0691058Y0217755D01*
X0690800Y0217632D01*
X0690540Y0217515D01*
X0690277Y0217404D01*
X0690011Y0217300D01*
X0689743Y0217202D01*
X0689473Y0217110D01*
X0689200Y0217025D01*
X0688926Y0216947D01*
X0688650Y0216875D01*
X0688372Y0216810D01*
X0688092Y0216752D01*
X0687811Y0216701D01*
X0687530Y0216656D01*
X0687247Y0216618D01*
X0686963Y0216587D01*
X0686679Y0216563D01*
X0686394Y0216546D01*
X0686108Y0216535D01*
X0685823Y0216532D01*
X0685823Y0216531D02*
X0441729Y0216531D01*
X0441444Y0216528D01*
X0441158Y0216517D01*
X0440873Y0216500D01*
X0440589Y0216476D01*
X0440305Y0216445D01*
X0440022Y0216407D01*
X0439741Y0216362D01*
X0439460Y0216311D01*
X0439180Y0216253D01*
X0438902Y0216188D01*
X0438626Y0216116D01*
X0438352Y0216038D01*
X0438079Y0215953D01*
X0437809Y0215861D01*
X0437541Y0215763D01*
X0437275Y0215659D01*
X0437012Y0215548D01*
X0436752Y0215431D01*
X0436494Y0215308D01*
X0436240Y0215178D01*
X0435989Y0215042D01*
X0435741Y0214901D01*
X0435497Y0214753D01*
X0435256Y0214600D01*
X0435020Y0214440D01*
X0434787Y0214275D01*
X0434558Y0214105D01*
X0434333Y0213929D01*
X0434113Y0213747D01*
X0433897Y0213561D01*
X0433686Y0213369D01*
X0433479Y0213172D01*
X0433277Y0212970D01*
X0433080Y0212763D01*
X0432888Y0212552D01*
X0432702Y0212336D01*
X0432520Y0212116D01*
X0432344Y0211891D01*
X0432174Y0211662D01*
X0432009Y0211429D01*
X0431849Y0211193D01*
X0431696Y0210952D01*
X0431548Y0210708D01*
X0431407Y0210460D01*
X0431271Y0210209D01*
X0431141Y0209955D01*
X0431018Y0209697D01*
X0430901Y0209437D01*
X0430790Y0209174D01*
X0430686Y0208908D01*
X0430588Y0208640D01*
X0430496Y0208370D01*
X0430411Y0208097D01*
X0430333Y0207823D01*
X0430261Y0207547D01*
X0430196Y0207269D01*
X0430138Y0206989D01*
X0430087Y0206708D01*
X0430042Y0206427D01*
X0430004Y0206144D01*
X0429973Y0205860D01*
X0429949Y0205576D01*
X0429932Y0205291D01*
X0429921Y0205005D01*
X0429918Y0204720D01*
X0429918Y0086610D01*
X0429915Y0086325D01*
X0429904Y0086039D01*
X0429887Y0085754D01*
X0429863Y0085470D01*
X0429832Y0085186D01*
X0429794Y0084903D01*
X0429749Y0084622D01*
X0429698Y0084341D01*
X0429640Y0084061D01*
X0429575Y0083783D01*
X0429503Y0083507D01*
X0429425Y0083233D01*
X0429340Y0082960D01*
X0429248Y0082690D01*
X0429150Y0082422D01*
X0429046Y0082156D01*
X0428935Y0081893D01*
X0428818Y0081633D01*
X0428695Y0081375D01*
X0428565Y0081121D01*
X0428429Y0080870D01*
X0428288Y0080622D01*
X0428140Y0080378D01*
X0427987Y0080137D01*
X0427827Y0079901D01*
X0427662Y0079668D01*
X0427492Y0079439D01*
X0427316Y0079214D01*
X0427134Y0078994D01*
X0426948Y0078778D01*
X0426756Y0078567D01*
X0426559Y0078360D01*
X0426357Y0078158D01*
X0426150Y0077961D01*
X0425939Y0077769D01*
X0425723Y0077583D01*
X0425503Y0077401D01*
X0425278Y0077225D01*
X0425049Y0077055D01*
X0424816Y0076890D01*
X0424580Y0076730D01*
X0424339Y0076577D01*
X0424095Y0076429D01*
X0423847Y0076288D01*
X0423596Y0076152D01*
X0423342Y0076022D01*
X0423084Y0075899D01*
X0422824Y0075782D01*
X0422561Y0075671D01*
X0422295Y0075567D01*
X0422027Y0075469D01*
X0421757Y0075377D01*
X0421484Y0075292D01*
X0421210Y0075214D01*
X0420934Y0075142D01*
X0420656Y0075077D01*
X0420376Y0075019D01*
X0420095Y0074968D01*
X0419814Y0074923D01*
X0419531Y0074885D01*
X0419247Y0074854D01*
X0418963Y0074830D01*
X0418678Y0074813D01*
X0418392Y0074802D01*
X0418107Y0074799D01*
X0205509Y0074799D01*
X0205224Y0074802D01*
X0204938Y0074813D01*
X0204653Y0074830D01*
X0204369Y0074854D01*
X0204085Y0074885D01*
X0203802Y0074923D01*
X0203521Y0074968D01*
X0203240Y0075019D01*
X0202960Y0075077D01*
X0202682Y0075142D01*
X0202406Y0075214D01*
X0202132Y0075292D01*
X0201859Y0075377D01*
X0201589Y0075469D01*
X0201321Y0075567D01*
X0201055Y0075671D01*
X0200792Y0075782D01*
X0200532Y0075899D01*
X0200274Y0076022D01*
X0200020Y0076152D01*
X0199769Y0076288D01*
X0199521Y0076429D01*
X0199277Y0076577D01*
X0199036Y0076730D01*
X0198800Y0076890D01*
X0198567Y0077055D01*
X0198338Y0077225D01*
X0198113Y0077401D01*
X0197893Y0077583D01*
X0197677Y0077769D01*
X0197466Y0077961D01*
X0197259Y0078158D01*
X0197057Y0078360D01*
X0196860Y0078567D01*
X0196668Y0078778D01*
X0196482Y0078994D01*
X0196300Y0079214D01*
X0196124Y0079439D01*
X0195954Y0079668D01*
X0195789Y0079901D01*
X0195629Y0080137D01*
X0195476Y0080378D01*
X0195328Y0080622D01*
X0195187Y0080870D01*
X0195051Y0081121D01*
X0194921Y0081375D01*
X0194798Y0081633D01*
X0194681Y0081893D01*
X0194570Y0082156D01*
X0194466Y0082422D01*
X0194368Y0082690D01*
X0194276Y0082960D01*
X0194191Y0083233D01*
X0194113Y0083507D01*
X0194041Y0083783D01*
X0193976Y0084061D01*
X0193918Y0084341D01*
X0193867Y0084622D01*
X0193822Y0084903D01*
X0193784Y0085186D01*
X0193753Y0085470D01*
X0193729Y0085754D01*
X0193712Y0086039D01*
X0193701Y0086325D01*
X0193698Y0086610D01*
X0211618Y0230108D02*
X0211620Y0230245D01*
X0211626Y0230383D01*
X0211636Y0230520D01*
X0211650Y0230656D01*
X0211668Y0230793D01*
X0211690Y0230928D01*
X0211716Y0231063D01*
X0211745Y0231197D01*
X0211779Y0231331D01*
X0211816Y0231463D01*
X0211858Y0231594D01*
X0211903Y0231724D01*
X0211952Y0231852D01*
X0212004Y0231979D01*
X0212061Y0232104D01*
X0212120Y0232228D01*
X0212184Y0232350D01*
X0212251Y0232470D01*
X0212321Y0232588D01*
X0212395Y0232704D01*
X0212472Y0232818D01*
X0212553Y0232929D01*
X0212636Y0233038D01*
X0212723Y0233145D01*
X0212813Y0233248D01*
X0212906Y0233350D01*
X0213002Y0233448D01*
X0213100Y0233544D01*
X0213202Y0233637D01*
X0213305Y0233727D01*
X0213412Y0233814D01*
X0213521Y0233897D01*
X0213632Y0233978D01*
X0213746Y0234055D01*
X0213862Y0234129D01*
X0213980Y0234199D01*
X0214100Y0234266D01*
X0214222Y0234330D01*
X0214346Y0234389D01*
X0214471Y0234446D01*
X0214598Y0234498D01*
X0214726Y0234547D01*
X0214856Y0234592D01*
X0214987Y0234634D01*
X0215119Y0234671D01*
X0215253Y0234705D01*
X0215387Y0234734D01*
X0215522Y0234760D01*
X0215657Y0234782D01*
X0215794Y0234800D01*
X0215930Y0234814D01*
X0216067Y0234824D01*
X0216205Y0234830D01*
X0216342Y0234832D01*
X0216479Y0234830D01*
X0216617Y0234824D01*
X0216754Y0234814D01*
X0216890Y0234800D01*
X0217027Y0234782D01*
X0217162Y0234760D01*
X0217297Y0234734D01*
X0217431Y0234705D01*
X0217565Y0234671D01*
X0217697Y0234634D01*
X0217828Y0234592D01*
X0217958Y0234547D01*
X0218086Y0234498D01*
X0218213Y0234446D01*
X0218338Y0234389D01*
X0218462Y0234330D01*
X0218584Y0234266D01*
X0218704Y0234199D01*
X0218822Y0234129D01*
X0218938Y0234055D01*
X0219052Y0233978D01*
X0219163Y0233897D01*
X0219272Y0233814D01*
X0219379Y0233727D01*
X0219482Y0233637D01*
X0219584Y0233544D01*
X0219682Y0233448D01*
X0219778Y0233350D01*
X0219871Y0233248D01*
X0219961Y0233145D01*
X0220048Y0233038D01*
X0220131Y0232929D01*
X0220212Y0232818D01*
X0220289Y0232704D01*
X0220363Y0232588D01*
X0220433Y0232470D01*
X0220500Y0232350D01*
X0220564Y0232228D01*
X0220623Y0232104D01*
X0220680Y0231979D01*
X0220732Y0231852D01*
X0220781Y0231724D01*
X0220826Y0231594D01*
X0220868Y0231463D01*
X0220905Y0231331D01*
X0220939Y0231197D01*
X0220968Y0231063D01*
X0220994Y0230928D01*
X0221016Y0230793D01*
X0221034Y0230656D01*
X0221048Y0230520D01*
X0221058Y0230383D01*
X0221064Y0230245D01*
X0221066Y0230108D01*
X0221064Y0229971D01*
X0221058Y0229833D01*
X0221048Y0229696D01*
X0221034Y0229560D01*
X0221016Y0229423D01*
X0220994Y0229288D01*
X0220968Y0229153D01*
X0220939Y0229019D01*
X0220905Y0228885D01*
X0220868Y0228753D01*
X0220826Y0228622D01*
X0220781Y0228492D01*
X0220732Y0228364D01*
X0220680Y0228237D01*
X0220623Y0228112D01*
X0220564Y0227988D01*
X0220500Y0227866D01*
X0220433Y0227746D01*
X0220363Y0227628D01*
X0220289Y0227512D01*
X0220212Y0227398D01*
X0220131Y0227287D01*
X0220048Y0227178D01*
X0219961Y0227071D01*
X0219871Y0226968D01*
X0219778Y0226866D01*
X0219682Y0226768D01*
X0219584Y0226672D01*
X0219482Y0226579D01*
X0219379Y0226489D01*
X0219272Y0226402D01*
X0219163Y0226319D01*
X0219052Y0226238D01*
X0218938Y0226161D01*
X0218822Y0226087D01*
X0218704Y0226017D01*
X0218584Y0225950D01*
X0218462Y0225886D01*
X0218338Y0225827D01*
X0218213Y0225770D01*
X0218086Y0225718D01*
X0217958Y0225669D01*
X0217828Y0225624D01*
X0217697Y0225582D01*
X0217565Y0225545D01*
X0217431Y0225511D01*
X0217297Y0225482D01*
X0217162Y0225456D01*
X0217027Y0225434D01*
X0216890Y0225416D01*
X0216754Y0225402D01*
X0216617Y0225392D01*
X0216479Y0225386D01*
X0216342Y0225384D01*
X0216205Y0225386D01*
X0216067Y0225392D01*
X0215930Y0225402D01*
X0215794Y0225416D01*
X0215657Y0225434D01*
X0215522Y0225456D01*
X0215387Y0225482D01*
X0215253Y0225511D01*
X0215119Y0225545D01*
X0214987Y0225582D01*
X0214856Y0225624D01*
X0214726Y0225669D01*
X0214598Y0225718D01*
X0214471Y0225770D01*
X0214346Y0225827D01*
X0214222Y0225886D01*
X0214100Y0225950D01*
X0213980Y0226017D01*
X0213862Y0226087D01*
X0213746Y0226161D01*
X0213632Y0226238D01*
X0213521Y0226319D01*
X0213412Y0226402D01*
X0213305Y0226489D01*
X0213202Y0226579D01*
X0213100Y0226672D01*
X0213002Y0226768D01*
X0212906Y0226866D01*
X0212813Y0226968D01*
X0212723Y0227071D01*
X0212636Y0227178D01*
X0212553Y0227287D01*
X0212472Y0227398D01*
X0212395Y0227512D01*
X0212321Y0227628D01*
X0212251Y0227746D01*
X0212184Y0227866D01*
X0212120Y0227988D01*
X0212061Y0228112D01*
X0212004Y0228237D01*
X0211952Y0228364D01*
X0211903Y0228492D01*
X0211858Y0228622D01*
X0211816Y0228753D01*
X0211779Y0228885D01*
X0211745Y0229019D01*
X0211716Y0229153D01*
X0211690Y0229288D01*
X0211668Y0229423D01*
X0211650Y0229560D01*
X0211636Y0229696D01*
X0211626Y0229833D01*
X0211620Y0229971D01*
X0211618Y0230108D01*
X0190739Y0250987D02*
X0190741Y0251124D01*
X0190747Y0251262D01*
X0190757Y0251399D01*
X0190771Y0251535D01*
X0190789Y0251672D01*
X0190811Y0251807D01*
X0190837Y0251942D01*
X0190866Y0252076D01*
X0190900Y0252210D01*
X0190937Y0252342D01*
X0190979Y0252473D01*
X0191024Y0252603D01*
X0191073Y0252731D01*
X0191125Y0252858D01*
X0191182Y0252983D01*
X0191241Y0253107D01*
X0191305Y0253229D01*
X0191372Y0253349D01*
X0191442Y0253467D01*
X0191516Y0253583D01*
X0191593Y0253697D01*
X0191674Y0253808D01*
X0191757Y0253917D01*
X0191844Y0254024D01*
X0191934Y0254127D01*
X0192027Y0254229D01*
X0192123Y0254327D01*
X0192221Y0254423D01*
X0192323Y0254516D01*
X0192426Y0254606D01*
X0192533Y0254693D01*
X0192642Y0254776D01*
X0192753Y0254857D01*
X0192867Y0254934D01*
X0192983Y0255008D01*
X0193101Y0255078D01*
X0193221Y0255145D01*
X0193343Y0255209D01*
X0193467Y0255268D01*
X0193592Y0255325D01*
X0193719Y0255377D01*
X0193847Y0255426D01*
X0193977Y0255471D01*
X0194108Y0255513D01*
X0194240Y0255550D01*
X0194374Y0255584D01*
X0194508Y0255613D01*
X0194643Y0255639D01*
X0194778Y0255661D01*
X0194915Y0255679D01*
X0195051Y0255693D01*
X0195188Y0255703D01*
X0195326Y0255709D01*
X0195463Y0255711D01*
X0195600Y0255709D01*
X0195738Y0255703D01*
X0195875Y0255693D01*
X0196011Y0255679D01*
X0196148Y0255661D01*
X0196283Y0255639D01*
X0196418Y0255613D01*
X0196552Y0255584D01*
X0196686Y0255550D01*
X0196818Y0255513D01*
X0196949Y0255471D01*
X0197079Y0255426D01*
X0197207Y0255377D01*
X0197334Y0255325D01*
X0197459Y0255268D01*
X0197583Y0255209D01*
X0197705Y0255145D01*
X0197825Y0255078D01*
X0197943Y0255008D01*
X0198059Y0254934D01*
X0198173Y0254857D01*
X0198284Y0254776D01*
X0198393Y0254693D01*
X0198500Y0254606D01*
X0198603Y0254516D01*
X0198705Y0254423D01*
X0198803Y0254327D01*
X0198899Y0254229D01*
X0198992Y0254127D01*
X0199082Y0254024D01*
X0199169Y0253917D01*
X0199252Y0253808D01*
X0199333Y0253697D01*
X0199410Y0253583D01*
X0199484Y0253467D01*
X0199554Y0253349D01*
X0199621Y0253229D01*
X0199685Y0253107D01*
X0199744Y0252983D01*
X0199801Y0252858D01*
X0199853Y0252731D01*
X0199902Y0252603D01*
X0199947Y0252473D01*
X0199989Y0252342D01*
X0200026Y0252210D01*
X0200060Y0252076D01*
X0200089Y0251942D01*
X0200115Y0251807D01*
X0200137Y0251672D01*
X0200155Y0251535D01*
X0200169Y0251399D01*
X0200179Y0251262D01*
X0200185Y0251124D01*
X0200187Y0250987D01*
X0200185Y0250850D01*
X0200179Y0250712D01*
X0200169Y0250575D01*
X0200155Y0250439D01*
X0200137Y0250302D01*
X0200115Y0250167D01*
X0200089Y0250032D01*
X0200060Y0249898D01*
X0200026Y0249764D01*
X0199989Y0249632D01*
X0199947Y0249501D01*
X0199902Y0249371D01*
X0199853Y0249243D01*
X0199801Y0249116D01*
X0199744Y0248991D01*
X0199685Y0248867D01*
X0199621Y0248745D01*
X0199554Y0248625D01*
X0199484Y0248507D01*
X0199410Y0248391D01*
X0199333Y0248277D01*
X0199252Y0248166D01*
X0199169Y0248057D01*
X0199082Y0247950D01*
X0198992Y0247847D01*
X0198899Y0247745D01*
X0198803Y0247647D01*
X0198705Y0247551D01*
X0198603Y0247458D01*
X0198500Y0247368D01*
X0198393Y0247281D01*
X0198284Y0247198D01*
X0198173Y0247117D01*
X0198059Y0247040D01*
X0197943Y0246966D01*
X0197825Y0246896D01*
X0197705Y0246829D01*
X0197583Y0246765D01*
X0197459Y0246706D01*
X0197334Y0246649D01*
X0197207Y0246597D01*
X0197079Y0246548D01*
X0196949Y0246503D01*
X0196818Y0246461D01*
X0196686Y0246424D01*
X0196552Y0246390D01*
X0196418Y0246361D01*
X0196283Y0246335D01*
X0196148Y0246313D01*
X0196011Y0246295D01*
X0195875Y0246281D01*
X0195738Y0246271D01*
X0195600Y0246265D01*
X0195463Y0246263D01*
X0195326Y0246265D01*
X0195188Y0246271D01*
X0195051Y0246281D01*
X0194915Y0246295D01*
X0194778Y0246313D01*
X0194643Y0246335D01*
X0194508Y0246361D01*
X0194374Y0246390D01*
X0194240Y0246424D01*
X0194108Y0246461D01*
X0193977Y0246503D01*
X0193847Y0246548D01*
X0193719Y0246597D01*
X0193592Y0246649D01*
X0193467Y0246706D01*
X0193343Y0246765D01*
X0193221Y0246829D01*
X0193101Y0246896D01*
X0192983Y0246966D01*
X0192867Y0247040D01*
X0192753Y0247117D01*
X0192642Y0247198D01*
X0192533Y0247281D01*
X0192426Y0247368D01*
X0192323Y0247458D01*
X0192221Y0247551D01*
X0192123Y0247647D01*
X0192027Y0247745D01*
X0191934Y0247847D01*
X0191844Y0247950D01*
X0191757Y0248057D01*
X0191674Y0248166D01*
X0191593Y0248277D01*
X0191516Y0248391D01*
X0191442Y0248507D01*
X0191372Y0248625D01*
X0191305Y0248745D01*
X0191241Y0248867D01*
X0191182Y0248991D01*
X0191125Y0249116D01*
X0191073Y0249243D01*
X0191024Y0249371D01*
X0190979Y0249501D01*
X0190937Y0249632D01*
X0190900Y0249764D01*
X0190866Y0249898D01*
X0190837Y0250032D01*
X0190811Y0250167D01*
X0190789Y0250302D01*
X0190771Y0250439D01*
X0190757Y0250575D01*
X0190747Y0250712D01*
X0190741Y0250850D01*
X0190739Y0250987D01*
X0077760Y0230108D02*
X0077762Y0230245D01*
X0077768Y0230383D01*
X0077778Y0230520D01*
X0077792Y0230656D01*
X0077810Y0230793D01*
X0077832Y0230928D01*
X0077858Y0231063D01*
X0077887Y0231197D01*
X0077921Y0231331D01*
X0077958Y0231463D01*
X0078000Y0231594D01*
X0078045Y0231724D01*
X0078094Y0231852D01*
X0078146Y0231979D01*
X0078203Y0232104D01*
X0078262Y0232228D01*
X0078326Y0232350D01*
X0078393Y0232470D01*
X0078463Y0232588D01*
X0078537Y0232704D01*
X0078614Y0232818D01*
X0078695Y0232929D01*
X0078778Y0233038D01*
X0078865Y0233145D01*
X0078955Y0233248D01*
X0079048Y0233350D01*
X0079144Y0233448D01*
X0079242Y0233544D01*
X0079344Y0233637D01*
X0079447Y0233727D01*
X0079554Y0233814D01*
X0079663Y0233897D01*
X0079774Y0233978D01*
X0079888Y0234055D01*
X0080004Y0234129D01*
X0080122Y0234199D01*
X0080242Y0234266D01*
X0080364Y0234330D01*
X0080488Y0234389D01*
X0080613Y0234446D01*
X0080740Y0234498D01*
X0080868Y0234547D01*
X0080998Y0234592D01*
X0081129Y0234634D01*
X0081261Y0234671D01*
X0081395Y0234705D01*
X0081529Y0234734D01*
X0081664Y0234760D01*
X0081799Y0234782D01*
X0081936Y0234800D01*
X0082072Y0234814D01*
X0082209Y0234824D01*
X0082347Y0234830D01*
X0082484Y0234832D01*
X0082621Y0234830D01*
X0082759Y0234824D01*
X0082896Y0234814D01*
X0083032Y0234800D01*
X0083169Y0234782D01*
X0083304Y0234760D01*
X0083439Y0234734D01*
X0083573Y0234705D01*
X0083707Y0234671D01*
X0083839Y0234634D01*
X0083970Y0234592D01*
X0084100Y0234547D01*
X0084228Y0234498D01*
X0084355Y0234446D01*
X0084480Y0234389D01*
X0084604Y0234330D01*
X0084726Y0234266D01*
X0084846Y0234199D01*
X0084964Y0234129D01*
X0085080Y0234055D01*
X0085194Y0233978D01*
X0085305Y0233897D01*
X0085414Y0233814D01*
X0085521Y0233727D01*
X0085624Y0233637D01*
X0085726Y0233544D01*
X0085824Y0233448D01*
X0085920Y0233350D01*
X0086013Y0233248D01*
X0086103Y0233145D01*
X0086190Y0233038D01*
X0086273Y0232929D01*
X0086354Y0232818D01*
X0086431Y0232704D01*
X0086505Y0232588D01*
X0086575Y0232470D01*
X0086642Y0232350D01*
X0086706Y0232228D01*
X0086765Y0232104D01*
X0086822Y0231979D01*
X0086874Y0231852D01*
X0086923Y0231724D01*
X0086968Y0231594D01*
X0087010Y0231463D01*
X0087047Y0231331D01*
X0087081Y0231197D01*
X0087110Y0231063D01*
X0087136Y0230928D01*
X0087158Y0230793D01*
X0087176Y0230656D01*
X0087190Y0230520D01*
X0087200Y0230383D01*
X0087206Y0230245D01*
X0087208Y0230108D01*
X0087206Y0229971D01*
X0087200Y0229833D01*
X0087190Y0229696D01*
X0087176Y0229560D01*
X0087158Y0229423D01*
X0087136Y0229288D01*
X0087110Y0229153D01*
X0087081Y0229019D01*
X0087047Y0228885D01*
X0087010Y0228753D01*
X0086968Y0228622D01*
X0086923Y0228492D01*
X0086874Y0228364D01*
X0086822Y0228237D01*
X0086765Y0228112D01*
X0086706Y0227988D01*
X0086642Y0227866D01*
X0086575Y0227746D01*
X0086505Y0227628D01*
X0086431Y0227512D01*
X0086354Y0227398D01*
X0086273Y0227287D01*
X0086190Y0227178D01*
X0086103Y0227071D01*
X0086013Y0226968D01*
X0085920Y0226866D01*
X0085824Y0226768D01*
X0085726Y0226672D01*
X0085624Y0226579D01*
X0085521Y0226489D01*
X0085414Y0226402D01*
X0085305Y0226319D01*
X0085194Y0226238D01*
X0085080Y0226161D01*
X0084964Y0226087D01*
X0084846Y0226017D01*
X0084726Y0225950D01*
X0084604Y0225886D01*
X0084480Y0225827D01*
X0084355Y0225770D01*
X0084228Y0225718D01*
X0084100Y0225669D01*
X0083970Y0225624D01*
X0083839Y0225582D01*
X0083707Y0225545D01*
X0083573Y0225511D01*
X0083439Y0225482D01*
X0083304Y0225456D01*
X0083169Y0225434D01*
X0083032Y0225416D01*
X0082896Y0225402D01*
X0082759Y0225392D01*
X0082621Y0225386D01*
X0082484Y0225384D01*
X0082347Y0225386D01*
X0082209Y0225392D01*
X0082072Y0225402D01*
X0081936Y0225416D01*
X0081799Y0225434D01*
X0081664Y0225456D01*
X0081529Y0225482D01*
X0081395Y0225511D01*
X0081261Y0225545D01*
X0081129Y0225582D01*
X0080998Y0225624D01*
X0080868Y0225669D01*
X0080740Y0225718D01*
X0080613Y0225770D01*
X0080488Y0225827D01*
X0080364Y0225886D01*
X0080242Y0225950D01*
X0080122Y0226017D01*
X0080004Y0226087D01*
X0079888Y0226161D01*
X0079774Y0226238D01*
X0079663Y0226319D01*
X0079554Y0226402D01*
X0079447Y0226489D01*
X0079344Y0226579D01*
X0079242Y0226672D01*
X0079144Y0226768D01*
X0079048Y0226866D01*
X0078955Y0226968D01*
X0078865Y0227071D01*
X0078778Y0227178D01*
X0078695Y0227287D01*
X0078614Y0227398D01*
X0078537Y0227512D01*
X0078463Y0227628D01*
X0078393Y0227746D01*
X0078326Y0227866D01*
X0078262Y0227988D01*
X0078203Y0228112D01*
X0078146Y0228237D01*
X0078094Y0228364D01*
X0078045Y0228492D01*
X0078000Y0228622D01*
X0077958Y0228753D01*
X0077921Y0228885D01*
X0077887Y0229019D01*
X0077858Y0229153D01*
X0077832Y0229288D01*
X0077810Y0229423D01*
X0077792Y0229560D01*
X0077778Y0229696D01*
X0077768Y0229833D01*
X0077762Y0229971D01*
X0077760Y0230108D01*
X0056880Y0250987D02*
X0056882Y0251124D01*
X0056888Y0251262D01*
X0056898Y0251399D01*
X0056912Y0251535D01*
X0056930Y0251672D01*
X0056952Y0251807D01*
X0056978Y0251942D01*
X0057007Y0252076D01*
X0057041Y0252210D01*
X0057078Y0252342D01*
X0057120Y0252473D01*
X0057165Y0252603D01*
X0057214Y0252731D01*
X0057266Y0252858D01*
X0057323Y0252983D01*
X0057382Y0253107D01*
X0057446Y0253229D01*
X0057513Y0253349D01*
X0057583Y0253467D01*
X0057657Y0253583D01*
X0057734Y0253697D01*
X0057815Y0253808D01*
X0057898Y0253917D01*
X0057985Y0254024D01*
X0058075Y0254127D01*
X0058168Y0254229D01*
X0058264Y0254327D01*
X0058362Y0254423D01*
X0058464Y0254516D01*
X0058567Y0254606D01*
X0058674Y0254693D01*
X0058783Y0254776D01*
X0058894Y0254857D01*
X0059008Y0254934D01*
X0059124Y0255008D01*
X0059242Y0255078D01*
X0059362Y0255145D01*
X0059484Y0255209D01*
X0059608Y0255268D01*
X0059733Y0255325D01*
X0059860Y0255377D01*
X0059988Y0255426D01*
X0060118Y0255471D01*
X0060249Y0255513D01*
X0060381Y0255550D01*
X0060515Y0255584D01*
X0060649Y0255613D01*
X0060784Y0255639D01*
X0060919Y0255661D01*
X0061056Y0255679D01*
X0061192Y0255693D01*
X0061329Y0255703D01*
X0061467Y0255709D01*
X0061604Y0255711D01*
X0061741Y0255709D01*
X0061879Y0255703D01*
X0062016Y0255693D01*
X0062152Y0255679D01*
X0062289Y0255661D01*
X0062424Y0255639D01*
X0062559Y0255613D01*
X0062693Y0255584D01*
X0062827Y0255550D01*
X0062959Y0255513D01*
X0063090Y0255471D01*
X0063220Y0255426D01*
X0063348Y0255377D01*
X0063475Y0255325D01*
X0063600Y0255268D01*
X0063724Y0255209D01*
X0063846Y0255145D01*
X0063966Y0255078D01*
X0064084Y0255008D01*
X0064200Y0254934D01*
X0064314Y0254857D01*
X0064425Y0254776D01*
X0064534Y0254693D01*
X0064641Y0254606D01*
X0064744Y0254516D01*
X0064846Y0254423D01*
X0064944Y0254327D01*
X0065040Y0254229D01*
X0065133Y0254127D01*
X0065223Y0254024D01*
X0065310Y0253917D01*
X0065393Y0253808D01*
X0065474Y0253697D01*
X0065551Y0253583D01*
X0065625Y0253467D01*
X0065695Y0253349D01*
X0065762Y0253229D01*
X0065826Y0253107D01*
X0065885Y0252983D01*
X0065942Y0252858D01*
X0065994Y0252731D01*
X0066043Y0252603D01*
X0066088Y0252473D01*
X0066130Y0252342D01*
X0066167Y0252210D01*
X0066201Y0252076D01*
X0066230Y0251942D01*
X0066256Y0251807D01*
X0066278Y0251672D01*
X0066296Y0251535D01*
X0066310Y0251399D01*
X0066320Y0251262D01*
X0066326Y0251124D01*
X0066328Y0250987D01*
X0066326Y0250850D01*
X0066320Y0250712D01*
X0066310Y0250575D01*
X0066296Y0250439D01*
X0066278Y0250302D01*
X0066256Y0250167D01*
X0066230Y0250032D01*
X0066201Y0249898D01*
X0066167Y0249764D01*
X0066130Y0249632D01*
X0066088Y0249501D01*
X0066043Y0249371D01*
X0065994Y0249243D01*
X0065942Y0249116D01*
X0065885Y0248991D01*
X0065826Y0248867D01*
X0065762Y0248745D01*
X0065695Y0248625D01*
X0065625Y0248507D01*
X0065551Y0248391D01*
X0065474Y0248277D01*
X0065393Y0248166D01*
X0065310Y0248057D01*
X0065223Y0247950D01*
X0065133Y0247847D01*
X0065040Y0247745D01*
X0064944Y0247647D01*
X0064846Y0247551D01*
X0064744Y0247458D01*
X0064641Y0247368D01*
X0064534Y0247281D01*
X0064425Y0247198D01*
X0064314Y0247117D01*
X0064200Y0247040D01*
X0064084Y0246966D01*
X0063966Y0246896D01*
X0063846Y0246829D01*
X0063724Y0246765D01*
X0063600Y0246706D01*
X0063475Y0246649D01*
X0063348Y0246597D01*
X0063220Y0246548D01*
X0063090Y0246503D01*
X0062959Y0246461D01*
X0062827Y0246424D01*
X0062693Y0246390D01*
X0062559Y0246361D01*
X0062424Y0246335D01*
X0062289Y0246313D01*
X0062152Y0246295D01*
X0062016Y0246281D01*
X0061879Y0246271D01*
X0061741Y0246265D01*
X0061604Y0246263D01*
X0061467Y0246265D01*
X0061329Y0246271D01*
X0061192Y0246281D01*
X0061056Y0246295D01*
X0060919Y0246313D01*
X0060784Y0246335D01*
X0060649Y0246361D01*
X0060515Y0246390D01*
X0060381Y0246424D01*
X0060249Y0246461D01*
X0060118Y0246503D01*
X0059988Y0246548D01*
X0059860Y0246597D01*
X0059733Y0246649D01*
X0059608Y0246706D01*
X0059484Y0246765D01*
X0059362Y0246829D01*
X0059242Y0246896D01*
X0059124Y0246966D01*
X0059008Y0247040D01*
X0058894Y0247117D01*
X0058783Y0247198D01*
X0058674Y0247281D01*
X0058567Y0247368D01*
X0058464Y0247458D01*
X0058362Y0247551D01*
X0058264Y0247647D01*
X0058168Y0247745D01*
X0058075Y0247847D01*
X0057985Y0247950D01*
X0057898Y0248057D01*
X0057815Y0248166D01*
X0057734Y0248277D01*
X0057657Y0248391D01*
X0057583Y0248507D01*
X0057513Y0248625D01*
X0057446Y0248745D01*
X0057382Y0248867D01*
X0057323Y0248991D01*
X0057266Y0249116D01*
X0057214Y0249243D01*
X0057165Y0249371D01*
X0057120Y0249501D01*
X0057078Y0249632D01*
X0057041Y0249764D01*
X0057007Y0249898D01*
X0056978Y0250032D01*
X0056952Y0250167D01*
X0056930Y0250302D01*
X0056912Y0250439D01*
X0056898Y0250575D01*
X0056888Y0250712D01*
X0056882Y0250850D01*
X0056880Y0250987D01*
X0289199Y0340547D02*
X0289489Y0340551D01*
X0289779Y0340561D01*
X0290068Y0340579D01*
X0290357Y0340604D01*
X0290645Y0340636D01*
X0290932Y0340675D01*
X0291218Y0340721D01*
X0291503Y0340774D01*
X0291787Y0340834D01*
X0292069Y0340901D01*
X0292349Y0340975D01*
X0292628Y0341056D01*
X0292904Y0341143D01*
X0293178Y0341237D01*
X0293450Y0341338D01*
X0293719Y0341446D01*
X0293985Y0341560D01*
X0294249Y0341681D01*
X0294509Y0341808D01*
X0294767Y0341942D01*
X0295021Y0342081D01*
X0295271Y0342227D01*
X0295518Y0342379D01*
X0295761Y0342538D01*
X0296000Y0342702D01*
X0296235Y0342871D01*
X0296465Y0343047D01*
X0296692Y0343228D01*
X0296914Y0343415D01*
X0297131Y0343607D01*
X0297343Y0343804D01*
X0297551Y0344006D01*
X0316222Y0362679D02*
X0316430Y0362881D01*
X0316642Y0363078D01*
X0316859Y0363270D01*
X0317081Y0363457D01*
X0317308Y0363638D01*
X0317538Y0363814D01*
X0317773Y0363983D01*
X0318012Y0364147D01*
X0318255Y0364306D01*
X0318502Y0364458D01*
X0318752Y0364604D01*
X0319006Y0364743D01*
X0319264Y0364877D01*
X0319524Y0365004D01*
X0319788Y0365125D01*
X0320054Y0365239D01*
X0320323Y0365347D01*
X0320595Y0365448D01*
X0320869Y0365542D01*
X0321145Y0365629D01*
X0321424Y0365710D01*
X0321704Y0365784D01*
X0321986Y0365851D01*
X0322270Y0365911D01*
X0322555Y0365964D01*
X0322841Y0366010D01*
X0323128Y0366049D01*
X0323416Y0366081D01*
X0323705Y0366106D01*
X0323994Y0366124D01*
X0324284Y0366134D01*
X0324574Y0366138D01*
X0333461Y0346453D02*
X0333463Y0346541D01*
X0333469Y0346629D01*
X0333479Y0346717D01*
X0333493Y0346805D01*
X0333510Y0346891D01*
X0333532Y0346977D01*
X0333557Y0347061D01*
X0333587Y0347145D01*
X0333619Y0347227D01*
X0333656Y0347307D01*
X0333696Y0347386D01*
X0333740Y0347463D01*
X0333787Y0347538D01*
X0333837Y0347610D01*
X0333891Y0347681D01*
X0333947Y0347748D01*
X0334007Y0347814D01*
X0334069Y0347876D01*
X0334135Y0347936D01*
X0334202Y0347992D01*
X0334273Y0348046D01*
X0334345Y0348096D01*
X0334420Y0348143D01*
X0334497Y0348187D01*
X0334576Y0348227D01*
X0334656Y0348264D01*
X0334738Y0348296D01*
X0334822Y0348326D01*
X0334906Y0348351D01*
X0334992Y0348373D01*
X0335078Y0348390D01*
X0335166Y0348404D01*
X0335254Y0348414D01*
X0335342Y0348420D01*
X0335430Y0348422D01*
X0335518Y0348420D01*
X0335606Y0348414D01*
X0335694Y0348404D01*
X0335782Y0348390D01*
X0335868Y0348373D01*
X0335954Y0348351D01*
X0336038Y0348326D01*
X0336122Y0348296D01*
X0336204Y0348264D01*
X0336284Y0348227D01*
X0336363Y0348187D01*
X0336440Y0348143D01*
X0336515Y0348096D01*
X0336587Y0348046D01*
X0336658Y0347992D01*
X0336725Y0347936D01*
X0336791Y0347876D01*
X0336853Y0347814D01*
X0336913Y0347748D01*
X0336969Y0347681D01*
X0337023Y0347610D01*
X0337073Y0347538D01*
X0337120Y0347463D01*
X0337164Y0347386D01*
X0337204Y0347307D01*
X0337241Y0347227D01*
X0337273Y0347145D01*
X0337303Y0347061D01*
X0337328Y0346977D01*
X0337350Y0346891D01*
X0337367Y0346805D01*
X0337381Y0346717D01*
X0337391Y0346629D01*
X0337397Y0346541D01*
X0337399Y0346453D01*
X0337397Y0346365D01*
X0337391Y0346277D01*
X0337381Y0346189D01*
X0337367Y0346101D01*
X0337350Y0346015D01*
X0337328Y0345929D01*
X0337303Y0345845D01*
X0337273Y0345761D01*
X0337241Y0345679D01*
X0337204Y0345599D01*
X0337164Y0345520D01*
X0337120Y0345443D01*
X0337073Y0345368D01*
X0337023Y0345296D01*
X0336969Y0345225D01*
X0336913Y0345158D01*
X0336853Y0345092D01*
X0336791Y0345030D01*
X0336725Y0344970D01*
X0336658Y0344914D01*
X0336587Y0344860D01*
X0336515Y0344810D01*
X0336440Y0344763D01*
X0336363Y0344719D01*
X0336284Y0344679D01*
X0336204Y0344642D01*
X0336122Y0344610D01*
X0336038Y0344580D01*
X0335954Y0344555D01*
X0335868Y0344533D01*
X0335782Y0344516D01*
X0335694Y0344502D01*
X0335606Y0344492D01*
X0335518Y0344486D01*
X0335430Y0344484D01*
X0335342Y0344486D01*
X0335254Y0344492D01*
X0335166Y0344502D01*
X0335078Y0344516D01*
X0334992Y0344533D01*
X0334906Y0344555D01*
X0334822Y0344580D01*
X0334738Y0344610D01*
X0334656Y0344642D01*
X0334576Y0344679D01*
X0334497Y0344719D01*
X0334420Y0344763D01*
X0334345Y0344810D01*
X0334273Y0344860D01*
X0334202Y0344914D01*
X0334135Y0344970D01*
X0334069Y0345030D01*
X0334007Y0345092D01*
X0333947Y0345158D01*
X0333891Y0345225D01*
X0333837Y0345296D01*
X0333787Y0345368D01*
X0333740Y0345443D01*
X0333696Y0345520D01*
X0333656Y0345599D01*
X0333619Y0345679D01*
X0333587Y0345761D01*
X0333557Y0345845D01*
X0333532Y0345929D01*
X0333510Y0346015D01*
X0333493Y0346101D01*
X0333479Y0346189D01*
X0333469Y0346277D01*
X0333463Y0346365D01*
X0333461Y0346453D01*
X0420075Y0346453D02*
X0420077Y0346541D01*
X0420083Y0346629D01*
X0420093Y0346717D01*
X0420107Y0346805D01*
X0420124Y0346891D01*
X0420146Y0346977D01*
X0420171Y0347061D01*
X0420201Y0347145D01*
X0420233Y0347227D01*
X0420270Y0347307D01*
X0420310Y0347386D01*
X0420354Y0347463D01*
X0420401Y0347538D01*
X0420451Y0347610D01*
X0420505Y0347681D01*
X0420561Y0347748D01*
X0420621Y0347814D01*
X0420683Y0347876D01*
X0420749Y0347936D01*
X0420816Y0347992D01*
X0420887Y0348046D01*
X0420959Y0348096D01*
X0421034Y0348143D01*
X0421111Y0348187D01*
X0421190Y0348227D01*
X0421270Y0348264D01*
X0421352Y0348296D01*
X0421436Y0348326D01*
X0421520Y0348351D01*
X0421606Y0348373D01*
X0421692Y0348390D01*
X0421780Y0348404D01*
X0421868Y0348414D01*
X0421956Y0348420D01*
X0422044Y0348422D01*
X0422132Y0348420D01*
X0422220Y0348414D01*
X0422308Y0348404D01*
X0422396Y0348390D01*
X0422482Y0348373D01*
X0422568Y0348351D01*
X0422652Y0348326D01*
X0422736Y0348296D01*
X0422818Y0348264D01*
X0422898Y0348227D01*
X0422977Y0348187D01*
X0423054Y0348143D01*
X0423129Y0348096D01*
X0423201Y0348046D01*
X0423272Y0347992D01*
X0423339Y0347936D01*
X0423405Y0347876D01*
X0423467Y0347814D01*
X0423527Y0347748D01*
X0423583Y0347681D01*
X0423637Y0347610D01*
X0423687Y0347538D01*
X0423734Y0347463D01*
X0423778Y0347386D01*
X0423818Y0347307D01*
X0423855Y0347227D01*
X0423887Y0347145D01*
X0423917Y0347061D01*
X0423942Y0346977D01*
X0423964Y0346891D01*
X0423981Y0346805D01*
X0423995Y0346717D01*
X0424005Y0346629D01*
X0424011Y0346541D01*
X0424013Y0346453D01*
X0424011Y0346365D01*
X0424005Y0346277D01*
X0423995Y0346189D01*
X0423981Y0346101D01*
X0423964Y0346015D01*
X0423942Y0345929D01*
X0423917Y0345845D01*
X0423887Y0345761D01*
X0423855Y0345679D01*
X0423818Y0345599D01*
X0423778Y0345520D01*
X0423734Y0345443D01*
X0423687Y0345368D01*
X0423637Y0345296D01*
X0423583Y0345225D01*
X0423527Y0345158D01*
X0423467Y0345092D01*
X0423405Y0345030D01*
X0423339Y0344970D01*
X0423272Y0344914D01*
X0423201Y0344860D01*
X0423129Y0344810D01*
X0423054Y0344763D01*
X0422977Y0344719D01*
X0422898Y0344679D01*
X0422818Y0344642D01*
X0422736Y0344610D01*
X0422652Y0344580D01*
X0422568Y0344555D01*
X0422482Y0344533D01*
X0422396Y0344516D01*
X0422308Y0344502D01*
X0422220Y0344492D01*
X0422132Y0344486D01*
X0422044Y0344484D01*
X0421956Y0344486D01*
X0421868Y0344492D01*
X0421780Y0344502D01*
X0421692Y0344516D01*
X0421606Y0344533D01*
X0421520Y0344555D01*
X0421436Y0344580D01*
X0421352Y0344610D01*
X0421270Y0344642D01*
X0421190Y0344679D01*
X0421111Y0344719D01*
X0421034Y0344763D01*
X0420959Y0344810D01*
X0420887Y0344860D01*
X0420816Y0344914D01*
X0420749Y0344970D01*
X0420683Y0345030D01*
X0420621Y0345092D01*
X0420561Y0345158D01*
X0420505Y0345225D01*
X0420451Y0345296D01*
X0420401Y0345368D01*
X0420354Y0345443D01*
X0420310Y0345520D01*
X0420270Y0345599D01*
X0420233Y0345679D01*
X0420201Y0345761D01*
X0420171Y0345845D01*
X0420146Y0345929D01*
X0420124Y0346015D01*
X0420107Y0346101D01*
X0420093Y0346189D01*
X0420083Y0346277D01*
X0420077Y0346365D01*
X0420075Y0346453D01*
X0432900Y0366138D02*
X0433190Y0366134D01*
X0433480Y0366124D01*
X0433769Y0366106D01*
X0434058Y0366081D01*
X0434346Y0366049D01*
X0434633Y0366010D01*
X0434919Y0365964D01*
X0435204Y0365911D01*
X0435488Y0365851D01*
X0435770Y0365784D01*
X0436050Y0365710D01*
X0436329Y0365629D01*
X0436605Y0365542D01*
X0436879Y0365448D01*
X0437151Y0365347D01*
X0437420Y0365239D01*
X0437686Y0365125D01*
X0437950Y0365004D01*
X0438210Y0364877D01*
X0438468Y0364743D01*
X0438722Y0364604D01*
X0438972Y0364458D01*
X0439219Y0364306D01*
X0439462Y0364147D01*
X0439701Y0363983D01*
X0439936Y0363814D01*
X0440166Y0363638D01*
X0440393Y0363457D01*
X0440615Y0363270D01*
X0440832Y0363078D01*
X0441044Y0362881D01*
X0441252Y0362679D01*
X0459923Y0344006D02*
X0460131Y0343804D01*
X0460343Y0343607D01*
X0460560Y0343415D01*
X0460782Y0343228D01*
X0461009Y0343047D01*
X0461239Y0342871D01*
X0461474Y0342702D01*
X0461713Y0342538D01*
X0461956Y0342379D01*
X0462203Y0342227D01*
X0462453Y0342081D01*
X0462707Y0341942D01*
X0462965Y0341808D01*
X0463225Y0341681D01*
X0463489Y0341560D01*
X0463755Y0341446D01*
X0464024Y0341338D01*
X0464296Y0341237D01*
X0464570Y0341143D01*
X0464846Y0341056D01*
X0465125Y0340975D01*
X0465405Y0340901D01*
X0465687Y0340834D01*
X0465971Y0340774D01*
X0466256Y0340721D01*
X0466542Y0340675D01*
X0466829Y0340636D01*
X0467117Y0340604D01*
X0467406Y0340579D01*
X0467695Y0340561D01*
X0467985Y0340551D01*
X0468275Y0340547D01*
X0458455Y0250987D02*
X0458457Y0251124D01*
X0458463Y0251262D01*
X0458473Y0251399D01*
X0458487Y0251535D01*
X0458505Y0251672D01*
X0458527Y0251807D01*
X0458553Y0251942D01*
X0458582Y0252076D01*
X0458616Y0252210D01*
X0458653Y0252342D01*
X0458695Y0252473D01*
X0458740Y0252603D01*
X0458789Y0252731D01*
X0458841Y0252858D01*
X0458898Y0252983D01*
X0458957Y0253107D01*
X0459021Y0253229D01*
X0459088Y0253349D01*
X0459158Y0253467D01*
X0459232Y0253583D01*
X0459309Y0253697D01*
X0459390Y0253808D01*
X0459473Y0253917D01*
X0459560Y0254024D01*
X0459650Y0254127D01*
X0459743Y0254229D01*
X0459839Y0254327D01*
X0459937Y0254423D01*
X0460039Y0254516D01*
X0460142Y0254606D01*
X0460249Y0254693D01*
X0460358Y0254776D01*
X0460469Y0254857D01*
X0460583Y0254934D01*
X0460699Y0255008D01*
X0460817Y0255078D01*
X0460937Y0255145D01*
X0461059Y0255209D01*
X0461183Y0255268D01*
X0461308Y0255325D01*
X0461435Y0255377D01*
X0461563Y0255426D01*
X0461693Y0255471D01*
X0461824Y0255513D01*
X0461956Y0255550D01*
X0462090Y0255584D01*
X0462224Y0255613D01*
X0462359Y0255639D01*
X0462494Y0255661D01*
X0462631Y0255679D01*
X0462767Y0255693D01*
X0462904Y0255703D01*
X0463042Y0255709D01*
X0463179Y0255711D01*
X0463316Y0255709D01*
X0463454Y0255703D01*
X0463591Y0255693D01*
X0463727Y0255679D01*
X0463864Y0255661D01*
X0463999Y0255639D01*
X0464134Y0255613D01*
X0464268Y0255584D01*
X0464402Y0255550D01*
X0464534Y0255513D01*
X0464665Y0255471D01*
X0464795Y0255426D01*
X0464923Y0255377D01*
X0465050Y0255325D01*
X0465175Y0255268D01*
X0465299Y0255209D01*
X0465421Y0255145D01*
X0465541Y0255078D01*
X0465659Y0255008D01*
X0465775Y0254934D01*
X0465889Y0254857D01*
X0466000Y0254776D01*
X0466109Y0254693D01*
X0466216Y0254606D01*
X0466319Y0254516D01*
X0466421Y0254423D01*
X0466519Y0254327D01*
X0466615Y0254229D01*
X0466708Y0254127D01*
X0466798Y0254024D01*
X0466885Y0253917D01*
X0466968Y0253808D01*
X0467049Y0253697D01*
X0467126Y0253583D01*
X0467200Y0253467D01*
X0467270Y0253349D01*
X0467337Y0253229D01*
X0467401Y0253107D01*
X0467460Y0252983D01*
X0467517Y0252858D01*
X0467569Y0252731D01*
X0467618Y0252603D01*
X0467663Y0252473D01*
X0467705Y0252342D01*
X0467742Y0252210D01*
X0467776Y0252076D01*
X0467805Y0251942D01*
X0467831Y0251807D01*
X0467853Y0251672D01*
X0467871Y0251535D01*
X0467885Y0251399D01*
X0467895Y0251262D01*
X0467901Y0251124D01*
X0467903Y0250987D01*
X0467901Y0250850D01*
X0467895Y0250712D01*
X0467885Y0250575D01*
X0467871Y0250439D01*
X0467853Y0250302D01*
X0467831Y0250167D01*
X0467805Y0250032D01*
X0467776Y0249898D01*
X0467742Y0249764D01*
X0467705Y0249632D01*
X0467663Y0249501D01*
X0467618Y0249371D01*
X0467569Y0249243D01*
X0467517Y0249116D01*
X0467460Y0248991D01*
X0467401Y0248867D01*
X0467337Y0248745D01*
X0467270Y0248625D01*
X0467200Y0248507D01*
X0467126Y0248391D01*
X0467049Y0248277D01*
X0466968Y0248166D01*
X0466885Y0248057D01*
X0466798Y0247950D01*
X0466708Y0247847D01*
X0466615Y0247745D01*
X0466519Y0247647D01*
X0466421Y0247551D01*
X0466319Y0247458D01*
X0466216Y0247368D01*
X0466109Y0247281D01*
X0466000Y0247198D01*
X0465889Y0247117D01*
X0465775Y0247040D01*
X0465659Y0246966D01*
X0465541Y0246896D01*
X0465421Y0246829D01*
X0465299Y0246765D01*
X0465175Y0246706D01*
X0465050Y0246649D01*
X0464923Y0246597D01*
X0464795Y0246548D01*
X0464665Y0246503D01*
X0464534Y0246461D01*
X0464402Y0246424D01*
X0464268Y0246390D01*
X0464134Y0246361D01*
X0463999Y0246335D01*
X0463864Y0246313D01*
X0463727Y0246295D01*
X0463591Y0246281D01*
X0463454Y0246271D01*
X0463316Y0246265D01*
X0463179Y0246263D01*
X0463042Y0246265D01*
X0462904Y0246271D01*
X0462767Y0246281D01*
X0462631Y0246295D01*
X0462494Y0246313D01*
X0462359Y0246335D01*
X0462224Y0246361D01*
X0462090Y0246390D01*
X0461956Y0246424D01*
X0461824Y0246461D01*
X0461693Y0246503D01*
X0461563Y0246548D01*
X0461435Y0246597D01*
X0461308Y0246649D01*
X0461183Y0246706D01*
X0461059Y0246765D01*
X0460937Y0246829D01*
X0460817Y0246896D01*
X0460699Y0246966D01*
X0460583Y0247040D01*
X0460469Y0247117D01*
X0460358Y0247198D01*
X0460249Y0247281D01*
X0460142Y0247368D01*
X0460039Y0247458D01*
X0459937Y0247551D01*
X0459839Y0247647D01*
X0459743Y0247745D01*
X0459650Y0247847D01*
X0459560Y0247950D01*
X0459473Y0248057D01*
X0459390Y0248166D01*
X0459309Y0248277D01*
X0459232Y0248391D01*
X0459158Y0248507D01*
X0459088Y0248625D01*
X0459021Y0248745D01*
X0458957Y0248867D01*
X0458898Y0248991D01*
X0458841Y0249116D01*
X0458789Y0249243D01*
X0458740Y0249371D01*
X0458695Y0249501D01*
X0458653Y0249632D01*
X0458616Y0249764D01*
X0458582Y0249898D01*
X0458553Y0250032D01*
X0458527Y0250167D01*
X0458505Y0250302D01*
X0458487Y0250439D01*
X0458473Y0250575D01*
X0458463Y0250712D01*
X0458457Y0250850D01*
X0458455Y0250987D01*
X0479334Y0230108D02*
X0479336Y0230245D01*
X0479342Y0230383D01*
X0479352Y0230520D01*
X0479366Y0230656D01*
X0479384Y0230793D01*
X0479406Y0230928D01*
X0479432Y0231063D01*
X0479461Y0231197D01*
X0479495Y0231331D01*
X0479532Y0231463D01*
X0479574Y0231594D01*
X0479619Y0231724D01*
X0479668Y0231852D01*
X0479720Y0231979D01*
X0479777Y0232104D01*
X0479836Y0232228D01*
X0479900Y0232350D01*
X0479967Y0232470D01*
X0480037Y0232588D01*
X0480111Y0232704D01*
X0480188Y0232818D01*
X0480269Y0232929D01*
X0480352Y0233038D01*
X0480439Y0233145D01*
X0480529Y0233248D01*
X0480622Y0233350D01*
X0480718Y0233448D01*
X0480816Y0233544D01*
X0480918Y0233637D01*
X0481021Y0233727D01*
X0481128Y0233814D01*
X0481237Y0233897D01*
X0481348Y0233978D01*
X0481462Y0234055D01*
X0481578Y0234129D01*
X0481696Y0234199D01*
X0481816Y0234266D01*
X0481938Y0234330D01*
X0482062Y0234389D01*
X0482187Y0234446D01*
X0482314Y0234498D01*
X0482442Y0234547D01*
X0482572Y0234592D01*
X0482703Y0234634D01*
X0482835Y0234671D01*
X0482969Y0234705D01*
X0483103Y0234734D01*
X0483238Y0234760D01*
X0483373Y0234782D01*
X0483510Y0234800D01*
X0483646Y0234814D01*
X0483783Y0234824D01*
X0483921Y0234830D01*
X0484058Y0234832D01*
X0484195Y0234830D01*
X0484333Y0234824D01*
X0484470Y0234814D01*
X0484606Y0234800D01*
X0484743Y0234782D01*
X0484878Y0234760D01*
X0485013Y0234734D01*
X0485147Y0234705D01*
X0485281Y0234671D01*
X0485413Y0234634D01*
X0485544Y0234592D01*
X0485674Y0234547D01*
X0485802Y0234498D01*
X0485929Y0234446D01*
X0486054Y0234389D01*
X0486178Y0234330D01*
X0486300Y0234266D01*
X0486420Y0234199D01*
X0486538Y0234129D01*
X0486654Y0234055D01*
X0486768Y0233978D01*
X0486879Y0233897D01*
X0486988Y0233814D01*
X0487095Y0233727D01*
X0487198Y0233637D01*
X0487300Y0233544D01*
X0487398Y0233448D01*
X0487494Y0233350D01*
X0487587Y0233248D01*
X0487677Y0233145D01*
X0487764Y0233038D01*
X0487847Y0232929D01*
X0487928Y0232818D01*
X0488005Y0232704D01*
X0488079Y0232588D01*
X0488149Y0232470D01*
X0488216Y0232350D01*
X0488280Y0232228D01*
X0488339Y0232104D01*
X0488396Y0231979D01*
X0488448Y0231852D01*
X0488497Y0231724D01*
X0488542Y0231594D01*
X0488584Y0231463D01*
X0488621Y0231331D01*
X0488655Y0231197D01*
X0488684Y0231063D01*
X0488710Y0230928D01*
X0488732Y0230793D01*
X0488750Y0230656D01*
X0488764Y0230520D01*
X0488774Y0230383D01*
X0488780Y0230245D01*
X0488782Y0230108D01*
X0488780Y0229971D01*
X0488774Y0229833D01*
X0488764Y0229696D01*
X0488750Y0229560D01*
X0488732Y0229423D01*
X0488710Y0229288D01*
X0488684Y0229153D01*
X0488655Y0229019D01*
X0488621Y0228885D01*
X0488584Y0228753D01*
X0488542Y0228622D01*
X0488497Y0228492D01*
X0488448Y0228364D01*
X0488396Y0228237D01*
X0488339Y0228112D01*
X0488280Y0227988D01*
X0488216Y0227866D01*
X0488149Y0227746D01*
X0488079Y0227628D01*
X0488005Y0227512D01*
X0487928Y0227398D01*
X0487847Y0227287D01*
X0487764Y0227178D01*
X0487677Y0227071D01*
X0487587Y0226968D01*
X0487494Y0226866D01*
X0487398Y0226768D01*
X0487300Y0226672D01*
X0487198Y0226579D01*
X0487095Y0226489D01*
X0486988Y0226402D01*
X0486879Y0226319D01*
X0486768Y0226238D01*
X0486654Y0226161D01*
X0486538Y0226087D01*
X0486420Y0226017D01*
X0486300Y0225950D01*
X0486178Y0225886D01*
X0486054Y0225827D01*
X0485929Y0225770D01*
X0485802Y0225718D01*
X0485674Y0225669D01*
X0485544Y0225624D01*
X0485413Y0225582D01*
X0485281Y0225545D01*
X0485147Y0225511D01*
X0485013Y0225482D01*
X0484878Y0225456D01*
X0484743Y0225434D01*
X0484606Y0225416D01*
X0484470Y0225402D01*
X0484333Y0225392D01*
X0484195Y0225386D01*
X0484058Y0225384D01*
X0483921Y0225386D01*
X0483783Y0225392D01*
X0483646Y0225402D01*
X0483510Y0225416D01*
X0483373Y0225434D01*
X0483238Y0225456D01*
X0483103Y0225482D01*
X0482969Y0225511D01*
X0482835Y0225545D01*
X0482703Y0225582D01*
X0482572Y0225624D01*
X0482442Y0225669D01*
X0482314Y0225718D01*
X0482187Y0225770D01*
X0482062Y0225827D01*
X0481938Y0225886D01*
X0481816Y0225950D01*
X0481696Y0226017D01*
X0481578Y0226087D01*
X0481462Y0226161D01*
X0481348Y0226238D01*
X0481237Y0226319D01*
X0481128Y0226402D01*
X0481021Y0226489D01*
X0480918Y0226579D01*
X0480816Y0226672D01*
X0480718Y0226768D01*
X0480622Y0226866D01*
X0480529Y0226968D01*
X0480439Y0227071D01*
X0480352Y0227178D01*
X0480269Y0227287D01*
X0480188Y0227398D01*
X0480111Y0227512D01*
X0480037Y0227628D01*
X0479967Y0227746D01*
X0479900Y0227866D01*
X0479836Y0227988D01*
X0479777Y0228112D01*
X0479720Y0228237D01*
X0479668Y0228364D01*
X0479619Y0228492D01*
X0479574Y0228622D01*
X0479532Y0228753D01*
X0479495Y0228885D01*
X0479461Y0229019D01*
X0479432Y0229153D01*
X0479406Y0229288D01*
X0479384Y0229423D01*
X0479366Y0229560D01*
X0479352Y0229696D01*
X0479342Y0229833D01*
X0479336Y0229971D01*
X0479334Y0230108D01*
X0592313Y0250987D02*
X0592315Y0251124D01*
X0592321Y0251262D01*
X0592331Y0251399D01*
X0592345Y0251535D01*
X0592363Y0251672D01*
X0592385Y0251807D01*
X0592411Y0251942D01*
X0592440Y0252076D01*
X0592474Y0252210D01*
X0592511Y0252342D01*
X0592553Y0252473D01*
X0592598Y0252603D01*
X0592647Y0252731D01*
X0592699Y0252858D01*
X0592756Y0252983D01*
X0592815Y0253107D01*
X0592879Y0253229D01*
X0592946Y0253349D01*
X0593016Y0253467D01*
X0593090Y0253583D01*
X0593167Y0253697D01*
X0593248Y0253808D01*
X0593331Y0253917D01*
X0593418Y0254024D01*
X0593508Y0254127D01*
X0593601Y0254229D01*
X0593697Y0254327D01*
X0593795Y0254423D01*
X0593897Y0254516D01*
X0594000Y0254606D01*
X0594107Y0254693D01*
X0594216Y0254776D01*
X0594327Y0254857D01*
X0594441Y0254934D01*
X0594557Y0255008D01*
X0594675Y0255078D01*
X0594795Y0255145D01*
X0594917Y0255209D01*
X0595041Y0255268D01*
X0595166Y0255325D01*
X0595293Y0255377D01*
X0595421Y0255426D01*
X0595551Y0255471D01*
X0595682Y0255513D01*
X0595814Y0255550D01*
X0595948Y0255584D01*
X0596082Y0255613D01*
X0596217Y0255639D01*
X0596352Y0255661D01*
X0596489Y0255679D01*
X0596625Y0255693D01*
X0596762Y0255703D01*
X0596900Y0255709D01*
X0597037Y0255711D01*
X0597174Y0255709D01*
X0597312Y0255703D01*
X0597449Y0255693D01*
X0597585Y0255679D01*
X0597722Y0255661D01*
X0597857Y0255639D01*
X0597992Y0255613D01*
X0598126Y0255584D01*
X0598260Y0255550D01*
X0598392Y0255513D01*
X0598523Y0255471D01*
X0598653Y0255426D01*
X0598781Y0255377D01*
X0598908Y0255325D01*
X0599033Y0255268D01*
X0599157Y0255209D01*
X0599279Y0255145D01*
X0599399Y0255078D01*
X0599517Y0255008D01*
X0599633Y0254934D01*
X0599747Y0254857D01*
X0599858Y0254776D01*
X0599967Y0254693D01*
X0600074Y0254606D01*
X0600177Y0254516D01*
X0600279Y0254423D01*
X0600377Y0254327D01*
X0600473Y0254229D01*
X0600566Y0254127D01*
X0600656Y0254024D01*
X0600743Y0253917D01*
X0600826Y0253808D01*
X0600907Y0253697D01*
X0600984Y0253583D01*
X0601058Y0253467D01*
X0601128Y0253349D01*
X0601195Y0253229D01*
X0601259Y0253107D01*
X0601318Y0252983D01*
X0601375Y0252858D01*
X0601427Y0252731D01*
X0601476Y0252603D01*
X0601521Y0252473D01*
X0601563Y0252342D01*
X0601600Y0252210D01*
X0601634Y0252076D01*
X0601663Y0251942D01*
X0601689Y0251807D01*
X0601711Y0251672D01*
X0601729Y0251535D01*
X0601743Y0251399D01*
X0601753Y0251262D01*
X0601759Y0251124D01*
X0601761Y0250987D01*
X0601759Y0250850D01*
X0601753Y0250712D01*
X0601743Y0250575D01*
X0601729Y0250439D01*
X0601711Y0250302D01*
X0601689Y0250167D01*
X0601663Y0250032D01*
X0601634Y0249898D01*
X0601600Y0249764D01*
X0601563Y0249632D01*
X0601521Y0249501D01*
X0601476Y0249371D01*
X0601427Y0249243D01*
X0601375Y0249116D01*
X0601318Y0248991D01*
X0601259Y0248867D01*
X0601195Y0248745D01*
X0601128Y0248625D01*
X0601058Y0248507D01*
X0600984Y0248391D01*
X0600907Y0248277D01*
X0600826Y0248166D01*
X0600743Y0248057D01*
X0600656Y0247950D01*
X0600566Y0247847D01*
X0600473Y0247745D01*
X0600377Y0247647D01*
X0600279Y0247551D01*
X0600177Y0247458D01*
X0600074Y0247368D01*
X0599967Y0247281D01*
X0599858Y0247198D01*
X0599747Y0247117D01*
X0599633Y0247040D01*
X0599517Y0246966D01*
X0599399Y0246896D01*
X0599279Y0246829D01*
X0599157Y0246765D01*
X0599033Y0246706D01*
X0598908Y0246649D01*
X0598781Y0246597D01*
X0598653Y0246548D01*
X0598523Y0246503D01*
X0598392Y0246461D01*
X0598260Y0246424D01*
X0598126Y0246390D01*
X0597992Y0246361D01*
X0597857Y0246335D01*
X0597722Y0246313D01*
X0597585Y0246295D01*
X0597449Y0246281D01*
X0597312Y0246271D01*
X0597174Y0246265D01*
X0597037Y0246263D01*
X0596900Y0246265D01*
X0596762Y0246271D01*
X0596625Y0246281D01*
X0596489Y0246295D01*
X0596352Y0246313D01*
X0596217Y0246335D01*
X0596082Y0246361D01*
X0595948Y0246390D01*
X0595814Y0246424D01*
X0595682Y0246461D01*
X0595551Y0246503D01*
X0595421Y0246548D01*
X0595293Y0246597D01*
X0595166Y0246649D01*
X0595041Y0246706D01*
X0594917Y0246765D01*
X0594795Y0246829D01*
X0594675Y0246896D01*
X0594557Y0246966D01*
X0594441Y0247040D01*
X0594327Y0247117D01*
X0594216Y0247198D01*
X0594107Y0247281D01*
X0594000Y0247368D01*
X0593897Y0247458D01*
X0593795Y0247551D01*
X0593697Y0247647D01*
X0593601Y0247745D01*
X0593508Y0247847D01*
X0593418Y0247950D01*
X0593331Y0248057D01*
X0593248Y0248166D01*
X0593167Y0248277D01*
X0593090Y0248391D01*
X0593016Y0248507D01*
X0592946Y0248625D01*
X0592879Y0248745D01*
X0592815Y0248867D01*
X0592756Y0248991D01*
X0592699Y0249116D01*
X0592647Y0249243D01*
X0592598Y0249371D01*
X0592553Y0249501D01*
X0592511Y0249632D01*
X0592474Y0249764D01*
X0592440Y0249898D01*
X0592411Y0250032D01*
X0592385Y0250167D01*
X0592363Y0250302D01*
X0592345Y0250439D01*
X0592331Y0250575D01*
X0592321Y0250712D01*
X0592315Y0250850D01*
X0592313Y0250987D01*
X0613193Y0230108D02*
X0613195Y0230245D01*
X0613201Y0230383D01*
X0613211Y0230520D01*
X0613225Y0230656D01*
X0613243Y0230793D01*
X0613265Y0230928D01*
X0613291Y0231063D01*
X0613320Y0231197D01*
X0613354Y0231331D01*
X0613391Y0231463D01*
X0613433Y0231594D01*
X0613478Y0231724D01*
X0613527Y0231852D01*
X0613579Y0231979D01*
X0613636Y0232104D01*
X0613695Y0232228D01*
X0613759Y0232350D01*
X0613826Y0232470D01*
X0613896Y0232588D01*
X0613970Y0232704D01*
X0614047Y0232818D01*
X0614128Y0232929D01*
X0614211Y0233038D01*
X0614298Y0233145D01*
X0614388Y0233248D01*
X0614481Y0233350D01*
X0614577Y0233448D01*
X0614675Y0233544D01*
X0614777Y0233637D01*
X0614880Y0233727D01*
X0614987Y0233814D01*
X0615096Y0233897D01*
X0615207Y0233978D01*
X0615321Y0234055D01*
X0615437Y0234129D01*
X0615555Y0234199D01*
X0615675Y0234266D01*
X0615797Y0234330D01*
X0615921Y0234389D01*
X0616046Y0234446D01*
X0616173Y0234498D01*
X0616301Y0234547D01*
X0616431Y0234592D01*
X0616562Y0234634D01*
X0616694Y0234671D01*
X0616828Y0234705D01*
X0616962Y0234734D01*
X0617097Y0234760D01*
X0617232Y0234782D01*
X0617369Y0234800D01*
X0617505Y0234814D01*
X0617642Y0234824D01*
X0617780Y0234830D01*
X0617917Y0234832D01*
X0618054Y0234830D01*
X0618192Y0234824D01*
X0618329Y0234814D01*
X0618465Y0234800D01*
X0618602Y0234782D01*
X0618737Y0234760D01*
X0618872Y0234734D01*
X0619006Y0234705D01*
X0619140Y0234671D01*
X0619272Y0234634D01*
X0619403Y0234592D01*
X0619533Y0234547D01*
X0619661Y0234498D01*
X0619788Y0234446D01*
X0619913Y0234389D01*
X0620037Y0234330D01*
X0620159Y0234266D01*
X0620279Y0234199D01*
X0620397Y0234129D01*
X0620513Y0234055D01*
X0620627Y0233978D01*
X0620738Y0233897D01*
X0620847Y0233814D01*
X0620954Y0233727D01*
X0621057Y0233637D01*
X0621159Y0233544D01*
X0621257Y0233448D01*
X0621353Y0233350D01*
X0621446Y0233248D01*
X0621536Y0233145D01*
X0621623Y0233038D01*
X0621706Y0232929D01*
X0621787Y0232818D01*
X0621864Y0232704D01*
X0621938Y0232588D01*
X0622008Y0232470D01*
X0622075Y0232350D01*
X0622139Y0232228D01*
X0622198Y0232104D01*
X0622255Y0231979D01*
X0622307Y0231852D01*
X0622356Y0231724D01*
X0622401Y0231594D01*
X0622443Y0231463D01*
X0622480Y0231331D01*
X0622514Y0231197D01*
X0622543Y0231063D01*
X0622569Y0230928D01*
X0622591Y0230793D01*
X0622609Y0230656D01*
X0622623Y0230520D01*
X0622633Y0230383D01*
X0622639Y0230245D01*
X0622641Y0230108D01*
X0622639Y0229971D01*
X0622633Y0229833D01*
X0622623Y0229696D01*
X0622609Y0229560D01*
X0622591Y0229423D01*
X0622569Y0229288D01*
X0622543Y0229153D01*
X0622514Y0229019D01*
X0622480Y0228885D01*
X0622443Y0228753D01*
X0622401Y0228622D01*
X0622356Y0228492D01*
X0622307Y0228364D01*
X0622255Y0228237D01*
X0622198Y0228112D01*
X0622139Y0227988D01*
X0622075Y0227866D01*
X0622008Y0227746D01*
X0621938Y0227628D01*
X0621864Y0227512D01*
X0621787Y0227398D01*
X0621706Y0227287D01*
X0621623Y0227178D01*
X0621536Y0227071D01*
X0621446Y0226968D01*
X0621353Y0226866D01*
X0621257Y0226768D01*
X0621159Y0226672D01*
X0621057Y0226579D01*
X0620954Y0226489D01*
X0620847Y0226402D01*
X0620738Y0226319D01*
X0620627Y0226238D01*
X0620513Y0226161D01*
X0620397Y0226087D01*
X0620279Y0226017D01*
X0620159Y0225950D01*
X0620037Y0225886D01*
X0619913Y0225827D01*
X0619788Y0225770D01*
X0619661Y0225718D01*
X0619533Y0225669D01*
X0619403Y0225624D01*
X0619272Y0225582D01*
X0619140Y0225545D01*
X0619006Y0225511D01*
X0618872Y0225482D01*
X0618737Y0225456D01*
X0618602Y0225434D01*
X0618465Y0225416D01*
X0618329Y0225402D01*
X0618192Y0225392D01*
X0618054Y0225386D01*
X0617917Y0225384D01*
X0617780Y0225386D01*
X0617642Y0225392D01*
X0617505Y0225402D01*
X0617369Y0225416D01*
X0617232Y0225434D01*
X0617097Y0225456D01*
X0616962Y0225482D01*
X0616828Y0225511D01*
X0616694Y0225545D01*
X0616562Y0225582D01*
X0616431Y0225624D01*
X0616301Y0225669D01*
X0616173Y0225718D01*
X0616046Y0225770D01*
X0615921Y0225827D01*
X0615797Y0225886D01*
X0615675Y0225950D01*
X0615555Y0226017D01*
X0615437Y0226087D01*
X0615321Y0226161D01*
X0615207Y0226238D01*
X0615096Y0226319D01*
X0614987Y0226402D01*
X0614880Y0226489D01*
X0614777Y0226579D01*
X0614675Y0226672D01*
X0614577Y0226768D01*
X0614481Y0226866D01*
X0614388Y0226968D01*
X0614298Y0227071D01*
X0614211Y0227178D01*
X0614128Y0227287D01*
X0614047Y0227398D01*
X0613970Y0227512D01*
X0613896Y0227628D01*
X0613826Y0227746D01*
X0613759Y0227866D01*
X0613695Y0227988D01*
X0613636Y0228112D01*
X0613579Y0228237D01*
X0613527Y0228364D01*
X0613478Y0228492D01*
X0613433Y0228622D01*
X0613391Y0228753D01*
X0613354Y0228885D01*
X0613320Y0229019D01*
X0613291Y0229153D01*
X0613265Y0229288D01*
X0613243Y0229423D01*
X0613225Y0229560D01*
X0613211Y0229696D01*
X0613201Y0229833D01*
X0613195Y0229971D01*
X0613193Y0230108D01*
X0345476Y0230108D02*
X0345478Y0230245D01*
X0345484Y0230383D01*
X0345494Y0230520D01*
X0345508Y0230656D01*
X0345526Y0230793D01*
X0345548Y0230928D01*
X0345574Y0231063D01*
X0345603Y0231197D01*
X0345637Y0231331D01*
X0345674Y0231463D01*
X0345716Y0231594D01*
X0345761Y0231724D01*
X0345810Y0231852D01*
X0345862Y0231979D01*
X0345919Y0232104D01*
X0345978Y0232228D01*
X0346042Y0232350D01*
X0346109Y0232470D01*
X0346179Y0232588D01*
X0346253Y0232704D01*
X0346330Y0232818D01*
X0346411Y0232929D01*
X0346494Y0233038D01*
X0346581Y0233145D01*
X0346671Y0233248D01*
X0346764Y0233350D01*
X0346860Y0233448D01*
X0346958Y0233544D01*
X0347060Y0233637D01*
X0347163Y0233727D01*
X0347270Y0233814D01*
X0347379Y0233897D01*
X0347490Y0233978D01*
X0347604Y0234055D01*
X0347720Y0234129D01*
X0347838Y0234199D01*
X0347958Y0234266D01*
X0348080Y0234330D01*
X0348204Y0234389D01*
X0348329Y0234446D01*
X0348456Y0234498D01*
X0348584Y0234547D01*
X0348714Y0234592D01*
X0348845Y0234634D01*
X0348977Y0234671D01*
X0349111Y0234705D01*
X0349245Y0234734D01*
X0349380Y0234760D01*
X0349515Y0234782D01*
X0349652Y0234800D01*
X0349788Y0234814D01*
X0349925Y0234824D01*
X0350063Y0234830D01*
X0350200Y0234832D01*
X0350337Y0234830D01*
X0350475Y0234824D01*
X0350612Y0234814D01*
X0350748Y0234800D01*
X0350885Y0234782D01*
X0351020Y0234760D01*
X0351155Y0234734D01*
X0351289Y0234705D01*
X0351423Y0234671D01*
X0351555Y0234634D01*
X0351686Y0234592D01*
X0351816Y0234547D01*
X0351944Y0234498D01*
X0352071Y0234446D01*
X0352196Y0234389D01*
X0352320Y0234330D01*
X0352442Y0234266D01*
X0352562Y0234199D01*
X0352680Y0234129D01*
X0352796Y0234055D01*
X0352910Y0233978D01*
X0353021Y0233897D01*
X0353130Y0233814D01*
X0353237Y0233727D01*
X0353340Y0233637D01*
X0353442Y0233544D01*
X0353540Y0233448D01*
X0353636Y0233350D01*
X0353729Y0233248D01*
X0353819Y0233145D01*
X0353906Y0233038D01*
X0353989Y0232929D01*
X0354070Y0232818D01*
X0354147Y0232704D01*
X0354221Y0232588D01*
X0354291Y0232470D01*
X0354358Y0232350D01*
X0354422Y0232228D01*
X0354481Y0232104D01*
X0354538Y0231979D01*
X0354590Y0231852D01*
X0354639Y0231724D01*
X0354684Y0231594D01*
X0354726Y0231463D01*
X0354763Y0231331D01*
X0354797Y0231197D01*
X0354826Y0231063D01*
X0354852Y0230928D01*
X0354874Y0230793D01*
X0354892Y0230656D01*
X0354906Y0230520D01*
X0354916Y0230383D01*
X0354922Y0230245D01*
X0354924Y0230108D01*
X0354922Y0229971D01*
X0354916Y0229833D01*
X0354906Y0229696D01*
X0354892Y0229560D01*
X0354874Y0229423D01*
X0354852Y0229288D01*
X0354826Y0229153D01*
X0354797Y0229019D01*
X0354763Y0228885D01*
X0354726Y0228753D01*
X0354684Y0228622D01*
X0354639Y0228492D01*
X0354590Y0228364D01*
X0354538Y0228237D01*
X0354481Y0228112D01*
X0354422Y0227988D01*
X0354358Y0227866D01*
X0354291Y0227746D01*
X0354221Y0227628D01*
X0354147Y0227512D01*
X0354070Y0227398D01*
X0353989Y0227287D01*
X0353906Y0227178D01*
X0353819Y0227071D01*
X0353729Y0226968D01*
X0353636Y0226866D01*
X0353540Y0226768D01*
X0353442Y0226672D01*
X0353340Y0226579D01*
X0353237Y0226489D01*
X0353130Y0226402D01*
X0353021Y0226319D01*
X0352910Y0226238D01*
X0352796Y0226161D01*
X0352680Y0226087D01*
X0352562Y0226017D01*
X0352442Y0225950D01*
X0352320Y0225886D01*
X0352196Y0225827D01*
X0352071Y0225770D01*
X0351944Y0225718D01*
X0351816Y0225669D01*
X0351686Y0225624D01*
X0351555Y0225582D01*
X0351423Y0225545D01*
X0351289Y0225511D01*
X0351155Y0225482D01*
X0351020Y0225456D01*
X0350885Y0225434D01*
X0350748Y0225416D01*
X0350612Y0225402D01*
X0350475Y0225392D01*
X0350337Y0225386D01*
X0350200Y0225384D01*
X0350063Y0225386D01*
X0349925Y0225392D01*
X0349788Y0225402D01*
X0349652Y0225416D01*
X0349515Y0225434D01*
X0349380Y0225456D01*
X0349245Y0225482D01*
X0349111Y0225511D01*
X0348977Y0225545D01*
X0348845Y0225582D01*
X0348714Y0225624D01*
X0348584Y0225669D01*
X0348456Y0225718D01*
X0348329Y0225770D01*
X0348204Y0225827D01*
X0348080Y0225886D01*
X0347958Y0225950D01*
X0347838Y0226017D01*
X0347720Y0226087D01*
X0347604Y0226161D01*
X0347490Y0226238D01*
X0347379Y0226319D01*
X0347270Y0226402D01*
X0347163Y0226489D01*
X0347060Y0226579D01*
X0346958Y0226672D01*
X0346860Y0226768D01*
X0346764Y0226866D01*
X0346671Y0226968D01*
X0346581Y0227071D01*
X0346494Y0227178D01*
X0346411Y0227287D01*
X0346330Y0227398D01*
X0346253Y0227512D01*
X0346179Y0227628D01*
X0346109Y0227746D01*
X0346042Y0227866D01*
X0345978Y0227988D01*
X0345919Y0228112D01*
X0345862Y0228237D01*
X0345810Y0228364D01*
X0345761Y0228492D01*
X0345716Y0228622D01*
X0345674Y0228753D01*
X0345637Y0228885D01*
X0345603Y0229019D01*
X0345574Y0229153D01*
X0345548Y0229288D01*
X0345526Y0229423D01*
X0345508Y0229560D01*
X0345494Y0229696D01*
X0345484Y0229833D01*
X0345478Y0229971D01*
X0345476Y0230108D01*
X0324597Y0250987D02*
X0324599Y0251124D01*
X0324605Y0251262D01*
X0324615Y0251399D01*
X0324629Y0251535D01*
X0324647Y0251672D01*
X0324669Y0251807D01*
X0324695Y0251942D01*
X0324724Y0252076D01*
X0324758Y0252210D01*
X0324795Y0252342D01*
X0324837Y0252473D01*
X0324882Y0252603D01*
X0324931Y0252731D01*
X0324983Y0252858D01*
X0325040Y0252983D01*
X0325099Y0253107D01*
X0325163Y0253229D01*
X0325230Y0253349D01*
X0325300Y0253467D01*
X0325374Y0253583D01*
X0325451Y0253697D01*
X0325532Y0253808D01*
X0325615Y0253917D01*
X0325702Y0254024D01*
X0325792Y0254127D01*
X0325885Y0254229D01*
X0325981Y0254327D01*
X0326079Y0254423D01*
X0326181Y0254516D01*
X0326284Y0254606D01*
X0326391Y0254693D01*
X0326500Y0254776D01*
X0326611Y0254857D01*
X0326725Y0254934D01*
X0326841Y0255008D01*
X0326959Y0255078D01*
X0327079Y0255145D01*
X0327201Y0255209D01*
X0327325Y0255268D01*
X0327450Y0255325D01*
X0327577Y0255377D01*
X0327705Y0255426D01*
X0327835Y0255471D01*
X0327966Y0255513D01*
X0328098Y0255550D01*
X0328232Y0255584D01*
X0328366Y0255613D01*
X0328501Y0255639D01*
X0328636Y0255661D01*
X0328773Y0255679D01*
X0328909Y0255693D01*
X0329046Y0255703D01*
X0329184Y0255709D01*
X0329321Y0255711D01*
X0329458Y0255709D01*
X0329596Y0255703D01*
X0329733Y0255693D01*
X0329869Y0255679D01*
X0330006Y0255661D01*
X0330141Y0255639D01*
X0330276Y0255613D01*
X0330410Y0255584D01*
X0330544Y0255550D01*
X0330676Y0255513D01*
X0330807Y0255471D01*
X0330937Y0255426D01*
X0331065Y0255377D01*
X0331192Y0255325D01*
X0331317Y0255268D01*
X0331441Y0255209D01*
X0331563Y0255145D01*
X0331683Y0255078D01*
X0331801Y0255008D01*
X0331917Y0254934D01*
X0332031Y0254857D01*
X0332142Y0254776D01*
X0332251Y0254693D01*
X0332358Y0254606D01*
X0332461Y0254516D01*
X0332563Y0254423D01*
X0332661Y0254327D01*
X0332757Y0254229D01*
X0332850Y0254127D01*
X0332940Y0254024D01*
X0333027Y0253917D01*
X0333110Y0253808D01*
X0333191Y0253697D01*
X0333268Y0253583D01*
X0333342Y0253467D01*
X0333412Y0253349D01*
X0333479Y0253229D01*
X0333543Y0253107D01*
X0333602Y0252983D01*
X0333659Y0252858D01*
X0333711Y0252731D01*
X0333760Y0252603D01*
X0333805Y0252473D01*
X0333847Y0252342D01*
X0333884Y0252210D01*
X0333918Y0252076D01*
X0333947Y0251942D01*
X0333973Y0251807D01*
X0333995Y0251672D01*
X0334013Y0251535D01*
X0334027Y0251399D01*
X0334037Y0251262D01*
X0334043Y0251124D01*
X0334045Y0250987D01*
X0334043Y0250850D01*
X0334037Y0250712D01*
X0334027Y0250575D01*
X0334013Y0250439D01*
X0333995Y0250302D01*
X0333973Y0250167D01*
X0333947Y0250032D01*
X0333918Y0249898D01*
X0333884Y0249764D01*
X0333847Y0249632D01*
X0333805Y0249501D01*
X0333760Y0249371D01*
X0333711Y0249243D01*
X0333659Y0249116D01*
X0333602Y0248991D01*
X0333543Y0248867D01*
X0333479Y0248745D01*
X0333412Y0248625D01*
X0333342Y0248507D01*
X0333268Y0248391D01*
X0333191Y0248277D01*
X0333110Y0248166D01*
X0333027Y0248057D01*
X0332940Y0247950D01*
X0332850Y0247847D01*
X0332757Y0247745D01*
X0332661Y0247647D01*
X0332563Y0247551D01*
X0332461Y0247458D01*
X0332358Y0247368D01*
X0332251Y0247281D01*
X0332142Y0247198D01*
X0332031Y0247117D01*
X0331917Y0247040D01*
X0331801Y0246966D01*
X0331683Y0246896D01*
X0331563Y0246829D01*
X0331441Y0246765D01*
X0331317Y0246706D01*
X0331192Y0246649D01*
X0331065Y0246597D01*
X0330937Y0246548D01*
X0330807Y0246503D01*
X0330676Y0246461D01*
X0330544Y0246424D01*
X0330410Y0246390D01*
X0330276Y0246361D01*
X0330141Y0246335D01*
X0330006Y0246313D01*
X0329869Y0246295D01*
X0329733Y0246281D01*
X0329596Y0246271D01*
X0329458Y0246265D01*
X0329321Y0246263D01*
X0329184Y0246265D01*
X0329046Y0246271D01*
X0328909Y0246281D01*
X0328773Y0246295D01*
X0328636Y0246313D01*
X0328501Y0246335D01*
X0328366Y0246361D01*
X0328232Y0246390D01*
X0328098Y0246424D01*
X0327966Y0246461D01*
X0327835Y0246503D01*
X0327705Y0246548D01*
X0327577Y0246597D01*
X0327450Y0246649D01*
X0327325Y0246706D01*
X0327201Y0246765D01*
X0327079Y0246829D01*
X0326959Y0246896D01*
X0326841Y0246966D01*
X0326725Y0247040D01*
X0326611Y0247117D01*
X0326500Y0247198D01*
X0326391Y0247281D01*
X0326284Y0247368D01*
X0326181Y0247458D01*
X0326079Y0247551D01*
X0325981Y0247647D01*
X0325885Y0247745D01*
X0325792Y0247847D01*
X0325702Y0247950D01*
X0325615Y0248057D01*
X0325532Y0248166D01*
X0325451Y0248277D01*
X0325374Y0248391D01*
X0325300Y0248507D01*
X0325230Y0248625D01*
X0325163Y0248745D01*
X0325099Y0248867D01*
X0325040Y0248991D01*
X0324983Y0249116D01*
X0324931Y0249243D01*
X0324882Y0249371D01*
X0324837Y0249501D01*
X0324795Y0249632D01*
X0324758Y0249764D01*
X0324724Y0249898D01*
X0324695Y0250032D01*
X0324669Y0250167D01*
X0324647Y0250302D01*
X0324629Y0250439D01*
X0324615Y0250575D01*
X0324605Y0250712D01*
X0324599Y0250850D01*
X0324597Y0250987D01*
D11*
X0476776Y0325177D03*
X0489776Y0325177D03*
D12*
X0203698Y0321894D02*
X0203698Y0315894D01*
X0193698Y0315894D02*
X0193698Y0321894D01*
X0183698Y0321894D02*
X0183698Y0315894D01*
X0168264Y0315894D02*
X0168264Y0321894D01*
X0158264Y0321894D02*
X0158264Y0315894D01*
X0148264Y0315894D02*
X0148264Y0321894D01*
D13*
X0126020Y0279524D03*
X0096020Y0279524D03*
X0229879Y0279524D03*
X0259879Y0279524D03*
X0363737Y0279524D03*
X0393737Y0279524D03*
X0497595Y0279524D03*
X0527595Y0279524D03*
X0257379Y0115980D03*
X0232379Y0115980D03*
D14*
X0227379Y0128480D03*
X0217379Y0123480D03*
X0209879Y0125980D03*
X0202379Y0128480D03*
X0244879Y0108480D03*
X0244879Y0093598D03*
X0259879Y0130980D03*
X0363737Y0130980D03*
X0366237Y0115980D03*
X0378737Y0108480D03*
X0391237Y0115980D03*
X0393737Y0128480D03*
X0403737Y0150980D03*
X0411237Y0153480D03*
X0418737Y0155980D03*
X0411237Y0085980D03*
X0411217Y0239524D03*
X0378737Y0262004D03*
X0277359Y0239524D03*
X0244879Y0262004D03*
X0143501Y0239524D03*
X0111020Y0262004D03*
X0512595Y0262004D03*
X0545075Y0239524D03*
X0633953Y0269524D03*
X0646453Y0262024D03*
X0658953Y0269524D03*
X0661453Y0282024D03*
X0631453Y0284524D03*
X0671453Y0304524D03*
X0678953Y0307024D03*
X0686453Y0309524D03*
X0678953Y0239524D03*
D15*
X0333776Y0193177D03*
X0323776Y0193177D03*
X0313776Y0193177D03*
X0272776Y0193177D03*
X0262776Y0193177D03*
X0252776Y0193177D03*
D16*
X0282776Y0193177D03*
X0343776Y0193177D03*
D17*
X0422776Y0208177D03*
X0201776Y0092177D03*
X0083776Y0331177D03*
X0687776Y0332177D03*
D18*
X0552776Y0291177D03*
X0552776Y0285177D03*
X0552776Y0279177D03*
X0540776Y0279177D03*
X0540776Y0285177D03*
X0540776Y0291177D03*
X0580776Y0236177D03*
X0580776Y0230177D03*
X0174776Y0230177D03*
X0174776Y0236177D03*
D19*
X0170039Y0232070D02*
X0170039Y0230527D01*
X0174426Y0230527D01*
X0174426Y0229827D01*
X0170039Y0229827D01*
X0170039Y0227668D01*
X0170147Y0227264D01*
X0170356Y0226902D01*
X0170652Y0226607D01*
X0171014Y0226398D01*
X0171417Y0226290D01*
X0174426Y0226290D01*
X0174426Y0229827D01*
X0175126Y0229827D01*
X0175126Y0226290D01*
X0178135Y0226290D01*
X0178539Y0226398D01*
X0178901Y0226607D01*
X0179196Y0226902D01*
X0179405Y0227264D01*
X0179514Y0227668D01*
X0179514Y0229827D01*
X0175126Y0229827D01*
X0175126Y0230527D01*
X0179514Y0230527D01*
X0179514Y0232070D01*
X0210110Y0232070D01*
X0209833Y0231402D01*
X0209833Y0228813D01*
X0210824Y0226421D01*
X0212655Y0224590D01*
X0215047Y0223599D01*
X0217636Y0223599D01*
X0220029Y0224590D01*
X0221860Y0226421D01*
X0222850Y0228813D01*
X0222850Y0231402D01*
X0222574Y0232070D01*
X0343968Y0232070D01*
X0343691Y0231402D01*
X0343691Y0228813D01*
X0344682Y0226421D01*
X0346513Y0224590D01*
X0348905Y0223599D01*
X0351495Y0223599D01*
X0353887Y0224590D01*
X0355718Y0226421D01*
X0356709Y0228813D01*
X0356709Y0231402D01*
X0356432Y0232070D01*
X0477826Y0232070D01*
X0477550Y0231402D01*
X0477550Y0228813D01*
X0478541Y0226421D01*
X0480371Y0224590D01*
X0482764Y0223599D01*
X0485353Y0223599D01*
X0487745Y0224590D01*
X0489576Y0226421D01*
X0490567Y0228813D01*
X0490567Y0231402D01*
X0490290Y0232070D01*
X0576039Y0232070D01*
X0576039Y0230527D01*
X0580426Y0230527D01*
X0580426Y0229827D01*
X0576039Y0229827D01*
X0576039Y0227668D01*
X0576147Y0227264D01*
X0576356Y0226902D01*
X0576652Y0226607D01*
X0577014Y0226398D01*
X0577417Y0226290D01*
X0580426Y0226290D01*
X0580426Y0229827D01*
X0581126Y0229827D01*
X0581126Y0226290D01*
X0584135Y0226290D01*
X0584539Y0226398D01*
X0584901Y0226607D01*
X0585196Y0226902D01*
X0585405Y0227264D01*
X0585514Y0227668D01*
X0585514Y0229827D01*
X0581126Y0229827D01*
X0581126Y0230527D01*
X0585514Y0230527D01*
X0585514Y0232070D01*
X0611685Y0232070D01*
X0611408Y0231402D01*
X0611408Y0228813D01*
X0612399Y0226421D01*
X0614230Y0224590D01*
X0616622Y0223599D01*
X0619211Y0223599D01*
X0621603Y0224590D01*
X0623434Y0226421D01*
X0624425Y0228813D01*
X0624425Y0231402D01*
X0624149Y0232070D01*
X0686712Y0232070D01*
X0687946Y0233304D01*
X0687946Y0250050D01*
X0686712Y0251284D01*
X0603546Y0251284D01*
X0603546Y0252281D01*
X0602555Y0254674D01*
X0600724Y0256505D01*
X0598332Y0257495D01*
X0595743Y0257495D01*
X0593351Y0256505D01*
X0591520Y0254674D01*
X0590529Y0252281D01*
X0590529Y0251284D01*
X0469688Y0251284D01*
X0469688Y0252281D01*
X0468697Y0254674D01*
X0467601Y0255770D01*
X0556255Y0255770D01*
X0557140Y0256137D01*
X0557817Y0256814D01*
X0577773Y0276770D01*
X0634669Y0276770D01*
X0634669Y0274674D01*
X0632929Y0274674D01*
X0631036Y0273890D01*
X0629587Y0272441D01*
X0628803Y0270548D01*
X0628803Y0268499D01*
X0629587Y0266606D01*
X0631036Y0265157D01*
X0632929Y0264373D01*
X0634978Y0264373D01*
X0636871Y0265157D01*
X0638320Y0266606D01*
X0639104Y0268499D01*
X0639104Y0270548D01*
X0638768Y0271358D01*
X0638883Y0271474D01*
X0638883Y0277974D01*
X0639183Y0278698D01*
X0639183Y0290656D01*
X0638883Y0291380D01*
X0638883Y0295050D01*
X0637649Y0296284D01*
X0635649Y0298284D01*
X0587768Y0298284D01*
X0588068Y0299008D01*
X0588068Y0300157D01*
X0587629Y0301218D01*
X0587589Y0301258D01*
X0587589Y0308586D01*
X0589140Y0310137D01*
X0589817Y0310814D01*
X0590183Y0311698D01*
X0590183Y0331656D01*
X0589817Y0332541D01*
X0589663Y0332695D01*
X0589663Y0332751D01*
X0589223Y0333812D01*
X0588411Y0334624D01*
X0587350Y0335064D01*
X0586202Y0335064D01*
X0585141Y0334624D01*
X0584329Y0333812D01*
X0583890Y0332751D01*
X0583890Y0331603D01*
X0584329Y0330542D01*
X0585141Y0329730D01*
X0585369Y0329636D01*
X0585369Y0318988D01*
X0584183Y0320174D01*
X0584183Y0323502D01*
X0584223Y0323542D01*
X0584663Y0324603D01*
X0584663Y0325751D01*
X0584223Y0326812D01*
X0583411Y0327624D01*
X0582350Y0328064D01*
X0581202Y0328064D01*
X0580141Y0327624D01*
X0579329Y0326812D01*
X0578890Y0325751D01*
X0578890Y0324603D01*
X0579329Y0323542D01*
X0579369Y0323502D01*
X0579369Y0318698D01*
X0579736Y0317814D01*
X0580413Y0317137D01*
X0581965Y0315584D01*
X0560451Y0315584D01*
X0560411Y0315624D01*
X0559350Y0316064D01*
X0558202Y0316064D01*
X0557141Y0315624D01*
X0557101Y0315584D01*
X0343318Y0315584D01*
X0343223Y0315812D01*
X0342411Y0316624D01*
X0341350Y0317064D01*
X0340202Y0317064D01*
X0339141Y0316624D01*
X0338329Y0315812D01*
X0337890Y0314751D01*
X0337890Y0313603D01*
X0338329Y0312542D01*
X0339141Y0311730D01*
X0340202Y0311291D01*
X0340259Y0311291D01*
X0340413Y0311137D01*
X0341297Y0310770D01*
X0404493Y0310770D01*
X0404141Y0310624D01*
X0403801Y0310284D01*
X0239903Y0310284D01*
X0238683Y0309064D01*
X0238202Y0309064D01*
X0237141Y0308624D01*
X0236329Y0307812D01*
X0235890Y0306751D01*
X0235890Y0305603D01*
X0236329Y0304542D01*
X0237141Y0303730D01*
X0238202Y0303291D01*
X0239350Y0303291D01*
X0240411Y0303730D01*
X0241223Y0304542D01*
X0241663Y0305603D01*
X0241663Y0306070D01*
X0403801Y0306070D01*
X0404141Y0305730D01*
X0405202Y0305291D01*
X0406350Y0305291D01*
X0407411Y0305730D01*
X0408223Y0306542D01*
X0408663Y0307603D01*
X0408663Y0308751D01*
X0408223Y0309812D01*
X0407411Y0310624D01*
X0407059Y0310770D01*
X0557101Y0310770D01*
X0557141Y0310730D01*
X0558202Y0310291D01*
X0559350Y0310291D01*
X0560411Y0310730D01*
X0560451Y0310770D01*
X0583068Y0310770D01*
X0582775Y0310061D01*
X0582775Y0301584D01*
X0407773Y0301584D01*
X0407140Y0302218D01*
X0406255Y0302584D01*
X0334490Y0302584D01*
X0334379Y0302695D01*
X0334379Y0302751D01*
X0333940Y0303812D01*
X0333128Y0304624D01*
X0332067Y0305064D01*
X0330919Y0305064D01*
X0329858Y0304624D01*
X0329046Y0303812D01*
X0328606Y0302751D01*
X0328606Y0301603D01*
X0329046Y0300542D01*
X0329858Y0299730D01*
X0330919Y0299291D01*
X0330975Y0299291D01*
X0330982Y0299284D01*
X0112801Y0299284D01*
X0098759Y0285242D01*
X0097280Y0285855D01*
X0094761Y0285855D01*
X0092434Y0284891D01*
X0090653Y0283110D01*
X0089689Y0280783D01*
X0089689Y0278264D01*
X0090653Y0275937D01*
X0092434Y0274156D01*
X0094761Y0273192D01*
X0097280Y0273192D01*
X0099607Y0274156D01*
X0101388Y0275937D01*
X0102352Y0278264D01*
X0102352Y0280783D01*
X0101739Y0282262D01*
X0114547Y0295070D01*
X0341903Y0295070D01*
X0342903Y0294070D01*
X0372801Y0294070D01*
X0373141Y0293730D01*
X0374202Y0293291D01*
X0375350Y0293291D01*
X0376411Y0293730D01*
X0377223Y0294542D01*
X0377663Y0295603D01*
X0377663Y0296751D01*
X0377241Y0297770D01*
X0401312Y0297770D01*
X0400890Y0296751D01*
X0400890Y0295603D01*
X0401329Y0294542D01*
X0402141Y0293730D01*
X0403202Y0293291D01*
X0404350Y0293291D01*
X0405411Y0293730D01*
X0405751Y0294070D01*
X0536019Y0294070D01*
X0536019Y0288211D01*
X0536053Y0288177D01*
X0536019Y0288143D01*
X0536019Y0282211D01*
X0536146Y0282085D01*
X0536039Y0281686D01*
X0536039Y0279527D01*
X0540426Y0279527D01*
X0540426Y0278827D01*
X0536039Y0278827D01*
X0536039Y0276668D01*
X0536147Y0276264D01*
X0536356Y0275902D01*
X0536652Y0275607D01*
X0537014Y0275398D01*
X0537417Y0275290D01*
X0540426Y0275290D01*
X0540426Y0278827D01*
X0541126Y0278827D01*
X0541126Y0275290D01*
X0544135Y0275290D01*
X0544539Y0275398D01*
X0544901Y0275607D01*
X0545196Y0275902D01*
X0545405Y0276264D01*
X0545514Y0276668D01*
X0545514Y0278827D01*
X0541126Y0278827D01*
X0541126Y0279527D01*
X0545514Y0279527D01*
X0545514Y0281686D01*
X0545407Y0282085D01*
X0545533Y0282211D01*
X0545533Y0282568D01*
X0546202Y0282291D01*
X0547350Y0282291D01*
X0548019Y0282568D01*
X0548019Y0282211D01*
X0548053Y0282177D01*
X0548019Y0282143D01*
X0548019Y0276211D01*
X0548961Y0275270D01*
X0550465Y0275270D01*
X0543779Y0268584D01*
X0105297Y0268584D01*
X0104413Y0268218D01*
X0103736Y0267541D01*
X0103369Y0266656D01*
X0103369Y0257698D01*
X0103736Y0256814D01*
X0104413Y0256137D01*
X0105297Y0255770D01*
X0191041Y0255770D01*
X0189945Y0254674D01*
X0188954Y0252281D01*
X0188954Y0251284D01*
X0134903Y0251284D01*
X0133669Y0250050D01*
X0133669Y0233304D01*
X0134903Y0232070D01*
X0170039Y0232070D01*
X0170039Y0231809D02*
X0088824Y0231809D01*
X0088992Y0231402D02*
X0088001Y0233795D01*
X0086170Y0235625D01*
X0083778Y0236616D01*
X0081189Y0236616D01*
X0078797Y0235625D01*
X0076966Y0233795D01*
X0075975Y0231402D01*
X0075975Y0228813D01*
X0076966Y0226421D01*
X0078797Y0224590D01*
X0081189Y0223599D01*
X0083778Y0223599D01*
X0086170Y0224590D01*
X0088001Y0226421D01*
X0088992Y0228813D01*
X0088992Y0231402D01*
X0088992Y0230210D02*
X0174426Y0230210D01*
X0175126Y0230210D02*
X0209833Y0230210D01*
X0209916Y0228612D02*
X0179514Y0228612D01*
X0179261Y0227013D02*
X0210579Y0227013D01*
X0211830Y0225415D02*
X0086995Y0225415D01*
X0088247Y0227013D02*
X0170292Y0227013D01*
X0170039Y0228612D02*
X0088909Y0228612D01*
X0088162Y0233407D02*
X0133669Y0233407D01*
X0133669Y0235006D02*
X0086790Y0235006D01*
X0083807Y0236604D02*
X0133669Y0236604D01*
X0133669Y0238203D02*
X0049812Y0238203D01*
X0049812Y0239802D02*
X0133669Y0239802D01*
X0133669Y0241400D02*
X0049812Y0241400D01*
X0049812Y0242999D02*
X0133669Y0242999D01*
X0133669Y0244597D02*
X0063186Y0244597D01*
X0062899Y0244478D02*
X0065291Y0245469D01*
X0067122Y0247300D01*
X0068113Y0249692D01*
X0068113Y0252281D01*
X0067122Y0254674D01*
X0065291Y0256505D01*
X0062899Y0257495D01*
X0060310Y0257495D01*
X0057918Y0256505D01*
X0056087Y0254674D01*
X0055096Y0252281D01*
X0055096Y0249692D01*
X0056087Y0247300D01*
X0057918Y0245469D01*
X0060310Y0244478D01*
X0062899Y0244478D01*
X0060023Y0244597D02*
X0049812Y0244597D01*
X0049812Y0246196D02*
X0057191Y0246196D01*
X0055882Y0247794D02*
X0049812Y0247794D01*
X0049812Y0249393D02*
X0055220Y0249393D01*
X0055096Y0250991D02*
X0049812Y0250991D01*
X0049812Y0252590D02*
X0055223Y0252590D01*
X0055885Y0254188D02*
X0049812Y0254188D01*
X0049812Y0255787D02*
X0057200Y0255787D01*
X0060043Y0257385D02*
X0049812Y0257385D01*
X0049812Y0258984D02*
X0103369Y0258984D01*
X0103369Y0260582D02*
X0049812Y0260582D01*
X0049812Y0262181D02*
X0103369Y0262181D01*
X0103369Y0263779D02*
X0049812Y0263779D01*
X0049812Y0265378D02*
X0103369Y0265378D01*
X0103502Y0266976D02*
X0049812Y0266976D01*
X0049812Y0268575D02*
X0105274Y0268575D01*
X0105776Y0266177D02*
X0544776Y0266177D01*
X0553869Y0275270D01*
X0556592Y0275270D01*
X0557533Y0276211D01*
X0557533Y0276770D01*
X0558255Y0276770D01*
X0559140Y0277137D01*
X0564140Y0282137D01*
X0564817Y0282814D01*
X0565183Y0283698D01*
X0565183Y0286584D01*
X0568776Y0290177D01*
X0634669Y0290177D01*
X0634669Y0279177D01*
X0576776Y0279177D01*
X0555776Y0258177D01*
X0105776Y0258177D01*
X0105776Y0266177D01*
X0105776Y0265378D02*
X0562977Y0265378D01*
X0564575Y0266976D02*
X0545575Y0266976D01*
X0547174Y0268575D02*
X0566174Y0268575D01*
X0567772Y0270173D02*
X0548772Y0270173D01*
X0550371Y0271772D02*
X0569371Y0271772D01*
X0570969Y0273370D02*
X0551969Y0273370D01*
X0553568Y0274969D02*
X0572568Y0274969D01*
X0574166Y0276567D02*
X0557533Y0276567D01*
X0557776Y0279177D02*
X0562776Y0284177D01*
X0562776Y0288177D01*
X0560776Y0290177D01*
X0565183Y0286158D02*
X0634669Y0286158D01*
X0634669Y0284560D02*
X0565183Y0284560D01*
X0564878Y0282961D02*
X0634669Y0282961D01*
X0634669Y0281363D02*
X0563366Y0281363D01*
X0561767Y0279764D02*
X0634669Y0279764D01*
X0634669Y0276567D02*
X0577570Y0276567D01*
X0575972Y0274969D02*
X0634669Y0274969D01*
X0638883Y0274969D02*
X0695850Y0274969D01*
X0695850Y0276567D02*
X0638883Y0276567D01*
X0638963Y0278166D02*
X0658055Y0278166D01*
X0658111Y0278110D02*
X0658764Y0277635D01*
X0659484Y0277269D01*
X0660252Y0277019D01*
X0661050Y0276893D01*
X0661072Y0276893D01*
X0661072Y0281642D01*
X0661835Y0281642D01*
X0661835Y0282405D01*
X0666584Y0282405D01*
X0666584Y0282427D01*
X0666458Y0283225D01*
X0666208Y0283993D01*
X0665842Y0284713D01*
X0665367Y0285366D01*
X0664796Y0285937D01*
X0664142Y0286412D01*
X0663423Y0286778D01*
X0662655Y0287028D01*
X0661857Y0287154D01*
X0661835Y0287154D01*
X0661835Y0282405D01*
X0661072Y0282405D01*
X0661072Y0281642D01*
X0656323Y0281642D01*
X0656323Y0281620D01*
X0656449Y0280822D01*
X0656699Y0280054D01*
X0657065Y0279335D01*
X0657540Y0278681D01*
X0658111Y0278110D01*
X0656846Y0279764D02*
X0639183Y0279764D01*
X0639183Y0281363D02*
X0656363Y0281363D01*
X0656323Y0282405D02*
X0661072Y0282405D01*
X0661072Y0287154D01*
X0661050Y0287154D01*
X0660252Y0287028D01*
X0659484Y0286778D01*
X0658764Y0286412D01*
X0658111Y0285937D01*
X0657540Y0285366D01*
X0657065Y0284713D01*
X0656699Y0283993D01*
X0656449Y0283225D01*
X0656323Y0282427D01*
X0656323Y0282405D01*
X0656407Y0282961D02*
X0639183Y0282961D01*
X0639183Y0284560D02*
X0656987Y0284560D01*
X0658415Y0286158D02*
X0639183Y0286158D01*
X0639183Y0287757D02*
X0695850Y0287757D01*
X0695850Y0289355D02*
X0639183Y0289355D01*
X0639060Y0290954D02*
X0695850Y0290954D01*
X0695850Y0292552D02*
X0638883Y0292552D01*
X0638883Y0294151D02*
X0695850Y0294151D01*
X0695850Y0295749D02*
X0638184Y0295749D01*
X0636585Y0297348D02*
X0695850Y0297348D01*
X0695850Y0298946D02*
X0588043Y0298946D01*
X0587908Y0300545D02*
X0668148Y0300545D01*
X0668536Y0300157D02*
X0670429Y0299373D01*
X0672478Y0299373D01*
X0674371Y0300157D01*
X0675820Y0301606D01*
X0676223Y0302580D01*
X0677929Y0301873D01*
X0679978Y0301873D01*
X0681871Y0302657D01*
X0683320Y0304106D01*
X0683723Y0305080D01*
X0685429Y0304373D01*
X0687478Y0304373D01*
X0689371Y0305157D01*
X0690820Y0306606D01*
X0691604Y0308499D01*
X0691604Y0310548D01*
X0690820Y0312441D01*
X0689371Y0313890D01*
X0687478Y0314674D01*
X0685429Y0314674D01*
X0683536Y0313890D01*
X0682087Y0312441D01*
X0681684Y0311467D01*
X0679978Y0312174D01*
X0677929Y0312174D01*
X0676036Y0311390D01*
X0674587Y0309941D01*
X0674184Y0308967D01*
X0672478Y0309674D01*
X0670429Y0309674D01*
X0668536Y0308890D01*
X0667087Y0307441D01*
X0666303Y0305548D01*
X0666303Y0303499D01*
X0667087Y0301606D01*
X0668536Y0300157D01*
X0666865Y0302143D02*
X0587589Y0302143D01*
X0587589Y0303742D02*
X0666303Y0303742D01*
X0666303Y0305340D02*
X0587589Y0305340D01*
X0587589Y0306939D02*
X0666879Y0306939D01*
X0668184Y0308537D02*
X0587589Y0308537D01*
X0589139Y0310136D02*
X0674782Y0310136D01*
X0676868Y0311735D02*
X0590183Y0311735D01*
X0590183Y0313333D02*
X0682979Y0313333D01*
X0681794Y0311735D02*
X0681039Y0311735D01*
X0682955Y0303742D02*
X0695850Y0303742D01*
X0695850Y0305340D02*
X0689554Y0305340D01*
X0690958Y0306939D02*
X0695850Y0306939D01*
X0695850Y0308537D02*
X0691604Y0308537D01*
X0691604Y0310136D02*
X0695850Y0310136D01*
X0695850Y0311735D02*
X0691112Y0311735D01*
X0689928Y0313333D02*
X0695850Y0313333D01*
X0695850Y0314932D02*
X0590183Y0314932D01*
X0590183Y0316530D02*
X0695850Y0316530D01*
X0695850Y0318129D02*
X0590183Y0318129D01*
X0590183Y0319727D02*
X0695850Y0319727D01*
X0695850Y0321326D02*
X0590183Y0321326D01*
X0590183Y0322924D02*
X0695850Y0322924D01*
X0695850Y0324523D02*
X0590183Y0324523D01*
X0590183Y0326121D02*
X0695850Y0326121D01*
X0695850Y0327720D02*
X0590183Y0327720D01*
X0590183Y0329318D02*
X0685579Y0329318D01*
X0685751Y0329146D02*
X0687065Y0328602D01*
X0688487Y0328602D01*
X0689802Y0329146D01*
X0690807Y0330152D01*
X0691352Y0331466D01*
X0691352Y0332888D01*
X0690807Y0334203D01*
X0689802Y0335208D01*
X0688487Y0335753D01*
X0687065Y0335753D01*
X0685751Y0335208D01*
X0684745Y0334203D01*
X0684201Y0332888D01*
X0684201Y0331466D01*
X0684745Y0330152D01*
X0685751Y0329146D01*
X0684428Y0330917D02*
X0590183Y0330917D01*
X0589827Y0332515D02*
X0684201Y0332515D01*
X0684708Y0334114D02*
X0588922Y0334114D01*
X0586776Y0332177D02*
X0587776Y0331177D01*
X0587776Y0312177D01*
X0585182Y0309583D01*
X0585182Y0299583D01*
X0584776Y0299177D01*
X0406776Y0299177D01*
X0405776Y0300177D01*
X0333493Y0300177D01*
X0331493Y0302177D01*
X0328606Y0302143D02*
X0049812Y0302143D01*
X0049812Y0300545D02*
X0329044Y0300545D01*
X0329016Y0303742D02*
X0240423Y0303742D01*
X0241554Y0305340D02*
X0405082Y0305340D01*
X0406471Y0305340D02*
X0582775Y0305340D01*
X0582775Y0303742D02*
X0333969Y0303742D01*
X0339137Y0311735D02*
X0210738Y0311735D01*
X0212336Y0313333D02*
X0338001Y0313333D01*
X0337964Y0314932D02*
X0213935Y0314932D01*
X0215533Y0316530D02*
X0339047Y0316530D01*
X0340776Y0314177D02*
X0341776Y0313177D01*
X0558776Y0313177D01*
X0583776Y0313177D01*
X0584776Y0314177D01*
X0584776Y0316177D01*
X0581776Y0319177D01*
X0581776Y0325177D01*
X0579043Y0326121D02*
X0494514Y0326121D01*
X0494514Y0325277D02*
X0494514Y0327139D01*
X0491739Y0329915D01*
X0489876Y0329915D01*
X0489876Y0325277D01*
X0489676Y0325277D01*
X0489676Y0325077D01*
X0485039Y0325077D01*
X0485039Y0323215D01*
X0487814Y0320440D01*
X0489676Y0320440D01*
X0489676Y0325077D01*
X0489876Y0325077D01*
X0489876Y0320440D01*
X0491739Y0320440D01*
X0494514Y0323215D01*
X0494514Y0325077D01*
X0489876Y0325077D01*
X0489876Y0325277D01*
X0494514Y0325277D01*
X0494514Y0324523D02*
X0578923Y0324523D01*
X0579369Y0322924D02*
X0494223Y0322924D01*
X0492624Y0321326D02*
X0579369Y0321326D01*
X0579369Y0319727D02*
X0357663Y0319727D01*
X0357663Y0319603D02*
X0357663Y0320751D01*
X0357223Y0321812D01*
X0356411Y0322624D01*
X0355350Y0323064D01*
X0354202Y0323064D01*
X0353155Y0322630D01*
X0353183Y0322698D01*
X0353183Y0331656D01*
X0352817Y0332541D01*
X0352140Y0333218D01*
X0351255Y0333584D01*
X0211297Y0333584D01*
X0210413Y0333218D01*
X0206779Y0329584D01*
X0142297Y0329584D01*
X0141413Y0329218D01*
X0140736Y0328541D01*
X0140369Y0327656D01*
X0140369Y0326698D01*
X0140369Y0311656D01*
X0140369Y0310698D01*
X0140736Y0309814D01*
X0141413Y0309137D01*
X0142297Y0308770D01*
X0207255Y0308770D01*
X0208140Y0309137D01*
X0218100Y0319096D01*
X0218329Y0318542D01*
X0219141Y0317730D01*
X0220202Y0317291D01*
X0221350Y0317291D01*
X0222411Y0317730D01*
X0222451Y0317770D01*
X0353101Y0317770D01*
X0353141Y0317730D01*
X0354202Y0317291D01*
X0355350Y0317291D01*
X0356411Y0317730D01*
X0357223Y0318542D01*
X0357663Y0319603D01*
X0356810Y0318129D02*
X0579605Y0318129D01*
X0581019Y0316530D02*
X0342506Y0316530D01*
X0342909Y0323177D02*
X0329465Y0323177D01*
X0329533Y0323341D01*
X0329643Y0323895D01*
X0329643Y0324177D01*
X0326776Y0324177D01*
X0323909Y0324177D01*
X0323909Y0323895D01*
X0324019Y0323341D01*
X0324087Y0323177D01*
X0218776Y0323177D01*
X0206776Y0311177D01*
X0142776Y0311177D01*
X0142776Y0327177D01*
X0207776Y0327177D01*
X0211776Y0331177D01*
X0342909Y0331177D01*
X0342909Y0330177D01*
X0342909Y0328689D01*
X0342912Y0328677D01*
X0342909Y0328666D01*
X0342909Y0327177D01*
X0342909Y0325689D01*
X0342912Y0325677D01*
X0342909Y0325666D01*
X0342909Y0324177D01*
X0342909Y0323177D01*
X0342909Y0324177D02*
X0345776Y0324177D01*
X0345776Y0324177D01*
X0342909Y0324177D01*
X0342909Y0324523D02*
X0329631Y0324523D01*
X0329643Y0324460D02*
X0329533Y0325013D01*
X0329317Y0325535D01*
X0329003Y0326005D01*
X0328831Y0326177D01*
X0329003Y0326350D01*
X0329317Y0326819D01*
X0329533Y0327341D01*
X0329643Y0327895D01*
X0329643Y0328177D01*
X0326776Y0328177D01*
X0323909Y0328177D01*
X0323909Y0327895D01*
X0324019Y0327341D01*
X0324236Y0326819D01*
X0324549Y0326350D01*
X0324722Y0326177D01*
X0324549Y0326005D01*
X0324236Y0325535D01*
X0324019Y0325013D01*
X0323909Y0324460D01*
X0323909Y0324177D01*
X0326776Y0324177D01*
X0326776Y0324177D01*
X0326776Y0328177D01*
X0326776Y0328177D01*
X0326776Y0328177D01*
X0323909Y0328177D01*
X0323909Y0328460D01*
X0324019Y0329013D01*
X0324236Y0329535D01*
X0324549Y0330005D01*
X0324949Y0330404D01*
X0325418Y0330718D01*
X0325940Y0330934D01*
X0326494Y0331044D01*
X0326776Y0331044D01*
X0326776Y0328177D01*
X0326776Y0325310D01*
X0326776Y0324177D01*
X0326776Y0324177D01*
X0326776Y0324177D01*
X0329643Y0324177D01*
X0329643Y0324460D01*
X0328887Y0326121D02*
X0342909Y0326121D01*
X0342909Y0327177D02*
X0345776Y0327177D01*
X0345776Y0327177D01*
X0345776Y0327177D01*
X0345776Y0324177D01*
X0345776Y0324177D01*
X0345776Y0324177D01*
X0345909Y0324177D01*
X0348776Y0324177D01*
X0348776Y0324177D01*
X0345776Y0324177D01*
X0345776Y0327044D01*
X0345776Y0327177D01*
X0342909Y0327177D01*
X0342909Y0327720D02*
X0329608Y0327720D01*
X0329643Y0328177D02*
X0329643Y0328460D01*
X0329533Y0329013D01*
X0329317Y0329535D01*
X0329003Y0330005D01*
X0328604Y0330404D01*
X0328134Y0330718D01*
X0327612Y0330934D01*
X0327059Y0331044D01*
X0326776Y0331044D01*
X0326776Y0328177D01*
X0326776Y0328177D01*
X0326776Y0328177D01*
X0329643Y0328177D01*
X0329407Y0329318D02*
X0342909Y0329318D01*
X0342909Y0330177D02*
X0345776Y0330177D01*
X0345776Y0330177D01*
X0345776Y0330177D01*
X0345776Y0327310D01*
X0345776Y0327177D01*
X0345776Y0327177D01*
X0345776Y0327177D01*
X0348776Y0327177D01*
X0348776Y0327177D01*
X0348776Y0327177D01*
X0348776Y0324177D01*
X0348776Y0324177D01*
X0348776Y0324310D01*
X0348776Y0327177D01*
X0345909Y0327177D01*
X0345776Y0327177D01*
X0345776Y0330177D01*
X0342909Y0330177D01*
X0342909Y0330917D02*
X0327654Y0330917D01*
X0326776Y0330917D02*
X0326776Y0330917D01*
X0325898Y0330917D02*
X0211516Y0330917D01*
X0209917Y0329318D02*
X0324146Y0329318D01*
X0323944Y0327720D02*
X0208319Y0327720D01*
X0206307Y0325799D02*
X0207603Y0324503D01*
X0208305Y0322810D01*
X0208305Y0314977D01*
X0207603Y0313284D01*
X0206307Y0311988D01*
X0204614Y0311287D01*
X0202781Y0311287D01*
X0201088Y0311988D01*
X0199792Y0313284D01*
X0199090Y0314977D01*
X0199090Y0322810D01*
X0199792Y0324503D01*
X0201088Y0325799D01*
X0202781Y0326501D01*
X0204614Y0326501D01*
X0206307Y0325799D01*
X0205530Y0326121D02*
X0324666Y0326121D01*
X0323922Y0324523D02*
X0207584Y0324523D01*
X0208257Y0322924D02*
X0218523Y0322924D01*
X0216925Y0321326D02*
X0208305Y0321326D01*
X0208305Y0319727D02*
X0215326Y0319727D01*
X0213728Y0318129D02*
X0208305Y0318129D01*
X0208305Y0316530D02*
X0212129Y0316530D01*
X0210531Y0314932D02*
X0208286Y0314932D01*
X0208932Y0313333D02*
X0207623Y0313333D01*
X0207334Y0311735D02*
X0205695Y0311735D01*
X0209139Y0310136D02*
X0239755Y0310136D01*
X0237054Y0308537D02*
X0049812Y0308537D01*
X0049812Y0306939D02*
X0235967Y0306939D01*
X0235998Y0305340D02*
X0049812Y0305340D01*
X0049812Y0303742D02*
X0237129Y0303742D01*
X0218743Y0318129D02*
X0217132Y0318129D01*
X0220776Y0320177D02*
X0354776Y0320177D01*
X0357425Y0321326D02*
X0426117Y0321326D01*
X0426202Y0321291D02*
X0427350Y0321291D01*
X0428411Y0321730D01*
X0428451Y0321770D01*
X0473456Y0321770D01*
X0474806Y0320420D01*
X0478747Y0320420D01*
X0481533Y0323207D01*
X0481533Y0327148D01*
X0478747Y0329934D01*
X0474806Y0329934D01*
X0472019Y0327148D01*
X0472019Y0326584D01*
X0428451Y0326584D01*
X0428411Y0326624D01*
X0427557Y0326978D01*
X0429649Y0329070D01*
X0459649Y0329070D01*
X0460883Y0330304D01*
X0461649Y0331070D01*
X0543890Y0331070D01*
X0543890Y0330603D01*
X0544329Y0329542D01*
X0545141Y0328730D01*
X0546202Y0328291D01*
X0547350Y0328291D01*
X0548411Y0328730D01*
X0549223Y0329542D01*
X0549663Y0330603D01*
X0549663Y0331751D01*
X0549223Y0332812D01*
X0548966Y0333070D01*
X0569578Y0333070D01*
X0569912Y0332263D01*
X0570862Y0331313D01*
X0572104Y0330798D01*
X0573448Y0330798D01*
X0574690Y0331313D01*
X0575641Y0332263D01*
X0576155Y0333505D01*
X0576155Y0334849D01*
X0575641Y0336091D01*
X0574690Y0337042D01*
X0573448Y0337556D01*
X0572104Y0337556D01*
X0571448Y0337284D01*
X0461649Y0337284D01*
X0439883Y0359050D01*
X0438649Y0360284D01*
X0394903Y0360284D01*
X0393903Y0359284D01*
X0392669Y0358050D01*
X0392669Y0349152D01*
X0392329Y0348812D01*
X0391890Y0347751D01*
X0391890Y0346603D01*
X0392329Y0345542D01*
X0393141Y0344730D01*
X0394202Y0344291D01*
X0395350Y0344291D01*
X0396411Y0344730D01*
X0397223Y0345542D01*
X0397663Y0346603D01*
X0397663Y0347751D01*
X0397223Y0348812D01*
X0396883Y0349152D01*
X0396883Y0356070D01*
X0405689Y0356070D01*
X0405669Y0356050D01*
X0405669Y0353050D01*
X0402683Y0350064D01*
X0402202Y0350064D01*
X0401141Y0349624D01*
X0400329Y0348812D01*
X0399890Y0347751D01*
X0399890Y0346603D01*
X0400329Y0345542D01*
X0401141Y0344730D01*
X0402202Y0344291D01*
X0403350Y0344291D01*
X0404411Y0344730D01*
X0405223Y0345542D01*
X0405663Y0346603D01*
X0405663Y0347084D01*
X0408649Y0350070D01*
X0409883Y0351304D01*
X0409883Y0354070D01*
X0435903Y0354070D01*
X0453669Y0336304D01*
X0453669Y0336152D01*
X0453329Y0335812D01*
X0452890Y0334751D01*
X0452890Y0333603D01*
X0453022Y0333284D01*
X0427903Y0333284D01*
X0422903Y0328284D01*
X0397663Y0328284D01*
X0397663Y0328751D01*
X0397223Y0329812D01*
X0396411Y0330624D01*
X0395350Y0331064D01*
X0394202Y0331064D01*
X0393141Y0330624D01*
X0392329Y0329812D01*
X0391890Y0328751D01*
X0391890Y0327603D01*
X0392329Y0326542D01*
X0393141Y0325730D01*
X0394202Y0325291D01*
X0394683Y0325291D01*
X0395903Y0324070D01*
X0423890Y0324070D01*
X0423890Y0323603D01*
X0424329Y0322542D01*
X0425141Y0321730D01*
X0426202Y0321291D01*
X0427435Y0321326D02*
X0473900Y0321326D01*
X0475776Y0324177D02*
X0476776Y0325177D01*
X0475776Y0324177D02*
X0426776Y0324177D01*
X0424171Y0322924D02*
X0355688Y0322924D01*
X0353865Y0322924D02*
X0353183Y0322924D01*
X0353183Y0324523D02*
X0395451Y0324523D01*
X0392750Y0326121D02*
X0353183Y0326121D01*
X0353183Y0327720D02*
X0391890Y0327720D01*
X0392124Y0329318D02*
X0353183Y0329318D01*
X0353183Y0330917D02*
X0393847Y0330917D01*
X0395706Y0330917D02*
X0425536Y0330917D01*
X0427134Y0332515D02*
X0352827Y0332515D01*
X0348776Y0330177D02*
X0348776Y0327177D01*
X0348776Y0330044D01*
X0348776Y0330177D01*
X0345776Y0330177D01*
X0345776Y0330177D01*
X0348643Y0330177D01*
X0348776Y0330177D01*
X0348776Y0330177D01*
X0348776Y0330177D01*
X0348776Y0329318D02*
X0348776Y0329318D01*
X0348776Y0327720D02*
X0348776Y0327720D01*
X0348776Y0327177D02*
X0348776Y0327177D01*
X0348776Y0326121D02*
X0348776Y0326121D01*
X0348776Y0324523D02*
X0348776Y0324523D01*
X0345776Y0324523D02*
X0345776Y0324523D01*
X0345776Y0326121D02*
X0345776Y0326121D01*
X0345776Y0327720D02*
X0345776Y0327720D01*
X0345776Y0329318D02*
X0345776Y0329318D01*
X0337556Y0343271D02*
X0336176Y0342700D01*
X0334683Y0342700D01*
X0333304Y0343271D01*
X0332248Y0344327D01*
X0331677Y0345706D01*
X0331677Y0347199D01*
X0332248Y0348579D01*
X0333304Y0349634D01*
X0334683Y0350205D01*
X0336176Y0350205D01*
X0337556Y0349634D01*
X0338611Y0348579D01*
X0339183Y0347199D01*
X0339183Y0345706D01*
X0338611Y0344327D01*
X0337556Y0343271D01*
X0337989Y0343705D02*
X0419485Y0343705D01*
X0419918Y0343271D02*
X0421297Y0342700D01*
X0422790Y0342700D01*
X0424170Y0343271D01*
X0425225Y0344327D01*
X0425797Y0345706D01*
X0425797Y0347199D01*
X0425225Y0348579D01*
X0424170Y0349634D01*
X0422790Y0350205D01*
X0421297Y0350205D01*
X0419918Y0349634D01*
X0418863Y0348579D01*
X0418291Y0347199D01*
X0418291Y0345706D01*
X0418863Y0344327D01*
X0419918Y0343271D01*
X0418458Y0345303D02*
X0404985Y0345303D01*
X0405663Y0346902D02*
X0418291Y0346902D01*
X0418830Y0348500D02*
X0407079Y0348500D01*
X0408678Y0350099D02*
X0421040Y0350099D01*
X0423048Y0350099D02*
X0439875Y0350099D01*
X0441473Y0348500D02*
X0425258Y0348500D01*
X0425797Y0346902D02*
X0443072Y0346902D01*
X0444670Y0345303D02*
X0425630Y0345303D01*
X0424603Y0343705D02*
X0446269Y0343705D01*
X0447867Y0342106D02*
X0298173Y0342106D01*
X0297547Y0341479D02*
X0298812Y0342745D01*
X0298812Y0342745D01*
X0299335Y0343268D01*
X0316961Y0360894D01*
X0317484Y0361417D01*
X0318470Y0362282D01*
X0320737Y0363590D01*
X0323265Y0364268D01*
X0324574Y0364354D01*
X0432900Y0364354D01*
X0434208Y0364268D01*
X0436737Y0363590D01*
X0439004Y0362282D01*
X0439990Y0361417D01*
X0440464Y0360943D01*
X0458139Y0343268D01*
X0458139Y0343268D01*
X0458662Y0342745D01*
X0459927Y0341479D01*
X0463027Y0339689D01*
X0466485Y0338763D01*
X0685824Y0338763D01*
X0687392Y0338640D01*
X0690376Y0337670D01*
X0692913Y0335826D01*
X0694757Y0333288D01*
X0695727Y0330305D01*
X0695850Y0328736D01*
X0695850Y0228343D01*
X0695727Y0226774D01*
X0694757Y0223790D01*
X0692913Y0221253D01*
X0690376Y0219409D01*
X0687392Y0218439D01*
X0685823Y0218316D01*
X0439576Y0218316D01*
X0435480Y0216985D01*
X0435480Y0216985D01*
X0431996Y0214454D01*
X0431996Y0214454D01*
X0431996Y0214454D01*
X0429465Y0210970D01*
X0428134Y0206874D01*
X0428134Y0086610D01*
X0428010Y0085042D01*
X0427041Y0082058D01*
X0425197Y0079520D01*
X0422659Y0077676D01*
X0419675Y0076707D01*
X0418107Y0076583D01*
X0205509Y0076583D01*
X0203940Y0076707D01*
X0200956Y0077676D01*
X0198419Y0079520D01*
X0196575Y0082058D01*
X0195605Y0085042D01*
X0195482Y0086610D01*
X0195482Y0206874D01*
X0194151Y0210970D01*
X0191620Y0214454D01*
X0188136Y0216985D01*
X0188136Y0216985D01*
X0184040Y0218316D01*
X0059839Y0218316D01*
X0058271Y0218439D01*
X0055287Y0219409D01*
X0052749Y0221253D01*
X0050905Y0223790D01*
X0049936Y0226774D01*
X0049812Y0228343D01*
X0049812Y0328736D01*
X0049936Y0330305D01*
X0050905Y0333288D01*
X0052749Y0335826D01*
X0055287Y0337670D01*
X0058271Y0338640D01*
X0059839Y0338763D01*
X0290989Y0338763D01*
X0294446Y0339689D01*
X0297547Y0341479D01*
X0297547Y0341479D01*
X0295864Y0340508D02*
X0449466Y0340508D01*
X0451064Y0338909D02*
X0291534Y0338909D01*
X0294446Y0339689D02*
X0294446Y0339689D01*
X0299335Y0343268D02*
X0299335Y0343268D01*
X0299772Y0343705D02*
X0332871Y0343705D01*
X0331844Y0345303D02*
X0301371Y0345303D01*
X0302969Y0346902D02*
X0331677Y0346902D01*
X0332216Y0348500D02*
X0304568Y0348500D01*
X0306166Y0350099D02*
X0334426Y0350099D01*
X0336434Y0350099D02*
X0352369Y0350099D01*
X0352369Y0350180D02*
X0352369Y0348852D01*
X0352329Y0348812D01*
X0351890Y0347751D01*
X0351890Y0346603D01*
X0352329Y0345542D01*
X0353141Y0344730D01*
X0354202Y0344291D01*
X0355350Y0344291D01*
X0356411Y0344730D01*
X0357223Y0345542D01*
X0357663Y0346603D01*
X0357663Y0347751D01*
X0357223Y0348812D01*
X0357183Y0348852D01*
X0357183Y0351656D01*
X0356817Y0352541D01*
X0356140Y0353218D01*
X0352140Y0357218D01*
X0351255Y0357584D01*
X0319451Y0357584D01*
X0319411Y0357624D01*
X0318350Y0358064D01*
X0317202Y0358064D01*
X0316141Y0357624D01*
X0315329Y0356812D01*
X0314890Y0355751D01*
X0314890Y0354603D01*
X0315329Y0353542D01*
X0316141Y0352730D01*
X0317202Y0352291D01*
X0318350Y0352291D01*
X0319411Y0352730D01*
X0319451Y0352770D01*
X0349779Y0352770D01*
X0352369Y0350180D01*
X0352200Y0348500D02*
X0338644Y0348500D01*
X0339183Y0346902D02*
X0351890Y0346902D01*
X0352568Y0345303D02*
X0339016Y0345303D01*
X0350852Y0351697D02*
X0307765Y0351697D01*
X0309363Y0353296D02*
X0315575Y0353296D01*
X0314890Y0354894D02*
X0310962Y0354894D01*
X0312560Y0356493D02*
X0315197Y0356493D01*
X0314159Y0358091D02*
X0392711Y0358091D01*
X0392669Y0356493D02*
X0352865Y0356493D01*
X0354463Y0354894D02*
X0392669Y0354894D01*
X0392669Y0353296D02*
X0356062Y0353296D01*
X0357166Y0351697D02*
X0392669Y0351697D01*
X0392669Y0350099D02*
X0357183Y0350099D01*
X0357353Y0348500D02*
X0392200Y0348500D01*
X0391890Y0346902D02*
X0357663Y0346902D01*
X0356985Y0345303D02*
X0392568Y0345303D01*
X0396985Y0345303D02*
X0400568Y0345303D01*
X0399890Y0346902D02*
X0397663Y0346902D01*
X0397353Y0348500D02*
X0400200Y0348500D01*
X0402718Y0350099D02*
X0396883Y0350099D01*
X0396883Y0351697D02*
X0404317Y0351697D01*
X0405669Y0353296D02*
X0396883Y0353296D01*
X0396883Y0354894D02*
X0405669Y0354894D01*
X0409883Y0353296D02*
X0436678Y0353296D01*
X0438276Y0351697D02*
X0409883Y0351697D01*
X0394309Y0359690D02*
X0315757Y0359690D01*
X0317356Y0361288D02*
X0440118Y0361288D01*
X0439243Y0359690D02*
X0441717Y0359690D01*
X0440842Y0358091D02*
X0443315Y0358091D01*
X0442440Y0356493D02*
X0444914Y0356493D01*
X0444039Y0354894D02*
X0446512Y0354894D01*
X0445637Y0353296D02*
X0448111Y0353296D01*
X0447236Y0351697D02*
X0449709Y0351697D01*
X0448834Y0350099D02*
X0451308Y0350099D01*
X0450433Y0348500D02*
X0452906Y0348500D01*
X0452031Y0346902D02*
X0454505Y0346902D01*
X0453630Y0345303D02*
X0456103Y0345303D01*
X0455229Y0343705D02*
X0457702Y0343705D01*
X0456827Y0342106D02*
X0459300Y0342106D01*
X0459927Y0341479D02*
X0459927Y0341479D01*
X0458426Y0340508D02*
X0461610Y0340508D01*
X0463027Y0339689D02*
X0463027Y0339689D01*
X0461623Y0337311D02*
X0571512Y0337311D01*
X0574040Y0337311D02*
X0690870Y0337311D01*
X0692996Y0335712D02*
X0688585Y0335712D01*
X0686967Y0335712D02*
X0575798Y0335712D01*
X0576155Y0334114D02*
X0584630Y0334114D01*
X0583890Y0332515D02*
X0575745Y0332515D01*
X0573734Y0330917D02*
X0584174Y0330917D01*
X0585369Y0329318D02*
X0548999Y0329318D01*
X0549663Y0330917D02*
X0571819Y0330917D01*
X0569808Y0332515D02*
X0549346Y0332515D01*
X0543890Y0330917D02*
X0461496Y0330917D01*
X0459897Y0329318D02*
X0474190Y0329318D01*
X0472591Y0327720D02*
X0428299Y0327720D01*
X0423937Y0329318D02*
X0397428Y0329318D01*
X0407900Y0310136D02*
X0582806Y0310136D01*
X0582775Y0308537D02*
X0408663Y0308537D01*
X0408388Y0306939D02*
X0582775Y0306939D01*
X0582775Y0302143D02*
X0407214Y0302143D01*
X0401137Y0297348D02*
X0377416Y0297348D01*
X0377663Y0295749D02*
X0400890Y0295749D01*
X0401720Y0294151D02*
X0376832Y0294151D01*
X0370518Y0289284D02*
X0369283Y0288050D01*
X0366476Y0285242D01*
X0364996Y0285855D01*
X0362477Y0285855D01*
X0360150Y0284891D01*
X0358369Y0283110D01*
X0357405Y0280783D01*
X0357405Y0278264D01*
X0358369Y0275937D01*
X0360150Y0274156D01*
X0362477Y0273192D01*
X0364996Y0273192D01*
X0367323Y0274156D01*
X0369104Y0275937D01*
X0370068Y0278264D01*
X0370068Y0280783D01*
X0369456Y0282262D01*
X0372263Y0285070D01*
X0390719Y0285070D01*
X0390429Y0284922D01*
X0389625Y0284338D01*
X0388922Y0283635D01*
X0388339Y0282832D01*
X0387887Y0281947D01*
X0387580Y0281002D01*
X0387469Y0280298D01*
X0392962Y0280298D01*
X0392962Y0278749D01*
X0387469Y0278749D01*
X0387580Y0278046D01*
X0387887Y0277101D01*
X0388339Y0276216D01*
X0388922Y0275412D01*
X0389625Y0274709D01*
X0390429Y0274125D01*
X0391314Y0273674D01*
X0392259Y0273367D01*
X0392962Y0273256D01*
X0392962Y0278749D01*
X0394512Y0278749D01*
X0394512Y0280298D01*
X0400005Y0280298D01*
X0399893Y0281002D01*
X0399586Y0281947D01*
X0399135Y0282832D01*
X0398551Y0283635D01*
X0397849Y0284338D01*
X0397045Y0284922D01*
X0396754Y0285070D01*
X0406649Y0285070D01*
X0408869Y0287291D01*
X0409350Y0287291D01*
X0410411Y0287730D01*
X0411223Y0288542D01*
X0411663Y0289603D01*
X0411663Y0290751D01*
X0411223Y0291812D01*
X0410411Y0292624D01*
X0409350Y0293064D01*
X0408202Y0293064D01*
X0407141Y0292624D01*
X0406329Y0291812D01*
X0405890Y0290751D01*
X0405890Y0290270D01*
X0404903Y0289284D01*
X0370518Y0289284D01*
X0369283Y0288050D02*
X0369283Y0288050D01*
X0368990Y0287757D02*
X0107233Y0287757D01*
X0105635Y0286158D02*
X0367392Y0286158D01*
X0370154Y0282961D02*
X0388433Y0282961D01*
X0387698Y0281363D02*
X0369828Y0281363D01*
X0370068Y0279764D02*
X0392962Y0279764D01*
X0394512Y0279764D02*
X0491264Y0279764D01*
X0491264Y0280783D02*
X0491264Y0278264D01*
X0492228Y0275937D01*
X0494009Y0274156D01*
X0496336Y0273192D01*
X0498855Y0273192D01*
X0501182Y0274156D01*
X0502963Y0275937D01*
X0503927Y0278264D01*
X0503927Y0280783D01*
X0502963Y0283110D01*
X0501182Y0284891D01*
X0498855Y0285855D01*
X0496336Y0285855D01*
X0494009Y0284891D01*
X0492228Y0283110D01*
X0491264Y0280783D01*
X0491504Y0281363D02*
X0399776Y0281363D01*
X0399041Y0282961D02*
X0492166Y0282961D01*
X0493677Y0284560D02*
X0397543Y0284560D01*
X0400005Y0278749D02*
X0394512Y0278749D01*
X0394512Y0273256D01*
X0395215Y0273367D01*
X0396160Y0273674D01*
X0397045Y0274125D01*
X0397849Y0274709D01*
X0398551Y0275412D01*
X0399135Y0276216D01*
X0399586Y0277101D01*
X0399893Y0278046D01*
X0400005Y0278749D01*
X0399912Y0278166D02*
X0491304Y0278166D01*
X0491967Y0276567D02*
X0399314Y0276567D01*
X0398108Y0274969D02*
X0493196Y0274969D01*
X0495906Y0273370D02*
X0395224Y0273370D01*
X0394512Y0273370D02*
X0392962Y0273370D01*
X0392250Y0273370D02*
X0365426Y0273370D01*
X0368136Y0274969D02*
X0389365Y0274969D01*
X0388159Y0276567D02*
X0369365Y0276567D01*
X0370028Y0278166D02*
X0387561Y0278166D01*
X0392962Y0278166D02*
X0394512Y0278166D01*
X0394512Y0276567D02*
X0392962Y0276567D01*
X0392962Y0274969D02*
X0394512Y0274969D01*
X0389930Y0284560D02*
X0371753Y0284560D01*
X0359819Y0284560D02*
X0263685Y0284560D01*
X0263990Y0284338D02*
X0263187Y0284922D01*
X0262301Y0285373D01*
X0261357Y0285680D01*
X0260653Y0285791D01*
X0260653Y0280298D01*
X0266146Y0280298D01*
X0266035Y0281002D01*
X0265728Y0281947D01*
X0265277Y0282832D01*
X0264693Y0283635D01*
X0263990Y0284338D01*
X0265183Y0282961D02*
X0358308Y0282961D01*
X0357646Y0281363D02*
X0265918Y0281363D01*
X0266146Y0278749D02*
X0260653Y0278749D01*
X0260653Y0273256D01*
X0261357Y0273367D01*
X0262301Y0273674D01*
X0263187Y0274125D01*
X0263990Y0274709D01*
X0264693Y0275412D01*
X0265277Y0276216D01*
X0265728Y0277101D01*
X0266035Y0278046D01*
X0266146Y0278749D01*
X0266054Y0278166D02*
X0357446Y0278166D01*
X0357405Y0279764D02*
X0260653Y0279764D01*
X0260653Y0280298D02*
X0260653Y0278749D01*
X0259104Y0278749D01*
X0259104Y0273256D01*
X0258401Y0273367D01*
X0257456Y0273674D01*
X0256570Y0274125D01*
X0255767Y0274709D01*
X0255064Y0275412D01*
X0254480Y0276216D01*
X0254029Y0277101D01*
X0253722Y0278046D01*
X0253611Y0278749D01*
X0259104Y0278749D01*
X0259104Y0280298D01*
X0253611Y0280298D01*
X0253722Y0281002D01*
X0254029Y0281947D01*
X0254480Y0282832D01*
X0255064Y0283635D01*
X0255767Y0284338D01*
X0256570Y0284922D01*
X0257456Y0285373D01*
X0258401Y0285680D01*
X0259104Y0285791D01*
X0259104Y0280298D01*
X0260653Y0280298D01*
X0260653Y0281363D02*
X0259104Y0281363D01*
X0259104Y0282961D02*
X0260653Y0282961D01*
X0260653Y0284560D02*
X0259104Y0284560D01*
X0256072Y0284560D02*
X0233796Y0284560D01*
X0233465Y0284891D02*
X0231138Y0285855D01*
X0228619Y0285855D01*
X0226292Y0284891D01*
X0224511Y0283110D01*
X0223547Y0280783D01*
X0223547Y0278264D01*
X0224511Y0275937D01*
X0226292Y0274156D01*
X0228619Y0273192D01*
X0231138Y0273192D01*
X0233465Y0274156D01*
X0235246Y0275937D01*
X0236210Y0278264D01*
X0236210Y0280783D01*
X0235246Y0283110D01*
X0233465Y0284891D01*
X0235308Y0282961D02*
X0254574Y0282961D01*
X0253840Y0281363D02*
X0235970Y0281363D01*
X0236210Y0279764D02*
X0259104Y0279764D01*
X0259104Y0278166D02*
X0260653Y0278166D01*
X0260653Y0276567D02*
X0259104Y0276567D01*
X0259104Y0274969D02*
X0260653Y0274969D01*
X0260653Y0273370D02*
X0259104Y0273370D01*
X0258391Y0273370D02*
X0231568Y0273370D01*
X0234278Y0274969D02*
X0255507Y0274969D01*
X0254301Y0276567D02*
X0235507Y0276567D01*
X0236169Y0278166D02*
X0253703Y0278166D01*
X0261366Y0273370D02*
X0362047Y0273370D01*
X0359338Y0274969D02*
X0264250Y0274969D01*
X0265456Y0276567D02*
X0358108Y0276567D01*
X0342823Y0294151D02*
X0113627Y0294151D01*
X0112029Y0292552D02*
X0407069Y0292552D01*
X0405974Y0290954D02*
X0110430Y0290954D01*
X0108832Y0289355D02*
X0404975Y0289355D01*
X0407737Y0286158D02*
X0536019Y0286158D01*
X0536019Y0284560D02*
X0531402Y0284560D01*
X0531707Y0284338D02*
X0530903Y0284922D01*
X0530018Y0285373D01*
X0529073Y0285680D01*
X0528370Y0285791D01*
X0528370Y0280298D01*
X0533863Y0280298D01*
X0533752Y0281002D01*
X0533445Y0281947D01*
X0532993Y0282832D01*
X0532410Y0283635D01*
X0531707Y0284338D01*
X0532899Y0282961D02*
X0536019Y0282961D01*
X0536039Y0281363D02*
X0533634Y0281363D01*
X0533863Y0278749D02*
X0528370Y0278749D01*
X0528370Y0280298D01*
X0526820Y0280298D01*
X0526820Y0278749D01*
X0521327Y0278749D01*
X0521439Y0278046D01*
X0521746Y0277101D01*
X0522197Y0276216D01*
X0522781Y0275412D01*
X0523483Y0274709D01*
X0524287Y0274125D01*
X0525172Y0273674D01*
X0526117Y0273367D01*
X0526820Y0273256D01*
X0526820Y0278749D01*
X0528370Y0278749D01*
X0528370Y0273256D01*
X0529073Y0273367D01*
X0530018Y0273674D01*
X0530903Y0274125D01*
X0531707Y0274709D01*
X0532410Y0275412D01*
X0532993Y0276216D01*
X0533445Y0277101D01*
X0533752Y0278046D01*
X0533863Y0278749D01*
X0533771Y0278166D02*
X0536039Y0278166D01*
X0536039Y0279764D02*
X0528370Y0279764D01*
X0526820Y0279764D02*
X0503927Y0279764D01*
X0503886Y0278166D02*
X0521420Y0278166D01*
X0522018Y0276567D02*
X0503224Y0276567D01*
X0501994Y0274969D02*
X0523224Y0274969D01*
X0526108Y0273370D02*
X0499285Y0273370D01*
X0503686Y0281363D02*
X0521556Y0281363D01*
X0521439Y0281002D02*
X0521327Y0280298D01*
X0526820Y0280298D01*
X0526820Y0285791D01*
X0526117Y0285680D01*
X0525172Y0285373D01*
X0524287Y0284922D01*
X0523483Y0284338D01*
X0522781Y0283635D01*
X0522197Y0282832D01*
X0521746Y0281947D01*
X0521439Y0281002D01*
X0522291Y0282961D02*
X0503024Y0282961D01*
X0501513Y0284560D02*
X0523789Y0284560D01*
X0526820Y0284560D02*
X0528370Y0284560D01*
X0528370Y0282961D02*
X0526820Y0282961D01*
X0526820Y0281363D02*
X0528370Y0281363D01*
X0528370Y0278166D02*
X0526820Y0278166D01*
X0526820Y0276567D02*
X0528370Y0276567D01*
X0528370Y0274969D02*
X0526820Y0274969D01*
X0526820Y0273370D02*
X0528370Y0273370D01*
X0529082Y0273370D02*
X0548565Y0273370D01*
X0546967Y0271772D02*
X0049812Y0271772D01*
X0049812Y0273370D02*
X0094331Y0273370D01*
X0091621Y0274969D02*
X0049812Y0274969D01*
X0049812Y0276567D02*
X0090392Y0276567D01*
X0089730Y0278166D02*
X0049812Y0278166D01*
X0049812Y0279764D02*
X0089689Y0279764D01*
X0089929Y0281363D02*
X0049812Y0281363D01*
X0049812Y0282961D02*
X0090591Y0282961D01*
X0092102Y0284560D02*
X0049812Y0284560D01*
X0049812Y0286158D02*
X0099675Y0286158D01*
X0101274Y0287757D02*
X0049812Y0287757D01*
X0049812Y0289355D02*
X0102872Y0289355D01*
X0104471Y0290954D02*
X0049812Y0290954D01*
X0049812Y0292552D02*
X0106069Y0292552D01*
X0107668Y0294151D02*
X0049812Y0294151D01*
X0049812Y0295749D02*
X0109266Y0295749D01*
X0110865Y0297348D02*
X0049812Y0297348D01*
X0049812Y0298946D02*
X0112463Y0298946D01*
X0104036Y0284560D02*
X0122214Y0284560D01*
X0121908Y0284338D02*
X0121206Y0283635D01*
X0120622Y0282832D01*
X0120171Y0281947D01*
X0119864Y0281002D01*
X0119753Y0280298D01*
X0125245Y0280298D01*
X0125245Y0278749D01*
X0119753Y0278749D01*
X0119864Y0278046D01*
X0120171Y0277101D01*
X0120622Y0276216D01*
X0121206Y0275412D01*
X0121908Y0274709D01*
X0122712Y0274125D01*
X0123597Y0273674D01*
X0124542Y0273367D01*
X0125246Y0273256D01*
X0125246Y0278749D01*
X0126795Y0278749D01*
X0126795Y0280298D01*
X0132288Y0280298D01*
X0132177Y0281002D01*
X0131870Y0281947D01*
X0131419Y0282832D01*
X0130835Y0283635D01*
X0130132Y0284338D01*
X0129328Y0284922D01*
X0128443Y0285373D01*
X0127498Y0285680D01*
X0126795Y0285791D01*
X0126795Y0280298D01*
X0125246Y0280298D01*
X0125246Y0285791D01*
X0124542Y0285680D01*
X0123597Y0285373D01*
X0122712Y0284922D01*
X0121908Y0284338D01*
X0120716Y0282961D02*
X0102438Y0282961D01*
X0102112Y0281363D02*
X0119981Y0281363D01*
X0119845Y0278166D02*
X0102311Y0278166D01*
X0102352Y0279764D02*
X0125245Y0279764D01*
X0126795Y0279764D02*
X0223547Y0279764D01*
X0223588Y0278166D02*
X0132196Y0278166D01*
X0132177Y0278046D02*
X0132288Y0278749D01*
X0126795Y0278749D01*
X0126795Y0273256D01*
X0127498Y0273367D01*
X0128443Y0273674D01*
X0129328Y0274125D01*
X0130132Y0274709D01*
X0130835Y0275412D01*
X0131419Y0276216D01*
X0131870Y0277101D01*
X0132177Y0278046D01*
X0131598Y0276567D02*
X0224250Y0276567D01*
X0225479Y0274969D02*
X0130392Y0274969D01*
X0127508Y0273370D02*
X0228189Y0273370D01*
X0223787Y0281363D02*
X0132059Y0281363D01*
X0131325Y0282961D02*
X0224449Y0282961D01*
X0225961Y0284560D02*
X0129827Y0284560D01*
X0126795Y0284560D02*
X0125246Y0284560D01*
X0125246Y0282961D02*
X0126795Y0282961D01*
X0126795Y0281363D02*
X0125246Y0281363D01*
X0125246Y0278166D02*
X0126795Y0278166D01*
X0126795Y0276567D02*
X0125246Y0276567D01*
X0125246Y0274969D02*
X0126795Y0274969D01*
X0126795Y0273370D02*
X0125246Y0273370D01*
X0124533Y0273370D02*
X0097710Y0273370D01*
X0100420Y0274969D02*
X0121649Y0274969D01*
X0120443Y0276567D02*
X0101649Y0276567D01*
X0105776Y0263779D02*
X0561378Y0263779D01*
X0559780Y0262181D02*
X0105776Y0262181D01*
X0105776Y0260582D02*
X0558181Y0260582D01*
X0556583Y0258984D02*
X0105776Y0258984D01*
X0103499Y0257385D02*
X0063165Y0257385D01*
X0066009Y0255787D02*
X0105258Y0255787D01*
X0133669Y0249393D02*
X0067989Y0249393D01*
X0068113Y0250991D02*
X0134610Y0250991D01*
X0133669Y0247794D02*
X0067327Y0247794D01*
X0066018Y0246196D02*
X0133669Y0246196D01*
X0174426Y0228612D02*
X0175126Y0228612D01*
X0175126Y0227013D02*
X0174426Y0227013D01*
X0179514Y0231809D02*
X0210002Y0231809D01*
X0214522Y0223816D02*
X0084303Y0223816D01*
X0080664Y0223816D02*
X0050897Y0223816D01*
X0050377Y0225415D02*
X0077972Y0225415D01*
X0076720Y0227013D02*
X0049917Y0227013D01*
X0049812Y0228612D02*
X0076058Y0228612D01*
X0075975Y0230210D02*
X0049812Y0230210D01*
X0049812Y0231809D02*
X0076143Y0231809D01*
X0076805Y0233407D02*
X0049812Y0233407D01*
X0049812Y0235006D02*
X0078177Y0235006D01*
X0081160Y0236604D02*
X0049812Y0236604D01*
X0052048Y0222218D02*
X0340569Y0222218D01*
X0340569Y0222815D02*
X0340569Y0198180D01*
X0339715Y0198180D01*
X0338773Y0197239D01*
X0338773Y0196584D01*
X0337444Y0196584D01*
X0336610Y0197418D01*
X0334771Y0198180D01*
X0332781Y0198180D01*
X0330942Y0197418D01*
X0330108Y0196584D01*
X0327416Y0196584D01*
X0327022Y0196978D01*
X0326388Y0197439D01*
X0325689Y0197795D01*
X0324943Y0198038D01*
X0324168Y0198160D01*
X0324108Y0198160D01*
X0324108Y0196584D01*
X0323444Y0196584D01*
X0323444Y0198160D01*
X0323384Y0198160D01*
X0322609Y0198038D01*
X0321863Y0197795D01*
X0321165Y0197439D01*
X0320530Y0196978D01*
X0320136Y0196584D01*
X0317444Y0196584D01*
X0316610Y0197418D01*
X0314771Y0198180D01*
X0312781Y0198180D01*
X0310942Y0197418D01*
X0310108Y0196584D01*
X0287779Y0196584D01*
X0287779Y0197239D01*
X0286838Y0198180D01*
X0278715Y0198180D01*
X0277773Y0197239D01*
X0277773Y0196584D01*
X0276444Y0196584D01*
X0275610Y0197418D01*
X0273771Y0198180D01*
X0271781Y0198180D01*
X0269942Y0197418D01*
X0269108Y0196584D01*
X0268297Y0196584D01*
X0267413Y0196218D01*
X0267015Y0195820D01*
X0266577Y0196423D01*
X0266022Y0196978D01*
X0265388Y0197439D01*
X0264689Y0197795D01*
X0263943Y0198038D01*
X0263168Y0198160D01*
X0263108Y0198160D01*
X0263108Y0193509D01*
X0262444Y0193509D01*
X0262444Y0192845D01*
X0257793Y0192845D01*
X0257793Y0192785D01*
X0257916Y0192010D01*
X0258158Y0191264D01*
X0258514Y0190565D01*
X0258975Y0189931D01*
X0259530Y0189376D01*
X0260165Y0188915D01*
X0260863Y0188559D01*
X0261609Y0188317D01*
X0262384Y0188194D01*
X0262444Y0188194D01*
X0262444Y0192845D01*
X0263108Y0192845D01*
X0263108Y0188194D01*
X0263168Y0188194D01*
X0263943Y0188317D01*
X0264689Y0188559D01*
X0265388Y0188915D01*
X0266022Y0189376D01*
X0266369Y0189723D01*
X0266369Y0177698D01*
X0266736Y0176814D01*
X0267413Y0176137D01*
X0268297Y0175770D01*
X0349255Y0175770D01*
X0350140Y0176137D01*
X0350817Y0176814D01*
X0351183Y0177698D01*
X0351183Y0194656D01*
X0350817Y0195541D01*
X0350140Y0196218D01*
X0349255Y0196584D01*
X0348779Y0196584D01*
X0348779Y0197239D01*
X0347838Y0198180D01*
X0346983Y0198180D01*
X0346983Y0222815D01*
X0346495Y0223994D01*
X0345593Y0224896D01*
X0344414Y0225384D01*
X0343138Y0225384D01*
X0341960Y0224896D01*
X0341057Y0223994D01*
X0340569Y0222815D01*
X0340984Y0223816D02*
X0218161Y0223816D01*
X0220854Y0225415D02*
X0345688Y0225415D01*
X0346569Y0223816D02*
X0348381Y0223816D01*
X0346983Y0222218D02*
X0693615Y0222218D01*
X0694766Y0223816D02*
X0619736Y0223816D01*
X0622428Y0225415D02*
X0695285Y0225415D01*
X0695746Y0227013D02*
X0623680Y0227013D01*
X0624342Y0228612D02*
X0695850Y0228612D01*
X0695850Y0230210D02*
X0624425Y0230210D01*
X0624257Y0231809D02*
X0695850Y0231809D01*
X0695850Y0233407D02*
X0687946Y0233407D01*
X0687946Y0235006D02*
X0695850Y0235006D01*
X0695850Y0236604D02*
X0687946Y0236604D01*
X0687946Y0238203D02*
X0695850Y0238203D01*
X0695850Y0239802D02*
X0687946Y0239802D01*
X0687946Y0241400D02*
X0695850Y0241400D01*
X0695850Y0242999D02*
X0687946Y0242999D01*
X0687946Y0244597D02*
X0695850Y0244597D01*
X0695850Y0246196D02*
X0687946Y0246196D01*
X0687946Y0247794D02*
X0695850Y0247794D01*
X0695850Y0249393D02*
X0687946Y0249393D01*
X0687005Y0250991D02*
X0695850Y0250991D01*
X0695850Y0252590D02*
X0603418Y0252590D01*
X0602756Y0254188D02*
X0695850Y0254188D01*
X0695850Y0255787D02*
X0601442Y0255787D01*
X0598598Y0257385D02*
X0644193Y0257385D01*
X0643536Y0257657D02*
X0645429Y0256873D01*
X0647478Y0256873D01*
X0649371Y0257657D01*
X0650820Y0259106D01*
X0651604Y0260999D01*
X0651604Y0263048D01*
X0650820Y0264941D01*
X0649371Y0266390D01*
X0647478Y0267174D01*
X0645429Y0267174D01*
X0643536Y0266390D01*
X0642087Y0264941D01*
X0641303Y0263048D01*
X0641303Y0260999D01*
X0642087Y0259106D01*
X0643536Y0257657D01*
X0642210Y0258984D02*
X0559987Y0258984D01*
X0561585Y0260582D02*
X0641476Y0260582D01*
X0641303Y0262181D02*
X0563184Y0262181D01*
X0564782Y0263779D02*
X0641606Y0263779D01*
X0642524Y0265378D02*
X0637091Y0265378D01*
X0638473Y0266976D02*
X0644951Y0266976D01*
X0647955Y0266976D02*
X0654434Y0266976D01*
X0654587Y0266606D02*
X0656036Y0265157D01*
X0657929Y0264373D01*
X0659978Y0264373D01*
X0661871Y0265157D01*
X0663320Y0266606D01*
X0664104Y0268499D01*
X0664104Y0270548D01*
X0663320Y0272441D01*
X0661871Y0273890D01*
X0659978Y0274674D01*
X0657929Y0274674D01*
X0656036Y0273890D01*
X0654587Y0272441D01*
X0653803Y0270548D01*
X0653803Y0268499D01*
X0654587Y0266606D01*
X0655816Y0265378D02*
X0650383Y0265378D01*
X0651301Y0263779D02*
X0695850Y0263779D01*
X0695850Y0262181D02*
X0651604Y0262181D01*
X0651431Y0260582D02*
X0695850Y0260582D01*
X0695850Y0258984D02*
X0650697Y0258984D01*
X0648714Y0257385D02*
X0695850Y0257385D01*
X0695850Y0265378D02*
X0662091Y0265378D01*
X0663473Y0266976D02*
X0695850Y0266976D01*
X0695850Y0268575D02*
X0664104Y0268575D01*
X0664104Y0270173D02*
X0695850Y0270173D01*
X0695850Y0271772D02*
X0663597Y0271772D01*
X0662391Y0273370D02*
X0695850Y0273370D01*
X0695850Y0278166D02*
X0664851Y0278166D01*
X0664796Y0278110D02*
X0665367Y0278681D01*
X0665842Y0279335D01*
X0666208Y0280054D01*
X0666458Y0280822D01*
X0666584Y0281620D01*
X0666584Y0281642D01*
X0661835Y0281642D01*
X0661835Y0276893D01*
X0661857Y0276893D01*
X0662655Y0277019D01*
X0663423Y0277269D01*
X0664142Y0277635D01*
X0664796Y0278110D01*
X0666061Y0279764D02*
X0695850Y0279764D01*
X0695850Y0281363D02*
X0666543Y0281363D01*
X0666500Y0282961D02*
X0695850Y0282961D01*
X0695850Y0284560D02*
X0665919Y0284560D01*
X0664491Y0286158D02*
X0695850Y0286158D01*
X0695850Y0300545D02*
X0674758Y0300545D01*
X0676042Y0302143D02*
X0677277Y0302143D01*
X0680630Y0302143D02*
X0695850Y0302143D01*
X0661835Y0286158D02*
X0661072Y0286158D01*
X0661072Y0284560D02*
X0661835Y0284560D01*
X0661835Y0282961D02*
X0661072Y0282961D01*
X0661072Y0281363D02*
X0661835Y0281363D01*
X0661835Y0279764D02*
X0661072Y0279764D01*
X0661072Y0278166D02*
X0661835Y0278166D01*
X0655516Y0273370D02*
X0638883Y0273370D01*
X0638883Y0271772D02*
X0654310Y0271772D01*
X0653803Y0270173D02*
X0639104Y0270173D01*
X0639104Y0268575D02*
X0653803Y0268575D01*
X0630816Y0265378D02*
X0566381Y0265378D01*
X0567979Y0266976D02*
X0629434Y0266976D01*
X0628803Y0268575D02*
X0569578Y0268575D01*
X0571176Y0270173D02*
X0628803Y0270173D01*
X0629310Y0271772D02*
X0572775Y0271772D01*
X0574373Y0273370D02*
X0630516Y0273370D01*
X0634669Y0287757D02*
X0566356Y0287757D01*
X0567954Y0289355D02*
X0634669Y0289355D01*
X0595476Y0257385D02*
X0558388Y0257385D01*
X0556295Y0255787D02*
X0592633Y0255787D01*
X0591319Y0254188D02*
X0468898Y0254188D01*
X0469560Y0252590D02*
X0590656Y0252590D01*
X0585514Y0231809D02*
X0611576Y0231809D01*
X0611408Y0230210D02*
X0597459Y0230210D01*
X0597499Y0230170D02*
X0597100Y0230569D01*
X0596630Y0230883D01*
X0596109Y0231099D01*
X0595555Y0231209D01*
X0595272Y0231209D01*
X0594990Y0231209D01*
X0594436Y0231099D01*
X0593914Y0230883D01*
X0593445Y0230569D01*
X0593045Y0230170D01*
X0592732Y0229701D01*
X0592516Y0229179D01*
X0592405Y0228625D01*
X0592405Y0228343D01*
X0595272Y0228343D01*
X0595272Y0231209D01*
X0595272Y0228343D01*
X0595272Y0228343D01*
X0595272Y0228342D01*
X0595272Y0228342D01*
X0595272Y0225476D01*
X0594990Y0225476D01*
X0594436Y0225586D01*
X0593914Y0225802D01*
X0593445Y0226116D01*
X0593045Y0226515D01*
X0592732Y0226985D01*
X0592516Y0227506D01*
X0592405Y0228060D01*
X0592405Y0228342D01*
X0595272Y0228342D01*
X0595272Y0225476D01*
X0595555Y0225476D01*
X0596109Y0225586D01*
X0596630Y0225802D01*
X0597100Y0226116D01*
X0597499Y0226515D01*
X0597813Y0226985D01*
X0598029Y0227506D01*
X0598139Y0228060D01*
X0598139Y0228342D01*
X0595272Y0228342D01*
X0595272Y0228343D01*
X0598139Y0228343D01*
X0598139Y0228625D01*
X0598029Y0229179D01*
X0597813Y0229701D01*
X0597499Y0230170D01*
X0598139Y0228612D02*
X0611491Y0228612D01*
X0612153Y0227013D02*
X0597825Y0227013D01*
X0595272Y0227013D02*
X0595272Y0227013D01*
X0595272Y0228612D02*
X0595272Y0228612D01*
X0595272Y0230210D02*
X0595272Y0230210D01*
X0593086Y0230210D02*
X0581126Y0230210D01*
X0580426Y0230210D02*
X0530530Y0230210D01*
X0530570Y0230170D02*
X0530171Y0230569D01*
X0529701Y0230883D01*
X0529179Y0231099D01*
X0528626Y0231209D01*
X0528343Y0231209D01*
X0528061Y0231209D01*
X0527507Y0231099D01*
X0526985Y0230883D01*
X0526516Y0230569D01*
X0526116Y0230170D01*
X0525803Y0229701D01*
X0525586Y0229179D01*
X0525476Y0228625D01*
X0525476Y0228343D01*
X0528343Y0228343D01*
X0528343Y0231209D01*
X0528343Y0228343D01*
X0528343Y0228343D01*
X0528343Y0228342D01*
X0528343Y0228342D01*
X0528343Y0225476D01*
X0528061Y0225476D01*
X0527507Y0225586D01*
X0526985Y0225802D01*
X0526516Y0226116D01*
X0526116Y0226515D01*
X0525803Y0226985D01*
X0525586Y0227506D01*
X0525476Y0228060D01*
X0525476Y0228342D01*
X0528343Y0228342D01*
X0528343Y0225476D01*
X0528626Y0225476D01*
X0529179Y0225586D01*
X0529701Y0225802D01*
X0530171Y0226116D01*
X0530570Y0226515D01*
X0530884Y0226985D01*
X0531100Y0227506D01*
X0531210Y0228060D01*
X0531210Y0228342D01*
X0528343Y0228342D01*
X0528343Y0228343D01*
X0531210Y0228343D01*
X0531210Y0228625D01*
X0531100Y0229179D01*
X0530884Y0229701D01*
X0530570Y0230170D01*
X0531210Y0228612D02*
X0576039Y0228612D01*
X0576292Y0227013D02*
X0530896Y0227013D01*
X0528343Y0227013D02*
X0528343Y0227013D01*
X0528343Y0228612D02*
X0528343Y0228612D01*
X0528343Y0230210D02*
X0528343Y0230210D01*
X0526157Y0230210D02*
X0490567Y0230210D01*
X0490484Y0228612D02*
X0525476Y0228612D01*
X0525791Y0227013D02*
X0489822Y0227013D01*
X0488570Y0225415D02*
X0613405Y0225415D01*
X0616097Y0223816D02*
X0485878Y0223816D01*
X0482239Y0223816D02*
X0352020Y0223816D01*
X0354712Y0225415D02*
X0479546Y0225415D01*
X0478295Y0227013D02*
X0355963Y0227013D01*
X0356625Y0228612D02*
X0477633Y0228612D01*
X0477550Y0230210D02*
X0356709Y0230210D01*
X0356540Y0231809D02*
X0477718Y0231809D01*
X0490399Y0231809D02*
X0576039Y0231809D01*
X0580426Y0228612D02*
X0581126Y0228612D01*
X0581126Y0227013D02*
X0580426Y0227013D01*
X0585261Y0227013D02*
X0592720Y0227013D01*
X0592405Y0228612D02*
X0585514Y0228612D01*
X0545368Y0270173D02*
X0049812Y0270173D01*
X0067323Y0254188D02*
X0189744Y0254188D01*
X0189082Y0252590D02*
X0067985Y0252590D01*
X0053621Y0220619D02*
X0340569Y0220619D01*
X0340569Y0219021D02*
X0056481Y0219021D01*
X0186789Y0217422D02*
X0340569Y0217422D01*
X0340569Y0215824D02*
X0189734Y0215824D01*
X0191620Y0214454D02*
X0191620Y0214454D01*
X0191620Y0214454D01*
X0191785Y0214225D02*
X0340569Y0214225D01*
X0340569Y0212627D02*
X0192947Y0212627D01*
X0194108Y0211028D02*
X0340569Y0211028D01*
X0340569Y0209430D02*
X0194651Y0209430D01*
X0194151Y0210970D02*
X0194151Y0210970D01*
X0195171Y0207831D02*
X0340569Y0207831D01*
X0340569Y0206233D02*
X0195482Y0206233D01*
X0195482Y0204634D02*
X0340569Y0204634D01*
X0340569Y0203036D02*
X0325972Y0203036D01*
X0326003Y0203005D02*
X0325604Y0203404D01*
X0325134Y0203718D01*
X0324612Y0203934D01*
X0324059Y0204044D01*
X0323776Y0204044D01*
X0323494Y0204044D01*
X0322940Y0203934D01*
X0322418Y0203718D01*
X0321949Y0203404D01*
X0321549Y0203005D01*
X0321236Y0202535D01*
X0321019Y0202013D01*
X0320909Y0201460D01*
X0320909Y0201177D01*
X0320909Y0200895D01*
X0321019Y0200341D01*
X0321236Y0199819D01*
X0321549Y0199350D01*
X0321949Y0198950D01*
X0322418Y0198637D01*
X0322940Y0198420D01*
X0323494Y0198310D01*
X0323776Y0198310D01*
X0323776Y0201177D01*
X0320909Y0201177D01*
X0323776Y0201177D01*
X0323776Y0201177D01*
X0323776Y0201177D01*
X0323776Y0198310D01*
X0324059Y0198310D01*
X0324612Y0198420D01*
X0325134Y0198637D01*
X0325604Y0198950D01*
X0326003Y0199350D01*
X0326317Y0199819D01*
X0326533Y0200341D01*
X0326643Y0200895D01*
X0326643Y0201177D01*
X0323776Y0201177D01*
X0323776Y0204044D01*
X0323776Y0201177D01*
X0323776Y0201177D01*
X0323776Y0201177D01*
X0326643Y0201177D01*
X0326643Y0201460D01*
X0326533Y0202013D01*
X0326317Y0202535D01*
X0326003Y0203005D01*
X0326643Y0201437D02*
X0340569Y0201437D01*
X0340569Y0199839D02*
X0326325Y0199839D01*
X0323776Y0199839D02*
X0323776Y0199839D01*
X0323776Y0201437D02*
X0323776Y0201437D01*
X0323776Y0203036D02*
X0323776Y0203036D01*
X0321580Y0203036D02*
X0264972Y0203036D01*
X0265003Y0203005D02*
X0264604Y0203404D01*
X0264134Y0203718D01*
X0263612Y0203934D01*
X0263059Y0204044D01*
X0262776Y0204044D01*
X0262494Y0204044D01*
X0261940Y0203934D01*
X0261418Y0203718D01*
X0260949Y0203404D01*
X0260549Y0203005D01*
X0260236Y0202535D01*
X0260019Y0202013D01*
X0259909Y0201460D01*
X0259909Y0201177D01*
X0259909Y0200895D01*
X0260019Y0200341D01*
X0260236Y0199819D01*
X0260549Y0199350D01*
X0260949Y0198950D01*
X0261418Y0198637D01*
X0261940Y0198420D01*
X0262494Y0198310D01*
X0262776Y0198310D01*
X0262776Y0201177D01*
X0259909Y0201177D01*
X0262776Y0201177D01*
X0262776Y0201177D01*
X0262776Y0201177D01*
X0262776Y0198310D01*
X0263059Y0198310D01*
X0263612Y0198420D01*
X0264134Y0198637D01*
X0264604Y0198950D01*
X0265003Y0199350D01*
X0265317Y0199819D01*
X0265533Y0200341D01*
X0265643Y0200895D01*
X0265643Y0201177D01*
X0262776Y0201177D01*
X0262776Y0204044D01*
X0262776Y0201177D01*
X0262776Y0201177D01*
X0262776Y0201177D01*
X0265643Y0201177D01*
X0265643Y0201460D01*
X0265533Y0202013D01*
X0265317Y0202535D01*
X0265003Y0203005D01*
X0265643Y0201437D02*
X0320909Y0201437D01*
X0321227Y0199839D02*
X0265325Y0199839D01*
X0262776Y0199839D02*
X0262776Y0199839D01*
X0262776Y0201437D02*
X0262776Y0201437D01*
X0262776Y0203036D02*
X0262776Y0203036D01*
X0260580Y0203036D02*
X0195482Y0203036D01*
X0195482Y0201437D02*
X0259909Y0201437D01*
X0260227Y0199839D02*
X0195482Y0199839D01*
X0195482Y0198240D02*
X0340569Y0198240D01*
X0338773Y0196642D02*
X0337387Y0196642D01*
X0338777Y0194177D02*
X0338793Y0194177D01*
X0338793Y0193509D01*
X0343444Y0193509D01*
X0343444Y0192845D01*
X0338793Y0192845D01*
X0338793Y0189573D01*
X0338901Y0189169D01*
X0339110Y0188807D01*
X0339406Y0188511D01*
X0339768Y0188302D01*
X0340172Y0188194D01*
X0343444Y0188194D01*
X0343444Y0192845D01*
X0344108Y0192845D01*
X0344108Y0188194D01*
X0347381Y0188194D01*
X0347785Y0188302D01*
X0348147Y0188511D01*
X0348442Y0188807D01*
X0348651Y0189169D01*
X0348759Y0189573D01*
X0348759Y0192845D01*
X0344108Y0192845D01*
X0344108Y0193509D01*
X0348759Y0193509D01*
X0348759Y0194177D01*
X0348776Y0194177D01*
X0348776Y0178177D01*
X0268776Y0178177D01*
X0268776Y0190102D01*
X0269942Y0188936D01*
X0271781Y0188174D01*
X0273771Y0188174D01*
X0275610Y0188936D01*
X0277017Y0190343D01*
X0277779Y0192182D01*
X0277779Y0194172D01*
X0277777Y0194177D01*
X0277793Y0194177D01*
X0277793Y0193509D01*
X0282444Y0193509D01*
X0282444Y0192845D01*
X0277793Y0192845D01*
X0277793Y0189573D01*
X0277901Y0189169D01*
X0278110Y0188807D01*
X0278406Y0188511D01*
X0278768Y0188302D01*
X0279172Y0188194D01*
X0282444Y0188194D01*
X0282444Y0192845D01*
X0283108Y0192845D01*
X0283108Y0188194D01*
X0286381Y0188194D01*
X0286785Y0188302D01*
X0287147Y0188511D01*
X0287442Y0188807D01*
X0287651Y0189169D01*
X0287759Y0189573D01*
X0287759Y0192845D01*
X0283108Y0192845D01*
X0283108Y0193509D01*
X0287759Y0193509D01*
X0287759Y0194177D01*
X0308776Y0194177D01*
X0308773Y0194172D01*
X0308773Y0192182D01*
X0309535Y0190343D01*
X0310942Y0188936D01*
X0312781Y0188174D01*
X0314771Y0188174D01*
X0316610Y0188936D01*
X0318017Y0190343D01*
X0318776Y0192175D01*
X0319535Y0190343D01*
X0320942Y0188936D01*
X0322781Y0188174D01*
X0324771Y0188174D01*
X0326610Y0188936D01*
X0328017Y0190343D01*
X0328776Y0192175D01*
X0329535Y0190343D01*
X0330942Y0188936D01*
X0332781Y0188174D01*
X0334771Y0188174D01*
X0336610Y0188936D01*
X0338017Y0190343D01*
X0338779Y0192182D01*
X0338779Y0194172D01*
X0338777Y0194177D01*
X0338779Y0193445D02*
X0343444Y0193445D01*
X0344108Y0193445D02*
X0348776Y0193445D01*
X0348759Y0191846D02*
X0348776Y0191846D01*
X0348759Y0190248D02*
X0348776Y0190248D01*
X0348776Y0188649D02*
X0348284Y0188649D01*
X0348776Y0187051D02*
X0268776Y0187051D01*
X0268776Y0188649D02*
X0270635Y0188649D01*
X0268776Y0185452D02*
X0348776Y0185452D01*
X0348776Y0183854D02*
X0268776Y0183854D01*
X0268776Y0182255D02*
X0348776Y0182255D01*
X0348776Y0180657D02*
X0268776Y0180657D01*
X0268776Y0179058D02*
X0348776Y0179058D01*
X0351183Y0179058D02*
X0428134Y0179058D01*
X0428134Y0177460D02*
X0351084Y0177460D01*
X0349475Y0175861D02*
X0428134Y0175861D01*
X0428134Y0174263D02*
X0195482Y0174263D01*
X0195482Y0175861D02*
X0268078Y0175861D01*
X0266468Y0177460D02*
X0195482Y0177460D01*
X0195482Y0179058D02*
X0266369Y0179058D01*
X0266369Y0180657D02*
X0195482Y0180657D01*
X0195482Y0182255D02*
X0266369Y0182255D01*
X0266369Y0183854D02*
X0195482Y0183854D01*
X0195482Y0185452D02*
X0266369Y0185452D01*
X0266369Y0187051D02*
X0195482Y0187051D01*
X0195482Y0188649D02*
X0250635Y0188649D01*
X0249942Y0188936D02*
X0251781Y0188174D01*
X0253771Y0188174D01*
X0255610Y0188936D01*
X0257017Y0190343D01*
X0257779Y0192182D01*
X0257779Y0194172D01*
X0257017Y0196011D01*
X0255610Y0197418D01*
X0253771Y0198180D01*
X0251781Y0198180D01*
X0249942Y0197418D01*
X0248535Y0196011D01*
X0247773Y0194172D01*
X0247773Y0192182D01*
X0248535Y0190343D01*
X0249942Y0188936D01*
X0248631Y0190248D02*
X0195482Y0190248D01*
X0195482Y0191846D02*
X0247913Y0191846D01*
X0247773Y0193445D02*
X0195482Y0193445D01*
X0195482Y0195043D02*
X0248134Y0195043D01*
X0249166Y0196642D02*
X0195482Y0196642D01*
X0195482Y0172664D02*
X0428134Y0172664D01*
X0428134Y0171066D02*
X0195482Y0171066D01*
X0195482Y0169467D02*
X0428134Y0169467D01*
X0428134Y0167868D02*
X0195482Y0167868D01*
X0195482Y0166270D02*
X0428134Y0166270D01*
X0428134Y0164671D02*
X0195482Y0164671D01*
X0195482Y0163073D02*
X0428134Y0163073D01*
X0428134Y0161474D02*
X0195482Y0161474D01*
X0195482Y0159876D02*
X0415349Y0159876D01*
X0415819Y0160347D02*
X0414371Y0158898D01*
X0413967Y0157924D01*
X0412261Y0158631D01*
X0410212Y0158631D01*
X0408319Y0157847D01*
X0406871Y0156398D01*
X0406467Y0155424D01*
X0404761Y0156131D01*
X0402712Y0156131D01*
X0400819Y0155347D01*
X0399371Y0153898D01*
X0398586Y0152005D01*
X0398586Y0149956D01*
X0399371Y0148063D01*
X0400819Y0146614D01*
X0402712Y0145830D01*
X0404761Y0145830D01*
X0406654Y0146614D01*
X0408103Y0148063D01*
X0408506Y0149037D01*
X0410212Y0148330D01*
X0412261Y0148330D01*
X0414154Y0149114D01*
X0415603Y0150563D01*
X0416006Y0151537D01*
X0417712Y0150830D01*
X0419761Y0150830D01*
X0421654Y0151614D01*
X0423103Y0153063D01*
X0423887Y0154956D01*
X0423887Y0157005D01*
X0423103Y0158898D01*
X0421654Y0160347D01*
X0419761Y0161131D01*
X0417712Y0161131D01*
X0415819Y0160347D01*
X0414114Y0158277D02*
X0413114Y0158277D01*
X0409360Y0158277D02*
X0195482Y0158277D01*
X0195482Y0156679D02*
X0407152Y0156679D01*
X0400553Y0155080D02*
X0195482Y0155080D01*
X0195482Y0153482D02*
X0399198Y0153482D01*
X0398586Y0151883D02*
X0195482Y0151883D01*
X0195482Y0150285D02*
X0398586Y0150285D01*
X0399112Y0148686D02*
X0195482Y0148686D01*
X0195482Y0147088D02*
X0400346Y0147088D01*
X0407128Y0147088D02*
X0428134Y0147088D01*
X0428134Y0148686D02*
X0413122Y0148686D01*
X0415325Y0150285D02*
X0428134Y0150285D01*
X0428134Y0151883D02*
X0421924Y0151883D01*
X0423277Y0153482D02*
X0428134Y0153482D01*
X0428134Y0155080D02*
X0423887Y0155080D01*
X0423887Y0156679D02*
X0428134Y0156679D01*
X0428134Y0158277D02*
X0423360Y0158277D01*
X0422125Y0159876D02*
X0428134Y0159876D01*
X0409352Y0148686D02*
X0408361Y0148686D01*
X0428134Y0145489D02*
X0195482Y0145489D01*
X0195482Y0143891D02*
X0428134Y0143891D01*
X0428134Y0142292D02*
X0195482Y0142292D01*
X0195482Y0140694D02*
X0428134Y0140694D01*
X0428134Y0139095D02*
X0195482Y0139095D01*
X0195482Y0137497D02*
X0428134Y0137497D01*
X0428134Y0135898D02*
X0365322Y0135898D01*
X0364761Y0136131D02*
X0362712Y0136131D01*
X0360819Y0135347D01*
X0359371Y0133898D01*
X0359035Y0133087D01*
X0264581Y0133087D01*
X0264245Y0133898D01*
X0262796Y0135347D01*
X0260903Y0136131D01*
X0258854Y0136131D01*
X0256961Y0135347D01*
X0255512Y0133898D01*
X0254728Y0132005D01*
X0254728Y0129956D01*
X0255512Y0128063D01*
X0256961Y0126614D01*
X0258854Y0125830D01*
X0260903Y0125830D01*
X0262796Y0126614D01*
X0264245Y0128063D01*
X0264581Y0128873D01*
X0359035Y0128873D01*
X0359371Y0128063D01*
X0360819Y0126614D01*
X0362712Y0125830D01*
X0364761Y0125830D01*
X0366654Y0126614D01*
X0368103Y0128063D01*
X0368887Y0129956D01*
X0368887Y0132005D01*
X0368103Y0133898D01*
X0366654Y0135347D01*
X0364761Y0136131D01*
X0362151Y0135898D02*
X0261464Y0135898D01*
X0263843Y0134300D02*
X0359773Y0134300D01*
X0359528Y0127906D02*
X0264088Y0127906D01*
X0262055Y0126307D02*
X0361560Y0126307D01*
X0365914Y0126307D02*
X0389086Y0126307D01*
X0388982Y0126511D02*
X0389349Y0125791D01*
X0389823Y0125138D01*
X0390394Y0124567D01*
X0391048Y0124092D01*
X0391767Y0123726D01*
X0392535Y0123476D01*
X0393333Y0123350D01*
X0393356Y0123350D01*
X0393356Y0128099D01*
X0394118Y0128099D01*
X0394118Y0123350D01*
X0394141Y0123350D01*
X0394938Y0123476D01*
X0395706Y0123726D01*
X0396426Y0124092D01*
X0397079Y0124567D01*
X0397650Y0125138D01*
X0398125Y0125791D01*
X0398492Y0126511D01*
X0398741Y0127279D01*
X0398868Y0128077D01*
X0398868Y0128099D01*
X0394118Y0128099D01*
X0394118Y0128861D01*
X0398868Y0128861D01*
X0398868Y0128884D01*
X0398741Y0129682D01*
X0398492Y0130450D01*
X0398125Y0131169D01*
X0397650Y0131823D01*
X0397079Y0132394D01*
X0396426Y0132868D01*
X0395706Y0133235D01*
X0394938Y0133485D01*
X0394141Y0133611D01*
X0394118Y0133611D01*
X0394118Y0128861D01*
X0393356Y0128861D01*
X0393356Y0128099D01*
X0388606Y0128099D01*
X0388606Y0128077D01*
X0388732Y0127279D01*
X0388982Y0126511D01*
X0387776Y0126307D02*
X0399776Y0126307D01*
X0398388Y0126307D02*
X0428134Y0126307D01*
X0428134Y0124709D02*
X0397221Y0124709D01*
X0399776Y0124709D02*
X0387776Y0124709D01*
X0387776Y0124177D02*
X0387776Y0136177D01*
X0399776Y0136177D01*
X0399776Y0124177D01*
X0387776Y0124177D01*
X0390253Y0124709D02*
X0230863Y0124709D01*
X0230721Y0124567D02*
X0231292Y0125138D01*
X0231767Y0125791D01*
X0232133Y0126511D01*
X0232383Y0127279D01*
X0232509Y0128077D01*
X0232509Y0128099D01*
X0227760Y0128099D01*
X0227760Y0128861D01*
X0232509Y0128861D01*
X0232509Y0128884D01*
X0232383Y0129682D01*
X0232133Y0130450D01*
X0231767Y0131169D01*
X0231292Y0131823D01*
X0230721Y0132394D01*
X0230068Y0132868D01*
X0229348Y0133235D01*
X0228580Y0133485D01*
X0227782Y0133611D01*
X0227760Y0133611D01*
X0227760Y0128861D01*
X0226997Y0128861D01*
X0226997Y0128099D01*
X0222248Y0128099D01*
X0222248Y0128077D01*
X0222374Y0127279D01*
X0222624Y0126511D01*
X0222990Y0125791D01*
X0223465Y0125138D01*
X0224036Y0124567D01*
X0224690Y0124092D01*
X0225409Y0123726D01*
X0226177Y0123476D01*
X0226975Y0123350D01*
X0226997Y0123350D01*
X0226997Y0128099D01*
X0227760Y0128099D01*
X0227760Y0123350D01*
X0227782Y0123350D01*
X0228580Y0123476D01*
X0229348Y0123726D01*
X0230068Y0124092D01*
X0230721Y0124567D01*
X0232030Y0126307D02*
X0257702Y0126307D01*
X0255669Y0127906D02*
X0232482Y0127906D01*
X0233776Y0127906D02*
X0221776Y0127906D01*
X0222275Y0127906D02*
X0220153Y0127906D01*
X0220296Y0127847D02*
X0218403Y0128631D01*
X0216354Y0128631D01*
X0214648Y0127924D01*
X0214245Y0128898D01*
X0212796Y0130347D01*
X0210903Y0131131D01*
X0208854Y0131131D01*
X0207148Y0130424D01*
X0206745Y0131398D01*
X0205296Y0132847D01*
X0203403Y0133631D01*
X0201354Y0133631D01*
X0199461Y0132847D01*
X0198012Y0131398D01*
X0197228Y0129505D01*
X0197228Y0127456D01*
X0198012Y0125563D01*
X0199461Y0124114D01*
X0199669Y0124028D01*
X0199669Y0114304D01*
X0200903Y0113070D01*
X0207600Y0106373D01*
X0240177Y0106373D01*
X0240512Y0105563D01*
X0241961Y0104114D01*
X0243854Y0103330D01*
X0245903Y0103330D01*
X0247796Y0104114D01*
X0249245Y0105563D01*
X0249293Y0105680D01*
X0249669Y0105304D01*
X0250903Y0104070D01*
X0375926Y0104070D01*
X0377712Y0103330D01*
X0379761Y0103330D01*
X0381654Y0104114D01*
X0383103Y0105563D01*
X0383439Y0106373D01*
X0415952Y0106373D01*
X0418349Y0108770D01*
X0421242Y0108770D01*
X0422183Y0109711D01*
X0422183Y0114643D01*
X0421242Y0115584D01*
X0416311Y0115584D01*
X0415369Y0114643D01*
X0415369Y0111750D01*
X0414207Y0110587D01*
X0383439Y0110587D01*
X0383103Y0111398D01*
X0381654Y0112847D01*
X0381115Y0113070D01*
X0386868Y0113070D01*
X0386871Y0113063D01*
X0388319Y0111614D01*
X0390212Y0110830D01*
X0392261Y0110830D01*
X0394154Y0111614D01*
X0395603Y0113063D01*
X0396387Y0114956D01*
X0396387Y0117005D01*
X0395603Y0118898D01*
X0394154Y0120347D01*
X0392261Y0121131D01*
X0390212Y0121131D01*
X0388319Y0120347D01*
X0386871Y0118898D01*
X0386202Y0117284D01*
X0373903Y0117284D01*
X0372669Y0116050D01*
X0371254Y0114635D01*
X0371387Y0114956D01*
X0371387Y0117005D01*
X0370603Y0118898D01*
X0369154Y0120347D01*
X0367261Y0121131D01*
X0365212Y0121131D01*
X0363319Y0120347D01*
X0361871Y0118898D01*
X0361535Y0118087D01*
X0263359Y0118087D01*
X0262746Y0119567D01*
X0260965Y0121348D01*
X0258638Y0122312D01*
X0256119Y0122312D01*
X0253792Y0121348D01*
X0252011Y0119567D01*
X0251047Y0117240D01*
X0251047Y0114721D01*
X0251637Y0113296D01*
X0246846Y0118087D01*
X0238359Y0118087D01*
X0237746Y0119567D01*
X0235965Y0121348D01*
X0233638Y0122312D01*
X0231119Y0122312D01*
X0228792Y0121348D01*
X0227011Y0119567D01*
X0226047Y0117240D01*
X0226047Y0114721D01*
X0227011Y0112394D01*
X0228792Y0110613D01*
X0228853Y0110587D01*
X0209346Y0110587D01*
X0203883Y0116050D01*
X0203883Y0123529D01*
X0205109Y0124037D01*
X0205512Y0123063D01*
X0206961Y0121614D01*
X0208854Y0120830D01*
X0210903Y0120830D01*
X0212609Y0121537D01*
X0213012Y0120563D01*
X0214461Y0119114D01*
X0216354Y0118330D01*
X0218403Y0118330D01*
X0220296Y0119114D01*
X0221745Y0120563D01*
X0222529Y0122456D01*
X0222529Y0124505D01*
X0221776Y0126322D01*
X0221776Y0134177D01*
X0233776Y0134177D01*
X0233776Y0124177D01*
X0222529Y0124177D01*
X0222529Y0124505D01*
X0221745Y0126398D01*
X0220296Y0127847D01*
X0221782Y0126307D02*
X0233776Y0126307D01*
X0233776Y0124709D02*
X0222445Y0124709D01*
X0223894Y0124709D01*
X0222728Y0126307D02*
X0221782Y0126307D01*
X0222248Y0128861D02*
X0226997Y0128861D01*
X0226997Y0133611D01*
X0226975Y0133611D01*
X0226177Y0133485D01*
X0225409Y0133235D01*
X0224690Y0132868D01*
X0224036Y0132394D01*
X0223465Y0131823D01*
X0222990Y0131169D01*
X0222624Y0130450D01*
X0222374Y0129682D01*
X0222248Y0128884D01*
X0222248Y0128861D01*
X0222346Y0129504D02*
X0213638Y0129504D01*
X0210971Y0131103D02*
X0222956Y0131103D01*
X0221776Y0131103D02*
X0233776Y0131103D01*
X0233776Y0132701D02*
X0221776Y0132701D01*
X0224459Y0132701D02*
X0205441Y0132701D01*
X0206867Y0131103D02*
X0208787Y0131103D01*
X0199316Y0132701D02*
X0195482Y0132701D01*
X0195482Y0131103D02*
X0197890Y0131103D01*
X0197228Y0129504D02*
X0195482Y0129504D01*
X0195482Y0127906D02*
X0197228Y0127906D01*
X0197704Y0126307D02*
X0195482Y0126307D01*
X0195482Y0124709D02*
X0198866Y0124709D01*
X0199669Y0123110D02*
X0195482Y0123110D01*
X0195482Y0121512D02*
X0199669Y0121512D01*
X0199669Y0119913D02*
X0195482Y0119913D01*
X0195482Y0118315D02*
X0199669Y0118315D01*
X0199669Y0116716D02*
X0195482Y0116716D01*
X0195482Y0115118D02*
X0199669Y0115118D01*
X0200454Y0113519D02*
X0195482Y0113519D01*
X0195482Y0111921D02*
X0202053Y0111921D01*
X0203651Y0110322D02*
X0195482Y0110322D01*
X0195482Y0108724D02*
X0205250Y0108724D01*
X0206848Y0107125D02*
X0195482Y0107125D01*
X0195482Y0105527D02*
X0240549Y0105527D01*
X0242410Y0103928D02*
X0195482Y0103928D01*
X0195482Y0102330D02*
X0428134Y0102330D01*
X0428134Y0103928D02*
X0381205Y0103928D01*
X0383067Y0105527D02*
X0428134Y0105527D01*
X0428134Y0107125D02*
X0416704Y0107125D01*
X0418303Y0108724D02*
X0428134Y0108724D01*
X0428134Y0110322D02*
X0422183Y0110322D01*
X0422183Y0111921D02*
X0428134Y0111921D01*
X0428134Y0113519D02*
X0422183Y0113519D01*
X0421709Y0115118D02*
X0428134Y0115118D01*
X0428134Y0116716D02*
X0396387Y0116716D01*
X0396387Y0115118D02*
X0415844Y0115118D01*
X0415369Y0113519D02*
X0395792Y0113519D01*
X0394461Y0111921D02*
X0415369Y0111921D01*
X0428134Y0118315D02*
X0395845Y0118315D01*
X0394588Y0119913D02*
X0428134Y0119913D01*
X0428134Y0121512D02*
X0260570Y0121512D01*
X0262400Y0119913D02*
X0362886Y0119913D01*
X0361629Y0118315D02*
X0263265Y0118315D01*
X0254187Y0121512D02*
X0235570Y0121512D01*
X0237400Y0119913D02*
X0252357Y0119913D01*
X0251492Y0118315D02*
X0238265Y0118315D01*
X0248217Y0116716D02*
X0251047Y0116716D01*
X0251047Y0115118D02*
X0249816Y0115118D01*
X0251414Y0113519D02*
X0251545Y0113519D01*
X0249447Y0105527D02*
X0249209Y0105527D01*
X0247347Y0103928D02*
X0376268Y0103928D01*
X0382580Y0111921D02*
X0388013Y0111921D01*
X0386629Y0118315D02*
X0370845Y0118315D01*
X0371387Y0116716D02*
X0373335Y0116716D01*
X0371737Y0115118D02*
X0371387Y0115118D01*
X0369588Y0119913D02*
X0387886Y0119913D01*
X0393356Y0124709D02*
X0394118Y0124709D01*
X0394118Y0126307D02*
X0393356Y0126307D01*
X0393356Y0127906D02*
X0394118Y0127906D01*
X0393356Y0128861D02*
X0388606Y0128861D01*
X0388606Y0128884D01*
X0388732Y0129682D01*
X0388982Y0130450D01*
X0389349Y0131169D01*
X0389823Y0131823D01*
X0390394Y0132394D01*
X0391048Y0132868D01*
X0391767Y0133235D01*
X0392535Y0133485D01*
X0393333Y0133611D01*
X0393356Y0133611D01*
X0393356Y0128861D01*
X0393356Y0129504D02*
X0394118Y0129504D01*
X0394118Y0131103D02*
X0393356Y0131103D01*
X0393356Y0132701D02*
X0394118Y0132701D01*
X0396656Y0132701D02*
X0428134Y0132701D01*
X0428134Y0131103D02*
X0398159Y0131103D01*
X0399776Y0131103D02*
X0387776Y0131103D01*
X0389315Y0131103D02*
X0368887Y0131103D01*
X0368700Y0129504D02*
X0388704Y0129504D01*
X0387776Y0129504D02*
X0399776Y0129504D01*
X0398769Y0129504D02*
X0428134Y0129504D01*
X0428134Y0127906D02*
X0398841Y0127906D01*
X0399776Y0127906D02*
X0387776Y0127906D01*
X0388633Y0127906D02*
X0367946Y0127906D01*
X0368599Y0132701D02*
X0390818Y0132701D01*
X0387776Y0132701D02*
X0399776Y0132701D01*
X0399776Y0134300D02*
X0387776Y0134300D01*
X0387776Y0135898D02*
X0399776Y0135898D01*
X0428134Y0134300D02*
X0367701Y0134300D01*
X0428134Y0123110D02*
X0222529Y0123110D01*
X0222138Y0121512D02*
X0229187Y0121512D01*
X0227357Y0119913D02*
X0221095Y0119913D01*
X0226492Y0118315D02*
X0203883Y0118315D01*
X0203883Y0119913D02*
X0213662Y0119913D01*
X0212619Y0121512D02*
X0212549Y0121512D01*
X0207208Y0121512D02*
X0203883Y0121512D01*
X0203883Y0123110D02*
X0205493Y0123110D01*
X0203883Y0116716D02*
X0226047Y0116716D01*
X0226047Y0115118D02*
X0204816Y0115118D01*
X0206414Y0113519D02*
X0226545Y0113519D01*
X0227484Y0111921D02*
X0208013Y0111921D01*
X0226997Y0124709D02*
X0227760Y0124709D01*
X0227760Y0126307D02*
X0226997Y0126307D01*
X0226997Y0127906D02*
X0227760Y0127906D01*
X0227760Y0129504D02*
X0226997Y0129504D01*
X0226997Y0131103D02*
X0227760Y0131103D01*
X0227760Y0132701D02*
X0226997Y0132701D01*
X0230298Y0132701D02*
X0255017Y0132701D01*
X0254728Y0131103D02*
X0231801Y0131103D01*
X0232411Y0129504D02*
X0254915Y0129504D01*
X0255914Y0134300D02*
X0195482Y0134300D01*
X0195482Y0135898D02*
X0258293Y0135898D01*
X0233776Y0129504D02*
X0221776Y0129504D01*
X0225903Y0101284D02*
X0224669Y0100050D01*
X0224669Y0090050D01*
X0224669Y0088304D01*
X0225903Y0087070D01*
X0403669Y0087070D01*
X0403669Y0080304D01*
X0404903Y0079070D01*
X0417649Y0079070D01*
X0418883Y0080304D01*
X0418883Y0097050D01*
X0417649Y0098284D01*
X0252883Y0098284D01*
X0252883Y0100050D01*
X0251649Y0101284D01*
X0225903Y0101284D01*
X0225350Y0100731D02*
X0195482Y0100731D01*
X0195482Y0099133D02*
X0224669Y0099133D01*
X0224669Y0097534D02*
X0195482Y0097534D01*
X0195482Y0095935D02*
X0224669Y0095935D01*
X0224669Y0094337D02*
X0204673Y0094337D01*
X0204807Y0094203D02*
X0203802Y0095208D01*
X0202487Y0095753D01*
X0201065Y0095753D01*
X0199751Y0095208D01*
X0198745Y0094203D01*
X0198201Y0092888D01*
X0198201Y0091466D01*
X0198745Y0090152D01*
X0199751Y0089146D01*
X0201065Y0088602D01*
X0202487Y0088602D01*
X0203802Y0089146D01*
X0204807Y0090152D01*
X0205352Y0091466D01*
X0205352Y0092888D01*
X0204807Y0094203D01*
X0205352Y0092738D02*
X0224669Y0092738D01*
X0224669Y0091140D02*
X0205217Y0091140D01*
X0204197Y0089541D02*
X0224669Y0089541D01*
X0225031Y0087943D02*
X0195482Y0087943D01*
X0195482Y0089541D02*
X0199355Y0089541D01*
X0198336Y0091140D02*
X0195482Y0091140D01*
X0195482Y0092738D02*
X0198201Y0092738D01*
X0198879Y0094337D02*
X0195482Y0094337D01*
X0195503Y0086344D02*
X0403669Y0086344D01*
X0403669Y0084746D02*
X0384656Y0084746D01*
X0384501Y0084900D02*
X0384032Y0085214D01*
X0383510Y0085430D01*
X0382956Y0085540D01*
X0382674Y0085540D01*
X0382674Y0082673D01*
X0382674Y0079806D01*
X0382956Y0079806D01*
X0383510Y0079916D01*
X0384032Y0080133D01*
X0384501Y0080446D01*
X0384901Y0080846D01*
X0385215Y0081315D01*
X0385431Y0081837D01*
X0385541Y0082391D01*
X0385541Y0082673D01*
X0382674Y0082673D01*
X0382674Y0082673D01*
X0382674Y0082673D01*
X0382674Y0079806D01*
X0382391Y0079806D01*
X0381838Y0079916D01*
X0381316Y0080133D01*
X0380846Y0080446D01*
X0380447Y0080846D01*
X0380133Y0081315D01*
X0379917Y0081837D01*
X0379807Y0082391D01*
X0379807Y0082673D01*
X0382674Y0082673D01*
X0385541Y0082673D01*
X0385541Y0082956D01*
X0385431Y0083509D01*
X0385215Y0084031D01*
X0384901Y0084501D01*
X0384501Y0084900D01*
X0382674Y0084746D02*
X0382674Y0084746D01*
X0382674Y0085540D02*
X0382391Y0085540D01*
X0381838Y0085430D01*
X0381316Y0085214D01*
X0380846Y0084900D01*
X0380447Y0084501D01*
X0380133Y0084031D01*
X0379917Y0083509D01*
X0379807Y0082956D01*
X0379807Y0082673D01*
X0382674Y0082673D01*
X0382674Y0082673D01*
X0382674Y0082673D01*
X0382674Y0085540D01*
X0380692Y0084746D02*
X0242923Y0084746D01*
X0242769Y0084900D02*
X0242300Y0085214D01*
X0241778Y0085430D01*
X0241224Y0085540D01*
X0240942Y0085540D01*
X0240942Y0082673D01*
X0240942Y0082673D01*
X0243809Y0082673D01*
X0243809Y0082391D01*
X0243698Y0081837D01*
X0243482Y0081315D01*
X0243168Y0080846D01*
X0242769Y0080446D01*
X0242300Y0080133D01*
X0241778Y0079916D01*
X0241224Y0079806D01*
X0240942Y0079806D01*
X0240942Y0082673D01*
X0240942Y0082673D01*
X0243809Y0082673D01*
X0243809Y0082956D01*
X0243698Y0083509D01*
X0243482Y0084031D01*
X0243168Y0084501D01*
X0242769Y0084900D01*
X0240942Y0084746D02*
X0240942Y0084746D01*
X0240942Y0085540D02*
X0240659Y0085540D01*
X0240105Y0085430D01*
X0239584Y0085214D01*
X0239114Y0084900D01*
X0238715Y0084501D01*
X0238401Y0084031D01*
X0238185Y0083509D01*
X0238075Y0082956D01*
X0238075Y0082673D01*
X0238075Y0082391D01*
X0238185Y0081837D01*
X0238401Y0081315D01*
X0238715Y0080846D01*
X0239114Y0080446D01*
X0239584Y0080133D01*
X0240105Y0079916D01*
X0240659Y0079806D01*
X0240942Y0079806D01*
X0240942Y0082673D01*
X0240942Y0082673D01*
X0240941Y0082673D02*
X0238075Y0082673D01*
X0240941Y0082673D01*
X0240941Y0082673D01*
X0240942Y0082673D02*
X0240942Y0085540D01*
X0238960Y0084746D02*
X0195701Y0084746D01*
X0196221Y0083147D02*
X0238113Y0083147D01*
X0238304Y0081549D02*
X0196945Y0081549D01*
X0198106Y0079950D02*
X0240023Y0079950D01*
X0240942Y0079950D02*
X0240942Y0079950D01*
X0241860Y0079950D02*
X0381756Y0079950D01*
X0382674Y0079950D02*
X0382674Y0079950D01*
X0383592Y0079950D02*
X0404023Y0079950D01*
X0403669Y0081549D02*
X0385311Y0081549D01*
X0385503Y0083147D02*
X0403669Y0083147D01*
X0418529Y0079950D02*
X0425509Y0079950D01*
X0426671Y0081549D02*
X0418883Y0081549D01*
X0418883Y0083147D02*
X0427395Y0083147D01*
X0427914Y0084746D02*
X0418883Y0084746D01*
X0418883Y0086344D02*
X0428113Y0086344D01*
X0428134Y0087943D02*
X0418883Y0087943D01*
X0418883Y0089541D02*
X0428134Y0089541D01*
X0428134Y0091140D02*
X0418883Y0091140D01*
X0418883Y0092738D02*
X0428134Y0092738D01*
X0428134Y0094337D02*
X0418883Y0094337D01*
X0418883Y0095935D02*
X0428134Y0095935D01*
X0428134Y0097534D02*
X0418399Y0097534D01*
X0428134Y0099133D02*
X0252883Y0099133D01*
X0252202Y0100731D02*
X0428134Y0100731D01*
X0423589Y0078352D02*
X0200027Y0078352D01*
X0203797Y0076753D02*
X0419818Y0076753D01*
X0382674Y0081549D02*
X0382674Y0081549D01*
X0382674Y0083147D02*
X0382674Y0083147D01*
X0379845Y0083147D02*
X0243770Y0083147D01*
X0243579Y0081549D02*
X0380036Y0081549D01*
X0240942Y0081549D02*
X0240942Y0081549D01*
X0240942Y0083147D02*
X0240942Y0083147D01*
X0351183Y0180657D02*
X0428134Y0180657D01*
X0428134Y0182255D02*
X0351183Y0182255D01*
X0351183Y0183854D02*
X0428134Y0183854D01*
X0428134Y0185452D02*
X0351183Y0185452D01*
X0351183Y0187051D02*
X0428134Y0187051D01*
X0428134Y0188649D02*
X0351183Y0188649D01*
X0351183Y0190248D02*
X0428134Y0190248D01*
X0428134Y0191846D02*
X0351183Y0191846D01*
X0351183Y0193445D02*
X0428134Y0193445D01*
X0428134Y0195043D02*
X0351023Y0195043D01*
X0348779Y0196642D02*
X0428134Y0196642D01*
X0428134Y0198240D02*
X0346983Y0198240D01*
X0346983Y0199839D02*
X0428134Y0199839D01*
X0428134Y0201437D02*
X0346983Y0201437D01*
X0346983Y0203036D02*
X0428134Y0203036D01*
X0428134Y0204634D02*
X0423566Y0204634D01*
X0423487Y0204602D02*
X0424802Y0205146D01*
X0425807Y0206152D01*
X0426352Y0207466D01*
X0426352Y0208888D01*
X0425807Y0210203D01*
X0424802Y0211208D01*
X0423487Y0211753D01*
X0422065Y0211753D01*
X0420751Y0211208D01*
X0419745Y0210203D01*
X0419201Y0208888D01*
X0419201Y0207466D01*
X0419745Y0206152D01*
X0420751Y0205146D01*
X0422065Y0204602D01*
X0423487Y0204602D01*
X0421986Y0204634D02*
X0346983Y0204634D01*
X0346983Y0206233D02*
X0419711Y0206233D01*
X0419201Y0207831D02*
X0346983Y0207831D01*
X0346983Y0209430D02*
X0419425Y0209430D01*
X0420571Y0211028D02*
X0346983Y0211028D01*
X0346983Y0212627D02*
X0430669Y0212627D01*
X0431830Y0214225D02*
X0346983Y0214225D01*
X0346983Y0215824D02*
X0433882Y0215824D01*
X0436826Y0217422D02*
X0346983Y0217422D01*
X0346983Y0219021D02*
X0689182Y0219021D01*
X0692042Y0220619D02*
X0346983Y0220619D01*
X0344437Y0227013D02*
X0222105Y0227013D01*
X0222767Y0228612D02*
X0343775Y0228612D01*
X0343691Y0230210D02*
X0222850Y0230210D01*
X0222682Y0231809D02*
X0343860Y0231809D01*
X0335830Y0251284D02*
X0335830Y0252281D01*
X0334839Y0254674D01*
X0333742Y0255770D01*
X0376966Y0255770D01*
X0376839Y0255718D01*
X0376370Y0255404D01*
X0375971Y0255005D01*
X0375657Y0254535D01*
X0375441Y0254013D01*
X0375331Y0253460D01*
X0375331Y0253177D01*
X0375331Y0252895D01*
X0375441Y0252341D01*
X0375657Y0251819D01*
X0375971Y0251350D01*
X0376036Y0251284D01*
X0335830Y0251284D01*
X0335702Y0252590D02*
X0375391Y0252590D01*
X0375331Y0253177D02*
X0378197Y0253177D01*
X0378197Y0253177D01*
X0375331Y0253177D01*
X0375513Y0254188D02*
X0335040Y0254188D01*
X0324900Y0255770D02*
X0323803Y0254674D01*
X0322812Y0252281D01*
X0322812Y0251284D01*
X0252737Y0251284D01*
X0252802Y0251350D01*
X0253116Y0251819D01*
X0253332Y0252341D01*
X0253442Y0252895D01*
X0253442Y0253177D01*
X0250576Y0253177D01*
X0250576Y0253177D01*
X0253442Y0253177D01*
X0253442Y0253460D01*
X0253332Y0254013D01*
X0253116Y0254535D01*
X0252802Y0255005D01*
X0252403Y0255404D01*
X0251933Y0255718D01*
X0251807Y0255770D01*
X0324900Y0255770D01*
X0323602Y0254188D02*
X0253260Y0254188D01*
X0253382Y0252590D02*
X0322940Y0252590D01*
X0378198Y0253177D02*
X0381064Y0253177D01*
X0378198Y0253177D01*
X0378198Y0253177D01*
X0381064Y0253177D02*
X0381064Y0253460D01*
X0380954Y0254013D01*
X0380738Y0254535D01*
X0380424Y0255005D01*
X0380025Y0255404D01*
X0379555Y0255718D01*
X0379429Y0255770D01*
X0458758Y0255770D01*
X0457661Y0254674D01*
X0456671Y0252281D01*
X0456671Y0251284D01*
X0380359Y0251284D01*
X0380424Y0251350D01*
X0380738Y0251819D01*
X0380954Y0252341D01*
X0381064Y0252895D01*
X0381064Y0253177D01*
X0381004Y0252590D02*
X0456798Y0252590D01*
X0457460Y0254188D02*
X0380882Y0254188D01*
X0410438Y0287757D02*
X0536019Y0287757D01*
X0536019Y0289355D02*
X0411560Y0289355D01*
X0411579Y0290954D02*
X0536019Y0290954D01*
X0536019Y0292552D02*
X0410483Y0292552D01*
X0452890Y0334114D02*
X0085896Y0334114D01*
X0085802Y0334208D02*
X0084487Y0334753D01*
X0083065Y0334753D01*
X0081751Y0334208D01*
X0080745Y0333203D01*
X0080201Y0331888D01*
X0080201Y0330466D01*
X0080745Y0329152D01*
X0081751Y0328146D01*
X0083065Y0327602D01*
X0084487Y0327602D01*
X0085802Y0328146D01*
X0086807Y0329152D01*
X0087352Y0330466D01*
X0087352Y0331888D01*
X0086807Y0333203D01*
X0085802Y0334208D01*
X0087092Y0332515D02*
X0209710Y0332515D01*
X0208112Y0330917D02*
X0087352Y0330917D01*
X0086876Y0329318D02*
X0141655Y0329318D01*
X0140396Y0327720D02*
X0084772Y0327720D01*
X0082780Y0327720D02*
X0049812Y0327720D01*
X0049858Y0329318D02*
X0080676Y0329318D01*
X0080201Y0330917D02*
X0050135Y0330917D01*
X0050654Y0332515D02*
X0080460Y0332515D01*
X0081656Y0334114D02*
X0051505Y0334114D01*
X0052666Y0335712D02*
X0453288Y0335712D01*
X0452663Y0337311D02*
X0054792Y0337311D01*
X0049812Y0326121D02*
X0140369Y0326121D01*
X0140369Y0324523D02*
X0049812Y0324523D01*
X0049812Y0322924D02*
X0140369Y0322924D01*
X0140369Y0321326D02*
X0049812Y0321326D01*
X0049812Y0319727D02*
X0140369Y0319727D01*
X0140369Y0318129D02*
X0049812Y0318129D01*
X0049812Y0316530D02*
X0140369Y0316530D01*
X0140369Y0314932D02*
X0049812Y0314932D01*
X0049812Y0313333D02*
X0140369Y0313333D01*
X0140369Y0311735D02*
X0049812Y0311735D01*
X0049812Y0310136D02*
X0140602Y0310136D01*
X0142776Y0311735D02*
X0146323Y0311735D01*
X0146503Y0311642D02*
X0147190Y0311419D01*
X0147903Y0311306D01*
X0148064Y0311306D01*
X0148064Y0318694D01*
X0143677Y0318694D01*
X0143677Y0315533D01*
X0143790Y0314819D01*
X0144013Y0314133D01*
X0144341Y0313489D01*
X0144765Y0312905D01*
X0145276Y0312395D01*
X0145860Y0311970D01*
X0146503Y0311642D01*
X0148064Y0311735D02*
X0148464Y0311735D01*
X0148464Y0311306D02*
X0148625Y0311306D01*
X0149339Y0311419D01*
X0150025Y0311642D01*
X0150669Y0311970D01*
X0151253Y0312395D01*
X0151763Y0312905D01*
X0152188Y0313489D01*
X0152516Y0314133D01*
X0152739Y0314819D01*
X0152852Y0315533D01*
X0152852Y0318694D01*
X0148465Y0318694D01*
X0148465Y0319094D01*
X0152852Y0319094D01*
X0152852Y0322255D01*
X0152739Y0322968D01*
X0152516Y0323655D01*
X0152188Y0324298D01*
X0151763Y0324882D01*
X0151253Y0325393D01*
X0150669Y0325817D01*
X0150025Y0326145D01*
X0149339Y0326368D01*
X0148625Y0326481D01*
X0148464Y0326481D01*
X0148464Y0319094D01*
X0148064Y0319094D01*
X0148064Y0318694D01*
X0148464Y0318694D01*
X0148464Y0311306D01*
X0150206Y0311735D02*
X0156267Y0311735D01*
X0155655Y0311988D02*
X0157348Y0311287D01*
X0159181Y0311287D01*
X0160874Y0311988D01*
X0162170Y0313284D01*
X0162872Y0314977D01*
X0162872Y0322810D01*
X0162170Y0324503D01*
X0160874Y0325799D01*
X0159181Y0326501D01*
X0157348Y0326501D01*
X0155655Y0325799D01*
X0154359Y0324503D01*
X0153657Y0322810D01*
X0153657Y0314977D01*
X0154359Y0313284D01*
X0155655Y0311988D01*
X0154338Y0313333D02*
X0152074Y0313333D01*
X0152757Y0314932D02*
X0153676Y0314932D01*
X0153657Y0316530D02*
X0152852Y0316530D01*
X0152852Y0318129D02*
X0153657Y0318129D01*
X0153657Y0319727D02*
X0152852Y0319727D01*
X0152852Y0321326D02*
X0153657Y0321326D01*
X0153705Y0322924D02*
X0152746Y0322924D01*
X0152025Y0324523D02*
X0154378Y0324523D01*
X0156431Y0326121D02*
X0150072Y0326121D01*
X0148464Y0326121D02*
X0148064Y0326121D01*
X0148064Y0326481D02*
X0147903Y0326481D01*
X0147190Y0326368D01*
X0146503Y0326145D01*
X0145860Y0325817D01*
X0145276Y0325393D01*
X0144765Y0324882D01*
X0144341Y0324298D01*
X0144013Y0323655D01*
X0143790Y0322968D01*
X0143677Y0322255D01*
X0143677Y0319094D01*
X0148064Y0319094D01*
X0148064Y0326481D01*
X0146457Y0326121D02*
X0142776Y0326121D01*
X0142776Y0324523D02*
X0144504Y0324523D01*
X0143783Y0322924D02*
X0142776Y0322924D01*
X0142776Y0321326D02*
X0143677Y0321326D01*
X0143677Y0319727D02*
X0142776Y0319727D01*
X0142776Y0318129D02*
X0143677Y0318129D01*
X0143677Y0316530D02*
X0142776Y0316530D01*
X0142776Y0314932D02*
X0143772Y0314932D01*
X0144455Y0313333D02*
X0142776Y0313333D01*
X0148064Y0313333D02*
X0148464Y0313333D01*
X0148464Y0314932D02*
X0148064Y0314932D01*
X0148064Y0316530D02*
X0148464Y0316530D01*
X0148464Y0318129D02*
X0148064Y0318129D01*
X0148064Y0319727D02*
X0148464Y0319727D01*
X0148464Y0321326D02*
X0148064Y0321326D01*
X0148064Y0322924D02*
X0148464Y0322924D01*
X0148464Y0324523D02*
X0148064Y0324523D01*
X0160097Y0326121D02*
X0166431Y0326121D01*
X0165655Y0325799D02*
X0164359Y0324503D01*
X0163657Y0322810D01*
X0163657Y0314977D01*
X0164359Y0313284D01*
X0165655Y0311988D01*
X0167348Y0311287D01*
X0169181Y0311287D01*
X0170874Y0311988D01*
X0172170Y0313284D01*
X0172872Y0314977D01*
X0172872Y0322810D01*
X0172170Y0324503D01*
X0170874Y0325799D01*
X0169181Y0326501D01*
X0167348Y0326501D01*
X0165655Y0325799D01*
X0164378Y0324523D02*
X0162151Y0324523D01*
X0162824Y0322924D02*
X0163705Y0322924D01*
X0163657Y0321326D02*
X0162872Y0321326D01*
X0162872Y0319727D02*
X0163657Y0319727D01*
X0163657Y0318129D02*
X0162872Y0318129D01*
X0162872Y0316530D02*
X0163657Y0316530D01*
X0163676Y0314932D02*
X0162853Y0314932D01*
X0162190Y0313333D02*
X0164338Y0313333D01*
X0166267Y0311735D02*
X0160262Y0311735D01*
X0170262Y0311735D02*
X0181756Y0311735D01*
X0181937Y0311642D02*
X0182623Y0311419D01*
X0183336Y0311306D01*
X0183497Y0311306D01*
X0183497Y0318694D01*
X0179110Y0318694D01*
X0179110Y0315533D01*
X0179223Y0314819D01*
X0179446Y0314133D01*
X0179774Y0313489D01*
X0180198Y0312905D01*
X0180709Y0312395D01*
X0181293Y0311970D01*
X0181937Y0311642D01*
X0183497Y0311735D02*
X0183898Y0311735D01*
X0183898Y0311306D02*
X0184059Y0311306D01*
X0184772Y0311419D01*
X0185458Y0311642D01*
X0186102Y0311970D01*
X0186686Y0312395D01*
X0187197Y0312905D01*
X0187621Y0313489D01*
X0187949Y0314133D01*
X0188172Y0314819D01*
X0188285Y0315533D01*
X0188285Y0318694D01*
X0183898Y0318694D01*
X0183898Y0319094D01*
X0188285Y0319094D01*
X0188285Y0322255D01*
X0188172Y0322968D01*
X0187949Y0323655D01*
X0187621Y0324298D01*
X0187197Y0324882D01*
X0186686Y0325393D01*
X0186102Y0325817D01*
X0185458Y0326145D01*
X0184772Y0326368D01*
X0184059Y0326481D01*
X0183898Y0326481D01*
X0183898Y0319094D01*
X0183497Y0319094D01*
X0183497Y0318694D01*
X0183898Y0318694D01*
X0183898Y0311306D01*
X0185639Y0311735D02*
X0191700Y0311735D01*
X0191088Y0311988D02*
X0192781Y0311287D01*
X0194614Y0311287D01*
X0196307Y0311988D01*
X0197603Y0313284D01*
X0198305Y0314977D01*
X0198305Y0322810D01*
X0197603Y0324503D01*
X0196307Y0325799D01*
X0194614Y0326501D01*
X0192781Y0326501D01*
X0191088Y0325799D01*
X0189792Y0324503D01*
X0189090Y0322810D01*
X0189090Y0314977D01*
X0189792Y0313284D01*
X0191088Y0311988D01*
X0189771Y0313333D02*
X0187507Y0313333D01*
X0188190Y0314932D02*
X0189109Y0314932D01*
X0189090Y0316530D02*
X0188285Y0316530D01*
X0188285Y0318129D02*
X0189090Y0318129D01*
X0189090Y0319727D02*
X0188285Y0319727D01*
X0188285Y0321326D02*
X0189090Y0321326D01*
X0189138Y0322924D02*
X0188179Y0322924D01*
X0187458Y0324523D02*
X0189811Y0324523D01*
X0191865Y0326121D02*
X0185505Y0326121D01*
X0183898Y0326121D02*
X0183497Y0326121D01*
X0183497Y0326481D02*
X0183336Y0326481D01*
X0182623Y0326368D01*
X0181937Y0326145D01*
X0181293Y0325817D01*
X0180709Y0325393D01*
X0180198Y0324882D01*
X0179774Y0324298D01*
X0179446Y0323655D01*
X0179223Y0322968D01*
X0179110Y0322255D01*
X0179110Y0319094D01*
X0183497Y0319094D01*
X0183497Y0326481D01*
X0181890Y0326121D02*
X0170097Y0326121D01*
X0172151Y0324523D02*
X0179937Y0324523D01*
X0179216Y0322924D02*
X0172824Y0322924D01*
X0172872Y0321326D02*
X0179110Y0321326D01*
X0179110Y0319727D02*
X0172872Y0319727D01*
X0172872Y0318129D02*
X0179110Y0318129D01*
X0179110Y0316530D02*
X0172872Y0316530D01*
X0172853Y0314932D02*
X0179205Y0314932D01*
X0179888Y0313333D02*
X0172190Y0313333D01*
X0183497Y0313333D02*
X0183898Y0313333D01*
X0183898Y0314932D02*
X0183497Y0314932D01*
X0183497Y0316530D02*
X0183898Y0316530D01*
X0183898Y0318129D02*
X0183497Y0318129D01*
X0183497Y0319727D02*
X0183898Y0319727D01*
X0183898Y0321326D02*
X0183497Y0321326D01*
X0183497Y0322924D02*
X0183898Y0322924D01*
X0183898Y0324523D02*
X0183497Y0324523D01*
X0195530Y0326121D02*
X0201865Y0326121D01*
X0199811Y0324523D02*
X0197584Y0324523D01*
X0198257Y0322924D02*
X0199138Y0322924D01*
X0199090Y0321326D02*
X0198305Y0321326D01*
X0198305Y0319727D02*
X0199090Y0319727D01*
X0199090Y0318129D02*
X0198305Y0318129D01*
X0198305Y0316530D02*
X0199090Y0316530D01*
X0199109Y0314932D02*
X0198286Y0314932D01*
X0197623Y0313333D02*
X0199771Y0313333D01*
X0201700Y0311735D02*
X0195695Y0311735D01*
X0199884Y0255770D02*
X0249344Y0255770D01*
X0249217Y0255718D01*
X0248748Y0255404D01*
X0248349Y0255005D01*
X0248035Y0254535D01*
X0247819Y0254013D01*
X0247709Y0253460D01*
X0247709Y0253177D01*
X0247709Y0252895D01*
X0247819Y0252341D01*
X0248035Y0251819D01*
X0248349Y0251350D01*
X0248414Y0251284D01*
X0201971Y0251284D01*
X0201971Y0252281D01*
X0200980Y0254674D01*
X0199884Y0255770D01*
X0201182Y0254188D02*
X0247891Y0254188D01*
X0247709Y0253177D02*
X0250575Y0253177D01*
X0247709Y0253177D01*
X0247769Y0252590D02*
X0201844Y0252590D01*
X0250575Y0253177D02*
X0250575Y0253177D01*
X0261609Y0198038D02*
X0260863Y0197795D01*
X0260165Y0197439D01*
X0259530Y0196978D01*
X0258975Y0196423D01*
X0258514Y0195789D01*
X0258158Y0195090D01*
X0257916Y0194344D01*
X0257793Y0193569D01*
X0257793Y0193509D01*
X0262444Y0193509D01*
X0262444Y0198160D01*
X0262384Y0198160D01*
X0261609Y0198038D01*
X0262444Y0196642D02*
X0263108Y0196642D01*
X0263108Y0195043D02*
X0262444Y0195043D01*
X0262444Y0193445D02*
X0257779Y0193445D01*
X0257640Y0191846D02*
X0257969Y0191846D01*
X0258745Y0190248D02*
X0256922Y0190248D01*
X0254917Y0188649D02*
X0260687Y0188649D01*
X0262444Y0188649D02*
X0263108Y0188649D01*
X0263108Y0190248D02*
X0262444Y0190248D01*
X0262444Y0191846D02*
X0263108Y0191846D01*
X0264866Y0188649D02*
X0266369Y0188649D01*
X0274917Y0188649D02*
X0278268Y0188649D01*
X0277793Y0190248D02*
X0276922Y0190248D01*
X0277640Y0191846D02*
X0277793Y0191846D01*
X0277779Y0193445D02*
X0282444Y0193445D01*
X0283108Y0193445D02*
X0308773Y0193445D01*
X0308913Y0191846D02*
X0287759Y0191846D01*
X0287759Y0190248D02*
X0309631Y0190248D01*
X0311635Y0188649D02*
X0287284Y0188649D01*
X0283108Y0188649D02*
X0282444Y0188649D01*
X0282444Y0190248D02*
X0283108Y0190248D01*
X0283108Y0191846D02*
X0282444Y0191846D01*
X0277773Y0196642D02*
X0276387Y0196642D01*
X0269166Y0196642D02*
X0266359Y0196642D01*
X0259194Y0196642D02*
X0256387Y0196642D01*
X0257418Y0195043D02*
X0258143Y0195043D01*
X0287779Y0196642D02*
X0310166Y0196642D01*
X0317387Y0196642D02*
X0320194Y0196642D01*
X0323444Y0196642D02*
X0324108Y0196642D01*
X0327359Y0196642D02*
X0330166Y0196642D01*
X0328913Y0191846D02*
X0328640Y0191846D01*
X0327922Y0190248D02*
X0329631Y0190248D01*
X0331635Y0188649D02*
X0325917Y0188649D01*
X0321635Y0188649D02*
X0315917Y0188649D01*
X0317922Y0190248D02*
X0319631Y0190248D01*
X0318913Y0191846D02*
X0318640Y0191846D01*
X0335917Y0188649D02*
X0339268Y0188649D01*
X0338793Y0190248D02*
X0337922Y0190248D01*
X0338640Y0191846D02*
X0338793Y0191846D01*
X0343444Y0191846D02*
X0344108Y0191846D01*
X0344108Y0190248D02*
X0343444Y0190248D01*
X0343444Y0188649D02*
X0344108Y0188649D01*
X0425841Y0206233D02*
X0428134Y0206233D01*
X0428445Y0207831D02*
X0426352Y0207831D01*
X0426128Y0209430D02*
X0428964Y0209430D01*
X0429465Y0210970D02*
X0429465Y0210970D01*
X0429507Y0211028D02*
X0424982Y0211028D01*
X0531967Y0274969D02*
X0550164Y0274969D01*
X0548019Y0276567D02*
X0545487Y0276567D01*
X0545514Y0278166D02*
X0548019Y0278166D01*
X0548019Y0279764D02*
X0545514Y0279764D01*
X0545514Y0281363D02*
X0548019Y0281363D01*
X0552776Y0279177D02*
X0557776Y0279177D01*
X0560169Y0278166D02*
X0575765Y0278166D01*
X0541126Y0278166D02*
X0540426Y0278166D01*
X0540426Y0276567D02*
X0541126Y0276567D01*
X0536066Y0276567D02*
X0533173Y0276567D01*
X0489876Y0321326D02*
X0489676Y0321326D01*
X0489676Y0322924D02*
X0489876Y0322924D01*
X0489876Y0324523D02*
X0489676Y0324523D01*
X0489676Y0325277D02*
X0485039Y0325277D01*
X0485039Y0327139D01*
X0487814Y0329915D01*
X0489676Y0329915D01*
X0489676Y0325277D01*
X0489676Y0326121D02*
X0489876Y0326121D01*
X0489876Y0327720D02*
X0489676Y0327720D01*
X0489676Y0329318D02*
X0489876Y0329318D01*
X0492335Y0329318D02*
X0544553Y0329318D01*
X0580371Y0327720D02*
X0493933Y0327720D01*
X0487218Y0329318D02*
X0479363Y0329318D01*
X0480961Y0327720D02*
X0485619Y0327720D01*
X0485039Y0326121D02*
X0481533Y0326121D01*
X0481533Y0324523D02*
X0485039Y0324523D01*
X0485330Y0322924D02*
X0481251Y0322924D01*
X0479652Y0321326D02*
X0486928Y0321326D01*
X0465939Y0338909D02*
X0460024Y0338909D01*
X0437955Y0362887D02*
X0319519Y0362887D01*
X0317776Y0355177D02*
X0350776Y0355177D01*
X0354776Y0351177D01*
X0354776Y0347177D01*
X0326776Y0329318D02*
X0326776Y0329318D01*
X0326776Y0327720D02*
X0326776Y0327720D01*
X0326776Y0326121D02*
X0326776Y0326121D01*
X0326776Y0324523D02*
X0326776Y0324523D01*
X0583181Y0327720D02*
X0585369Y0327720D01*
X0585369Y0326121D02*
X0584510Y0326121D01*
X0584630Y0324523D02*
X0585369Y0324523D01*
X0585369Y0322924D02*
X0584183Y0322924D01*
X0584183Y0321326D02*
X0585369Y0321326D01*
X0585369Y0319727D02*
X0584630Y0319727D01*
X0689974Y0329318D02*
X0695804Y0329318D01*
X0695528Y0330917D02*
X0691124Y0330917D01*
X0691352Y0332515D02*
X0695009Y0332515D01*
X0694158Y0334114D02*
X0690844Y0334114D01*
D20*
X0586776Y0332177D03*
X0581776Y0325177D03*
X0584776Y0314177D03*
X0585182Y0299583D03*
X0560776Y0290177D03*
X0546776Y0291177D03*
X0546776Y0285177D03*
X0540776Y0285177D03*
X0558776Y0313177D03*
X0546776Y0331177D03*
X0455776Y0334177D03*
X0426776Y0324177D03*
X0405776Y0308177D03*
X0403776Y0296177D03*
X0408776Y0290177D03*
X0374776Y0296177D03*
X0340776Y0314177D03*
X0331493Y0302177D03*
X0354776Y0320177D03*
X0326776Y0324177D03*
X0326776Y0328177D03*
X0354776Y0347177D03*
X0317776Y0355177D03*
X0394776Y0347177D03*
X0402776Y0347177D03*
X0394776Y0328177D03*
X0378198Y0253177D03*
X0343776Y0222177D03*
X0323776Y0201177D03*
X0262776Y0201177D03*
X0250575Y0253177D03*
X0238776Y0306177D03*
X0220776Y0320177D03*
X0528343Y0228343D03*
X0595272Y0228343D03*
X0382674Y0082673D03*
X0240942Y0082673D03*
D21*
X0242915Y0089177D02*
X0235938Y0089177D01*
X0236045Y0089206D01*
X0236338Y0089375D01*
X0236578Y0089615D01*
X0236748Y0089909D01*
X0236835Y0090236D01*
X0236835Y0092087D01*
X0233867Y0092087D01*
X0233867Y0092268D01*
X0233686Y0092268D01*
X0233686Y0095236D01*
X0233686Y0096087D01*
X0230717Y0096087D01*
X0229867Y0096087D01*
X0229867Y0096268D01*
X0233686Y0096268D01*
X0233686Y0096087D01*
X0233867Y0096087D01*
X0233867Y0096268D01*
X0236835Y0096268D01*
X0236835Y0098118D01*
X0236748Y0098446D01*
X0236578Y0098739D01*
X0236338Y0098979D01*
X0236045Y0099148D01*
X0235938Y0099177D01*
X0250776Y0099177D01*
X0250776Y0096177D01*
X0416776Y0096177D01*
X0416776Y0081177D01*
X0411791Y0081177D01*
X0412368Y0081269D01*
X0413091Y0081504D01*
X0413769Y0081849D01*
X0414384Y0082296D01*
X0414922Y0082833D01*
X0415368Y0083448D01*
X0415714Y0084126D01*
X0415949Y0084849D01*
X0416049Y0085480D01*
X0411737Y0085480D01*
X0411737Y0086480D01*
X0416049Y0086480D01*
X0415949Y0087112D01*
X0415714Y0087835D01*
X0415368Y0088512D01*
X0414922Y0089127D01*
X0414384Y0089665D01*
X0413769Y0090112D01*
X0413091Y0090457D01*
X0412368Y0090692D01*
X0411737Y0090792D01*
X0411737Y0086480D01*
X0410737Y0086480D01*
X0410737Y0085480D01*
X0406425Y0085480D01*
X0406525Y0084849D01*
X0406760Y0084126D01*
X0407105Y0083448D01*
X0407552Y0082833D01*
X0408090Y0082296D01*
X0408705Y0081849D01*
X0409383Y0081504D01*
X0410106Y0081269D01*
X0410683Y0081177D01*
X0405776Y0081177D01*
X0405776Y0089177D01*
X0246842Y0089177D01*
X0247410Y0089467D01*
X0248026Y0089914D01*
X0248563Y0090451D01*
X0249010Y0091067D01*
X0249355Y0091744D01*
X0249590Y0092467D01*
X0249690Y0093098D01*
X0245379Y0093098D01*
X0245379Y0094098D01*
X0249690Y0094098D01*
X0249590Y0094730D01*
X0249355Y0095453D01*
X0249010Y0096130D01*
X0248563Y0096745D01*
X0248026Y0097283D01*
X0247410Y0097730D01*
X0246733Y0098075D01*
X0246010Y0098310D01*
X0245379Y0098410D01*
X0245379Y0094098D01*
X0244379Y0094098D01*
X0244379Y0093098D01*
X0240067Y0093098D01*
X0240167Y0092467D01*
X0240402Y0091744D01*
X0240747Y0091067D01*
X0241194Y0090451D01*
X0241732Y0089914D01*
X0242347Y0089467D01*
X0242915Y0089177D01*
X0241526Y0090119D02*
X0236804Y0090119D01*
X0236835Y0091118D02*
X0240721Y0091118D01*
X0240281Y0092116D02*
X0233867Y0092116D01*
X0233867Y0092268D02*
X0236835Y0092268D01*
X0236835Y0094118D01*
X0236820Y0094177D01*
X0236835Y0094236D01*
X0236835Y0096087D01*
X0233867Y0096087D01*
X0233867Y0092268D01*
X0233686Y0092268D02*
X0233686Y0092087D01*
X0230717Y0092087D01*
X0229867Y0092087D01*
X0229867Y0092268D01*
X0229867Y0093118D01*
X0229867Y0096087D01*
X0229686Y0096087D01*
X0229686Y0092268D01*
X0229867Y0092268D01*
X0233686Y0092268D01*
X0233686Y0092116D02*
X0229867Y0092116D01*
X0229867Y0093115D02*
X0229686Y0093115D01*
X0229686Y0094113D02*
X0229867Y0094113D01*
X0229867Y0095112D02*
X0229686Y0095112D01*
X0229867Y0096110D02*
X0233686Y0096110D01*
X0233867Y0096110D02*
X0240737Y0096110D01*
X0240747Y0096130D02*
X0240402Y0095453D01*
X0240167Y0094730D01*
X0240067Y0094098D01*
X0244379Y0094098D01*
X0244379Y0098410D01*
X0243747Y0098310D01*
X0243024Y0098075D01*
X0242347Y0097730D01*
X0241732Y0097283D01*
X0241194Y0096745D01*
X0240747Y0096130D01*
X0240291Y0095112D02*
X0236835Y0095112D01*
X0236835Y0094113D02*
X0240069Y0094113D01*
X0241557Y0097109D02*
X0236835Y0097109D01*
X0236835Y0098107D02*
X0243123Y0098107D01*
X0244379Y0098107D02*
X0245379Y0098107D01*
X0245379Y0097109D02*
X0244379Y0097109D01*
X0244379Y0096110D02*
X0245379Y0096110D01*
X0245379Y0095112D02*
X0244379Y0095112D01*
X0244379Y0094113D02*
X0245379Y0094113D01*
X0245379Y0093115D02*
X0416776Y0093115D01*
X0416776Y0094113D02*
X0249688Y0094113D01*
X0249466Y0095112D02*
X0416776Y0095112D01*
X0416776Y0096110D02*
X0249020Y0096110D01*
X0248200Y0097109D02*
X0250776Y0097109D01*
X0250776Y0098107D02*
X0246634Y0098107D01*
X0250776Y0099106D02*
X0236119Y0099106D01*
X0233867Y0095112D02*
X0233686Y0095112D01*
X0233686Y0094113D02*
X0233867Y0094113D01*
X0233867Y0093115D02*
X0233686Y0093115D01*
X0236835Y0093115D02*
X0244379Y0093115D01*
X0248231Y0090119D02*
X0408719Y0090119D01*
X0408705Y0090112D02*
X0408090Y0089665D01*
X0407552Y0089127D01*
X0407105Y0088512D01*
X0406760Y0087835D01*
X0406525Y0087112D01*
X0406425Y0086480D01*
X0410737Y0086480D01*
X0410737Y0090792D01*
X0410106Y0090692D01*
X0409383Y0090457D01*
X0408705Y0090112D01*
X0407547Y0089121D02*
X0405776Y0089121D01*
X0405776Y0088122D02*
X0406907Y0088122D01*
X0406529Y0087124D02*
X0405776Y0087124D01*
X0405776Y0086125D02*
X0410737Y0086125D01*
X0410737Y0087124D02*
X0411737Y0087124D01*
X0411737Y0088122D02*
X0410737Y0088122D01*
X0410737Y0089121D02*
X0411737Y0089121D01*
X0411737Y0090119D02*
X0410737Y0090119D01*
X0413755Y0090119D02*
X0416776Y0090119D01*
X0416776Y0089121D02*
X0414926Y0089121D01*
X0415567Y0088122D02*
X0416776Y0088122D01*
X0416776Y0087124D02*
X0415945Y0087124D01*
X0416776Y0086125D02*
X0411737Y0086125D01*
X0415993Y0085127D02*
X0416776Y0085127D01*
X0416776Y0084128D02*
X0415714Y0084128D01*
X0415137Y0083130D02*
X0416776Y0083130D01*
X0416776Y0082131D02*
X0414157Y0082131D01*
X0408316Y0082131D02*
X0405776Y0082131D01*
X0405776Y0083130D02*
X0407337Y0083130D01*
X0406759Y0084128D02*
X0405776Y0084128D01*
X0405776Y0085127D02*
X0406481Y0085127D01*
X0416776Y0091118D02*
X0249036Y0091118D01*
X0249476Y0092116D02*
X0416776Y0092116D01*
X0415079Y0108480D02*
X0418776Y0112177D01*
X0415079Y0108480D02*
X0378737Y0108480D01*
X0376434Y0106177D01*
X0251776Y0106177D01*
X0249473Y0108480D01*
X0244879Y0108480D01*
X0208473Y0108480D01*
X0201776Y0115177D01*
X0201776Y0127878D01*
X0202379Y0128480D01*
X0232379Y0115980D02*
X0245973Y0115980D01*
X0252776Y0109177D01*
X0368776Y0109177D01*
X0374776Y0115177D01*
X0390434Y0115177D01*
X0391237Y0115980D01*
X0366237Y0115980D02*
X0257379Y0115980D01*
X0259879Y0130980D02*
X0363737Y0130980D01*
X0354911Y0234177D02*
X0353717Y0235371D01*
X0351435Y0236316D01*
X0348965Y0236316D01*
X0346683Y0235371D01*
X0345489Y0234177D01*
X0221053Y0234177D01*
X0219859Y0235371D01*
X0217577Y0236316D01*
X0215107Y0236316D01*
X0212825Y0235371D01*
X0211631Y0234177D01*
X0135776Y0234177D01*
X0135776Y0249177D01*
X0189492Y0249177D01*
X0190199Y0247470D01*
X0191946Y0245723D01*
X0194228Y0244778D01*
X0196698Y0244778D01*
X0198980Y0245723D01*
X0200726Y0247470D01*
X0201433Y0249177D01*
X0323350Y0249177D01*
X0324057Y0247470D01*
X0325804Y0245723D01*
X0328086Y0244778D01*
X0330556Y0244778D01*
X0332838Y0245723D01*
X0334584Y0247470D01*
X0335292Y0249177D01*
X0457209Y0249177D01*
X0457916Y0247470D01*
X0459662Y0245723D01*
X0461944Y0244778D01*
X0464414Y0244778D01*
X0466696Y0245723D01*
X0468443Y0247470D01*
X0469150Y0249177D01*
X0591067Y0249177D01*
X0591774Y0247470D01*
X0593521Y0245723D01*
X0595802Y0244778D01*
X0598272Y0244778D01*
X0600554Y0245723D01*
X0602301Y0247470D01*
X0603008Y0249177D01*
X0685839Y0249177D01*
X0685839Y0234177D01*
X0622627Y0234177D01*
X0621434Y0235371D01*
X0619152Y0236316D01*
X0616682Y0236316D01*
X0614400Y0235371D01*
X0613206Y0234177D01*
X0488769Y0234177D01*
X0487575Y0235371D01*
X0485293Y0236316D01*
X0482823Y0236316D01*
X0480541Y0235371D01*
X0479347Y0234177D01*
X0354911Y0234177D01*
X0354185Y0234903D02*
X0480074Y0234903D01*
X0481823Y0235902D02*
X0352436Y0235902D01*
X0347964Y0235902D02*
X0218578Y0235902D01*
X0220327Y0234903D02*
X0346215Y0234903D01*
X0330822Y0244888D02*
X0461678Y0244888D01*
X0459499Y0245887D02*
X0333001Y0245887D01*
X0334000Y0246885D02*
X0458500Y0246885D01*
X0457744Y0247884D02*
X0334756Y0247884D01*
X0335169Y0248882D02*
X0457331Y0248882D01*
X0464680Y0244888D02*
X0595536Y0244888D01*
X0593357Y0245887D02*
X0466860Y0245887D01*
X0467858Y0246885D02*
X0592359Y0246885D01*
X0591603Y0247884D02*
X0468614Y0247884D01*
X0469028Y0248882D02*
X0591189Y0248882D01*
X0598538Y0244888D02*
X0685839Y0244888D01*
X0685839Y0243890D02*
X0135776Y0243890D01*
X0135776Y0244888D02*
X0193962Y0244888D01*
X0191782Y0245887D02*
X0135776Y0245887D01*
X0135776Y0246885D02*
X0190784Y0246885D01*
X0190028Y0247884D02*
X0135776Y0247884D01*
X0135776Y0248882D02*
X0189614Y0248882D01*
X0196964Y0244888D02*
X0327820Y0244888D01*
X0325640Y0245887D02*
X0199143Y0245887D01*
X0200142Y0246885D02*
X0324642Y0246885D01*
X0323886Y0247884D02*
X0200898Y0247884D01*
X0201311Y0248882D02*
X0323472Y0248882D01*
X0363737Y0279524D02*
X0371390Y0287177D01*
X0405776Y0287177D01*
X0408776Y0290177D01*
X0403776Y0296177D02*
X0634776Y0296177D01*
X0636776Y0294177D01*
X0636776Y0272346D01*
X0633953Y0269524D01*
X0602886Y0248882D02*
X0685839Y0248882D01*
X0685839Y0247884D02*
X0602472Y0247884D01*
X0601716Y0246885D02*
X0685839Y0246885D01*
X0685839Y0245887D02*
X0600718Y0245887D01*
X0615681Y0235902D02*
X0486294Y0235902D01*
X0488043Y0234903D02*
X0613932Y0234903D01*
X0620152Y0235902D02*
X0685839Y0235902D01*
X0685839Y0236900D02*
X0135776Y0236900D01*
X0135776Y0235902D02*
X0214106Y0235902D01*
X0212357Y0234903D02*
X0135776Y0234903D01*
X0135776Y0237899D02*
X0685839Y0237899D01*
X0685839Y0238897D02*
X0135776Y0238897D01*
X0135776Y0239896D02*
X0685839Y0239896D01*
X0685839Y0240894D02*
X0135776Y0240894D01*
X0135776Y0241893D02*
X0685839Y0241893D01*
X0685839Y0242891D02*
X0135776Y0242891D01*
X0096020Y0279524D02*
X0113674Y0297177D01*
X0342776Y0297177D01*
X0343776Y0296177D01*
X0374776Y0296177D01*
X0405776Y0308177D02*
X0240776Y0308177D01*
X0238776Y0306177D01*
X0394776Y0328177D02*
X0396776Y0326177D01*
X0423776Y0326177D01*
X0428776Y0331177D01*
X0458776Y0331177D01*
X0460776Y0333177D01*
X0544776Y0333177D01*
X0546776Y0331177D01*
X0571776Y0335177D02*
X0460776Y0335177D01*
X0437776Y0358177D01*
X0395776Y0358177D01*
X0394776Y0357177D01*
X0394776Y0347177D01*
X0402776Y0347177D02*
X0407776Y0352177D01*
X0407776Y0355177D01*
X0408776Y0356177D01*
X0436776Y0356177D01*
X0455776Y0337177D01*
X0455776Y0334177D01*
X0571776Y0335177D02*
X0572776Y0334177D01*
X0621901Y0234903D02*
X0685839Y0234903D01*
D22*
X0429776Y0260177D03*
X0425776Y0260177D03*
X0425776Y0264177D03*
X0429776Y0264177D03*
X0348776Y0324177D03*
X0345776Y0324177D03*
X0345776Y0327177D03*
X0345776Y0330177D03*
X0348776Y0330177D03*
X0348776Y0327177D03*
X0298776Y0265177D03*
X0293776Y0262177D03*
X0288776Y0259177D03*
X0283776Y0262177D03*
X0278776Y0259177D03*
X0278776Y0265177D03*
X0288776Y0265177D03*
X0298776Y0259177D03*
D23*
X0418776Y0112177D03*
D24*
X0343776Y0193177D02*
X0343776Y0222177D01*
D25*
X0233776Y0240177D03*
X0229776Y0240177D03*
X0229776Y0244177D03*
X0233776Y0244177D03*
X0233776Y0096177D03*
X0229776Y0096177D03*
X0229776Y0092177D03*
X0233776Y0092177D03*
D26*
X0572776Y0334177D03*
D27*
X0552776Y0291177D02*
X0546776Y0291177D01*
X0540776Y0291177D01*
X0546776Y0285177D02*
X0552776Y0285177D01*
M02*
