%
M48
M72
T01C0.01378
T02C0.01969
T03C0.03543
T04C0.04000
T05C0.06299
T06C0.10630
T07C0.12992
%
T01
X93454Y56131
X93454Y71721
X93965Y80580
X93965Y93650
X109713Y103808
X111682Y101052
X130934Y95973
X134123Y92784
X137233Y90028
X130973Y89635
X128611Y86091
X135304Y79202
X141918Y81682
X146052Y76839
X143965Y69950
X135225Y70146
X136485Y61682
X147076Y54438
X159792Y66485
X159989Y75304
X155540Y75225
X155383Y78217
X158906Y80580
X155225Y85501
X153414Y93965
X149635Y96367
X147076Y98532
X140894Y101052
X143178Y103808
X134123Y106564
X130934Y106485
X128217Y114910
X134123Y117194
X137548Y114910
X130934Y122194
X151446Y120343
X151485Y125225
X169202Y120304
X172312Y115304
X175107Y125265
X185698Y96721
X177036Y94359
X174280Y91209
X168414Y86682
X171564Y85698
X169556Y80580
X177824Y85698
X188060Y78217
X171918Y61682
X144871Y91209
X143572Y93965
X162469Y94359
X79792Y118375
T02
X67981Y118375
X93926Y107469
X119320Y57115
X129792Y54989
X122351Y39556
X143808Y38690
X155816Y52942
X170343Y25068
X93454Y42666
T03
X70595Y58746
X80595Y63746
X70595Y68746
X80595Y73746
X70595Y78746
X80595Y83746
X70595Y88746
X80595Y93746
X32294Y101152
X26311Y91145
X32296Y61342
X26309Y51349
T04
X90816Y125068
X98690Y125068
X106564Y125068
X114438Y125068
X122312Y125068
X199532Y96249
X209532Y96249
X209532Y86249
X199532Y86249
X199532Y76249
X209532Y76249
X209532Y66249
X199532Y66249
X199532Y56249
X209532Y56249
T05
X57603Y45242
X57603Y107250
T06
X31170Y29910
X31013Y121839
X201800Y121839
X201879Y29831
T07
X45595Y53746
X45595Y98746
M30
