G75*
%MOIN*%
%OFA0B0*%
%FSLAX25Y25*%
%IPPOS*%
%LPD*%
%AMOC8*
5,1,8,0,0,1.08239X$1,22.5*
%
%ADD10C,0.00000*%
%ADD11R,0.01181X0.03150*%
%ADD12R,0.03150X0.01181*%
%ADD13R,0.03937X0.04331*%
%ADD14C,0.05315*%
%ADD15C,0.09449*%
%ADD16R,0.04724X0.07874*%
%ADD17R,0.04331X0.03937*%
%ADD18R,0.08661X0.01969*%
%ADD19R,0.03937X0.03543*%
%ADD20OC8,0.06000*%
%ADD21R,0.07087X0.06299*%
%ADD22C,0.19685*%
%ADD23C,0.10000*%
%ADD24C,0.05000*%
%ADD25R,0.06000X0.06000*%
%ADD26C,0.06000*%
%ADD27C,0.03937*%
%ADD28R,0.03150X0.03150*%
%ADD29C,0.01602*%
%ADD30C,0.02953*%
%ADD31C,0.01606*%
%ADD32C,0.01600*%
%ADD33C,0.01200*%
%ADD34C,0.02362*%
%ADD35C,0.00700*%
%ADD36C,0.00591*%
D10*
X0029792Y0016800D02*
X0203020Y0016800D01*
X0203305Y0016803D01*
X0203591Y0016814D01*
X0203876Y0016831D01*
X0204160Y0016855D01*
X0204444Y0016886D01*
X0204727Y0016924D01*
X0205008Y0016969D01*
X0205289Y0017020D01*
X0205569Y0017078D01*
X0205847Y0017143D01*
X0206123Y0017215D01*
X0206397Y0017293D01*
X0206670Y0017378D01*
X0206940Y0017470D01*
X0207208Y0017568D01*
X0207474Y0017672D01*
X0207737Y0017783D01*
X0207997Y0017900D01*
X0208255Y0018023D01*
X0208509Y0018153D01*
X0208760Y0018289D01*
X0209008Y0018430D01*
X0209252Y0018578D01*
X0209493Y0018731D01*
X0209729Y0018891D01*
X0209962Y0019056D01*
X0210191Y0019226D01*
X0210416Y0019402D01*
X0210636Y0019584D01*
X0210852Y0019770D01*
X0211063Y0019962D01*
X0211270Y0020159D01*
X0211472Y0020361D01*
X0211669Y0020568D01*
X0211861Y0020779D01*
X0212047Y0020995D01*
X0212229Y0021215D01*
X0212405Y0021440D01*
X0212575Y0021669D01*
X0212740Y0021902D01*
X0212900Y0022138D01*
X0213053Y0022379D01*
X0213201Y0022623D01*
X0213342Y0022871D01*
X0213478Y0023122D01*
X0213608Y0023376D01*
X0213731Y0023634D01*
X0213848Y0023894D01*
X0213959Y0024157D01*
X0214063Y0024423D01*
X0214161Y0024691D01*
X0214253Y0024961D01*
X0214338Y0025234D01*
X0214416Y0025508D01*
X0214488Y0025784D01*
X0214553Y0026062D01*
X0214611Y0026342D01*
X0214662Y0026623D01*
X0214707Y0026904D01*
X0214745Y0027187D01*
X0214776Y0027471D01*
X0214800Y0027755D01*
X0214817Y0028040D01*
X0214828Y0028326D01*
X0214831Y0028611D01*
X0214831Y0123099D01*
X0214828Y0123384D01*
X0214817Y0123670D01*
X0214800Y0123955D01*
X0214776Y0124239D01*
X0214745Y0124523D01*
X0214707Y0124806D01*
X0214662Y0125087D01*
X0214611Y0125368D01*
X0214553Y0125648D01*
X0214488Y0125926D01*
X0214416Y0126202D01*
X0214338Y0126476D01*
X0214253Y0126749D01*
X0214161Y0127019D01*
X0214063Y0127287D01*
X0213959Y0127553D01*
X0213848Y0127816D01*
X0213731Y0128076D01*
X0213608Y0128334D01*
X0213478Y0128588D01*
X0213342Y0128839D01*
X0213201Y0129087D01*
X0213053Y0129331D01*
X0212900Y0129572D01*
X0212740Y0129808D01*
X0212575Y0130041D01*
X0212405Y0130270D01*
X0212229Y0130495D01*
X0212047Y0130715D01*
X0211861Y0130931D01*
X0211669Y0131142D01*
X0211472Y0131349D01*
X0211270Y0131551D01*
X0211063Y0131748D01*
X0210852Y0131940D01*
X0210636Y0132126D01*
X0210416Y0132308D01*
X0210191Y0132484D01*
X0209962Y0132654D01*
X0209729Y0132819D01*
X0209493Y0132979D01*
X0209252Y0133132D01*
X0209008Y0133280D01*
X0208760Y0133421D01*
X0208509Y0133557D01*
X0208255Y0133687D01*
X0207997Y0133810D01*
X0207737Y0133927D01*
X0207474Y0134038D01*
X0207208Y0134142D01*
X0206940Y0134240D01*
X0206670Y0134332D01*
X0206397Y0134417D01*
X0206123Y0134495D01*
X0205847Y0134567D01*
X0205569Y0134632D01*
X0205289Y0134690D01*
X0205008Y0134741D01*
X0204727Y0134786D01*
X0204444Y0134824D01*
X0204160Y0134855D01*
X0203876Y0134879D01*
X0203591Y0134896D01*
X0203305Y0134907D01*
X0203020Y0134910D01*
X0029792Y0134910D01*
X0029507Y0134907D01*
X0029221Y0134896D01*
X0028936Y0134879D01*
X0028652Y0134855D01*
X0028368Y0134824D01*
X0028085Y0134786D01*
X0027804Y0134741D01*
X0027523Y0134690D01*
X0027243Y0134632D01*
X0026965Y0134567D01*
X0026689Y0134495D01*
X0026415Y0134417D01*
X0026142Y0134332D01*
X0025872Y0134240D01*
X0025604Y0134142D01*
X0025338Y0134038D01*
X0025075Y0133927D01*
X0024815Y0133810D01*
X0024557Y0133687D01*
X0024303Y0133557D01*
X0024052Y0133421D01*
X0023804Y0133280D01*
X0023560Y0133132D01*
X0023319Y0132979D01*
X0023083Y0132819D01*
X0022850Y0132654D01*
X0022621Y0132484D01*
X0022396Y0132308D01*
X0022176Y0132126D01*
X0021960Y0131940D01*
X0021749Y0131748D01*
X0021542Y0131551D01*
X0021340Y0131349D01*
X0021143Y0131142D01*
X0020951Y0130931D01*
X0020765Y0130715D01*
X0020583Y0130495D01*
X0020407Y0130270D01*
X0020237Y0130041D01*
X0020072Y0129808D01*
X0019912Y0129572D01*
X0019759Y0129331D01*
X0019611Y0129087D01*
X0019470Y0128839D01*
X0019334Y0128588D01*
X0019204Y0128334D01*
X0019081Y0128076D01*
X0018964Y0127816D01*
X0018853Y0127553D01*
X0018749Y0127287D01*
X0018651Y0127019D01*
X0018559Y0126749D01*
X0018474Y0126476D01*
X0018396Y0126202D01*
X0018324Y0125926D01*
X0018259Y0125648D01*
X0018201Y0125368D01*
X0018150Y0125087D01*
X0018105Y0124806D01*
X0018067Y0124523D01*
X0018036Y0124239D01*
X0018012Y0123955D01*
X0017995Y0123670D01*
X0017984Y0123384D01*
X0017981Y0123099D01*
X0017981Y0028611D01*
X0017984Y0028326D01*
X0017995Y0028040D01*
X0018012Y0027755D01*
X0018036Y0027471D01*
X0018067Y0027187D01*
X0018105Y0026904D01*
X0018150Y0026623D01*
X0018201Y0026342D01*
X0018259Y0026062D01*
X0018324Y0025784D01*
X0018396Y0025508D01*
X0018474Y0025234D01*
X0018559Y0024961D01*
X0018651Y0024691D01*
X0018749Y0024423D01*
X0018853Y0024157D01*
X0018964Y0023894D01*
X0019081Y0023634D01*
X0019204Y0023376D01*
X0019334Y0023122D01*
X0019470Y0022871D01*
X0019611Y0022623D01*
X0019759Y0022379D01*
X0019912Y0022138D01*
X0020072Y0021902D01*
X0020237Y0021669D01*
X0020407Y0021440D01*
X0020583Y0021215D01*
X0020765Y0020995D01*
X0020951Y0020779D01*
X0021143Y0020568D01*
X0021340Y0020361D01*
X0021542Y0020159D01*
X0021749Y0019962D01*
X0021960Y0019770D01*
X0022176Y0019584D01*
X0022396Y0019402D01*
X0022621Y0019226D01*
X0022850Y0019056D01*
X0023083Y0018891D01*
X0023319Y0018731D01*
X0023560Y0018578D01*
X0023804Y0018430D01*
X0024052Y0018289D01*
X0024303Y0018153D01*
X0024557Y0018023D01*
X0024815Y0017900D01*
X0025075Y0017783D01*
X0025338Y0017672D01*
X0025604Y0017568D01*
X0025872Y0017470D01*
X0026142Y0017378D01*
X0026415Y0017293D01*
X0026689Y0017215D01*
X0026965Y0017143D01*
X0027243Y0017078D01*
X0027523Y0017020D01*
X0027804Y0016969D01*
X0028085Y0016924D01*
X0028368Y0016886D01*
X0028652Y0016855D01*
X0028936Y0016831D01*
X0029221Y0016814D01*
X0029507Y0016803D01*
X0029792Y0016800D01*
X0039099Y0053746D02*
X0039101Y0053907D01*
X0039107Y0054067D01*
X0039117Y0054228D01*
X0039131Y0054388D01*
X0039149Y0054547D01*
X0039170Y0054707D01*
X0039196Y0054865D01*
X0039226Y0055023D01*
X0039259Y0055180D01*
X0039297Y0055337D01*
X0039338Y0055492D01*
X0039383Y0055646D01*
X0039432Y0055799D01*
X0039485Y0055951D01*
X0039541Y0056101D01*
X0039601Y0056250D01*
X0039665Y0056398D01*
X0039732Y0056544D01*
X0039803Y0056688D01*
X0039878Y0056830D01*
X0039956Y0056971D01*
X0040037Y0057109D01*
X0040122Y0057246D01*
X0040211Y0057380D01*
X0040302Y0057512D01*
X0040397Y0057642D01*
X0040495Y0057769D01*
X0040596Y0057894D01*
X0040700Y0058017D01*
X0040807Y0058136D01*
X0040917Y0058253D01*
X0041030Y0058368D01*
X0041146Y0058479D01*
X0041264Y0058588D01*
X0041385Y0058693D01*
X0041509Y0058796D01*
X0041635Y0058896D01*
X0041764Y0058992D01*
X0041895Y0059085D01*
X0042028Y0059175D01*
X0042163Y0059262D01*
X0042301Y0059345D01*
X0042440Y0059424D01*
X0042582Y0059501D01*
X0042725Y0059574D01*
X0042870Y0059643D01*
X0043017Y0059708D01*
X0043165Y0059770D01*
X0043315Y0059829D01*
X0043466Y0059883D01*
X0043618Y0059934D01*
X0043772Y0059981D01*
X0043927Y0060024D01*
X0044082Y0060063D01*
X0044239Y0060099D01*
X0044397Y0060131D01*
X0044555Y0060158D01*
X0044714Y0060182D01*
X0044873Y0060202D01*
X0045033Y0060218D01*
X0045194Y0060230D01*
X0045354Y0060238D01*
X0045515Y0060242D01*
X0045675Y0060242D01*
X0045836Y0060238D01*
X0045996Y0060230D01*
X0046157Y0060218D01*
X0046317Y0060202D01*
X0046476Y0060182D01*
X0046635Y0060158D01*
X0046793Y0060131D01*
X0046951Y0060099D01*
X0047108Y0060063D01*
X0047263Y0060024D01*
X0047418Y0059981D01*
X0047572Y0059934D01*
X0047724Y0059883D01*
X0047875Y0059829D01*
X0048025Y0059770D01*
X0048173Y0059708D01*
X0048320Y0059643D01*
X0048465Y0059574D01*
X0048608Y0059501D01*
X0048750Y0059424D01*
X0048889Y0059345D01*
X0049027Y0059262D01*
X0049162Y0059175D01*
X0049295Y0059085D01*
X0049426Y0058992D01*
X0049555Y0058896D01*
X0049681Y0058796D01*
X0049805Y0058693D01*
X0049926Y0058588D01*
X0050044Y0058479D01*
X0050160Y0058368D01*
X0050273Y0058253D01*
X0050383Y0058136D01*
X0050490Y0058017D01*
X0050594Y0057894D01*
X0050695Y0057769D01*
X0050793Y0057642D01*
X0050888Y0057512D01*
X0050979Y0057380D01*
X0051068Y0057246D01*
X0051153Y0057109D01*
X0051234Y0056971D01*
X0051312Y0056830D01*
X0051387Y0056688D01*
X0051458Y0056544D01*
X0051525Y0056398D01*
X0051589Y0056250D01*
X0051649Y0056101D01*
X0051705Y0055951D01*
X0051758Y0055799D01*
X0051807Y0055646D01*
X0051852Y0055492D01*
X0051893Y0055337D01*
X0051931Y0055180D01*
X0051964Y0055023D01*
X0051994Y0054865D01*
X0052020Y0054707D01*
X0052041Y0054547D01*
X0052059Y0054388D01*
X0052073Y0054228D01*
X0052083Y0054067D01*
X0052089Y0053907D01*
X0052091Y0053746D01*
X0052089Y0053585D01*
X0052083Y0053425D01*
X0052073Y0053264D01*
X0052059Y0053104D01*
X0052041Y0052945D01*
X0052020Y0052785D01*
X0051994Y0052627D01*
X0051964Y0052469D01*
X0051931Y0052312D01*
X0051893Y0052155D01*
X0051852Y0052000D01*
X0051807Y0051846D01*
X0051758Y0051693D01*
X0051705Y0051541D01*
X0051649Y0051391D01*
X0051589Y0051242D01*
X0051525Y0051094D01*
X0051458Y0050948D01*
X0051387Y0050804D01*
X0051312Y0050662D01*
X0051234Y0050521D01*
X0051153Y0050383D01*
X0051068Y0050246D01*
X0050979Y0050112D01*
X0050888Y0049980D01*
X0050793Y0049850D01*
X0050695Y0049723D01*
X0050594Y0049598D01*
X0050490Y0049475D01*
X0050383Y0049356D01*
X0050273Y0049239D01*
X0050160Y0049124D01*
X0050044Y0049013D01*
X0049926Y0048904D01*
X0049805Y0048799D01*
X0049681Y0048696D01*
X0049555Y0048596D01*
X0049426Y0048500D01*
X0049295Y0048407D01*
X0049162Y0048317D01*
X0049027Y0048230D01*
X0048889Y0048147D01*
X0048750Y0048068D01*
X0048608Y0047991D01*
X0048465Y0047918D01*
X0048320Y0047849D01*
X0048173Y0047784D01*
X0048025Y0047722D01*
X0047875Y0047663D01*
X0047724Y0047609D01*
X0047572Y0047558D01*
X0047418Y0047511D01*
X0047263Y0047468D01*
X0047108Y0047429D01*
X0046951Y0047393D01*
X0046793Y0047361D01*
X0046635Y0047334D01*
X0046476Y0047310D01*
X0046317Y0047290D01*
X0046157Y0047274D01*
X0045996Y0047262D01*
X0045836Y0047254D01*
X0045675Y0047250D01*
X0045515Y0047250D01*
X0045354Y0047254D01*
X0045194Y0047262D01*
X0045033Y0047274D01*
X0044873Y0047290D01*
X0044714Y0047310D01*
X0044555Y0047334D01*
X0044397Y0047361D01*
X0044239Y0047393D01*
X0044082Y0047429D01*
X0043927Y0047468D01*
X0043772Y0047511D01*
X0043618Y0047558D01*
X0043466Y0047609D01*
X0043315Y0047663D01*
X0043165Y0047722D01*
X0043017Y0047784D01*
X0042870Y0047849D01*
X0042725Y0047918D01*
X0042582Y0047991D01*
X0042440Y0048068D01*
X0042301Y0048147D01*
X0042163Y0048230D01*
X0042028Y0048317D01*
X0041895Y0048407D01*
X0041764Y0048500D01*
X0041635Y0048596D01*
X0041509Y0048696D01*
X0041385Y0048799D01*
X0041264Y0048904D01*
X0041146Y0049013D01*
X0041030Y0049124D01*
X0040917Y0049239D01*
X0040807Y0049356D01*
X0040700Y0049475D01*
X0040596Y0049598D01*
X0040495Y0049723D01*
X0040397Y0049850D01*
X0040302Y0049980D01*
X0040211Y0050112D01*
X0040122Y0050246D01*
X0040037Y0050383D01*
X0039956Y0050521D01*
X0039878Y0050662D01*
X0039803Y0050804D01*
X0039732Y0050948D01*
X0039665Y0051094D01*
X0039601Y0051242D01*
X0039541Y0051391D01*
X0039485Y0051541D01*
X0039432Y0051693D01*
X0039383Y0051846D01*
X0039338Y0052000D01*
X0039297Y0052155D01*
X0039259Y0052312D01*
X0039226Y0052469D01*
X0039196Y0052627D01*
X0039170Y0052785D01*
X0039149Y0052945D01*
X0039131Y0053104D01*
X0039117Y0053264D01*
X0039107Y0053425D01*
X0039101Y0053585D01*
X0039099Y0053746D01*
X0039099Y0098746D02*
X0039101Y0098907D01*
X0039107Y0099067D01*
X0039117Y0099228D01*
X0039131Y0099388D01*
X0039149Y0099547D01*
X0039170Y0099707D01*
X0039196Y0099865D01*
X0039226Y0100023D01*
X0039259Y0100180D01*
X0039297Y0100337D01*
X0039338Y0100492D01*
X0039383Y0100646D01*
X0039432Y0100799D01*
X0039485Y0100951D01*
X0039541Y0101101D01*
X0039601Y0101250D01*
X0039665Y0101398D01*
X0039732Y0101544D01*
X0039803Y0101688D01*
X0039878Y0101830D01*
X0039956Y0101971D01*
X0040037Y0102109D01*
X0040122Y0102246D01*
X0040211Y0102380D01*
X0040302Y0102512D01*
X0040397Y0102642D01*
X0040495Y0102769D01*
X0040596Y0102894D01*
X0040700Y0103017D01*
X0040807Y0103136D01*
X0040917Y0103253D01*
X0041030Y0103368D01*
X0041146Y0103479D01*
X0041264Y0103588D01*
X0041385Y0103693D01*
X0041509Y0103796D01*
X0041635Y0103896D01*
X0041764Y0103992D01*
X0041895Y0104085D01*
X0042028Y0104175D01*
X0042163Y0104262D01*
X0042301Y0104345D01*
X0042440Y0104424D01*
X0042582Y0104501D01*
X0042725Y0104574D01*
X0042870Y0104643D01*
X0043017Y0104708D01*
X0043165Y0104770D01*
X0043315Y0104829D01*
X0043466Y0104883D01*
X0043618Y0104934D01*
X0043772Y0104981D01*
X0043927Y0105024D01*
X0044082Y0105063D01*
X0044239Y0105099D01*
X0044397Y0105131D01*
X0044555Y0105158D01*
X0044714Y0105182D01*
X0044873Y0105202D01*
X0045033Y0105218D01*
X0045194Y0105230D01*
X0045354Y0105238D01*
X0045515Y0105242D01*
X0045675Y0105242D01*
X0045836Y0105238D01*
X0045996Y0105230D01*
X0046157Y0105218D01*
X0046317Y0105202D01*
X0046476Y0105182D01*
X0046635Y0105158D01*
X0046793Y0105131D01*
X0046951Y0105099D01*
X0047108Y0105063D01*
X0047263Y0105024D01*
X0047418Y0104981D01*
X0047572Y0104934D01*
X0047724Y0104883D01*
X0047875Y0104829D01*
X0048025Y0104770D01*
X0048173Y0104708D01*
X0048320Y0104643D01*
X0048465Y0104574D01*
X0048608Y0104501D01*
X0048750Y0104424D01*
X0048889Y0104345D01*
X0049027Y0104262D01*
X0049162Y0104175D01*
X0049295Y0104085D01*
X0049426Y0103992D01*
X0049555Y0103896D01*
X0049681Y0103796D01*
X0049805Y0103693D01*
X0049926Y0103588D01*
X0050044Y0103479D01*
X0050160Y0103368D01*
X0050273Y0103253D01*
X0050383Y0103136D01*
X0050490Y0103017D01*
X0050594Y0102894D01*
X0050695Y0102769D01*
X0050793Y0102642D01*
X0050888Y0102512D01*
X0050979Y0102380D01*
X0051068Y0102246D01*
X0051153Y0102109D01*
X0051234Y0101971D01*
X0051312Y0101830D01*
X0051387Y0101688D01*
X0051458Y0101544D01*
X0051525Y0101398D01*
X0051589Y0101250D01*
X0051649Y0101101D01*
X0051705Y0100951D01*
X0051758Y0100799D01*
X0051807Y0100646D01*
X0051852Y0100492D01*
X0051893Y0100337D01*
X0051931Y0100180D01*
X0051964Y0100023D01*
X0051994Y0099865D01*
X0052020Y0099707D01*
X0052041Y0099547D01*
X0052059Y0099388D01*
X0052073Y0099228D01*
X0052083Y0099067D01*
X0052089Y0098907D01*
X0052091Y0098746D01*
X0052089Y0098585D01*
X0052083Y0098425D01*
X0052073Y0098264D01*
X0052059Y0098104D01*
X0052041Y0097945D01*
X0052020Y0097785D01*
X0051994Y0097627D01*
X0051964Y0097469D01*
X0051931Y0097312D01*
X0051893Y0097155D01*
X0051852Y0097000D01*
X0051807Y0096846D01*
X0051758Y0096693D01*
X0051705Y0096541D01*
X0051649Y0096391D01*
X0051589Y0096242D01*
X0051525Y0096094D01*
X0051458Y0095948D01*
X0051387Y0095804D01*
X0051312Y0095662D01*
X0051234Y0095521D01*
X0051153Y0095383D01*
X0051068Y0095246D01*
X0050979Y0095112D01*
X0050888Y0094980D01*
X0050793Y0094850D01*
X0050695Y0094723D01*
X0050594Y0094598D01*
X0050490Y0094475D01*
X0050383Y0094356D01*
X0050273Y0094239D01*
X0050160Y0094124D01*
X0050044Y0094013D01*
X0049926Y0093904D01*
X0049805Y0093799D01*
X0049681Y0093696D01*
X0049555Y0093596D01*
X0049426Y0093500D01*
X0049295Y0093407D01*
X0049162Y0093317D01*
X0049027Y0093230D01*
X0048889Y0093147D01*
X0048750Y0093068D01*
X0048608Y0092991D01*
X0048465Y0092918D01*
X0048320Y0092849D01*
X0048173Y0092784D01*
X0048025Y0092722D01*
X0047875Y0092663D01*
X0047724Y0092609D01*
X0047572Y0092558D01*
X0047418Y0092511D01*
X0047263Y0092468D01*
X0047108Y0092429D01*
X0046951Y0092393D01*
X0046793Y0092361D01*
X0046635Y0092334D01*
X0046476Y0092310D01*
X0046317Y0092290D01*
X0046157Y0092274D01*
X0045996Y0092262D01*
X0045836Y0092254D01*
X0045675Y0092250D01*
X0045515Y0092250D01*
X0045354Y0092254D01*
X0045194Y0092262D01*
X0045033Y0092274D01*
X0044873Y0092290D01*
X0044714Y0092310D01*
X0044555Y0092334D01*
X0044397Y0092361D01*
X0044239Y0092393D01*
X0044082Y0092429D01*
X0043927Y0092468D01*
X0043772Y0092511D01*
X0043618Y0092558D01*
X0043466Y0092609D01*
X0043315Y0092663D01*
X0043165Y0092722D01*
X0043017Y0092784D01*
X0042870Y0092849D01*
X0042725Y0092918D01*
X0042582Y0092991D01*
X0042440Y0093068D01*
X0042301Y0093147D01*
X0042163Y0093230D01*
X0042028Y0093317D01*
X0041895Y0093407D01*
X0041764Y0093500D01*
X0041635Y0093596D01*
X0041509Y0093696D01*
X0041385Y0093799D01*
X0041264Y0093904D01*
X0041146Y0094013D01*
X0041030Y0094124D01*
X0040917Y0094239D01*
X0040807Y0094356D01*
X0040700Y0094475D01*
X0040596Y0094598D01*
X0040495Y0094723D01*
X0040397Y0094850D01*
X0040302Y0094980D01*
X0040211Y0095112D01*
X0040122Y0095246D01*
X0040037Y0095383D01*
X0039956Y0095521D01*
X0039878Y0095662D01*
X0039803Y0095804D01*
X0039732Y0095948D01*
X0039665Y0096094D01*
X0039601Y0096242D01*
X0039541Y0096391D01*
X0039485Y0096541D01*
X0039432Y0096693D01*
X0039383Y0096846D01*
X0039338Y0097000D01*
X0039297Y0097155D01*
X0039259Y0097312D01*
X0039226Y0097469D01*
X0039196Y0097627D01*
X0039170Y0097785D01*
X0039149Y0097945D01*
X0039131Y0098104D01*
X0039117Y0098264D01*
X0039107Y0098425D01*
X0039101Y0098585D01*
X0039099Y0098746D01*
D11*
X0133276Y0085343D03*
X0135245Y0085343D03*
X0137213Y0085343D03*
X0139182Y0085343D03*
X0141150Y0085343D03*
X0143119Y0085343D03*
X0145087Y0085343D03*
X0147056Y0085343D03*
X0147056Y0066367D03*
X0145087Y0066367D03*
X0143119Y0066367D03*
X0141150Y0066367D03*
X0139182Y0066367D03*
X0137213Y0066367D03*
X0135245Y0066367D03*
X0133276Y0066367D03*
D12*
X0130678Y0068965D03*
X0130678Y0070934D03*
X0130678Y0072902D03*
X0130678Y0074871D03*
X0130678Y0076839D03*
X0130678Y0078808D03*
X0130678Y0080776D03*
X0130678Y0082745D03*
X0149654Y0082745D03*
X0149654Y0080776D03*
X0149654Y0078808D03*
X0149654Y0076839D03*
X0149654Y0074871D03*
X0149654Y0072902D03*
X0149654Y0070934D03*
X0149654Y0068965D03*
D13*
X0126052Y0063257D03*
X0119359Y0063257D03*
X0105422Y0056091D03*
X0098729Y0056091D03*
X0099154Y0049422D03*
X0099154Y0042729D03*
X0122312Y0043769D03*
X0122312Y0050461D03*
X0143808Y0049517D03*
X0143808Y0042824D03*
X0146918Y0025068D03*
X0153611Y0025068D03*
X0105422Y0071721D03*
X0098729Y0071721D03*
X0098729Y0080501D03*
X0105422Y0080501D03*
X0105422Y0093650D03*
X0098729Y0093650D03*
X0100217Y0100371D03*
X0100217Y0107064D03*
X0142957Y0115324D03*
X0149650Y0115324D03*
D14*
X0080595Y0093746D03*
X0070595Y0088746D03*
X0080595Y0083746D03*
X0070595Y0078746D03*
X0080595Y0073746D03*
X0070595Y0068746D03*
X0080595Y0063746D03*
X0070595Y0058746D03*
X0032296Y0061342D03*
X0026309Y0051349D03*
X0026311Y0091145D03*
X0032294Y0101152D03*
D15*
X0057603Y0107250D03*
X0057603Y0045242D03*
D16*
X0052741Y0070737D03*
X0052741Y0081761D03*
X0166261Y0055520D03*
X0166261Y0044497D03*
X0187816Y0043316D03*
X0187816Y0054339D03*
D17*
X0164013Y0070304D03*
X0164013Y0076997D03*
X0169517Y0094398D03*
X0158331Y0094398D03*
X0158331Y0101091D03*
X0169517Y0101091D03*
X0184843Y0103922D03*
X0191536Y0103922D03*
X0144316Y0122182D03*
X0144316Y0128875D03*
X0041694Y0085497D03*
X0041694Y0078804D03*
X0041694Y0073391D03*
X0041694Y0066698D03*
D18*
X0159343Y0110284D03*
X0159343Y0115284D03*
X0159343Y0120284D03*
X0159343Y0125245D03*
X0184178Y0125245D03*
X0184178Y0120245D03*
X0184178Y0115245D03*
X0184178Y0110245D03*
D19*
X0136611Y0050536D03*
X0129328Y0050536D03*
X0129328Y0044434D03*
X0136611Y0044434D03*
D20*
X0199532Y0056249D03*
X0209532Y0056249D03*
X0209532Y0066249D03*
X0199532Y0066249D03*
X0199532Y0076249D03*
X0209532Y0076249D03*
X0209532Y0086249D03*
X0199532Y0086249D03*
X0199532Y0096249D03*
X0209532Y0096249D03*
D21*
X0176822Y0054446D03*
X0176822Y0043423D03*
D22*
X0201879Y0029831D03*
X0201800Y0121839D03*
X0031013Y0121839D03*
X0031170Y0029910D03*
D23*
X0056170Y0126249D03*
X0067981Y0126249D03*
X0079792Y0126249D03*
D24*
X0063257Y0091603D03*
X0063257Y0083729D03*
X0062076Y0062076D03*
X0062076Y0054202D03*
D25*
X0090816Y0125068D03*
D26*
X0098690Y0125068D03*
X0106564Y0125068D03*
X0114438Y0125068D03*
X0122312Y0125068D03*
D27*
X0183335Y0130973D03*
X0049477Y0130973D03*
X0049477Y0020737D03*
X0183335Y0020737D03*
D28*
X0165028Y0025068D03*
X0159123Y0025068D03*
D29*
X0099154Y0042729D02*
X0093517Y0042729D01*
X0093454Y0042666D01*
D30*
X0093454Y0042666D03*
X0119320Y0057115D03*
X0129792Y0054989D03*
X0122351Y0039556D03*
X0143808Y0038690D03*
X0155816Y0052942D03*
X0170343Y0025068D03*
X0093926Y0107469D03*
X0067981Y0118375D03*
D31*
X0129328Y0050536D02*
X0130509Y0050536D01*
X0136611Y0044434D01*
D32*
X0140709Y0039822D02*
X0141038Y0039493D01*
X0140941Y0039260D01*
X0140941Y0038119D01*
X0141377Y0037066D01*
X0142184Y0036259D01*
X0143238Y0035823D01*
X0144378Y0035823D01*
X0145432Y0036259D01*
X0146238Y0037066D01*
X0146675Y0038119D01*
X0146675Y0039260D01*
X0146578Y0039493D01*
X0147167Y0040082D01*
X0147167Y0045565D01*
X0146562Y0046170D01*
X0147167Y0046775D01*
X0147167Y0051866D01*
X0147587Y0051866D01*
X0148532Y0052258D01*
X0149256Y0052981D01*
X0149647Y0053926D01*
X0149647Y0054949D01*
X0149256Y0055895D01*
X0149066Y0056084D01*
X0149066Y0066787D01*
X0149654Y0066787D01*
X0149654Y0068953D01*
X0149654Y0068953D01*
X0149654Y0066787D01*
X0151438Y0066787D01*
X0151842Y0066896D01*
X0152204Y0067105D01*
X0152499Y0067400D01*
X0152708Y0067762D01*
X0152817Y0068166D01*
X0152817Y0068965D01*
X0151818Y0068965D01*
X0151818Y0068965D01*
X0152817Y0068965D01*
X0152817Y0069193D01*
X0155513Y0069193D01*
X0158466Y0072146D01*
X0159177Y0072857D01*
X0159477Y0072732D01*
X0160327Y0072732D01*
X0160260Y0072481D01*
X0160260Y0070488D01*
X0163828Y0070488D01*
X0163828Y0070120D01*
X0160260Y0070120D01*
X0160260Y0069215D01*
X0160065Y0069254D01*
X0159792Y0069254D01*
X0159519Y0069254D01*
X0158985Y0069147D01*
X0158481Y0068938D01*
X0158027Y0068635D01*
X0157642Y0068250D01*
X0157339Y0067796D01*
X0157130Y0067293D01*
X0157024Y0066758D01*
X0157024Y0066485D01*
X0157024Y0066212D01*
X0157130Y0065677D01*
X0157339Y0065174D01*
X0157642Y0064720D01*
X0158027Y0064335D01*
X0158481Y0064032D01*
X0158985Y0063823D01*
X0159519Y0063717D01*
X0159792Y0063717D01*
X0159792Y0066485D01*
X0157024Y0066485D01*
X0159792Y0066485D01*
X0159792Y0066485D01*
X0159792Y0066485D01*
X0159792Y0069254D01*
X0159792Y0066485D01*
X0159792Y0066485D01*
X0159792Y0063717D01*
X0160065Y0063717D01*
X0160600Y0063823D01*
X0161103Y0064032D01*
X0161557Y0064335D01*
X0161943Y0064720D01*
X0162246Y0065174D01*
X0162454Y0065677D01*
X0162561Y0066212D01*
X0162561Y0066485D01*
X0162561Y0066748D01*
X0163828Y0066748D01*
X0163828Y0070120D01*
X0164197Y0070120D01*
X0164197Y0070488D01*
X0167765Y0070488D01*
X0167765Y0072481D01*
X0167657Y0072885D01*
X0167448Y0073247D01*
X0167153Y0073543D01*
X0166840Y0073723D01*
X0167568Y0074452D01*
X0167568Y0076131D01*
X0167714Y0076276D01*
X0169446Y0078008D01*
X0170067Y0078008D01*
X0171013Y0078399D01*
X0171736Y0079123D01*
X0172128Y0080068D01*
X0172128Y0081091D01*
X0171736Y0082036D01*
X0171013Y0082760D01*
X0170067Y0083151D01*
X0169044Y0083151D01*
X0168099Y0082760D01*
X0167376Y0082036D01*
X0166984Y0081091D01*
X0166984Y0080469D01*
X0166812Y0080297D01*
X0166754Y0080356D01*
X0161478Y0080356D01*
X0161478Y0081091D01*
X0161086Y0082036D01*
X0160363Y0082760D01*
X0159418Y0083151D01*
X0158395Y0083151D01*
X0157450Y0082760D01*
X0156726Y0082036D01*
X0156335Y0081091D01*
X0156335Y0080607D01*
X0155894Y0080789D01*
X0154904Y0080789D01*
X0155946Y0081831D01*
X0156966Y0082851D01*
X0156966Y0083604D01*
X0157405Y0084044D01*
X0157797Y0084989D01*
X0157797Y0086012D01*
X0157405Y0086958D01*
X0156682Y0087681D01*
X0155737Y0088072D01*
X0154714Y0088072D01*
X0153768Y0087681D01*
X0153045Y0086958D01*
X0152654Y0086012D01*
X0152654Y0084989D01*
X0153045Y0084044D01*
X0153141Y0083949D01*
X0152620Y0083428D01*
X0152620Y0083911D01*
X0151805Y0084726D01*
X0151395Y0084726D01*
X0151395Y0091753D01*
X0151375Y0091773D01*
X0151375Y0092367D01*
X0151957Y0091785D01*
X0152903Y0091394D01*
X0153926Y0091394D01*
X0154852Y0091777D01*
X0155590Y0091039D01*
X0161073Y0091039D01*
X0161861Y0091827D01*
X0161958Y0091787D01*
X0162981Y0091787D01*
X0163926Y0092179D01*
X0164649Y0092902D01*
X0165041Y0093848D01*
X0165041Y0094871D01*
X0164649Y0095816D01*
X0163926Y0096539D01*
X0162981Y0096931D01*
X0161958Y0096931D01*
X0161887Y0096902D01*
X0161887Y0096943D01*
X0161158Y0097672D01*
X0161472Y0097853D01*
X0161767Y0098148D01*
X0161976Y0098510D01*
X0162084Y0098914D01*
X0162084Y0100907D01*
X0158516Y0100907D01*
X0158516Y0101276D01*
X0158147Y0101276D01*
X0158147Y0104647D01*
X0155957Y0104647D01*
X0155553Y0104539D01*
X0155191Y0104330D01*
X0154896Y0104035D01*
X0154687Y0103673D01*
X0154579Y0103269D01*
X0154579Y0101276D01*
X0158147Y0101276D01*
X0158147Y0100907D01*
X0154579Y0100907D01*
X0154579Y0098914D01*
X0154687Y0098510D01*
X0154896Y0098148D01*
X0155191Y0097853D01*
X0155505Y0097672D01*
X0154776Y0096943D01*
X0154776Y0096185D01*
X0153926Y0096537D01*
X0152903Y0096537D01*
X0152206Y0096249D01*
X0152206Y0096878D01*
X0151815Y0097824D01*
X0151091Y0098547D01*
X0150146Y0098939D01*
X0149647Y0098939D01*
X0149647Y0099044D01*
X0149256Y0099989D01*
X0148532Y0100712D01*
X0147587Y0101104D01*
X0146564Y0101104D01*
X0145619Y0100712D01*
X0144895Y0099989D01*
X0144504Y0099044D01*
X0144504Y0098021D01*
X0144895Y0097076D01*
X0145335Y0096636D01*
X0145335Y0095839D01*
X0145028Y0096145D01*
X0144083Y0096537D01*
X0143060Y0096537D01*
X0142115Y0096145D01*
X0141392Y0095422D01*
X0141000Y0094477D01*
X0141000Y0093855D01*
X0140256Y0093112D01*
X0140256Y0088309D01*
X0139150Y0088309D01*
X0139413Y0088572D01*
X0139805Y0089517D01*
X0139805Y0090540D01*
X0139413Y0091485D01*
X0138690Y0092208D01*
X0137745Y0092600D01*
X0136722Y0092600D01*
X0136694Y0092589D01*
X0136694Y0093296D01*
X0136303Y0094241D01*
X0135580Y0094964D01*
X0134634Y0095356D01*
X0133611Y0095356D01*
X0133431Y0095281D01*
X0133505Y0095462D01*
X0133505Y0096485D01*
X0133114Y0097430D01*
X0132391Y0098153D01*
X0131445Y0098545D01*
X0130422Y0098545D01*
X0129477Y0098153D01*
X0128754Y0097430D01*
X0128362Y0096485D01*
X0128362Y0095863D01*
X0124115Y0091615D01*
X0124115Y0081040D01*
X0124661Y0080494D01*
X0121680Y0080494D01*
X0113806Y0088368D01*
X0107108Y0088368D01*
X0107108Y0090094D01*
X0107967Y0090094D01*
X0108781Y0090909D01*
X0108781Y0096392D01*
X0107967Y0097206D01*
X0103153Y0097206D01*
X0103576Y0097630D01*
X0103576Y0103112D01*
X0102971Y0103717D01*
X0103576Y0104322D01*
X0103576Y0109805D01*
X0102762Y0110620D01*
X0097673Y0110620D01*
X0096858Y0109805D01*
X0096858Y0109660D01*
X0095790Y0109660D01*
X0095550Y0109900D01*
X0094496Y0110336D01*
X0093356Y0110336D01*
X0092302Y0109900D01*
X0091496Y0109093D01*
X0091059Y0108040D01*
X0091059Y0106899D01*
X0091496Y0105845D01*
X0092302Y0105039D01*
X0093356Y0104602D01*
X0094496Y0104602D01*
X0095550Y0105039D01*
X0095790Y0105279D01*
X0096858Y0105279D01*
X0096858Y0104322D01*
X0097463Y0103717D01*
X0096858Y0103112D01*
X0096858Y0097630D01*
X0097282Y0097206D01*
X0096185Y0097206D01*
X0095370Y0096392D01*
X0095370Y0095852D01*
X0094477Y0096222D01*
X0093454Y0096222D01*
X0092509Y0095831D01*
X0091785Y0095107D01*
X0091533Y0094499D01*
X0085066Y0100966D01*
X0076093Y0100966D01*
X0075106Y0099979D01*
X0073972Y0098845D01*
X0073972Y0094507D01*
X0072008Y0092542D01*
X0071400Y0092794D01*
X0069790Y0092794D01*
X0068302Y0092177D01*
X0067163Y0091039D01*
X0067147Y0091000D01*
X0067147Y0092377D01*
X0066555Y0093807D01*
X0065461Y0094901D01*
X0064031Y0095494D01*
X0062483Y0095494D01*
X0061053Y0094901D01*
X0059958Y0093807D01*
X0059366Y0092377D01*
X0059366Y0090829D01*
X0059958Y0089399D01*
X0061053Y0088305D01*
X0062483Y0087713D01*
X0064031Y0087713D01*
X0064270Y0087812D01*
X0064768Y0087314D01*
X0064031Y0087620D01*
X0062483Y0087620D01*
X0061053Y0087027D01*
X0059958Y0085933D01*
X0059366Y0084503D01*
X0059366Y0082955D01*
X0059958Y0081525D01*
X0061053Y0080431D01*
X0062483Y0079839D01*
X0064031Y0079839D01*
X0065461Y0080431D01*
X0066555Y0081525D01*
X0066769Y0082043D01*
X0068168Y0082043D01*
X0067163Y0081039D01*
X0066547Y0079551D01*
X0066547Y0077940D01*
X0066590Y0077838D01*
X0061679Y0072928D01*
X0056494Y0072928D01*
X0056494Y0075250D01*
X0055679Y0076065D01*
X0049803Y0076065D01*
X0048988Y0075250D01*
X0048988Y0066224D01*
X0049803Y0065409D01*
X0055679Y0065409D01*
X0056494Y0066224D01*
X0056494Y0068546D01*
X0063494Y0068546D01*
X0069687Y0074740D01*
X0069790Y0074698D01*
X0071400Y0074698D01*
X0072888Y0075314D01*
X0074027Y0076453D01*
X0074643Y0077940D01*
X0074643Y0079551D01*
X0074027Y0081039D01*
X0073022Y0082043D01*
X0073404Y0082043D01*
X0076997Y0085636D01*
X0076547Y0084551D01*
X0076547Y0082940D01*
X0077163Y0081453D01*
X0078302Y0080314D01*
X0079790Y0079698D01*
X0081400Y0079698D01*
X0082888Y0080314D01*
X0084027Y0081453D01*
X0084643Y0082940D01*
X0084643Y0084551D01*
X0084027Y0086039D01*
X0082888Y0087177D01*
X0081400Y0087794D01*
X0079790Y0087794D01*
X0078705Y0087344D01*
X0081058Y0089698D01*
X0081400Y0089698D01*
X0082888Y0090314D01*
X0084027Y0091453D01*
X0084643Y0092940D01*
X0084643Y0094551D01*
X0084361Y0095232D01*
X0094791Y0084802D01*
X0095778Y0083815D01*
X0095943Y0083815D01*
X0095370Y0083242D01*
X0095370Y0082781D01*
X0094477Y0083151D01*
X0093454Y0083151D01*
X0092509Y0082760D01*
X0091785Y0082036D01*
X0091394Y0081091D01*
X0091394Y0080068D01*
X0091785Y0079123D01*
X0092509Y0078399D01*
X0093454Y0078008D01*
X0094477Y0078008D01*
X0095370Y0078378D01*
X0095370Y0077759D01*
X0096185Y0076945D01*
X0101274Y0076945D01*
X0102076Y0077747D01*
X0102878Y0076945D01*
X0107967Y0076945D01*
X0108781Y0077759D01*
X0108781Y0083242D01*
X0108208Y0083815D01*
X0111526Y0083815D01*
X0119200Y0076141D01*
X0120188Y0075154D01*
X0127713Y0075154D01*
X0127713Y0074588D01*
X0115857Y0074588D01*
X0111353Y0070085D01*
X0109443Y0070085D01*
X0108781Y0070746D01*
X0108781Y0074463D01*
X0107967Y0075277D01*
X0102878Y0075277D01*
X0102076Y0074475D01*
X0101274Y0075277D01*
X0096185Y0075277D01*
X0095370Y0074463D01*
X0095370Y0073462D01*
X0095350Y0073462D01*
X0094910Y0073901D01*
X0093965Y0074293D01*
X0092942Y0074293D01*
X0091997Y0073901D01*
X0091273Y0073178D01*
X0090882Y0072233D01*
X0090882Y0071210D01*
X0091273Y0070265D01*
X0091997Y0069541D01*
X0092942Y0069150D01*
X0093965Y0069150D01*
X0094910Y0069541D01*
X0095350Y0069981D01*
X0095370Y0069981D01*
X0095370Y0068980D01*
X0096185Y0068165D01*
X0101274Y0068165D01*
X0102076Y0068967D01*
X0102878Y0068165D01*
X0106594Y0068165D01*
X0107059Y0067700D01*
X0108014Y0066745D01*
X0106408Y0065139D01*
X0095302Y0065139D01*
X0090778Y0069664D01*
X0089790Y0070651D01*
X0083225Y0070651D01*
X0084027Y0071453D01*
X0084643Y0072940D01*
X0084643Y0074551D01*
X0084027Y0076039D01*
X0082888Y0077177D01*
X0081400Y0077794D01*
X0079790Y0077794D01*
X0078302Y0077177D01*
X0077163Y0076039D01*
X0076547Y0074551D01*
X0076547Y0072940D01*
X0077163Y0071453D01*
X0078302Y0070314D01*
X0078484Y0070238D01*
X0071040Y0062794D01*
X0069790Y0062794D01*
X0068302Y0062177D01*
X0067163Y0061039D01*
X0066912Y0060432D01*
X0066891Y0060432D01*
X0065966Y0061357D01*
X0065966Y0062849D01*
X0065374Y0064279D01*
X0064279Y0065374D01*
X0062849Y0065966D01*
X0061302Y0065966D01*
X0059872Y0065374D01*
X0058777Y0064279D01*
X0058185Y0062849D01*
X0058185Y0061302D01*
X0058777Y0059872D01*
X0059872Y0058777D01*
X0061302Y0058185D01*
X0062849Y0058185D01*
X0063924Y0058630D01*
X0065495Y0057060D01*
X0066912Y0057060D01*
X0067163Y0056453D01*
X0067729Y0055887D01*
X0065588Y0055887D01*
X0065374Y0056405D01*
X0064279Y0057500D01*
X0062849Y0058092D01*
X0061302Y0058092D01*
X0059872Y0057500D01*
X0058777Y0056405D01*
X0058185Y0054975D01*
X0058185Y0053428D01*
X0058777Y0051998D01*
X0059842Y0050933D01*
X0058819Y0051357D01*
X0056387Y0051357D01*
X0054139Y0050426D01*
X0052419Y0048706D01*
X0051488Y0046458D01*
X0051488Y0044025D01*
X0052419Y0041778D01*
X0054139Y0040058D01*
X0056387Y0039127D01*
X0058819Y0039127D01*
X0061067Y0040058D01*
X0062787Y0041778D01*
X0063718Y0044025D01*
X0063718Y0046458D01*
X0062787Y0048706D01*
X0061097Y0050396D01*
X0061302Y0050311D01*
X0062849Y0050311D01*
X0064279Y0050903D01*
X0065374Y0051998D01*
X0065588Y0052516D01*
X0073798Y0052516D01*
X0074785Y0053503D01*
X0076754Y0055472D01*
X0076754Y0057520D01*
X0079183Y0059949D01*
X0079790Y0059698D01*
X0081400Y0059698D01*
X0082888Y0060314D01*
X0084027Y0061453D01*
X0084643Y0062940D01*
X0084643Y0064551D01*
X0084392Y0065158D01*
X0085332Y0066098D01*
X0087904Y0066098D01*
X0092429Y0061574D01*
X0093416Y0060587D01*
X0107878Y0060587D01*
X0107878Y0059647D01*
X0102878Y0059647D01*
X0102076Y0058845D01*
X0101274Y0059647D01*
X0096185Y0059647D01*
X0095370Y0058833D01*
X0095370Y0057851D01*
X0094910Y0058311D01*
X0093965Y0058702D01*
X0092942Y0058702D01*
X0091997Y0058311D01*
X0091273Y0057587D01*
X0090882Y0056642D01*
X0090882Y0055619D01*
X0091273Y0054674D01*
X0091997Y0053951D01*
X0092942Y0053559D01*
X0093965Y0053559D01*
X0094910Y0053951D01*
X0095310Y0054351D01*
X0095370Y0054351D01*
X0095370Y0053350D01*
X0096176Y0052544D01*
X0095795Y0052163D01*
X0095795Y0046681D01*
X0096400Y0046076D01*
X0095795Y0045470D01*
X0095795Y0044920D01*
X0095254Y0044920D01*
X0095078Y0045097D01*
X0094024Y0045533D01*
X0092883Y0045533D01*
X0091830Y0045097D01*
X0091023Y0044290D01*
X0090587Y0043236D01*
X0090587Y0042096D01*
X0091023Y0041042D01*
X0091830Y0040236D01*
X0092883Y0039799D01*
X0094024Y0039799D01*
X0095078Y0040236D01*
X0095380Y0040538D01*
X0095795Y0040538D01*
X0095795Y0039988D01*
X0096610Y0039173D01*
X0101699Y0039173D01*
X0102513Y0039988D01*
X0102513Y0045470D01*
X0101908Y0046076D01*
X0102513Y0046681D01*
X0102513Y0052163D01*
X0101707Y0052969D01*
X0102076Y0053337D01*
X0102878Y0052535D01*
X0107967Y0052535D01*
X0108781Y0053350D01*
X0108781Y0055491D01*
X0111250Y0057961D01*
X0111250Y0061574D01*
X0118924Y0069248D01*
X0127516Y0069248D01*
X0127516Y0068965D01*
X0127516Y0068166D01*
X0127624Y0067762D01*
X0127833Y0067400D01*
X0128128Y0067105D01*
X0128490Y0066896D01*
X0128894Y0066787D01*
X0130678Y0066787D01*
X0131295Y0066787D01*
X0131295Y0064997D01*
X0129411Y0064997D01*
X0129411Y0065998D01*
X0128596Y0066813D01*
X0123507Y0066813D01*
X0122705Y0066011D01*
X0121904Y0066813D01*
X0116815Y0066813D01*
X0116000Y0065998D01*
X0116000Y0060515D01*
X0116815Y0059701D01*
X0117129Y0059701D01*
X0117129Y0058979D01*
X0116889Y0058739D01*
X0116453Y0057685D01*
X0116453Y0056545D01*
X0116889Y0055491D01*
X0117696Y0054684D01*
X0118749Y0054248D01*
X0119890Y0054248D01*
X0120571Y0054530D01*
X0120571Y0054017D01*
X0119767Y0054017D01*
X0118953Y0053203D01*
X0118953Y0047720D01*
X0119558Y0047115D01*
X0118953Y0046510D01*
X0118953Y0041027D01*
X0119592Y0040387D01*
X0119484Y0040126D01*
X0119484Y0038986D01*
X0119921Y0037932D01*
X0120727Y0037125D01*
X0121781Y0036689D01*
X0122921Y0036689D01*
X0123975Y0037125D01*
X0124782Y0037932D01*
X0125218Y0038986D01*
X0125218Y0040126D01*
X0125087Y0040443D01*
X0125671Y0041027D01*
X0125671Y0046510D01*
X0125066Y0047115D01*
X0125671Y0047720D01*
X0125671Y0053203D01*
X0124856Y0054017D01*
X0124195Y0054017D01*
X0126182Y0056004D01*
X0127110Y0056004D01*
X0126925Y0055559D01*
X0126925Y0054419D01*
X0127224Y0053698D01*
X0126783Y0053698D01*
X0125969Y0052884D01*
X0125969Y0048189D01*
X0126672Y0047485D01*
X0125969Y0046781D01*
X0125969Y0042086D01*
X0126783Y0041272D01*
X0129237Y0041272D01*
X0131201Y0039307D01*
X0132221Y0038288D01*
X0139174Y0038288D01*
X0140709Y0039822D01*
X0140941Y0039179D02*
X0140066Y0039179D01*
X0141164Y0037581D02*
X0124430Y0037581D01*
X0125218Y0039179D02*
X0131329Y0039179D01*
X0129731Y0040778D02*
X0125421Y0040778D01*
X0125671Y0042376D02*
X0125969Y0042376D01*
X0125969Y0043975D02*
X0125671Y0043975D01*
X0125671Y0045573D02*
X0125969Y0045573D01*
X0126359Y0047172D02*
X0125122Y0047172D01*
X0125671Y0048770D02*
X0125969Y0048770D01*
X0125969Y0050369D02*
X0125671Y0050369D01*
X0125671Y0051967D02*
X0125969Y0051967D01*
X0125308Y0053566D02*
X0126650Y0053566D01*
X0126925Y0055164D02*
X0125342Y0055164D01*
X0129792Y0054989D02*
X0129792Y0051253D01*
X0130509Y0050536D01*
X0122351Y0043729D02*
X0122312Y0043769D01*
X0122351Y0043729D02*
X0122351Y0039556D01*
X0120272Y0037581D02*
X0039939Y0037581D01*
X0040125Y0037424D02*
X0037015Y0040034D01*
X0033200Y0041422D01*
X0029140Y0041422D01*
X0025325Y0040034D01*
X0022215Y0037424D01*
X0020185Y0033908D01*
X0019765Y0031527D01*
X0019765Y0119330D01*
X0020028Y0117841D01*
X0022058Y0114325D01*
X0025168Y0111716D01*
X0028983Y0110327D01*
X0033043Y0110327D01*
X0036857Y0111716D01*
X0036857Y0111716D01*
X0039967Y0114325D01*
X0039967Y0114325D01*
X0041997Y0117841D01*
X0041997Y0117841D01*
X0042702Y0121839D01*
X0041997Y0125837D01*
X0039967Y0129353D01*
X0036857Y0131963D01*
X0033662Y0133126D01*
X0046880Y0133126D01*
X0046629Y0132876D01*
X0046118Y0131641D01*
X0046118Y0130305D01*
X0046629Y0129070D01*
X0047574Y0128126D01*
X0048809Y0127614D01*
X0049716Y0127614D01*
X0049695Y0127537D01*
X0049631Y0127049D01*
X0055370Y0127049D01*
X0055370Y0132788D01*
X0054882Y0132723D01*
X0054048Y0132500D01*
X0053250Y0132170D01*
X0052740Y0131875D01*
X0052325Y0132876D01*
X0052075Y0133126D01*
X0180738Y0133126D01*
X0180488Y0132876D01*
X0179976Y0131641D01*
X0179976Y0130305D01*
X0180488Y0129070D01*
X0181433Y0128126D01*
X0182179Y0127817D01*
X0179638Y0127817D01*
X0179235Y0127708D01*
X0178873Y0127499D01*
X0178577Y0127204D01*
X0178368Y0126842D01*
X0178260Y0126438D01*
X0178260Y0125245D01*
X0184178Y0125245D01*
X0190096Y0125245D01*
X0190096Y0126438D01*
X0189988Y0126842D01*
X0189779Y0127204D01*
X0189483Y0127499D01*
X0189121Y0127708D01*
X0188718Y0127817D01*
X0184492Y0127817D01*
X0185238Y0128126D01*
X0186183Y0129070D01*
X0186694Y0130305D01*
X0186694Y0131641D01*
X0186183Y0132876D01*
X0185933Y0133126D01*
X0199150Y0133126D01*
X0195955Y0131963D01*
X0192845Y0129353D01*
X0190815Y0125837D01*
X0190110Y0121839D01*
X0190815Y0117841D01*
X0192845Y0114325D01*
X0195955Y0111716D01*
X0195955Y0111716D01*
X0199770Y0110327D01*
X0203830Y0110327D01*
X0207645Y0111716D01*
X0210755Y0114325D01*
X0210755Y0114325D01*
X0212785Y0117841D01*
X0212785Y0117841D01*
X0213047Y0119330D01*
X0213047Y0098943D01*
X0211351Y0100639D01*
X0208240Y0100639D01*
X0202766Y0106113D01*
X0195092Y0106113D01*
X0195092Y0106467D01*
X0194278Y0107281D01*
X0193794Y0107281D01*
X0193794Y0110227D01*
X0192510Y0111510D01*
X0191585Y0112435D01*
X0189269Y0112435D01*
X0189085Y0112620D01*
X0179271Y0112620D01*
X0178457Y0111805D01*
X0178457Y0108685D01*
X0179271Y0107870D01*
X0189085Y0107870D01*
X0189269Y0108054D01*
X0189413Y0108054D01*
X0189413Y0107281D01*
X0188795Y0107281D01*
X0188316Y0106802D01*
X0188279Y0106865D01*
X0187983Y0107161D01*
X0187621Y0107370D01*
X0187218Y0107478D01*
X0185028Y0107478D01*
X0185028Y0104106D01*
X0184659Y0104106D01*
X0184659Y0103738D01*
X0181091Y0103738D01*
X0181091Y0101745D01*
X0181199Y0101341D01*
X0181408Y0100979D01*
X0181703Y0100683D01*
X0182065Y0100474D01*
X0182469Y0100366D01*
X0184659Y0100366D01*
X0184659Y0103738D01*
X0185028Y0103738D01*
X0185028Y0100366D01*
X0187218Y0100366D01*
X0187621Y0100474D01*
X0187983Y0100683D01*
X0188279Y0100979D01*
X0188316Y0101042D01*
X0188795Y0100563D01*
X0194278Y0100563D01*
X0195092Y0101378D01*
X0195092Y0101731D01*
X0200952Y0101731D01*
X0205142Y0097541D01*
X0205142Y0094430D01*
X0207714Y0091858D01*
X0211351Y0091858D01*
X0213047Y0093555D01*
X0213047Y0088943D01*
X0211351Y0090639D01*
X0207714Y0090639D01*
X0207658Y0090584D01*
X0205293Y0092950D01*
X0202443Y0092950D01*
X0203923Y0094430D01*
X0203923Y0098067D01*
X0201351Y0100639D01*
X0197714Y0100639D01*
X0195536Y0098462D01*
X0187594Y0098462D01*
X0187154Y0098901D01*
X0186209Y0099293D01*
X0185186Y0099293D01*
X0184241Y0098901D01*
X0183517Y0098178D01*
X0183126Y0097233D01*
X0183126Y0096210D01*
X0183172Y0096100D01*
X0178933Y0096100D01*
X0178493Y0096539D01*
X0177548Y0096931D01*
X0176525Y0096931D01*
X0175579Y0096539D01*
X0174856Y0095816D01*
X0174465Y0094871D01*
X0174465Y0093848D01*
X0174492Y0093781D01*
X0173769Y0093781D01*
X0173072Y0093493D01*
X0173072Y0096943D01*
X0172343Y0097672D01*
X0172657Y0097853D01*
X0172952Y0098148D01*
X0173161Y0098510D01*
X0173269Y0098914D01*
X0173269Y0100907D01*
X0169701Y0100907D01*
X0169701Y0101276D01*
X0169332Y0101276D01*
X0169332Y0104647D01*
X0167142Y0104647D01*
X0166738Y0104539D01*
X0166376Y0104330D01*
X0166081Y0104035D01*
X0165872Y0103673D01*
X0165764Y0103269D01*
X0165764Y0101276D01*
X0169332Y0101276D01*
X0169332Y0100907D01*
X0165764Y0100907D01*
X0165764Y0098914D01*
X0165872Y0098510D01*
X0166081Y0098148D01*
X0166376Y0097853D01*
X0166690Y0097672D01*
X0165961Y0096943D01*
X0165961Y0091854D01*
X0166775Y0091039D01*
X0167894Y0091039D01*
X0167894Y0089250D01*
X0166957Y0088862D01*
X0166234Y0088139D01*
X0165843Y0087193D01*
X0165843Y0086170D01*
X0166234Y0085225D01*
X0166957Y0084502D01*
X0167903Y0084110D01*
X0168926Y0084110D01*
X0169363Y0084291D01*
X0169384Y0084241D01*
X0170107Y0083517D01*
X0171052Y0083126D01*
X0172075Y0083126D01*
X0173020Y0083517D01*
X0173460Y0083957D01*
X0175927Y0083957D01*
X0176367Y0083517D01*
X0177312Y0083126D01*
X0178335Y0083126D01*
X0179280Y0083517D01*
X0180004Y0084241D01*
X0180395Y0085186D01*
X0180395Y0086162D01*
X0182772Y0086162D01*
X0188145Y0080789D01*
X0187548Y0080789D01*
X0186603Y0080397D01*
X0185880Y0079674D01*
X0185488Y0078729D01*
X0185488Y0077706D01*
X0185880Y0076761D01*
X0186603Y0076037D01*
X0187548Y0075646D01*
X0188170Y0075646D01*
X0191437Y0072378D01*
X0191437Y0067260D01*
X0192457Y0066241D01*
X0193170Y0065528D01*
X0194189Y0064508D01*
X0195142Y0064508D01*
X0195142Y0064430D01*
X0196150Y0063422D01*
X0173814Y0063422D01*
X0173375Y0063862D01*
X0172430Y0064254D01*
X0171407Y0064254D01*
X0170461Y0063862D01*
X0169738Y0063139D01*
X0169346Y0062193D01*
X0169346Y0061170D01*
X0169679Y0060368D01*
X0169199Y0060848D01*
X0163322Y0060848D01*
X0162508Y0060033D01*
X0162508Y0057711D01*
X0157487Y0057711D01*
X0156204Y0056428D01*
X0156204Y0056428D01*
X0155585Y0055809D01*
X0155245Y0055809D01*
X0154192Y0055372D01*
X0153385Y0054566D01*
X0152949Y0053512D01*
X0152949Y0052371D01*
X0153385Y0051318D01*
X0154192Y0050511D01*
X0155245Y0050075D01*
X0156386Y0050075D01*
X0157440Y0050511D01*
X0158246Y0051318D01*
X0158683Y0052371D01*
X0158683Y0052711D01*
X0159302Y0053330D01*
X0162508Y0053330D01*
X0162508Y0051007D01*
X0163322Y0050193D01*
X0169199Y0050193D01*
X0170013Y0051007D01*
X0170013Y0059950D01*
X0170461Y0059502D01*
X0171407Y0059110D01*
X0172430Y0059110D01*
X0173375Y0059502D01*
X0173814Y0059941D01*
X0197016Y0059941D01*
X0195142Y0058067D01*
X0195142Y0056530D01*
X0191568Y0056530D01*
X0191568Y0058852D01*
X0190754Y0059667D01*
X0184878Y0059667D01*
X0184063Y0058852D01*
X0184063Y0049826D01*
X0184878Y0049012D01*
X0190754Y0049012D01*
X0191568Y0049826D01*
X0191568Y0052149D01*
X0197423Y0052149D01*
X0197714Y0051858D01*
X0201351Y0051858D01*
X0203923Y0054430D01*
X0203923Y0058067D01*
X0202049Y0059941D01*
X0205686Y0059941D01*
X0207658Y0061913D01*
X0207714Y0061858D01*
X0211351Y0061858D01*
X0213047Y0063555D01*
X0213047Y0058943D01*
X0211351Y0060639D01*
X0207714Y0060639D01*
X0205142Y0058067D01*
X0205142Y0054956D01*
X0195692Y0045506D01*
X0191568Y0045506D01*
X0191568Y0047829D01*
X0190754Y0048643D01*
X0184878Y0048643D01*
X0184063Y0047829D01*
X0184063Y0045506D01*
X0181756Y0045506D01*
X0181756Y0047148D01*
X0180941Y0047963D01*
X0172703Y0047963D01*
X0171888Y0047148D01*
X0171888Y0039697D01*
X0172703Y0038883D01*
X0180941Y0038883D01*
X0181756Y0039697D01*
X0181756Y0041125D01*
X0184063Y0041125D01*
X0184063Y0038803D01*
X0184878Y0037988D01*
X0190754Y0037988D01*
X0191568Y0038803D01*
X0191568Y0041125D01*
X0197507Y0041125D01*
X0208240Y0051858D01*
X0211351Y0051858D01*
X0213047Y0053555D01*
X0213047Y0032788D01*
X0212864Y0033830D01*
X0210834Y0037346D01*
X0210834Y0037346D01*
X0210834Y0037346D01*
X0207724Y0039955D01*
X0207724Y0039955D01*
X0203909Y0041344D01*
X0199849Y0041344D01*
X0196034Y0039955D01*
X0196034Y0039955D01*
X0192924Y0037346D01*
X0192924Y0037346D01*
X0190894Y0033830D01*
X0190894Y0033830D01*
X0190189Y0029831D01*
X0190894Y0025833D01*
X0192924Y0022317D01*
X0196034Y0019708D01*
X0199121Y0018584D01*
X0185933Y0018584D01*
X0186183Y0018834D01*
X0186694Y0020069D01*
X0186694Y0021405D01*
X0186183Y0022640D01*
X0185238Y0023585D01*
X0184004Y0024096D01*
X0182667Y0024096D01*
X0181433Y0023585D01*
X0180488Y0022640D01*
X0179976Y0021405D01*
X0179976Y0020069D01*
X0180488Y0018834D01*
X0180738Y0018584D01*
X0052075Y0018584D01*
X0052325Y0018834D01*
X0052836Y0020069D01*
X0052836Y0021405D01*
X0052325Y0022640D01*
X0051380Y0023585D01*
X0050145Y0024096D01*
X0048809Y0024096D01*
X0047574Y0023585D01*
X0046629Y0022640D01*
X0046118Y0021405D01*
X0046118Y0020069D01*
X0046629Y0018834D01*
X0046880Y0018584D01*
X0033711Y0018584D01*
X0037015Y0019787D01*
X0040125Y0022396D01*
X0040125Y0022396D01*
X0042155Y0025912D01*
X0042155Y0025912D01*
X0042860Y0029910D01*
X0042155Y0033908D01*
X0042155Y0033908D01*
X0040125Y0037424D01*
X0040125Y0037424D01*
X0040125Y0037424D01*
X0040958Y0035982D02*
X0142853Y0035982D01*
X0144763Y0035982D02*
X0192137Y0035982D01*
X0191214Y0034384D02*
X0041880Y0034384D01*
X0042353Y0032785D02*
X0190710Y0032785D01*
X0190428Y0031187D02*
X0042635Y0031187D01*
X0042803Y0029588D02*
X0190232Y0029588D01*
X0190514Y0027990D02*
X0167223Y0027990D01*
X0167179Y0028033D02*
X0162878Y0028033D01*
X0162076Y0027231D01*
X0161274Y0028033D01*
X0156972Y0028033D01*
X0156859Y0027920D01*
X0156156Y0028624D01*
X0151067Y0028624D01*
X0150338Y0027895D01*
X0150157Y0028208D01*
X0149861Y0028503D01*
X0149499Y0028712D01*
X0149096Y0028820D01*
X0147102Y0028820D01*
X0147102Y0025252D01*
X0146734Y0025252D01*
X0146734Y0028820D01*
X0144741Y0028820D01*
X0144337Y0028712D01*
X0143975Y0028503D01*
X0143679Y0028208D01*
X0143470Y0027846D01*
X0143362Y0027442D01*
X0143362Y0025252D01*
X0146734Y0025252D01*
X0146734Y0024883D01*
X0147102Y0024883D01*
X0147102Y0021315D01*
X0149096Y0021315D01*
X0149499Y0021423D01*
X0149861Y0021632D01*
X0150157Y0021928D01*
X0150338Y0022241D01*
X0151067Y0021512D01*
X0156156Y0021512D01*
X0156859Y0022215D01*
X0156972Y0022102D01*
X0161274Y0022102D01*
X0162076Y0022904D01*
X0162878Y0022102D01*
X0167179Y0022102D01*
X0167954Y0022877D01*
X0168479Y0022877D01*
X0168719Y0022637D01*
X0169773Y0022201D01*
X0170914Y0022201D01*
X0171967Y0022637D01*
X0172774Y0023444D01*
X0173210Y0024497D01*
X0173210Y0025638D01*
X0172774Y0026692D01*
X0171967Y0027498D01*
X0170914Y0027935D01*
X0169773Y0027935D01*
X0168719Y0027498D01*
X0168479Y0027258D01*
X0167954Y0027258D01*
X0167179Y0028033D01*
X0165028Y0025068D02*
X0170343Y0025068D01*
X0172898Y0026391D02*
X0190796Y0026391D01*
X0190894Y0025833D02*
X0190894Y0025833D01*
X0191495Y0024793D02*
X0173210Y0024793D01*
X0172524Y0023194D02*
X0181042Y0023194D01*
X0180055Y0021596D02*
X0156239Y0021596D01*
X0150983Y0021596D02*
X0149798Y0021596D01*
X0147102Y0021596D02*
X0146734Y0021596D01*
X0146734Y0021315D02*
X0144741Y0021315D01*
X0144337Y0021423D01*
X0143975Y0021632D01*
X0143679Y0021928D01*
X0143470Y0022290D01*
X0143362Y0022693D01*
X0143362Y0024883D01*
X0146734Y0024883D01*
X0146734Y0021315D01*
X0146734Y0023194D02*
X0147102Y0023194D01*
X0147102Y0024793D02*
X0146734Y0024793D01*
X0146734Y0026391D02*
X0147102Y0026391D01*
X0147102Y0027990D02*
X0146734Y0027990D01*
X0143553Y0027990D02*
X0042521Y0027990D01*
X0042239Y0026391D02*
X0143362Y0026391D01*
X0143362Y0024793D02*
X0041508Y0024793D01*
X0040586Y0023194D02*
X0047184Y0023194D01*
X0046197Y0021596D02*
X0039171Y0021596D01*
X0037266Y0019997D02*
X0046148Y0019997D01*
X0051771Y0023194D02*
X0143362Y0023194D01*
X0144038Y0021596D02*
X0052757Y0021596D01*
X0052806Y0019997D02*
X0180006Y0019997D01*
X0185629Y0023194D02*
X0192418Y0023194D01*
X0193784Y0021596D02*
X0186616Y0021596D01*
X0186665Y0019997D02*
X0195689Y0019997D01*
X0196034Y0019708D02*
X0196034Y0019708D01*
X0212864Y0033830D02*
X0212864Y0033830D01*
X0213047Y0034384D02*
X0212544Y0034384D01*
X0213047Y0035982D02*
X0211621Y0035982D01*
X0210553Y0037581D02*
X0213047Y0037581D01*
X0213047Y0039179D02*
X0208648Y0039179D01*
X0205464Y0040778D02*
X0213047Y0040778D01*
X0213047Y0042376D02*
X0198758Y0042376D01*
X0198294Y0040778D02*
X0191568Y0040778D01*
X0191568Y0039179D02*
X0195109Y0039179D01*
X0193204Y0037581D02*
X0146452Y0037581D01*
X0146675Y0039179D02*
X0163115Y0039179D01*
X0163286Y0039081D02*
X0163689Y0038972D01*
X0165880Y0038972D01*
X0165880Y0044116D01*
X0166642Y0044116D01*
X0166642Y0044878D01*
X0170210Y0044878D01*
X0170210Y0048643D01*
X0170102Y0049047D01*
X0169893Y0049409D01*
X0169598Y0049704D01*
X0169236Y0049913D01*
X0168832Y0050021D01*
X0166642Y0050021D01*
X0166642Y0044878D01*
X0165880Y0044878D01*
X0165880Y0050021D01*
X0163689Y0050021D01*
X0163286Y0049913D01*
X0162924Y0049704D01*
X0162628Y0049409D01*
X0162419Y0049047D01*
X0162311Y0048643D01*
X0162311Y0044878D01*
X0165879Y0044878D01*
X0165879Y0044116D01*
X0162311Y0044116D01*
X0162311Y0040351D01*
X0162419Y0039947D01*
X0162628Y0039585D01*
X0162924Y0039290D01*
X0163286Y0039081D01*
X0162311Y0040778D02*
X0147167Y0040778D01*
X0147167Y0042376D02*
X0162311Y0042376D01*
X0162311Y0043975D02*
X0147167Y0043975D01*
X0147159Y0045573D02*
X0162311Y0045573D01*
X0162311Y0047172D02*
X0147167Y0047172D01*
X0147167Y0048770D02*
X0162345Y0048770D01*
X0163147Y0050369D02*
X0157096Y0050369D01*
X0158515Y0051967D02*
X0162508Y0051967D01*
X0165880Y0048770D02*
X0166642Y0048770D01*
X0166642Y0047172D02*
X0165880Y0047172D01*
X0165880Y0045573D02*
X0166642Y0045573D01*
X0166642Y0044116D02*
X0170210Y0044116D01*
X0170210Y0040351D01*
X0170102Y0039947D01*
X0169893Y0039585D01*
X0169598Y0039290D01*
X0169236Y0039081D01*
X0168832Y0038972D01*
X0166642Y0038972D01*
X0166642Y0044116D01*
X0166642Y0043975D02*
X0165880Y0043975D01*
X0165880Y0042376D02*
X0166642Y0042376D01*
X0166642Y0040778D02*
X0165880Y0040778D01*
X0165880Y0039179D02*
X0166642Y0039179D01*
X0169406Y0039179D02*
X0172406Y0039179D01*
X0171888Y0040778D02*
X0170210Y0040778D01*
X0170210Y0042376D02*
X0171888Y0042376D01*
X0171888Y0043975D02*
X0170210Y0043975D01*
X0170210Y0045573D02*
X0171888Y0045573D01*
X0171911Y0047172D02*
X0170210Y0047172D01*
X0170176Y0048770D02*
X0198956Y0048770D01*
X0197357Y0047172D02*
X0191568Y0047172D01*
X0191568Y0045573D02*
X0195759Y0045573D01*
X0196599Y0043316D02*
X0209532Y0056249D01*
X0205142Y0056763D02*
X0203923Y0056763D01*
X0203923Y0055164D02*
X0205142Y0055164D01*
X0203751Y0053566D02*
X0203058Y0053566D01*
X0202153Y0051967D02*
X0201460Y0051967D01*
X0200554Y0050369D02*
X0191568Y0050369D01*
X0191568Y0051967D02*
X0197605Y0051967D01*
X0197623Y0054339D02*
X0199532Y0056249D01*
X0197623Y0054339D02*
X0187816Y0054339D01*
X0184063Y0053566D02*
X0181953Y0053566D01*
X0181953Y0053672D02*
X0177597Y0053672D01*
X0177597Y0055221D01*
X0181953Y0055221D01*
X0181953Y0057805D01*
X0181845Y0058209D01*
X0181636Y0058571D01*
X0181340Y0058866D01*
X0180978Y0059075D01*
X0180574Y0059183D01*
X0177597Y0059183D01*
X0177597Y0055221D01*
X0176047Y0055221D01*
X0176047Y0053672D01*
X0171691Y0053672D01*
X0171691Y0051088D01*
X0171800Y0050684D01*
X0172009Y0050322D01*
X0172304Y0050027D01*
X0172666Y0049818D01*
X0173070Y0049709D01*
X0176047Y0049709D01*
X0176047Y0053672D01*
X0177597Y0053672D01*
X0177597Y0049709D01*
X0180574Y0049709D01*
X0180978Y0049818D01*
X0181340Y0050027D01*
X0181636Y0050322D01*
X0181845Y0050684D01*
X0181953Y0051088D01*
X0181953Y0053672D01*
X0181953Y0051967D02*
X0184063Y0051967D01*
X0184063Y0050369D02*
X0181662Y0050369D01*
X0177597Y0050369D02*
X0176047Y0050369D01*
X0176047Y0051967D02*
X0177597Y0051967D01*
X0177597Y0053566D02*
X0176047Y0053566D01*
X0176047Y0055164D02*
X0170013Y0055164D01*
X0170013Y0053566D02*
X0171691Y0053566D01*
X0171691Y0051967D02*
X0170013Y0051967D01*
X0169375Y0050369D02*
X0171982Y0050369D01*
X0171691Y0055221D02*
X0171691Y0057805D01*
X0171800Y0058209D01*
X0172009Y0058571D01*
X0172304Y0058866D01*
X0172666Y0059075D01*
X0173070Y0059183D01*
X0176047Y0059183D01*
X0176047Y0055221D01*
X0171691Y0055221D01*
X0171691Y0056763D02*
X0170013Y0056763D01*
X0170013Y0058361D02*
X0171888Y0058361D01*
X0169346Y0061558D02*
X0149066Y0061558D01*
X0149066Y0059960D02*
X0162508Y0059960D01*
X0162508Y0058361D02*
X0149066Y0058361D01*
X0149066Y0056763D02*
X0156539Y0056763D01*
X0158394Y0055520D02*
X0166261Y0055520D01*
X0158394Y0055520D02*
X0155816Y0052942D01*
X0153116Y0051967D02*
X0147831Y0051967D01*
X0147167Y0050369D02*
X0154536Y0050369D01*
X0152971Y0053566D02*
X0149498Y0053566D01*
X0149558Y0055164D02*
X0153984Y0055164D01*
X0149066Y0063157D02*
X0169756Y0063157D01*
X0167153Y0067065D02*
X0167448Y0067361D01*
X0167657Y0067723D01*
X0167765Y0068126D01*
X0167765Y0070120D01*
X0164197Y0070120D01*
X0164197Y0066748D01*
X0166387Y0066748D01*
X0166791Y0066856D01*
X0167153Y0067065D01*
X0167719Y0067952D02*
X0191437Y0067952D01*
X0191437Y0069551D02*
X0167765Y0069551D01*
X0167765Y0071149D02*
X0191437Y0071149D01*
X0191068Y0072748D02*
X0167694Y0072748D01*
X0167463Y0074346D02*
X0189469Y0074346D01*
X0186826Y0075945D02*
X0167568Y0075945D01*
X0168981Y0077543D02*
X0185555Y0077543D01*
X0185659Y0079142D02*
X0171744Y0079142D01*
X0172128Y0080740D02*
X0187431Y0080740D01*
X0186595Y0082339D02*
X0171433Y0082339D01*
X0169687Y0083937D02*
X0157299Y0083937D01*
X0157029Y0082339D02*
X0156454Y0082339D01*
X0156335Y0080740D02*
X0156011Y0080740D01*
X0153130Y0083937D02*
X0152594Y0083937D01*
X0152654Y0085536D02*
X0151395Y0085536D01*
X0151395Y0087134D02*
X0153222Y0087134D01*
X0151395Y0088733D02*
X0166828Y0088733D01*
X0165843Y0087134D02*
X0157228Y0087134D01*
X0157797Y0085536D02*
X0166105Y0085536D01*
X0167678Y0082339D02*
X0160784Y0082339D01*
X0161478Y0080740D02*
X0166984Y0080740D01*
X0173440Y0083937D02*
X0175947Y0083937D01*
X0179700Y0083937D02*
X0184996Y0083937D01*
X0183398Y0085536D02*
X0180395Y0085536D01*
X0173159Y0093529D02*
X0173072Y0093529D01*
X0173072Y0095127D02*
X0174571Y0095127D01*
X0176029Y0096726D02*
X0173072Y0096726D01*
X0173054Y0098324D02*
X0183664Y0098324D01*
X0183126Y0096726D02*
X0178043Y0096726D01*
X0173269Y0099923D02*
X0196997Y0099923D01*
X0195092Y0101521D02*
X0201162Y0101521D01*
X0202068Y0099923D02*
X0202761Y0099923D01*
X0203666Y0098324D02*
X0204359Y0098324D01*
X0203923Y0096726D02*
X0205142Y0096726D01*
X0205142Y0095127D02*
X0203923Y0095127D01*
X0203021Y0093529D02*
X0206043Y0093529D01*
X0206313Y0091930D02*
X0207642Y0091930D01*
X0211423Y0091930D02*
X0213047Y0091930D01*
X0213047Y0090332D02*
X0211659Y0090332D01*
X0213021Y0093529D02*
X0213047Y0093529D01*
X0209532Y0096249D02*
X0201859Y0103922D01*
X0191536Y0103922D01*
X0191603Y0103989D01*
X0191603Y0109320D01*
X0190678Y0110245D01*
X0184178Y0110245D01*
X0184659Y0107478D02*
X0182469Y0107478D01*
X0182065Y0107370D01*
X0181703Y0107161D01*
X0181408Y0106865D01*
X0181199Y0106503D01*
X0181091Y0106100D01*
X0181091Y0104106D01*
X0184659Y0104106D01*
X0184659Y0107478D01*
X0184659Y0106317D02*
X0185028Y0106317D01*
X0185028Y0104718D02*
X0184659Y0104718D01*
X0184659Y0103120D02*
X0185028Y0103120D01*
X0185028Y0101521D02*
X0184659Y0101521D01*
X0181150Y0101521D02*
X0173269Y0101521D01*
X0173269Y0101276D02*
X0173269Y0103269D01*
X0173161Y0103673D01*
X0172952Y0104035D01*
X0172657Y0104330D01*
X0172295Y0104539D01*
X0171891Y0104647D01*
X0169701Y0104647D01*
X0169701Y0101276D01*
X0173269Y0101276D01*
X0173269Y0103120D02*
X0181091Y0103120D01*
X0181091Y0104718D02*
X0145584Y0104718D01*
X0145750Y0104319D02*
X0145358Y0105265D01*
X0144635Y0105988D01*
X0143689Y0106380D01*
X0142666Y0106380D01*
X0141721Y0105988D01*
X0141282Y0105548D01*
X0136486Y0105548D01*
X0136694Y0106052D01*
X0136694Y0107075D01*
X0136303Y0108020D01*
X0135863Y0108460D01*
X0135863Y0112958D01*
X0136091Y0112730D01*
X0137036Y0112339D01*
X0138060Y0112339D01*
X0139005Y0112730D01*
X0139444Y0113170D01*
X0139598Y0113170D01*
X0139598Y0112582D01*
X0140413Y0111768D01*
X0144052Y0111768D01*
X0147276Y0108544D01*
X0153802Y0108544D01*
X0154437Y0107909D01*
X0164250Y0107909D01*
X0165065Y0108724D01*
X0165065Y0111844D01*
X0164250Y0112659D01*
X0154437Y0112659D01*
X0153802Y0112025D01*
X0152452Y0112025D01*
X0153009Y0112582D01*
X0153009Y0113544D01*
X0153802Y0113544D01*
X0154437Y0112909D01*
X0164250Y0112909D01*
X0164904Y0113563D01*
X0170415Y0113563D01*
X0170855Y0113124D01*
X0171800Y0112732D01*
X0172823Y0112732D01*
X0173769Y0113124D01*
X0174492Y0113847D01*
X0174883Y0114792D01*
X0174883Y0115815D01*
X0174492Y0116761D01*
X0173769Y0117484D01*
X0172823Y0117876D01*
X0171800Y0117876D01*
X0170855Y0117484D01*
X0170415Y0117044D01*
X0164865Y0117044D01*
X0164250Y0117659D01*
X0154437Y0117659D01*
X0153802Y0117025D01*
X0153009Y0117025D01*
X0153009Y0118065D01*
X0152907Y0118168D01*
X0153283Y0118544D01*
X0153802Y0118544D01*
X0154437Y0117909D01*
X0164250Y0117909D01*
X0164884Y0118544D01*
X0167325Y0118544D01*
X0167745Y0118124D01*
X0168690Y0117732D01*
X0169713Y0117732D01*
X0170658Y0118124D01*
X0171382Y0118847D01*
X0171773Y0119792D01*
X0171773Y0120815D01*
X0171382Y0121761D01*
X0170658Y0122484D01*
X0169713Y0122876D01*
X0168690Y0122876D01*
X0167745Y0122484D01*
X0167286Y0122025D01*
X0164884Y0122025D01*
X0164250Y0122659D01*
X0154437Y0122659D01*
X0153802Y0122025D01*
X0153401Y0122025D01*
X0152902Y0122523D01*
X0152292Y0122776D01*
X0152942Y0123045D01*
X0153401Y0123504D01*
X0153802Y0123504D01*
X0154437Y0122870D01*
X0164250Y0122870D01*
X0164904Y0123524D01*
X0173211Y0123524D01*
X0173650Y0123084D01*
X0174596Y0122693D01*
X0175619Y0122693D01*
X0176564Y0123084D01*
X0177287Y0123808D01*
X0177679Y0124753D01*
X0177679Y0125776D01*
X0177287Y0126721D01*
X0176564Y0127445D01*
X0175619Y0127836D01*
X0174596Y0127836D01*
X0173650Y0127445D01*
X0173211Y0127005D01*
X0164865Y0127005D01*
X0164250Y0127620D01*
X0154437Y0127620D01*
X0153802Y0126985D01*
X0153362Y0126985D01*
X0152942Y0127405D01*
X0151997Y0127797D01*
X0150973Y0127797D01*
X0150028Y0127405D01*
X0149305Y0126682D01*
X0148913Y0125737D01*
X0148913Y0124714D01*
X0149305Y0123768D01*
X0150028Y0123045D01*
X0150638Y0122792D01*
X0149989Y0122523D01*
X0149266Y0121800D01*
X0148874Y0120855D01*
X0148874Y0119832D01*
X0149266Y0118887D01*
X0149273Y0118880D01*
X0147114Y0118880D01*
X0147872Y0119637D01*
X0147872Y0124726D01*
X0147143Y0125455D01*
X0147456Y0125636D01*
X0147751Y0125932D01*
X0147960Y0126294D01*
X0148068Y0126697D01*
X0148068Y0128691D01*
X0144500Y0128691D01*
X0144500Y0129059D01*
X0148068Y0129059D01*
X0148068Y0131052D01*
X0147960Y0131456D01*
X0147751Y0131818D01*
X0147456Y0132114D01*
X0147094Y0132323D01*
X0146690Y0132431D01*
X0144500Y0132431D01*
X0144500Y0129059D01*
X0144131Y0129059D01*
X0144131Y0128691D01*
X0140563Y0128691D01*
X0140563Y0126697D01*
X0140671Y0126294D01*
X0140880Y0125932D01*
X0141176Y0125636D01*
X0141489Y0125455D01*
X0140760Y0124726D01*
X0140760Y0119637D01*
X0141518Y0118880D01*
X0140413Y0118880D01*
X0139598Y0118065D01*
X0139598Y0116651D01*
X0139444Y0116651D01*
X0139005Y0117090D01*
X0138060Y0117482D01*
X0137036Y0117482D01*
X0136694Y0117340D01*
X0136694Y0117705D01*
X0136303Y0118650D01*
X0135580Y0119374D01*
X0134634Y0119765D01*
X0133611Y0119765D01*
X0132674Y0119377D01*
X0132674Y0120297D01*
X0133114Y0120737D01*
X0133505Y0121682D01*
X0133505Y0122705D01*
X0133114Y0123650D01*
X0132391Y0124374D01*
X0131445Y0124765D01*
X0130422Y0124765D01*
X0129477Y0124374D01*
X0128754Y0123650D01*
X0128362Y0122705D01*
X0128362Y0121682D01*
X0128754Y0120737D01*
X0129193Y0120297D01*
X0129193Y0117289D01*
X0128729Y0117482D01*
X0127706Y0117482D01*
X0126761Y0117090D01*
X0126321Y0116651D01*
X0120986Y0116651D01*
X0116476Y0121160D01*
X0116925Y0121346D01*
X0118160Y0122581D01*
X0118375Y0123099D01*
X0118590Y0122581D01*
X0119825Y0121346D01*
X0121438Y0120677D01*
X0123185Y0120677D01*
X0124799Y0121346D01*
X0126034Y0122581D01*
X0126702Y0124194D01*
X0126702Y0125941D01*
X0126034Y0127555D01*
X0124799Y0128790D01*
X0123185Y0129458D01*
X0121438Y0129458D01*
X0119825Y0128790D01*
X0118590Y0127555D01*
X0118375Y0127036D01*
X0118160Y0127555D01*
X0116925Y0128790D01*
X0115311Y0129458D01*
X0113564Y0129458D01*
X0111951Y0128790D01*
X0110716Y0127555D01*
X0110501Y0127036D01*
X0110286Y0127555D01*
X0109051Y0128790D01*
X0107437Y0129458D01*
X0105690Y0129458D01*
X0104077Y0128790D01*
X0102842Y0127555D01*
X0102627Y0127036D01*
X0102412Y0127555D01*
X0101177Y0128790D01*
X0099563Y0129458D01*
X0097816Y0129458D01*
X0096203Y0128790D01*
X0095206Y0127793D01*
X0095206Y0128644D01*
X0094392Y0129458D01*
X0087240Y0129458D01*
X0086425Y0128644D01*
X0086425Y0121492D01*
X0087240Y0120677D01*
X0094392Y0120677D01*
X0095206Y0121492D01*
X0095206Y0122342D01*
X0096203Y0121346D01*
X0097816Y0120677D01*
X0099563Y0120677D01*
X0101177Y0121346D01*
X0102412Y0122581D01*
X0102627Y0123099D01*
X0102842Y0122581D01*
X0104077Y0121346D01*
X0105690Y0120677D01*
X0107437Y0120677D01*
X0109051Y0121346D01*
X0110286Y0122581D01*
X0110501Y0123099D01*
X0110716Y0122581D01*
X0111951Y0121346D01*
X0112697Y0121036D01*
X0112697Y0120016D01*
X0118524Y0114189D01*
X0119544Y0113170D01*
X0126321Y0113170D01*
X0126761Y0112730D01*
X0127706Y0112339D01*
X0128729Y0112339D01*
X0129193Y0112531D01*
X0129193Y0108381D01*
X0128754Y0107942D01*
X0128362Y0106997D01*
X0128362Y0105973D01*
X0128538Y0105548D01*
X0111610Y0105548D01*
X0111170Y0105988D01*
X0110225Y0106380D01*
X0109202Y0106380D01*
X0108257Y0105988D01*
X0107533Y0105265D01*
X0107142Y0104319D01*
X0107142Y0103296D01*
X0107533Y0102351D01*
X0108257Y0101628D01*
X0109110Y0101274D01*
X0109110Y0100540D01*
X0109502Y0099595D01*
X0110225Y0098872D01*
X0111170Y0098480D01*
X0112193Y0098480D01*
X0113139Y0098872D01*
X0113578Y0099311D01*
X0138998Y0099311D01*
X0139438Y0098872D01*
X0140383Y0098480D01*
X0141406Y0098480D01*
X0142351Y0098872D01*
X0143075Y0099595D01*
X0143466Y0100540D01*
X0143466Y0101236D01*
X0143689Y0101236D01*
X0144635Y0101628D01*
X0145358Y0102351D01*
X0145750Y0103296D01*
X0145750Y0104319D01*
X0145676Y0103120D02*
X0154579Y0103120D01*
X0154579Y0101521D02*
X0144377Y0101521D01*
X0144868Y0099923D02*
X0143210Y0099923D01*
X0144504Y0098324D02*
X0131978Y0098324D01*
X0129889Y0098324D02*
X0103576Y0098324D01*
X0103576Y0099923D02*
X0109366Y0099923D01*
X0108514Y0101521D02*
X0103576Y0101521D01*
X0103569Y0103120D02*
X0107215Y0103120D01*
X0107307Y0104718D02*
X0103576Y0104718D01*
X0103576Y0106317D02*
X0109050Y0106317D01*
X0110377Y0106317D02*
X0128362Y0106317D01*
X0128743Y0107915D02*
X0103576Y0107915D01*
X0103576Y0109514D02*
X0129193Y0109514D01*
X0129193Y0111112D02*
X0062388Y0111112D01*
X0062787Y0110713D02*
X0061067Y0112434D01*
X0058819Y0113365D01*
X0056387Y0113365D01*
X0054139Y0112434D01*
X0052419Y0110713D01*
X0051488Y0108466D01*
X0051488Y0106033D01*
X0052419Y0103786D01*
X0054139Y0102066D01*
X0056387Y0101135D01*
X0058819Y0101135D01*
X0061067Y0102066D01*
X0062787Y0103786D01*
X0063718Y0106033D01*
X0063718Y0108466D01*
X0062787Y0110713D01*
X0063284Y0109514D02*
X0091916Y0109514D01*
X0091059Y0107915D02*
X0063718Y0107915D01*
X0063718Y0106317D02*
X0091300Y0106317D01*
X0093076Y0104718D02*
X0063173Y0104718D01*
X0062121Y0103120D02*
X0096866Y0103120D01*
X0096858Y0104718D02*
X0094776Y0104718D01*
X0093926Y0107469D02*
X0099812Y0107469D01*
X0100217Y0107064D01*
X0096858Y0101521D02*
X0059752Y0101521D01*
X0055454Y0101521D02*
X0053408Y0101521D01*
X0053875Y0100393D02*
X0052615Y0103436D01*
X0050286Y0105765D01*
X0047242Y0107026D01*
X0043948Y0107026D01*
X0040905Y0105765D01*
X0038575Y0103436D01*
X0037315Y0100393D01*
X0037315Y0097099D01*
X0038575Y0094055D01*
X0040905Y0091726D01*
X0043948Y0090465D01*
X0047242Y0090465D01*
X0050286Y0091726D01*
X0052615Y0094055D01*
X0053875Y0097099D01*
X0053875Y0100393D01*
X0053875Y0099923D02*
X0075050Y0099923D01*
X0073972Y0098324D02*
X0053875Y0098324D01*
X0053721Y0096726D02*
X0073972Y0096726D01*
X0073972Y0095127D02*
X0064916Y0095127D01*
X0066670Y0093529D02*
X0072994Y0093529D01*
X0068055Y0091930D02*
X0067147Y0091930D01*
X0061598Y0095127D02*
X0053059Y0095127D01*
X0052088Y0093529D02*
X0059843Y0093529D01*
X0059366Y0091930D02*
X0050490Y0091930D01*
X0045250Y0088041D02*
X0044435Y0088856D01*
X0040719Y0088856D01*
X0033979Y0095595D01*
X0033979Y0097469D01*
X0034587Y0097720D01*
X0035725Y0098859D01*
X0036342Y0100347D01*
X0036342Y0101957D01*
X0035725Y0103445D01*
X0034587Y0104584D01*
X0033099Y0105200D01*
X0031488Y0105200D01*
X0030001Y0104584D01*
X0028862Y0103445D01*
X0028246Y0101957D01*
X0028246Y0100347D01*
X0028862Y0098859D01*
X0030001Y0097720D01*
X0030608Y0097469D01*
X0030608Y0094199D01*
X0038138Y0086669D01*
X0038138Y0082952D01*
X0038867Y0082223D01*
X0038554Y0082043D01*
X0038258Y0081747D01*
X0038049Y0081385D01*
X0037941Y0080981D01*
X0037941Y0078988D01*
X0041509Y0078988D01*
X0041509Y0078620D01*
X0037941Y0078620D01*
X0037941Y0076626D01*
X0038049Y0076223D01*
X0038122Y0076097D01*
X0038049Y0075972D01*
X0037941Y0075568D01*
X0037941Y0073575D01*
X0041509Y0073575D01*
X0041509Y0073206D01*
X0037941Y0073206D01*
X0037941Y0071213D01*
X0038049Y0070809D01*
X0038258Y0070447D01*
X0038554Y0070152D01*
X0038867Y0069971D01*
X0038138Y0069242D01*
X0038138Y0068383D01*
X0036953Y0068383D01*
X0035966Y0067396D01*
X0033708Y0065138D01*
X0033101Y0065390D01*
X0031490Y0065390D01*
X0030003Y0064774D01*
X0028864Y0063635D01*
X0028248Y0062147D01*
X0028248Y0060537D01*
X0028864Y0059049D01*
X0030003Y0057910D01*
X0031490Y0057294D01*
X0033101Y0057294D01*
X0034589Y0057910D01*
X0035727Y0059049D01*
X0036344Y0060537D01*
X0036344Y0062147D01*
X0036092Y0062754D01*
X0038138Y0064800D01*
X0038138Y0064153D01*
X0038952Y0063339D01*
X0044435Y0063339D01*
X0045250Y0064153D01*
X0045250Y0069242D01*
X0044521Y0069971D01*
X0044834Y0070152D01*
X0045129Y0070447D01*
X0045338Y0070809D01*
X0045446Y0071213D01*
X0045446Y0073206D01*
X0041878Y0073206D01*
X0041878Y0073575D01*
X0041509Y0073575D01*
X0041509Y0076946D01*
X0041509Y0078620D01*
X0041878Y0078620D01*
X0041878Y0078988D01*
X0045446Y0078988D01*
X0045446Y0080981D01*
X0045338Y0081385D01*
X0045129Y0081747D01*
X0044834Y0082043D01*
X0044521Y0082223D01*
X0045250Y0082952D01*
X0045250Y0088041D01*
X0045250Y0087134D02*
X0049693Y0087134D01*
X0049766Y0087177D02*
X0049404Y0086968D01*
X0049109Y0086672D01*
X0048900Y0086310D01*
X0048791Y0085907D01*
X0048791Y0082142D01*
X0052360Y0082142D01*
X0052360Y0087285D01*
X0050170Y0087285D01*
X0049766Y0087177D01*
X0048791Y0085536D02*
X0045250Y0085536D01*
X0045250Y0083937D02*
X0048791Y0083937D01*
X0048791Y0082339D02*
X0044636Y0082339D01*
X0045446Y0080740D02*
X0048791Y0080740D01*
X0048791Y0081380D02*
X0048791Y0077615D01*
X0048900Y0077211D01*
X0049109Y0076849D01*
X0049404Y0076553D01*
X0049766Y0076344D01*
X0050170Y0076236D01*
X0052360Y0076236D01*
X0052360Y0081379D01*
X0053122Y0081379D01*
X0053122Y0076236D01*
X0055312Y0076236D01*
X0055716Y0076344D01*
X0056078Y0076553D01*
X0056373Y0076849D01*
X0056582Y0077211D01*
X0056691Y0077615D01*
X0056691Y0081380D01*
X0053122Y0081380D01*
X0053122Y0082142D01*
X0052360Y0082142D01*
X0052360Y0081380D01*
X0048791Y0081380D01*
X0052360Y0080740D02*
X0053122Y0080740D01*
X0053122Y0082142D02*
X0056691Y0082142D01*
X0056691Y0085907D01*
X0056582Y0086310D01*
X0056373Y0086672D01*
X0056078Y0086968D01*
X0055716Y0087177D01*
X0055312Y0087285D01*
X0053122Y0087285D01*
X0053122Y0082142D01*
X0053122Y0082339D02*
X0052360Y0082339D01*
X0052360Y0083937D02*
X0053122Y0083937D01*
X0053122Y0085536D02*
X0052360Y0085536D01*
X0052360Y0087134D02*
X0053122Y0087134D01*
X0055789Y0087134D02*
X0061311Y0087134D01*
X0060625Y0088733D02*
X0044558Y0088733D01*
X0040701Y0091930D02*
X0037645Y0091930D01*
X0039102Y0093529D02*
X0036046Y0093529D01*
X0034448Y0095127D02*
X0038131Y0095127D01*
X0037469Y0096726D02*
X0033979Y0096726D01*
X0035190Y0098324D02*
X0037315Y0098324D01*
X0037315Y0099923D02*
X0036166Y0099923D01*
X0036342Y0101521D02*
X0037782Y0101521D01*
X0038444Y0103120D02*
X0035860Y0103120D01*
X0034263Y0104718D02*
X0039857Y0104718D01*
X0042235Y0106317D02*
X0019765Y0106317D01*
X0019765Y0107915D02*
X0051488Y0107915D01*
X0051488Y0106317D02*
X0048955Y0106317D01*
X0051333Y0104718D02*
X0052033Y0104718D01*
X0052746Y0103120D02*
X0053085Y0103120D01*
X0051922Y0109514D02*
X0019765Y0109514D01*
X0019765Y0111112D02*
X0026826Y0111112D01*
X0025168Y0111716D02*
X0025168Y0111716D01*
X0023982Y0112711D02*
X0019765Y0112711D01*
X0019765Y0114309D02*
X0022077Y0114309D01*
X0022058Y0114325D02*
X0022058Y0114325D01*
X0022058Y0114325D01*
X0021144Y0115908D02*
X0019765Y0115908D01*
X0019765Y0117506D02*
X0020221Y0117506D01*
X0020028Y0117841D02*
X0020028Y0117841D01*
X0019805Y0119105D02*
X0019765Y0119105D01*
X0035199Y0111112D02*
X0052818Y0111112D01*
X0054808Y0112711D02*
X0038043Y0112711D01*
X0039948Y0114309D02*
X0118404Y0114309D01*
X0116806Y0115908D02*
X0080556Y0115908D01*
X0080304Y0115803D02*
X0081249Y0116195D01*
X0081972Y0116918D01*
X0082364Y0117863D01*
X0082364Y0118886D01*
X0081983Y0119806D01*
X0081983Y0120239D01*
X0083412Y0120831D01*
X0085210Y0122629D01*
X0086183Y0124978D01*
X0086183Y0127520D01*
X0085210Y0129869D01*
X0083412Y0131666D01*
X0081063Y0132639D01*
X0078521Y0132639D01*
X0076172Y0131666D01*
X0074374Y0129869D01*
X0073887Y0128691D01*
X0073399Y0129869D01*
X0071601Y0131666D01*
X0069252Y0132639D01*
X0066710Y0132639D01*
X0064361Y0131666D01*
X0062563Y0129869D01*
X0062182Y0128948D01*
X0062091Y0129169D01*
X0061659Y0129916D01*
X0061133Y0130602D01*
X0060523Y0131212D01*
X0059838Y0131738D01*
X0059090Y0132170D01*
X0058292Y0132500D01*
X0057458Y0132723D01*
X0056970Y0132788D01*
X0056970Y0127049D01*
X0055370Y0127049D01*
X0055370Y0125449D01*
X0049631Y0125449D01*
X0049695Y0124961D01*
X0049919Y0124127D01*
X0050249Y0123329D01*
X0050681Y0122581D01*
X0051207Y0121896D01*
X0051817Y0121286D01*
X0052502Y0120760D01*
X0053250Y0120328D01*
X0054048Y0119998D01*
X0054882Y0119774D01*
X0055370Y0119710D01*
X0055370Y0125449D01*
X0056970Y0125449D01*
X0056970Y0119710D01*
X0057458Y0119774D01*
X0058292Y0119998D01*
X0059090Y0120328D01*
X0059838Y0120760D01*
X0060523Y0121286D01*
X0061133Y0121896D01*
X0061659Y0122581D01*
X0062091Y0123329D01*
X0062182Y0123549D01*
X0062563Y0122629D01*
X0064361Y0120831D01*
X0065791Y0120239D01*
X0065791Y0120239D01*
X0065551Y0119999D01*
X0065114Y0118945D01*
X0065114Y0117805D01*
X0065551Y0116751D01*
X0066357Y0115944D01*
X0067411Y0115508D01*
X0068551Y0115508D01*
X0069605Y0115944D01*
X0070412Y0116751D01*
X0070848Y0117805D01*
X0070848Y0118945D01*
X0070412Y0119999D01*
X0070172Y0120239D01*
X0071601Y0120831D01*
X0073399Y0122629D01*
X0073887Y0123807D01*
X0074374Y0122629D01*
X0076172Y0120831D01*
X0077602Y0120239D01*
X0077602Y0119806D01*
X0077220Y0118886D01*
X0077220Y0117863D01*
X0077612Y0116918D01*
X0078335Y0116195D01*
X0079281Y0115803D01*
X0080304Y0115803D01*
X0079028Y0115908D02*
X0069517Y0115908D01*
X0070724Y0117506D02*
X0077368Y0117506D01*
X0077311Y0119105D02*
X0070782Y0119105D01*
X0070172Y0120239D02*
X0070172Y0120239D01*
X0071292Y0120703D02*
X0076481Y0120703D01*
X0074702Y0122302D02*
X0073072Y0122302D01*
X0067981Y0118375D02*
X0067981Y0126249D01*
X0073885Y0128696D02*
X0073889Y0128696D01*
X0074800Y0130294D02*
X0072973Y0130294D01*
X0071055Y0131893D02*
X0076719Y0131893D01*
X0082866Y0131893D02*
X0140955Y0131893D01*
X0140880Y0131818D02*
X0140671Y0131456D01*
X0140563Y0131052D01*
X0140563Y0129059D01*
X0144131Y0129059D01*
X0144131Y0132431D01*
X0141941Y0132431D01*
X0141538Y0132323D01*
X0141176Y0132114D01*
X0140880Y0131818D01*
X0140563Y0130294D02*
X0084784Y0130294D01*
X0085696Y0128696D02*
X0086477Y0128696D01*
X0086425Y0127097D02*
X0086183Y0127097D01*
X0086183Y0125499D02*
X0086425Y0125499D01*
X0086425Y0123900D02*
X0085736Y0123900D01*
X0086425Y0122302D02*
X0084883Y0122302D01*
X0083103Y0120703D02*
X0087214Y0120703D01*
X0082273Y0119105D02*
X0113609Y0119105D01*
X0112697Y0120703D02*
X0107500Y0120703D01*
X0105627Y0120703D02*
X0099626Y0120703D01*
X0097753Y0120703D02*
X0094418Y0120703D01*
X0095206Y0122302D02*
X0095247Y0122302D01*
X0102133Y0122302D02*
X0103121Y0122302D01*
X0102652Y0127097D02*
X0102601Y0127097D01*
X0101271Y0128696D02*
X0103983Y0128696D01*
X0109145Y0128696D02*
X0111857Y0128696D01*
X0110526Y0127097D02*
X0110475Y0127097D01*
X0117019Y0128696D02*
X0119731Y0128696D01*
X0118400Y0127097D02*
X0118349Y0127097D01*
X0117881Y0122302D02*
X0118869Y0122302D01*
X0116933Y0120703D02*
X0121376Y0120703D01*
X0123248Y0120703D02*
X0128787Y0120703D01*
X0129193Y0119105D02*
X0118532Y0119105D01*
X0120130Y0117506D02*
X0129193Y0117506D01*
X0133080Y0120703D02*
X0140760Y0120703D01*
X0140760Y0122302D02*
X0133505Y0122302D01*
X0132864Y0123900D02*
X0140760Y0123900D01*
X0141414Y0125499D02*
X0126702Y0125499D01*
X0126581Y0123900D02*
X0129004Y0123900D01*
X0128362Y0122302D02*
X0125755Y0122302D01*
X0126223Y0127097D02*
X0140563Y0127097D01*
X0144131Y0128696D02*
X0124893Y0128696D01*
X0135849Y0119105D02*
X0141293Y0119105D01*
X0139598Y0117506D02*
X0136694Y0117506D01*
X0136138Y0112711D02*
X0135863Y0112711D01*
X0135863Y0111112D02*
X0144707Y0111112D01*
X0146306Y0109514D02*
X0135863Y0109514D01*
X0136347Y0107915D02*
X0154431Y0107915D01*
X0158516Y0104647D02*
X0158516Y0101276D01*
X0162084Y0101276D01*
X0162084Y0103269D01*
X0161976Y0103673D01*
X0161767Y0104035D01*
X0161472Y0104330D01*
X0161110Y0104539D01*
X0160706Y0104647D01*
X0158516Y0104647D01*
X0158516Y0103120D02*
X0158147Y0103120D01*
X0158147Y0101521D02*
X0158516Y0101521D01*
X0162084Y0101521D02*
X0165764Y0101521D01*
X0165764Y0099923D02*
X0162084Y0099923D01*
X0161869Y0098324D02*
X0165979Y0098324D01*
X0165961Y0096726D02*
X0163476Y0096726D01*
X0164935Y0095127D02*
X0165961Y0095127D01*
X0165961Y0093529D02*
X0164909Y0093529D01*
X0165961Y0091930D02*
X0163325Y0091930D01*
X0167894Y0090332D02*
X0151395Y0090332D01*
X0151375Y0091930D02*
X0151813Y0091930D01*
X0152206Y0096726D02*
X0154776Y0096726D01*
X0154794Y0098324D02*
X0151314Y0098324D01*
X0149283Y0099923D02*
X0154579Y0099923D01*
X0162084Y0103120D02*
X0165764Y0103120D01*
X0169332Y0103120D02*
X0169701Y0103120D01*
X0169701Y0101521D02*
X0169332Y0101521D01*
X0164256Y0107915D02*
X0179226Y0107915D01*
X0178457Y0109514D02*
X0165065Y0109514D01*
X0165065Y0111112D02*
X0178457Y0111112D01*
X0179271Y0112870D02*
X0178457Y0113685D01*
X0178457Y0116805D01*
X0179271Y0117620D01*
X0189085Y0117620D01*
X0189899Y0116805D01*
X0189899Y0113685D01*
X0189085Y0112870D01*
X0179271Y0112870D01*
X0178457Y0114309D02*
X0174683Y0114309D01*
X0174845Y0115908D02*
X0178457Y0115908D01*
X0179158Y0117506D02*
X0173715Y0117506D01*
X0171488Y0119105D02*
X0178457Y0119105D01*
X0178457Y0118685D02*
X0179271Y0117870D01*
X0189085Y0117870D01*
X0189899Y0118685D01*
X0189899Y0121805D01*
X0189085Y0122620D01*
X0179271Y0122620D01*
X0178457Y0121805D01*
X0178457Y0118685D01*
X0178457Y0120703D02*
X0171773Y0120703D01*
X0170841Y0122302D02*
X0178953Y0122302D01*
X0179235Y0122781D02*
X0179638Y0122673D01*
X0184178Y0122673D01*
X0188718Y0122673D01*
X0189121Y0122781D01*
X0189483Y0122990D01*
X0189779Y0123286D01*
X0189988Y0123648D01*
X0190096Y0124052D01*
X0190096Y0125245D01*
X0184178Y0125245D01*
X0184178Y0125245D01*
X0184178Y0125245D01*
X0184178Y0122673D01*
X0184178Y0125245D01*
X0184178Y0125245D01*
X0178260Y0125245D01*
X0178260Y0124052D01*
X0178368Y0123648D01*
X0178577Y0123286D01*
X0178873Y0122990D01*
X0179235Y0122781D01*
X0178300Y0123900D02*
X0177325Y0123900D01*
X0177679Y0125499D02*
X0178260Y0125499D01*
X0178516Y0127097D02*
X0176911Y0127097D01*
X0173303Y0127097D02*
X0164772Y0127097D01*
X0164607Y0122302D02*
X0167563Y0122302D01*
X0164403Y0117506D02*
X0170909Y0117506D01*
X0184178Y0123900D02*
X0184178Y0123900D01*
X0189403Y0122302D02*
X0190192Y0122302D01*
X0190110Y0121839D02*
X0190110Y0121839D01*
X0190311Y0120703D02*
X0189899Y0120703D01*
X0189899Y0119105D02*
X0190592Y0119105D01*
X0190815Y0117841D02*
X0190815Y0117841D01*
X0191009Y0117506D02*
X0189198Y0117506D01*
X0189899Y0115908D02*
X0191932Y0115908D01*
X0192845Y0114325D02*
X0192845Y0114325D01*
X0192845Y0114325D01*
X0192864Y0114309D02*
X0189899Y0114309D01*
X0192909Y0111112D02*
X0197613Y0111112D01*
X0194769Y0112711D02*
X0153009Y0112711D01*
X0153009Y0117506D02*
X0154284Y0117506D01*
X0149175Y0119105D02*
X0147339Y0119105D01*
X0147872Y0120703D02*
X0148874Y0120703D01*
X0149767Y0122302D02*
X0147872Y0122302D01*
X0147872Y0123900D02*
X0149250Y0123900D01*
X0148913Y0125499D02*
X0147218Y0125499D01*
X0148068Y0127097D02*
X0149720Y0127097D01*
X0153250Y0127097D02*
X0153914Y0127097D01*
X0148068Y0130294D02*
X0179981Y0130294D01*
X0180081Y0131893D02*
X0147677Y0131893D01*
X0144500Y0131893D02*
X0144131Y0131893D01*
X0144131Y0130294D02*
X0144500Y0130294D01*
X0144500Y0128696D02*
X0180862Y0128696D01*
X0185808Y0128696D02*
X0192465Y0128696D01*
X0192845Y0129353D02*
X0192845Y0129353D01*
X0193966Y0130294D02*
X0186690Y0130294D01*
X0186590Y0131893D02*
X0195871Y0131893D01*
X0195955Y0131963D02*
X0195955Y0131963D01*
X0191543Y0127097D02*
X0189840Y0127097D01*
X0190815Y0125837D02*
X0190815Y0125837D01*
X0190755Y0125499D02*
X0190096Y0125499D01*
X0190055Y0123900D02*
X0190474Y0123900D01*
X0205987Y0111112D02*
X0213047Y0111112D01*
X0213047Y0109514D02*
X0193794Y0109514D01*
X0193794Y0107915D02*
X0213047Y0107915D01*
X0213047Y0106317D02*
X0195092Y0106317D01*
X0189413Y0107915D02*
X0189130Y0107915D01*
X0181149Y0106317D02*
X0143841Y0106317D01*
X0142515Y0106317D02*
X0136694Y0106317D01*
X0138958Y0112711D02*
X0139598Y0112711D01*
X0126807Y0112711D02*
X0060398Y0112711D01*
X0065238Y0117506D02*
X0041804Y0117506D01*
X0042220Y0119105D02*
X0065180Y0119105D01*
X0064670Y0120703D02*
X0059740Y0120703D01*
X0061445Y0122302D02*
X0062891Y0122302D01*
X0056970Y0122302D02*
X0055370Y0122302D01*
X0055370Y0123900D02*
X0056970Y0123900D01*
X0055370Y0125499D02*
X0042057Y0125499D01*
X0041997Y0125837D02*
X0041997Y0125837D01*
X0041270Y0127097D02*
X0049638Y0127097D01*
X0047004Y0128696D02*
X0040347Y0128696D01*
X0039967Y0129353D02*
X0039967Y0129353D01*
X0039967Y0129353D01*
X0038846Y0130294D02*
X0046123Y0130294D01*
X0046222Y0131893D02*
X0036941Y0131893D01*
X0036857Y0131963D02*
X0036857Y0131963D01*
X0042339Y0123900D02*
X0050013Y0123900D01*
X0050896Y0122302D02*
X0042621Y0122302D01*
X0042502Y0120703D02*
X0052600Y0120703D01*
X0055370Y0120703D02*
X0056970Y0120703D01*
X0056970Y0127097D02*
X0055370Y0127097D01*
X0055370Y0128696D02*
X0056970Y0128696D01*
X0056970Y0130294D02*
X0055370Y0130294D01*
X0055370Y0131893D02*
X0056970Y0131893D01*
X0059569Y0131893D02*
X0064908Y0131893D01*
X0062989Y0130294D02*
X0061369Y0130294D01*
X0052771Y0131893D02*
X0052732Y0131893D01*
X0040881Y0115908D02*
X0066446Y0115908D01*
X0079792Y0118375D02*
X0079792Y0126249D01*
X0082216Y0117506D02*
X0115207Y0117506D01*
X0110995Y0122302D02*
X0110007Y0122302D01*
X0096109Y0128696D02*
X0095154Y0128696D01*
X0096858Y0099923D02*
X0086109Y0099923D01*
X0087708Y0098324D02*
X0096858Y0098324D01*
X0095704Y0096726D02*
X0089306Y0096726D01*
X0090905Y0095127D02*
X0091805Y0095127D01*
X0087663Y0091930D02*
X0084225Y0091930D01*
X0084643Y0093529D02*
X0086065Y0093529D01*
X0084466Y0095127D02*
X0084404Y0095127D01*
X0082906Y0090332D02*
X0089262Y0090332D01*
X0090860Y0088733D02*
X0080094Y0088733D01*
X0082931Y0087134D02*
X0092459Y0087134D01*
X0094057Y0085536D02*
X0084235Y0085536D01*
X0084643Y0083937D02*
X0095656Y0083937D01*
X0092088Y0082339D02*
X0084394Y0082339D01*
X0083315Y0080740D02*
X0091394Y0080740D01*
X0091777Y0079142D02*
X0074643Y0079142D01*
X0074479Y0077543D02*
X0079186Y0077543D01*
X0077125Y0075945D02*
X0073519Y0075945D01*
X0076547Y0074346D02*
X0069294Y0074346D01*
X0069601Y0072886D02*
X0068966Y0072680D01*
X0068370Y0072376D01*
X0067830Y0071984D01*
X0067357Y0071511D01*
X0066965Y0070970D01*
X0066661Y0070375D01*
X0066455Y0069740D01*
X0066350Y0069080D01*
X0066350Y0068832D01*
X0070509Y0068832D01*
X0070509Y0072991D01*
X0070261Y0072991D01*
X0069601Y0072886D01*
X0069176Y0072748D02*
X0067695Y0072748D01*
X0067095Y0071149D02*
X0066097Y0071149D01*
X0066425Y0069551D02*
X0064498Y0069551D01*
X0066350Y0068660D02*
X0066350Y0068412D01*
X0066455Y0067752D01*
X0066661Y0067116D01*
X0066965Y0066521D01*
X0067357Y0065980D01*
X0067830Y0065508D01*
X0068370Y0065115D01*
X0068966Y0064812D01*
X0069601Y0064605D01*
X0070261Y0064501D01*
X0070509Y0064501D01*
X0070509Y0068660D01*
X0066350Y0068660D01*
X0066423Y0067952D02*
X0056494Y0067952D01*
X0056494Y0066354D02*
X0067086Y0066354D01*
X0069139Y0064755D02*
X0064898Y0064755D01*
X0065839Y0063157D02*
X0071403Y0063157D01*
X0070929Y0064501D02*
X0071589Y0064605D01*
X0072225Y0064812D01*
X0072820Y0065115D01*
X0073360Y0065508D01*
X0073833Y0065980D01*
X0074226Y0066521D01*
X0074529Y0067116D01*
X0074735Y0067752D01*
X0074840Y0068412D01*
X0074840Y0068660D01*
X0070681Y0068660D01*
X0070681Y0068832D01*
X0070509Y0068832D01*
X0070509Y0068660D01*
X0070681Y0068660D01*
X0070681Y0064501D01*
X0070929Y0064501D01*
X0070681Y0064755D02*
X0070509Y0064755D01*
X0072051Y0064755D02*
X0073001Y0064755D01*
X0074104Y0066354D02*
X0074600Y0066354D01*
X0074767Y0067952D02*
X0076198Y0067952D01*
X0074840Y0068832D02*
X0074840Y0069080D01*
X0074735Y0069740D01*
X0074529Y0070375D01*
X0074226Y0070970D01*
X0073833Y0071511D01*
X0073360Y0071984D01*
X0072820Y0072376D01*
X0072225Y0072680D01*
X0071589Y0072886D01*
X0070929Y0072991D01*
X0070681Y0072991D01*
X0070681Y0068832D01*
X0074840Y0068832D01*
X0074765Y0069551D02*
X0077797Y0069551D01*
X0077467Y0071149D02*
X0074096Y0071149D01*
X0072014Y0072748D02*
X0076627Y0072748D01*
X0070681Y0072748D02*
X0070509Y0072748D01*
X0070509Y0071149D02*
X0070681Y0071149D01*
X0070681Y0069551D02*
X0070509Y0069551D01*
X0070509Y0067952D02*
X0070681Y0067952D01*
X0070681Y0066354D02*
X0070509Y0066354D01*
X0067683Y0061558D02*
X0065966Y0061558D01*
X0064193Y0058361D02*
X0063275Y0058361D01*
X0065016Y0056763D02*
X0067035Y0056763D01*
X0060876Y0058361D02*
X0052646Y0058361D01*
X0052615Y0058436D02*
X0050286Y0060765D01*
X0047242Y0062026D01*
X0043948Y0062026D01*
X0040905Y0060765D01*
X0038575Y0058436D01*
X0037315Y0055393D01*
X0037315Y0052099D01*
X0038575Y0049055D01*
X0040905Y0046726D01*
X0043948Y0045465D01*
X0047242Y0045465D01*
X0050286Y0046726D01*
X0052615Y0049055D01*
X0053875Y0052099D01*
X0053875Y0055393D01*
X0052615Y0058436D01*
X0053308Y0056763D02*
X0059135Y0056763D01*
X0058263Y0055164D02*
X0053875Y0055164D01*
X0053875Y0053566D02*
X0058185Y0053566D01*
X0058808Y0051967D02*
X0053821Y0051967D01*
X0054082Y0050369D02*
X0053159Y0050369D01*
X0052484Y0048770D02*
X0052330Y0048770D01*
X0051784Y0047172D02*
X0050731Y0047172D01*
X0051488Y0045573D02*
X0047502Y0045573D01*
X0051509Y0043975D02*
X0019765Y0043975D01*
X0019765Y0045573D02*
X0043688Y0045573D01*
X0040459Y0047172D02*
X0019765Y0047172D01*
X0019765Y0048770D02*
X0023163Y0048770D01*
X0022878Y0049056D02*
X0024016Y0047917D01*
X0025504Y0047301D01*
X0027115Y0047301D01*
X0028602Y0047917D01*
X0029741Y0049056D01*
X0030357Y0050544D01*
X0030357Y0052154D01*
X0029741Y0053642D01*
X0028602Y0054781D01*
X0027115Y0055397D01*
X0025504Y0055397D01*
X0024016Y0054781D01*
X0022878Y0053642D01*
X0022261Y0052154D01*
X0022261Y0050544D01*
X0022878Y0049056D01*
X0022334Y0050369D02*
X0019765Y0050369D01*
X0019765Y0051967D02*
X0022261Y0051967D01*
X0022846Y0053566D02*
X0019765Y0053566D01*
X0019765Y0055164D02*
X0024942Y0055164D01*
X0027677Y0055164D02*
X0037315Y0055164D01*
X0037315Y0053566D02*
X0029773Y0053566D01*
X0030357Y0051967D02*
X0037369Y0051967D01*
X0038031Y0050369D02*
X0030285Y0050369D01*
X0029455Y0048770D02*
X0038860Y0048770D01*
X0037882Y0056763D02*
X0019765Y0056763D01*
X0019765Y0058361D02*
X0029551Y0058361D01*
X0028486Y0059960D02*
X0019765Y0059960D01*
X0019765Y0061558D02*
X0028248Y0061558D01*
X0028666Y0063157D02*
X0019765Y0063157D01*
X0019765Y0064755D02*
X0029984Y0064755D01*
X0034923Y0066354D02*
X0019765Y0066354D01*
X0019765Y0067952D02*
X0036522Y0067952D01*
X0038447Y0069551D02*
X0019765Y0069551D01*
X0019765Y0071149D02*
X0037958Y0071149D01*
X0037941Y0072748D02*
X0019765Y0072748D01*
X0019765Y0074346D02*
X0037941Y0074346D01*
X0038042Y0075945D02*
X0019765Y0075945D01*
X0019765Y0077543D02*
X0037941Y0077543D01*
X0037941Y0079142D02*
X0019765Y0079142D01*
X0019765Y0080740D02*
X0037941Y0080740D01*
X0038751Y0082339D02*
X0019765Y0082339D01*
X0019765Y0083937D02*
X0038138Y0083937D01*
X0038138Y0085536D02*
X0019765Y0085536D01*
X0019765Y0087134D02*
X0025415Y0087134D01*
X0025506Y0087097D02*
X0027116Y0087097D01*
X0028604Y0087713D01*
X0029743Y0088852D01*
X0030359Y0090340D01*
X0030359Y0091950D01*
X0029743Y0093438D01*
X0028604Y0094577D01*
X0027116Y0095193D01*
X0025506Y0095193D01*
X0024018Y0094577D01*
X0022880Y0093438D01*
X0022263Y0091950D01*
X0022263Y0090340D01*
X0022880Y0088852D01*
X0024018Y0087713D01*
X0025506Y0087097D01*
X0027207Y0087134D02*
X0037672Y0087134D01*
X0036073Y0088733D02*
X0029624Y0088733D01*
X0030356Y0090332D02*
X0034475Y0090332D01*
X0032876Y0091930D02*
X0030359Y0091930D01*
X0029652Y0093529D02*
X0031278Y0093529D01*
X0030608Y0095127D02*
X0027276Y0095127D01*
X0025347Y0095127D02*
X0019765Y0095127D01*
X0019765Y0093529D02*
X0022970Y0093529D01*
X0022263Y0091930D02*
X0019765Y0091930D01*
X0019765Y0090332D02*
X0022267Y0090332D01*
X0022998Y0088733D02*
X0019765Y0088733D01*
X0019765Y0096726D02*
X0030608Y0096726D01*
X0029397Y0098324D02*
X0019765Y0098324D01*
X0019765Y0099923D02*
X0028421Y0099923D01*
X0028246Y0101521D02*
X0019765Y0101521D01*
X0019765Y0103120D02*
X0028727Y0103120D01*
X0030324Y0104718D02*
X0019765Y0104718D01*
X0039243Y0090332D02*
X0059572Y0090332D01*
X0059794Y0085536D02*
X0056691Y0085536D01*
X0056691Y0083937D02*
X0059366Y0083937D01*
X0059621Y0082339D02*
X0056691Y0082339D01*
X0056691Y0080740D02*
X0060743Y0080740D01*
X0056691Y0079142D02*
X0066547Y0079142D01*
X0066295Y0077543D02*
X0056671Y0077543D01*
X0055799Y0075945D02*
X0064696Y0075945D01*
X0063098Y0074346D02*
X0056494Y0074346D01*
X0053122Y0077543D02*
X0052360Y0077543D01*
X0052360Y0079142D02*
X0053122Y0079142D01*
X0048791Y0079142D02*
X0045446Y0079142D01*
X0045446Y0078620D02*
X0041878Y0078620D01*
X0041878Y0073575D01*
X0045446Y0073575D01*
X0045446Y0075568D01*
X0045338Y0075972D01*
X0045266Y0076097D01*
X0045338Y0076223D01*
X0045446Y0076626D01*
X0045446Y0078620D01*
X0045446Y0077543D02*
X0048810Y0077543D01*
X0049683Y0075945D02*
X0045345Y0075945D01*
X0045446Y0074346D02*
X0048988Y0074346D01*
X0048988Y0072748D02*
X0045446Y0072748D01*
X0045429Y0071149D02*
X0048988Y0071149D01*
X0048988Y0069551D02*
X0044941Y0069551D01*
X0045250Y0067952D02*
X0048988Y0067952D01*
X0048988Y0066354D02*
X0045250Y0066354D01*
X0045250Y0064755D02*
X0059253Y0064755D01*
X0058312Y0063157D02*
X0036495Y0063157D01*
X0036344Y0061558D02*
X0042819Y0061558D01*
X0040099Y0059960D02*
X0036105Y0059960D01*
X0035040Y0058361D02*
X0038544Y0058361D01*
X0038138Y0064755D02*
X0038093Y0064755D01*
X0048371Y0061558D02*
X0058185Y0061558D01*
X0058741Y0059960D02*
X0051091Y0059960D01*
X0052741Y0070737D02*
X0062586Y0070737D01*
X0070595Y0078746D01*
X0074150Y0080740D02*
X0077876Y0080740D01*
X0076796Y0082339D02*
X0073699Y0082339D01*
X0075298Y0083937D02*
X0076547Y0083937D01*
X0076896Y0085536D02*
X0076955Y0085536D01*
X0067040Y0080740D02*
X0065770Y0080740D01*
X0082005Y0077543D02*
X0095586Y0077543D01*
X0095370Y0074346D02*
X0084643Y0074346D01*
X0084563Y0072748D02*
X0091095Y0072748D01*
X0090907Y0071149D02*
X0083724Y0071149D01*
X0084066Y0075945D02*
X0119396Y0075945D01*
X0117798Y0077543D02*
X0108565Y0077543D01*
X0108781Y0079142D02*
X0116199Y0079142D01*
X0114601Y0080740D02*
X0108781Y0080740D01*
X0108781Y0082339D02*
X0113002Y0082339D01*
X0116638Y0085536D02*
X0124115Y0085536D01*
X0124115Y0087134D02*
X0115039Y0087134D01*
X0118236Y0083937D02*
X0124115Y0083937D01*
X0124115Y0082339D02*
X0119835Y0082339D01*
X0121433Y0080740D02*
X0124414Y0080740D01*
X0133643Y0077225D02*
X0133847Y0077021D01*
X0134792Y0076630D01*
X0135815Y0076630D01*
X0136761Y0077021D01*
X0137484Y0077745D01*
X0137876Y0078690D01*
X0137876Y0078958D01*
X0139564Y0080646D01*
X0139738Y0080225D01*
X0140461Y0079502D01*
X0141407Y0079110D01*
X0142430Y0079110D01*
X0143375Y0079502D01*
X0144098Y0080225D01*
X0144490Y0081170D01*
X0144490Y0082193D01*
X0144413Y0082378D01*
X0146689Y0082378D01*
X0146689Y0080165D01*
X0146600Y0080011D01*
X0146492Y0079607D01*
X0146492Y0079411D01*
X0145540Y0079411D01*
X0144595Y0079020D01*
X0143872Y0078296D01*
X0143480Y0077351D01*
X0143480Y0076328D01*
X0143872Y0075383D01*
X0144595Y0074659D01*
X0145540Y0074268D01*
X0146563Y0074268D01*
X0146689Y0074320D01*
X0146689Y0070322D01*
X0146600Y0070169D01*
X0146592Y0070138D01*
X0146537Y0070193D01*
X0146537Y0070461D01*
X0146145Y0071406D01*
X0145422Y0072130D01*
X0144477Y0072521D01*
X0143454Y0072521D01*
X0142509Y0072130D01*
X0141785Y0071406D01*
X0141394Y0070461D01*
X0141394Y0069438D01*
X0141438Y0069332D01*
X0137671Y0069332D01*
X0137797Y0069635D01*
X0137797Y0070658D01*
X0137405Y0071603D01*
X0137216Y0071793D01*
X0137216Y0073215D01*
X0136050Y0074381D01*
X0133643Y0076788D01*
X0133643Y0077225D01*
X0134486Y0075945D02*
X0143639Y0075945D01*
X0143560Y0077543D02*
X0137283Y0077543D01*
X0138059Y0079142D02*
X0141330Y0079142D01*
X0142506Y0079142D02*
X0144891Y0079142D01*
X0144312Y0080740D02*
X0146689Y0080740D01*
X0146689Y0082339D02*
X0144429Y0082339D01*
X0140256Y0088733D02*
X0139480Y0088733D01*
X0139805Y0090332D02*
X0140256Y0090332D01*
X0140256Y0091930D02*
X0138968Y0091930D01*
X0140673Y0093529D02*
X0136598Y0093529D01*
X0135187Y0095127D02*
X0141269Y0095127D01*
X0145245Y0096726D02*
X0133406Y0096726D01*
X0128462Y0096726D02*
X0108447Y0096726D01*
X0108781Y0095127D02*
X0127626Y0095127D01*
X0126028Y0093529D02*
X0108781Y0093529D01*
X0108781Y0091930D02*
X0124429Y0091930D01*
X0124115Y0090332D02*
X0108204Y0090332D01*
X0107108Y0088733D02*
X0124115Y0088733D01*
X0115615Y0074346D02*
X0108781Y0074346D01*
X0108781Y0072748D02*
X0114017Y0072748D01*
X0112418Y0071149D02*
X0108781Y0071149D01*
X0106807Y0067952D02*
X0092489Y0067952D01*
X0091987Y0069551D02*
X0090890Y0069551D01*
X0090778Y0069664D02*
X0090778Y0069664D01*
X0094920Y0069551D02*
X0095370Y0069551D01*
X0094087Y0066354D02*
X0107623Y0066354D01*
X0112833Y0063157D02*
X0116000Y0063157D01*
X0116000Y0064755D02*
X0114431Y0064755D01*
X0116030Y0066354D02*
X0116356Y0066354D01*
X0117628Y0067952D02*
X0127573Y0067952D01*
X0127516Y0068965D02*
X0128515Y0068965D01*
X0128515Y0068965D01*
X0127516Y0068965D01*
X0129055Y0066354D02*
X0131295Y0066354D01*
X0130678Y0066787D02*
X0130678Y0068953D01*
X0130678Y0068953D01*
X0130678Y0066787D01*
X0130678Y0067952D02*
X0130678Y0067952D01*
X0137216Y0072748D02*
X0146689Y0072748D01*
X0146689Y0071149D02*
X0146252Y0071149D01*
X0149654Y0067952D02*
X0149654Y0067952D01*
X0149066Y0066354D02*
X0157024Y0066354D01*
X0157443Y0067952D02*
X0152759Y0067952D01*
X0155871Y0069551D02*
X0160260Y0069551D01*
X0160260Y0071149D02*
X0157469Y0071149D01*
X0158466Y0072146D02*
X0158466Y0072146D01*
X0159068Y0072748D02*
X0159440Y0072748D01*
X0159792Y0067952D02*
X0159792Y0067952D01*
X0159792Y0066485D02*
X0162561Y0066485D01*
X0159792Y0066485D01*
X0159792Y0066485D01*
X0159792Y0066354D02*
X0159792Y0066354D01*
X0159792Y0064755D02*
X0159792Y0064755D01*
X0157618Y0064755D02*
X0149066Y0064755D01*
X0141394Y0069551D02*
X0137762Y0069551D01*
X0137593Y0071149D02*
X0141679Y0071149D01*
X0145350Y0074346D02*
X0136084Y0074346D01*
X0123049Y0066354D02*
X0122362Y0066354D01*
X0119359Y0063257D02*
X0119320Y0063217D01*
X0119320Y0057115D01*
X0117216Y0055164D02*
X0108781Y0055164D01*
X0108781Y0053566D02*
X0119316Y0053566D01*
X0118953Y0051967D02*
X0102513Y0051967D01*
X0102513Y0050369D02*
X0118953Y0050369D01*
X0118953Y0048770D02*
X0102513Y0048770D01*
X0102513Y0047172D02*
X0119501Y0047172D01*
X0118953Y0045573D02*
X0102411Y0045573D01*
X0102513Y0043975D02*
X0118953Y0043975D01*
X0118953Y0042376D02*
X0102513Y0042376D01*
X0102513Y0040778D02*
X0119202Y0040778D01*
X0119484Y0039179D02*
X0101705Y0039179D01*
X0096604Y0039179D02*
X0058946Y0039179D01*
X0056260Y0039179D02*
X0038034Y0039179D01*
X0037015Y0040034D02*
X0037015Y0040034D01*
X0034971Y0040778D02*
X0053419Y0040778D01*
X0052171Y0042376D02*
X0019765Y0042376D01*
X0019765Y0040778D02*
X0027369Y0040778D01*
X0025325Y0040034D02*
X0025325Y0040034D01*
X0024307Y0039179D02*
X0019765Y0039179D01*
X0019765Y0037581D02*
X0022402Y0037581D01*
X0022215Y0037424D02*
X0022215Y0037424D01*
X0021383Y0035982D02*
X0019765Y0035982D01*
X0019765Y0034384D02*
X0020460Y0034384D01*
X0019987Y0032785D02*
X0019765Y0032785D01*
X0037015Y0019787D02*
X0037015Y0019787D01*
X0061787Y0040778D02*
X0091288Y0040778D01*
X0090587Y0042376D02*
X0063035Y0042376D01*
X0063697Y0043975D02*
X0090892Y0043975D01*
X0095898Y0045573D02*
X0063718Y0045573D01*
X0063422Y0047172D02*
X0095795Y0047172D01*
X0095795Y0048770D02*
X0062722Y0048770D01*
X0062989Y0050369D02*
X0095795Y0050369D01*
X0095795Y0051967D02*
X0065343Y0051967D01*
X0061162Y0050369D02*
X0061124Y0050369D01*
X0074848Y0053566D02*
X0092926Y0053566D01*
X0093981Y0053566D02*
X0095370Y0053566D01*
X0091070Y0055164D02*
X0076446Y0055164D01*
X0076754Y0056763D02*
X0090932Y0056763D01*
X0092119Y0058361D02*
X0077595Y0058361D01*
X0082033Y0059960D02*
X0107878Y0059960D01*
X0111250Y0059960D02*
X0116556Y0059960D01*
X0116733Y0058361D02*
X0111250Y0058361D01*
X0110052Y0056763D02*
X0116453Y0056763D01*
X0116000Y0061558D02*
X0111250Y0061558D01*
X0095370Y0058361D02*
X0094788Y0058361D01*
X0092444Y0061558D02*
X0084071Y0061558D01*
X0084643Y0063157D02*
X0090846Y0063157D01*
X0089247Y0064755D02*
X0084558Y0064755D01*
X0101872Y0077543D02*
X0102279Y0077543D01*
X0143808Y0042824D02*
X0143808Y0038690D01*
X0150283Y0027990D02*
X0150432Y0027990D01*
X0156790Y0027990D02*
X0156929Y0027990D01*
X0161317Y0027990D02*
X0162834Y0027990D01*
X0181238Y0039179D02*
X0184063Y0039179D01*
X0184063Y0040778D02*
X0181756Y0040778D01*
X0176929Y0043316D02*
X0176822Y0043423D01*
X0176929Y0043316D02*
X0187816Y0043316D01*
X0196599Y0043316D01*
X0200356Y0043975D02*
X0213047Y0043975D01*
X0213047Y0045573D02*
X0201955Y0045573D01*
X0203553Y0047172D02*
X0213047Y0047172D01*
X0213047Y0048770D02*
X0205152Y0048770D01*
X0206750Y0050369D02*
X0213047Y0050369D01*
X0213047Y0051967D02*
X0211460Y0051967D01*
X0205436Y0058361D02*
X0203629Y0058361D01*
X0205705Y0059960D02*
X0207034Y0059960D01*
X0207303Y0061558D02*
X0213047Y0061558D01*
X0213047Y0059960D02*
X0212030Y0059960D01*
X0212649Y0063157D02*
X0213047Y0063157D01*
X0195436Y0058361D02*
X0191568Y0058361D01*
X0191568Y0056763D02*
X0195142Y0056763D01*
X0193942Y0064755D02*
X0161966Y0064755D01*
X0162561Y0066354D02*
X0192344Y0066354D01*
X0184063Y0058361D02*
X0181757Y0058361D01*
X0181953Y0056763D02*
X0184063Y0056763D01*
X0184063Y0055164D02*
X0177597Y0055164D01*
X0177597Y0056763D02*
X0176047Y0056763D01*
X0176047Y0058361D02*
X0177597Y0058361D01*
X0164197Y0067952D02*
X0163828Y0067952D01*
X0163828Y0069551D02*
X0164197Y0069551D01*
X0181733Y0047172D02*
X0184063Y0047172D01*
X0184063Y0045573D02*
X0181756Y0045573D01*
X0212068Y0099923D02*
X0213047Y0099923D01*
X0213047Y0101521D02*
X0207358Y0101521D01*
X0205759Y0103120D02*
X0213047Y0103120D01*
X0213047Y0104718D02*
X0204161Y0104718D01*
X0207645Y0111716D02*
X0207645Y0111716D01*
X0208831Y0112711D02*
X0213047Y0112711D01*
X0213047Y0114309D02*
X0210736Y0114309D01*
X0211668Y0115908D02*
X0213047Y0115908D01*
X0213047Y0117506D02*
X0212591Y0117506D01*
X0213008Y0119105D02*
X0213047Y0119105D01*
X0154079Y0122302D02*
X0153124Y0122302D01*
X0041878Y0077543D02*
X0041509Y0077543D01*
X0041509Y0075945D02*
X0041878Y0075945D01*
X0041878Y0074346D02*
X0041509Y0074346D01*
D33*
X0128611Y0084812D02*
X0130678Y0082745D01*
X0128611Y0084812D02*
X0128611Y0086091D01*
X0130973Y0089635D02*
X0133276Y0087331D01*
X0133276Y0085343D01*
X0139182Y0085343D02*
X0139182Y0083080D01*
X0135304Y0079202D01*
X0132745Y0074871D02*
X0130678Y0074871D01*
X0132745Y0074871D02*
X0135225Y0072391D01*
X0135225Y0070146D01*
X0135225Y0066387D01*
X0135245Y0066367D01*
X0143119Y0066367D02*
X0143119Y0058394D01*
X0147076Y0054438D01*
X0147076Y0066347D01*
X0147056Y0066367D01*
X0145087Y0066367D02*
X0145087Y0068828D01*
X0143965Y0069950D01*
X0146052Y0076839D02*
X0149654Y0076839D01*
X0141918Y0081682D02*
X0141150Y0082450D01*
X0141150Y0085343D01*
D34*
X0141918Y0081682D03*
X0135304Y0079202D03*
X0128611Y0086091D03*
X0130973Y0089635D03*
X0134123Y0092784D03*
X0137233Y0090028D03*
X0143572Y0093965D03*
X0144871Y0091209D03*
X0149635Y0096367D03*
X0147076Y0098532D03*
X0140894Y0101052D03*
X0143178Y0103808D03*
X0134123Y0106564D03*
X0130934Y0106485D03*
X0128217Y0114910D03*
X0134123Y0117194D03*
X0137548Y0114910D03*
X0130934Y0122194D03*
X0151446Y0120343D03*
X0151485Y0125225D03*
X0169202Y0120304D03*
X0172312Y0115304D03*
X0175107Y0125265D03*
X0185698Y0096721D03*
X0177036Y0094359D03*
X0174280Y0091209D03*
X0168414Y0086682D03*
X0171564Y0085698D03*
X0169556Y0080580D03*
X0159989Y0075304D03*
X0155540Y0075225D03*
X0155383Y0078217D03*
X0158906Y0080580D03*
X0155225Y0085501D03*
X0153414Y0093965D03*
X0162469Y0094359D03*
X0177824Y0085698D03*
X0188060Y0078217D03*
X0171918Y0061682D03*
X0159792Y0066485D03*
X0143965Y0069950D03*
X0135225Y0070146D03*
X0146052Y0076839D03*
X0136485Y0061682D03*
X0147076Y0054438D03*
X0093454Y0056131D03*
X0093454Y0071721D03*
X0093965Y0080580D03*
X0093965Y0093650D03*
X0109713Y0103808D03*
X0111682Y0101052D03*
X0130934Y0095973D03*
X0079792Y0118375D03*
D35*
X0100217Y0100371D02*
X0100217Y0095139D01*
X0098729Y0093650D01*
X0093965Y0093650D01*
X0109713Y0103808D02*
X0143178Y0103808D01*
X0140894Y0101052D02*
X0111682Y0101052D01*
X0125855Y0090894D02*
X0130934Y0095973D01*
X0134123Y0092784D02*
X0134123Y0088847D01*
X0135245Y0087725D01*
X0135245Y0085343D01*
X0137213Y0085343D02*
X0137233Y0085363D01*
X0137233Y0090028D01*
X0141997Y0088060D02*
X0141997Y0092391D01*
X0143572Y0093965D01*
X0144871Y0091209D02*
X0145087Y0090993D01*
X0145087Y0085343D01*
X0143119Y0085343D02*
X0143119Y0086938D01*
X0141997Y0088060D01*
X0147056Y0085343D02*
X0147076Y0085363D01*
X0147076Y0098532D01*
X0149635Y0096367D02*
X0149635Y0091052D01*
X0149654Y0091032D01*
X0149654Y0082745D01*
X0149654Y0080776D02*
X0152430Y0080776D01*
X0155225Y0083572D01*
X0155225Y0085501D01*
X0158906Y0080580D02*
X0157745Y0079418D01*
X0157745Y0073887D01*
X0154792Y0070934D01*
X0149654Y0070934D01*
X0149654Y0068965D02*
X0147312Y0068965D01*
X0146721Y0069556D01*
X0146721Y0071918D01*
X0143572Y0075068D01*
X0143572Y0078217D01*
X0144359Y0079005D01*
X0149457Y0079005D01*
X0149654Y0078808D01*
X0149654Y0074871D02*
X0152036Y0074871D01*
X0155383Y0078217D01*
X0155540Y0075225D02*
X0153217Y0072902D01*
X0149654Y0072902D01*
X0141150Y0066367D02*
X0141150Y0058867D01*
X0140816Y0058532D01*
X0140816Y0052233D01*
X0140816Y0051131D01*
X0142430Y0049517D01*
X0143808Y0049517D01*
X0140816Y0051131D02*
X0140816Y0042391D01*
X0138454Y0040028D01*
X0132942Y0040028D01*
X0129328Y0043643D01*
X0129328Y0044434D01*
X0122312Y0050461D02*
X0122312Y0054595D01*
X0125461Y0057745D01*
X0132942Y0057745D01*
X0132942Y0054206D01*
X0136611Y0050536D01*
X0136485Y0057745D02*
X0132942Y0057745D01*
X0136485Y0057745D02*
X0139123Y0060383D01*
X0139123Y0066308D01*
X0139182Y0066367D01*
X0141131Y0066347D02*
X0141150Y0066367D01*
X0137213Y0066367D02*
X0137213Y0062410D01*
X0136485Y0061682D01*
X0133335Y0063650D02*
X0133335Y0066308D01*
X0133276Y0066367D01*
X0133335Y0063650D02*
X0132942Y0063257D01*
X0126052Y0063257D01*
X0126800Y0080816D02*
X0125855Y0081761D01*
X0125855Y0090894D01*
X0126800Y0080816D02*
X0130639Y0080816D01*
X0130678Y0080776D01*
X0153414Y0093965D02*
X0153847Y0094398D01*
X0158331Y0094398D01*
X0158371Y0094359D01*
X0162469Y0094359D01*
X0158331Y0094398D02*
X0158292Y0094359D01*
X0169517Y0094398D02*
X0169635Y0094280D01*
X0169635Y0087902D01*
X0168414Y0086682D01*
X0169635Y0087902D02*
X0183493Y0087902D01*
X0195146Y0076249D01*
X0199532Y0076249D01*
X0194359Y0080973D02*
X0204808Y0080973D01*
X0209532Y0076249D01*
X0209532Y0086249D02*
X0204572Y0091209D01*
X0192784Y0091209D01*
X0189635Y0094359D01*
X0177036Y0094359D01*
X0174280Y0091209D02*
X0184123Y0091209D01*
X0194359Y0080973D01*
X0188060Y0078217D02*
X0193178Y0073099D01*
X0193178Y0067981D01*
X0194910Y0066249D01*
X0199532Y0066249D01*
X0204965Y0061682D02*
X0209532Y0066249D01*
X0204965Y0061682D02*
X0171918Y0061682D01*
X0162320Y0075304D02*
X0164013Y0076997D01*
X0165973Y0076997D01*
X0169556Y0080580D01*
X0164013Y0078186D02*
X0164013Y0076997D01*
X0162320Y0075304D02*
X0159989Y0075304D01*
X0171564Y0085698D02*
X0177824Y0085698D01*
X0185698Y0096721D02*
X0199060Y0096721D01*
X0199532Y0096249D01*
X0172312Y0115304D02*
X0159363Y0115304D01*
X0159343Y0115284D01*
X0149690Y0115284D01*
X0149650Y0115324D01*
X0147997Y0110284D02*
X0142957Y0115324D01*
X0142544Y0114910D01*
X0137548Y0114910D01*
X0134123Y0117194D02*
X0134123Y0106564D01*
X0130934Y0106485D02*
X0130934Y0122194D01*
X0128217Y0114910D02*
X0120265Y0114910D01*
X0114438Y0120737D01*
X0114438Y0125068D01*
X0144316Y0122182D02*
X0144316Y0116682D01*
X0142957Y0115324D01*
X0142938Y0115304D01*
X0147997Y0110284D02*
X0159343Y0110284D01*
X0159343Y0120284D02*
X0151505Y0120284D01*
X0151446Y0120343D01*
X0151485Y0125225D02*
X0151505Y0125245D01*
X0159343Y0125245D01*
X0159363Y0125265D01*
X0175107Y0125265D01*
X0169202Y0120304D02*
X0169182Y0120284D01*
X0159343Y0120284D01*
X0098729Y0080501D02*
X0098650Y0080501D01*
X0098572Y0080580D01*
X0093965Y0080580D01*
X0093454Y0071721D02*
X0098729Y0071721D01*
X0098729Y0056091D02*
X0093493Y0056091D01*
X0093454Y0056131D01*
X0098729Y0056091D02*
X0099154Y0055666D01*
X0099154Y0049422D01*
X0153611Y0025068D02*
X0159123Y0025068D01*
D36*
X0109564Y0058659D02*
X0106997Y0056091D01*
X0105422Y0056091D01*
X0109564Y0058659D02*
X0109564Y0062272D01*
X0118226Y0070934D01*
X0130678Y0070934D01*
X0130678Y0072902D02*
X0116555Y0072902D01*
X0112052Y0068399D01*
X0108745Y0068399D01*
X0105422Y0071721D01*
X0112052Y0068399D02*
X0107107Y0063454D01*
X0094604Y0063454D01*
X0089092Y0068965D01*
X0079595Y0068965D01*
X0070595Y0059965D01*
X0070595Y0058746D01*
X0066193Y0058746D01*
X0062863Y0062076D01*
X0062076Y0062076D01*
X0062076Y0054202D02*
X0073099Y0054202D01*
X0075068Y0056170D01*
X0075068Y0058218D01*
X0080595Y0063746D01*
X0084634Y0067784D01*
X0088603Y0067784D01*
X0094114Y0062272D01*
X0109564Y0062272D01*
X0120886Y0076839D02*
X0130678Y0076839D01*
X0130678Y0078808D02*
X0120982Y0078808D01*
X0113108Y0086682D01*
X0106170Y0086682D01*
X0105422Y0087430D01*
X0105422Y0093650D01*
X0106170Y0086682D02*
X0096966Y0086682D01*
X0084367Y0099280D01*
X0076792Y0099280D01*
X0075658Y0098147D01*
X0075658Y0093809D01*
X0070595Y0088746D01*
X0065720Y0088746D01*
X0063535Y0090931D01*
X0063496Y0090973D01*
X0063459Y0091017D01*
X0063425Y0091063D01*
X0063394Y0091112D01*
X0063366Y0091162D01*
X0063341Y0091213D01*
X0063319Y0091266D01*
X0063300Y0091320D01*
X0063285Y0091376D01*
X0063273Y0091432D01*
X0063264Y0091488D01*
X0063259Y0091546D01*
X0063257Y0091603D01*
X0063257Y0083729D02*
X0072706Y0083729D01*
X0080595Y0091619D01*
X0080595Y0093746D01*
X0080595Y0092800D01*
X0080595Y0093746D02*
X0080595Y0096934D01*
X0081761Y0098099D01*
X0083878Y0098099D01*
X0096477Y0085501D01*
X0106170Y0085501D01*
X0105422Y0084753D01*
X0105422Y0080501D01*
X0106170Y0085501D02*
X0112225Y0085501D01*
X0120886Y0076839D01*
X0080595Y0063746D02*
X0080580Y0063730D01*
X0041694Y0066698D02*
X0037651Y0066698D01*
X0032296Y0061342D01*
X0041694Y0085497D02*
X0032294Y0094897D01*
X0032294Y0101152D01*
M02*
