G75*
%MOIN*%
%OFA0B0*%
%FSLAX25Y25*%
%IPPOS*%
%LPD*%
%AMOC8*
5,1,8,0,0,1.08239X$1,22.5*
%
%ADD10C,0.00500*%
%ADD11C,0.00600*%
D10*
X0002725Y0045245D02*
X0088473Y0045245D01*
X0088473Y0107253D01*
X0002725Y0107253D01*
X0002725Y0045245D01*
D11*
X0044946Y0032792D02*
X0044946Y0026792D01*
X0044948Y0026732D01*
X0044953Y0026671D01*
X0044962Y0026612D01*
X0044975Y0026553D01*
X0044991Y0026494D01*
X0045011Y0026437D01*
X0045034Y0026382D01*
X0045061Y0026327D01*
X0045090Y0026275D01*
X0045123Y0026224D01*
X0045159Y0026175D01*
X0045197Y0026129D01*
X0045239Y0026085D01*
X0045283Y0026043D01*
X0045329Y0026005D01*
X0045378Y0025969D01*
X0045429Y0025936D01*
X0045481Y0025907D01*
X0045536Y0025880D01*
X0045591Y0025857D01*
X0045648Y0025837D01*
X0045707Y0025821D01*
X0045766Y0025808D01*
X0045825Y0025799D01*
X0045886Y0025794D01*
X0045946Y0025792D01*
X0056946Y0025792D01*
X0057006Y0025794D01*
X0057067Y0025799D01*
X0057126Y0025808D01*
X0057185Y0025821D01*
X0057244Y0025837D01*
X0057301Y0025857D01*
X0057356Y0025880D01*
X0057411Y0025907D01*
X0057463Y0025936D01*
X0057514Y0025969D01*
X0057563Y0026005D01*
X0057609Y0026043D01*
X0057653Y0026085D01*
X0057695Y0026129D01*
X0057733Y0026175D01*
X0057769Y0026224D01*
X0057802Y0026275D01*
X0057831Y0026327D01*
X0057858Y0026382D01*
X0057881Y0026437D01*
X0057901Y0026494D01*
X0057917Y0026553D01*
X0057930Y0026612D01*
X0057939Y0026671D01*
X0057944Y0026732D01*
X0057946Y0026792D01*
X0057946Y0032792D01*
X0057944Y0032852D01*
X0057939Y0032913D01*
X0057930Y0032972D01*
X0057917Y0033031D01*
X0057901Y0033090D01*
X0057881Y0033147D01*
X0057858Y0033202D01*
X0057831Y0033257D01*
X0057802Y0033309D01*
X0057769Y0033360D01*
X0057733Y0033409D01*
X0057695Y0033455D01*
X0057653Y0033499D01*
X0057609Y0033541D01*
X0057563Y0033579D01*
X0057514Y0033615D01*
X0057463Y0033648D01*
X0057411Y0033677D01*
X0057356Y0033704D01*
X0057301Y0033727D01*
X0057244Y0033747D01*
X0057185Y0033763D01*
X0057126Y0033776D01*
X0057067Y0033785D01*
X0057006Y0033790D01*
X0056946Y0033792D01*
X0045946Y0033792D01*
X0045886Y0033790D01*
X0045825Y0033785D01*
X0045766Y0033776D01*
X0045707Y0033763D01*
X0045648Y0033747D01*
X0045591Y0033727D01*
X0045536Y0033704D01*
X0045481Y0033677D01*
X0045429Y0033648D01*
X0045378Y0033615D01*
X0045329Y0033579D01*
X0045283Y0033541D01*
X0045239Y0033499D01*
X0045197Y0033455D01*
X0045159Y0033409D01*
X0045123Y0033360D01*
X0045090Y0033309D01*
X0045061Y0033257D01*
X0045034Y0033202D01*
X0045011Y0033147D01*
X0044991Y0033090D01*
X0044975Y0033031D01*
X0044962Y0032972D01*
X0044953Y0032913D01*
X0044948Y0032852D01*
X0044946Y0032792D01*
X0046930Y0117839D02*
X0057930Y0117839D01*
X0057990Y0117841D01*
X0058051Y0117846D01*
X0058110Y0117855D01*
X0058169Y0117868D01*
X0058228Y0117884D01*
X0058285Y0117904D01*
X0058340Y0117927D01*
X0058395Y0117954D01*
X0058447Y0117983D01*
X0058498Y0118016D01*
X0058547Y0118052D01*
X0058593Y0118090D01*
X0058637Y0118132D01*
X0058679Y0118176D01*
X0058717Y0118222D01*
X0058753Y0118271D01*
X0058786Y0118322D01*
X0058815Y0118374D01*
X0058842Y0118429D01*
X0058865Y0118484D01*
X0058885Y0118541D01*
X0058901Y0118600D01*
X0058914Y0118659D01*
X0058923Y0118718D01*
X0058928Y0118779D01*
X0058930Y0118839D01*
X0058930Y0124839D01*
X0058928Y0124899D01*
X0058923Y0124960D01*
X0058914Y0125019D01*
X0058901Y0125078D01*
X0058885Y0125137D01*
X0058865Y0125194D01*
X0058842Y0125249D01*
X0058815Y0125304D01*
X0058786Y0125356D01*
X0058753Y0125407D01*
X0058717Y0125456D01*
X0058679Y0125502D01*
X0058637Y0125546D01*
X0058593Y0125588D01*
X0058547Y0125626D01*
X0058498Y0125662D01*
X0058447Y0125695D01*
X0058395Y0125724D01*
X0058340Y0125751D01*
X0058285Y0125774D01*
X0058228Y0125794D01*
X0058169Y0125810D01*
X0058110Y0125823D01*
X0058051Y0125832D01*
X0057990Y0125837D01*
X0057930Y0125839D01*
X0046930Y0125839D01*
X0046870Y0125837D01*
X0046809Y0125832D01*
X0046750Y0125823D01*
X0046691Y0125810D01*
X0046632Y0125794D01*
X0046575Y0125774D01*
X0046520Y0125751D01*
X0046465Y0125724D01*
X0046413Y0125695D01*
X0046362Y0125662D01*
X0046313Y0125626D01*
X0046267Y0125588D01*
X0046223Y0125546D01*
X0046181Y0125502D01*
X0046143Y0125456D01*
X0046107Y0125407D01*
X0046074Y0125356D01*
X0046045Y0125304D01*
X0046018Y0125249D01*
X0045995Y0125194D01*
X0045975Y0125137D01*
X0045959Y0125078D01*
X0045946Y0125019D01*
X0045937Y0124960D01*
X0045932Y0124899D01*
X0045930Y0124839D01*
X0045930Y0118839D01*
X0045932Y0118779D01*
X0045937Y0118718D01*
X0045946Y0118659D01*
X0045959Y0118600D01*
X0045975Y0118541D01*
X0045995Y0118484D01*
X0046018Y0118429D01*
X0046045Y0118374D01*
X0046074Y0118322D01*
X0046107Y0118271D01*
X0046143Y0118222D01*
X0046181Y0118176D01*
X0046223Y0118132D01*
X0046267Y0118090D01*
X0046313Y0118052D01*
X0046362Y0118016D01*
X0046413Y0117983D01*
X0046465Y0117954D01*
X0046520Y0117927D01*
X0046575Y0117904D01*
X0046632Y0117884D01*
X0046691Y0117868D01*
X0046750Y0117855D01*
X0046809Y0117846D01*
X0046870Y0117841D01*
X0046930Y0117839D01*
X0177150Y0118918D02*
X0177150Y0124918D01*
X0177152Y0124978D01*
X0177157Y0125039D01*
X0177166Y0125098D01*
X0177179Y0125157D01*
X0177195Y0125216D01*
X0177215Y0125273D01*
X0177238Y0125328D01*
X0177265Y0125383D01*
X0177294Y0125435D01*
X0177327Y0125486D01*
X0177363Y0125535D01*
X0177401Y0125581D01*
X0177443Y0125625D01*
X0177487Y0125667D01*
X0177533Y0125705D01*
X0177582Y0125741D01*
X0177633Y0125774D01*
X0177685Y0125803D01*
X0177740Y0125830D01*
X0177795Y0125853D01*
X0177852Y0125873D01*
X0177911Y0125889D01*
X0177970Y0125902D01*
X0178029Y0125911D01*
X0178090Y0125916D01*
X0178150Y0125918D01*
X0189150Y0125918D01*
X0189210Y0125916D01*
X0189271Y0125911D01*
X0189330Y0125902D01*
X0189389Y0125889D01*
X0189448Y0125873D01*
X0189505Y0125853D01*
X0189560Y0125830D01*
X0189615Y0125803D01*
X0189667Y0125774D01*
X0189718Y0125741D01*
X0189767Y0125705D01*
X0189813Y0125667D01*
X0189857Y0125625D01*
X0189899Y0125581D01*
X0189937Y0125535D01*
X0189973Y0125486D01*
X0190006Y0125435D01*
X0190035Y0125383D01*
X0190062Y0125328D01*
X0190085Y0125273D01*
X0190105Y0125216D01*
X0190121Y0125157D01*
X0190134Y0125098D01*
X0190143Y0125039D01*
X0190148Y0124978D01*
X0190150Y0124918D01*
X0190150Y0118918D01*
X0190148Y0118858D01*
X0190143Y0118797D01*
X0190134Y0118738D01*
X0190121Y0118679D01*
X0190105Y0118620D01*
X0190085Y0118563D01*
X0190062Y0118508D01*
X0190035Y0118453D01*
X0190006Y0118401D01*
X0189973Y0118350D01*
X0189937Y0118301D01*
X0189899Y0118255D01*
X0189857Y0118211D01*
X0189813Y0118169D01*
X0189767Y0118131D01*
X0189718Y0118095D01*
X0189667Y0118062D01*
X0189615Y0118033D01*
X0189560Y0118006D01*
X0189505Y0117983D01*
X0189448Y0117963D01*
X0189389Y0117947D01*
X0189330Y0117934D01*
X0189271Y0117925D01*
X0189210Y0117920D01*
X0189150Y0117918D01*
X0178150Y0117918D01*
X0178090Y0117920D01*
X0178029Y0117925D01*
X0177970Y0117934D01*
X0177911Y0117947D01*
X0177852Y0117963D01*
X0177795Y0117983D01*
X0177740Y0118006D01*
X0177685Y0118033D01*
X0177633Y0118062D01*
X0177582Y0118095D01*
X0177533Y0118131D01*
X0177487Y0118169D01*
X0177443Y0118211D01*
X0177401Y0118255D01*
X0177363Y0118301D01*
X0177327Y0118350D01*
X0177294Y0118401D01*
X0177265Y0118453D01*
X0177238Y0118508D01*
X0177215Y0118563D01*
X0177195Y0118620D01*
X0177179Y0118679D01*
X0177166Y0118738D01*
X0177157Y0118797D01*
X0177152Y0118858D01*
X0177150Y0118918D01*
X0177324Y0033792D02*
X0188324Y0033792D01*
X0188384Y0033790D01*
X0188445Y0033785D01*
X0188504Y0033776D01*
X0188563Y0033763D01*
X0188622Y0033747D01*
X0188679Y0033727D01*
X0188734Y0033704D01*
X0188789Y0033677D01*
X0188841Y0033648D01*
X0188892Y0033615D01*
X0188941Y0033579D01*
X0188987Y0033541D01*
X0189031Y0033499D01*
X0189073Y0033455D01*
X0189111Y0033409D01*
X0189147Y0033360D01*
X0189180Y0033309D01*
X0189209Y0033257D01*
X0189236Y0033202D01*
X0189259Y0033147D01*
X0189279Y0033090D01*
X0189295Y0033031D01*
X0189308Y0032972D01*
X0189317Y0032913D01*
X0189322Y0032852D01*
X0189324Y0032792D01*
X0189324Y0026792D01*
X0189322Y0026732D01*
X0189317Y0026671D01*
X0189308Y0026612D01*
X0189295Y0026553D01*
X0189279Y0026494D01*
X0189259Y0026437D01*
X0189236Y0026382D01*
X0189209Y0026327D01*
X0189180Y0026275D01*
X0189147Y0026224D01*
X0189111Y0026175D01*
X0189073Y0026129D01*
X0189031Y0026085D01*
X0188987Y0026043D01*
X0188941Y0026005D01*
X0188892Y0025969D01*
X0188841Y0025936D01*
X0188789Y0025907D01*
X0188734Y0025880D01*
X0188679Y0025857D01*
X0188622Y0025837D01*
X0188563Y0025821D01*
X0188504Y0025808D01*
X0188445Y0025799D01*
X0188384Y0025794D01*
X0188324Y0025792D01*
X0177324Y0025792D01*
X0177264Y0025794D01*
X0177203Y0025799D01*
X0177144Y0025808D01*
X0177085Y0025821D01*
X0177026Y0025837D01*
X0176969Y0025857D01*
X0176914Y0025880D01*
X0176859Y0025907D01*
X0176807Y0025936D01*
X0176756Y0025969D01*
X0176707Y0026005D01*
X0176661Y0026043D01*
X0176617Y0026085D01*
X0176575Y0026129D01*
X0176537Y0026175D01*
X0176501Y0026224D01*
X0176468Y0026275D01*
X0176439Y0026327D01*
X0176412Y0026382D01*
X0176389Y0026437D01*
X0176369Y0026494D01*
X0176353Y0026553D01*
X0176340Y0026612D01*
X0176331Y0026671D01*
X0176326Y0026732D01*
X0176324Y0026792D01*
X0176324Y0032792D01*
X0176326Y0032852D01*
X0176331Y0032913D01*
X0176340Y0032972D01*
X0176353Y0033031D01*
X0176369Y0033090D01*
X0176389Y0033147D01*
X0176412Y0033202D01*
X0176439Y0033257D01*
X0176468Y0033309D01*
X0176501Y0033360D01*
X0176537Y0033409D01*
X0176575Y0033455D01*
X0176617Y0033499D01*
X0176661Y0033541D01*
X0176707Y0033579D01*
X0176756Y0033615D01*
X0176807Y0033648D01*
X0176859Y0033677D01*
X0176914Y0033704D01*
X0176969Y0033727D01*
X0177026Y0033747D01*
X0177085Y0033763D01*
X0177144Y0033776D01*
X0177203Y0033785D01*
X0177264Y0033790D01*
X0177324Y0033792D01*
M02*
