G75*
%MOIN*%
%OFA0B0*%
%FSLAX25Y25*%
%IPPOS*%
%LPD*%
%AMOC8*
5,1,8,0,0,1.08239X$1,22.5*
%
%ADD10R,0.01181X0.03150*%
%ADD11R,0.03150X0.01181*%
%ADD12R,0.03937X0.04331*%
%ADD13C,0.05315*%
%ADD14C,0.09449*%
%ADD15C,0.12992*%
%ADD16R,0.04724X0.07874*%
%ADD17R,0.04331X0.03937*%
%ADD18R,0.08661X0.01969*%
%ADD19R,0.03937X0.03543*%
%ADD20OC8,0.06000*%
%ADD21R,0.07087X0.06299*%
%ADD22C,0.19685*%
%ADD23C,0.10000*%
%ADD24C,0.05000*%
%ADD25R,0.06000X0.06000*%
%ADD26C,0.06000*%
%ADD27C,0.03937*%
%ADD28R,0.03150X0.03150*%
%ADD29C,0.02953*%
D10*
X0133276Y0066367D03*
X0135245Y0066367D03*
X0137213Y0066367D03*
X0139182Y0066367D03*
X0141150Y0066367D03*
X0143119Y0066367D03*
X0145087Y0066367D03*
X0147056Y0066367D03*
X0147056Y0085343D03*
X0145087Y0085343D03*
X0143119Y0085343D03*
X0141150Y0085343D03*
X0139182Y0085343D03*
X0137213Y0085343D03*
X0135245Y0085343D03*
X0133276Y0085343D03*
D11*
X0130678Y0082745D03*
X0130678Y0080776D03*
X0130678Y0078808D03*
X0130678Y0076839D03*
X0130678Y0074871D03*
X0130678Y0072902D03*
X0130678Y0070934D03*
X0130678Y0068965D03*
X0149654Y0068965D03*
X0149654Y0070934D03*
X0149654Y0072902D03*
X0149654Y0074871D03*
X0149654Y0076839D03*
X0149654Y0078808D03*
X0149654Y0080776D03*
X0149654Y0082745D03*
D12*
X0126052Y0063257D03*
X0119359Y0063257D03*
X0105422Y0056091D03*
X0098729Y0056091D03*
X0099154Y0049422D03*
X0099154Y0042729D03*
X0122312Y0043769D03*
X0122312Y0050461D03*
X0143808Y0049517D03*
X0143808Y0042824D03*
X0146918Y0025068D03*
X0153611Y0025068D03*
X0105422Y0071721D03*
X0098729Y0071721D03*
X0098729Y0080501D03*
X0105422Y0080501D03*
X0105422Y0093650D03*
X0098729Y0093650D03*
X0100217Y0100371D03*
X0100217Y0107064D03*
X0142957Y0115324D03*
X0149650Y0115324D03*
D13*
X0080595Y0093746D03*
X0070595Y0088746D03*
X0080595Y0083746D03*
X0070595Y0078746D03*
X0080595Y0073746D03*
X0070595Y0068746D03*
X0080595Y0063746D03*
X0070595Y0058746D03*
X0032296Y0061342D03*
X0026309Y0051349D03*
X0026311Y0091145D03*
X0032294Y0101152D03*
D14*
X0057603Y0107250D03*
X0057603Y0045242D03*
D15*
X0045595Y0053746D03*
X0045595Y0098746D03*
D16*
X0052741Y0081761D03*
X0052741Y0070737D03*
X0166261Y0055520D03*
X0166261Y0044497D03*
X0187816Y0043316D03*
X0187816Y0054339D03*
D17*
X0164013Y0070304D03*
X0164013Y0076997D03*
X0169517Y0094398D03*
X0158331Y0094398D03*
X0158331Y0101091D03*
X0169517Y0101091D03*
X0184843Y0103922D03*
X0191536Y0103922D03*
X0144316Y0122182D03*
X0144316Y0128875D03*
X0041694Y0085497D03*
X0041694Y0078804D03*
X0041694Y0073391D03*
X0041694Y0066698D03*
D18*
X0159343Y0110284D03*
X0159343Y0115284D03*
X0159343Y0120284D03*
X0159343Y0125245D03*
X0184178Y0125245D03*
X0184178Y0120245D03*
X0184178Y0115245D03*
X0184178Y0110245D03*
D19*
X0136611Y0050536D03*
X0129328Y0050536D03*
X0129328Y0044434D03*
X0136611Y0044434D03*
D20*
X0199532Y0056249D03*
X0209532Y0056249D03*
X0209532Y0066249D03*
X0199532Y0066249D03*
X0199532Y0076249D03*
X0209532Y0076249D03*
X0209532Y0086249D03*
X0199532Y0086249D03*
X0199532Y0096249D03*
X0209532Y0096249D03*
D21*
X0176822Y0054446D03*
X0176822Y0043423D03*
D22*
X0031170Y0029910D03*
X0031013Y0121839D03*
X0201800Y0121839D03*
X0201879Y0029831D03*
D23*
X0079792Y0126249D03*
X0067981Y0126249D03*
X0056170Y0126249D03*
D24*
X0063257Y0091603D03*
X0063257Y0083729D03*
X0062076Y0062076D03*
X0062076Y0054202D03*
D25*
X0090816Y0125068D03*
D26*
X0098690Y0125068D03*
X0106564Y0125068D03*
X0114438Y0125068D03*
X0122312Y0125068D03*
D27*
X0183335Y0130973D03*
X0049477Y0130973D03*
X0049477Y0020737D03*
X0183335Y0020737D03*
D28*
X0165028Y0025068D03*
X0159123Y0025068D03*
D29*
X0170343Y0025068D03*
X0143808Y0038690D03*
X0155816Y0052942D03*
X0129792Y0054989D03*
X0119320Y0057115D03*
X0093454Y0042666D03*
X0122351Y0039556D03*
X0093926Y0107469D03*
X0067981Y0118375D03*
M02*
