G75*
%MOIN*%
%OFA0B0*%
%FSLAX25Y25*%
%IPPOS*%
%LPD*%
%AMOC8*
5,1,8,0,0,1.08239X$1,22.5*
%
%ADD10C,0.00300*%
%ADD11C,0.00200*%
%ADD12C,0.00500*%
%ADD13C,0.00600*%
%ADD14C,0.00800*%
%ADD15C,0.00400*%
%ADD16R,0.00984X0.00886*%
D10*
X0051089Y0112619D02*
X0050605Y0113103D01*
X0051089Y0112619D02*
X0052056Y0112619D01*
X0052540Y0113103D01*
X0052540Y0113587D01*
X0052056Y0114071D01*
X0051573Y0114071D01*
X0052056Y0114071D02*
X0052540Y0114554D01*
X0052540Y0115038D01*
X0052056Y0115522D01*
X0051089Y0115522D01*
X0050605Y0115038D01*
X0049594Y0114071D02*
X0047659Y0114071D01*
X0048626Y0115038D02*
X0048626Y0113103D01*
X0053552Y0113587D02*
X0054519Y0112619D01*
X0055487Y0113587D01*
X0055487Y0115522D01*
X0056498Y0115038D02*
X0056982Y0115522D01*
X0057949Y0115522D01*
X0058433Y0115038D01*
X0058433Y0114554D01*
X0057949Y0114071D01*
X0058433Y0113587D01*
X0058433Y0113103D01*
X0057949Y0112619D01*
X0056982Y0112619D01*
X0056498Y0113103D01*
X0057466Y0114071D02*
X0057949Y0114071D01*
X0053552Y0113587D02*
X0053552Y0115522D01*
X0064981Y0115038D02*
X0064981Y0113103D01*
X0065465Y0112619D01*
X0066433Y0112619D01*
X0066916Y0113103D01*
X0066916Y0114071D01*
X0065949Y0114071D01*
X0066916Y0115038D02*
X0066433Y0115522D01*
X0065465Y0115522D01*
X0064981Y0115038D01*
X0067928Y0115522D02*
X0069863Y0112619D01*
X0069863Y0115522D01*
X0070875Y0115522D02*
X0072326Y0115522D01*
X0072810Y0115038D01*
X0072810Y0113103D01*
X0072326Y0112619D01*
X0070875Y0112619D01*
X0070875Y0115522D01*
X0067928Y0115522D02*
X0067928Y0112619D01*
X0079155Y0114071D02*
X0081090Y0114071D01*
X0082101Y0114554D02*
X0083069Y0115522D01*
X0083069Y0112619D01*
X0084036Y0112619D02*
X0082101Y0112619D01*
X0080122Y0113103D02*
X0080122Y0115038D01*
X0085048Y0115522D02*
X0085048Y0113587D01*
X0086015Y0112619D01*
X0086983Y0113587D01*
X0086983Y0115522D01*
X0087994Y0115038D02*
X0087994Y0114554D01*
X0088478Y0114071D01*
X0089446Y0114071D01*
X0089929Y0113587D01*
X0089929Y0113103D01*
X0089446Y0112619D01*
X0088478Y0112619D01*
X0087994Y0113103D01*
X0087994Y0113587D01*
X0088478Y0114071D01*
X0089446Y0114071D02*
X0089929Y0114554D01*
X0089929Y0115038D01*
X0089446Y0115522D01*
X0088478Y0115522D01*
X0087994Y0115038D01*
D11*
X0067163Y0100922D02*
X0067163Y0100069D01*
X0066737Y0099642D01*
X0065458Y0099642D01*
X0065458Y0098790D02*
X0065458Y0101348D01*
X0066737Y0101348D01*
X0067163Y0100922D01*
X0067163Y0098198D02*
X0067163Y0095640D01*
X0065458Y0095640D02*
X0065458Y0098198D01*
X0066310Y0097346D01*
X0067163Y0098198D01*
X0064625Y0098363D02*
X0062920Y0098363D01*
X0062088Y0097772D02*
X0061662Y0098198D01*
X0060382Y0098198D01*
X0060382Y0095640D01*
X0061662Y0095640D01*
X0062088Y0096066D01*
X0062088Y0097772D01*
X0061662Y0098790D02*
X0062088Y0099216D01*
X0062088Y0100922D01*
X0061662Y0101348D01*
X0060382Y0101348D01*
X0060382Y0098790D01*
X0061662Y0098790D01*
X0059550Y0098790D02*
X0058698Y0099642D01*
X0059124Y0099642D02*
X0057845Y0099642D01*
X0057845Y0098790D02*
X0057845Y0101348D01*
X0059124Y0101348D01*
X0059550Y0100922D01*
X0059550Y0100069D01*
X0059124Y0099642D01*
X0059124Y0098198D02*
X0059550Y0097772D01*
X0059550Y0096919D01*
X0059124Y0096493D01*
X0057845Y0096493D01*
X0058698Y0096493D02*
X0059550Y0095640D01*
X0057845Y0095640D02*
X0057845Y0098198D01*
X0059124Y0098198D01*
X0062920Y0095214D02*
X0064625Y0095214D01*
X0065064Y0071820D02*
X0066343Y0071820D01*
X0066769Y0071394D01*
X0066769Y0070541D01*
X0066343Y0070115D01*
X0065064Y0070115D01*
X0065064Y0069262D02*
X0065064Y0071820D01*
X0064232Y0068836D02*
X0062526Y0068836D01*
X0061694Y0068244D02*
X0061694Y0066539D01*
X0061268Y0066113D01*
X0059989Y0066113D01*
X0059989Y0068671D01*
X0061268Y0068671D01*
X0061694Y0068244D01*
X0061268Y0069262D02*
X0061694Y0069689D01*
X0061694Y0071394D01*
X0061268Y0071820D01*
X0059989Y0071820D01*
X0059989Y0069262D01*
X0061268Y0069262D01*
X0059157Y0068671D02*
X0057451Y0068671D01*
X0058304Y0068671D02*
X0058304Y0066113D01*
X0058304Y0069262D02*
X0058304Y0071820D01*
X0057451Y0071820D02*
X0059157Y0071820D01*
X0065064Y0068671D02*
X0065917Y0067818D01*
X0066769Y0068671D01*
X0066769Y0066113D01*
X0065064Y0066113D02*
X0065064Y0068671D01*
X0064232Y0065686D02*
X0062526Y0065686D01*
X0165402Y0123335D02*
X0165404Y0123423D01*
X0165410Y0123511D01*
X0165420Y0123599D01*
X0165434Y0123687D01*
X0165451Y0123773D01*
X0165473Y0123859D01*
X0165498Y0123943D01*
X0165528Y0124027D01*
X0165560Y0124109D01*
X0165597Y0124189D01*
X0165637Y0124268D01*
X0165681Y0124345D01*
X0165728Y0124420D01*
X0165778Y0124492D01*
X0165832Y0124563D01*
X0165888Y0124630D01*
X0165948Y0124696D01*
X0166010Y0124758D01*
X0166076Y0124818D01*
X0166143Y0124874D01*
X0166214Y0124928D01*
X0166286Y0124978D01*
X0166361Y0125025D01*
X0166438Y0125069D01*
X0166517Y0125109D01*
X0166597Y0125146D01*
X0166679Y0125178D01*
X0166763Y0125208D01*
X0166847Y0125233D01*
X0166933Y0125255D01*
X0167019Y0125272D01*
X0167107Y0125286D01*
X0167195Y0125296D01*
X0167283Y0125302D01*
X0167371Y0125304D01*
X0167459Y0125302D01*
X0167547Y0125296D01*
X0167635Y0125286D01*
X0167723Y0125272D01*
X0167809Y0125255D01*
X0167895Y0125233D01*
X0167979Y0125208D01*
X0168063Y0125178D01*
X0168145Y0125146D01*
X0168225Y0125109D01*
X0168304Y0125069D01*
X0168381Y0125025D01*
X0168456Y0124978D01*
X0168528Y0124928D01*
X0168599Y0124874D01*
X0168666Y0124818D01*
X0168732Y0124758D01*
X0168794Y0124696D01*
X0168854Y0124630D01*
X0168910Y0124563D01*
X0168964Y0124492D01*
X0169014Y0124420D01*
X0169061Y0124345D01*
X0169105Y0124268D01*
X0169145Y0124189D01*
X0169182Y0124109D01*
X0169214Y0124027D01*
X0169244Y0123943D01*
X0169269Y0123859D01*
X0169291Y0123773D01*
X0169308Y0123687D01*
X0169322Y0123599D01*
X0169332Y0123511D01*
X0169338Y0123423D01*
X0169340Y0123335D01*
X0169338Y0123247D01*
X0169332Y0123159D01*
X0169322Y0123071D01*
X0169308Y0122983D01*
X0169291Y0122897D01*
X0169269Y0122811D01*
X0169244Y0122727D01*
X0169214Y0122643D01*
X0169182Y0122561D01*
X0169145Y0122481D01*
X0169105Y0122402D01*
X0169061Y0122325D01*
X0169014Y0122250D01*
X0168964Y0122178D01*
X0168910Y0122107D01*
X0168854Y0122040D01*
X0168794Y0121974D01*
X0168732Y0121912D01*
X0168666Y0121852D01*
X0168599Y0121796D01*
X0168528Y0121742D01*
X0168456Y0121692D01*
X0168381Y0121645D01*
X0168304Y0121601D01*
X0168225Y0121561D01*
X0168145Y0121524D01*
X0168063Y0121492D01*
X0167979Y0121462D01*
X0167895Y0121437D01*
X0167809Y0121415D01*
X0167723Y0121398D01*
X0167635Y0121384D01*
X0167547Y0121374D01*
X0167459Y0121368D01*
X0167371Y0121366D01*
X0167283Y0121368D01*
X0167195Y0121374D01*
X0167107Y0121384D01*
X0167019Y0121398D01*
X0166933Y0121415D01*
X0166847Y0121437D01*
X0166763Y0121462D01*
X0166679Y0121492D01*
X0166597Y0121524D01*
X0166517Y0121561D01*
X0166438Y0121601D01*
X0166361Y0121645D01*
X0166286Y0121692D01*
X0166214Y0121742D01*
X0166143Y0121796D01*
X0166076Y0121852D01*
X0166010Y0121912D01*
X0165948Y0121974D01*
X0165888Y0122040D01*
X0165832Y0122107D01*
X0165778Y0122178D01*
X0165728Y0122250D01*
X0165681Y0122325D01*
X0165637Y0122402D01*
X0165597Y0122481D01*
X0165560Y0122561D01*
X0165528Y0122643D01*
X0165498Y0122727D01*
X0165473Y0122811D01*
X0165451Y0122897D01*
X0165434Y0122983D01*
X0165420Y0123071D01*
X0165410Y0123159D01*
X0165404Y0123247D01*
X0165402Y0123335D01*
D12*
X0148040Y0085698D02*
X0132292Y0085698D01*
X0130324Y0083729D01*
X0130324Y0067981D01*
X0132292Y0066013D01*
X0148040Y0066013D01*
X0150009Y0067981D01*
X0150009Y0083729D01*
X0148040Y0085698D01*
X0146072Y0082745D02*
X0146074Y0082807D01*
X0146080Y0082870D01*
X0146090Y0082931D01*
X0146104Y0082992D01*
X0146121Y0083052D01*
X0146142Y0083111D01*
X0146168Y0083168D01*
X0146196Y0083223D01*
X0146228Y0083277D01*
X0146264Y0083328D01*
X0146302Y0083378D01*
X0146344Y0083424D01*
X0146388Y0083468D01*
X0146436Y0083509D01*
X0146485Y0083547D01*
X0146537Y0083581D01*
X0146591Y0083612D01*
X0146647Y0083640D01*
X0146705Y0083664D01*
X0146764Y0083685D01*
X0146824Y0083701D01*
X0146885Y0083714D01*
X0146947Y0083723D01*
X0147009Y0083728D01*
X0147072Y0083729D01*
X0147134Y0083726D01*
X0147196Y0083719D01*
X0147258Y0083708D01*
X0147318Y0083693D01*
X0147378Y0083675D01*
X0147436Y0083653D01*
X0147493Y0083627D01*
X0147548Y0083597D01*
X0147601Y0083564D01*
X0147652Y0083528D01*
X0147700Y0083489D01*
X0147746Y0083446D01*
X0147789Y0083401D01*
X0147829Y0083353D01*
X0147866Y0083303D01*
X0147900Y0083250D01*
X0147931Y0083196D01*
X0147957Y0083140D01*
X0147981Y0083082D01*
X0148000Y0083022D01*
X0148016Y0082962D01*
X0148028Y0082900D01*
X0148036Y0082839D01*
X0148040Y0082776D01*
X0148040Y0082714D01*
X0148036Y0082651D01*
X0148028Y0082590D01*
X0148016Y0082528D01*
X0148000Y0082468D01*
X0147981Y0082408D01*
X0147957Y0082350D01*
X0147931Y0082294D01*
X0147900Y0082240D01*
X0147866Y0082187D01*
X0147829Y0082137D01*
X0147789Y0082089D01*
X0147746Y0082044D01*
X0147700Y0082001D01*
X0147652Y0081962D01*
X0147601Y0081926D01*
X0147548Y0081893D01*
X0147493Y0081863D01*
X0147436Y0081837D01*
X0147378Y0081815D01*
X0147318Y0081797D01*
X0147258Y0081782D01*
X0147196Y0081771D01*
X0147134Y0081764D01*
X0147072Y0081761D01*
X0147009Y0081762D01*
X0146947Y0081767D01*
X0146885Y0081776D01*
X0146824Y0081789D01*
X0146764Y0081805D01*
X0146705Y0081826D01*
X0146647Y0081850D01*
X0146591Y0081878D01*
X0146537Y0081909D01*
X0146485Y0081943D01*
X0146436Y0081981D01*
X0146388Y0082022D01*
X0146344Y0082066D01*
X0146302Y0082112D01*
X0146264Y0082162D01*
X0146228Y0082213D01*
X0146196Y0082267D01*
X0146168Y0082322D01*
X0146142Y0082379D01*
X0146121Y0082438D01*
X0146104Y0082498D01*
X0146090Y0082559D01*
X0146080Y0082620D01*
X0146074Y0082683D01*
X0146072Y0082745D01*
X0137891Y0051422D02*
X0128048Y0051422D01*
X0128048Y0043548D01*
X0137891Y0043548D01*
X0137891Y0051422D01*
X0136257Y0049847D02*
X0136259Y0049878D01*
X0136265Y0049909D01*
X0136274Y0049939D01*
X0136287Y0049968D01*
X0136304Y0049995D01*
X0136324Y0050019D01*
X0136346Y0050041D01*
X0136372Y0050060D01*
X0136399Y0050076D01*
X0136428Y0050088D01*
X0136458Y0050097D01*
X0136489Y0050102D01*
X0136521Y0050103D01*
X0136552Y0050100D01*
X0136583Y0050093D01*
X0136613Y0050083D01*
X0136641Y0050069D01*
X0136667Y0050051D01*
X0136691Y0050031D01*
X0136712Y0050007D01*
X0136731Y0049982D01*
X0136746Y0049954D01*
X0136757Y0049925D01*
X0136765Y0049894D01*
X0136769Y0049863D01*
X0136769Y0049831D01*
X0136765Y0049800D01*
X0136757Y0049769D01*
X0136746Y0049740D01*
X0136731Y0049712D01*
X0136712Y0049687D01*
X0136691Y0049663D01*
X0136667Y0049643D01*
X0136641Y0049625D01*
X0136613Y0049611D01*
X0136583Y0049601D01*
X0136552Y0049594D01*
X0136521Y0049591D01*
X0136489Y0049592D01*
X0136458Y0049597D01*
X0136428Y0049606D01*
X0136399Y0049618D01*
X0136372Y0049634D01*
X0136346Y0049653D01*
X0136324Y0049675D01*
X0136304Y0049699D01*
X0136287Y0049726D01*
X0136274Y0049755D01*
X0136265Y0049785D01*
X0136259Y0049816D01*
X0136257Y0049847D01*
D13*
X0194532Y0053749D02*
X0194532Y0058749D01*
X0197032Y0061249D01*
X0212032Y0061249D01*
X0214532Y0063749D01*
X0214532Y0068749D01*
X0212032Y0071249D01*
X0197032Y0071249D01*
X0194532Y0073749D01*
X0194532Y0078749D01*
X0197032Y0081249D01*
X0212032Y0081249D01*
X0214532Y0083749D01*
X0214532Y0088749D01*
X0212032Y0091249D01*
X0214532Y0093749D01*
X0214532Y0098749D01*
X0212032Y0101249D01*
X0197032Y0101249D01*
X0194532Y0098749D01*
X0194532Y0093749D01*
X0197032Y0091249D01*
X0212032Y0091249D01*
X0212032Y0081249D02*
X0214532Y0078749D01*
X0214532Y0073749D01*
X0212032Y0071249D01*
X0197032Y0071249D02*
X0194532Y0068749D01*
X0194532Y0063749D01*
X0197032Y0061249D01*
X0194532Y0053749D02*
X0197032Y0051249D01*
X0212032Y0051249D01*
X0214532Y0053749D01*
X0214532Y0058749D01*
X0212032Y0061249D01*
X0197032Y0081249D02*
X0194532Y0083749D01*
X0194532Y0088749D01*
X0197032Y0091249D01*
X0180619Y0107509D02*
X0162902Y0107509D01*
X0162840Y0107511D01*
X0162779Y0107517D01*
X0162718Y0107526D01*
X0162657Y0107540D01*
X0162598Y0107557D01*
X0162540Y0107578D01*
X0162483Y0107603D01*
X0162428Y0107631D01*
X0162375Y0107662D01*
X0162324Y0107697D01*
X0162275Y0107735D01*
X0162228Y0107776D01*
X0162185Y0107819D01*
X0162144Y0107866D01*
X0162106Y0107915D01*
X0162071Y0107966D01*
X0162040Y0108019D01*
X0162012Y0108074D01*
X0161987Y0108131D01*
X0161966Y0108189D01*
X0161949Y0108248D01*
X0161935Y0108309D01*
X0161926Y0108370D01*
X0161920Y0108431D01*
X0161918Y0108493D01*
X0161918Y0108572D02*
X0161918Y0109083D01*
X0161918Y0111485D02*
X0161918Y0114044D01*
X0161918Y0116485D02*
X0161918Y0119044D01*
X0161918Y0121485D02*
X0161918Y0124005D01*
X0161918Y0126446D02*
X0161918Y0126957D01*
X0161918Y0126997D02*
X0161920Y0127059D01*
X0161926Y0127120D01*
X0161935Y0127181D01*
X0161949Y0127242D01*
X0161966Y0127301D01*
X0161987Y0127359D01*
X0162012Y0127416D01*
X0162040Y0127471D01*
X0162071Y0127524D01*
X0162106Y0127575D01*
X0162144Y0127624D01*
X0162185Y0127671D01*
X0162228Y0127714D01*
X0162275Y0127755D01*
X0162324Y0127793D01*
X0162375Y0127828D01*
X0162428Y0127859D01*
X0162483Y0127887D01*
X0162540Y0127912D01*
X0162598Y0127933D01*
X0162657Y0127950D01*
X0162718Y0127964D01*
X0162779Y0127973D01*
X0162840Y0127979D01*
X0162902Y0127981D01*
X0162942Y0127981D02*
X0180619Y0127981D01*
X0180681Y0127979D01*
X0180742Y0127973D01*
X0180803Y0127964D01*
X0180864Y0127950D01*
X0180923Y0127933D01*
X0180981Y0127912D01*
X0181038Y0127887D01*
X0181093Y0127859D01*
X0181146Y0127828D01*
X0181197Y0127793D01*
X0181246Y0127755D01*
X0181293Y0127714D01*
X0181336Y0127671D01*
X0181377Y0127624D01*
X0181415Y0127575D01*
X0181450Y0127524D01*
X0181481Y0127471D01*
X0181509Y0127416D01*
X0181534Y0127359D01*
X0181555Y0127301D01*
X0181572Y0127242D01*
X0181586Y0127181D01*
X0181595Y0127120D01*
X0181601Y0127059D01*
X0181603Y0126997D01*
X0181603Y0126957D02*
X0181603Y0126446D01*
X0181603Y0124005D02*
X0181603Y0121485D01*
X0181603Y0119005D02*
X0181603Y0116485D01*
X0181603Y0114005D02*
X0181603Y0111485D01*
X0181603Y0109044D02*
X0181603Y0108454D01*
X0181603Y0108493D02*
X0181601Y0108431D01*
X0181595Y0108370D01*
X0181586Y0108309D01*
X0181572Y0108248D01*
X0181555Y0108189D01*
X0181534Y0108131D01*
X0181509Y0108074D01*
X0181481Y0108019D01*
X0181450Y0107966D01*
X0181415Y0107915D01*
X0181377Y0107866D01*
X0181336Y0107819D01*
X0181293Y0107776D01*
X0181246Y0107735D01*
X0181197Y0107697D01*
X0181146Y0107662D01*
X0181093Y0107631D01*
X0181038Y0107603D01*
X0180981Y0107578D01*
X0180923Y0107557D01*
X0180864Y0107540D01*
X0180803Y0107526D01*
X0180742Y0107517D01*
X0180681Y0107511D01*
X0180619Y0107509D01*
X0189989Y0121839D02*
X0189993Y0122129D01*
X0190003Y0122419D01*
X0190021Y0122708D01*
X0190046Y0122997D01*
X0190078Y0123285D01*
X0190117Y0123572D01*
X0190163Y0123858D01*
X0190216Y0124143D01*
X0190276Y0124427D01*
X0190343Y0124709D01*
X0190417Y0124989D01*
X0190498Y0125268D01*
X0190585Y0125544D01*
X0190679Y0125818D01*
X0190780Y0126090D01*
X0190888Y0126359D01*
X0191002Y0126625D01*
X0191123Y0126889D01*
X0191250Y0127149D01*
X0191384Y0127407D01*
X0191523Y0127661D01*
X0191669Y0127911D01*
X0191821Y0128158D01*
X0191980Y0128401D01*
X0192144Y0128640D01*
X0192313Y0128875D01*
X0192489Y0129106D01*
X0192670Y0129332D01*
X0192857Y0129554D01*
X0193049Y0129771D01*
X0193246Y0129983D01*
X0193448Y0130191D01*
X0193656Y0130393D01*
X0193868Y0130590D01*
X0194085Y0130782D01*
X0194307Y0130969D01*
X0194533Y0131150D01*
X0194764Y0131326D01*
X0194999Y0131495D01*
X0195238Y0131659D01*
X0195481Y0131818D01*
X0195728Y0131970D01*
X0195978Y0132116D01*
X0196232Y0132255D01*
X0196490Y0132389D01*
X0196750Y0132516D01*
X0197014Y0132637D01*
X0197280Y0132751D01*
X0197549Y0132859D01*
X0197821Y0132960D01*
X0198095Y0133054D01*
X0198371Y0133141D01*
X0198650Y0133222D01*
X0198930Y0133296D01*
X0199212Y0133363D01*
X0199496Y0133423D01*
X0199781Y0133476D01*
X0200067Y0133522D01*
X0200354Y0133561D01*
X0200642Y0133593D01*
X0200931Y0133618D01*
X0201220Y0133636D01*
X0201510Y0133646D01*
X0201800Y0133650D01*
X0202090Y0133646D01*
X0202380Y0133636D01*
X0202669Y0133618D01*
X0202958Y0133593D01*
X0203246Y0133561D01*
X0203533Y0133522D01*
X0203819Y0133476D01*
X0204104Y0133423D01*
X0204388Y0133363D01*
X0204670Y0133296D01*
X0204950Y0133222D01*
X0205229Y0133141D01*
X0205505Y0133054D01*
X0205779Y0132960D01*
X0206051Y0132859D01*
X0206320Y0132751D01*
X0206586Y0132637D01*
X0206850Y0132516D01*
X0207110Y0132389D01*
X0207368Y0132255D01*
X0207622Y0132116D01*
X0207872Y0131970D01*
X0208119Y0131818D01*
X0208362Y0131659D01*
X0208601Y0131495D01*
X0208836Y0131326D01*
X0209067Y0131150D01*
X0209293Y0130969D01*
X0209515Y0130782D01*
X0209732Y0130590D01*
X0209944Y0130393D01*
X0210152Y0130191D01*
X0210354Y0129983D01*
X0210551Y0129771D01*
X0210743Y0129554D01*
X0210930Y0129332D01*
X0211111Y0129106D01*
X0211287Y0128875D01*
X0211456Y0128640D01*
X0211620Y0128401D01*
X0211779Y0128158D01*
X0211931Y0127911D01*
X0212077Y0127661D01*
X0212216Y0127407D01*
X0212350Y0127149D01*
X0212477Y0126889D01*
X0212598Y0126625D01*
X0212712Y0126359D01*
X0212820Y0126090D01*
X0212921Y0125818D01*
X0213015Y0125544D01*
X0213102Y0125268D01*
X0213183Y0124989D01*
X0213257Y0124709D01*
X0213324Y0124427D01*
X0213384Y0124143D01*
X0213437Y0123858D01*
X0213483Y0123572D01*
X0213522Y0123285D01*
X0213554Y0122997D01*
X0213579Y0122708D01*
X0213597Y0122419D01*
X0213607Y0122129D01*
X0213611Y0121839D01*
X0213607Y0121549D01*
X0213597Y0121259D01*
X0213579Y0120970D01*
X0213554Y0120681D01*
X0213522Y0120393D01*
X0213483Y0120106D01*
X0213437Y0119820D01*
X0213384Y0119535D01*
X0213324Y0119251D01*
X0213257Y0118969D01*
X0213183Y0118689D01*
X0213102Y0118410D01*
X0213015Y0118134D01*
X0212921Y0117860D01*
X0212820Y0117588D01*
X0212712Y0117319D01*
X0212598Y0117053D01*
X0212477Y0116789D01*
X0212350Y0116529D01*
X0212216Y0116271D01*
X0212077Y0116017D01*
X0211931Y0115767D01*
X0211779Y0115520D01*
X0211620Y0115277D01*
X0211456Y0115038D01*
X0211287Y0114803D01*
X0211111Y0114572D01*
X0210930Y0114346D01*
X0210743Y0114124D01*
X0210551Y0113907D01*
X0210354Y0113695D01*
X0210152Y0113487D01*
X0209944Y0113285D01*
X0209732Y0113088D01*
X0209515Y0112896D01*
X0209293Y0112709D01*
X0209067Y0112528D01*
X0208836Y0112352D01*
X0208601Y0112183D01*
X0208362Y0112019D01*
X0208119Y0111860D01*
X0207872Y0111708D01*
X0207622Y0111562D01*
X0207368Y0111423D01*
X0207110Y0111289D01*
X0206850Y0111162D01*
X0206586Y0111041D01*
X0206320Y0110927D01*
X0206051Y0110819D01*
X0205779Y0110718D01*
X0205505Y0110624D01*
X0205229Y0110537D01*
X0204950Y0110456D01*
X0204670Y0110382D01*
X0204388Y0110315D01*
X0204104Y0110255D01*
X0203819Y0110202D01*
X0203533Y0110156D01*
X0203246Y0110117D01*
X0202958Y0110085D01*
X0202669Y0110060D01*
X0202380Y0110042D01*
X0202090Y0110032D01*
X0201800Y0110028D01*
X0201510Y0110032D01*
X0201220Y0110042D01*
X0200931Y0110060D01*
X0200642Y0110085D01*
X0200354Y0110117D01*
X0200067Y0110156D01*
X0199781Y0110202D01*
X0199496Y0110255D01*
X0199212Y0110315D01*
X0198930Y0110382D01*
X0198650Y0110456D01*
X0198371Y0110537D01*
X0198095Y0110624D01*
X0197821Y0110718D01*
X0197549Y0110819D01*
X0197280Y0110927D01*
X0197014Y0111041D01*
X0196750Y0111162D01*
X0196490Y0111289D01*
X0196232Y0111423D01*
X0195978Y0111562D01*
X0195728Y0111708D01*
X0195481Y0111860D01*
X0195238Y0112019D01*
X0194999Y0112183D01*
X0194764Y0112352D01*
X0194533Y0112528D01*
X0194307Y0112709D01*
X0194085Y0112896D01*
X0193868Y0113088D01*
X0193656Y0113285D01*
X0193448Y0113487D01*
X0193246Y0113695D01*
X0193049Y0113907D01*
X0192857Y0114124D01*
X0192670Y0114346D01*
X0192489Y0114572D01*
X0192313Y0114803D01*
X0192144Y0115038D01*
X0191980Y0115277D01*
X0191821Y0115520D01*
X0191669Y0115767D01*
X0191523Y0116017D01*
X0191384Y0116271D01*
X0191250Y0116529D01*
X0191123Y0116789D01*
X0191002Y0117053D01*
X0190888Y0117319D01*
X0190780Y0117588D01*
X0190679Y0117860D01*
X0190585Y0118134D01*
X0190498Y0118410D01*
X0190417Y0118689D01*
X0190343Y0118969D01*
X0190276Y0119251D01*
X0190216Y0119535D01*
X0190163Y0119820D01*
X0190117Y0120106D01*
X0190078Y0120393D01*
X0190046Y0120681D01*
X0190021Y0120970D01*
X0190003Y0121259D01*
X0189993Y0121549D01*
X0189989Y0121839D01*
X0126249Y0123099D02*
X0124280Y0121131D01*
X0120343Y0121131D01*
X0118375Y0123099D01*
X0118375Y0127036D01*
X0120343Y0129005D01*
X0124280Y0129005D01*
X0126249Y0127036D01*
X0126249Y0123099D01*
X0118375Y0123099D02*
X0116406Y0121131D01*
X0112469Y0121131D01*
X0110501Y0123099D01*
X0110501Y0127036D01*
X0112469Y0129005D01*
X0116406Y0129005D01*
X0118375Y0127036D01*
X0110501Y0127036D02*
X0108532Y0129005D01*
X0104595Y0129005D01*
X0102627Y0127036D01*
X0102627Y0123099D01*
X0104595Y0121131D01*
X0108532Y0121131D01*
X0110501Y0123099D01*
X0102627Y0123099D02*
X0100658Y0121131D01*
X0096721Y0121131D01*
X0094753Y0123099D01*
X0094753Y0127036D01*
X0096721Y0129005D01*
X0100658Y0129005D01*
X0102627Y0127036D01*
X0094753Y0127036D02*
X0092784Y0129005D01*
X0088847Y0129005D01*
X0086879Y0127036D01*
X0086879Y0123099D01*
X0088847Y0121131D01*
X0092784Y0121131D01*
X0094753Y0123099D01*
X0019202Y0121839D02*
X0019206Y0122129D01*
X0019216Y0122419D01*
X0019234Y0122708D01*
X0019259Y0122997D01*
X0019291Y0123285D01*
X0019330Y0123572D01*
X0019376Y0123858D01*
X0019429Y0124143D01*
X0019489Y0124427D01*
X0019556Y0124709D01*
X0019630Y0124989D01*
X0019711Y0125268D01*
X0019798Y0125544D01*
X0019892Y0125818D01*
X0019993Y0126090D01*
X0020101Y0126359D01*
X0020215Y0126625D01*
X0020336Y0126889D01*
X0020463Y0127149D01*
X0020597Y0127407D01*
X0020736Y0127661D01*
X0020882Y0127911D01*
X0021034Y0128158D01*
X0021193Y0128401D01*
X0021357Y0128640D01*
X0021526Y0128875D01*
X0021702Y0129106D01*
X0021883Y0129332D01*
X0022070Y0129554D01*
X0022262Y0129771D01*
X0022459Y0129983D01*
X0022661Y0130191D01*
X0022869Y0130393D01*
X0023081Y0130590D01*
X0023298Y0130782D01*
X0023520Y0130969D01*
X0023746Y0131150D01*
X0023977Y0131326D01*
X0024212Y0131495D01*
X0024451Y0131659D01*
X0024694Y0131818D01*
X0024941Y0131970D01*
X0025191Y0132116D01*
X0025445Y0132255D01*
X0025703Y0132389D01*
X0025963Y0132516D01*
X0026227Y0132637D01*
X0026493Y0132751D01*
X0026762Y0132859D01*
X0027034Y0132960D01*
X0027308Y0133054D01*
X0027584Y0133141D01*
X0027863Y0133222D01*
X0028143Y0133296D01*
X0028425Y0133363D01*
X0028709Y0133423D01*
X0028994Y0133476D01*
X0029280Y0133522D01*
X0029567Y0133561D01*
X0029855Y0133593D01*
X0030144Y0133618D01*
X0030433Y0133636D01*
X0030723Y0133646D01*
X0031013Y0133650D01*
X0031303Y0133646D01*
X0031593Y0133636D01*
X0031882Y0133618D01*
X0032171Y0133593D01*
X0032459Y0133561D01*
X0032746Y0133522D01*
X0033032Y0133476D01*
X0033317Y0133423D01*
X0033601Y0133363D01*
X0033883Y0133296D01*
X0034163Y0133222D01*
X0034442Y0133141D01*
X0034718Y0133054D01*
X0034992Y0132960D01*
X0035264Y0132859D01*
X0035533Y0132751D01*
X0035799Y0132637D01*
X0036063Y0132516D01*
X0036323Y0132389D01*
X0036581Y0132255D01*
X0036835Y0132116D01*
X0037085Y0131970D01*
X0037332Y0131818D01*
X0037575Y0131659D01*
X0037814Y0131495D01*
X0038049Y0131326D01*
X0038280Y0131150D01*
X0038506Y0130969D01*
X0038728Y0130782D01*
X0038945Y0130590D01*
X0039157Y0130393D01*
X0039365Y0130191D01*
X0039567Y0129983D01*
X0039764Y0129771D01*
X0039956Y0129554D01*
X0040143Y0129332D01*
X0040324Y0129106D01*
X0040500Y0128875D01*
X0040669Y0128640D01*
X0040833Y0128401D01*
X0040992Y0128158D01*
X0041144Y0127911D01*
X0041290Y0127661D01*
X0041429Y0127407D01*
X0041563Y0127149D01*
X0041690Y0126889D01*
X0041811Y0126625D01*
X0041925Y0126359D01*
X0042033Y0126090D01*
X0042134Y0125818D01*
X0042228Y0125544D01*
X0042315Y0125268D01*
X0042396Y0124989D01*
X0042470Y0124709D01*
X0042537Y0124427D01*
X0042597Y0124143D01*
X0042650Y0123858D01*
X0042696Y0123572D01*
X0042735Y0123285D01*
X0042767Y0122997D01*
X0042792Y0122708D01*
X0042810Y0122419D01*
X0042820Y0122129D01*
X0042824Y0121839D01*
X0042820Y0121549D01*
X0042810Y0121259D01*
X0042792Y0120970D01*
X0042767Y0120681D01*
X0042735Y0120393D01*
X0042696Y0120106D01*
X0042650Y0119820D01*
X0042597Y0119535D01*
X0042537Y0119251D01*
X0042470Y0118969D01*
X0042396Y0118689D01*
X0042315Y0118410D01*
X0042228Y0118134D01*
X0042134Y0117860D01*
X0042033Y0117588D01*
X0041925Y0117319D01*
X0041811Y0117053D01*
X0041690Y0116789D01*
X0041563Y0116529D01*
X0041429Y0116271D01*
X0041290Y0116017D01*
X0041144Y0115767D01*
X0040992Y0115520D01*
X0040833Y0115277D01*
X0040669Y0115038D01*
X0040500Y0114803D01*
X0040324Y0114572D01*
X0040143Y0114346D01*
X0039956Y0114124D01*
X0039764Y0113907D01*
X0039567Y0113695D01*
X0039365Y0113487D01*
X0039157Y0113285D01*
X0038945Y0113088D01*
X0038728Y0112896D01*
X0038506Y0112709D01*
X0038280Y0112528D01*
X0038049Y0112352D01*
X0037814Y0112183D01*
X0037575Y0112019D01*
X0037332Y0111860D01*
X0037085Y0111708D01*
X0036835Y0111562D01*
X0036581Y0111423D01*
X0036323Y0111289D01*
X0036063Y0111162D01*
X0035799Y0111041D01*
X0035533Y0110927D01*
X0035264Y0110819D01*
X0034992Y0110718D01*
X0034718Y0110624D01*
X0034442Y0110537D01*
X0034163Y0110456D01*
X0033883Y0110382D01*
X0033601Y0110315D01*
X0033317Y0110255D01*
X0033032Y0110202D01*
X0032746Y0110156D01*
X0032459Y0110117D01*
X0032171Y0110085D01*
X0031882Y0110060D01*
X0031593Y0110042D01*
X0031303Y0110032D01*
X0031013Y0110028D01*
X0030723Y0110032D01*
X0030433Y0110042D01*
X0030144Y0110060D01*
X0029855Y0110085D01*
X0029567Y0110117D01*
X0029280Y0110156D01*
X0028994Y0110202D01*
X0028709Y0110255D01*
X0028425Y0110315D01*
X0028143Y0110382D01*
X0027863Y0110456D01*
X0027584Y0110537D01*
X0027308Y0110624D01*
X0027034Y0110718D01*
X0026762Y0110819D01*
X0026493Y0110927D01*
X0026227Y0111041D01*
X0025963Y0111162D01*
X0025703Y0111289D01*
X0025445Y0111423D01*
X0025191Y0111562D01*
X0024941Y0111708D01*
X0024694Y0111860D01*
X0024451Y0112019D01*
X0024212Y0112183D01*
X0023977Y0112352D01*
X0023746Y0112528D01*
X0023520Y0112709D01*
X0023298Y0112896D01*
X0023081Y0113088D01*
X0022869Y0113285D01*
X0022661Y0113487D01*
X0022459Y0113695D01*
X0022262Y0113907D01*
X0022070Y0114124D01*
X0021883Y0114346D01*
X0021702Y0114572D01*
X0021526Y0114803D01*
X0021357Y0115038D01*
X0021193Y0115277D01*
X0021034Y0115520D01*
X0020882Y0115767D01*
X0020736Y0116017D01*
X0020597Y0116271D01*
X0020463Y0116529D01*
X0020336Y0116789D01*
X0020215Y0117053D01*
X0020101Y0117319D01*
X0019993Y0117588D01*
X0019892Y0117860D01*
X0019798Y0118134D01*
X0019711Y0118410D01*
X0019630Y0118689D01*
X0019556Y0118969D01*
X0019489Y0119251D01*
X0019429Y0119535D01*
X0019376Y0119820D01*
X0019330Y0120106D01*
X0019291Y0120393D01*
X0019259Y0120681D01*
X0019234Y0120970D01*
X0019216Y0121259D01*
X0019206Y0121549D01*
X0019202Y0121839D01*
X0019359Y0029910D02*
X0019363Y0030200D01*
X0019373Y0030490D01*
X0019391Y0030779D01*
X0019416Y0031068D01*
X0019448Y0031356D01*
X0019487Y0031643D01*
X0019533Y0031929D01*
X0019586Y0032214D01*
X0019646Y0032498D01*
X0019713Y0032780D01*
X0019787Y0033060D01*
X0019868Y0033339D01*
X0019955Y0033615D01*
X0020049Y0033889D01*
X0020150Y0034161D01*
X0020258Y0034430D01*
X0020372Y0034696D01*
X0020493Y0034960D01*
X0020620Y0035220D01*
X0020754Y0035478D01*
X0020893Y0035732D01*
X0021039Y0035982D01*
X0021191Y0036229D01*
X0021350Y0036472D01*
X0021514Y0036711D01*
X0021683Y0036946D01*
X0021859Y0037177D01*
X0022040Y0037403D01*
X0022227Y0037625D01*
X0022419Y0037842D01*
X0022616Y0038054D01*
X0022818Y0038262D01*
X0023026Y0038464D01*
X0023238Y0038661D01*
X0023455Y0038853D01*
X0023677Y0039040D01*
X0023903Y0039221D01*
X0024134Y0039397D01*
X0024369Y0039566D01*
X0024608Y0039730D01*
X0024851Y0039889D01*
X0025098Y0040041D01*
X0025348Y0040187D01*
X0025602Y0040326D01*
X0025860Y0040460D01*
X0026120Y0040587D01*
X0026384Y0040708D01*
X0026650Y0040822D01*
X0026919Y0040930D01*
X0027191Y0041031D01*
X0027465Y0041125D01*
X0027741Y0041212D01*
X0028020Y0041293D01*
X0028300Y0041367D01*
X0028582Y0041434D01*
X0028866Y0041494D01*
X0029151Y0041547D01*
X0029437Y0041593D01*
X0029724Y0041632D01*
X0030012Y0041664D01*
X0030301Y0041689D01*
X0030590Y0041707D01*
X0030880Y0041717D01*
X0031170Y0041721D01*
X0031460Y0041717D01*
X0031750Y0041707D01*
X0032039Y0041689D01*
X0032328Y0041664D01*
X0032616Y0041632D01*
X0032903Y0041593D01*
X0033189Y0041547D01*
X0033474Y0041494D01*
X0033758Y0041434D01*
X0034040Y0041367D01*
X0034320Y0041293D01*
X0034599Y0041212D01*
X0034875Y0041125D01*
X0035149Y0041031D01*
X0035421Y0040930D01*
X0035690Y0040822D01*
X0035956Y0040708D01*
X0036220Y0040587D01*
X0036480Y0040460D01*
X0036738Y0040326D01*
X0036992Y0040187D01*
X0037242Y0040041D01*
X0037489Y0039889D01*
X0037732Y0039730D01*
X0037971Y0039566D01*
X0038206Y0039397D01*
X0038437Y0039221D01*
X0038663Y0039040D01*
X0038885Y0038853D01*
X0039102Y0038661D01*
X0039314Y0038464D01*
X0039522Y0038262D01*
X0039724Y0038054D01*
X0039921Y0037842D01*
X0040113Y0037625D01*
X0040300Y0037403D01*
X0040481Y0037177D01*
X0040657Y0036946D01*
X0040826Y0036711D01*
X0040990Y0036472D01*
X0041149Y0036229D01*
X0041301Y0035982D01*
X0041447Y0035732D01*
X0041586Y0035478D01*
X0041720Y0035220D01*
X0041847Y0034960D01*
X0041968Y0034696D01*
X0042082Y0034430D01*
X0042190Y0034161D01*
X0042291Y0033889D01*
X0042385Y0033615D01*
X0042472Y0033339D01*
X0042553Y0033060D01*
X0042627Y0032780D01*
X0042694Y0032498D01*
X0042754Y0032214D01*
X0042807Y0031929D01*
X0042853Y0031643D01*
X0042892Y0031356D01*
X0042924Y0031068D01*
X0042949Y0030779D01*
X0042967Y0030490D01*
X0042977Y0030200D01*
X0042981Y0029910D01*
X0042977Y0029620D01*
X0042967Y0029330D01*
X0042949Y0029041D01*
X0042924Y0028752D01*
X0042892Y0028464D01*
X0042853Y0028177D01*
X0042807Y0027891D01*
X0042754Y0027606D01*
X0042694Y0027322D01*
X0042627Y0027040D01*
X0042553Y0026760D01*
X0042472Y0026481D01*
X0042385Y0026205D01*
X0042291Y0025931D01*
X0042190Y0025659D01*
X0042082Y0025390D01*
X0041968Y0025124D01*
X0041847Y0024860D01*
X0041720Y0024600D01*
X0041586Y0024342D01*
X0041447Y0024088D01*
X0041301Y0023838D01*
X0041149Y0023591D01*
X0040990Y0023348D01*
X0040826Y0023109D01*
X0040657Y0022874D01*
X0040481Y0022643D01*
X0040300Y0022417D01*
X0040113Y0022195D01*
X0039921Y0021978D01*
X0039724Y0021766D01*
X0039522Y0021558D01*
X0039314Y0021356D01*
X0039102Y0021159D01*
X0038885Y0020967D01*
X0038663Y0020780D01*
X0038437Y0020599D01*
X0038206Y0020423D01*
X0037971Y0020254D01*
X0037732Y0020090D01*
X0037489Y0019931D01*
X0037242Y0019779D01*
X0036992Y0019633D01*
X0036738Y0019494D01*
X0036480Y0019360D01*
X0036220Y0019233D01*
X0035956Y0019112D01*
X0035690Y0018998D01*
X0035421Y0018890D01*
X0035149Y0018789D01*
X0034875Y0018695D01*
X0034599Y0018608D01*
X0034320Y0018527D01*
X0034040Y0018453D01*
X0033758Y0018386D01*
X0033474Y0018326D01*
X0033189Y0018273D01*
X0032903Y0018227D01*
X0032616Y0018188D01*
X0032328Y0018156D01*
X0032039Y0018131D01*
X0031750Y0018113D01*
X0031460Y0018103D01*
X0031170Y0018099D01*
X0030880Y0018103D01*
X0030590Y0018113D01*
X0030301Y0018131D01*
X0030012Y0018156D01*
X0029724Y0018188D01*
X0029437Y0018227D01*
X0029151Y0018273D01*
X0028866Y0018326D01*
X0028582Y0018386D01*
X0028300Y0018453D01*
X0028020Y0018527D01*
X0027741Y0018608D01*
X0027465Y0018695D01*
X0027191Y0018789D01*
X0026919Y0018890D01*
X0026650Y0018998D01*
X0026384Y0019112D01*
X0026120Y0019233D01*
X0025860Y0019360D01*
X0025602Y0019494D01*
X0025348Y0019633D01*
X0025098Y0019779D01*
X0024851Y0019931D01*
X0024608Y0020090D01*
X0024369Y0020254D01*
X0024134Y0020423D01*
X0023903Y0020599D01*
X0023677Y0020780D01*
X0023455Y0020967D01*
X0023238Y0021159D01*
X0023026Y0021356D01*
X0022818Y0021558D01*
X0022616Y0021766D01*
X0022419Y0021978D01*
X0022227Y0022195D01*
X0022040Y0022417D01*
X0021859Y0022643D01*
X0021683Y0022874D01*
X0021514Y0023109D01*
X0021350Y0023348D01*
X0021191Y0023591D01*
X0021039Y0023838D01*
X0020893Y0024088D01*
X0020754Y0024342D01*
X0020620Y0024600D01*
X0020493Y0024860D01*
X0020372Y0025124D01*
X0020258Y0025390D01*
X0020150Y0025659D01*
X0020049Y0025931D01*
X0019955Y0026205D01*
X0019868Y0026481D01*
X0019787Y0026760D01*
X0019713Y0027040D01*
X0019646Y0027322D01*
X0019586Y0027606D01*
X0019533Y0027891D01*
X0019487Y0028177D01*
X0019448Y0028464D01*
X0019416Y0028752D01*
X0019391Y0029041D01*
X0019373Y0029330D01*
X0019363Y0029620D01*
X0019359Y0029910D01*
X0190068Y0029831D02*
X0190072Y0030121D01*
X0190082Y0030411D01*
X0190100Y0030700D01*
X0190125Y0030989D01*
X0190157Y0031277D01*
X0190196Y0031564D01*
X0190242Y0031850D01*
X0190295Y0032135D01*
X0190355Y0032419D01*
X0190422Y0032701D01*
X0190496Y0032981D01*
X0190577Y0033260D01*
X0190664Y0033536D01*
X0190758Y0033810D01*
X0190859Y0034082D01*
X0190967Y0034351D01*
X0191081Y0034617D01*
X0191202Y0034881D01*
X0191329Y0035141D01*
X0191463Y0035399D01*
X0191602Y0035653D01*
X0191748Y0035903D01*
X0191900Y0036150D01*
X0192059Y0036393D01*
X0192223Y0036632D01*
X0192392Y0036867D01*
X0192568Y0037098D01*
X0192749Y0037324D01*
X0192936Y0037546D01*
X0193128Y0037763D01*
X0193325Y0037975D01*
X0193527Y0038183D01*
X0193735Y0038385D01*
X0193947Y0038582D01*
X0194164Y0038774D01*
X0194386Y0038961D01*
X0194612Y0039142D01*
X0194843Y0039318D01*
X0195078Y0039487D01*
X0195317Y0039651D01*
X0195560Y0039810D01*
X0195807Y0039962D01*
X0196057Y0040108D01*
X0196311Y0040247D01*
X0196569Y0040381D01*
X0196829Y0040508D01*
X0197093Y0040629D01*
X0197359Y0040743D01*
X0197628Y0040851D01*
X0197900Y0040952D01*
X0198174Y0041046D01*
X0198450Y0041133D01*
X0198729Y0041214D01*
X0199009Y0041288D01*
X0199291Y0041355D01*
X0199575Y0041415D01*
X0199860Y0041468D01*
X0200146Y0041514D01*
X0200433Y0041553D01*
X0200721Y0041585D01*
X0201010Y0041610D01*
X0201299Y0041628D01*
X0201589Y0041638D01*
X0201879Y0041642D01*
X0202169Y0041638D01*
X0202459Y0041628D01*
X0202748Y0041610D01*
X0203037Y0041585D01*
X0203325Y0041553D01*
X0203612Y0041514D01*
X0203898Y0041468D01*
X0204183Y0041415D01*
X0204467Y0041355D01*
X0204749Y0041288D01*
X0205029Y0041214D01*
X0205308Y0041133D01*
X0205584Y0041046D01*
X0205858Y0040952D01*
X0206130Y0040851D01*
X0206399Y0040743D01*
X0206665Y0040629D01*
X0206929Y0040508D01*
X0207189Y0040381D01*
X0207447Y0040247D01*
X0207701Y0040108D01*
X0207951Y0039962D01*
X0208198Y0039810D01*
X0208441Y0039651D01*
X0208680Y0039487D01*
X0208915Y0039318D01*
X0209146Y0039142D01*
X0209372Y0038961D01*
X0209594Y0038774D01*
X0209811Y0038582D01*
X0210023Y0038385D01*
X0210231Y0038183D01*
X0210433Y0037975D01*
X0210630Y0037763D01*
X0210822Y0037546D01*
X0211009Y0037324D01*
X0211190Y0037098D01*
X0211366Y0036867D01*
X0211535Y0036632D01*
X0211699Y0036393D01*
X0211858Y0036150D01*
X0212010Y0035903D01*
X0212156Y0035653D01*
X0212295Y0035399D01*
X0212429Y0035141D01*
X0212556Y0034881D01*
X0212677Y0034617D01*
X0212791Y0034351D01*
X0212899Y0034082D01*
X0213000Y0033810D01*
X0213094Y0033536D01*
X0213181Y0033260D01*
X0213262Y0032981D01*
X0213336Y0032701D01*
X0213403Y0032419D01*
X0213463Y0032135D01*
X0213516Y0031850D01*
X0213562Y0031564D01*
X0213601Y0031277D01*
X0213633Y0030989D01*
X0213658Y0030700D01*
X0213676Y0030411D01*
X0213686Y0030121D01*
X0213690Y0029831D01*
X0213686Y0029541D01*
X0213676Y0029251D01*
X0213658Y0028962D01*
X0213633Y0028673D01*
X0213601Y0028385D01*
X0213562Y0028098D01*
X0213516Y0027812D01*
X0213463Y0027527D01*
X0213403Y0027243D01*
X0213336Y0026961D01*
X0213262Y0026681D01*
X0213181Y0026402D01*
X0213094Y0026126D01*
X0213000Y0025852D01*
X0212899Y0025580D01*
X0212791Y0025311D01*
X0212677Y0025045D01*
X0212556Y0024781D01*
X0212429Y0024521D01*
X0212295Y0024263D01*
X0212156Y0024009D01*
X0212010Y0023759D01*
X0211858Y0023512D01*
X0211699Y0023269D01*
X0211535Y0023030D01*
X0211366Y0022795D01*
X0211190Y0022564D01*
X0211009Y0022338D01*
X0210822Y0022116D01*
X0210630Y0021899D01*
X0210433Y0021687D01*
X0210231Y0021479D01*
X0210023Y0021277D01*
X0209811Y0021080D01*
X0209594Y0020888D01*
X0209372Y0020701D01*
X0209146Y0020520D01*
X0208915Y0020344D01*
X0208680Y0020175D01*
X0208441Y0020011D01*
X0208198Y0019852D01*
X0207951Y0019700D01*
X0207701Y0019554D01*
X0207447Y0019415D01*
X0207189Y0019281D01*
X0206929Y0019154D01*
X0206665Y0019033D01*
X0206399Y0018919D01*
X0206130Y0018811D01*
X0205858Y0018710D01*
X0205584Y0018616D01*
X0205308Y0018529D01*
X0205029Y0018448D01*
X0204749Y0018374D01*
X0204467Y0018307D01*
X0204183Y0018247D01*
X0203898Y0018194D01*
X0203612Y0018148D01*
X0203325Y0018109D01*
X0203037Y0018077D01*
X0202748Y0018052D01*
X0202459Y0018034D01*
X0202169Y0018024D01*
X0201879Y0018020D01*
X0201589Y0018024D01*
X0201299Y0018034D01*
X0201010Y0018052D01*
X0200721Y0018077D01*
X0200433Y0018109D01*
X0200146Y0018148D01*
X0199860Y0018194D01*
X0199575Y0018247D01*
X0199291Y0018307D01*
X0199009Y0018374D01*
X0198729Y0018448D01*
X0198450Y0018529D01*
X0198174Y0018616D01*
X0197900Y0018710D01*
X0197628Y0018811D01*
X0197359Y0018919D01*
X0197093Y0019033D01*
X0196829Y0019154D01*
X0196569Y0019281D01*
X0196311Y0019415D01*
X0196057Y0019554D01*
X0195807Y0019700D01*
X0195560Y0019852D01*
X0195317Y0020011D01*
X0195078Y0020175D01*
X0194843Y0020344D01*
X0194612Y0020520D01*
X0194386Y0020701D01*
X0194164Y0020888D01*
X0193947Y0021080D01*
X0193735Y0021277D01*
X0193527Y0021479D01*
X0193325Y0021687D01*
X0193128Y0021899D01*
X0192936Y0022116D01*
X0192749Y0022338D01*
X0192568Y0022564D01*
X0192392Y0022795D01*
X0192223Y0023030D01*
X0192059Y0023269D01*
X0191900Y0023512D01*
X0191748Y0023759D01*
X0191602Y0024009D01*
X0191463Y0024263D01*
X0191329Y0024521D01*
X0191202Y0024781D01*
X0191081Y0025045D01*
X0190967Y0025311D01*
X0190859Y0025580D01*
X0190758Y0025852D01*
X0190664Y0026126D01*
X0190577Y0026402D01*
X0190496Y0026681D01*
X0190422Y0026961D01*
X0190355Y0027243D01*
X0190295Y0027527D01*
X0190242Y0027812D01*
X0190196Y0028098D01*
X0190157Y0028385D01*
X0190125Y0028673D01*
X0190100Y0028962D01*
X0190082Y0029251D01*
X0190072Y0029541D01*
X0190068Y0029831D01*
D14*
X0025855Y0029910D02*
X0025857Y0030055D01*
X0025863Y0030200D01*
X0025873Y0030345D01*
X0025887Y0030490D01*
X0025905Y0030634D01*
X0025926Y0030777D01*
X0025952Y0030920D01*
X0025981Y0031062D01*
X0026015Y0031204D01*
X0026052Y0031344D01*
X0026093Y0031483D01*
X0026138Y0031621D01*
X0026187Y0031758D01*
X0026239Y0031894D01*
X0026295Y0032028D01*
X0026355Y0032160D01*
X0026418Y0032291D01*
X0026485Y0032419D01*
X0026555Y0032547D01*
X0026629Y0032672D01*
X0026706Y0032795D01*
X0026786Y0032915D01*
X0026870Y0033034D01*
X0026957Y0033150D01*
X0027047Y0033264D01*
X0027140Y0033376D01*
X0027236Y0033484D01*
X0027336Y0033590D01*
X0027437Y0033694D01*
X0027542Y0033794D01*
X0027650Y0033892D01*
X0027760Y0033987D01*
X0027872Y0034078D01*
X0027987Y0034167D01*
X0028105Y0034252D01*
X0028225Y0034334D01*
X0028347Y0034413D01*
X0028471Y0034489D01*
X0028597Y0034561D01*
X0028725Y0034629D01*
X0028855Y0034694D01*
X0028986Y0034756D01*
X0029119Y0034813D01*
X0029254Y0034868D01*
X0029390Y0034918D01*
X0029528Y0034965D01*
X0029666Y0035008D01*
X0029806Y0035047D01*
X0029947Y0035082D01*
X0030089Y0035114D01*
X0030231Y0035141D01*
X0030374Y0035165D01*
X0030518Y0035185D01*
X0030663Y0035201D01*
X0030807Y0035213D01*
X0030952Y0035221D01*
X0031097Y0035225D01*
X0031243Y0035225D01*
X0031388Y0035221D01*
X0031533Y0035213D01*
X0031677Y0035201D01*
X0031822Y0035185D01*
X0031966Y0035165D01*
X0032109Y0035141D01*
X0032251Y0035114D01*
X0032393Y0035082D01*
X0032534Y0035047D01*
X0032674Y0035008D01*
X0032812Y0034965D01*
X0032950Y0034918D01*
X0033086Y0034868D01*
X0033221Y0034813D01*
X0033354Y0034756D01*
X0033485Y0034694D01*
X0033615Y0034629D01*
X0033743Y0034561D01*
X0033869Y0034489D01*
X0033993Y0034413D01*
X0034115Y0034334D01*
X0034235Y0034252D01*
X0034353Y0034167D01*
X0034468Y0034078D01*
X0034580Y0033987D01*
X0034690Y0033892D01*
X0034798Y0033794D01*
X0034903Y0033694D01*
X0035004Y0033590D01*
X0035104Y0033484D01*
X0035200Y0033376D01*
X0035293Y0033264D01*
X0035383Y0033150D01*
X0035470Y0033034D01*
X0035554Y0032915D01*
X0035634Y0032795D01*
X0035711Y0032672D01*
X0035785Y0032547D01*
X0035855Y0032419D01*
X0035922Y0032291D01*
X0035985Y0032160D01*
X0036045Y0032028D01*
X0036101Y0031894D01*
X0036153Y0031758D01*
X0036202Y0031621D01*
X0036247Y0031483D01*
X0036288Y0031344D01*
X0036325Y0031204D01*
X0036359Y0031062D01*
X0036388Y0030920D01*
X0036414Y0030777D01*
X0036435Y0030634D01*
X0036453Y0030490D01*
X0036467Y0030345D01*
X0036477Y0030200D01*
X0036483Y0030055D01*
X0036485Y0029910D01*
X0036483Y0029765D01*
X0036477Y0029620D01*
X0036467Y0029475D01*
X0036453Y0029330D01*
X0036435Y0029186D01*
X0036414Y0029043D01*
X0036388Y0028900D01*
X0036359Y0028758D01*
X0036325Y0028616D01*
X0036288Y0028476D01*
X0036247Y0028337D01*
X0036202Y0028199D01*
X0036153Y0028062D01*
X0036101Y0027926D01*
X0036045Y0027792D01*
X0035985Y0027660D01*
X0035922Y0027529D01*
X0035855Y0027401D01*
X0035785Y0027273D01*
X0035711Y0027148D01*
X0035634Y0027025D01*
X0035554Y0026905D01*
X0035470Y0026786D01*
X0035383Y0026670D01*
X0035293Y0026556D01*
X0035200Y0026444D01*
X0035104Y0026336D01*
X0035004Y0026230D01*
X0034903Y0026126D01*
X0034798Y0026026D01*
X0034690Y0025928D01*
X0034580Y0025833D01*
X0034468Y0025742D01*
X0034353Y0025653D01*
X0034235Y0025568D01*
X0034115Y0025486D01*
X0033993Y0025407D01*
X0033869Y0025331D01*
X0033743Y0025259D01*
X0033615Y0025191D01*
X0033485Y0025126D01*
X0033354Y0025064D01*
X0033221Y0025007D01*
X0033086Y0024952D01*
X0032950Y0024902D01*
X0032812Y0024855D01*
X0032674Y0024812D01*
X0032534Y0024773D01*
X0032393Y0024738D01*
X0032251Y0024706D01*
X0032109Y0024679D01*
X0031966Y0024655D01*
X0031822Y0024635D01*
X0031677Y0024619D01*
X0031533Y0024607D01*
X0031388Y0024599D01*
X0031243Y0024595D01*
X0031097Y0024595D01*
X0030952Y0024599D01*
X0030807Y0024607D01*
X0030663Y0024619D01*
X0030518Y0024635D01*
X0030374Y0024655D01*
X0030231Y0024679D01*
X0030089Y0024706D01*
X0029947Y0024738D01*
X0029806Y0024773D01*
X0029666Y0024812D01*
X0029528Y0024855D01*
X0029390Y0024902D01*
X0029254Y0024952D01*
X0029119Y0025007D01*
X0028986Y0025064D01*
X0028855Y0025126D01*
X0028725Y0025191D01*
X0028597Y0025259D01*
X0028471Y0025331D01*
X0028347Y0025407D01*
X0028225Y0025486D01*
X0028105Y0025568D01*
X0027987Y0025653D01*
X0027872Y0025742D01*
X0027760Y0025833D01*
X0027650Y0025928D01*
X0027542Y0026026D01*
X0027437Y0026126D01*
X0027336Y0026230D01*
X0027236Y0026336D01*
X0027140Y0026444D01*
X0027047Y0026556D01*
X0026957Y0026670D01*
X0026870Y0026786D01*
X0026786Y0026905D01*
X0026706Y0027025D01*
X0026629Y0027148D01*
X0026555Y0027273D01*
X0026485Y0027401D01*
X0026418Y0027529D01*
X0026355Y0027660D01*
X0026295Y0027792D01*
X0026239Y0027926D01*
X0026187Y0028062D01*
X0026138Y0028199D01*
X0026093Y0028337D01*
X0026052Y0028476D01*
X0026015Y0028616D01*
X0025981Y0028758D01*
X0025952Y0028900D01*
X0025926Y0029043D01*
X0025905Y0029186D01*
X0025887Y0029330D01*
X0025873Y0029475D01*
X0025863Y0029620D01*
X0025857Y0029765D01*
X0025855Y0029910D01*
X0025698Y0121839D02*
X0025700Y0121984D01*
X0025706Y0122129D01*
X0025716Y0122274D01*
X0025730Y0122419D01*
X0025748Y0122563D01*
X0025769Y0122706D01*
X0025795Y0122849D01*
X0025824Y0122991D01*
X0025858Y0123133D01*
X0025895Y0123273D01*
X0025936Y0123412D01*
X0025981Y0123550D01*
X0026030Y0123687D01*
X0026082Y0123823D01*
X0026138Y0123957D01*
X0026198Y0124089D01*
X0026261Y0124220D01*
X0026328Y0124348D01*
X0026398Y0124476D01*
X0026472Y0124601D01*
X0026549Y0124724D01*
X0026629Y0124844D01*
X0026713Y0124963D01*
X0026800Y0125079D01*
X0026890Y0125193D01*
X0026983Y0125305D01*
X0027079Y0125413D01*
X0027179Y0125519D01*
X0027280Y0125623D01*
X0027385Y0125723D01*
X0027493Y0125821D01*
X0027603Y0125916D01*
X0027715Y0126007D01*
X0027830Y0126096D01*
X0027948Y0126181D01*
X0028068Y0126263D01*
X0028190Y0126342D01*
X0028314Y0126418D01*
X0028440Y0126490D01*
X0028568Y0126558D01*
X0028698Y0126623D01*
X0028829Y0126685D01*
X0028962Y0126742D01*
X0029097Y0126797D01*
X0029233Y0126847D01*
X0029371Y0126894D01*
X0029509Y0126937D01*
X0029649Y0126976D01*
X0029790Y0127011D01*
X0029932Y0127043D01*
X0030074Y0127070D01*
X0030217Y0127094D01*
X0030361Y0127114D01*
X0030506Y0127130D01*
X0030650Y0127142D01*
X0030795Y0127150D01*
X0030940Y0127154D01*
X0031086Y0127154D01*
X0031231Y0127150D01*
X0031376Y0127142D01*
X0031520Y0127130D01*
X0031665Y0127114D01*
X0031809Y0127094D01*
X0031952Y0127070D01*
X0032094Y0127043D01*
X0032236Y0127011D01*
X0032377Y0126976D01*
X0032517Y0126937D01*
X0032655Y0126894D01*
X0032793Y0126847D01*
X0032929Y0126797D01*
X0033064Y0126742D01*
X0033197Y0126685D01*
X0033328Y0126623D01*
X0033458Y0126558D01*
X0033586Y0126490D01*
X0033712Y0126418D01*
X0033836Y0126342D01*
X0033958Y0126263D01*
X0034078Y0126181D01*
X0034196Y0126096D01*
X0034311Y0126007D01*
X0034423Y0125916D01*
X0034533Y0125821D01*
X0034641Y0125723D01*
X0034746Y0125623D01*
X0034847Y0125519D01*
X0034947Y0125413D01*
X0035043Y0125305D01*
X0035136Y0125193D01*
X0035226Y0125079D01*
X0035313Y0124963D01*
X0035397Y0124844D01*
X0035477Y0124724D01*
X0035554Y0124601D01*
X0035628Y0124476D01*
X0035698Y0124348D01*
X0035765Y0124220D01*
X0035828Y0124089D01*
X0035888Y0123957D01*
X0035944Y0123823D01*
X0035996Y0123687D01*
X0036045Y0123550D01*
X0036090Y0123412D01*
X0036131Y0123273D01*
X0036168Y0123133D01*
X0036202Y0122991D01*
X0036231Y0122849D01*
X0036257Y0122706D01*
X0036278Y0122563D01*
X0036296Y0122419D01*
X0036310Y0122274D01*
X0036320Y0122129D01*
X0036326Y0121984D01*
X0036328Y0121839D01*
X0036326Y0121694D01*
X0036320Y0121549D01*
X0036310Y0121404D01*
X0036296Y0121259D01*
X0036278Y0121115D01*
X0036257Y0120972D01*
X0036231Y0120829D01*
X0036202Y0120687D01*
X0036168Y0120545D01*
X0036131Y0120405D01*
X0036090Y0120266D01*
X0036045Y0120128D01*
X0035996Y0119991D01*
X0035944Y0119855D01*
X0035888Y0119721D01*
X0035828Y0119589D01*
X0035765Y0119458D01*
X0035698Y0119330D01*
X0035628Y0119202D01*
X0035554Y0119077D01*
X0035477Y0118954D01*
X0035397Y0118834D01*
X0035313Y0118715D01*
X0035226Y0118599D01*
X0035136Y0118485D01*
X0035043Y0118373D01*
X0034947Y0118265D01*
X0034847Y0118159D01*
X0034746Y0118055D01*
X0034641Y0117955D01*
X0034533Y0117857D01*
X0034423Y0117762D01*
X0034311Y0117671D01*
X0034196Y0117582D01*
X0034078Y0117497D01*
X0033958Y0117415D01*
X0033836Y0117336D01*
X0033712Y0117260D01*
X0033586Y0117188D01*
X0033458Y0117120D01*
X0033328Y0117055D01*
X0033197Y0116993D01*
X0033064Y0116936D01*
X0032929Y0116881D01*
X0032793Y0116831D01*
X0032655Y0116784D01*
X0032517Y0116741D01*
X0032377Y0116702D01*
X0032236Y0116667D01*
X0032094Y0116635D01*
X0031952Y0116608D01*
X0031809Y0116584D01*
X0031665Y0116564D01*
X0031520Y0116548D01*
X0031376Y0116536D01*
X0031231Y0116528D01*
X0031086Y0116524D01*
X0030940Y0116524D01*
X0030795Y0116528D01*
X0030650Y0116536D01*
X0030506Y0116548D01*
X0030361Y0116564D01*
X0030217Y0116584D01*
X0030074Y0116608D01*
X0029932Y0116635D01*
X0029790Y0116667D01*
X0029649Y0116702D01*
X0029509Y0116741D01*
X0029371Y0116784D01*
X0029233Y0116831D01*
X0029097Y0116881D01*
X0028962Y0116936D01*
X0028829Y0116993D01*
X0028698Y0117055D01*
X0028568Y0117120D01*
X0028440Y0117188D01*
X0028314Y0117260D01*
X0028190Y0117336D01*
X0028068Y0117415D01*
X0027948Y0117497D01*
X0027830Y0117582D01*
X0027715Y0117671D01*
X0027603Y0117762D01*
X0027493Y0117857D01*
X0027385Y0117955D01*
X0027280Y0118055D01*
X0027179Y0118159D01*
X0027079Y0118265D01*
X0026983Y0118373D01*
X0026890Y0118485D01*
X0026800Y0118599D01*
X0026713Y0118715D01*
X0026629Y0118834D01*
X0026549Y0118954D01*
X0026472Y0119077D01*
X0026398Y0119202D01*
X0026328Y0119330D01*
X0026261Y0119458D01*
X0026198Y0119589D01*
X0026138Y0119721D01*
X0026082Y0119855D01*
X0026030Y0119991D01*
X0025981Y0120128D01*
X0025936Y0120266D01*
X0025895Y0120405D01*
X0025858Y0120545D01*
X0025824Y0120687D01*
X0025795Y0120829D01*
X0025769Y0120972D01*
X0025748Y0121115D01*
X0025730Y0121259D01*
X0025716Y0121404D01*
X0025706Y0121549D01*
X0025700Y0121694D01*
X0025698Y0121839D01*
X0196485Y0121839D02*
X0196487Y0121984D01*
X0196493Y0122129D01*
X0196503Y0122274D01*
X0196517Y0122419D01*
X0196535Y0122563D01*
X0196556Y0122706D01*
X0196582Y0122849D01*
X0196611Y0122991D01*
X0196645Y0123133D01*
X0196682Y0123273D01*
X0196723Y0123412D01*
X0196768Y0123550D01*
X0196817Y0123687D01*
X0196869Y0123823D01*
X0196925Y0123957D01*
X0196985Y0124089D01*
X0197048Y0124220D01*
X0197115Y0124348D01*
X0197185Y0124476D01*
X0197259Y0124601D01*
X0197336Y0124724D01*
X0197416Y0124844D01*
X0197500Y0124963D01*
X0197587Y0125079D01*
X0197677Y0125193D01*
X0197770Y0125305D01*
X0197866Y0125413D01*
X0197966Y0125519D01*
X0198067Y0125623D01*
X0198172Y0125723D01*
X0198280Y0125821D01*
X0198390Y0125916D01*
X0198502Y0126007D01*
X0198617Y0126096D01*
X0198735Y0126181D01*
X0198855Y0126263D01*
X0198977Y0126342D01*
X0199101Y0126418D01*
X0199227Y0126490D01*
X0199355Y0126558D01*
X0199485Y0126623D01*
X0199616Y0126685D01*
X0199749Y0126742D01*
X0199884Y0126797D01*
X0200020Y0126847D01*
X0200158Y0126894D01*
X0200296Y0126937D01*
X0200436Y0126976D01*
X0200577Y0127011D01*
X0200719Y0127043D01*
X0200861Y0127070D01*
X0201004Y0127094D01*
X0201148Y0127114D01*
X0201293Y0127130D01*
X0201437Y0127142D01*
X0201582Y0127150D01*
X0201727Y0127154D01*
X0201873Y0127154D01*
X0202018Y0127150D01*
X0202163Y0127142D01*
X0202307Y0127130D01*
X0202452Y0127114D01*
X0202596Y0127094D01*
X0202739Y0127070D01*
X0202881Y0127043D01*
X0203023Y0127011D01*
X0203164Y0126976D01*
X0203304Y0126937D01*
X0203442Y0126894D01*
X0203580Y0126847D01*
X0203716Y0126797D01*
X0203851Y0126742D01*
X0203984Y0126685D01*
X0204115Y0126623D01*
X0204245Y0126558D01*
X0204373Y0126490D01*
X0204499Y0126418D01*
X0204623Y0126342D01*
X0204745Y0126263D01*
X0204865Y0126181D01*
X0204983Y0126096D01*
X0205098Y0126007D01*
X0205210Y0125916D01*
X0205320Y0125821D01*
X0205428Y0125723D01*
X0205533Y0125623D01*
X0205634Y0125519D01*
X0205734Y0125413D01*
X0205830Y0125305D01*
X0205923Y0125193D01*
X0206013Y0125079D01*
X0206100Y0124963D01*
X0206184Y0124844D01*
X0206264Y0124724D01*
X0206341Y0124601D01*
X0206415Y0124476D01*
X0206485Y0124348D01*
X0206552Y0124220D01*
X0206615Y0124089D01*
X0206675Y0123957D01*
X0206731Y0123823D01*
X0206783Y0123687D01*
X0206832Y0123550D01*
X0206877Y0123412D01*
X0206918Y0123273D01*
X0206955Y0123133D01*
X0206989Y0122991D01*
X0207018Y0122849D01*
X0207044Y0122706D01*
X0207065Y0122563D01*
X0207083Y0122419D01*
X0207097Y0122274D01*
X0207107Y0122129D01*
X0207113Y0121984D01*
X0207115Y0121839D01*
X0207113Y0121694D01*
X0207107Y0121549D01*
X0207097Y0121404D01*
X0207083Y0121259D01*
X0207065Y0121115D01*
X0207044Y0120972D01*
X0207018Y0120829D01*
X0206989Y0120687D01*
X0206955Y0120545D01*
X0206918Y0120405D01*
X0206877Y0120266D01*
X0206832Y0120128D01*
X0206783Y0119991D01*
X0206731Y0119855D01*
X0206675Y0119721D01*
X0206615Y0119589D01*
X0206552Y0119458D01*
X0206485Y0119330D01*
X0206415Y0119202D01*
X0206341Y0119077D01*
X0206264Y0118954D01*
X0206184Y0118834D01*
X0206100Y0118715D01*
X0206013Y0118599D01*
X0205923Y0118485D01*
X0205830Y0118373D01*
X0205734Y0118265D01*
X0205634Y0118159D01*
X0205533Y0118055D01*
X0205428Y0117955D01*
X0205320Y0117857D01*
X0205210Y0117762D01*
X0205098Y0117671D01*
X0204983Y0117582D01*
X0204865Y0117497D01*
X0204745Y0117415D01*
X0204623Y0117336D01*
X0204499Y0117260D01*
X0204373Y0117188D01*
X0204245Y0117120D01*
X0204115Y0117055D01*
X0203984Y0116993D01*
X0203851Y0116936D01*
X0203716Y0116881D01*
X0203580Y0116831D01*
X0203442Y0116784D01*
X0203304Y0116741D01*
X0203164Y0116702D01*
X0203023Y0116667D01*
X0202881Y0116635D01*
X0202739Y0116608D01*
X0202596Y0116584D01*
X0202452Y0116564D01*
X0202307Y0116548D01*
X0202163Y0116536D01*
X0202018Y0116528D01*
X0201873Y0116524D01*
X0201727Y0116524D01*
X0201582Y0116528D01*
X0201437Y0116536D01*
X0201293Y0116548D01*
X0201148Y0116564D01*
X0201004Y0116584D01*
X0200861Y0116608D01*
X0200719Y0116635D01*
X0200577Y0116667D01*
X0200436Y0116702D01*
X0200296Y0116741D01*
X0200158Y0116784D01*
X0200020Y0116831D01*
X0199884Y0116881D01*
X0199749Y0116936D01*
X0199616Y0116993D01*
X0199485Y0117055D01*
X0199355Y0117120D01*
X0199227Y0117188D01*
X0199101Y0117260D01*
X0198977Y0117336D01*
X0198855Y0117415D01*
X0198735Y0117497D01*
X0198617Y0117582D01*
X0198502Y0117671D01*
X0198390Y0117762D01*
X0198280Y0117857D01*
X0198172Y0117955D01*
X0198067Y0118055D01*
X0197966Y0118159D01*
X0197866Y0118265D01*
X0197770Y0118373D01*
X0197677Y0118485D01*
X0197587Y0118599D01*
X0197500Y0118715D01*
X0197416Y0118834D01*
X0197336Y0118954D01*
X0197259Y0119077D01*
X0197185Y0119202D01*
X0197115Y0119330D01*
X0197048Y0119458D01*
X0196985Y0119589D01*
X0196925Y0119721D01*
X0196869Y0119855D01*
X0196817Y0119991D01*
X0196768Y0120128D01*
X0196723Y0120266D01*
X0196682Y0120405D01*
X0196645Y0120545D01*
X0196611Y0120687D01*
X0196582Y0120829D01*
X0196556Y0120972D01*
X0196535Y0121115D01*
X0196517Y0121259D01*
X0196503Y0121404D01*
X0196493Y0121549D01*
X0196487Y0121694D01*
X0196485Y0121839D01*
X0196564Y0029831D02*
X0196566Y0029976D01*
X0196572Y0030121D01*
X0196582Y0030266D01*
X0196596Y0030411D01*
X0196614Y0030555D01*
X0196635Y0030698D01*
X0196661Y0030841D01*
X0196690Y0030983D01*
X0196724Y0031125D01*
X0196761Y0031265D01*
X0196802Y0031404D01*
X0196847Y0031542D01*
X0196896Y0031679D01*
X0196948Y0031815D01*
X0197004Y0031949D01*
X0197064Y0032081D01*
X0197127Y0032212D01*
X0197194Y0032340D01*
X0197264Y0032468D01*
X0197338Y0032593D01*
X0197415Y0032716D01*
X0197495Y0032836D01*
X0197579Y0032955D01*
X0197666Y0033071D01*
X0197756Y0033185D01*
X0197849Y0033297D01*
X0197945Y0033405D01*
X0198045Y0033511D01*
X0198146Y0033615D01*
X0198251Y0033715D01*
X0198359Y0033813D01*
X0198469Y0033908D01*
X0198581Y0033999D01*
X0198696Y0034088D01*
X0198814Y0034173D01*
X0198934Y0034255D01*
X0199056Y0034334D01*
X0199180Y0034410D01*
X0199306Y0034482D01*
X0199434Y0034550D01*
X0199564Y0034615D01*
X0199695Y0034677D01*
X0199828Y0034734D01*
X0199963Y0034789D01*
X0200099Y0034839D01*
X0200237Y0034886D01*
X0200375Y0034929D01*
X0200515Y0034968D01*
X0200656Y0035003D01*
X0200798Y0035035D01*
X0200940Y0035062D01*
X0201083Y0035086D01*
X0201227Y0035106D01*
X0201372Y0035122D01*
X0201516Y0035134D01*
X0201661Y0035142D01*
X0201806Y0035146D01*
X0201952Y0035146D01*
X0202097Y0035142D01*
X0202242Y0035134D01*
X0202386Y0035122D01*
X0202531Y0035106D01*
X0202675Y0035086D01*
X0202818Y0035062D01*
X0202960Y0035035D01*
X0203102Y0035003D01*
X0203243Y0034968D01*
X0203383Y0034929D01*
X0203521Y0034886D01*
X0203659Y0034839D01*
X0203795Y0034789D01*
X0203930Y0034734D01*
X0204063Y0034677D01*
X0204194Y0034615D01*
X0204324Y0034550D01*
X0204452Y0034482D01*
X0204578Y0034410D01*
X0204702Y0034334D01*
X0204824Y0034255D01*
X0204944Y0034173D01*
X0205062Y0034088D01*
X0205177Y0033999D01*
X0205289Y0033908D01*
X0205399Y0033813D01*
X0205507Y0033715D01*
X0205612Y0033615D01*
X0205713Y0033511D01*
X0205813Y0033405D01*
X0205909Y0033297D01*
X0206002Y0033185D01*
X0206092Y0033071D01*
X0206179Y0032955D01*
X0206263Y0032836D01*
X0206343Y0032716D01*
X0206420Y0032593D01*
X0206494Y0032468D01*
X0206564Y0032340D01*
X0206631Y0032212D01*
X0206694Y0032081D01*
X0206754Y0031949D01*
X0206810Y0031815D01*
X0206862Y0031679D01*
X0206911Y0031542D01*
X0206956Y0031404D01*
X0206997Y0031265D01*
X0207034Y0031125D01*
X0207068Y0030983D01*
X0207097Y0030841D01*
X0207123Y0030698D01*
X0207144Y0030555D01*
X0207162Y0030411D01*
X0207176Y0030266D01*
X0207186Y0030121D01*
X0207192Y0029976D01*
X0207194Y0029831D01*
X0207192Y0029686D01*
X0207186Y0029541D01*
X0207176Y0029396D01*
X0207162Y0029251D01*
X0207144Y0029107D01*
X0207123Y0028964D01*
X0207097Y0028821D01*
X0207068Y0028679D01*
X0207034Y0028537D01*
X0206997Y0028397D01*
X0206956Y0028258D01*
X0206911Y0028120D01*
X0206862Y0027983D01*
X0206810Y0027847D01*
X0206754Y0027713D01*
X0206694Y0027581D01*
X0206631Y0027450D01*
X0206564Y0027322D01*
X0206494Y0027194D01*
X0206420Y0027069D01*
X0206343Y0026946D01*
X0206263Y0026826D01*
X0206179Y0026707D01*
X0206092Y0026591D01*
X0206002Y0026477D01*
X0205909Y0026365D01*
X0205813Y0026257D01*
X0205713Y0026151D01*
X0205612Y0026047D01*
X0205507Y0025947D01*
X0205399Y0025849D01*
X0205289Y0025754D01*
X0205177Y0025663D01*
X0205062Y0025574D01*
X0204944Y0025489D01*
X0204824Y0025407D01*
X0204702Y0025328D01*
X0204578Y0025252D01*
X0204452Y0025180D01*
X0204324Y0025112D01*
X0204194Y0025047D01*
X0204063Y0024985D01*
X0203930Y0024928D01*
X0203795Y0024873D01*
X0203659Y0024823D01*
X0203521Y0024776D01*
X0203383Y0024733D01*
X0203243Y0024694D01*
X0203102Y0024659D01*
X0202960Y0024627D01*
X0202818Y0024600D01*
X0202675Y0024576D01*
X0202531Y0024556D01*
X0202386Y0024540D01*
X0202242Y0024528D01*
X0202097Y0024520D01*
X0201952Y0024516D01*
X0201806Y0024516D01*
X0201661Y0024520D01*
X0201516Y0024528D01*
X0201372Y0024540D01*
X0201227Y0024556D01*
X0201083Y0024576D01*
X0200940Y0024600D01*
X0200798Y0024627D01*
X0200656Y0024659D01*
X0200515Y0024694D01*
X0200375Y0024733D01*
X0200237Y0024776D01*
X0200099Y0024823D01*
X0199963Y0024873D01*
X0199828Y0024928D01*
X0199695Y0024985D01*
X0199564Y0025047D01*
X0199434Y0025112D01*
X0199306Y0025180D01*
X0199180Y0025252D01*
X0199056Y0025328D01*
X0198934Y0025407D01*
X0198814Y0025489D01*
X0198696Y0025574D01*
X0198581Y0025663D01*
X0198469Y0025754D01*
X0198359Y0025849D01*
X0198251Y0025947D01*
X0198146Y0026047D01*
X0198045Y0026151D01*
X0197945Y0026257D01*
X0197849Y0026365D01*
X0197756Y0026477D01*
X0197666Y0026591D01*
X0197579Y0026707D01*
X0197495Y0026826D01*
X0197415Y0026946D01*
X0197338Y0027069D01*
X0197264Y0027194D01*
X0197194Y0027322D01*
X0197127Y0027450D01*
X0197064Y0027581D01*
X0197004Y0027713D01*
X0196948Y0027847D01*
X0196896Y0027983D01*
X0196847Y0028120D01*
X0196802Y0028258D01*
X0196761Y0028397D01*
X0196724Y0028537D01*
X0196690Y0028679D01*
X0196661Y0028821D01*
X0196635Y0028964D01*
X0196614Y0029107D01*
X0196596Y0029251D01*
X0196582Y0029396D01*
X0196572Y0029541D01*
X0196566Y0029686D01*
X0196564Y0029831D01*
D15*
X0162863Y0026446D02*
X0161288Y0026446D01*
X0161288Y0023690D02*
X0162863Y0023690D01*
D16*
X0162568Y0023936D03*
M02*
