G75*
%MOIN*%
%OFA0B0*%
%FSLAX25Y25*%
%IPPOS*%
%LPD*%
%AMOC8*
5,1,8,0,0,1.08239X$1,22.5*
%
%ADD10R,0.01181X0.03150*%
%ADD11R,0.03150X0.01181*%
%ADD12R,0.03937X0.04331*%
%ADD13R,0.04724X0.07874*%
%ADD14R,0.04331X0.03937*%
%ADD15R,0.08661X0.01969*%
%ADD16R,0.03937X0.03543*%
%ADD17R,0.07087X0.06299*%
%ADD18R,0.03150X0.03150*%
D10*
X0133276Y0066367D03*
X0135245Y0066367D03*
X0137213Y0066367D03*
X0139182Y0066367D03*
X0141150Y0066367D03*
X0143119Y0066367D03*
X0145087Y0066367D03*
X0147056Y0066367D03*
X0147056Y0085343D03*
X0145087Y0085343D03*
X0143119Y0085343D03*
X0141150Y0085343D03*
X0139182Y0085343D03*
X0137213Y0085343D03*
X0135245Y0085343D03*
X0133276Y0085343D03*
D11*
X0130678Y0082745D03*
X0130678Y0080776D03*
X0130678Y0078808D03*
X0130678Y0076839D03*
X0130678Y0074871D03*
X0130678Y0072902D03*
X0130678Y0070934D03*
X0130678Y0068965D03*
X0149654Y0068965D03*
X0149654Y0070934D03*
X0149654Y0072902D03*
X0149654Y0074871D03*
X0149654Y0076839D03*
X0149654Y0078808D03*
X0149654Y0080776D03*
X0149654Y0082745D03*
D12*
X0099154Y0042729D03*
X0099154Y0049422D03*
X0098729Y0056091D03*
X0105422Y0056091D03*
X0119359Y0063257D03*
X0126052Y0063257D03*
X0122312Y0050461D03*
X0122312Y0043769D03*
X0143808Y0042824D03*
X0143808Y0049517D03*
X0146918Y0025068D03*
X0153611Y0025068D03*
X0105422Y0071721D03*
X0098729Y0071721D03*
X0098729Y0080501D03*
X0105422Y0080501D03*
X0105422Y0093650D03*
X0098729Y0093650D03*
X0100217Y0100371D03*
X0100217Y0107064D03*
X0142957Y0115324D03*
X0149650Y0115324D03*
D13*
X0166261Y0055520D03*
X0166261Y0044497D03*
X0187816Y0043316D03*
X0187816Y0054339D03*
X0052741Y0070737D03*
X0052741Y0081761D03*
D14*
X0041694Y0078804D03*
X0041694Y0073391D03*
X0041694Y0066698D03*
X0041694Y0085497D03*
X0144316Y0122182D03*
X0144316Y0128875D03*
X0158331Y0101091D03*
X0169517Y0101091D03*
X0169517Y0094398D03*
X0158331Y0094398D03*
X0164013Y0076997D03*
X0164013Y0070304D03*
X0184843Y0103922D03*
X0191536Y0103922D03*
D15*
X0184178Y0110245D03*
X0184178Y0115245D03*
X0184178Y0120245D03*
X0184178Y0125245D03*
X0159343Y0125245D03*
X0159343Y0120284D03*
X0159343Y0115284D03*
X0159343Y0110284D03*
D16*
X0136611Y0050536D03*
X0129328Y0050536D03*
X0129328Y0044434D03*
X0136611Y0044434D03*
D17*
X0176822Y0043423D03*
X0176822Y0054446D03*
D18*
X0165028Y0025068D03*
X0159123Y0025068D03*
M02*
