G75*
%MOIN*%
%OFA0B0*%
%FSLAX25Y25*%
%IPPOS*%
%LPD*%
%AMOC8*
5,1,8,0,0,1.08239X$1,22.5*
%
%ADD10C,0.05315*%
%ADD11C,0.09449*%
%ADD12C,0.12992*%
%ADD13OC8,0.06000*%
%ADD14R,0.03937X0.04331*%
%ADD15R,0.07087X0.06299*%
%ADD16R,0.07874X0.04724*%
%ADD17R,0.04724X0.07874*%
%ADD18C,0.19685*%
%ADD19R,0.06000X0.06000*%
%ADD20C,0.06000*%
%ADD21R,0.04600X0.06300*%
%ADD22R,0.00600X0.07200*%
%ADD23C,0.02953*%
D10*
X0026309Y0051349D03*
X0032296Y0061342D03*
X0070595Y0058746D03*
X0080595Y0063746D03*
X0070595Y0068746D03*
X0080595Y0073746D03*
X0070595Y0078746D03*
X0080595Y0083746D03*
X0070595Y0088746D03*
X0080595Y0093746D03*
X0032294Y0101152D03*
X0026311Y0091145D03*
D11*
X0057603Y0107250D03*
X0057603Y0045242D03*
D12*
X0045595Y0053746D03*
X0045595Y0098746D03*
D13*
X0199532Y0096249D03*
X0209532Y0096249D03*
X0209532Y0086249D03*
X0199532Y0086249D03*
X0199532Y0076249D03*
X0209532Y0076249D03*
X0209532Y0066249D03*
X0199532Y0066249D03*
X0199532Y0056249D03*
X0209532Y0056249D03*
D14*
X0155792Y0058430D03*
X0155792Y0065123D03*
X0146737Y0065221D03*
X0146737Y0058528D03*
X0108627Y0109166D03*
X0100209Y0109099D03*
X0100209Y0115792D03*
X0108627Y0115859D03*
D15*
X0106435Y0081403D03*
X0106435Y0070380D03*
D16*
X0117107Y0074209D03*
X0128131Y0074209D03*
D17*
X0121355Y0103501D03*
X0121355Y0114524D03*
D18*
X0031170Y0029910D03*
X0031013Y0121839D03*
X0201800Y0121839D03*
X0201879Y0029831D03*
D19*
X0090816Y0125068D03*
D20*
X0098690Y0125068D03*
X0106564Y0125068D03*
X0114438Y0125068D03*
X0122312Y0125068D03*
D21*
X0180650Y0121918D03*
X0186650Y0121918D03*
X0055430Y0121839D03*
X0049430Y0121839D03*
X0048446Y0029792D03*
X0054446Y0029792D03*
X0179824Y0029792D03*
X0185824Y0029792D03*
D22*
X0182824Y0029792D03*
X0051446Y0029792D03*
X0052430Y0121839D03*
X0183650Y0121918D03*
D23*
X0093926Y0107469D03*
X0067981Y0118375D03*
X0119320Y0057115D03*
X0129792Y0054989D03*
X0122351Y0039556D03*
X0143808Y0038690D03*
X0155816Y0052942D03*
X0170343Y0025068D03*
X0093454Y0042666D03*
M02*
