G75*
%MOIN*%
%OFA0B0*%
%FSLAX25Y25*%
%IPPOS*%
%LPD*%
%AMOC8*
5,1,8,0,0,1.08239X$1,22.5*
%
%ADD10C,0.05315*%
%ADD11C,0.09449*%
%ADD12OC8,0.06000*%
%ADD13R,0.03937X0.04331*%
%ADD14R,0.07087X0.06299*%
%ADD15R,0.07874X0.04724*%
%ADD16R,0.04724X0.07874*%
%ADD17C,0.19685*%
%ADD18R,0.06000X0.06000*%
%ADD19C,0.06000*%
%ADD20R,0.04600X0.06300*%
%ADD21C,0.01600*%
%ADD22C,0.02953*%
%ADD23C,0.02362*%
%ADD24C,0.00700*%
%ADD25C,0.01200*%
%ADD26C,0.00591*%
D10*
X0026309Y0051349D03*
X0032296Y0061342D03*
X0070595Y0058746D03*
X0080595Y0063746D03*
X0070595Y0068746D03*
X0080595Y0073746D03*
X0070595Y0078746D03*
X0080595Y0083746D03*
X0070595Y0088746D03*
X0080595Y0093746D03*
X0032294Y0101152D03*
X0026311Y0091145D03*
D11*
X0057603Y0107250D03*
X0057603Y0045242D03*
D12*
X0199532Y0056249D03*
X0209532Y0056249D03*
X0209532Y0066249D03*
X0199532Y0066249D03*
X0199532Y0076249D03*
X0209532Y0076249D03*
X0209532Y0086249D03*
X0199532Y0086249D03*
X0199532Y0096249D03*
X0209532Y0096249D03*
D13*
X0155792Y0065123D03*
X0155792Y0058430D03*
X0146737Y0058528D03*
X0146737Y0065221D03*
X0108627Y0109166D03*
X0100209Y0109099D03*
X0100209Y0115792D03*
X0108627Y0115859D03*
D14*
X0106435Y0081403D03*
X0106435Y0070380D03*
D15*
X0117107Y0074209D03*
X0128131Y0074209D03*
D16*
X0121355Y0103501D03*
X0121355Y0114524D03*
D17*
X0201800Y0121839D03*
X0201879Y0029831D03*
X0031170Y0029910D03*
X0031013Y0121839D03*
D18*
X0090816Y0125068D03*
D19*
X0098690Y0125068D03*
X0106564Y0125068D03*
X0114438Y0125068D03*
X0122312Y0125068D03*
D20*
X0180650Y0121918D03*
X0186650Y0121918D03*
X0055430Y0121839D03*
X0049430Y0121839D03*
X0048446Y0029792D03*
X0054446Y0029792D03*
X0179824Y0029792D03*
X0185824Y0029792D03*
D21*
X0037015Y0019787D02*
X0033711Y0018584D01*
X0199121Y0018584D01*
X0196034Y0019708D01*
X0196034Y0019708D01*
X0192924Y0022317D01*
X0192924Y0022317D01*
X0192924Y0022317D01*
X0190894Y0025833D01*
X0190894Y0025833D01*
X0190503Y0028052D01*
X0189514Y0028052D01*
X0189514Y0026066D01*
X0188700Y0025252D01*
X0182948Y0025252D01*
X0182927Y0025273D01*
X0182736Y0025163D01*
X0182333Y0025055D01*
X0180174Y0025055D01*
X0180174Y0029442D01*
X0179474Y0029442D01*
X0179474Y0025055D01*
X0177315Y0025055D01*
X0176911Y0025163D01*
X0176549Y0025372D01*
X0176253Y0025667D01*
X0176044Y0026029D01*
X0175936Y0026433D01*
X0175936Y0029442D01*
X0179474Y0029442D01*
X0179474Y0030142D01*
X0179474Y0034530D01*
X0177315Y0034530D01*
X0176911Y0034421D01*
X0176549Y0034212D01*
X0176253Y0033917D01*
X0176044Y0033555D01*
X0175936Y0033151D01*
X0175936Y0030142D01*
X0179474Y0030142D01*
X0180174Y0030142D01*
X0180174Y0034530D01*
X0182333Y0034530D01*
X0182736Y0034421D01*
X0182927Y0034312D01*
X0182948Y0034333D01*
X0188700Y0034333D01*
X0189514Y0033518D01*
X0189514Y0031533D01*
X0190489Y0031533D01*
X0190894Y0033830D01*
X0190894Y0033830D01*
X0192924Y0037346D01*
X0192924Y0037346D01*
X0196034Y0039955D01*
X0196034Y0039955D01*
X0199849Y0041344D01*
X0203909Y0041344D01*
X0207724Y0039955D01*
X0207724Y0039955D01*
X0210834Y0037346D01*
X0210834Y0037346D01*
X0210834Y0037346D01*
X0212864Y0033830D01*
X0212864Y0033830D01*
X0213047Y0032788D01*
X0213047Y0053555D01*
X0211351Y0051858D01*
X0207714Y0051858D01*
X0205142Y0054430D01*
X0205142Y0058067D01*
X0207714Y0060639D01*
X0211351Y0060639D01*
X0213047Y0058943D01*
X0213047Y0063555D01*
X0211351Y0061858D01*
X0207714Y0061858D01*
X0205142Y0064430D01*
X0205142Y0068067D01*
X0207714Y0070639D01*
X0211351Y0070639D01*
X0213047Y0068943D01*
X0213047Y0073555D01*
X0211351Y0071858D01*
X0207714Y0071858D01*
X0205142Y0074430D01*
X0205142Y0078067D01*
X0207714Y0080639D01*
X0211351Y0080639D01*
X0213047Y0078943D01*
X0213047Y0083555D01*
X0211351Y0081858D01*
X0207714Y0081858D01*
X0205142Y0084430D01*
X0205142Y0088067D01*
X0207714Y0090639D01*
X0211351Y0090639D01*
X0213047Y0088943D01*
X0213047Y0093276D01*
X0211432Y0091661D01*
X0209732Y0091661D01*
X0209732Y0096049D01*
X0209332Y0096049D01*
X0204945Y0096049D01*
X0204945Y0094349D01*
X0207632Y0091661D01*
X0209332Y0091661D01*
X0209332Y0096049D01*
X0209332Y0096449D01*
X0204945Y0096449D01*
X0204945Y0098149D01*
X0207632Y0100836D01*
X0209332Y0100836D01*
X0209332Y0096449D01*
X0209732Y0096449D01*
X0209732Y0100836D01*
X0211432Y0100836D01*
X0213047Y0099221D01*
X0213047Y0119330D01*
X0212785Y0117841D01*
X0212785Y0117841D01*
X0210755Y0114325D01*
X0210755Y0114325D01*
X0207645Y0111716D01*
X0207645Y0111716D01*
X0203830Y0110327D01*
X0199770Y0110327D01*
X0195955Y0111716D01*
X0192845Y0114325D01*
X0192845Y0114325D01*
X0192845Y0114325D01*
X0190815Y0117841D01*
X0190815Y0117841D01*
X0190403Y0120178D01*
X0190341Y0120178D01*
X0190341Y0118192D01*
X0189526Y0117378D01*
X0183774Y0117378D01*
X0183753Y0117399D01*
X0183563Y0117289D01*
X0183159Y0117181D01*
X0181000Y0117181D01*
X0181000Y0121568D01*
X0180300Y0121568D01*
X0176763Y0121568D01*
X0176763Y0118559D01*
X0176871Y0118155D01*
X0177080Y0117793D01*
X0177376Y0117498D01*
X0177738Y0117289D01*
X0178141Y0117181D01*
X0180300Y0117181D01*
X0180300Y0121568D01*
X0180300Y0122268D01*
X0176763Y0122268D01*
X0176763Y0123284D01*
X0176564Y0123084D01*
X0175619Y0122693D01*
X0174596Y0122693D01*
X0174052Y0122918D01*
X0174052Y0117200D01*
X0174492Y0116761D01*
X0174883Y0115815D01*
X0174883Y0114792D01*
X0174492Y0113847D01*
X0173769Y0113124D01*
X0172823Y0112732D01*
X0171800Y0112732D01*
X0170855Y0113124D01*
X0170132Y0113847D01*
X0169740Y0114792D01*
X0169740Y0115815D01*
X0170132Y0116761D01*
X0170571Y0117200D01*
X0170571Y0118088D01*
X0169713Y0117732D01*
X0168690Y0117732D01*
X0167745Y0118124D01*
X0167021Y0118847D01*
X0166630Y0119792D01*
X0166630Y0120815D01*
X0167021Y0121761D01*
X0167461Y0122200D01*
X0167461Y0125095D01*
X0163481Y0129075D01*
X0124551Y0129075D01*
X0124716Y0128991D01*
X0125300Y0128567D01*
X0125811Y0128056D01*
X0126235Y0127472D01*
X0126563Y0126829D01*
X0126786Y0126142D01*
X0126899Y0125429D01*
X0126899Y0125268D01*
X0122512Y0125268D01*
X0122512Y0124868D01*
X0126899Y0124868D01*
X0126899Y0124707D01*
X0126786Y0123993D01*
X0126563Y0123307D01*
X0126235Y0122663D01*
X0125811Y0122079D01*
X0125300Y0121569D01*
X0124716Y0121144D01*
X0124073Y0120816D01*
X0123386Y0120593D01*
X0122673Y0120480D01*
X0122512Y0120480D01*
X0122512Y0124868D01*
X0122112Y0124868D01*
X0122112Y0120480D01*
X0121951Y0120480D01*
X0121238Y0120593D01*
X0120551Y0120816D01*
X0119907Y0121144D01*
X0119323Y0121569D01*
X0118813Y0122079D01*
X0118388Y0122663D01*
X0118281Y0122874D01*
X0118160Y0122581D01*
X0116925Y0121346D01*
X0115311Y0120677D01*
X0113564Y0120677D01*
X0111951Y0121346D01*
X0110716Y0122581D01*
X0110501Y0123099D01*
X0110286Y0122581D01*
X0109051Y0121346D01*
X0107437Y0120677D01*
X0105690Y0120677D01*
X0104077Y0121346D01*
X0102842Y0122581D01*
X0102627Y0123099D01*
X0102412Y0122581D01*
X0101177Y0121346D01*
X0099563Y0120677D01*
X0097816Y0120677D01*
X0096203Y0121346D01*
X0095206Y0122342D01*
X0095206Y0121492D01*
X0094392Y0120677D01*
X0087240Y0120677D01*
X0086425Y0121492D01*
X0086425Y0128644D01*
X0087240Y0129458D01*
X0092745Y0129458D01*
X0096413Y0133126D01*
X0033662Y0133126D01*
X0036857Y0131963D01*
X0036857Y0131963D01*
X0039967Y0129353D01*
X0039967Y0129353D01*
X0039967Y0129353D01*
X0041997Y0125837D01*
X0041997Y0125837D01*
X0042395Y0123580D01*
X0045739Y0123580D01*
X0045739Y0125565D01*
X0046554Y0126380D01*
X0052306Y0126380D01*
X0052327Y0126359D01*
X0052517Y0126469D01*
X0052921Y0126577D01*
X0055080Y0126577D01*
X0055080Y0122189D01*
X0055780Y0122189D01*
X0059317Y0122189D01*
X0059317Y0125198D01*
X0059209Y0125602D01*
X0059000Y0125964D01*
X0058705Y0126260D01*
X0058343Y0126469D01*
X0057939Y0126577D01*
X0055780Y0126577D01*
X0055780Y0122189D01*
X0055780Y0121489D01*
X0055780Y0117102D01*
X0057939Y0117102D01*
X0058343Y0117210D01*
X0058705Y0117419D01*
X0059000Y0117715D01*
X0059209Y0118077D01*
X0059317Y0118480D01*
X0059317Y0121489D01*
X0055780Y0121489D01*
X0055080Y0121489D01*
X0055080Y0117102D01*
X0052921Y0117102D01*
X0052517Y0117210D01*
X0052327Y0117320D01*
X0052306Y0117299D01*
X0046554Y0117299D01*
X0045739Y0118113D01*
X0045739Y0120099D01*
X0042395Y0120099D01*
X0041997Y0117841D01*
X0041997Y0117841D01*
X0039967Y0114325D01*
X0039967Y0114325D01*
X0036857Y0111716D01*
X0036857Y0111716D01*
X0033043Y0110327D01*
X0028983Y0110327D01*
X0025168Y0111716D01*
X0025168Y0111716D01*
X0022058Y0114325D01*
X0022058Y0114325D01*
X0020028Y0117841D01*
X0019765Y0119330D01*
X0019765Y0031527D01*
X0020185Y0033908D01*
X0020185Y0033908D01*
X0022215Y0037424D01*
X0022215Y0037424D01*
X0025325Y0040034D01*
X0025325Y0040034D01*
X0029140Y0041422D01*
X0033200Y0041422D01*
X0037015Y0040034D01*
X0037015Y0040034D01*
X0040125Y0037424D01*
X0040125Y0037424D01*
X0042155Y0033908D01*
X0042155Y0033908D01*
X0042574Y0031533D01*
X0044755Y0031533D01*
X0044755Y0033518D01*
X0045570Y0034333D01*
X0051322Y0034333D01*
X0051343Y0034312D01*
X0051533Y0034421D01*
X0051937Y0034530D01*
X0054096Y0034530D01*
X0054096Y0030142D01*
X0054796Y0030142D01*
X0058333Y0030142D01*
X0058333Y0033151D01*
X0058225Y0033555D01*
X0058016Y0033917D01*
X0057720Y0034212D01*
X0057358Y0034421D01*
X0056955Y0034530D01*
X0054796Y0034530D01*
X0054796Y0030142D01*
X0054796Y0029442D01*
X0058333Y0029442D01*
X0058333Y0026433D01*
X0058225Y0026029D01*
X0058016Y0025667D01*
X0057720Y0025372D01*
X0057358Y0025163D01*
X0056955Y0025055D01*
X0054796Y0025055D01*
X0054796Y0029442D01*
X0054096Y0029442D01*
X0054096Y0025055D01*
X0051937Y0025055D01*
X0051533Y0025163D01*
X0051343Y0025273D01*
X0051322Y0025252D01*
X0045570Y0025252D01*
X0044755Y0026066D01*
X0044755Y0028052D01*
X0042532Y0028052D01*
X0042155Y0025912D01*
X0042155Y0025912D01*
X0040125Y0022396D01*
X0040125Y0022396D01*
X0037015Y0019787D01*
X0037015Y0019787D01*
X0037266Y0019997D02*
X0195689Y0019997D01*
X0193784Y0021596D02*
X0039171Y0021596D01*
X0040586Y0023194D02*
X0167910Y0023194D01*
X0167964Y0023115D02*
X0168390Y0022688D01*
X0168892Y0022353D01*
X0169450Y0022122D01*
X0170042Y0022004D01*
X0170343Y0022004D01*
X0170343Y0025068D01*
X0170343Y0025068D01*
X0167280Y0025068D01*
X0167280Y0025369D01*
X0167397Y0025961D01*
X0167628Y0026519D01*
X0167964Y0027021D01*
X0168390Y0027448D01*
X0168892Y0027783D01*
X0169450Y0028014D01*
X0170042Y0028131D01*
X0170343Y0028131D01*
X0170343Y0025068D01*
X0170343Y0025068D01*
X0170343Y0028131D01*
X0170645Y0028131D01*
X0171237Y0028014D01*
X0171795Y0027783D01*
X0172296Y0027448D01*
X0172723Y0027021D01*
X0173058Y0026519D01*
X0173289Y0025961D01*
X0173407Y0025369D01*
X0173407Y0025068D01*
X0170343Y0025068D01*
X0167280Y0025068D01*
X0167280Y0024766D01*
X0167397Y0024174D01*
X0167628Y0023616D01*
X0167964Y0023115D01*
X0167280Y0024793D02*
X0041508Y0024793D01*
X0042239Y0026391D02*
X0044755Y0026391D01*
X0044755Y0027990D02*
X0042521Y0027990D01*
X0042353Y0032785D02*
X0044755Y0032785D01*
X0041880Y0034384D02*
X0051468Y0034384D01*
X0054096Y0034384D02*
X0054796Y0034384D01*
X0054796Y0032785D02*
X0054096Y0032785D01*
X0054096Y0031187D02*
X0054796Y0031187D01*
X0054796Y0029588D02*
X0179474Y0029588D01*
X0179474Y0027990D02*
X0180174Y0027990D01*
X0180174Y0026391D02*
X0179474Y0026391D01*
X0175947Y0026391D02*
X0173111Y0026391D01*
X0173407Y0025068D02*
X0170343Y0025068D01*
X0170343Y0025068D01*
X0170343Y0025068D01*
X0170343Y0022004D01*
X0170645Y0022004D01*
X0171237Y0022122D01*
X0171795Y0022353D01*
X0172296Y0022688D01*
X0172723Y0023115D01*
X0173058Y0023616D01*
X0173289Y0024174D01*
X0173407Y0024766D01*
X0173407Y0025068D01*
X0173407Y0024793D02*
X0191495Y0024793D01*
X0190796Y0026391D02*
X0189514Y0026391D01*
X0189514Y0027990D02*
X0190514Y0027990D01*
X0190710Y0032785D02*
X0189514Y0032785D01*
X0191214Y0034384D02*
X0182802Y0034384D01*
X0180174Y0034384D02*
X0179474Y0034384D01*
X0179474Y0032785D02*
X0180174Y0032785D01*
X0180174Y0031187D02*
X0179474Y0031187D01*
X0175936Y0031187D02*
X0058333Y0031187D01*
X0058333Y0032785D02*
X0175936Y0032785D01*
X0176846Y0034384D02*
X0057424Y0034384D01*
X0056387Y0039127D02*
X0058819Y0039127D01*
X0061067Y0040058D01*
X0062787Y0041778D01*
X0063718Y0044025D01*
X0063718Y0046458D01*
X0062787Y0048706D01*
X0061067Y0050426D01*
X0058819Y0051357D01*
X0056387Y0051357D01*
X0054139Y0050426D01*
X0052419Y0048706D01*
X0051488Y0046458D01*
X0051488Y0044025D01*
X0052419Y0041778D01*
X0054139Y0040058D01*
X0056387Y0039127D01*
X0056260Y0039179D02*
X0038034Y0039179D01*
X0039939Y0037581D02*
X0119994Y0037581D01*
X0119971Y0037603D02*
X0120398Y0037176D01*
X0120900Y0036841D01*
X0121458Y0036610D01*
X0122049Y0036492D01*
X0122351Y0036492D01*
X0122351Y0039556D01*
X0122351Y0039556D01*
X0119287Y0039556D01*
X0119287Y0039858D01*
X0119405Y0040450D01*
X0119636Y0041007D01*
X0119971Y0041509D01*
X0120398Y0041936D01*
X0120900Y0042271D01*
X0121458Y0042502D01*
X0122049Y0042620D01*
X0122351Y0042620D01*
X0122351Y0039556D01*
X0122351Y0039556D01*
X0119287Y0039556D01*
X0119287Y0039254D01*
X0119405Y0038662D01*
X0119636Y0038105D01*
X0119971Y0037603D01*
X0119302Y0039179D02*
X0058946Y0039179D01*
X0061787Y0040778D02*
X0091031Y0040778D01*
X0091074Y0040713D02*
X0091500Y0040286D01*
X0092002Y0039951D01*
X0092560Y0039720D01*
X0093152Y0039602D01*
X0093453Y0039602D01*
X0093453Y0042666D01*
X0090390Y0042666D01*
X0090390Y0042364D01*
X0090508Y0041772D01*
X0090738Y0041215D01*
X0091074Y0040713D01*
X0090390Y0042376D02*
X0063035Y0042376D01*
X0063697Y0043975D02*
X0090679Y0043975D01*
X0090738Y0044117D02*
X0090508Y0043560D01*
X0090390Y0042968D01*
X0090390Y0042666D01*
X0093453Y0042666D01*
X0093453Y0042666D01*
X0093454Y0042666D01*
X0093454Y0042666D01*
X0096517Y0042666D01*
X0096517Y0042364D01*
X0096400Y0041772D01*
X0096169Y0041215D01*
X0095833Y0040713D01*
X0095407Y0040286D01*
X0094905Y0039951D01*
X0094347Y0039720D01*
X0093755Y0039602D01*
X0093454Y0039602D01*
X0093454Y0042666D01*
X0096517Y0042666D01*
X0096517Y0042968D01*
X0096400Y0043560D01*
X0096169Y0044117D01*
X0095833Y0044619D01*
X0095407Y0045046D01*
X0094905Y0045381D01*
X0094347Y0045612D01*
X0093755Y0045730D01*
X0093454Y0045730D01*
X0093454Y0042666D01*
X0093453Y0042666D01*
X0093453Y0045730D01*
X0093152Y0045730D01*
X0092560Y0045612D01*
X0092002Y0045381D01*
X0091500Y0045046D01*
X0091074Y0044619D01*
X0090738Y0044117D01*
X0092466Y0045573D02*
X0063718Y0045573D01*
X0063422Y0047172D02*
X0213047Y0047172D01*
X0213047Y0048770D02*
X0062722Y0048770D01*
X0061124Y0050369D02*
X0154152Y0050369D01*
X0154364Y0050227D02*
X0154922Y0049996D01*
X0155514Y0049878D01*
X0155816Y0049878D01*
X0156118Y0049878D01*
X0156709Y0049996D01*
X0157267Y0050227D01*
X0157769Y0050562D01*
X0158196Y0050989D01*
X0158531Y0051490D01*
X0158762Y0052048D01*
X0158880Y0052640D01*
X0158880Y0052942D01*
X0158880Y0053243D01*
X0158762Y0053835D01*
X0158531Y0054393D01*
X0158285Y0054762D01*
X0158373Y0054785D01*
X0158735Y0054994D01*
X0159031Y0055290D01*
X0159240Y0055652D01*
X0159348Y0056056D01*
X0159348Y0058246D01*
X0155976Y0058246D01*
X0155976Y0056005D01*
X0155816Y0056005D01*
X0155816Y0052942D01*
X0158880Y0052942D01*
X0155816Y0052942D01*
X0155816Y0052942D01*
X0155816Y0052942D01*
X0155816Y0056005D01*
X0155608Y0056005D01*
X0155608Y0058246D01*
X0152236Y0058246D01*
X0152236Y0056056D01*
X0152344Y0055652D01*
X0152553Y0055290D01*
X0152849Y0054994D01*
X0153211Y0054785D01*
X0153340Y0054751D01*
X0153101Y0054393D01*
X0152870Y0053835D01*
X0152752Y0053243D01*
X0152752Y0052942D01*
X0155816Y0052942D01*
X0155816Y0052942D01*
X0155816Y0049878D01*
X0155816Y0052942D01*
X0155816Y0052942D01*
X0152752Y0052942D01*
X0152752Y0052640D01*
X0152870Y0052048D01*
X0153101Y0051490D01*
X0153436Y0050989D01*
X0153863Y0050562D01*
X0154364Y0050227D01*
X0155816Y0050369D02*
X0155816Y0050369D01*
X0155816Y0051967D02*
X0155816Y0051967D01*
X0155816Y0053566D02*
X0155816Y0053566D01*
X0155816Y0055164D02*
X0155816Y0055164D01*
X0155976Y0056763D02*
X0155608Y0056763D01*
X0155608Y0058246D02*
X0155976Y0058246D01*
X0155976Y0058614D01*
X0159348Y0058614D01*
X0159348Y0059941D01*
X0170022Y0059941D01*
X0170461Y0059502D01*
X0171407Y0059110D01*
X0172430Y0059110D01*
X0173375Y0059502D01*
X0174098Y0060225D01*
X0174490Y0061170D01*
X0174490Y0062193D01*
X0174098Y0063139D01*
X0173375Y0063862D01*
X0172430Y0064254D01*
X0171407Y0064254D01*
X0170461Y0063862D01*
X0170022Y0063422D01*
X0159545Y0063422D01*
X0160036Y0063913D01*
X0160304Y0063913D01*
X0161249Y0064305D01*
X0161972Y0065028D01*
X0162364Y0065973D01*
X0162364Y0066997D01*
X0161972Y0067942D01*
X0161249Y0068665D01*
X0160304Y0069057D01*
X0159281Y0069057D01*
X0158346Y0068669D01*
X0158337Y0068679D01*
X0153248Y0068679D01*
X0152433Y0067864D01*
X0152433Y0067113D01*
X0150096Y0067113D01*
X0150096Y0067963D01*
X0149281Y0068777D01*
X0146263Y0068777D01*
X0146537Y0069438D01*
X0146537Y0070461D01*
X0146145Y0071406D01*
X0145422Y0072130D01*
X0144477Y0072521D01*
X0144209Y0072521D01*
X0142019Y0074711D01*
X0142019Y0078913D01*
X0142191Y0078913D01*
X0142726Y0079020D01*
X0143229Y0079228D01*
X0143683Y0079531D01*
X0144069Y0079917D01*
X0144372Y0080371D01*
X0144580Y0080874D01*
X0144687Y0081409D01*
X0144687Y0081682D01*
X0144687Y0081955D01*
X0144580Y0082489D01*
X0144372Y0082993D01*
X0144069Y0083447D01*
X0143683Y0083832D01*
X0143229Y0084135D01*
X0142726Y0084344D01*
X0142191Y0084450D01*
X0141918Y0084450D01*
X0141645Y0084450D01*
X0141111Y0084344D01*
X0140607Y0084135D01*
X0140153Y0083832D01*
X0139768Y0083447D01*
X0139465Y0082993D01*
X0139256Y0082489D01*
X0139208Y0082247D01*
X0134539Y0086916D01*
X0133373Y0088082D01*
X0133265Y0088082D01*
X0133427Y0088323D01*
X0133635Y0088827D01*
X0133742Y0089362D01*
X0133742Y0089635D01*
X0133742Y0089907D01*
X0133681Y0090213D01*
X0134634Y0090213D01*
X0134661Y0090224D01*
X0134661Y0089517D01*
X0135053Y0088572D01*
X0135776Y0087848D01*
X0136722Y0087457D01*
X0137745Y0087457D01*
X0138690Y0087848D01*
X0139413Y0088572D01*
X0139805Y0089517D01*
X0139805Y0090540D01*
X0139413Y0091485D01*
X0138974Y0091925D01*
X0138974Y0099336D01*
X0139154Y0099156D01*
X0139154Y0097693D01*
X0141201Y0095646D01*
X0141408Y0095439D01*
X0141392Y0095422D01*
X0141000Y0094477D01*
X0141000Y0093454D01*
X0141392Y0092509D01*
X0142115Y0091785D01*
X0142299Y0091709D01*
X0142299Y0090698D01*
X0142691Y0089753D01*
X0143414Y0089029D01*
X0144359Y0088638D01*
X0145382Y0088638D01*
X0146328Y0089029D01*
X0146767Y0089469D01*
X0172384Y0089469D01*
X0172824Y0089029D01*
X0173769Y0088638D01*
X0174792Y0088638D01*
X0175408Y0088893D01*
X0173707Y0087192D01*
X0173020Y0087878D01*
X0172075Y0088269D01*
X0171052Y0088269D01*
X0170615Y0088088D01*
X0170594Y0088139D01*
X0169871Y0088862D01*
X0168926Y0089254D01*
X0167903Y0089254D01*
X0166957Y0088862D01*
X0166234Y0088139D01*
X0165862Y0087241D01*
X0157122Y0087241D01*
X0156682Y0087681D01*
X0155737Y0088072D01*
X0154714Y0088072D01*
X0153768Y0087681D01*
X0153045Y0086958D01*
X0152654Y0086012D01*
X0152654Y0084989D01*
X0153045Y0084044D01*
X0153768Y0083321D01*
X0154714Y0082929D01*
X0155737Y0082929D01*
X0156682Y0083321D01*
X0157122Y0083760D01*
X0167165Y0083760D01*
X0165725Y0082320D01*
X0160803Y0082320D01*
X0160363Y0082760D01*
X0159418Y0083151D01*
X0158395Y0083151D01*
X0157450Y0082760D01*
X0156726Y0082036D01*
X0156335Y0081091D01*
X0156335Y0080607D01*
X0155894Y0080789D01*
X0154871Y0080789D01*
X0153926Y0080397D01*
X0153203Y0079674D01*
X0152811Y0078729D01*
X0152811Y0077706D01*
X0153203Y0076761D01*
X0153337Y0076626D01*
X0152969Y0075737D01*
X0152969Y0074714D01*
X0153360Y0073768D01*
X0154083Y0073045D01*
X0155029Y0072654D01*
X0156052Y0072654D01*
X0156997Y0073045D01*
X0157436Y0073485D01*
X0158171Y0073485D01*
X0158532Y0073124D01*
X0159477Y0072732D01*
X0160501Y0072732D01*
X0161446Y0073124D01*
X0162169Y0073847D01*
X0162561Y0074792D01*
X0162561Y0075815D01*
X0162287Y0076477D01*
X0186164Y0076477D01*
X0186603Y0076037D01*
X0187548Y0075646D01*
X0188571Y0075646D01*
X0189517Y0076037D01*
X0190240Y0076761D01*
X0190631Y0077706D01*
X0190631Y0078729D01*
X0190240Y0079674D01*
X0189517Y0080397D01*
X0188571Y0080789D01*
X0187548Y0080789D01*
X0186603Y0080397D01*
X0186164Y0079958D01*
X0172082Y0079958D01*
X0172128Y0080068D01*
X0172128Y0080690D01*
X0175661Y0084223D01*
X0176367Y0083517D01*
X0177312Y0083126D01*
X0178335Y0083126D01*
X0179280Y0083517D01*
X0179720Y0083957D01*
X0195615Y0083957D01*
X0197714Y0081858D01*
X0201351Y0081858D01*
X0203923Y0084430D01*
X0203923Y0088067D01*
X0201351Y0090639D01*
X0197714Y0090639D01*
X0195142Y0088067D01*
X0195142Y0087438D01*
X0179720Y0087438D01*
X0179298Y0087860D01*
X0185587Y0094150D01*
X0186209Y0094150D01*
X0187154Y0094541D01*
X0187878Y0095265D01*
X0188269Y0096210D01*
X0188269Y0097233D01*
X0187878Y0098178D01*
X0187154Y0098901D01*
X0186209Y0099293D01*
X0185186Y0099293D01*
X0184241Y0098901D01*
X0183517Y0098178D01*
X0183126Y0097233D01*
X0183126Y0096611D01*
X0176597Y0090082D01*
X0176852Y0090698D01*
X0176852Y0091721D01*
X0176824Y0091787D01*
X0177548Y0091787D01*
X0178493Y0092179D01*
X0179216Y0092902D01*
X0179608Y0093848D01*
X0179608Y0094871D01*
X0179216Y0095816D01*
X0178493Y0096539D01*
X0177548Y0096931D01*
X0176525Y0096931D01*
X0175579Y0096539D01*
X0175140Y0096100D01*
X0164366Y0096100D01*
X0163926Y0096539D01*
X0162981Y0096931D01*
X0161958Y0096931D01*
X0161013Y0096539D01*
X0160289Y0095816D01*
X0159898Y0094871D01*
X0159898Y0093848D01*
X0160269Y0092950D01*
X0155777Y0092950D01*
X0155986Y0093454D01*
X0155986Y0094477D01*
X0155594Y0095422D01*
X0154871Y0096145D01*
X0153926Y0096537D01*
X0152903Y0096537D01*
X0152206Y0096249D01*
X0152206Y0096878D01*
X0151815Y0097824D01*
X0151091Y0098547D01*
X0150146Y0098939D01*
X0149647Y0098939D01*
X0149647Y0099044D01*
X0149256Y0099989D01*
X0148816Y0100429D01*
X0148816Y0100631D01*
X0145750Y0103698D01*
X0145750Y0104319D01*
X0145358Y0105265D01*
X0144635Y0105988D01*
X0143689Y0106380D01*
X0142666Y0106380D01*
X0141721Y0105988D01*
X0140998Y0105265D01*
X0140606Y0104319D01*
X0140606Y0103624D01*
X0140383Y0103624D01*
X0139438Y0103232D01*
X0138974Y0102768D01*
X0138974Y0112717D01*
X0139005Y0112730D01*
X0139728Y0113454D01*
X0140120Y0114399D01*
X0140120Y0115422D01*
X0139728Y0116367D01*
X0139005Y0117090D01*
X0138060Y0117482D01*
X0137036Y0117482D01*
X0136757Y0117366D01*
X0137993Y0118603D01*
X0149549Y0118603D01*
X0149989Y0118163D01*
X0150934Y0117772D01*
X0151957Y0117772D01*
X0152902Y0118163D01*
X0153626Y0118887D01*
X0154017Y0119832D01*
X0154017Y0120855D01*
X0153626Y0121800D01*
X0152902Y0122523D01*
X0152292Y0122776D01*
X0152942Y0123045D01*
X0153665Y0123768D01*
X0154057Y0124714D01*
X0154057Y0125737D01*
X0153665Y0126682D01*
X0152942Y0127405D01*
X0151997Y0127797D01*
X0150973Y0127797D01*
X0150028Y0127405D01*
X0149589Y0126966D01*
X0133205Y0126966D01*
X0132185Y0125946D01*
X0132185Y0125907D01*
X0131044Y0124765D01*
X0130422Y0124765D01*
X0129477Y0124374D01*
X0128754Y0123650D01*
X0128362Y0122705D01*
X0128362Y0121682D01*
X0128754Y0120737D01*
X0129477Y0120014D01*
X0130422Y0119622D01*
X0131445Y0119622D01*
X0132391Y0120014D01*
X0133114Y0120737D01*
X0133505Y0121682D01*
X0133505Y0122304D01*
X0134686Y0123485D01*
X0149589Y0123485D01*
X0150028Y0123045D01*
X0150638Y0122792D01*
X0149989Y0122523D01*
X0149549Y0122084D01*
X0136551Y0122084D01*
X0134233Y0119765D01*
X0133611Y0119765D01*
X0132666Y0119374D01*
X0131943Y0118650D01*
X0131551Y0117705D01*
X0131551Y0116682D01*
X0131564Y0116651D01*
X0130114Y0116651D01*
X0129674Y0117090D01*
X0128729Y0117482D01*
X0127706Y0117482D01*
X0126761Y0117090D01*
X0126037Y0116367D01*
X0125646Y0115422D01*
X0125646Y0114399D01*
X0126037Y0113454D01*
X0126761Y0112730D01*
X0127706Y0112339D01*
X0128729Y0112339D01*
X0129674Y0112730D01*
X0130114Y0113170D01*
X0135493Y0113170D01*
X0135493Y0108780D01*
X0134634Y0109135D01*
X0133611Y0109135D01*
X0132666Y0108744D01*
X0132489Y0108567D01*
X0132391Y0108665D01*
X0131445Y0109057D01*
X0130422Y0109057D01*
X0129477Y0108665D01*
X0128754Y0107942D01*
X0128362Y0106997D01*
X0128362Y0105973D01*
X0128754Y0105028D01*
X0129193Y0104589D01*
X0129193Y0097870D01*
X0128754Y0097430D01*
X0128362Y0096485D01*
X0128362Y0095462D01*
X0128754Y0094516D01*
X0129477Y0093793D01*
X0130422Y0093402D01*
X0131445Y0093402D01*
X0131626Y0093476D01*
X0131551Y0093296D01*
X0131551Y0092342D01*
X0131246Y0092403D01*
X0130973Y0092403D01*
X0130701Y0092403D01*
X0130166Y0092297D01*
X0129662Y0092088D01*
X0129208Y0091785D01*
X0128823Y0091399D01*
X0128520Y0090946D01*
X0128311Y0090442D01*
X0128205Y0089907D01*
X0128205Y0089635D01*
X0130973Y0089635D01*
X0130973Y0092403D01*
X0130973Y0089635D01*
X0130973Y0089635D01*
X0130973Y0089635D01*
X0128205Y0089635D01*
X0128205Y0089596D01*
X0123546Y0094255D01*
X0123546Y0098173D01*
X0124293Y0098173D01*
X0125108Y0098988D01*
X0125108Y0108014D01*
X0124293Y0108828D01*
X0118417Y0108828D01*
X0117602Y0108014D01*
X0117602Y0105691D01*
X0115199Y0105691D01*
X0111986Y0108905D01*
X0111986Y0111907D01*
X0111506Y0112387D01*
X0111570Y0112423D01*
X0111866Y0112719D01*
X0112074Y0113081D01*
X0112183Y0113485D01*
X0112183Y0115675D01*
X0108811Y0115675D01*
X0108811Y0116043D01*
X0112183Y0116043D01*
X0112183Y0118233D01*
X0112074Y0118637D01*
X0111866Y0118999D01*
X0111570Y0119295D01*
X0111208Y0119504D01*
X0110804Y0119612D01*
X0108811Y0119612D01*
X0108811Y0116043D01*
X0108442Y0116043D01*
X0108442Y0115675D01*
X0105071Y0115675D01*
X0105071Y0113485D01*
X0105179Y0113081D01*
X0105388Y0112719D01*
X0105684Y0112423D01*
X0105747Y0112387D01*
X0105268Y0111907D01*
X0105268Y0111357D01*
X0103568Y0111357D01*
X0103568Y0111841D01*
X0103089Y0112320D01*
X0103153Y0112357D01*
X0103448Y0112652D01*
X0103657Y0113014D01*
X0103765Y0113418D01*
X0103765Y0115608D01*
X0100394Y0115608D01*
X0100394Y0115976D01*
X0103765Y0115976D01*
X0103765Y0118166D01*
X0103657Y0118570D01*
X0103448Y0118932D01*
X0103153Y0119228D01*
X0102791Y0119437D01*
X0102387Y0119545D01*
X0100394Y0119545D01*
X0100394Y0115976D01*
X0100025Y0115976D01*
X0100025Y0115608D01*
X0096799Y0115608D01*
X0091841Y0120565D01*
X0081224Y0120565D01*
X0080304Y0120946D01*
X0079281Y0120946D01*
X0078335Y0120555D01*
X0077612Y0119832D01*
X0077220Y0118886D01*
X0077220Y0117863D01*
X0077612Y0116918D01*
X0078335Y0116195D01*
X0079281Y0115803D01*
X0080304Y0115803D01*
X0081224Y0116184D01*
X0090027Y0116184D01*
X0096850Y0109360D01*
X0096850Y0108415D01*
X0096641Y0108921D01*
X0096306Y0109422D01*
X0095879Y0109849D01*
X0095377Y0110184D01*
X0094820Y0110415D01*
X0094228Y0110533D01*
X0093926Y0110533D01*
X0093926Y0107469D01*
X0090862Y0107469D01*
X0090862Y0107168D01*
X0090980Y0106576D01*
X0091211Y0106018D01*
X0091525Y0105548D01*
X0066866Y0105548D01*
X0052300Y0090981D01*
X0048488Y0090981D01*
X0050286Y0091726D01*
X0052615Y0094055D01*
X0053875Y0097099D01*
X0053875Y0100393D01*
X0052615Y0103436D01*
X0050286Y0105765D01*
X0047242Y0107026D01*
X0043948Y0107026D01*
X0040905Y0105765D01*
X0038575Y0103436D01*
X0037315Y0100393D01*
X0037315Y0097099D01*
X0038575Y0094055D01*
X0040905Y0091726D01*
X0042702Y0090981D01*
X0030359Y0090981D01*
X0030359Y0091950D01*
X0029743Y0093438D01*
X0028604Y0094577D01*
X0027116Y0095193D01*
X0025506Y0095193D01*
X0024018Y0094577D01*
X0022880Y0093438D01*
X0022263Y0091950D01*
X0022263Y0090340D01*
X0022880Y0088852D01*
X0024018Y0087713D01*
X0025506Y0087097D01*
X0027116Y0087097D01*
X0027182Y0087124D01*
X0024569Y0084511D01*
X0024569Y0055010D01*
X0024016Y0054781D01*
X0022878Y0053642D01*
X0022261Y0052154D01*
X0022261Y0050544D01*
X0022878Y0049056D01*
X0024016Y0047917D01*
X0025504Y0047301D01*
X0027115Y0047301D01*
X0028602Y0047917D01*
X0029741Y0049056D01*
X0030357Y0050544D01*
X0030357Y0052154D01*
X0029741Y0053642D01*
X0028602Y0054781D01*
X0028050Y0055010D01*
X0028050Y0083069D01*
X0030907Y0085926D01*
X0054929Y0085926D01*
X0068315Y0099311D01*
X0109786Y0099311D01*
X0110225Y0098872D01*
X0111170Y0098480D01*
X0112193Y0098480D01*
X0113139Y0098872D01*
X0113862Y0099595D01*
X0114254Y0100540D01*
X0114254Y0101310D01*
X0117602Y0101310D01*
X0117602Y0098988D01*
X0118417Y0098173D01*
X0119165Y0098173D01*
X0119165Y0092440D01*
X0125655Y0085950D01*
X0123098Y0083394D01*
X0111369Y0083394D01*
X0111369Y0085129D01*
X0110555Y0085943D01*
X0102316Y0085943D01*
X0101502Y0085129D01*
X0101502Y0077678D01*
X0102316Y0076863D01*
X0110555Y0076863D01*
X0111369Y0077678D01*
X0111369Y0079413D01*
X0124747Y0079413D01*
X0128854Y0083520D01*
X0129123Y0083520D01*
X0130068Y0083911D01*
X0130257Y0084101D01*
X0131724Y0084101D01*
X0134268Y0081556D01*
X0133847Y0081382D01*
X0133124Y0080658D01*
X0132732Y0079713D01*
X0132732Y0079445D01*
X0131249Y0077962D01*
X0123618Y0077962D01*
X0122803Y0077148D01*
X0122803Y0071271D01*
X0123181Y0070894D01*
X0120290Y0068003D01*
X0111627Y0068003D01*
X0111369Y0068261D01*
X0111369Y0074105D01*
X0110555Y0074920D01*
X0102316Y0074920D01*
X0101502Y0074105D01*
X0101502Y0066654D01*
X0102316Y0065839D01*
X0108161Y0065839D01*
X0109978Y0064022D01*
X0121939Y0064022D01*
X0128374Y0070457D01*
X0132464Y0070457D01*
X0132457Y0070419D01*
X0132457Y0070147D01*
X0135225Y0070147D01*
X0135225Y0072915D01*
X0134953Y0072915D01*
X0134418Y0072809D01*
X0133914Y0072600D01*
X0133460Y0072297D01*
X0133458Y0072295D01*
X0133458Y0074541D01*
X0135547Y0076630D01*
X0135815Y0076630D01*
X0136761Y0077021D01*
X0137484Y0077745D01*
X0137658Y0078166D01*
X0138038Y0077787D01*
X0138038Y0073062D01*
X0139204Y0071896D01*
X0141394Y0069706D01*
X0141394Y0069438D01*
X0141785Y0068493D01*
X0142509Y0067769D01*
X0143378Y0067409D01*
X0143378Y0063422D01*
X0138381Y0063422D01*
X0137942Y0063862D01*
X0136997Y0064254D01*
X0135973Y0064254D01*
X0135028Y0063862D01*
X0134305Y0063139D01*
X0133913Y0062193D01*
X0133913Y0061170D01*
X0134305Y0060225D01*
X0135028Y0059502D01*
X0135973Y0059110D01*
X0136997Y0059110D01*
X0137942Y0059502D01*
X0138381Y0059941D01*
X0143181Y0059941D01*
X0143181Y0058713D01*
X0146553Y0058713D01*
X0146553Y0058344D01*
X0143181Y0058344D01*
X0143181Y0056154D01*
X0143289Y0055750D01*
X0143498Y0055388D01*
X0143794Y0055093D01*
X0144156Y0054884D01*
X0144332Y0054837D01*
X0144307Y0054710D01*
X0144307Y0054438D01*
X0147075Y0054438D01*
X0147075Y0054438D01*
X0144307Y0054438D01*
X0144307Y0054165D01*
X0144413Y0053630D01*
X0144622Y0053126D01*
X0144925Y0052673D01*
X0145311Y0052287D01*
X0145764Y0051984D01*
X0146268Y0051776D01*
X0146803Y0051669D01*
X0147076Y0051669D01*
X0147348Y0051669D01*
X0147883Y0051776D01*
X0148387Y0051984D01*
X0148840Y0052287D01*
X0149226Y0052673D01*
X0149529Y0053126D01*
X0149738Y0053630D01*
X0149844Y0054165D01*
X0149844Y0054438D01*
X0149844Y0054710D01*
X0149753Y0055166D01*
X0149976Y0055388D01*
X0150185Y0055750D01*
X0150293Y0056154D01*
X0150293Y0058344D01*
X0146921Y0058344D01*
X0146921Y0058713D01*
X0150293Y0058713D01*
X0150293Y0059941D01*
X0152236Y0059941D01*
X0152236Y0058614D01*
X0155608Y0058614D01*
X0155608Y0058246D01*
X0155608Y0058361D02*
X0146921Y0058361D01*
X0146553Y0058361D02*
X0122120Y0058361D01*
X0122035Y0058566D02*
X0121699Y0059068D01*
X0121273Y0059495D01*
X0120771Y0059830D01*
X0120213Y0060061D01*
X0119621Y0060179D01*
X0119320Y0060179D01*
X0119320Y0057115D01*
X0122383Y0057115D01*
X0122383Y0057417D01*
X0122266Y0058009D01*
X0122035Y0058566D01*
X0122383Y0057115D02*
X0119320Y0057115D01*
X0119320Y0057115D01*
X0119320Y0057115D01*
X0119320Y0054051D01*
X0119621Y0054051D01*
X0120213Y0054169D01*
X0120771Y0054400D01*
X0121273Y0054735D01*
X0121699Y0055162D01*
X0122035Y0055664D01*
X0122266Y0056221D01*
X0122383Y0056813D01*
X0122383Y0057115D01*
X0122373Y0056763D02*
X0127293Y0056763D01*
X0127412Y0056942D02*
X0127077Y0056440D01*
X0126846Y0055883D01*
X0126728Y0055291D01*
X0126728Y0054989D01*
X0129792Y0054989D01*
X0129792Y0054989D01*
X0126728Y0054989D01*
X0126728Y0054687D01*
X0126846Y0054095D01*
X0127077Y0053538D01*
X0127412Y0053036D01*
X0127839Y0052609D01*
X0128341Y0052274D01*
X0128898Y0052043D01*
X0129490Y0051925D01*
X0129792Y0051925D01*
X0129792Y0054989D01*
X0129792Y0058053D01*
X0129490Y0058053D01*
X0128898Y0057935D01*
X0128341Y0057704D01*
X0127839Y0057369D01*
X0127412Y0056942D01*
X0126728Y0055164D02*
X0121701Y0055164D01*
X0119320Y0055164D02*
X0119320Y0055164D01*
X0119320Y0054051D02*
X0119320Y0057115D01*
X0119320Y0057115D01*
X0119320Y0060179D01*
X0119018Y0060179D01*
X0118426Y0060061D01*
X0117868Y0059830D01*
X0117367Y0059495D01*
X0116940Y0059068D01*
X0116605Y0058566D01*
X0116374Y0058009D01*
X0116256Y0057417D01*
X0116256Y0057115D01*
X0119320Y0057115D01*
X0119320Y0057115D01*
X0116256Y0057115D01*
X0116256Y0056813D01*
X0116374Y0056221D01*
X0116605Y0055664D01*
X0116940Y0055162D01*
X0117367Y0054735D01*
X0117868Y0054400D01*
X0118426Y0054169D01*
X0119018Y0054051D01*
X0119320Y0054051D01*
X0116938Y0055164D02*
X0095837Y0055164D01*
X0096025Y0055619D02*
X0095634Y0054674D01*
X0094910Y0053951D01*
X0093965Y0053559D01*
X0092942Y0053559D01*
X0091997Y0053951D01*
X0091273Y0054674D01*
X0090882Y0055619D01*
X0090882Y0056642D01*
X0091273Y0057587D01*
X0091713Y0058027D01*
X0091713Y0069825D01*
X0091273Y0070265D01*
X0090882Y0071210D01*
X0090882Y0072233D01*
X0091273Y0073178D01*
X0091997Y0073901D01*
X0092942Y0074293D01*
X0093965Y0074293D01*
X0094910Y0073901D01*
X0095634Y0073178D01*
X0096025Y0072233D01*
X0096025Y0071210D01*
X0095634Y0070265D01*
X0095194Y0069825D01*
X0095194Y0058027D01*
X0095634Y0057587D01*
X0096025Y0056642D01*
X0096025Y0055619D01*
X0095975Y0056763D02*
X0116266Y0056763D01*
X0116520Y0058361D02*
X0095194Y0058361D01*
X0095194Y0059960D02*
X0118182Y0059960D01*
X0119320Y0059960D02*
X0119320Y0059960D01*
X0120458Y0059960D02*
X0134570Y0059960D01*
X0133913Y0061558D02*
X0095194Y0061558D01*
X0095194Y0063157D02*
X0134323Y0063157D01*
X0134953Y0067378D02*
X0134418Y0067484D01*
X0133914Y0067693D01*
X0133460Y0067996D01*
X0133075Y0068382D01*
X0132772Y0068835D01*
X0132563Y0069339D01*
X0132457Y0069874D01*
X0132457Y0070146D01*
X0135225Y0070146D01*
X0135225Y0070146D01*
X0135225Y0067378D01*
X0134953Y0067378D01*
X0135225Y0067378D02*
X0135498Y0067378D01*
X0136033Y0067484D01*
X0136537Y0067693D01*
X0136990Y0067996D01*
X0137376Y0068382D01*
X0137679Y0068835D01*
X0137887Y0069339D01*
X0137994Y0069874D01*
X0137994Y0070146D01*
X0135225Y0070146D01*
X0135225Y0070147D01*
X0135225Y0070147D01*
X0135225Y0072915D01*
X0135498Y0072915D01*
X0136033Y0072809D01*
X0136537Y0072600D01*
X0136990Y0072297D01*
X0137376Y0071911D01*
X0137679Y0071458D01*
X0137887Y0070954D01*
X0137994Y0070419D01*
X0137994Y0070147D01*
X0135225Y0070147D01*
X0135225Y0070146D01*
X0135225Y0067378D01*
X0135225Y0067952D02*
X0135225Y0067952D01*
X0135225Y0069551D02*
X0135225Y0069551D01*
X0135225Y0071149D02*
X0135225Y0071149D01*
X0135225Y0072748D02*
X0135225Y0072748D01*
X0134271Y0072748D02*
X0133458Y0072748D01*
X0133458Y0074346D02*
X0138038Y0074346D01*
X0138038Y0075945D02*
X0134862Y0075945D01*
X0137283Y0077543D02*
X0138038Y0077543D01*
X0142019Y0077543D02*
X0143369Y0077543D01*
X0143390Y0077647D02*
X0143283Y0077112D01*
X0143283Y0076839D01*
X0143283Y0076567D01*
X0143390Y0076032D01*
X0143599Y0075528D01*
X0143902Y0075075D01*
X0144287Y0074689D01*
X0144741Y0074386D01*
X0145244Y0074177D01*
X0145779Y0074071D01*
X0146052Y0074071D01*
X0146325Y0074071D01*
X0146860Y0074177D01*
X0147363Y0074386D01*
X0147817Y0074689D01*
X0148202Y0075075D01*
X0148505Y0075528D01*
X0148714Y0076032D01*
X0148820Y0076567D01*
X0148820Y0076839D01*
X0146052Y0076839D01*
X0146052Y0074071D01*
X0146052Y0076839D01*
X0146052Y0076839D01*
X0146052Y0076839D01*
X0143283Y0076839D01*
X0146052Y0076839D01*
X0146052Y0076839D01*
X0148820Y0076839D01*
X0148820Y0077112D01*
X0148714Y0077647D01*
X0148505Y0078151D01*
X0148202Y0078604D01*
X0147817Y0078990D01*
X0147363Y0079293D01*
X0146860Y0079501D01*
X0146325Y0079608D01*
X0146052Y0079608D01*
X0146052Y0076839D01*
X0146052Y0076839D01*
X0146052Y0079608D01*
X0145779Y0079608D01*
X0145244Y0079501D01*
X0144741Y0079293D01*
X0144287Y0078990D01*
X0143902Y0078604D01*
X0143599Y0078151D01*
X0143390Y0077647D01*
X0143021Y0079142D02*
X0144515Y0079142D01*
X0146052Y0079142D02*
X0146052Y0079142D01*
X0147589Y0079142D02*
X0152982Y0079142D01*
X0152878Y0077543D02*
X0148735Y0077543D01*
X0148678Y0075945D02*
X0153055Y0075945D01*
X0153121Y0074346D02*
X0147268Y0074346D01*
X0146052Y0074346D02*
X0146052Y0074346D01*
X0144836Y0074346D02*
X0142384Y0074346D01*
X0142019Y0075945D02*
X0143426Y0075945D01*
X0146052Y0075945D02*
X0146052Y0075945D01*
X0146052Y0077543D02*
X0146052Y0077543D01*
X0144525Y0080740D02*
X0154754Y0080740D01*
X0156011Y0080740D02*
X0156335Y0080740D01*
X0157029Y0082339D02*
X0144610Y0082339D01*
X0144687Y0081682D02*
X0141918Y0081682D01*
X0141918Y0084450D01*
X0141918Y0081682D01*
X0141918Y0081682D01*
X0141918Y0081682D01*
X0144687Y0081682D01*
X0143526Y0083937D02*
X0153152Y0083937D01*
X0152654Y0085536D02*
X0135918Y0085536D01*
X0134320Y0087134D02*
X0153222Y0087134D01*
X0145612Y0088733D02*
X0166828Y0088733D01*
X0170000Y0088733D02*
X0173539Y0088733D01*
X0175022Y0088733D02*
X0175248Y0088733D01*
X0176700Y0090332D02*
X0176846Y0090332D01*
X0177892Y0091930D02*
X0178445Y0091930D01*
X0179476Y0093529D02*
X0180043Y0093529D01*
X0179502Y0095127D02*
X0181642Y0095127D01*
X0183126Y0096726D02*
X0178043Y0096726D01*
X0176029Y0096726D02*
X0163476Y0096726D01*
X0161463Y0096726D02*
X0152206Y0096726D01*
X0151314Y0098324D02*
X0183664Y0098324D01*
X0187732Y0098324D02*
X0195398Y0098324D01*
X0195142Y0098067D02*
X0195142Y0094430D01*
X0197714Y0091858D01*
X0201351Y0091858D01*
X0203923Y0094430D01*
X0203923Y0098067D01*
X0201351Y0100639D01*
X0197714Y0100639D01*
X0195142Y0098067D01*
X0195142Y0096726D02*
X0188269Y0096726D01*
X0187740Y0095127D02*
X0195142Y0095127D01*
X0196043Y0093529D02*
X0184966Y0093529D01*
X0183368Y0091930D02*
X0197642Y0091930D01*
X0197406Y0090332D02*
X0181769Y0090332D01*
X0180171Y0088733D02*
X0195807Y0088733D01*
X0201659Y0090332D02*
X0207406Y0090332D01*
X0207364Y0091930D02*
X0201423Y0091930D01*
X0203021Y0093529D02*
X0205765Y0093529D01*
X0204945Y0095127D02*
X0203923Y0095127D01*
X0203923Y0096726D02*
X0204945Y0096726D01*
X0205120Y0098324D02*
X0203666Y0098324D01*
X0202068Y0099923D02*
X0206719Y0099923D01*
X0209332Y0099923D02*
X0209732Y0099923D01*
X0209732Y0098324D02*
X0209332Y0098324D01*
X0209332Y0096726D02*
X0209732Y0096726D01*
X0209732Y0095127D02*
X0209332Y0095127D01*
X0209332Y0093529D02*
X0209732Y0093529D01*
X0209732Y0091930D02*
X0209332Y0091930D01*
X0211701Y0091930D02*
X0213047Y0091930D01*
X0213047Y0090332D02*
X0211659Y0090332D01*
X0205807Y0088733D02*
X0203257Y0088733D01*
X0203923Y0087134D02*
X0205142Y0087134D01*
X0205142Y0085536D02*
X0203923Y0085536D01*
X0203430Y0083937D02*
X0205634Y0083937D01*
X0207233Y0082339D02*
X0201832Y0082339D01*
X0201351Y0080639D02*
X0197714Y0080639D01*
X0195142Y0078067D01*
X0195142Y0074430D01*
X0197714Y0071858D01*
X0201351Y0071858D01*
X0203923Y0074430D01*
X0203923Y0078067D01*
X0201351Y0080639D01*
X0202848Y0079142D02*
X0206216Y0079142D01*
X0205142Y0077543D02*
X0203923Y0077543D01*
X0203923Y0075945D02*
X0205142Y0075945D01*
X0205226Y0074346D02*
X0203839Y0074346D01*
X0202241Y0072748D02*
X0206824Y0072748D01*
X0206625Y0069551D02*
X0202439Y0069551D01*
X0201351Y0070639D02*
X0203923Y0068067D01*
X0203923Y0064430D01*
X0201351Y0061858D01*
X0197714Y0061858D01*
X0195142Y0064430D01*
X0195142Y0068067D01*
X0197714Y0070639D01*
X0201351Y0070639D01*
X0203923Y0067952D02*
X0205142Y0067952D01*
X0205142Y0066354D02*
X0203923Y0066354D01*
X0203923Y0064755D02*
X0205142Y0064755D01*
X0206415Y0063157D02*
X0202649Y0063157D01*
X0201432Y0060836D02*
X0199732Y0060836D01*
X0199732Y0056449D01*
X0199332Y0056449D01*
X0199332Y0056049D01*
X0194945Y0056049D01*
X0194945Y0054349D01*
X0197632Y0051661D01*
X0199332Y0051661D01*
X0199332Y0056049D01*
X0199732Y0056049D01*
X0199732Y0051661D01*
X0201432Y0051661D01*
X0204120Y0054349D01*
X0204120Y0056049D01*
X0199732Y0056049D01*
X0199732Y0056449D01*
X0204120Y0056449D01*
X0204120Y0058149D01*
X0201432Y0060836D01*
X0202309Y0059960D02*
X0207034Y0059960D01*
X0205436Y0058361D02*
X0203907Y0058361D01*
X0204120Y0056763D02*
X0205142Y0056763D01*
X0205142Y0055164D02*
X0204120Y0055164D01*
X0203337Y0053566D02*
X0206006Y0053566D01*
X0207605Y0051967D02*
X0201738Y0051967D01*
X0199732Y0051967D02*
X0199332Y0051967D01*
X0199332Y0053566D02*
X0199732Y0053566D01*
X0199732Y0055164D02*
X0199332Y0055164D01*
X0199332Y0056449D02*
X0194945Y0056449D01*
X0194945Y0058149D01*
X0197632Y0060836D01*
X0199332Y0060836D01*
X0199332Y0056449D01*
X0199332Y0056763D02*
X0199732Y0056763D01*
X0199732Y0058361D02*
X0199332Y0058361D01*
X0199332Y0059960D02*
X0199732Y0059960D01*
X0196756Y0059960D02*
X0173833Y0059960D01*
X0174490Y0061558D02*
X0213047Y0061558D01*
X0213047Y0059960D02*
X0212030Y0059960D01*
X0212649Y0063157D02*
X0213047Y0063157D01*
X0213047Y0069551D02*
X0212439Y0069551D01*
X0213047Y0071149D02*
X0146252Y0071149D01*
X0146537Y0069551D02*
X0196625Y0069551D01*
X0195142Y0067952D02*
X0161962Y0067952D01*
X0162364Y0066354D02*
X0195142Y0066354D01*
X0195142Y0064755D02*
X0161699Y0064755D01*
X0152521Y0067952D02*
X0150096Y0067952D01*
X0154801Y0072748D02*
X0143982Y0072748D01*
X0139951Y0071149D02*
X0137806Y0071149D01*
X0137929Y0069551D02*
X0141394Y0069551D01*
X0142326Y0067952D02*
X0136925Y0067952D01*
X0133526Y0067952D02*
X0125870Y0067952D01*
X0124271Y0066354D02*
X0143378Y0066354D01*
X0143378Y0064755D02*
X0122673Y0064755D01*
X0121838Y0069551D02*
X0111369Y0069551D01*
X0112195Y0070577D02*
X0112557Y0070368D01*
X0112961Y0070260D01*
X0116726Y0070260D01*
X0116726Y0073828D01*
X0117488Y0073828D01*
X0117488Y0070260D01*
X0121253Y0070260D01*
X0121657Y0070368D01*
X0122019Y0070577D01*
X0122314Y0070873D01*
X0122523Y0071235D01*
X0122631Y0071638D01*
X0122631Y0073828D01*
X0117488Y0073828D01*
X0117488Y0074591D01*
X0116726Y0074591D01*
X0116726Y0078159D01*
X0112961Y0078159D01*
X0112557Y0078051D01*
X0112195Y0077842D01*
X0111900Y0077546D01*
X0111691Y0077184D01*
X0111583Y0076781D01*
X0111583Y0074591D01*
X0116726Y0074591D01*
X0116726Y0073828D01*
X0111583Y0073828D01*
X0111583Y0071638D01*
X0111691Y0071235D01*
X0111900Y0070873D01*
X0112195Y0070577D01*
X0111740Y0071149D02*
X0111369Y0071149D01*
X0111369Y0072748D02*
X0111583Y0072748D01*
X0111128Y0074346D02*
X0116726Y0074346D01*
X0117488Y0074346D02*
X0122803Y0074346D01*
X0122631Y0074591D02*
X0122631Y0076781D01*
X0122523Y0077184D01*
X0122314Y0077546D01*
X0122019Y0077842D01*
X0121657Y0078051D01*
X0121253Y0078159D01*
X0117488Y0078159D01*
X0117488Y0074591D01*
X0122631Y0074591D01*
X0122631Y0075945D02*
X0122803Y0075945D01*
X0123199Y0077543D02*
X0122316Y0077543D01*
X0117488Y0077543D02*
X0116726Y0077543D01*
X0116726Y0075945D02*
X0117488Y0075945D01*
X0117488Y0072748D02*
X0116726Y0072748D01*
X0116726Y0071149D02*
X0117488Y0071149D01*
X0122474Y0071149D02*
X0122925Y0071149D01*
X0122803Y0072748D02*
X0122631Y0072748D01*
X0127468Y0069551D02*
X0132521Y0069551D01*
X0136179Y0072748D02*
X0138352Y0072748D01*
X0132429Y0079142D02*
X0111369Y0079142D01*
X0111235Y0077543D02*
X0111898Y0077543D01*
X0111583Y0075945D02*
X0084239Y0075945D01*
X0084226Y0075970D02*
X0083833Y0076511D01*
X0083360Y0076984D01*
X0082820Y0077376D01*
X0082225Y0077680D01*
X0081589Y0077886D01*
X0080929Y0077991D01*
X0080681Y0077991D01*
X0080681Y0073832D01*
X0080509Y0073832D01*
X0080509Y0077991D01*
X0080261Y0077991D01*
X0079601Y0077886D01*
X0078966Y0077680D01*
X0078370Y0077376D01*
X0077830Y0076984D01*
X0077357Y0076511D01*
X0076965Y0075970D01*
X0076661Y0075375D01*
X0076455Y0074740D01*
X0076350Y0074080D01*
X0076350Y0073832D01*
X0080509Y0073832D01*
X0080509Y0073660D01*
X0076350Y0073660D01*
X0076350Y0073412D01*
X0076455Y0072752D01*
X0076661Y0072116D01*
X0076965Y0071521D01*
X0077357Y0070980D01*
X0077830Y0070508D01*
X0078370Y0070115D01*
X0078966Y0069812D01*
X0079601Y0069605D01*
X0080261Y0069501D01*
X0080509Y0069501D01*
X0080509Y0073660D01*
X0080681Y0073660D01*
X0080681Y0073832D01*
X0084840Y0073832D01*
X0084840Y0074080D01*
X0084735Y0074740D01*
X0084529Y0075375D01*
X0084226Y0075970D01*
X0084798Y0074346D02*
X0101743Y0074346D01*
X0101502Y0072748D02*
X0095812Y0072748D01*
X0096000Y0071149D02*
X0101502Y0071149D01*
X0101502Y0069551D02*
X0095194Y0069551D01*
X0095194Y0067952D02*
X0101502Y0067952D01*
X0101802Y0066354D02*
X0095194Y0066354D01*
X0095194Y0064755D02*
X0109245Y0064755D01*
X0119320Y0058361D02*
X0119320Y0058361D01*
X0119320Y0056763D02*
X0119320Y0056763D01*
X0127065Y0053566D02*
X0093981Y0053566D01*
X0092926Y0053566D02*
X0053875Y0053566D01*
X0053875Y0052099D02*
X0052615Y0049055D01*
X0050286Y0046726D01*
X0047242Y0045465D01*
X0043948Y0045465D01*
X0040905Y0046726D01*
X0038575Y0049055D01*
X0037315Y0052099D01*
X0037315Y0055393D01*
X0038575Y0058436D01*
X0040905Y0060765D01*
X0043948Y0062026D01*
X0047242Y0062026D01*
X0050286Y0060765D01*
X0052615Y0058436D01*
X0053875Y0055393D01*
X0053875Y0052099D01*
X0053821Y0051967D02*
X0129279Y0051967D01*
X0129792Y0051967D02*
X0129792Y0051967D01*
X0129792Y0051925D02*
X0130094Y0051925D01*
X0130686Y0052043D01*
X0131243Y0052274D01*
X0131745Y0052609D01*
X0132172Y0053036D01*
X0132507Y0053538D01*
X0132738Y0054095D01*
X0132856Y0054687D01*
X0132856Y0054989D01*
X0132856Y0055291D01*
X0132738Y0055883D01*
X0132507Y0056440D01*
X0132172Y0056942D01*
X0131745Y0057369D01*
X0131243Y0057704D01*
X0130686Y0057935D01*
X0130094Y0058053D01*
X0129792Y0058053D01*
X0129792Y0054989D01*
X0129792Y0054989D01*
X0129792Y0054989D01*
X0129792Y0051925D01*
X0130305Y0051967D02*
X0145806Y0051967D01*
X0147076Y0051967D02*
X0147076Y0051967D01*
X0147076Y0051669D02*
X0147076Y0054438D01*
X0149844Y0054438D01*
X0147076Y0054438D01*
X0147076Y0054438D01*
X0147076Y0054438D01*
X0147076Y0051669D01*
X0148346Y0051967D02*
X0152903Y0051967D01*
X0152816Y0053566D02*
X0149711Y0053566D01*
X0149754Y0055164D02*
X0152679Y0055164D01*
X0152236Y0056763D02*
X0150293Y0056763D01*
X0147076Y0053566D02*
X0147076Y0053566D01*
X0144440Y0053566D02*
X0132519Y0053566D01*
X0132856Y0054989D02*
X0129792Y0054989D01*
X0132856Y0054989D01*
X0132856Y0055164D02*
X0143722Y0055164D01*
X0143181Y0056763D02*
X0132292Y0056763D01*
X0129792Y0056763D02*
X0129792Y0056763D01*
X0129792Y0055164D02*
X0129792Y0055164D01*
X0129792Y0054989D02*
X0129792Y0054989D01*
X0129792Y0053566D02*
X0129792Y0053566D01*
X0123802Y0042271D02*
X0123245Y0042502D01*
X0122653Y0042620D01*
X0122351Y0042620D01*
X0122351Y0039556D01*
X0122351Y0039556D01*
X0125415Y0039556D01*
X0125415Y0039858D01*
X0125297Y0040450D01*
X0125066Y0041007D01*
X0124731Y0041509D01*
X0124304Y0041936D01*
X0123802Y0042271D01*
X0123548Y0042376D02*
X0213047Y0042376D01*
X0213047Y0040778D02*
X0205464Y0040778D01*
X0208648Y0039179D02*
X0213047Y0039179D01*
X0213047Y0037581D02*
X0210553Y0037581D01*
X0211621Y0035982D02*
X0213047Y0035982D01*
X0213047Y0034384D02*
X0212544Y0034384D01*
X0213047Y0043975D02*
X0096228Y0043975D01*
X0096517Y0042376D02*
X0121154Y0042376D01*
X0122351Y0042376D02*
X0122351Y0042376D01*
X0122351Y0040778D02*
X0122351Y0040778D01*
X0122351Y0039556D02*
X0122351Y0039556D01*
X0122351Y0036492D01*
X0122653Y0036492D01*
X0123245Y0036610D01*
X0123802Y0036841D01*
X0124304Y0037176D01*
X0124731Y0037603D01*
X0125066Y0038105D01*
X0125297Y0038662D01*
X0125415Y0039254D01*
X0125415Y0039556D01*
X0122351Y0039556D01*
X0122351Y0039179D02*
X0122351Y0039179D01*
X0122351Y0037581D02*
X0122351Y0037581D01*
X0124709Y0037581D02*
X0140951Y0037581D01*
X0140862Y0037796D02*
X0141093Y0037239D01*
X0141428Y0036737D01*
X0141855Y0036310D01*
X0142357Y0035975D01*
X0142914Y0035744D01*
X0143506Y0035626D01*
X0143808Y0035626D01*
X0144110Y0035626D01*
X0144702Y0035744D01*
X0145259Y0035975D01*
X0145761Y0036310D01*
X0146188Y0036737D01*
X0146523Y0037239D01*
X0146754Y0037796D01*
X0146872Y0038388D01*
X0146872Y0038690D01*
X0146872Y0038992D01*
X0146754Y0039583D01*
X0146523Y0040141D01*
X0146188Y0040643D01*
X0145761Y0041070D01*
X0145259Y0041405D01*
X0144702Y0041636D01*
X0144110Y0041754D01*
X0143808Y0041754D01*
X0143808Y0038690D01*
X0143808Y0038690D01*
X0146872Y0038690D01*
X0143808Y0038690D01*
X0143808Y0038690D01*
X0143808Y0041754D01*
X0143506Y0041754D01*
X0142914Y0041636D01*
X0142357Y0041405D01*
X0141855Y0041070D01*
X0141428Y0040643D01*
X0141093Y0040141D01*
X0140862Y0039583D01*
X0140744Y0038992D01*
X0140744Y0038690D01*
X0143808Y0038690D01*
X0143808Y0038690D01*
X0143808Y0035626D01*
X0143808Y0038690D01*
X0143808Y0038690D01*
X0140744Y0038690D01*
X0140744Y0038388D01*
X0140862Y0037796D01*
X0140781Y0039179D02*
X0125400Y0039179D01*
X0125161Y0040778D02*
X0141563Y0040778D01*
X0143808Y0040778D02*
X0143808Y0040778D01*
X0143808Y0039179D02*
X0143808Y0039179D01*
X0143808Y0037581D02*
X0143808Y0037581D01*
X0143808Y0035982D02*
X0143808Y0035982D01*
X0145270Y0035982D02*
X0192137Y0035982D01*
X0193204Y0037581D02*
X0146665Y0037581D01*
X0146834Y0039179D02*
X0195109Y0039179D01*
X0198294Y0040778D02*
X0146053Y0040778D01*
X0142345Y0035982D02*
X0040958Y0035982D01*
X0040125Y0037424D02*
X0040125Y0037424D01*
X0034971Y0040778D02*
X0053419Y0040778D01*
X0052171Y0042376D02*
X0019765Y0042376D01*
X0019765Y0040778D02*
X0027369Y0040778D01*
X0024307Y0039179D02*
X0019765Y0039179D01*
X0019765Y0037581D02*
X0022402Y0037581D01*
X0021383Y0035982D02*
X0019765Y0035982D01*
X0019765Y0034384D02*
X0020460Y0034384D01*
X0019987Y0032785D02*
X0019765Y0032785D01*
X0019765Y0043975D02*
X0051509Y0043975D01*
X0051488Y0045573D02*
X0047502Y0045573D01*
X0050731Y0047172D02*
X0051784Y0047172D01*
X0052330Y0048770D02*
X0052484Y0048770D01*
X0053159Y0050369D02*
X0054082Y0050369D01*
X0053875Y0055164D02*
X0068663Y0055164D01*
X0068302Y0055314D02*
X0069790Y0054698D01*
X0071400Y0054698D01*
X0072888Y0055314D01*
X0074027Y0056453D01*
X0074643Y0057940D01*
X0074643Y0059551D01*
X0074027Y0061039D01*
X0072888Y0062177D01*
X0071400Y0062794D01*
X0069790Y0062794D01*
X0068302Y0062177D01*
X0067163Y0061039D01*
X0066547Y0059551D01*
X0066547Y0057940D01*
X0067163Y0056453D01*
X0068302Y0055314D01*
X0067035Y0056763D02*
X0053308Y0056763D01*
X0052646Y0058361D02*
X0066547Y0058361D01*
X0066716Y0059960D02*
X0051091Y0059960D01*
X0048371Y0061558D02*
X0067683Y0061558D01*
X0069651Y0064755D02*
X0034607Y0064755D01*
X0034589Y0064774D02*
X0033101Y0065390D01*
X0031490Y0065390D01*
X0030003Y0064774D01*
X0028864Y0063635D01*
X0028248Y0062147D01*
X0028248Y0060537D01*
X0028864Y0059049D01*
X0030003Y0057910D01*
X0031490Y0057294D01*
X0033101Y0057294D01*
X0034589Y0057910D01*
X0035727Y0059049D01*
X0036344Y0060537D01*
X0036344Y0062147D01*
X0035727Y0063635D01*
X0034589Y0064774D01*
X0035925Y0063157D02*
X0076547Y0063157D01*
X0076547Y0062940D02*
X0076547Y0064551D01*
X0077163Y0066039D01*
X0078302Y0067177D01*
X0079790Y0067794D01*
X0081400Y0067794D01*
X0082888Y0067177D01*
X0084027Y0066039D01*
X0084643Y0064551D01*
X0084643Y0062940D01*
X0084027Y0061453D01*
X0082888Y0060314D01*
X0081400Y0059698D01*
X0079790Y0059698D01*
X0078302Y0060314D01*
X0077163Y0061453D01*
X0076547Y0062940D01*
X0077120Y0061558D02*
X0073507Y0061558D01*
X0074474Y0059960D02*
X0079157Y0059960D01*
X0082033Y0059960D02*
X0091713Y0059960D01*
X0091713Y0061558D02*
X0084071Y0061558D01*
X0084643Y0063157D02*
X0091713Y0063157D01*
X0091713Y0064755D02*
X0084558Y0064755D01*
X0083712Y0066354D02*
X0091713Y0066354D01*
X0091713Y0067952D02*
X0074643Y0067952D01*
X0074643Y0067940D02*
X0074027Y0066453D01*
X0072888Y0065314D01*
X0071400Y0064698D01*
X0069790Y0064698D01*
X0068302Y0065314D01*
X0067163Y0066453D01*
X0066547Y0067940D01*
X0066547Y0069551D01*
X0067163Y0071039D01*
X0068302Y0072177D01*
X0069790Y0072794D01*
X0071400Y0072794D01*
X0072888Y0072177D01*
X0074027Y0071039D01*
X0074643Y0069551D01*
X0074643Y0067940D01*
X0074643Y0069551D02*
X0079945Y0069551D01*
X0080509Y0069551D02*
X0080681Y0069551D01*
X0080681Y0069501D02*
X0080929Y0069501D01*
X0081589Y0069605D01*
X0082225Y0069812D01*
X0082820Y0070115D01*
X0083360Y0070508D01*
X0083833Y0070980D01*
X0084226Y0071521D01*
X0084529Y0072116D01*
X0084735Y0072752D01*
X0084840Y0073412D01*
X0084840Y0073660D01*
X0080681Y0073660D01*
X0080681Y0069501D01*
X0081245Y0069551D02*
X0091713Y0069551D01*
X0090907Y0071149D02*
X0083956Y0071149D01*
X0084734Y0072748D02*
X0091095Y0072748D01*
X0082492Y0077543D02*
X0101636Y0077543D01*
X0101502Y0079142D02*
X0096153Y0079142D01*
X0096145Y0079123D02*
X0096537Y0080068D01*
X0096537Y0081091D01*
X0096145Y0082036D01*
X0095706Y0082476D01*
X0095706Y0091754D01*
X0096145Y0092194D01*
X0096537Y0093139D01*
X0096537Y0094162D01*
X0096145Y0095107D01*
X0095422Y0095831D01*
X0094477Y0096222D01*
X0093454Y0096222D01*
X0092509Y0095831D01*
X0091785Y0095107D01*
X0091394Y0094162D01*
X0091394Y0093139D01*
X0091785Y0092194D01*
X0092225Y0091754D01*
X0092225Y0082476D01*
X0091785Y0082036D01*
X0091394Y0081091D01*
X0091394Y0080068D01*
X0091785Y0079123D01*
X0092509Y0078399D01*
X0093454Y0078008D01*
X0094477Y0078008D01*
X0095422Y0078399D01*
X0096145Y0079123D01*
X0096537Y0080740D02*
X0101502Y0080740D01*
X0101502Y0082339D02*
X0095843Y0082339D01*
X0095706Y0083937D02*
X0101502Y0083937D01*
X0101909Y0085536D02*
X0095706Y0085536D01*
X0095706Y0087134D02*
X0124470Y0087134D01*
X0125241Y0085536D02*
X0110962Y0085536D01*
X0111369Y0083937D02*
X0123642Y0083937D01*
X0126075Y0080740D02*
X0133206Y0080740D01*
X0133485Y0082339D02*
X0127674Y0082339D01*
X0130094Y0083937D02*
X0131887Y0083937D01*
X0128611Y0086091D02*
X0121355Y0093347D01*
X0121355Y0103501D01*
X0114292Y0103501D01*
X0108627Y0109166D01*
X0100276Y0109166D01*
X0100209Y0109099D01*
X0090934Y0118375D01*
X0079792Y0118375D01*
X0078693Y0120703D02*
X0069985Y0120703D01*
X0069934Y0120755D02*
X0070361Y0120328D01*
X0070696Y0119826D01*
X0070927Y0119268D01*
X0071045Y0118677D01*
X0071045Y0118375D01*
X0067981Y0118375D01*
X0067981Y0121439D01*
X0067679Y0121439D01*
X0067087Y0121321D01*
X0066530Y0121090D01*
X0066028Y0120755D01*
X0065601Y0120328D01*
X0065266Y0119826D01*
X0065035Y0119268D01*
X0064917Y0118677D01*
X0064917Y0118375D01*
X0067981Y0118375D01*
X0067981Y0118375D01*
X0067981Y0118375D01*
X0067981Y0121439D01*
X0068283Y0121439D01*
X0068875Y0121321D01*
X0069432Y0121090D01*
X0069934Y0120755D01*
X0070960Y0119105D02*
X0077311Y0119105D01*
X0077368Y0117506D02*
X0070932Y0117506D01*
X0070927Y0117481D02*
X0071045Y0118073D01*
X0071045Y0118375D01*
X0067981Y0118375D01*
X0067981Y0118375D01*
X0064917Y0118375D01*
X0064917Y0118073D01*
X0065035Y0117481D01*
X0065266Y0116924D01*
X0065601Y0116422D01*
X0066028Y0115995D01*
X0066530Y0115660D01*
X0067087Y0115429D01*
X0067679Y0115311D01*
X0067981Y0115311D01*
X0067981Y0118375D01*
X0067981Y0118375D01*
X0067981Y0115311D01*
X0068283Y0115311D01*
X0068875Y0115429D01*
X0069432Y0115660D01*
X0069934Y0115995D01*
X0070361Y0116422D01*
X0070696Y0116924D01*
X0070927Y0117481D01*
X0069803Y0115908D02*
X0079028Y0115908D01*
X0080556Y0115908D02*
X0090303Y0115908D01*
X0091902Y0114309D02*
X0039948Y0114309D01*
X0040881Y0115908D02*
X0066159Y0115908D01*
X0067981Y0115908D02*
X0067981Y0115908D01*
X0067981Y0117506D02*
X0067981Y0117506D01*
X0067981Y0119105D02*
X0067981Y0119105D01*
X0067981Y0120703D02*
X0067981Y0120703D01*
X0065977Y0120703D02*
X0059317Y0120703D01*
X0059317Y0119105D02*
X0065002Y0119105D01*
X0065030Y0117506D02*
X0058792Y0117506D01*
X0055780Y0117506D02*
X0055080Y0117506D01*
X0055080Y0119105D02*
X0055780Y0119105D01*
X0055780Y0120703D02*
X0055080Y0120703D01*
X0055080Y0122302D02*
X0055780Y0122302D01*
X0055780Y0123900D02*
X0055080Y0123900D01*
X0055080Y0125499D02*
X0055780Y0125499D01*
X0059237Y0125499D02*
X0086425Y0125499D01*
X0086425Y0127097D02*
X0041270Y0127097D01*
X0042057Y0125499D02*
X0045739Y0125499D01*
X0045739Y0123900D02*
X0042339Y0123900D01*
X0042220Y0119105D02*
X0045739Y0119105D01*
X0046347Y0117506D02*
X0041804Y0117506D01*
X0038043Y0112711D02*
X0054808Y0112711D01*
X0054139Y0112434D02*
X0052419Y0110713D01*
X0051488Y0108466D01*
X0051488Y0106033D01*
X0052419Y0103786D01*
X0054139Y0102066D01*
X0056387Y0101135D01*
X0058819Y0101135D01*
X0061067Y0102066D01*
X0062787Y0103786D01*
X0063718Y0106033D01*
X0063718Y0108466D01*
X0062787Y0110713D01*
X0061067Y0112434D01*
X0058819Y0113365D01*
X0056387Y0113365D01*
X0054139Y0112434D01*
X0052818Y0111112D02*
X0035199Y0111112D01*
X0042235Y0106317D02*
X0019765Y0106317D01*
X0019765Y0107915D02*
X0051488Y0107915D01*
X0051488Y0106317D02*
X0048955Y0106317D01*
X0051333Y0104718D02*
X0052033Y0104718D01*
X0052746Y0103120D02*
X0053085Y0103120D01*
X0053408Y0101521D02*
X0055454Y0101521D01*
X0053875Y0099923D02*
X0061241Y0099923D01*
X0059752Y0101521D02*
X0062839Y0101521D01*
X0062121Y0103120D02*
X0064438Y0103120D01*
X0063173Y0104718D02*
X0066036Y0104718D01*
X0063718Y0106317D02*
X0091087Y0106317D01*
X0090862Y0107469D02*
X0093926Y0107469D01*
X0093926Y0107469D01*
X0093926Y0110533D01*
X0093624Y0110533D01*
X0093032Y0110415D01*
X0092475Y0110184D01*
X0091973Y0109849D01*
X0091546Y0109422D01*
X0091211Y0108921D01*
X0090980Y0108363D01*
X0090862Y0107771D01*
X0090862Y0107469D01*
X0090891Y0107915D02*
X0063718Y0107915D01*
X0063284Y0109514D02*
X0091638Y0109514D01*
X0093926Y0109514D02*
X0093926Y0109514D01*
X0093926Y0107915D02*
X0093926Y0107915D01*
X0093926Y0107469D02*
X0093926Y0107469D01*
X0096214Y0109514D02*
X0096697Y0109514D01*
X0095099Y0111112D02*
X0062388Y0111112D01*
X0060398Y0112711D02*
X0093500Y0112711D01*
X0096499Y0115908D02*
X0100025Y0115908D01*
X0100025Y0115976D02*
X0096654Y0115976D01*
X0096654Y0118166D01*
X0096762Y0118570D01*
X0096971Y0118932D01*
X0097266Y0119228D01*
X0097628Y0119437D01*
X0098032Y0119545D01*
X0100025Y0119545D01*
X0100025Y0115976D01*
X0100394Y0115908D02*
X0108442Y0115908D01*
X0108442Y0116043D02*
X0105071Y0116043D01*
X0105071Y0118233D01*
X0105179Y0118637D01*
X0105388Y0118999D01*
X0105684Y0119295D01*
X0106046Y0119504D01*
X0106449Y0119612D01*
X0108442Y0119612D01*
X0108442Y0116043D01*
X0108811Y0115908D02*
X0117406Y0115908D01*
X0117406Y0114906D02*
X0117406Y0118670D01*
X0117514Y0119074D01*
X0117723Y0119436D01*
X0118018Y0119732D01*
X0118380Y0119941D01*
X0118784Y0120049D01*
X0120974Y0120049D01*
X0120974Y0114906D01*
X0121736Y0114906D01*
X0121736Y0120049D01*
X0123926Y0120049D01*
X0124330Y0119941D01*
X0124692Y0119732D01*
X0124988Y0119436D01*
X0125197Y0119074D01*
X0125305Y0118670D01*
X0125305Y0114906D01*
X0121736Y0114906D01*
X0121736Y0114143D01*
X0121736Y0109000D01*
X0123926Y0109000D01*
X0124330Y0109108D01*
X0124692Y0109317D01*
X0124988Y0109613D01*
X0125197Y0109975D01*
X0125305Y0110378D01*
X0125305Y0114143D01*
X0121736Y0114143D01*
X0120974Y0114143D01*
X0120974Y0109000D01*
X0118784Y0109000D01*
X0118380Y0109108D01*
X0118018Y0109317D01*
X0117723Y0109613D01*
X0117514Y0109975D01*
X0117406Y0110378D01*
X0117406Y0114143D01*
X0120974Y0114143D01*
X0120974Y0114906D01*
X0117406Y0114906D01*
X0117406Y0112711D02*
X0111857Y0112711D01*
X0111986Y0111112D02*
X0117406Y0111112D01*
X0117822Y0109514D02*
X0111986Y0109514D01*
X0112976Y0107915D02*
X0117602Y0107915D01*
X0117602Y0106317D02*
X0114574Y0106317D01*
X0120974Y0109514D02*
X0121736Y0109514D01*
X0121736Y0111112D02*
X0120974Y0111112D01*
X0120974Y0112711D02*
X0121736Y0112711D01*
X0121736Y0114309D02*
X0125683Y0114309D01*
X0125847Y0115908D02*
X0125305Y0115908D01*
X0125305Y0117506D02*
X0131551Y0117506D01*
X0132397Y0119105D02*
X0125179Y0119105D01*
X0123724Y0120703D02*
X0128787Y0120703D01*
X0128362Y0122302D02*
X0125973Y0122302D01*
X0126756Y0123900D02*
X0129004Y0123900D01*
X0126888Y0125499D02*
X0131777Y0125499D01*
X0133505Y0122302D02*
X0149767Y0122302D01*
X0153124Y0122302D02*
X0167461Y0122302D01*
X0167461Y0123900D02*
X0153720Y0123900D01*
X0154057Y0125499D02*
X0167057Y0125499D01*
X0165459Y0127097D02*
X0153250Y0127097D01*
X0149720Y0127097D02*
X0126426Y0127097D01*
X0125123Y0128696D02*
X0163860Y0128696D01*
X0169707Y0133126D02*
X0199150Y0133126D01*
X0195955Y0131963D01*
X0192845Y0129353D01*
X0190815Y0125837D01*
X0190431Y0123659D01*
X0190341Y0123659D01*
X0190341Y0125644D01*
X0189526Y0126459D01*
X0183774Y0126459D01*
X0183753Y0126438D01*
X0183563Y0126547D01*
X0183159Y0126655D01*
X0181000Y0126655D01*
X0181000Y0122268D01*
X0180300Y0122268D01*
X0180300Y0126655D01*
X0178141Y0126655D01*
X0177738Y0126547D01*
X0177432Y0126371D01*
X0177287Y0126721D01*
X0176564Y0127445D01*
X0175619Y0127836D01*
X0174997Y0127836D01*
X0169707Y0133126D01*
X0170940Y0131893D02*
X0195871Y0131893D01*
X0195955Y0131963D02*
X0195955Y0131963D01*
X0193966Y0130294D02*
X0172539Y0130294D01*
X0174137Y0128696D02*
X0192465Y0128696D01*
X0192845Y0129353D02*
X0192845Y0129353D01*
X0191543Y0127097D02*
X0176911Y0127097D01*
X0180300Y0125499D02*
X0181000Y0125499D01*
X0181000Y0123900D02*
X0180300Y0123900D01*
X0180300Y0122302D02*
X0181000Y0122302D01*
X0181000Y0120703D02*
X0180300Y0120703D01*
X0180300Y0119105D02*
X0181000Y0119105D01*
X0181000Y0117506D02*
X0180300Y0117506D01*
X0177367Y0117506D02*
X0174052Y0117506D01*
X0174052Y0119105D02*
X0176763Y0119105D01*
X0176763Y0120703D02*
X0174052Y0120703D01*
X0174052Y0122302D02*
X0176763Y0122302D01*
X0170571Y0117506D02*
X0136897Y0117506D01*
X0139918Y0115908D02*
X0169778Y0115908D01*
X0169940Y0114309D02*
X0140083Y0114309D01*
X0138974Y0112711D02*
X0194769Y0112711D01*
X0192864Y0114309D02*
X0174683Y0114309D01*
X0174845Y0115908D02*
X0191932Y0115908D01*
X0191009Y0117506D02*
X0189655Y0117506D01*
X0190341Y0119105D02*
X0190592Y0119105D01*
X0190474Y0123900D02*
X0190341Y0123900D01*
X0190341Y0125499D02*
X0190755Y0125499D01*
X0190815Y0125837D02*
X0190815Y0125837D01*
X0208831Y0112711D02*
X0213047Y0112711D01*
X0213047Y0114309D02*
X0210736Y0114309D01*
X0211668Y0115908D02*
X0213047Y0115908D01*
X0213047Y0117506D02*
X0212591Y0117506D01*
X0213008Y0119105D02*
X0213047Y0119105D01*
X0213047Y0111112D02*
X0205987Y0111112D01*
X0213047Y0109514D02*
X0138974Y0109514D01*
X0138974Y0111112D02*
X0197613Y0111112D01*
X0213047Y0107915D02*
X0138974Y0107915D01*
X0138974Y0106317D02*
X0142515Y0106317D01*
X0143841Y0106317D02*
X0213047Y0106317D01*
X0213047Y0104718D02*
X0145584Y0104718D01*
X0146328Y0103120D02*
X0213047Y0103120D01*
X0213047Y0101521D02*
X0147926Y0101521D01*
X0149283Y0099923D02*
X0196997Y0099923D01*
X0212346Y0099923D02*
X0213047Y0099923D01*
X0195634Y0083937D02*
X0179700Y0083937D01*
X0175947Y0083937D02*
X0175375Y0083937D01*
X0173777Y0082339D02*
X0197233Y0082339D01*
X0196216Y0079142D02*
X0190460Y0079142D01*
X0190564Y0077543D02*
X0195142Y0077543D01*
X0195142Y0075945D02*
X0189294Y0075945D01*
X0186826Y0075945D02*
X0162507Y0075945D01*
X0162376Y0074346D02*
X0195226Y0074346D01*
X0196824Y0072748D02*
X0160538Y0072748D01*
X0159440Y0072748D02*
X0156279Y0072748D01*
X0160784Y0082339D02*
X0165744Y0082339D01*
X0172178Y0080740D02*
X0187431Y0080740D01*
X0188688Y0080740D02*
X0213047Y0080740D01*
X0213047Y0079142D02*
X0212848Y0079142D01*
X0213047Y0082339D02*
X0211832Y0082339D01*
X0212241Y0072748D02*
X0213047Y0072748D01*
X0196415Y0063157D02*
X0174080Y0063157D01*
X0159348Y0056763D02*
X0194945Y0056763D01*
X0194945Y0055164D02*
X0158905Y0055164D01*
X0158815Y0053566D02*
X0195728Y0053566D01*
X0197326Y0051967D02*
X0158728Y0051967D01*
X0157480Y0050369D02*
X0213047Y0050369D01*
X0213047Y0051967D02*
X0211460Y0051967D01*
X0213047Y0045573D02*
X0094441Y0045573D01*
X0093454Y0045573D02*
X0093453Y0045573D01*
X0093453Y0043975D02*
X0093454Y0043975D01*
X0093453Y0042376D02*
X0093454Y0042376D01*
X0093453Y0040778D02*
X0093454Y0040778D01*
X0095876Y0040778D02*
X0119541Y0040778D01*
X0091070Y0055164D02*
X0072527Y0055164D01*
X0074155Y0056763D02*
X0090932Y0056763D01*
X0091713Y0058361D02*
X0074643Y0058361D01*
X0076632Y0064755D02*
X0071540Y0064755D01*
X0073928Y0066354D02*
X0077478Y0066354D01*
X0077234Y0071149D02*
X0073916Y0071149D01*
X0071511Y0072748D02*
X0076456Y0072748D01*
X0076392Y0074346D02*
X0028050Y0074346D01*
X0028050Y0072748D02*
X0069679Y0072748D01*
X0070261Y0074501D02*
X0069601Y0074605D01*
X0068966Y0074812D01*
X0068370Y0075115D01*
X0067830Y0075508D01*
X0067357Y0075980D01*
X0066965Y0076521D01*
X0066661Y0077116D01*
X0066455Y0077752D01*
X0066350Y0078412D01*
X0066350Y0078660D01*
X0070509Y0078660D01*
X0070509Y0078832D01*
X0070509Y0082991D01*
X0070261Y0082991D01*
X0069601Y0082886D01*
X0068966Y0082680D01*
X0068370Y0082376D01*
X0067830Y0081984D01*
X0067357Y0081511D01*
X0066965Y0080970D01*
X0066661Y0080375D01*
X0066455Y0079740D01*
X0066350Y0079080D01*
X0066350Y0078832D01*
X0070509Y0078832D01*
X0070681Y0078832D01*
X0070681Y0082991D01*
X0070929Y0082991D01*
X0071589Y0082886D01*
X0072225Y0082680D01*
X0072820Y0082376D01*
X0073360Y0081984D01*
X0073833Y0081511D01*
X0074226Y0080970D01*
X0074529Y0080375D01*
X0074735Y0079740D01*
X0074840Y0079080D01*
X0074840Y0078832D01*
X0070681Y0078832D01*
X0070681Y0078660D01*
X0074840Y0078660D01*
X0074840Y0078412D01*
X0074735Y0077752D01*
X0074529Y0077116D01*
X0074226Y0076521D01*
X0073833Y0075980D01*
X0073360Y0075508D01*
X0072820Y0075115D01*
X0072225Y0074812D01*
X0071589Y0074605D01*
X0070929Y0074501D01*
X0070681Y0074501D01*
X0070681Y0078660D01*
X0070509Y0078660D01*
X0070509Y0074501D01*
X0070261Y0074501D01*
X0070509Y0075945D02*
X0070681Y0075945D01*
X0070681Y0077543D02*
X0070509Y0077543D01*
X0070509Y0079142D02*
X0070681Y0079142D01*
X0070681Y0080740D02*
X0070509Y0080740D01*
X0070509Y0082339D02*
X0070681Y0082339D01*
X0072871Y0082339D02*
X0076589Y0082339D01*
X0076661Y0082116D02*
X0076965Y0081521D01*
X0077357Y0080980D01*
X0077830Y0080508D01*
X0078370Y0080115D01*
X0078966Y0079812D01*
X0079601Y0079605D01*
X0080261Y0079501D01*
X0080509Y0079501D01*
X0080509Y0083660D01*
X0076350Y0083660D01*
X0076350Y0083412D01*
X0076455Y0082752D01*
X0076661Y0082116D01*
X0077597Y0080740D02*
X0074343Y0080740D01*
X0074830Y0079142D02*
X0091777Y0079142D01*
X0091394Y0080740D02*
X0083593Y0080740D01*
X0083360Y0080508D02*
X0083833Y0080980D01*
X0084226Y0081521D01*
X0084529Y0082116D01*
X0084735Y0082752D01*
X0084840Y0083412D01*
X0084840Y0083660D01*
X0080681Y0083660D01*
X0080681Y0083832D01*
X0080509Y0083832D01*
X0080509Y0087991D01*
X0080261Y0087991D01*
X0079601Y0087886D01*
X0078966Y0087680D01*
X0078370Y0087376D01*
X0077830Y0086984D01*
X0077357Y0086511D01*
X0076965Y0085970D01*
X0076661Y0085375D01*
X0076455Y0084740D01*
X0076350Y0084080D01*
X0076350Y0083832D01*
X0080509Y0083832D01*
X0080509Y0083660D01*
X0080681Y0083660D01*
X0080681Y0079501D01*
X0080929Y0079501D01*
X0081589Y0079605D01*
X0082225Y0079812D01*
X0082820Y0080115D01*
X0083360Y0080508D01*
X0084601Y0082339D02*
X0092088Y0082339D01*
X0092225Y0083937D02*
X0084840Y0083937D01*
X0084840Y0083832D02*
X0084840Y0084080D01*
X0084735Y0084740D01*
X0084529Y0085375D01*
X0084226Y0085970D01*
X0083833Y0086511D01*
X0083360Y0086984D01*
X0082820Y0087376D01*
X0082225Y0087680D01*
X0081589Y0087886D01*
X0080929Y0087991D01*
X0080681Y0087991D01*
X0080681Y0083832D01*
X0084840Y0083832D01*
X0084447Y0085536D02*
X0092225Y0085536D01*
X0092225Y0087134D02*
X0083153Y0087134D01*
X0080681Y0087134D02*
X0080509Y0087134D01*
X0080509Y0085536D02*
X0080681Y0085536D01*
X0080681Y0083937D02*
X0080509Y0083937D01*
X0080509Y0082339D02*
X0080681Y0082339D01*
X0080681Y0080740D02*
X0080509Y0080740D01*
X0080509Y0077543D02*
X0080681Y0077543D01*
X0080681Y0075945D02*
X0080509Y0075945D01*
X0080509Y0074346D02*
X0080681Y0074346D01*
X0080681Y0072748D02*
X0080509Y0072748D01*
X0080509Y0071149D02*
X0080681Y0071149D01*
X0076952Y0075945D02*
X0073797Y0075945D01*
X0074668Y0077543D02*
X0078698Y0077543D01*
X0076350Y0083937D02*
X0028919Y0083937D01*
X0028050Y0082339D02*
X0068319Y0082339D01*
X0066847Y0080740D02*
X0028050Y0080740D01*
X0028050Y0079142D02*
X0066360Y0079142D01*
X0066522Y0077543D02*
X0028050Y0077543D01*
X0028050Y0075945D02*
X0067393Y0075945D01*
X0067274Y0071149D02*
X0028050Y0071149D01*
X0028050Y0069551D02*
X0066547Y0069551D01*
X0066547Y0067952D02*
X0028050Y0067952D01*
X0028050Y0066354D02*
X0067262Y0066354D01*
X0042819Y0061558D02*
X0036344Y0061558D01*
X0036105Y0059960D02*
X0040099Y0059960D01*
X0038544Y0058361D02*
X0035040Y0058361D01*
X0037882Y0056763D02*
X0028050Y0056763D01*
X0028050Y0058361D02*
X0029551Y0058361D01*
X0028486Y0059960D02*
X0028050Y0059960D01*
X0028050Y0061558D02*
X0028248Y0061558D01*
X0028050Y0063157D02*
X0028666Y0063157D01*
X0028050Y0064755D02*
X0029984Y0064755D01*
X0024569Y0064755D02*
X0019765Y0064755D01*
X0019765Y0063157D02*
X0024569Y0063157D01*
X0024569Y0061558D02*
X0019765Y0061558D01*
X0019765Y0059960D02*
X0024569Y0059960D01*
X0024569Y0058361D02*
X0019765Y0058361D01*
X0019765Y0056763D02*
X0024569Y0056763D01*
X0024569Y0055164D02*
X0019765Y0055164D01*
X0019765Y0053566D02*
X0022846Y0053566D01*
X0022261Y0051967D02*
X0019765Y0051967D01*
X0019765Y0050369D02*
X0022334Y0050369D01*
X0023163Y0048770D02*
X0019765Y0048770D01*
X0019765Y0047172D02*
X0040459Y0047172D01*
X0038860Y0048770D02*
X0029455Y0048770D01*
X0030285Y0050369D02*
X0038031Y0050369D01*
X0037369Y0051967D02*
X0030357Y0051967D01*
X0029773Y0053566D02*
X0037315Y0053566D01*
X0037315Y0055164D02*
X0028050Y0055164D01*
X0019765Y0045573D02*
X0043688Y0045573D01*
X0054096Y0027990D02*
X0054796Y0027990D01*
X0054796Y0026391D02*
X0054096Y0026391D01*
X0058322Y0026391D02*
X0167575Y0026391D01*
X0169391Y0027990D02*
X0058333Y0027990D01*
X0024569Y0066354D02*
X0019765Y0066354D01*
X0019765Y0067952D02*
X0024569Y0067952D01*
X0024569Y0069551D02*
X0019765Y0069551D01*
X0019765Y0071149D02*
X0024569Y0071149D01*
X0024569Y0072748D02*
X0019765Y0072748D01*
X0019765Y0074346D02*
X0024569Y0074346D01*
X0024569Y0075945D02*
X0019765Y0075945D01*
X0019765Y0077543D02*
X0024569Y0077543D01*
X0024569Y0079142D02*
X0019765Y0079142D01*
X0019765Y0080740D02*
X0024569Y0080740D01*
X0024569Y0082339D02*
X0019765Y0082339D01*
X0019765Y0083937D02*
X0024569Y0083937D01*
X0025594Y0085536D02*
X0019765Y0085536D01*
X0019765Y0087134D02*
X0025415Y0087134D01*
X0022998Y0088733D02*
X0019765Y0088733D01*
X0019765Y0090332D02*
X0022267Y0090332D01*
X0022263Y0091930D02*
X0019765Y0091930D01*
X0019765Y0093529D02*
X0022970Y0093529D01*
X0025347Y0095127D02*
X0019765Y0095127D01*
X0019765Y0096726D02*
X0037469Y0096726D01*
X0037315Y0098324D02*
X0035190Y0098324D01*
X0035725Y0098859D02*
X0036342Y0100347D01*
X0036342Y0101957D01*
X0035725Y0103445D01*
X0034587Y0104584D01*
X0033099Y0105200D01*
X0031488Y0105200D01*
X0030001Y0104584D01*
X0028862Y0103445D01*
X0028246Y0101957D01*
X0028246Y0100347D01*
X0028862Y0098859D01*
X0030001Y0097720D01*
X0031488Y0097104D01*
X0033099Y0097104D01*
X0034587Y0097720D01*
X0035725Y0098859D01*
X0036166Y0099923D02*
X0037315Y0099923D01*
X0037782Y0101521D02*
X0036342Y0101521D01*
X0035860Y0103120D02*
X0038444Y0103120D01*
X0039857Y0104718D02*
X0034263Y0104718D01*
X0030324Y0104718D02*
X0019765Y0104718D01*
X0019765Y0103120D02*
X0028727Y0103120D01*
X0028246Y0101521D02*
X0019765Y0101521D01*
X0019765Y0099923D02*
X0028421Y0099923D01*
X0029397Y0098324D02*
X0019765Y0098324D01*
X0027276Y0095127D02*
X0038131Y0095127D01*
X0039102Y0093529D02*
X0029652Y0093529D01*
X0030359Y0091930D02*
X0040701Y0091930D01*
X0050490Y0091930D02*
X0053248Y0091930D01*
X0052088Y0093529D02*
X0054847Y0093529D01*
X0056445Y0095127D02*
X0053059Y0095127D01*
X0053721Y0096726D02*
X0058044Y0096726D01*
X0059642Y0098324D02*
X0053875Y0098324D01*
X0060933Y0091930D02*
X0068055Y0091930D01*
X0068302Y0092177D02*
X0067163Y0091039D01*
X0066547Y0089551D01*
X0066547Y0087940D01*
X0067163Y0086453D01*
X0068302Y0085314D01*
X0069790Y0084698D01*
X0071400Y0084698D01*
X0072888Y0085314D01*
X0074027Y0086453D01*
X0074643Y0087940D01*
X0074643Y0089551D01*
X0074027Y0091039D01*
X0072888Y0092177D01*
X0071400Y0092794D01*
X0069790Y0092794D01*
X0068302Y0092177D01*
X0066870Y0090332D02*
X0059335Y0090332D01*
X0057736Y0088733D02*
X0066547Y0088733D01*
X0066881Y0087134D02*
X0056138Y0087134D01*
X0062532Y0093529D02*
X0076547Y0093529D01*
X0076547Y0092940D02*
X0077163Y0091453D01*
X0078302Y0090314D01*
X0079790Y0089698D01*
X0081400Y0089698D01*
X0082888Y0090314D01*
X0084027Y0091453D01*
X0084643Y0092940D01*
X0084643Y0094551D01*
X0084027Y0096039D01*
X0082888Y0097177D01*
X0081400Y0097794D01*
X0079790Y0097794D01*
X0078302Y0097177D01*
X0077163Y0096039D01*
X0076547Y0094551D01*
X0076547Y0092940D01*
X0076966Y0091930D02*
X0073136Y0091930D01*
X0074320Y0090332D02*
X0078285Y0090332D01*
X0078038Y0087134D02*
X0074309Y0087134D01*
X0074643Y0088733D02*
X0092225Y0088733D01*
X0092225Y0090332D02*
X0082906Y0090332D01*
X0084225Y0091930D02*
X0092049Y0091930D01*
X0091394Y0093529D02*
X0084643Y0093529D01*
X0084404Y0095127D02*
X0091805Y0095127D01*
X0096126Y0095127D02*
X0119165Y0095127D01*
X0119165Y0093529D02*
X0096537Y0093529D01*
X0095882Y0091930D02*
X0119674Y0091930D01*
X0121273Y0090332D02*
X0095706Y0090332D01*
X0095706Y0088733D02*
X0122871Y0088733D01*
X0125870Y0091930D02*
X0129425Y0091930D01*
X0130973Y0091930D02*
X0130973Y0091930D01*
X0130973Y0090332D02*
X0130973Y0090332D01*
X0130973Y0089635D02*
X0133742Y0089635D01*
X0130973Y0089635D01*
X0130973Y0089635D01*
X0128289Y0090332D02*
X0127469Y0090332D01*
X0130116Y0093529D02*
X0124272Y0093529D01*
X0123546Y0095127D02*
X0128501Y0095127D01*
X0128462Y0096726D02*
X0123546Y0096726D01*
X0124444Y0098324D02*
X0129193Y0098324D01*
X0129193Y0099923D02*
X0125108Y0099923D01*
X0125108Y0101521D02*
X0129193Y0101521D01*
X0129193Y0103120D02*
X0125108Y0103120D01*
X0125108Y0104718D02*
X0129064Y0104718D01*
X0128362Y0106317D02*
X0125108Y0106317D01*
X0125108Y0107915D02*
X0128743Y0107915D01*
X0124888Y0109514D02*
X0135493Y0109514D01*
X0135493Y0111112D02*
X0125305Y0111112D01*
X0125305Y0112711D02*
X0126807Y0112711D01*
X0129627Y0112711D02*
X0135493Y0112711D01*
X0135171Y0120703D02*
X0133080Y0120703D01*
X0122512Y0120703D02*
X0122112Y0120703D01*
X0120899Y0120703D02*
X0115374Y0120703D01*
X0113502Y0120703D02*
X0107500Y0120703D01*
X0108442Y0119105D02*
X0108811Y0119105D01*
X0108811Y0117506D02*
X0108442Y0117506D01*
X0105494Y0119105D02*
X0103276Y0119105D01*
X0103765Y0117506D02*
X0105071Y0117506D01*
X0105071Y0114309D02*
X0103765Y0114309D01*
X0103482Y0112711D02*
X0105396Y0112711D01*
X0100394Y0117506D02*
X0100025Y0117506D01*
X0100025Y0119105D02*
X0100394Y0119105D01*
X0099626Y0120703D02*
X0105627Y0120703D01*
X0103121Y0122302D02*
X0102133Y0122302D01*
X0097753Y0120703D02*
X0094418Y0120703D01*
X0095206Y0122302D02*
X0095247Y0122302D01*
X0097143Y0119105D02*
X0093302Y0119105D01*
X0094900Y0117506D02*
X0096654Y0117506D01*
X0087214Y0120703D02*
X0080891Y0120703D01*
X0086425Y0122302D02*
X0059317Y0122302D01*
X0059317Y0123900D02*
X0086425Y0123900D01*
X0086477Y0128696D02*
X0040347Y0128696D01*
X0038846Y0130294D02*
X0093581Y0130294D01*
X0095179Y0131893D02*
X0036941Y0131893D01*
X0019805Y0119105D02*
X0019765Y0119105D01*
X0019765Y0117506D02*
X0020221Y0117506D01*
X0019765Y0115908D02*
X0021144Y0115908D01*
X0022077Y0114309D02*
X0019765Y0114309D01*
X0019765Y0112711D02*
X0023982Y0112711D01*
X0026826Y0111112D02*
X0019765Y0111112D01*
X0019765Y0109514D02*
X0051922Y0109514D01*
X0067327Y0098324D02*
X0118266Y0098324D01*
X0117602Y0099923D02*
X0113998Y0099923D01*
X0119165Y0096726D02*
X0083340Y0096726D01*
X0077850Y0096726D02*
X0065729Y0096726D01*
X0064130Y0095127D02*
X0076786Y0095127D01*
X0076743Y0085536D02*
X0073110Y0085536D01*
X0068080Y0085536D02*
X0030517Y0085536D01*
X0112183Y0114309D02*
X0120974Y0114309D01*
X0120974Y0115908D02*
X0121736Y0115908D01*
X0121736Y0117506D02*
X0120974Y0117506D01*
X0120974Y0119105D02*
X0121736Y0119105D01*
X0117531Y0119105D02*
X0111760Y0119105D01*
X0112183Y0117506D02*
X0117406Y0117506D01*
X0117881Y0122302D02*
X0118651Y0122302D01*
X0122112Y0122302D02*
X0122512Y0122302D01*
X0122512Y0123900D02*
X0122112Y0123900D01*
X0110995Y0122302D02*
X0110007Y0122302D01*
X0138974Y0104718D02*
X0140771Y0104718D01*
X0139325Y0103120D02*
X0138974Y0103120D01*
X0138974Y0098324D02*
X0139154Y0098324D01*
X0138974Y0096726D02*
X0140122Y0096726D01*
X0141269Y0095127D02*
X0138974Y0095127D01*
X0138974Y0093529D02*
X0141000Y0093529D01*
X0141970Y0091930D02*
X0138974Y0091930D01*
X0139805Y0090332D02*
X0142451Y0090332D01*
X0144129Y0088733D02*
X0139480Y0088733D01*
X0134986Y0088733D02*
X0133596Y0088733D01*
X0137517Y0083937D02*
X0140311Y0083937D01*
X0141918Y0083937D02*
X0141918Y0083937D01*
X0141918Y0082339D02*
X0141918Y0082339D01*
X0139226Y0082339D02*
X0139115Y0082339D01*
X0155986Y0093529D02*
X0160030Y0093529D01*
X0160004Y0095127D02*
X0155717Y0095127D01*
X0153716Y0119105D02*
X0166915Y0119105D01*
X0166630Y0120703D02*
X0154017Y0120703D01*
X0155976Y0058361D02*
X0195157Y0058361D01*
X0175936Y0027990D02*
X0171295Y0027990D01*
X0170343Y0027990D02*
X0170343Y0027990D01*
X0170343Y0026391D02*
X0170343Y0026391D01*
X0170343Y0024793D02*
X0170343Y0024793D01*
X0170343Y0023194D02*
X0170343Y0023194D01*
X0172776Y0023194D02*
X0192418Y0023194D01*
D22*
X0170343Y0025068D03*
X0143808Y0038690D03*
X0155816Y0052942D03*
X0129792Y0054989D03*
X0119320Y0057115D03*
X0093454Y0042666D03*
X0122351Y0039556D03*
X0093926Y0107469D03*
X0067981Y0118375D03*
D23*
X0079792Y0118375D03*
X0109713Y0103808D03*
X0111682Y0101052D03*
X0093965Y0093650D03*
X0093965Y0080580D03*
X0093454Y0071721D03*
X0093454Y0056131D03*
X0136485Y0061682D03*
X0135225Y0070146D03*
X0143965Y0069950D03*
X0146052Y0076839D03*
X0141918Y0081682D03*
X0135304Y0079202D03*
X0128611Y0086091D03*
X0130973Y0089635D03*
X0134123Y0092784D03*
X0137233Y0090028D03*
X0143572Y0093965D03*
X0144871Y0091209D03*
X0149635Y0096367D03*
X0147076Y0098532D03*
X0140894Y0101052D03*
X0143178Y0103808D03*
X0134123Y0106564D03*
X0130934Y0106485D03*
X0128217Y0114910D03*
X0134123Y0117194D03*
X0137548Y0114910D03*
X0130934Y0122194D03*
X0151446Y0120343D03*
X0151485Y0125225D03*
X0169202Y0120304D03*
X0172312Y0115304D03*
X0175107Y0125265D03*
X0185698Y0096721D03*
X0177036Y0094359D03*
X0174280Y0091209D03*
X0168414Y0086682D03*
X0171564Y0085698D03*
X0169556Y0080580D03*
X0159989Y0075304D03*
X0155540Y0075225D03*
X0155383Y0078217D03*
X0158906Y0080580D03*
X0155225Y0085501D03*
X0153414Y0093965D03*
X0162469Y0094359D03*
X0177824Y0085698D03*
X0188060Y0078217D03*
X0171918Y0061682D03*
X0159792Y0066485D03*
X0147076Y0054438D03*
X0130934Y0095973D03*
D24*
X0130934Y0106485D01*
X0134123Y0106564D02*
X0134123Y0092784D01*
X0137233Y0090028D02*
X0137233Y0114595D01*
X0137548Y0114910D01*
X0128217Y0114910D01*
X0134123Y0117194D02*
X0137272Y0120343D01*
X0151446Y0120343D01*
X0151485Y0125225D02*
X0133926Y0125225D01*
X0133898Y0125158D02*
X0130934Y0122194D01*
X0109950Y0130816D02*
X0164202Y0130816D01*
X0169202Y0125816D01*
X0169202Y0120304D01*
X0172312Y0115304D02*
X0172312Y0126052D01*
X0166170Y0132194D01*
X0105816Y0132194D01*
X0098690Y0125068D01*
X0106564Y0125068D02*
X0106564Y0127430D01*
X0109950Y0130816D01*
X0099320Y0133572D02*
X0166800Y0133572D01*
X0175107Y0125265D01*
X0186650Y0121918D02*
X0201721Y0121918D01*
X0201800Y0121839D01*
X0185698Y0096721D02*
X0169556Y0080580D01*
X0166446Y0080580D02*
X0158906Y0080580D01*
X0155383Y0078217D02*
X0188060Y0078217D01*
X0177824Y0085698D02*
X0198981Y0085698D01*
X0199532Y0086249D01*
X0177036Y0094359D02*
X0162469Y0094359D01*
X0153414Y0093965D02*
X0143572Y0093965D01*
X0144871Y0091209D02*
X0174280Y0091209D01*
X0168414Y0086682D02*
X0167233Y0085501D01*
X0155225Y0085501D01*
X0166446Y0080580D02*
X0171564Y0085698D01*
X0159989Y0075304D02*
X0159910Y0075225D01*
X0155540Y0075225D01*
X0171918Y0061682D02*
X0136485Y0061682D01*
X0093454Y0056131D02*
X0093454Y0071721D01*
X0093965Y0080580D02*
X0093965Y0093650D01*
X0109713Y0103808D02*
X0067587Y0103808D01*
X0053020Y0089241D01*
X0028215Y0089241D01*
X0026311Y0091145D01*
X0030186Y0087666D02*
X0054208Y0087666D01*
X0067594Y0101052D01*
X0111682Y0101052D01*
X0140894Y0101052D02*
X0140894Y0098414D01*
X0142942Y0096367D01*
X0149635Y0096367D01*
X0147076Y0098532D02*
X0147076Y0099910D01*
X0143178Y0103808D01*
X0099320Y0133572D02*
X0090816Y0125068D01*
X0049430Y0121839D02*
X0031013Y0121839D01*
X0030186Y0087666D02*
X0026309Y0083790D01*
X0026309Y0051349D01*
X0031170Y0029910D02*
X0031288Y0029792D01*
X0048446Y0029792D01*
X0185824Y0029792D02*
X0201839Y0029792D01*
X0201879Y0029831D01*
D25*
X0159792Y0066485D02*
X0158430Y0065123D01*
X0155792Y0065123D01*
X0146835Y0065123D01*
X0146737Y0065221D01*
X0143965Y0069950D02*
X0140028Y0073887D01*
X0140028Y0078611D01*
X0132548Y0086091D01*
X0128611Y0086091D01*
X0123923Y0081403D01*
X0106435Y0081403D01*
X0106435Y0070380D02*
X0110802Y0066013D01*
X0121115Y0066013D01*
X0128131Y0073028D01*
X0128131Y0074209D01*
X0130312Y0074209D01*
X0135304Y0079202D01*
D26*
X0133898Y0125158D02*
X0133910Y0125172D01*
X0133919Y0125189D01*
X0133924Y0125206D01*
X0133926Y0125225D01*
M02*
