%
M48
M72
T01C0.01969
T02C0.04000
T03C0.05500
T04C0.06299
T05C0.11811
%
T01
X137600Y71800
X111600Y88800
X111600Y95800
X111600Y100800
X133600Y94800
X133600Y90800
X198600Y55800
X198600Y50800
X198600Y45800
X227600Y69800
X202600Y88800
X203600Y95800
X203600Y100800
X224600Y93800
X224600Y89800
X62600Y101800
X62600Y107800
X62600Y113800
X62600Y119800
T02
X118600Y153800
X128600Y153800
X227600Y153800
X237600Y153800
T03
X118600Y44300
X98600Y44300
T04
X142600Y43500
X142600Y30100
X183600Y30100
X183600Y43500
T05
X67348Y27548
X260261Y27548
X260261Y157469
X67348Y157469
M30
